<svg xmlns="http://www.w3.org/2000/svg" xmlns:xlink="http://www.w3.org/1999/xlink" id="hill" x="0" y="0" version="1.1" viewBox="0 0 648 648" xml:space="preserve" style="enable-background:new 0 0 648 648"><style type="text/css">.st0{fill:#7c7d8d}.st1{fill:#93989a}.st2{fill:#5f5861}.st3{opacity:.6}.st3,.st4{fill:#f9ca77}.st5{fill:#dddee1}.st6,.st7{fill:none;stroke:#0b191e;stroke-width:5;stroke-miterlimit:10}.st7{stroke-width:1.5066}.st8{fill:#856d7b}</style><g><polygon points="0 646.3 648 21 649 649" class="st0"/><polygon points="478.1 328.5 473.2 347.5 499.2 331 508.5 324.7 512.2 319 509.7 314.2 492.8 315.8" class="st1"/><path d="M603.7,146c0.2,0.5,2,28,2,28l17-10.5l6.9-21.3l5.7-18.7l16.6-31.7l0.9-26.5l-10.5,22l-2.7,7l-14.5,28.9 L603.7,146z" class="st1"/><polygon points="500 175.7 505.5 205.5 514.2 214 526.8 204.8 534.6 203.9 501.5 174" class="st1"/><polygon points="451 221.5 457.1 243 481.2 211.5 493.8 178.9 514.2 154.2 482.6 186.6" class="st1"/><path d="M467.5,267.9c1.3,0.1,16.5,6.7,16.5,6.7s13-17.3,13.8-17.3s7.7,1.2,7.7,1.2l3.6-3.9l0.7-2.4l-9-3.2l-11.7,7.9 l-21,9.7L467.5,267.9z" class="st1"/><path d="M505.5,228.3c0,0,3,8.5,2.8,8.1s14.8-9.4,14.8-9.4s15,0.4,14.8-0.8c-0.2-1.2-2.2-14.5-2.2-14.5l-4.3-5.2 L514,219L505.5,228.3z" class="st1"/><polygon points="500.8 174.7 515 186.9 531.7 181.8 542.4 193.7 554.4 168.3 556.8 147.8 562.2 139.8 573.7 144 588 142.7 596.2 128.7 594.7 144.7 622.7 108.2 636.7 93.3 639.7 93.3 632.8 35.7 540.7 132.6" class="st1"/><polygon points="586.3 163.8 570.1 181.6 566 186 554.8 204.5 551 210.8 536.8 218 545.5 225.5 552.3 230.3 567 208.5 579.5 201.7 587.6 188.7" class="st1"/><polygon points="497.3 187.6 505.5 211.5 487.7 243 469.5 254.6 459 264.9 479.2 231.9" class="st1"/><path d="M520.5,410.6l-31.6,37.9L459.4,483l-23.3,21.8l-7,38.8l-39.4,15.6l-24.2,23.6l-39.8,29.7l16.7,10.7l58.3-0.1 c0,0,11.3-14.7,12-15.5c0.7-0.8,1-3.3,1-3.3l-0.7-19.8l17.7-24.8l2-20l35.3-21.3l39.3-63l-5.6,3l-7.5-6.5L520.5,410.6z" class="st2"/><path d="M47.3,646.5c2.4,0,34.7-8.1,34.7-8.1l67.5-17.3l41.5-19.7c0,0,7,4,8,4s47.7-4,47.7-4l51.3-18.4l27.6-18.1 l21.4-4.1l14-22.7l1.3-17.9H374c0,0,4.7,0.7,5.7,0s10.2-3.8,10.2-3.8l-3.6,31.4l-28.4,9.6L343.4,576l-22.4,1.7L307.8,609l-83.8,3 l-50.4,15.6l-25,2.4l-53.4,15.7L83.7,649L45,650.7L47.3,646.5z" class="st2"/><polygon points="400 466 386.7 475.9 394.1 494.7 397.5 475.5" class="st2"/><polygon points="523.1 335 502.6 362.1 474.9 403 472.1 422.1 459 430.2 409.5 511.8 402.2 531.8 387.3 537.9 398 510.6 421.2 470.5 415 456.2 431 455 441.5 430.8 446.3 413.7 462.5 409 489.7 369.3" class="st2"/><polygon points="617.3 58.3 585.7 91 610 89.7 614 106 599 136.3 631 89.3 638.6 84.3 633.8 44.2 631.5 37" class="st3"/><path d="M583,171.9c-1,1.4-14,15.7-14,15.7l12.7,6l5.4-20.3v-9.9L583,171.9z" class="st3"/><path d="M528.5,211.5l-9.7,6.6l-9,9c0,0-1.2,3.8,0,3.2c1.2-0.6,15.9-7.3,15.9-7.3l8-2.1v-9.4H528.5z" class="st3"/><polygon points="597 119.3 570.9 139 572.7 143.7 587.1 140" class="st3"/><path d="M505.5,174.7c0.2-1,40.8-44.3,40.8-44.3l24.6-19h2.7l-24.8,29.3l-15.2,21l-13,10.3l-9.3,4.7L505.5,174.7z" class="st3"/><polygon points="502.7 178.9 528.5 201.7 517 201.7 507 190.7" class="st3"/><polygon points="467.7 208.9 453.4 222.7 458.1 234.7 471.7 217.6 478 196.3" class="st3"/><polygon points="469.5 266 484 271 495 258.5 488.7 258.5" class="st3"/><polygon points="578 254.6 597 247.5 603 220.9 576 250.7" class="st4"/><polygon points="492.3 319 484 327.2 502.7 319" class="st4"/><path d="M567,192.3l-6.7,8.1c0,0,4.3-3.4,6.7-4.1c2.3-0.7,3.9-2.7,3.9-2.7l-1.9-1.3H567z" class="st3"/><polygon points="624.3 128.3 614 143.7 614 155 621.7 155 630 128.3 642.3 98.3" class="st3"/><path d="M539.6,160.7l-11.1,14l5.5,5.7c0,0,8-6.4,8.3-8.4C542.7,170,539.6,160.7,539.6,160.7z" class="st3"/><polygon points="461.8 262.8 485.9 235.8 485.9 242.3" class="st3"/><polygon points="630.4 46.1 623 54.5 620 58.6 627.3 55.5 630.4 52.4" class="st5"/><polygon points="607.6 82.9 603.3 87.4 610.8 87.4 612.1 82.3 617 72 620.8 62.1 616 65.5 605.9 81.3" class="st5"/><polygon points="601.4 80.3 589.9 88.5 599.4 84.4" class="st5"/><polygon points="554.4 126.7 544.5 132.3 549.4 134.5" class="st5"/><polygon points="587.1 129.4 582.8 135.8 586.4 138.8" class="st5"/><polygon points="592.1 124.6 588 129.4 588.8 134.5" class="st5"/><path d="M624.6,130.6c-0.8,0.2-8.9,13.1-8.9,13.1l7.6-3.8l2.4-7.4l3.9-10.9L624.6,130.6z" class="st5"/><polygon points="509.1 254.6 518.8 247.5 523.1 246 524.4 241.5 516.1 238.9" class="st1"/><path d="M573.7,252.5c0.7,1.2,5.8,7.3,5.8,7.3l16.7-7.3l10.7-27.7l14.3-22.3l13.2-2.1l18.5-32.1l-1.7-9.9l-35.8,43.2 L573.7,252.5z" class="st1"/><polygon points="590.1 165 601.4 151.3 605.4 170.5 592.1 176.7 593.3 171.9" class="st1"/><polygon points="441.9 360.5 458.1 355.5 466 338.3 481.2 319.7 501.3 303.9 519.7 308.2 531 300.7 539.5 296.7 554 287.5 567.4 269.4 548.8 286.7 522.7 296.1 504.1 296.3 447.1 349.5" class="st1"/><polygon points="435.8 347.5 453.4 335.6 473.2 314.2 485.2 306 493.8 303.9 497.3 300 486.4 298.7 465.3 314.1 446.2 335" class="st1"/><path d="M472.3,299.7l54.8-33.3c0,0,20.5,2,21,2s11-7.2,11.5-7.5c0.5-0.3,6.8-10.1,6.8-10.1l-16.7-1.4l-11.8-2.6 l-4.6-4.6L472.3,299.7z" class="st1"/><polygon points="156 536 202.5 531 294.8 462.3 341.5 422.3 356 405 358.5 391.8 381.5 388.2 372 374.4 383.7 359.7 367.2 362.6" class="st1"/><polygon points="474.9 403 497.3 401.3 520.6 360.5 527 376.3 539.5 347.5 551.3 347.5 595.3 274.6 601.7 259.8 593.6 261.8 567.4 285 528.5 327.2 521.5 337.2" class="st1"/><path d="M455.2,376.3l-10.9,13.3c0,0,9.5,6.7,10.9,4.3s14.2-17.3,14.3-17.7c0.1-0.3,0-13.7,0-13.7L455.2,376.3z" class="st1"/><polygon points="406.9 398.3 419.7 395.8 426.7 375.3 433 361.1 419.9 371 418 374.4" class="st1"/><polygon points="526.5 405.2 520.6 422.3 544.3 405.2 579 388 619.3 371 648 351.7 648 336.6" class="st1"/><polygon points="636 217.6 646 223.2 626 315 616.3 299.7 587.6 342.6 565.6 362.7 573.6 336.6 595.8 291.5 634.5 212.6" class="st1"/><polygon points="481.2 527 441.9 537.9 471.5 567.8 566.5 571 601.4 516.9 539.6 544" class="st1"/><polygon points="419.9 588.9 433 564.8 465.7 571" class="st1"/><path d="M518.8,461.7l73.3,3.1l27.9-33.1l-7.9-20.5c0,0-26.3,15.2-29.4,16.5c-3.1,1.3-22.4-5.3-22.4-5.3l-24.5,14.1 L518.8,461.7z" class="st1"/><path d="M571.8,403.9c1.2,0.4,6,6.9,6.7,6.7c0.7-0.2,12.1-4.5,12.1-4.5l-7.5-7.5L571.8,403.9z" class="st1"/><polygon points="370.4 459.2 353.8 475.3 374.3 472.3 381.3 460.2" class="st1"/><path d="M387.3,440.8c0.4,0.8,4.2,9.5,4.2,9.5l4-2.4l-8.8-11.4L387.3,440.8z" class="st1"/><polygon points="375.6 488.7 374.5 494.7 381.3 491.7 370.2 502 351.3 499.8" class="st1"/><polyline points="344.5 508.7 353.8 516.9 362.3 520 378.5 520.3 389.8 516.2 384.7 516.2 378.5 513.8 368.4 504.8 345.5 508.5" class="st1"/><polygon points="416.3 447.8 431 455 415 456.2" class="st1"/><polygon points="383.7 347.5 439.3 303.9 451 258.5 441.9 261.8 445.5 249.3 408.4 303 371.4 356.6" class="st1"/><polygon points="111.1 625.7 175.2 604.7 191 601.3 199 605.3 246.7 601.3 301.2 573.8 325.6 564.8 331 558.9 293.3 567.8 225.2 583.4 193.1 590.4 145.3 607.8" class="st1"/><polygon points="439.3 234.7 284.1 383 114.5 556 0 654 15.4 631.4 486.5 178.9" class="st1"/><path d="M449.1,237.7c-0.1,0.9-37.9,49.9-37.9,49.9l-54.7,59.9L326,366l5,5l-76.1,41.8l-103.4,97.8l-26.5,33L95.3,571 L71,578L34.1,615L8,642.2L0,654l9.5-4.3l6.9-0.7L33,637l76.4-37.9l18.3-8.8l21.9-21.4l-0.1-31.1l217.7-175.1l81.1-117.8 L449.1,237.7z" class="st2"/><path d="M51.8,629.9c2.8,0,47-12.9,47-12.9l31.5-21l50.8-14.8l5.5-9.5l16-23.8l2,18l10.7-7.1l9.4-22.1l56.7-21.8 l7.3,10.3L319,515l9.8-51.3l24-27.3l10.9-14.1l23-4.3l8.8-23.5l15.7-11l3.3-1.6l-7.7,16.5l3.5,13.3l-2.2,16l4.3,12.1l-3,6.9 l-11.1-0.9l-11.6-9.4l-5.8,13.4l-30.2,25.3l0.8,32.3l-8.7,2l-3,24.7l0.4,22.7l-147,33.5l-47.8,17.5L103,629.9H51.8z" class="st2"/><polygon points="387.3 626.4 317 634 292 629.8 263.3 616 208.3 634 198.7 625.7 176 631.7 91.7 646.6 69.3 654 240 654 377 650.7 379 646 413.2 619.9 413.2 606.1" class="st2"/><polygon points="150.3 538.5 149.5 567.8 158.6 571.5 176.8 567.8 183.8 551.5 187.3 564.8 186.5 571.8 201 554.2 204.5 566 205.7 543.7" class="st2"/><polygon points="423.1 596.7 473.2 567.8 566.5 571 640.5 491.2 589.2 597.2 479.8 648.6 413.2 619.9" class="st2"/><polygon points="435.8 542.3 471.5 567.8 465.7 571 433 564.8" class="st2"/><path d="M518.8,461.7c-0.1,2-21.5,70-21.5,70l42.3,12.3l61.8-27l-9.3-52.2L518.8,461.7z" class="st2"/><path d="M520.6,422.3c-1.3,2.3-16,29.7-16,29.7l7.2,0.6l22.6-21.4l28.3-14l9.1-13.3l11.3-5.3l10.7,10.7l54.2-34.8 v-22.8L619.3,371l-75.1,34.2L520.6,422.3z" class="st2"/><path d="M474.9,403c1.3-0.1,22.4-1.7,22.4-1.7l-4.6,31.9l-19.5-10.9L474.9,403z" class="st2"/><polygon points="406.9 398.3 419.7 395.8 419.7 413 410.3 411.6" class="st2"/><polygon points="409.5 428 414.5 426.5 412.4 439.8" class="st2"/><polygon points="372 374.4 385.3 359.7 439.3 303.9 444.3 320 458.4 290.4 456.2 324 437 344.3 419.9 371 415.2 379.7 383.7 387" class="st2"/><polygon points="526 243 538 230.3 539.3 235 528.6 246.7" class="st2"/><polygon points="467.5 269.4 482.6 276.5 466.5 294.3 464.4 294.3" class="st2"/><line x1="0" x2="648" y1="648" y2="21" class="st6"/><polygon points="632.8 35.7 500.8 174.7 482.7 226.1 459 264.9 458 308.2 504 269.1 533.4 242.2 551 247.2 587.8 201 587.1 163.5 625.1 123.4 639.7 93.7" class="st7"/><polyline points="500.8 174.7 534.6 203.9 539.3 235 531.1 244.3" class="st7"/><polyline points="511.4 262.3 509.1 253.7 516.1 238.9 525.1 241.7 528.5 246.7" class="st7"/><polyline points="535.8 211.8 531.5 206.5 511.7 220.7 505.5 228.3 508.9 238 512 247.5" class="st7"/><polyline points="509.8 252.2 500.8 249.1 488.2 257.4 467.6 266.9 465.8 282.1 464.4 294.3 458.1 303.9" class="st7"/><polyline points="587.1 163.5 566 186 551 210.8 536.8 218" class="st7"/><polyline points="735.4 -29.5 707.9 15.1 688.4 78 675.4 111.4 675.8 127.4 644.3 167 573.4 252 568 268.9 548.5 286.6 522.7 296.1 504.1 296.3 447.1 349.5 440.1 364.3 438.6 377 430.9 401.5 422.8 415.7 398.9 471 389.8 516.2 386.2 547.6 357.8 557.2 343.4 576 321.2 578 307.8 609 224.7 612.3 173.6 627.6 148.3 629.9 99.7 644.7 83.7 648" class="st7"/><polyline points="499.8 300.3 486.4 298.7 465.3 314.1 446.2 335 436.5 346.4 417.6 374.9 406.9 399.1 410.3 411.6 408.1 427.7 412.4 439.8" class="st7"/><polyline points="439.3 371 458.7 363.8 478.1 328.5 492.8 315.8 509.7 314.2 519.2 326.1 523.1 335" class="st7"/><polyline points="705.3 116.5 664.3 168.9 651.8 198.3 646.5 209.3 625.5 215.5 595.6 260.1 567.4 285 548.5 305.9 523.1 335 501.7 363.3 474.5 403.7 472.1 422.1 459 430.2 408.3 513.8 402.2 531.8 387.3 537.9" class="st7"/><polyline points="409.4 446.8 397.1 445.3 387.4 436.9 380.9 449.9 366.2 462.9 350.6 475.2 351.4 507.2 342.6 509.2 339.7 534.2 340.1 556.9 312.6 562.8 272 573.3 193.1 590.4 145.3 607.8 103 629.9 47.3 629.9 33 666" class="st7"/><polyline points="370.4 459.2 383.9 458.6 382.3 472.3 370.2 482.8 375.6 488.7 351.3 499.8 370.2 502 379.9 493 392.7 491.2" class="st7"/><polyline points="351.4 507.2 368.4 504.8 378.5 513.8 385.3 516.4 389.8 516.2" class="st7"/><polyline points="401.6 464.8 386.7 475.9 394.1 494.7" class="st7"/><polyline points="651.9 16.5 491.5 176.9 451 221.5 448.2 245.4 367.2 362.6 282.5 428.6 149.5 537.9 149.5 569 127 590.4 33 637 0 660" class="st7"/><polyline points="149.5 537.9 205.7 543.7 363.7 422.3 370.6 394.3 383.7 387 372 374.4 383.7 359.7 367.2 362.6" class="st7"/><line x1="363.7" x2="361" y1="422.3" y2="464.8" class="st8"/><line x1="458" x2="456.2" y1="308.2" y2="324" class="st7"/><path d="M634.5,212.6l-70.7,144l-23.3,24c0,0,0.7,9.3,0,11.3s-14.7,4-14.7,4l-5.3,14.7l-26.7,41.3l7.3,6.7l10.7-6 l24-22.7l28.3-13.3l7.7-12.7l11.3-5.3l10.7,10.7l20.7-12.7l33.5-22.1" class="st7"/><polyline points="648 336.6 586.5 369.9 560.5 385.2 526.5 405.2 497.3 455" class="st7"/><polyline points="507.5 455 493.8 475.9 477.8 501.9 467.8 518.6 432.5 539.9 430.5 559.9 413.2 584.6 413.2 619.9 378.5 646.6 294.5 641.9 215.2 674.6" class="st7"/><polyline points="640.5 491.2 589.2 597.2 479.8 648.6 389.8 648.6 302.5 674.6" class="st7"/></g></svg>