<svg xmlns="http://www.w3.org/2000/svg" xmlns:xlink="http://www.w3.org/1999/xlink" width="1600" height="595.6" x="0" y="0" version="1.1" viewBox="0 0 1600 595.6" xml:space="preserve" style="enable-background:new 0 0 1600 595.6"><style type="text/css">.st0{fill:#151515}.st1{fill:#f2dd1d;stroke:#727330;stroke-width:1.9754;stroke-miterlimit:10}.st2{display:none}.st3{display:inline}.st4{font-family:&apos;MyriadPro-Regular&apos;}.st5{font-size:208.5938px}</style><g id="Layer_3"><g><path d="M271.7,174.7c0-39.6,0-47-0.3-55.2c-0.6-8.9-3.4-12-9.3-13.8c-3.1-0.9-6.5-1.2-9.9-1.2 c-2.8,0-4.3-0.6-4.3-3.1c0-1.5,2.2-2.1,6.5-2.1c10.2,0,28.8,0.6,36.6,0.6c6.8,0,24.5-0.6,35-0.6c3.4,0,5.6,0.6,5.6,2.1 c0,2.5-1.6,3.1-4.3,3.1c-2.8,0-5,0.3-8.1,0.9c-7.4,1.2-9.6,4.9-10.2,14.1c-0.6,8.3-0.6,15.7-0.6,55.2v46c0,25.2,0,46,1.2,57.1 c0.9,7.1,2.8,11,10.8,12.3c3.7,0.6,9.9,0.9,14,0.9c3.1,0,4.3,1.5,4.3,2.8c0,1.8-2.2,2.8-5.3,2.8c-18,0-36.6-0.9-44-0.9 c-6.2,0-24.8,0.9-35.6,0.9c-3.4,0-5.3-0.9-5.3-2.8c0-1.2,0.9-2.8,4.3-2.8c4,0,7.1-0.3,9.6-0.9c5.6-1.2,7.1-4.9,8.1-12.6 c1.2-10.7,1.2-31.6,1.2-56.8L271.7,174.7L271.7,174.7z" class="st0"/><path d="M379.9,293.2c-4.3-1.8-5.3-3.1-5.3-8.9c0-14.1,1.2-30.4,1.5-34.7c0-4,1.2-6.8,3.4-6.8c2.5,0,2.8,2.5,2.8,4.3 c0,3.4,0.9,8.9,2.5,13.5c5.9,19.3,26.3,25.8,43.4,25.8c23.6,0,37.8-14.7,37.8-33.1c0-11.4-2.8-22.7-27-36.8l-15.8-9.2 C391,188.5,380.5,171,380.5,148c0-31.9,31-52.5,68.8-52.5c17.7,0,31.6,2.5,38.7,4.3c2.5,0.6,3.7,1.5,3.7,3.4 c0,3.4-0.9,10.7-0.9,31.3c0,5.5-1.2,8.3-3.4,8.3c-1.9,0-2.8-1.5-2.8-4.6c0-2.5-1.2-10.4-7.1-17.2c-4-4.9-12.7-12.3-30.4-12.3 c-19.5,0-37.2,10.1-37.2,27.9c0,11.7,4.3,20.9,28.8,34.4l11.2,6.1c36,19.6,47.1,39.6,47.1,63.2c0,19.3-7.4,35-27.3,48.8 c-13,9.2-31,10.7-45.6,10.7C408.4,300,391.6,298.4,379.9,293.2z" class="st0"/><path d="M588.5,228.8c0-14.1-2.5-19.6-6.2-27.3c-1.9-4-39.1-61.4-48.7-75.2c-6.8-9.5-12.4-15.7-17.7-18.4 c-3.4-1.8-8.1-3.4-11.5-3.4c-2.2,0-4-0.9-4-2.8c0-1.8,1.9-2.5,5.3-2.5c4.6,0,25.1,0.6,34.1,0.6c5.9,0,18.6-0.6,31-0.6 c2.5,0,4,0.6,4,2.5c0,2.1-1.9,2.1-6.2,3.4c-2.2,0.6-3.7,1.8-3.7,4s1.2,5.2,3.4,8.9c5,8,40.6,69.1,45.3,76.4 c3.4-6.1,36.6-62,40.6-70c2.8-5.8,4-10.4,4-13.8c0-2.5-1.2-4.9-5.9-5.8c-2.5-0.6-5-0.9-5-3.1c0-1.8,1.6-2.5,4.6-2.5 c9,0,18.6,0.6,26.7,0.6c5.9,0,23.9-0.6,29.1-0.6c3.1,0,5,0.6,5,2.1c0,1.8-2.2,3.1-5.3,3.1c-2.8,0-7.8,1.2-11.8,3.1 c-5.9,2.8-8.4,5.2-14.3,12.3c-9,10.4-48,72.4-53,83.5c-4,9.5-3.4,17.5-3.4,26.1v20.9c0,4.3,0,15,0.6,26.1 c0.6,7.7,3.1,12.6,11.2,13.8c4,0.6,9.9,0.9,13.6,0.9c3.1,0,4.6,1.5,4.6,2.8c0,1.8-2.2,2.8-5.9,2.8c-17,0-35.3-0.9-42.8-0.9 c-6.8,0-25.1,0.9-35.3,0.9c-3.7,0-5.9-0.6-5.9-2.8c0-1.2,1.2-2.8,4.3-2.8c3.7,0,7.1-0.3,9.6-0.9c5.6-1.2,7.8-6.1,8.4-13.8 c0.9-11,0.9-21.8,0.9-26.1v-21.5H588.5z" class="st0"/><path d="M738.8,174.7c0-39.6,0-47-0.3-55.2c-0.6-8.9-3.1-11.7-11.8-14.1c-2.2-0.6-6.8-0.9-10.9-0.9 c-2.8,0-4.6-0.9-4.6-2.8c0-1.8,2.2-2.5,6.2-2.5c14.3,0,31.6,0.6,39.4,0.6c11.2,0,32.9-0.6,45.3-0.6c34.1,0,46.5,11,50.8,14.7 c5.9,5.5,13.6,17.2,13.6,31.3c0,36.8-29.8,63.2-68.5,63.2c-1.2,0-6.8,0-8.1-0.3c-1.5,0-3.4-0.9-3.4-2.8c0-2.1,3.1-3.4,9-3.4 c15.2,0,36.6-15.7,36.6-42.4c0-8.6-0.9-25.8-16.1-38.7c-9.9-8.6-21.1-9.8-27.3-9.8c-4,0-9.3,0.3-11.8,1.2 c-1.6,0.6-2.2,2.1-2.2,4.9v103.4c0,23.9,0,44.5,1.2,55.9c0.9,7.4,2.5,12.3,10.5,13.5c4,0.6,9.9,0.9,14,0.9c3.1,0,4.3,1.5,4.3,2.8 c0,1.8-2.2,2.8-5,2.8c-18.3,0-37.5-0.9-44.6-0.9c-6.2,0-23.6,0.9-34.4,0.9c-3.4,0-5.3-0.9-5.3-2.8c0-1.2,0.9-2.8,4.3-2.8 c4,0,7.1-0.3,9.6-0.9c5.6-1.2,7.1-6.1,8.1-13.8c1.2-11,1.2-31.6,1.2-55.6v-45.8H738.8z" class="st0"/><path d="M1061.9,184.2c0.6,0,1.5-0.3,1.5-1.8v-5.5c0-39.6-0.3-49.1-0.6-57.4c-0.6-8.9-3.1-11.7-11.8-14.1 c-2.2-0.6-6.8-0.9-10.5-0.9c-3.1,0-4.6-0.9-4.6-2.8c0-1.8,1.9-2.5,5.9-2.5c14.6,0,33.8,0.6,40.9,0.6c6.5,0,24.5-0.6,35-0.6 c4,0,5.9,0.6,5.9,2.5c0,1.8-1.9,2.8-5,2.8c-2.2,0-4.7,0.3-8.1,0.9c-7.1,1.2-9.3,4.9-9.9,14.1c-0.6,8.3-0.6,15.7-0.6,55.2v46 c0,23.9,0,44.5,1.2,55.9c0.9,7.4,2.5,12.3,10.8,13.5c3.7,0.6,9.6,0.9,14,0.9c2.8,0,4.3,1.5,4.3,2.8c0,1.8-2.2,2.8-5.6,2.8 c-17.7,0-35.6-0.9-43.1-0.9c-6.2,0-25.4,0.9-36,0.9c-3.7,0-5.9-0.9-5.9-2.8c0-1.2,1.2-2.8,4.3-2.8c4.3,0,7.4-0.3,9.9-0.9 c5.6-1.2,7.1-6.1,8.1-13.8c1.2-11,1.2-31,1.2-54.9v-20c0-0.9-0.9-1.5-1.5-1.5H958.9c-0.9,0-1.9,0.3-1.9,1.5v20 c0,23.9,0.3,43.9,1.5,55.2c0.9,7.4,2.5,12.3,10.5,13.5c3.7,0.6,9.9,0.9,13.9,0.9c3.1,0,4.3,1.5,4.3,2.8c0,1.8-2.2,2.8-5.6,2.8 c-17.7,0-36.6-0.9-44.3-0.9c-6.2,0-24.2,0.9-35,0.9c-3.4,0-5.3-0.9-5.3-2.8c0-1.2,0.9-2.8,4.3-2.8c4,0,7.1-0.3,9.6-0.9 c5.6-1.2,7.1-6.1,8.1-13.8c1.2-11,1.2-31.6,1.2-55.6v-46c0-39.6,0-47-0.3-55.2c-0.6-8.9-3.1-11.7-11.8-14.1 c-2.2-0.6-6.8-0.9-10.8-0.9c-2.8,0-4.7-0.9-4.7-2.8c0-1.8,2.2-2.5,5.9-2.5c14.6,0,32.5,0.6,40,0.6c6.5,0,25.4-0.6,36.3-0.6 c3.7,0,5.6,0.6,5.6,2.5c0,1.8-1.5,2.8-5,2.8c-2.2,0-4.7,0.3-7.8,0.9c-7.4,1.2-9.6,4.9-10.2,14.1c-0.6,8.3-0.6,17.8-0.6,57.4v5.5 c0,1.5,0.9,1.8,1.9,1.8L1061.9,184.2L1061.9,184.2z" class="st0"/><path d="M1174.4,174.7c0-39.6,0.3-47-0.3-55.2c-0.6-9.2-3.1-11.7-11.8-14.1c-2.2-0.6-6.8-0.9-10.5-0.9 c-3.1,0-4.6-0.9-4.6-2.8c0-1.8,1.9-2.5,5.9-2.5c14.6,0,32.9,0.6,40.9,0.6c6.8,0,25.1-0.6,35-0.6c4,0,5.9,0.6,5.9,2.5 c0,1.8-1.6,2.8-4.3,2.8c-3.1,0-4.7,0.3-8.1,0.9c-7.1,1.2-9.3,4.9-9.9,14.1c-0.6,8.3-0.6,15.7-0.6,55.2v36.5 c0,38.1,7.4,52.8,20.8,63.2c12.1,9.5,25.1,10.4,34.4,10.4c11.8,0,25.7-3.4,36.6-13.8c15.2-14.1,15.8-36.8,15.8-63.5v-32.8 c0-39.6-0.3-47-0.6-55.2c-0.6-8.9-2.8-11.7-11.5-14.1c-2.2-0.6-6.8-0.9-9.9-0.9s-4.7-0.9-4.7-2.8c0-1.8,1.9-2.5,5.6-2.5 c14,0,32.2,0.6,32.5,0.6c3.1,0,21.4-0.6,31.9-0.6c3.7,0,5.6,0.6,5.6,2.5c0,1.8-1.5,2.8-4.6,2.8s-4.7,0.3-8.1,0.9 c-7.4,1.2-9.3,4.9-9.9,14.1c-0.3,8.3-0.6,15.7-0.6,55.2v27.9c0,29.2-3.1,59.9-26,78.6c-19.2,16-40,18.7-57.7,18.7 c-14.3,0-42.5-0.6-62.3-17.8c-13.9-12-24.8-31.3-24.8-69.1v-38.3H1174.4z" class="st0"/><path d="M1403.8,293.2c-4.3-1.8-5.3-3.1-5.3-8.9c0-14.1,1.2-30.4,1.5-34.7c0-4,1.2-6.8,3.4-6.8c2.5,0,2.8,2.5,2.8,4.3 c0,3.4,0.9,8.9,2.5,13.5c5.9,19.3,26.3,25.8,43.4,25.8c23.6,0,37.8-14.7,37.8-33.1c0-11.4-2.8-22.7-27-36.8l-15.8-9.2 c-32.2-18.7-42.8-36.2-42.8-59.2c0-31.9,31-52.5,68.8-52.5c17.7,0,31.6,2.5,38.8,4.3c2.5,0.6,3.7,1.5,3.7,3.4 c0,3.4-0.9,10.7-0.9,31.3c0,5.5-1.2,8.3-3.4,8.3c-1.9,0-2.8-1.5-2.8-4.6c0-2.5-1.2-10.4-7.1-17.2c-4-4.9-12.7-12.3-30.4-12.3 c-19.5,0-37.2,10.1-37.2,27.9c0,11.7,4.3,20.9,28.8,34.4l11.2,6.1c36,19.6,47.1,39.6,47.1,63.2c0,19.3-7.4,35-27.3,48.8 c-13,9.2-31,10.7-45.6,10.7C1432.3,300,1415.6,298.4,1403.8,293.2z" class="st0"/></g><g><path d="M359.8,513.6c-23-20-29.1-46-29.1-68.5c0-15.8,4.9-43.2,27.4-63.6c16.9-15.3,39.1-24.6,74.1-24.6 c14.5,0,23.2,0.9,34,2.3c8.9,1.2,16.4,3.2,23.4,3.9c2.6,0.2,3.5,1.4,3.5,2.8c0,1.9-0.7,4.6-1.2,12.8c-0.5,7.7-0.2,20.4-0.7,25.1 c-0.2,3.5-0.7,5.3-2.8,5.3c-1.9,0-2.3-1.9-2.3-5.1c-0.2-7.2-3.3-15.3-9.1-21.4c-7.7-8.1-26-14.4-47.6-14.4 c-20.4,0-33.8,5.1-44.1,14.4c-17.1,15.5-21.6,37.6-21.6,60.1c0,55.2,42.4,82.6,73.8,82.6c20.9,0,33.5-2.3,42.9-13 c4-4.4,7-11.1,8-15.3c0.7-3.7,1.2-4.6,3-4.6c1.6,0,2.1,1.6,2.1,3.5c0,2.8-2.8,23-5.2,30.9c-1.2,3.9-2.1,5.1-6.1,6.7 c-9.4,3.7-27.2,5.3-42.2,5.3C408.1,538.9,381.1,532,359.8,513.6z" class="st0"/><path d="M570.7,468.4c0,29.7,0,45.7,4.9,49.9c4,3.5,10.1,5.1,28.4,5.1c12.4,0,21.6-0.2,27.4-6.5 c2.8-3,5.6-9.5,6.1-13.9c0.2-2.1,0.7-3.5,2.6-3.5c1.6,0,1.9,1.2,1.9,3.9c0,2.6-1.6,20-3.5,26.7c-1.4,5.1-2.6,6.3-14.8,6.3 c-16.9,0-29.1-0.5-39.6-0.7c-10.5-0.5-19-0.7-28.6-0.7c-2.6,0-7.7,0-13.4,0.2c-5.4,0-11.5,0.5-16.2,0.5c-3,0-4.7-0.7-4.7-2.3 c0-1.2,0.9-1.9,3.8-1.9c3.5,0,6.3-0.5,8.4-0.9c4.7-0.9,5.9-6,6.8-12.8c1.2-9.7,1.2-28.1,1.2-49.4v-40.8c0-35.3,0-41.8-0.5-49.2 c-0.5-7.9-2.3-11.6-10.1-13.2c-1.9-0.5-4.7-0.7-7.7-0.7c-2.6,0-4-0.5-4-2.1s1.6-2.1,5.2-2.1c11,0,25.8,0.7,32.1,0.7 c5.6,0,22.7-0.7,31.9-0.7c3.3,0,4.9,0.5,4.9,2.1s-1.4,2.1-4.2,2.1c-2.6,0-6.3,0.2-9.1,0.7c-6.3,1.2-8.2,5.1-8.7,13.2 c-0.5,7.4-0.5,13.9-0.5,49.2L570.7,468.4L570.7,468.4z" class="st0"/><path d="M680.9,427.5c0-35.3,0-41.8-0.5-49.2c-0.5-7.9-2.8-11.8-8-13c-2.6-0.7-5.6-0.9-8.4-0.9 c-2.3,0-3.8-0.5-3.8-2.3c0-1.4,1.9-1.9,5.6-1.9c8.9,0,23.7,0.7,30.5,0.7c5.9,0,19.7-0.7,28.6-0.7c3,0,4.9,0.5,4.9,1.9 c0,1.9-1.4,2.3-3.8,2.3c-2.3,0-4.2,0.2-7,0.7c-6.3,1.2-8.2,5.1-8.7,13.2c-0.5,7.4-0.5,13.9-0.5,49.2v40.8c0,22.5,0,40.8,0.9,50.8 c0.7,6.3,2.3,10.4,9.4,11.4c3.3,0.5,8.4,0.9,12,0.9c2.6,0,3.8,0.7,3.8,1.9c0,1.6-1.9,2.3-4.5,2.3c-15.5,0-30.2-0.7-36.6-0.7 c-5.4,0-20.2,0.7-29.5,0.7c-3,0-4.7-0.7-4.7-2.3c0-1.2,0.9-1.9,3.8-1.9c3.5,0,6.3-0.5,8.4-0.9c4.7-0.9,6.1-4.9,6.8-11.6 c1.2-9.7,1.2-28.1,1.2-50.6L680.9,427.5L680.9,427.5z" class="st0"/><path d="M785.7,513.6c-23-20-29.1-46-29.1-68.5c0-15.8,4.9-43.2,27.4-63.6c16.9-15.3,39.1-24.6,74.1-24.6 c14.5,0,23.2,0.9,34,2.3c8.9,1.2,16.4,3.2,23.4,3.9c2.6,0.2,3.5,1.4,3.5,2.8c0,1.9-0.7,4.6-1.2,12.8c-0.5,7.7-0.2,20.4-0.7,25.1 c-0.2,3.5-0.7,5.3-2.8,5.3c-1.9,0-2.3-1.9-2.3-5.1c-0.2-7.2-3.3-15.3-9.1-21.4c-7.7-8.1-26-14.4-47.6-14.4 c-20.4,0-33.8,5.1-44.1,14.4c-17.1,15.5-21.6,37.6-21.6,60.1c0,55.2,42.4,82.6,73.8,82.6c20.9,0,33.5-2.3,42.9-13 c4-4.4,7-11.1,8-15.3c0.7-3.7,1.2-4.6,3-4.6c1.6,0,2.1,1.6,2.1,3.5c0,2.8-2.8,23-5.2,30.9c-1.2,3.9-2.1,5.1-6.1,6.7 c-9.4,3.7-27.2,5.3-42.2,5.3C834,538.9,807,532,785.7,513.6z" class="st0"/><path d="M995.9,437.7h1.2c8-8.6,42.2-43.2,49-51.1c6.6-7.7,11.7-13.5,11.7-17.4c0-2.6-0.9-4.2-3.3-4.6 c-2.1-0.5-3-0.9-3-2.3c0-1.6,1.2-2.1,3.8-2.1c4.9,0,17.8,0.7,24.1,0.7c7.3,0,20.2-0.7,27.4-0.7c2.3,0,4,0.5,4,2.1 s-1.2,2.1-3.5,2.1c-3.3,0-9.1,0.9-13.6,2.6c-7.3,2.8-15.2,7.7-25.3,17.4c-7.3,7-42.7,41.8-50.6,50.1c8.4,10.9,54.4,59.9,63.5,68.5 c10.3,9.7,20.9,20.2,33.5,25.1c7,2.8,11.7,3.5,14.5,3.5c1.6,0,3,0.5,3,1.9c0,1.6-1.2,2.3-5.6,2.3h-20.4c-7,0-11.3,0-16.2-0.5 c-12.7-1.2-19-6.3-29.1-15.1c-10.3-9.1-56.5-62.7-61.4-69.4l-2.6-3.5h-1.2v21.1c0,21.4,0,39.7,0.7,49.7c0.5,6.5,2.6,11.6,8.4,12.5 c3.3,0.5,8.4,0.9,11.5,0.9c1.9,0,3,0.7,3,1.9c0,1.6-1.9,2.3-4.5,2.3c-13.1,0-27.9-0.7-33.8-0.7c-5.4,0-20.2,0.7-29.5,0.7 c-3,0-4.7-0.7-4.7-2.3c0-1.2,0.9-1.9,3.8-1.9c3.5,0,6.3-0.5,8.4-0.9c4.7-0.9,5.9-6,6.8-12.8c1.2-9.7,1.2-28.1,1.2-49.4v-40.8 c0-35.3,0-41.8-0.5-49.2c-0.5-7.9-2.3-11.6-10.1-13.2c-1.9-0.5-5.9-0.7-9.1-0.7c-2.6,0-4-0.5-4-2.1s1.6-2.1,5.2-2.1 c12.4,0,27.2,0.7,32.8,0.7s20.4-0.7,28.4-0.7c3.3,0,4.9,0.5,4.9,2.1s-1.4,2.1-3.3,2.1c-2.3,0-3.8,0.2-6.6,0.7 c-6.3,1.2-8.2,5.1-8.7,13.2c-0.5,7.4-0.5,13.9-0.5,49.2v10.1H995.9z" class="st0"/><path d="M1145,427.5c0-35.3,0-41.8-0.5-49.2c-0.5-7.9-2.3-11.6-10.1-13.2c-1.9-0.5-5.9-0.7-9.1-0.7 c-2.6,0-4-0.5-4-2.1s1.6-2.1,5.2-2.1c6.3,0,13.1,0.2,19,0.2c6.1,0.2,11.5,0.5,14.8,0.5c7.5,0,54.1,0,58.6-0.2 c4.5-0.5,8.2-0.9,10.1-1.4c1.2-0.2,2.6-0.9,3.8-0.9s1.4,0.9,1.4,2.1c0,1.6-1.2,4.4-1.9,15.1c-0.2,2.3-0.7,12.5-1.2,15.3 c-0.2,1.2-0.7,2.6-2.3,2.6s-2.1-1.2-2.1-3.2c0-1.6-0.2-5.6-1.4-8.4c-1.6-4.2-4-7-15.7-8.4c-4-0.5-28.6-0.9-33.3-0.9 c-1.2,0-1.6,0.7-1.6,2.3v58.7c0,1.6,0.2,2.6,1.6,2.6c5.2,0,32.1,0,37.5-0.5c5.6-0.5,9.1-1.2,11.3-3.5c1.6-1.9,2.6-3,3.8-3 c0.9,0,1.6,0.5,1.6,1.9s-0.9,5.1-1.9,16.9c-0.2,4.6-0.9,13.9-0.9,15.5c0,1.9,0,4.4-2.1,4.4c-1.6,0-2.1-0.9-2.1-2.1 c-0.2-2.3-0.2-5.3-0.9-8.4c-1.2-4.6-4.5-8.1-13.1-9.1c-4.5-0.5-27.7-0.7-33.3-0.7c-1.2,0-1.4,0.9-1.4,2.3v18.3 c0,7.9-0.2,29.2,0,36c0.5,16,4.2,19.5,28.1,19.5c6.1,0,15.9,0,22-2.8s8.9-7.7,10.5-17.2c0.5-2.6,0.9-3.5,2.6-3.5 c1.9,0,1.9,1.9,1.9,4.2c0,5.3-1.9,21.1-3,25.8c-1.6,6-3.8,6-12.7,6c-17.6,0-30.5-0.5-40.6-0.7c-10.1-0.5-17.3-0.7-24.4-0.7 c-2.6,0-7.7,0-13.4,0.2c-5.4,0-11.5,0.5-16.2,0.5c-3,0-4.7-0.7-4.7-2.3c0-1.2,0.9-1.9,3.8-1.9c3.5,0,6.3-0.5,8.4-0.9 c4.7-0.9,5.9-6,6.8-12.8c1.2-9.7,1.2-28.1,1.2-49.4v-40.7H1145z" class="st0"/><path d="M1290.8,427.5c0-35.3,0-41.8-0.5-49.2c-0.5-7.9-2.3-11.6-10.1-13.2c-1.9-0.5-5.9-0.7-9.1-0.7 c-2.6,0-4-0.5-4-2.1s1.6-2.1,5.2-2.1c12.4,0,27.2,0.7,32.1,0.7c8,0,25.8-0.7,33.1-0.7c14.8,0,30.5,1.4,43.1,10 c6.6,4.4,15.9,16.2,15.9,31.8c0,17.2-7.3,33-30.9,52c20.9,26,37,46.6,50.9,61c13.1,13.5,22.7,15.1,26.3,15.8 c2.6,0.5,4.7,0.7,6.6,0.7s2.8,0.7,2.8,1.9c0,1.9-1.6,2.3-4.5,2.3h-22.3c-13.1,0-19-1.2-25.1-4.4c-10.1-5.3-19-16.2-32.1-34.1 c-9.4-12.8-20.2-28.5-23.2-32c-1.2-1.4-2.6-1.6-4.2-1.6l-20.4-0.5c-1.2,0-1.9,0.5-1.9,1.9v3.2c0,21.6,0,39.9,1.2,49.7 c0.7,6.7,2.1,11.8,9.1,12.8c3.5,0.5,8.7,0.9,11.5,0.9c1.9,0,2.8,0.7,2.8,1.9c0,1.6-1.6,2.3-4.7,2.3c-13.6,0-30.9-0.7-34.5-0.7 c-4.5,0-19.2,0.7-28.6,0.7c-3,0-4.7-0.7-4.7-2.3c0-1.2,0.9-1.9,3.8-1.9c3.5,0,6.3-0.5,8.4-0.9c4.7-0.9,5.9-6,6.8-12.8 c1.2-9.7,1.2-28.1,1.2-49.4L1290.8,427.5L1290.8,427.5z M1318.5,445.9c0,2.6,0.5,3.5,2.1,4.2c4.9,1.6,12,2.3,17.8,2.3 c9.4,0,12.4-0.9,16.6-3.9c7-5.1,13.8-15.8,13.8-34.8c0-33-22-42.5-35.9-42.5c-5.9,0-10.1,0.2-12.4,0.9c-1.6,0.5-2.1,1.4-2.1,3.2 L1318.5,445.9L1318.5,445.9z" class="st0"/></g><g><path d="M63.7,343.4c-5.6-2.4-6.6-4.1-6.6-11.8c0-19,1.4-39.8,1.7-45.3c0.3-5.2,1.4-9,4.2-9c3.1,0,3.5,3.1,3.5,5.9 c0,4.5,1.4,11.8,3.1,17.6c7.7,25.6,28.3,34.9,49.9,34.9c31.4,0,46.8-21.1,46.8-39.4c0-16.9-5.2-32.8-34.2-55.3L116,228.6 c-38.4-29.7-51.7-53.9-51.7-81.9c0-38,32.1-65.3,80.7-65.3c22.7,0,37.4,3.5,46.4,5.9c3.1,0.7,4.9,1.7,4.9,4.1 c0,4.5-1.4,14.5-1.4,41.5c0,7.6-1,10.4-3.8,10.4c-2.4,0-3.5-2.1-3.5-6.2c0-3.1-1.7-13.8-9.1-22.8c-5.2-6.6-15.4-16.9-38.1-16.9 c-25.8,0-41.5,14.9-41.5,35.6c0,15.9,8,28,37,49.8l9.8,7.3c42.2,31.5,57.3,55.3,57.3,88.2c0,20-7.7,43.9-32.8,60.1 c-17.5,11.1-37,14.2-55.5,14.2C94.4,352.4,78.7,350,63.7,343.4z" class="st0"/></g><g><path d="M283.5,164.9c0-39.6,0-47-0.3-55.2c-0.6-8.9-3.4-12-9.3-13.8c-3.1-0.9-6.5-1.2-9.9-1.2 c-2.8,0-4.3-0.6-4.3-3.1c0-1.5,2.2-2.1,6.5-2.1c10.2,0,28.8,0.6,36.6,0.6c6.8,0,24.5-0.6,35-0.6c3.4,0,5.6,0.6,5.6,2.1 c0,2.5-1.5,3.1-4.3,3.1s-5,0.3-8.1,0.9c-7.4,1.2-9.6,4.9-10.2,14.1c-0.6,8.3-0.6,15.7-0.6,55.2v46c0,25.2,0,46,1.2,57.1 c0.9,7.1,2.8,11,10.8,12.3c3.7,0.6,9.9,0.9,14,0.9c3.1,0,4.3,1.5,4.3,2.8c0,1.8-2.2,2.8-5.3,2.8c-18,0-36.6-0.9-44-0.9 c-6.2,0-24.8,0.9-35.6,0.9c-3.4,0-5.3-0.9-5.3-2.8c0-1.2,0.9-2.8,4.3-2.8c4,0,7.1-0.3,9.6-0.9c5.6-1.2,7.1-4.9,8.1-12.6 c1.2-10.7,1.2-31.6,1.2-56.8L283.5,164.9L283.5,164.9z" class="st1"/><path d="M391.7,283.3c-4.3-1.8-5.3-3.1-5.3-8.9c0-14.1,1.2-30.4,1.6-34.7c0-4,1.2-6.8,3.4-6.8c2.5,0,2.8,2.5,2.8,4.3 c0,3.4,0.9,8.9,2.5,13.5c5.9,19.3,26.3,25.8,43.4,25.8c23.6,0,37.8-14.7,37.8-33.1c0-11.4-2.8-22.7-27-36.8l-15.8-9.2 c-32.2-18.7-42.8-36.2-42.8-59.2c0-31.9,31-52.5,68.8-52.5c17.7,0,31.6,2.5,38.7,4.3c2.5,0.6,3.7,1.5,3.7,3.4 c0,3.4-0.9,10.7-0.9,31.3c0,5.5-1.2,8.3-3.4,8.3c-1.9,0-2.8-1.5-2.8-4.6c0-2.5-1.2-10.4-7.1-17.2c-4-4.9-12.7-12.3-30.4-12.3 c-19.5,0-37.2,10.1-37.2,27.9c0,11.7,4.3,20.9,28.8,34.4l11.2,6.1c36,19.6,47.1,39.6,47.1,63.2c0,19.3-7.4,35-27.3,48.8 c-13,9.2-31,10.7-45.6,10.7C420.2,290.1,403.5,288.5,391.7,283.3z" class="st1"/><path d="M600.3,218.9c0-14.1-2.5-19.6-6.2-27.3c-1.9-4-39.1-61.4-48.7-75.2c-6.8-9.5-12.4-15.7-17.7-18.4 c-3.4-1.8-8.1-3.4-11.5-3.4c-2.2,0-4-0.9-4-2.8c0-1.8,1.9-2.5,5.3-2.5c4.7,0,25.1,0.6,34.1,0.6c5.9,0,18.6-0.6,31-0.6 c2.5,0,4,0.6,4,2.5c0,2.1-1.9,2.1-6.2,3.4c-2.2,0.6-3.7,1.8-3.7,4s1.2,5.2,3.4,8.9c5,8,40.6,69.1,45.3,76.4 c3.4-6.1,36.6-62,40.6-70c2.8-5.8,4-10.4,4-13.8c0-2.5-1.2-4.9-5.9-5.8c-2.5-0.6-5-0.9-5-3.1c0-1.8,1.6-2.5,4.6-2.5 c9,0,18.6,0.6,26.7,0.6c5.9,0,23.9-0.6,29.1-0.6c3.1,0,5,0.6,5,2.1c0,1.8-2.2,3.1-5.3,3.1c-2.8,0-7.8,1.2-11.8,3.1 c-5.9,2.8-8.4,5.2-14.3,12.3c-9,10.4-48,72.4-53,83.5c-4,9.5-3.4,17.5-3.4,26.1v20.9c0,4.3,0,15,0.6,26.1 c0.6,7.7,3.1,12.6,11.2,13.8c4,0.6,9.9,0.9,13.6,0.9c3.1,0,4.6,1.5,4.6,2.8c0,1.8-2.2,2.8-5.9,2.8c-17,0-35.3-0.9-42.8-0.9 c-6.8,0-25.1,0.9-35.3,0.9c-3.7,0-5.9-0.6-5.9-2.8c0-1.2,1.2-2.8,4.3-2.8c3.7,0,7.1-0.3,9.6-0.9c5.6-1.2,7.8-6.1,8.4-13.8 c0.9-11,0.9-21.8,0.9-26.1v-21.5H600.3z" class="st1"/><path d="M750.7,164.9c0-39.6,0-47-0.3-55.2c-0.6-8.9-3.1-11.7-11.8-14.1c-2.2-0.6-6.8-0.9-10.9-0.9 c-2.8,0-4.6-0.9-4.6-2.8c0-1.8,2.2-2.5,6.2-2.5c14.3,0,31.6,0.6,39.4,0.6c11.2,0,32.9-0.6,45.3-0.6c34.1,0,46.5,11,50.8,14.7 c5.9,5.5,13.6,17.2,13.6,31.3c0,36.8-29.8,63.2-68.5,63.2c-1.2,0-6.8,0-8.1-0.3c-1.5,0-3.4-0.9-3.4-2.8c0-2.1,3.1-3.4,9-3.4 c15.2,0,36.6-15.7,36.6-42.4c0-8.6-0.9-25.8-16.1-38.7c-9.9-8.6-21.1-9.8-27.3-9.8c-4,0-9.3,0.3-11.8,1.2 c-1.6,0.6-2.2,2.1-2.2,4.9v103.4c0,23.9,0,44.5,1.2,55.9c0.9,7.4,2.5,12.3,10.5,13.5c4,0.6,9.9,0.9,13.9,0.9 c3.1,0,4.3,1.5,4.3,2.8c0,1.8-2.2,2.8-5,2.8c-18.3,0-37.5-0.9-44.6-0.9c-6.2,0-23.6,0.9-34.4,0.9c-3.4,0-5.3-0.9-5.3-2.8 c0-1.2,0.9-2.8,4.3-2.8c4,0,7.1-0.3,9.6-0.9c5.6-1.2,7.1-6.1,8.1-13.8c1.2-11,1.2-31.6,1.2-55.6v-45.8H750.7z" class="st1"/><path d="M1073.7,174.4c0.6,0,1.6-0.3,1.6-1.8V167c0-39.6-0.3-49.1-0.6-57.4c-0.6-8.9-3.1-11.7-11.8-14.1 c-2.2-0.6-6.8-0.9-10.5-0.9c-3.1,0-4.6-0.9-4.6-2.8c0-1.8,1.9-2.5,5.9-2.5c14.6,0,33.8,0.6,40.9,0.6c6.5,0,24.5-0.6,35-0.6 c4,0,5.9,0.6,5.9,2.5c0,1.8-1.9,2.8-5,2.8c-2.2,0-4.7,0.3-8.1,0.9c-7.1,1.2-9.3,4.9-9.9,14.1c-0.6,8.3-0.6,15.7-0.6,55.2v46 c0,23.9,0,44.5,1.2,55.9c0.9,7.4,2.5,12.3,10.8,13.5c3.7,0.6,9.6,0.9,14,0.9c2.8,0,4.3,1.5,4.3,2.8c0,1.8-2.2,2.8-5.6,2.8 c-17.7,0-35.6-0.9-43.1-0.9c-6.2,0-25.4,0.9-36,0.9c-3.7,0-5.9-0.9-5.9-2.8c0-1.2,1.2-2.8,4.3-2.8c4.3,0,7.4-0.3,9.9-0.9 c5.6-1.2,7.1-6.1,8.1-13.8c1.2-11,1.2-31,1.2-54.9v-20c0-0.9-0.9-1.5-1.6-1.5H970.8c-0.9,0-1.9,0.3-1.9,1.5v20 c0,23.9,0.3,43.9,1.5,55.2c0.9,7.4,2.5,12.3,10.5,13.5c3.7,0.6,9.9,0.9,13.9,0.9c3.1,0,4.3,1.5,4.3,2.8c0,1.8-2.2,2.8-5.6,2.8 c-17.7,0-36.6-0.9-44.3-0.9c-6.2,0-24.2,0.9-35,0.9c-3.4,0-5.3-0.9-5.3-2.8c0-1.2,0.9-2.8,4.3-2.8c4,0,7.1-0.3,9.6-0.9 c5.6-1.2,7.1-6.1,8.1-13.8c1.2-11,1.2-31.6,1.2-55.6v-46c0-39.6,0-47-0.3-55.2c-0.6-8.9-3.1-11.7-11.8-14.1 c-2.2-0.6-6.8-0.9-10.8-0.9c-2.8,0-4.7-0.9-4.7-2.8c0-1.8,2.2-2.5,5.9-2.5c14.6,0,32.5,0.6,40,0.6c6.5,0,25.4-0.6,36.3-0.6 c3.7,0,5.6,0.6,5.6,2.5c0,1.8-1.5,2.8-5,2.8c-2.2,0-4.7,0.3-7.8,0.9c-7.4,1.2-9.6,4.9-10.2,14.1c-0.6,8.3-0.6,17.8-0.6,57.4v5.5 c0,1.5,0.9,1.8,1.9,1.8L1073.7,174.4L1073.7,174.4z" class="st1"/><path d="M1186.2,164.9c0-39.6,0.3-47-0.3-55.2c-0.6-9.2-3.1-11.7-11.8-14.1c-2.2-0.6-6.8-0.9-10.5-0.9 c-3.1,0-4.6-0.9-4.6-2.8c0-1.8,1.9-2.5,5.9-2.5c14.6,0,32.9,0.6,40.9,0.6c6.8,0,25.1-0.6,35-0.6c4,0,5.9,0.6,5.9,2.5 c0,1.8-1.5,2.8-4.3,2.8c-3.1,0-4.7,0.3-8.1,0.9c-7.1,1.2-9.3,4.9-9.9,14.1c-0.6,8.3-0.6,15.7-0.6,55.2v36.5 c0,38.1,7.4,52.8,20.8,63.2c12.1,9.5,25.1,10.4,34.4,10.4c11.8,0,25.7-3.4,36.6-13.8c15.2-14.1,15.8-36.8,15.8-63.5v-32.8 c0-39.6-0.3-47-0.6-55.2c-0.6-8.9-2.8-11.7-11.5-14.1c-2.2-0.6-6.8-0.9-9.9-0.9s-4.6-0.9-4.6-2.8c0-1.8,1.9-2.5,5.6-2.5 c14,0,32.2,0.6,32.5,0.6c3.1,0,21.4-0.6,31.9-0.6c3.7,0,5.6,0.6,5.6,2.5c0,1.8-1.5,2.8-4.6,2.8s-4.7,0.3-8.1,0.9 c-7.4,1.2-9.3,4.9-9.9,14.1c-0.3,8.3-0.6,15.7-0.6,55.2v27.9c0,29.2-3.1,59.9-26,78.6c-19.2,16-40,18.7-57.7,18.7 c-14.3,0-42.5-0.6-62.3-17.8c-13.9-12-24.8-31.3-24.8-69.1v-38.3H1186.2z" class="st1"/><path d="M1415.6,283.3c-4.3-1.8-5.3-3.1-5.3-8.9c0-14.1,1.2-30.4,1.5-34.7c0-4,1.2-6.8,3.4-6.8c2.5,0,2.8,2.5,2.8,4.3 c0,3.4,0.9,8.9,2.5,13.5c5.9,19.3,26.3,25.8,43.4,25.8c23.6,0,37.8-14.7,37.8-33.1c0-11.4-2.8-22.7-27-36.8l-15.8-9.2 c-32.2-18.7-42.8-36.2-42.8-59.2c0-31.9,31-52.5,68.8-52.5c17.7,0,31.6,2.5,38.8,4.3c2.5,0.6,3.7,1.5,3.7,3.4 c0,3.4-0.9,10.7-0.9,31.3c0,5.5-1.2,8.3-3.4,8.3c-1.9,0-2.8-1.5-2.8-4.6c0-2.5-1.2-10.4-7.1-17.2c-4-4.9-12.7-12.3-30.4-12.3 c-19.5,0-37.2,10.1-37.2,27.9c0,11.7,4.3,20.9,28.8,34.4l11.2,6.1c36,19.6,47.1,39.6,47.1,63.2c0,19.3-7.4,35-27.3,48.8 c-13,9.2-31,10.7-45.6,10.7C1444.2,290.1,1427.4,288.5,1415.6,283.3z" class="st1"/></g><g><path d="M371.6,503.8c-23-20-29.1-46-29.1-68.5c0-15.8,4.9-43.2,27.4-63.6c16.9-15.3,39.1-24.6,74.1-24.6 c14.5,0,23.2,0.9,34,2.3c8.9,1.2,16.4,3.2,23.4,3.9c2.6,0.2,3.5,1.4,3.5,2.8c0,1.9-0.7,4.6-1.2,12.8c-0.5,7.7-0.2,20.4-0.7,25.1 c-0.2,3.5-0.7,5.3-2.8,5.3c-1.9,0-2.3-1.9-2.3-5.1c-0.2-7.2-3.3-15.3-9.1-21.4c-7.7-8.1-26-14.4-47.6-14.4 c-20.4,0-33.8,5.1-44.1,14.4c-17.1,15.5-21.6,37.6-21.6,60.1c0,55.2,42.4,82.6,73.8,82.6c20.9,0,33.5-2.3,42.9-13 c4-4.4,7-11.1,8-15.3c0.7-3.7,1.2-4.6,3-4.6c1.6,0,2.1,1.6,2.1,3.5c0,2.8-2.8,23-5.2,30.9c-1.2,3.9-2.1,5.1-6.1,6.7 c-9.4,3.7-27.2,5.3-42.2,5.3C419.9,529.1,393,522.1,371.6,503.8z" class="st1"/><path d="M582.6,458.5c0,29.7,0,45.7,4.9,49.9c4,3.5,10.1,5.1,28.4,5.1c12.4,0,21.6-0.2,27.4-6.5 c2.8-3,5.6-9.5,6.1-13.9c0.2-2.1,0.7-3.5,2.6-3.5c1.6,0,1.9,1.2,1.9,3.9c0,2.6-1.6,20-3.5,26.7c-1.4,5.1-2.6,6.3-14.8,6.3 c-16.9,0-29.1-0.5-39.6-0.7c-10.5-0.5-19-0.7-28.6-0.7c-2.6,0-7.7,0-13.4,0.2c-5.4,0-11.5,0.5-16.2,0.5c-3,0-4.7-0.7-4.7-2.3 c0-1.2,0.9-1.9,3.8-1.9c3.5,0,6.3-0.5,8.4-0.9c4.7-0.9,5.9-6,6.8-12.8c1.2-9.7,1.2-28.1,1.2-49.4v-40.8c0-35.3,0-41.8-0.5-49.2 c-0.5-7.9-2.3-11.6-10.1-13.2c-1.9-0.5-4.7-0.7-7.7-0.7c-2.6,0-4-0.5-4-2.1s1.6-2.1,5.2-2.1c11,0,25.8,0.7,32.1,0.7 c5.6,0,22.7-0.7,31.9-0.7c3.3,0,4.9,0.5,4.9,2.1s-1.4,2.1-4.2,2.1c-2.6,0-6.3,0.2-9.1,0.7c-6.3,1.2-8.2,5.1-8.7,13.2 c-0.5,7.4-0.5,13.9-0.5,49.2L582.6,458.5L582.6,458.5z" class="st1"/><path d="M692.8,417.7c0-35.3,0-41.8-0.5-49.2c-0.5-7.9-2.8-11.8-8-13c-2.6-0.7-5.6-0.9-8.4-0.9 c-2.3,0-3.8-0.5-3.8-2.3c0-1.4,1.9-1.9,5.6-1.9c8.9,0,23.7,0.7,30.5,0.7c5.9,0,19.7-0.7,28.6-0.7c3,0,4.9,0.5,4.9,1.9 c0,1.9-1.4,2.3-3.8,2.3c-2.3,0-4.2,0.2-7,0.7c-6.3,1.2-8.2,5.1-8.7,13.2c-0.5,7.4-0.5,13.9-0.5,49.2v40.8c0,22.5,0,40.8,0.9,50.8 c0.7,6.3,2.3,10.4,9.4,11.4c3.3,0.5,8.4,0.9,12,0.9c2.6,0,3.8,0.7,3.8,1.9c0,1.6-1.9,2.3-4.5,2.3c-15.5,0-30.2-0.7-36.6-0.7 c-5.4,0-20.2,0.7-29.5,0.7c-3,0-4.7-0.7-4.7-2.3c0-1.2,0.9-1.9,3.8-1.9c3.5,0,6.3-0.5,8.4-0.9c4.7-0.9,6.1-4.9,6.8-11.6 c1.2-9.7,1.2-28.1,1.2-50.6L692.8,417.7L692.8,417.7z" class="st1"/><path d="M797.5,503.8c-23-20-29.1-46-29.1-68.5c0-15.8,4.9-43.2,27.4-63.6c16.9-15.3,39.1-24.6,74.1-24.6 c14.5,0,23.2,0.9,34,2.3c8.9,1.2,16.4,3.2,23.4,3.9c2.6,0.2,3.5,1.4,3.5,2.8c0,1.9-0.7,4.6-1.2,12.8c-0.5,7.7-0.2,20.4-0.7,25.1 c-0.2,3.5-0.7,5.3-2.8,5.3c-1.9,0-2.3-1.9-2.3-5.1c-0.2-7.2-3.3-15.3-9.1-21.4c-7.7-8.1-26-14.4-47.6-14.4 c-20.4,0-33.8,5.1-44.1,14.4c-17.1,15.5-21.6,37.6-21.6,60.1c0,55.2,42.4,82.6,73.8,82.6c20.9,0,33.5-2.3,42.9-13 c4-4.4,7-11.1,8-15.3c0.7-3.7,1.2-4.6,3-4.6c1.6,0,2.1,1.6,2.1,3.5c0,2.8-2.8,23-5.2,30.9c-1.2,3.9-2.1,5.1-6.1,6.7 c-9.4,3.7-27.2,5.3-42.2,5.3C845.8,529.1,818.9,522.1,797.5,503.8z" class="st1"/><path d="M1007.8,427.9h1.2c8-8.6,42.2-43.2,49-51.1c6.6-7.7,11.7-13.5,11.7-17.4c0-2.6-0.9-4.2-3.3-4.6 c-2.1-0.5-3-0.9-3-2.3c0-1.6,1.2-2.1,3.8-2.1c4.9,0,17.8,0.7,24.1,0.7c7.3,0,20.2-0.7,27.4-0.7c2.3,0,4,0.5,4,2.1 s-1.2,2.1-3.5,2.1c-3.3,0-9.1,0.9-13.6,2.6c-7.3,2.8-15.2,7.7-25.3,17.4c-7.3,7-42.7,41.8-50.6,50.1c8.4,10.9,54.4,59.9,63.5,68.5 c10.3,9.7,20.9,20.2,33.5,25.1c7,2.8,11.7,3.5,14.5,3.5c1.6,0,3,0.5,3,1.9c0,1.6-1.2,2.3-5.6,2.3h-20.4c-7,0-11.3,0-16.2-0.5 c-12.7-1.2-19-6.3-29.1-15.1c-10.3-9.1-56.5-62.7-61.4-69.4l-2.6-3.5h-1.2v21.1c0,21.4,0,39.7,0.7,49.7c0.5,6.5,2.6,11.6,8.4,12.5 c3.3,0.5,8.4,0.9,11.5,0.9c1.9,0,3,0.7,3,1.9c0,1.6-1.9,2.3-4.5,2.3c-13.1,0-27.9-0.7-33.8-0.7c-5.4,0-20.2,0.7-29.5,0.7 c-3,0-4.7-0.7-4.7-2.3c0-1.2,0.9-1.9,3.8-1.9c3.5,0,6.3-0.5,8.4-0.9c4.7-0.9,5.9-6,6.8-12.8c1.2-9.7,1.2-28.1,1.2-49.4v-40.8 c0-35.3,0-41.8-0.5-49.2c-0.5-7.9-2.3-11.6-10.1-13.2c-1.9-0.5-5.9-0.7-9.1-0.7c-2.6,0-4-0.5-4-2.1s1.6-2.1,5.2-2.1 c12.4,0,27.2,0.7,32.8,0.7s20.4-0.7,28.4-0.7c3.3,0,4.9,0.5,4.9,2.1s-1.4,2.1-3.3,2.1c-2.3,0-3.8,0.2-6.6,0.7 c-6.3,1.2-8.2,5.1-8.7,13.2c-0.5,7.4-0.5,13.9-0.5,49.2v10.1H1007.8z" class="st1"/><path d="M1156.9,417.7c0-35.3,0-41.8-0.5-49.2c-0.5-7.9-2.3-11.6-10.1-13.2c-1.9-0.5-5.9-0.7-9.1-0.7 c-2.6,0-4-0.5-4-2.1s1.6-2.1,5.2-2.1c6.3,0,13.1,0.2,19,0.2c6.1,0.2,11.5,0.5,14.8,0.5c7.5,0,54.1,0,58.6-0.2 c4.5-0.5,8.2-0.9,10.1-1.4c1.2-0.2,2.6-0.9,3.8-0.9s1.4,0.9,1.4,2.1c0,1.6-1.2,4.4-1.9,15.1c-0.2,2.3-0.7,12.5-1.2,15.3 c-0.2,1.2-0.7,2.6-2.3,2.6c-1.6,0-2.1-1.2-2.1-3.2c0-1.6-0.2-5.6-1.4-8.4c-1.6-4.2-4-7-15.7-8.4c-4-0.5-28.6-0.9-33.3-0.9 c-1.2,0-1.6,0.7-1.6,2.3v58.7c0,1.6,0.2,2.6,1.6,2.6c5.2,0,32.1,0,37.5-0.5c5.6-0.5,9.1-1.2,11.3-3.5c1.6-1.9,2.6-3,3.8-3 c0.9,0,1.6,0.5,1.6,1.9s-0.9,5.1-1.9,16.9c-0.2,4.6-0.9,13.9-0.9,15.5c0,1.9,0,4.4-2.1,4.4c-1.6,0-2.1-0.9-2.1-2.1 c-0.2-2.3-0.2-5.3-0.9-8.4c-1.2-4.6-4.5-8.1-13.1-9.1c-4.5-0.5-27.7-0.7-33.3-0.7c-1.2,0-1.4,0.9-1.4,2.3v18.3 c0,7.9-0.2,29.2,0,36c0.5,16,4.2,19.5,28.1,19.5c6.1,0,15.9,0,22-2.8s8.9-7.7,10.5-17.2c0.5-2.6,0.9-3.5,2.6-3.5 c1.9,0,1.9,1.9,1.9,4.2c0,5.3-1.9,21.1-3,25.8c-1.6,6-3.8,6-12.7,6c-17.6,0-30.5-0.5-40.6-0.7c-10.1-0.5-17.3-0.7-24.4-0.7 c-2.6,0-7.7,0-13.4,0.2c-5.4,0-11.5,0.5-16.2,0.5c-3,0-4.7-0.7-4.7-2.3c0-1.2,0.9-1.9,3.8-1.9c3.5,0,6.3-0.5,8.4-0.9 c4.7-0.9,5.9-6,6.8-12.8c1.2-9.7,1.2-28.1,1.2-49.4v-40.7H1156.9z" class="st1"/><path d="M1302.7,417.7c0-35.3,0-41.8-0.5-49.2c-0.5-7.9-2.3-11.6-10.1-13.2c-1.9-0.5-5.9-0.7-9.1-0.7 c-2.6,0-4-0.5-4-2.1s1.6-2.1,5.2-2.1c12.4,0,27.2,0.7,32.1,0.7c8,0,25.8-0.7,33.1-0.7c14.8,0,30.5,1.4,43.1,10 c6.6,4.4,15.9,16.2,15.9,31.8c0,17.2-7.3,33-30.9,52c20.9,26,37,46.6,50.9,61c13.1,13.5,22.7,15.1,26.3,15.8 c2.6,0.5,4.7,0.7,6.6,0.7s2.8,0.7,2.8,1.9c0,1.9-1.6,2.3-4.5,2.3h-22.3c-13.1,0-19-1.2-25.1-4.4c-10.1-5.3-19-16.2-32.1-34.1 c-9.4-12.8-20.2-28.5-23.2-32c-1.2-1.4-2.6-1.6-4.2-1.6l-20.4-0.5c-1.2,0-1.9,0.5-1.9,1.9v3.2c0,21.6,0,39.9,1.2,49.7 c0.7,6.7,2.1,11.8,9.1,12.8c3.5,0.5,8.7,0.9,11.5,0.9c1.9,0,2.8,0.7,2.8,1.9c0,1.6-1.6,2.3-4.7,2.3c-13.6,0-30.9-0.7-34.5-0.7 c-4.5,0-19.2,0.7-28.6,0.7c-3,0-4.7-0.7-4.7-2.3c0-1.2,0.9-1.9,3.8-1.9c3.5,0,6.3-0.5,8.4-0.9c4.7-0.9,5.9-6,6.8-12.8 c1.2-9.7,1.2-28.1,1.2-49.4L1302.7,417.7L1302.7,417.7z M1330.3,436c0,2.6,0.5,3.5,2.1,4.2c4.9,1.6,12,2.3,17.8,2.3 c9.4,0,12.4-0.9,16.6-3.9c7-5.1,13.8-15.8,13.8-34.8c0-33-22-42.5-35.9-42.5c-5.9,0-10.1,0.2-12.4,0.9c-1.6,0.5-2.1,1.4-2.1,3.2 L1330.3,436L1330.3,436z" class="st1"/></g><g><path d="M75.6,333.6c-5.6-2.4-6.6-4.1-6.6-11.8c0-19,1.4-39.8,1.7-45.3c0.3-5.2,1.4-9,4.2-9c3.1,0,3.5,3.1,3.5,5.9 c0,4.5,1.4,11.8,3.1,17.6c7.7,25.6,28.3,34.9,49.9,34.9c31.4,0,46.8-21.1,46.8-39.4c0-16.9-5.2-32.8-34.2-55.3l-16.1-12.4 c-38.4-29.7-51.7-53.9-51.7-81.9c0-38,32.1-65.3,80.7-65.3c22.7,0,37.4,3.5,46.4,5.9c3.1,0.7,4.9,1.7,4.9,4.1 c0,4.5-1.4,14.5-1.4,41.5c0,7.6-1,10.4-3.8,10.4c-2.4,0-3.5-2.1-3.5-6.2c0-3.1-1.7-13.8-9.1-22.8c-5.2-6.6-15.4-16.9-38.1-16.9 c-25.8,0-41.5,14.9-41.5,35.6c0,15.9,8,28,37,49.8l9.8,7.3c42.2,31.5,57.3,55.3,57.3,88.2c0,20-7.7,43.9-32.8,60.1 c-17.5,11.1-37,14.2-55.5,14.2C106.3,342.5,90.6,340.1,75.6,333.6z" class="st1"/></g></g><g id="Layer_2" class="st2"><text class="st3 st4 st5" transform="matrix(1 0 0 1 108.5129 325.3701)">Sisyphyus</text></g></svg>