<svg xmlns="http://www.w3.org/2000/svg" xmlns:xlink="http://www.w3.org/1999/xlink" id="Layer_1" x="0" y="0" version="1.1" viewBox="0 0 218 1000" xml:space="preserve" style="enable-background:new 0 0 218 1000"><style type="text/css">.st0,.st1{fill:#bbbdbf;stroke:#272127;stroke-width:6;stroke-miterlimit:10}.st1{fill:none;stroke-width:3}.st2{fill:#939799}</style><polygon points="196.8 24 177.4 23.2 171.6 10.5 49 7 40 22.1 18.9 20.5 9.5 48.1 16.4 69.8 41.3 87.8 49.6 86.7 55 105.7 50.6 106.3 49.6 110.5 56.1 114 59 899.2 40.7 912.9 58.2 929.9 36.9 932.7 38 941.4 46.7 952.3 23 955.4 35.7 999 170.7 990.8 181.1 953.7 149.2 953.9 180.6 937.7 163.3 928 166.8 922.5 177.8 910 168.7 896.7 155.3 898.5 151 114.7 157.6 111.8 155.4 105.3 150.6 105.5 156.1 91.3 176.3 94.6 205.4 78.1 208 43.6" class="st0"/><line x1="177.4" x2="44.7" y1="23.2" y2="17.6" class="st1"/><path d="M166.7,64.2l14.3,3.2c0,0,4.8-9.4,4.7-10.3c-0.1-0.9-11.4-12-11.4-12l-6.6,0.9l-10.3,13l1.2,13.8l12.1,6.5	l17.8-2.4l11.6-21.7l-11.3-19.6L140.2,30l-75-0.6l-30.6,2.1l-6.4,17.6l12.8,21.3l18.3,2l12.5-15.2L62,43.1l-13.3,1.5l-3.1,7l4,5.7" class="st1"/><line x1="148.8" x2="56.7" y1="108.2" y2="104.5" class="st1"/><line x1="56.1" x2="150.2" y1="114" y2="116.7" class="st1"/><polygon points="131.6 54.4 112 52.6 112.3 97.1 125 98.3" class="st2"/><polygon points="145.6 55.5 139.1 56.4 132.4 98.9 141.9 99.1 148.1 84 144.8 80.9" class="st2"/><polygon points="102.8 52.4 85.8 52.4 89.7 99 101.2 99.3" class="st2"/><path d="M75.1,76.8l4.3,21.5c0,0-11.9,2.4-12.2,0.6c-0.2-1.8-6-14.3-6-14.3l4.4-0.8L75.1,76.8z" class="st2"/><polygon points="40.7 941.8 48.9 952.6 89.3 957.8 148.6 955.6 174.6 939.8 174.6 938.2 120.3 941.3" class="st2"/><polygon points="44.9 915.5 60.6 930.3 71.9 932.2 161.3 928 175.8 910.1 131.2 913.2 72.4 915.5" class="st2"/><polygon points="155.3 898.5 118 898.3 59 899.2 40.7 912.9 69.7 915.5 139.6 912.8 177.8 910 168.7 896.7" class="st1"/><polygon points="180.6 937.7 163.3 928 120.8 930.1 73.3 932.4 58.2 929.9 36.9 932.7 38 941.4 58.8 941.8 132 941.6" class="st1"/><polygon points="150.1 955.6 89.3 957.8 48.9 952.6 23 955.4 40 994.8 170.7 990.8 181.1 953.7" class="st1"/><polygon points="141.2 128.9 134.6 128.9 129 883.4 137.4 888 142.9 882.2 137.1 476.3" class="st2"/><polygon points="122.8 125.4 124.7 134.2 122.8 873.1 119.9 880.5 111.3 884.1 112.8 137" class="st2"/><polygon points="97.1 123.3 105.7 135 103.7 875 102.1 884.1 93.9 879.3 94 132.9" class="st2"/><polygon points="73.8 121.8 82 129.1 84.8 877.7 74.5 885.4 73.3 874.2 70.3 130.6" class="st2"/><polygon points="81.3 42.9 78.5 37 122.8 39.2 149.5 40.6 146.5 47.9" class="st2"/><polyline points="156.1 91.3 144.8 80.9 145.8 50.7 150.2 39.8 79.2 36.2 86 50.8 83.7 70.4 65.6 83.9 49.6 84.7" class="st1"/></svg>