<svg xmlns="http://www.w3.org/2000/svg" xmlns:xlink="http://www.w3.org/1999/xlink" id="Layer_1" x="0" y="0" version="1.1" viewBox="0 0 218 1000" xml:space="preserve" style="enable-background:new 0 0 218 1000"><style type="text/css">.st0{fill:#bbbdbf}.st1{fill:#272127}.st2{fill:#939799}.st3,.st4{fill:#bbbdbf;stroke:#272127;stroke-width:6;stroke-miterlimit:10}.st4{fill:none;stroke-width:3}</style><g><polygon points="16.1 27.8 43.2 26.2 48.8 17.7 165.2 10.2 178.9 19.3 192.3 18.2 206.4 44.6 204.3 72.9 179.4 90.9 171.1 89.8 165.8 108.8 170.1 109.4 171.2 113.5 164.7 117.1 161.8 902.8 180 916.5 162.5 933.5 183.8 936.3 182.7 945 174 955.9 197.7 959.1 188.7 996.5 51.5 1000 39.5 957.4 71.4 957.6 40 941.4 57.4 931.6 59.3 923 38.7 914.7 51.9 900.3 65.3 902.1 69.7 117.8 63 114.9 65.3 108.3 70.1 108.6 64.5 94.4 44.4 97.7 15.2 81.2 4.8 47.4" class="st0"/><path d="M49.3,1003.1l-13.8-48.7l23.4,0.2l-25.2-13l21.1-11.8l1.1-4.8l-22.2-9l17.1-18.7l11.6,1.5l4.3-778.9l-7.4-3.2 l3.9-11.3l2.4,0.1l-3-7.6l-18.8,3.1L12.7,83.2L1.6,47.1l12.7-22.2l27.3-1.6l5.5-8.5L166,7.1l13.7,9l14.3-1.1L209.5,44l-2.3,30.5 l-27,19.5l-6.9-0.9l-3.7,13.2l2.9,0.4l2.1,8.4l-7,3.8l-2.9,782.4l19.9,14.9l-15.6,15.1l18.2,2.4l-1.7,12.5l-5.9,7.4l21.8,2.9 l-10.3,42.9L49.3,1003.1z M43.5,960.4l10.3,36.5l132.6-3.4l7.7-31.9l-25.7-3.4l11.5-14.4l0.7-4.9l-24.5-3.3l19.5-18.8l-16.7-12.5 l0-1.5l2.9-787.5l5.9-3.2l-5.7-0.8l7-24.8l9.7,1.3l22.8-16.5l2-26l-12.8-23.9l-12.5,1l-13.7-9.1L50.5,20.6l-5.6,8.5l-27,1.6 L8.1,47.8l9.7,31.4l27.2,15.4L66.4,91l8.1,20.8l-7.2-0.4l-0.6,1.8l5.9,2.6l0,2l-4.3,787.7l-15.3-2l-9.2,10l19,7.7L60,933.6 l-13.7,7.7l37.6,19.4L43.5,960.4z" class="st1"/></g><g><rect width="133.1" height="3" x="43.1" y="20.3" class="st1" transform="matrix(0.9978 -6.608686e-02 6.608686e-02 0.9978 -1.1997 7.2912)"/></g><g><path d="M50.6,84l-19.3-2.6L19,58.3l12.1-21l49.1-5.7l71.6-4.1l0.1,0l33.5,0.7l8.7,23.9l-6.7,24.1l-23.5,2.4 l-16.9-18.3L158,44.6l15,1.7l3.9,9l-7,4.4l-1.6-2.5l4.8-3.1L171,49l-11.5-1.3l-8.5,12.4l14.2,15.4l19.9-2.1l5.9-21.2l-7.7-21.1 L152,30.5l-71.4,4.1L33,40.1L22.5,58.3l10.8,20.3l16.3,2.2l8.9-8.5l3.2-10l-9.5-11.9l-8-1.1c-3.4,4.6-6.9,9.6-7.7,11 c0.4,1.2,2.2,4.9,3.9,8.4l13.2-3l0.7,2.9l-15.4,3.5l-0.5-1c-5-9.8-4.9-10.7-4.8-11.2c0.1-0.4,0.2-1.3,8.9-13.1l0.5-0.7l11,1.5 l11.2,14.1l-4,12.3L50.6,84z" class="st1"/></g><g><rect width="92.2" height="3" x="71.8" y="107.1" class="st1" transform="matrix(0.9997 -2.311333e-02 2.311333e-02 0.9997 -2.4796 2.7548)"/></g><g><rect width="94.2" height="3" x="70.5" y="116.9" class="st1" transform="matrix(0.9996 -2.831817e-02 2.831817e-02 0.9996 -3.3071 3.3771)"/></g><g><polygon points="89 57.4 109.8 58 108.4 100.2 95.7 101.4" class="st2"/></g><g><polygon points="75 58.6 81.5 59.4 88.3 101.9 78.7 102.2 72.5 87 75.9 84" class="st2"/></g><g><polygon points="47.4 918.2 59.3 923 57.4 931.6 99.8 933.7 148.3 932 158.7 933.7 177.3 918.2 174.9 916.5 148.7 913.2 82.1 916.4 45.7 914.9" class="st2"/></g><g><polygon points="119.5 59.3 134.9 55.5 133.3 99.2 120.1 99.5" class="st2"/></g><g><polygon points="45.7 941.8 75.6 957.2 98.1 957.2 131.1 959.3 176 954.2 181.8 944.3 138.8 945.4 87.3 945.1" class="st2"/></g><g><path d="M145.6,79.9l-0.8,22.9c0,0,12.6,0.2,12.9-1.6c0.2-1.8,1.8-13.4,1.8-13.4l-4.4-0.8L145.6,79.9z" class="st2"/></g><g><path d="M185.3,918.6l-36.6-3.9L81,918L35.5,916l15.9-17.3l14.1,1.9l46.1-3.6l50.8,4.4L185.3,918.6z M42,913.3l39,1.7 l67.7-3.3l0.1,0l25.9,2.8l-13.6-10.2l-49.7-4.3l-46.2,3.6l-12.8-1.7L42,913.3z" class="st1"/></g><g><path d="M162,947l-73.4-0.3L35,942.5L57,930.1l42.8,2.1l48.5-1.7l14.3,1.5l22.9,3l-1.5,11.5L162,947z M88.7,943.7 l73.2,0.3l19.4-0.4l0.8-5.9l-19.9-2.6l-14-1.5l-48.4,1.7l-0.1,0l-42-2.1l-12.7,7.1L88.7,943.7z" class="st1"/></g><g><path d="M50.4,1001.5l-12.9-45.6l32.8-0.4l0,0l60.8,2.3l42.9-3.4l25.5,3.4l-9.6,40.2l-1.2,0L50.4,1001.5z M41.5,958.9 l11.2,39.6l134.9-3.4l8.3-34.7l-21.9-2.9l-42.8,3.4l-0.1,0l-60.8-2.3L41.5,958.9z" class="st1"/></g><g><polygon points="79.4 129.7 88.3 135.6 90 880.4 82.3 886.5 77.7 885.8 83.6 479.6" class="st2"/></g><g><polygon points="101.8 127.3 96 137.4 97.9 876.7 104 886.5 107.9 880.4 107.9 140.1" class="st2"/></g><g><polygon points="120.1 126.4 115 138.1 117 878.6 122.4 889 126.8 882.9 126.7 136" class="st2"/></g><g><polygon points="143.1 124.9 138.7 132.2 134.3 872.4 142.9 884.4 147.4 877.8 150.4 133.7" class="st2"/></g><g><polygon points="138.8 45.2 141.5 39.2 71.1 44.5 74.3 50.2" class="st2"/></g><g><polygon points="65.5 95.5 63.5 93.3 74.3 83.4 73.4 54 69 43.1 143.9 37.6 136.3 54.1 138.4 72.6 155.7 85.6 171.4 88.3 170.8 91.3 154.5 88.4 135.6 74.2 133.2 53.6 139.1 40.9 73.3 45.8 76.4 53.4 77.4 84.6" class="st1"/></g><polygon points="988.5 17.3 969 16.5 963.1 3.7 839.5 .2 830.5 15.4 809.2 13.8 799.8 41.6 806.7 63.5 831.8 81.7 840.2 80.6 845.6 99.7 841.2 100.3 840.1 104.5 846.7 108.1 849.6 899.4 831.2 913.2 848.8 930.3 827.3 933.2 828.5 941.9 837.3 952.9 813.4 956.1 826.1 1000 962.2 991.8 972.7 954.4 940.6 954.6 972.2 938.2 954.7 928.4 958.3 922.9 969.3 910.3 960.2 896.9 946.7 898.7 942.4 108.7 949.1 105.8 946.8 99.2 941.9 99.5 947.5 85.1 967.8 88.5 997.2 71.9 999.8 37.1" class="st3"/><line x1="969" x2="835.2" y1="16.5" y2="10.9" class="st4"/><path d="M958.2,57.8l14.4,3.3c0,0,4.8-9.4,4.7-10.3c-0.1-0.9-11.5-12.1-11.5-12.1l-6.7,0.9l-10.4,13.1l1.2,14l12.2,6.6	l17.9-2.4l11.7-21.9l-11.4-19.7l-48.8-5.7l-75.6-0.6L825,24.9l-6.4,17.7l12.9,21.5l18.5,2l12.6-15.3l-9.8-14.2l-13.4,1.5l-3.1,7.1	l4,5.7" class="st4"/><line x1="940.2" x2="847.3" y1="102.2" y2="98.5" class="st4"/><line x1="846.7" x2="941.5" y1="108.1" y2="110.8" class="st4"/><polygon points="922.8 47.9 903.1 46.2 903.3 91 916.1 92.3" class="st2"/><polygon points="936.9 49.1 930.4 49.9 923.6 92.8 933.2 93 939.4 77.8 936.1 74.7" class="st2"/><polygon points="893.7 46 876.6 46 880.6 92.9 892.2 93.2" class="st2"/><path d="M865.8,70.6l4.4,21.7c0,0-12,2.4-12.3,0.6c-0.2-1.8-6.1-14.4-6.1-14.4l4.5-0.8L865.8,70.6z" class="st2"/><polygon points="831.2 942.4 839.4 953.2 880.1 958.5 939.9 956.3 966.1 940.3 966.1 938.7 911.5 941.8" class="st2"/><polygon points="835.4 915.9 851.2 930.7 862.6 932.6 952.7 928.4 967.3 910.4 922.4 913.5 863.1 915.9" class="st2"/><polygon points="946.7 898.7 909.1 898.5 849.6 899.4 831.2 913.2 860.4 915.9 930.9 913.1 969.3 910.3 960.2 896.9" class="st4"/><polygon points="972.2 938.2 954.7 928.4 912 930.5 864.1 932.9 848.8 930.3 827.3 933.2 828.5 941.9 849.4 942.4 923.2 942.1" class="st4"/><polygon points="941.4 956.2 880.1 958.5 839.4 953.2 813.4 956.1 830.5 995.8 962.2 991.8 972.7 954.4" class="st4"/><polygon points="932.5 123.1 925.8 123.1 920.1 883.5 928.7 888.1 934.2 882.3 928.4 473.2" class="st2"/><polygon points="913.9 119.5 915.8 128.4 913.9 873.1 911 880.6 902.3 884.2 903.9 131.2" class="st2"/><polygon points="888 117.4 896.7 129.2 894.7 875 893.1 884.2 884.8 879.4 884.9 127.1" class="st2"/><polygon points="864.6 115.9 872.8 123.2 875.6 877.8 865.3 885.5 864 874.2 861 124.8" class="st2"/><polygon points="872.1 36.4 869.3 30.4 913.9 32.7 940.8 34.1 937.8 41.4" class="st2"/><polyline points="947.5 85.1 936.1 74.7 937.1 44.2 941.5 33.3 870 29.6 876.8 44.3 874.6 64.1 856.3 77.7 840.2 78.5" class="st4"/></svg>