<svg xmlns="http://www.w3.org/2000/svg" xmlns:xlink="http://www.w3.org/1999/xlink" id="Layer_1" x="0" y="0" version="1.1" viewBox="0 0 41 100" xml:space="preserve" style="enable-background:new 0 0 41 100"><path d="M18.5,28.1l-4.9-2.6c-0.5-1.2-0.6-2.6-0.1-4.1c1.1-3.5,4.6-5.7,7.6-4.2c3,1.6,3.2,5.8,1,8.6C21.1,27.2,19.8,27.9,18.5,28.1z"/><polygon points="34.7 49 34.8 49 34.8 74.4 29.6 74.4 29.6 68.2 27.2 53.9 18.5 59.7 15.5 74.9 5 99 .5 97 3 91.3 7 76.4 9.2 72.4 1.8 26.8 1.8 26.8 2.4 23.8 12.9 .5 16.2 3.8 10 21.3 10 24.8 14.2 27.8 19.9 29.9 29.6 29.9 36.5 18.1 40.4 19.6 34 34.6 34 34.6 24.1 37.9 21.6 37.9 19.8 49.6 31.3 45.6"/></svg>