<svg xmlns="http://www.w3.org/2000/svg" xmlns:xlink="http://www.w3.org/1999/xlink" x="0" y="0" version="1.1" viewBox="0 0 41 100" xml:space="preserve" style="enable-background:new 0 0 41 100"><style type="text/css">.st0{fill:#0600ff}.st1{fill:#1800ff}.st2{fill:red}</style><g id="Layer_1"><path d="M18.5,28.1l-4.9-2.6c-0.5-1.2-0.6-2.6-0.1-4.1c1.1-3.5,4.6-5.7,7.6-4.2c3,1.6,3.2,5.8,1,8.6 C21.1,27.2,19.8,27.9,18.5,28.1z" class="st0"/><polygon points="34.7 49 34.8 49 34.8 74.4 29.6 74.4 29.6 68.2 27.2 53.9 18.5 59.7 15.5 74.9 5 99 .5 97 3 91.3 7 76.4 9.2 72.4 1.8 26.8 1.8 26.8 2.4 23.8 12.9 .5 16.2 3.8 10 21.3 10 24.8 14.2 27.8 19.9 29.9 29.6 29.9 36.5 18.1 40.4 19.6 34 34.6 34 34.6 24.1 37.9 21.6 37.9 19.8 49.6 31.3 45.6" class="st1"/></g><g id="Layer_2"><path d="M16.4,62.7c0,0,2.8-1.7,4.3-3.7c0,0-1.5,2.9-4.3,3.9L16.4,62.7z"/><g><path d="M16.7,15.3c-2.6-0.7-3.7-4.5-3.2-8.7c0.4-4.2,2.2-7.3,4.8-6.6c2.6,0.7,3.7,4.5,3.2,8.7 C21.1,12.9,19.3,16,16.7,15.3z" class="st2"/><path d="M24.6,70.9l14.8,10.5c1.3,1,2,3.5,1.4,5.7c-0.6,2.2-2.2,3.2-3.5,2.2l-15.5-11c-0.8-0.4-1.4-1.3-1.7-2.6 l-2.8-11.9c2.2-1.5,3.7-2.9,4.6-4.6L24.6,70.9z" class="st2"/><path d="M0.3,92.6l4.2-26.5C4.6,64.9,5,63.7,5.8,63l7.8-7.6V37.1l-0.4,1.7c-0.4,1.6-1.6,2.3-2.5,1.6 c-0.1,0-0.1-0.1-0.1-0.1c-0.1-0.1-0.1-0.1-0.2-0.2c0,0,0-0.1-0.1-0.1c-0.3-0.3-0.5-0.8-0.6-1.3L4.4,18.2c-0.4-1.6,0.1-3.4,1.1-4.1 c1-0.6,2.1,0.1,2.5,1.7l3.4,13.6l2.2-8.3c0.1-1.9,1.1-3.3,2.3-3.3h2.8h1.7h8.9c0.2,0,0.3,0.1,0.5,0.1c0.9,0.3,1.5,1.5,1.5,3.1 v22.1c0,1.7-0.9,3.1-1.9,3.1s-1.9-1.4-1.9-3.1V24.2h-4.8v0H20v1.5h2.7v27.1c-0.2,4.1-1.2,6.3-5.8,9.5l0,0l-7.4,7.2l-4,25.3 c-0.4,2.3-1.8,3.7-3.2,3.1C0.8,97.3,0,94.9,0.3,92.6z" class="st2"/></g></g></svg>