<svg xmlns="http://www.w3.org/2000/svg" xmlns:xlink="http://www.w3.org/1999/xlink" id="Layer_2" x="0" y="0" version="1.1" viewBox="0 0 41 100" xml:space="preserve" style="enable-background:new 0 0 41 100"><g><path d="M16.7,15.3c-2.6-0.7-3.7-4.5-3.2-8.7c0.4-4.2,2.2-7.3,4.8-6.6c2.6,0.7,3.7,4.5,3.2,8.7C21.1,12.9,19.3,16,16.7,15.3z"/><path d="M24.6,70.9l14.8,10.5c1.3,1,2,3.5,1.4,5.7c-0.6,2.2-2.2,3.2-3.5,2.2l-15.5-11c-0.8-0.4-1.4-1.3-1.7-2.6l-2.8-11.9 c2.2-1.5,3.7-2.9,4.6-4.6L24.6,70.9z"/><path d="M0.3,92.6l4.2-26.5C4.6,64.9,5,63.7,5.8,63l7.8-7.6V37.1l-0.4,1.7c-0.4,1.6-1.6,2.3-2.5,1.6c-0.1,0-0.1-0.1-0.1-0.1 c-0.1-0.1-0.1-0.1-0.2-0.2c0,0,0-0.1-0.1-0.1c-0.3-0.3-0.5-0.8-0.6-1.3L4.4,18.2c-0.4-1.6,0.1-3.4,1.1-4.1c1-0.6,2.1,0.1,2.5,1.7 l3.4,13.6l2.2-8.3c0.1-1.9,1.1-3.3,2.3-3.3h2.8h1.7h8.9c0.2,0,0.3,0.1,0.5,0.1c0.9,0.3,1.5,1.5,1.5,3.1v22.1c0,1.7-0.9,3.1-1.9,3.1 s-1.9-1.4-1.9-3.1V24.2h-4.8v0H20v1.5h2.7v27.1c-0.2,4.1-1.2,6.3-5.8,9.5l0,0l-7.4,7.2l-4,25.3c-0.4,2.3-1.8,3.7-3.2,3.1 C0.8,97.3,0,94.9,0.3,92.6z"/></g></svg>