<svg xmlns="http://www.w3.org/2000/svg" xmlns:xlink="http://www.w3.org/1999/xlink" id="Layer_2" x="0" y="0" version="1.1" viewBox="0 0 41 100" xml:space="preserve" style="enable-background:new 0 0 41 100"><style type="text/css">.st0{fill:#f8c977}.st0,.st1,.st2{stroke:#0b191e;stroke-width:.6365;stroke-miterlimit:10}.st1{fill:#efa547}.st2{fill:none}</style><g><polygon points="4.5 92.3 .8 92.2 .4 94.2 5.6 99.9 11.4 96.3 6.4 95.2 12.4 64.8 19.7 61.3 17.9 64.3 23.4 72.5 22.7 75.8 28.7 78.5 34.6 72.4 26.8 73 26.4 53.3 17.6 53.1 21.3 47.5 25.7 46.3 28.8 38.1 31.7 39.2 37.3 34.7 37.2 30.7 35.1 28 36.6 26.6 39.5 12.5 40.8 11.2 38.5 5.1 35.8 3.1 36.3 9.3 34.8 9.1 36 11.7 37.1 12.7 31.2 23.5 32.4 26.6 24.5 32.3 16.1 32.9 6.1 51.6 1.5 56.6 2 62.5 .7 63.8 6.1 76.9 1.8 78.1" class="st0"/><polygon points="12.4 64.8 6.4 63.7 3.5 60.3 4.2 54 1.5 56.6 2 62.5 .7 63.8 6.1 76.9 1.8 78.1 4.5 92.3 .8 92.2 .4 94.2 5.6 99.9 11.4 96.3 6.4 95.2" class="st1"/><line x1="17.4" x2="20.1" y1="38" y2="33.5" class="st2"/><polyline points="35.1 28 22.9 43.2 17.6 42.6" class="st2"/><polygon points="18.9 32.7 26.1 25.3 29.7 14.9 28.8 8.1 30 6.5 32 11.8 32.3 8.7 34.2 12.7 31.8 16.2 32.4 21.3 31.2 23.5 31.6 24.5 29.7 28.6 24.5 32.3" class="st1"/><line x1="18.3" x2="21.3" y1="45.4" y2="47.5" class="st2"/><line x1="10.4" x2="17.6" y1="53.6" y2="53.1" class="st2"/></g></svg>