<svg xmlns="http://www.w3.org/2000/svg" xmlns:xlink="http://www.w3.org/1999/xlink" id="Shine" x="0" y="0" version="1.1" viewBox="0 0 648 648" xml:space="preserve" style="enable-background:new 0 0 648 648"><style type="text/css">.st0{opacity:.2;fill:#f9ca77}</style><g><polygon points="573.7 111.3 548.8 140.7 532.7 162.5 521.7 171.1 511.3 176.7 505.5 174.7 753.1 -238" class="st0"/><polygon points="453.4 222.7 458.1 234.7 470.6 219 478 196.3 735.7 -217" class="st0"/><polygon points="461.8 262.8 485.9 242.3 759.1 -231" class="st0"/><polygon points="509.8 227 509.1 230.3 524.4 223.6 533.7 220.9 764 -224" class="st0"/><polygon points="470.9 266.4 484 271 495 258.5 774.1 -243" class="st0"/><path d="M569,187.6c0,0,12.4,7.2,12.7,6c0.3-1.2,5.6-19,5.6-19L774.1-224L569,187.6z" class="st0"/><polygon points="560.3 200.4 791 -231 570.9 193.7 569 195.4" class="st0"/><polygon points="570.9 139.5 572.5 143.7 587.1 140 597 119.3 787 -254.3" class="st0"/><polygon points="614 143.7 614 155 621.7 155 630.7 126.7 642.3 98.3 776.5 -221" class="st0"/><polygon points="484 327.2 772 -267 502.7 319" class="st0"/><polygon points="586.1 90.8 610.4 89.6 614 105.8 599.1 136.1 630.4 89.6 638.6 84.3 788.7 -260.3" class="st0"/></g></svg>