<?xml version="1.0" encoding="UTF-8"?>
<svg width="1200pt" height="1200pt" version="1.1" viewBox="0 0 1200 1200" xmlns="http://www.w3.org/2000/svg">
 <path d="m600 180c-140.02 92.016-279.98 184.03-420 276.05h840c-140.02-92.016-279.98-184.03-420-276.05z"/>
 <path d="m983.06 935.16h-767.3c-0.46875 0-0.23438 76.547-0.23438 84.844h768.66c-0.75 0 2.625-84.844-1.125-84.844z"/>
 <path d="m413.11 528.37c-2.4375-23.109-40.406-10.734-55.875-10.688-10.969 0.046875-65.438-8.3438-66.469 6.75-2.5312 37.125-5.0625 74.25-7.5938 111.38-5.3906 78.703-10.734 157.4-16.125 236.11 60.656-0.1875 121.26-0.42188 181.92-0.60938-7.8281-75.094-15.703-150.19-23.531-225.28-4.125-39.188-8.2031-78.422-12.328-117.66z"/>
 <path d="m909.37 526.74c-1.3125-19.547-47.953-8.9062-60.984-8.9531-12.984-0.046875-59.25-11.062-61.266 8.1562-3.9375 37.828-7.9219 75.609-11.859 113.44-8.0625 77.344-16.172 154.69-24.234 232.03 60.656 0.1875 121.26 0.42188 181.92 0.60938-5.2031-76.453-10.453-152.9-15.656-229.36-2.625-38.672-5.2969-77.297-7.9219-115.92z"/>
 <path d="m573.47 783.05c-4.2656-4.5-7.4531-9.5156-9.5625-14.953s-4.5938-13.312-7.4531-23.625c-1.2656-4.7812-3.5156-8.4844-6.7969-11.109s-7.2656-3.9375-12.047-3.9375c-5.9062 0-10.828 2.4375-14.812 7.2188-3.9375 4.8281-5.9531 10.266-5.9531 16.266 0 8.1562 1.5 16.453 4.4531 24.938s7.5 16.594 13.688 24.469c6.1875 7.8281 13.875 14.391 23.109 19.641s20.016 8.7188 32.391 10.359v28.5c0 5.7656 0.75 10.031 2.2969 12.797s4.1719 4.125 8.0156 4.125c4.125 0 6.7969-1.6875 8.0156-5.0625s1.8281-8.7656 1.8281-16.172l-0.046875-24.562c15.094-1.5 28.125-6.1875 39.094-14.109s19.266-18.094 24.938-30.562c5.625-12.469 8.4844-25.875 8.4844-40.172 0-11.391-1.7812-21.891-5.2969-31.5s-8.5781-17.859-15.141-24.75c-6.1406-6.6562-13.078-11.719-20.812-15.234s-18.188-7.4062-31.266-11.672v-78.188c13.312 5.1562 21.703 15.562 25.172 31.219 3.0469 13.312 9.75 19.922 20.109 19.922 5.4844 0 10.172-2.2969 14.016-6.8438 3.8438-4.5938 5.7656-9.9844 5.7656-16.266 0-5.625-1.3125-11.859-3.8906-18.609s-6.2344-13.359-11.016-19.734c-6-8.3906-13.078-14.672-21.141-18.797s-17.766-6.8906-29.062-8.2969l0.046875-20.344c0-10.266-3.375-15.422-10.125-15.422-6.6562 0-9.9844 5.25-9.9844 15.797v19.922c-21.844 2.25-38.531 10.266-50.109 24.094-11.578 13.781-17.344 31.453-17.344 53.062 0 16.547 2.9531 30.094 8.8594 40.641s13.594 18.656 23.109 24.375 21.328 10.875 35.484 15.516v87.469c-7.0781-2.4375-12.75-5.9062-17.016-10.406zm37.125-70.172c10.969 4.125 19.266 9.1875 24.938 15.141 5.625 5.9531 8.4844 14.391 8.4844 25.312 0 10.172-2.9062 19.078-8.7188 26.719s-14.062 12.75-24.703 15.234zm-41.297-69.703c-4.6406-5.0625-6.9844-12.562-6.9844-22.5 0-10.406 2.4844-18.188 7.4531-23.344s11.859-9.2812 20.719-12.422v72.047c-9.4688-4.0781-16.547-8.6719-21.188-13.781z"/>
</svg>
