<?xml version="1.0" encoding="UTF-8"?>
<svg width="1200pt" height="1200pt" version="1.1" viewBox="0 0 1200 1200" xmlns="http://www.w3.org/2000/svg">
 <path d="m146.62 636c-57.188-58.5-56.25-168.75-56.25-173.06 0-4.9727 1.9766-9.7422 5.4922-13.258 3.5156-3.5156 8.2852-5.4922 13.258-5.4922 4.6875 0 114.56 2.0625 171.75 60.562 17.344 17.785 26.918 41.723 26.625 66.562-0.054688 4.7773-0.49609 9.543-1.3125 14.25l-95.625-23.062c-6.6992-1.5391-13.711 0.60938-18.395 5.6406-4.6836 5.0312-6.3281 12.18-4.3125 18.75s7.3828 11.57 14.082 13.109l90.562 21.75c-17.062 26.988-46.82 43.285-78.75 43.125h-1.3125c-24.902-0.5-48.582-10.891-65.812-28.875zm865.88-59.062c1.1289 4.8242 0.30078 9.8945-2.2969 14.109-2.6016 4.2188-6.7617 7.2344-11.578 8.3906l-91.125 21.75c15.441 24 40.977 39.66 69.371 42.543 28.391 2.8828 56.551-7.3242 76.504-27.73 56.25-58.5 56.25-168.75 56.25-173.06 0-4.9727-1.9766-9.7422-5.4922-13.258-3.5156-3.5156-8.2852-5.4922-13.258-5.4922-4.6875 0-114.56 2.0625-171.75 60.562-17.344 17.785-26.918 41.723-26.625 66.562 0.054688 4.7773 0.49609 9.543 1.3125 14.25l95.625-23.062c4.9805-1.2852 10.273-0.46875 14.633 2.2617 4.3633 2.7305 7.4102 7.1328 8.4297 12.176zm126.38 272.25-75-75c-2.3867-2.4414-5.3906-4.1875-8.6953-5.0469-3.3047-0.85938-6.7812-0.80078-10.055 0.17188l-445.12 111.94-445.5-112.5c-3.2734-0.97266-6.75-1.0312-10.055-0.17188-3.3047 0.85938-6.3086 2.6055-8.6953 5.0469l-75 75c-2.4102 2.4062-4.1211 5.4219-4.9453 8.7227-0.82813 3.3047-0.73828 6.7695 0.25781 10.027 0.89453 3.1836 2.6133 6.0742 4.9844 8.3789 2.3711 2.3047 5.3086 3.9414 8.5156 4.7461l450 112.5c1.7656 0.51562 3.5977 0.76953 5.4375 0.75 4.9844 0.027344 9.7734-1.9297 13.312-5.4375l61.688-61.688 61.688 61.688c3.5391 3.5078 8.3281 5.4648 13.312 5.4375 1.4961 0.17969 3.0039 0.17969 4.5 0l450-112.5c3.207-0.80469 6.1445-2.4414 8.5156-4.7461 2.3711-2.3047 4.0898-5.1953 4.9844-8.3789 1.0312-3.2812 1.1406-6.7852 0.3125-10.125-0.82422-3.3398-2.5547-6.3906-5-8.8125zm-754.5-206.25-67.312 33.938c-4.4492 2.2148-7.8359 6.1055-9.418 10.816-1.582 4.7109-1.2305 9.8594 0.98047 14.309 1.5742 3.1211 3.9844 5.7383 6.9688 7.5625 2.9805 1.8203 6.4102 2.7734 9.9062 2.75 2.8828 0.054688 5.7305-0.65625 8.25-2.0625l106.5-54 97.125 23.438-6.9375 164.06 69.562 17.438 69.562-17.438-6.9375-163.88 96.938-23.625 107.06 53.812c2.5195 1.4062 5.3672 2.1172 8.25 2.0625 3.4961 0.023438 6.9258-0.92969 9.9062-2.75 2.9844-1.8242 5.3945-4.4414 6.9688-7.5625 2.2109-4.4492 2.5625-9.5977 0.98047-14.309-1.582-4.7109-4.9688-8.6016-9.418-10.816l-67.125-33.562 91.312-21.938c-6.9766-10.664-11.641-22.672-13.688-35.25l-68.812 16.5 46.312-45.375c3.4922-3.5117 5.4531-8.2656 5.4531-13.219s-1.9609-9.707-5.4531-13.219c-3.5195-3.5508-8.3125-5.5469-13.312-5.5469s-9.793 1.9961-13.312 5.5469l-91.125 89.25-92.625 22.312-2.4375-58.125c-30.906 10.562-63.34 15.945-96 15.938-7.3125 0-14.625 0-21.75-1.125l-1.875 43.125-92.812-22.312-91.125-89.25c-3.5195-3.5508-8.3125-5.5469-13.312-5.5469s-9.793 1.9961-13.312 5.5469c-3.4922 3.5117-5.4531 8.2656-5.4531 13.219s1.9609 9.707 5.4531 13.219l46.688 45.562-68.812-16.5c-2.0469 12.578-6.7109 24.586-13.688 35.25zm215.62-286.69v-18.75c0-4.9727-1.9766-9.7422-5.4922-13.258-3.5156-3.5156-8.2852-5.4922-13.258-5.4922v56.25c4.9727 0 9.7422-1.9766 13.258-5.4922 3.5156-3.5156 5.4922-8.2852 5.4922-13.258zm-56.25-131.25c-4.9727 0-9.7422 1.9766-13.258 5.4922-3.5156 3.5156-5.4922 8.2852-5.4922 13.258v18.75c0 4.9727 1.9766 9.7422 5.4922 13.258 3.5156 3.5156 8.2852 5.4922 13.258 5.4922zm-262.5 75c0-74.594 29.633-146.13 82.375-198.88 52.746-52.742 124.28-82.375 198.88-82.375s146.13 29.633 198.88 82.375c52.742 52.746 82.375 124.28 82.375 198.88s-29.633 146.13-82.375 198.88c-52.746 52.742-124.28 82.375-198.88 82.375s-146.13-29.633-198.88-82.375c-52.742-52.746-82.375-124.28-82.375-198.88zm56.25 0c0 59.672 23.707 116.9 65.902 159.1 42.195 42.195 99.426 65.902 159.1 65.902s116.9-23.707 159.1-65.902c42.195-42.195 65.902-99.426 65.902-159.1s-23.707-116.9-65.902-159.1c-42.195-42.195-99.426-65.902-159.1-65.902s-116.9 23.707-159.1 65.902c-42.195 42.195-65.902 99.426-65.902 159.1zm37.5 0c0-49.727 19.754-97.418 54.918-132.58 35.164-35.164 82.855-54.918 132.58-54.918s97.418 19.754 132.58 54.918c35.164 35.164 54.918 82.855 54.918 132.58s-19.754 97.418-54.918 132.58c-35.164 35.164-82.855 54.918-132.58 54.918s-97.418-19.754-132.58-54.918c-35.164-35.164-54.918-82.855-54.918-132.58zm168.75 18.75v56.25c-4.9727 0-9.7422-1.9766-13.258-5.4922-3.5156-3.5156-5.4922-8.2852-5.4922-13.258 0-6.6992-3.5742-12.887-9.375-16.238-5.8008-3.3477-12.949-3.3477-18.75 0-5.8008 3.3516-9.375 9.5391-9.375 16.238 0 14.918 5.9258 29.227 16.477 39.773 10.547 10.551 24.855 16.477 39.773 16.477v18.75c0 6.6992 3.5742 12.887 9.375 16.238 5.8008 3.3477 12.949 3.3477 18.75 0 5.8008-3.3516 9.375-9.5391 9.375-16.238v-18.75c14.918 0 29.227-5.9258 39.773-16.477 10.551-10.547 16.477-24.855 16.477-39.773v-18.75c0-14.918-5.9258-29.227-16.477-39.773-10.547-10.551-24.855-16.477-39.773-16.477v-56.25c4.9727 0 9.7422 1.9766 13.258 5.4922 3.5156 3.5156 5.4922 8.2852 5.4922 13.258 0 6.6992 3.5742 12.887 9.375 16.238 5.8008 3.3477 12.949 3.3477 18.75 0 5.8008-3.3516 9.375-9.5391 9.375-16.238 0-14.918-5.9258-29.227-16.477-39.773-10.547-10.551-24.855-16.477-39.773-16.477v-18.75c0-6.6992-3.5742-12.887-9.375-16.238-5.8008-3.3477-12.949-3.3477-18.75 0-5.8008 3.3516-9.375 9.5391-9.375 16.238v18.75c-14.918 0-29.227 5.9258-39.773 16.477-10.551 10.547-16.477 24.855-16.477 39.773v18.75c0 14.918 5.9258 29.227 16.477 39.773 10.547 10.551 24.855 16.477 39.773 16.477zm303-225c-48.883-45.711-112.57-72.332-179.44-75 42.719 16.113 81.195 41.766 112.5 75zm-179.44 487.5c66.871-2.668 130.55-29.289 179.44-75h-66.938c-31.305 33.234-69.781 58.887-112.5 75zm195.19-300h75c-1.2617-19.027-4.4688-37.875-9.5625-56.25h-75c5.0078 18.395 8.2109 37.234 9.5625 56.25zm52.312 131.25h-74.438c-7.9297 19.781-17.992 38.645-30 56.25h70.875c13.004-17.434 23.949-36.309 32.625-56.25zm22.688-93.75h-75c-1.168 18.996-4.1836 37.836-9 56.25h75c4.9062-18.395 7.9219-37.242 9-56.25zm-96.188-131.25h73.5c-8.9688-19.988-20.23-38.863-33.562-56.25h-70.875c12.008 17.605 22.07 36.469 30 56.25zm-153.19 651.75 314.62-78.562-320.25-53.438zm-176.25 0 5.625-131.25-320.25 52.688zm163.12 173.25c-9.9961 0.007812-19.578-3.9727-26.625-11.062l-48.375-48.375-18.75 18.75-29.812 29.625c-7 7.043-16.508 11.02-26.438 11.062-3.0352 0.007812-6.0586-0.37109-9-1.125l-384.75-96.188v134.81c-0.125 4.2812 1.2227 8.4805 3.8125 11.891 2.5938 3.4141 6.2773 5.832 10.438 6.8594l448.5 112.5h1.5c2.957 0.73047 6.043 0.73047 9 0h1.5l448.5-112.5c4.1602-1.0273 7.8438-3.4453 10.438-6.8594 2.5898-3.4102 3.9375-7.6094 3.8125-11.891v-134.81l-384.75 96.188c-2.9414 0.75391-5.9648 1.1328-9 1.125z"/>
</svg>
