<svg xmlns="http://www.w3.org/2000/svg" width="1600" height="1600" version="1.1" viewBox="0 0 1200 1200"><path fill="none" stroke="#000" stroke-linecap="round" stroke-linejoin="round" stroke-width="6.945" d="m188 135c1.0005 3.9999 19 23 39 3.0005l-5.0004-110c-1.0005-7.9998-23-16-31 0l-3.0005 107zm0 0" transform="scale(3.6036)"/><path fill="none" stroke="#000" stroke-linecap="round" stroke-linejoin="round" stroke-width="6.945" d="m191 28c5.9999 13 24 13 31 0" transform="scale(3.6036)"/><path fill="none" stroke="#000" stroke-linecap="round" stroke-linejoin="round" stroke-width="6.945" d="m68.001 276v-71l39 20.001v71.999l42 20.001 123-68.001v-116l-123 62.001v122" transform="scale(3.6036)"/><path fill="none" stroke="#000" stroke-linecap="round" stroke-linejoin="round" stroke-width="6.945" d="m149 195-42-23 36-20.001v-37l-36 20.001v37" transform="scale(3.6036)"/><path fill="none" stroke="#000" stroke-linecap="round" stroke-linejoin="round" stroke-width="6.945" d="m107 135-52-28 39-19 49 27" transform="scale(3.6036)"/><path fill="none" stroke="#000" stroke-linecap="round" stroke-linejoin="round" stroke-width="6.945" d="m55 107v162l13 6.9993" transform="scale(3.6036)"/><path fill="none" stroke="#000" stroke-linecap="round" stroke-linejoin="round" stroke-width="6.945" d="m143 134 46-21.999" transform="scale(3.6036)"/><path fill="none" stroke="#000" stroke-linecap="round" stroke-linejoin="round" stroke-width="6.945" d="m225 108 46.999 25" transform="scale(3.6036)"/><path fill="none" stroke="#000" stroke-linecap="round" stroke-linejoin="round" stroke-width="6.945" d="m-0.0025084 8.7368e-4 174 0.0017915v174l-174-0.001792zm0 0" transform="matrix(-.48543 .26665 0 .67694 810.53 616.37)"/><path fill="none" stroke="#000" stroke-linecap="round" stroke-linejoin="round" stroke-width="6.945" d="m-0.0025084 0.0030675 174 0.0017915v174l-174-0.001792zm0 0" transform="matrix(-.48543 .26665 0 .67694 810.53 808.34)"/><path fill="none" stroke="#000" stroke-linecap="round" stroke-linejoin="round" stroke-width="6.945" d="m-9.8594e-4 0.001584 174 0.0017915v174l-174-0.001791zm0 0" transform="matrix(-.48543 .26665 0 .67694 928.8 548.85)"/><path fill="none" stroke="#000" stroke-linecap="round" stroke-linejoin="round" stroke-width="6.945" d="m-9.8594e-4 -0.0019926 174 0.0017915v174l-174-0.001791zm0 0" transform="matrix(-.48543 .26665 0 .67694 928.8 740.82)"/><path fill="none" stroke="#000" stroke-linecap="round" stroke-linejoin="round" stroke-width="6.945" d="m68.001 276 39-13" transform="scale(3.6036)"/><path fill-rule="evenodd" d="m536.94 702.7v439.64l443.24-245.05v-418.02l-443.24 223.42zm190.99 270.27v-118.92l82.883-46.848v118.92zm115.32-68.469v-118.92l86.488-43.242v115.32l-86.488 46.848zm-32.434-169.37-82.883 46.848v-118.92l82.883-46.848zm32.434-21.621v-118.92l86.488-46.848v118.92z"/><path fill-rule="evenodd" d="m536.94 1142.3v-439.64l-151.35-82.883v-133.33l-187.39-100.9v583.79l46.848 25.223v-255.86l140.54 72.074v259.46z"/><path fill-rule="evenodd" d="m198.2 385.59 187.39 100.9 129.73-72.074-176.58-97.297z"/><path fill-rule="evenodd" d="m385.59 486.49v133.33l129.73-72.074v-133.33z"/><path fill-rule="evenodd" d="m681.08 403.61-3.6055 82.883c3.6055 14.414 68.469 82.883 140.54 10.812l-7.207-108.11-10.812-288.29c-25.227 46.848-90.09 46.848-111.71 0l-7.207 302.7z"/></svg>