<svg xmlns="http://www.w3.org/2000/svg" width="1600" height="1600" version="1.1" viewBox="0 0 1200 1200"><path d="m545.39 342.11c-0.91406 0.039062-1.8125 0.24219-2.6562 0.60156l-55.441 23.66c-1.8789 0.8125-3.3477 2.3516-4.0742 4.2656l-20.695 54.609h16.191l17.492-46.211 52.457-22.391h0.003906c3.8398-1.6367 5.6211-6.0781 3.9844-9.918-1.2266-2.8867-4.1133-4.7148-7.2461-4.5898zm-200.77 34.168c-36.129 0-65.227 28.992-65.227 64.898-0.003907 32.914 24.824 59.051 56.812 63.32v-64.16c0-4.1758 3.3867-7.5586 7.5586-7.5586h64.488c-4.2344-31.309-29.734-55.852-62.32-56.5-0.40625-0.003907-0.82031-0.003907-1.2266 0h0.003906-0.082031zm6.7031 71.613v118.46c57.039 7.207 88.77 28.523 116.28 47.188 27.082 18.371 49.688 33.914 92.977 34.699v-200.35zm342.92 96.395c-43.441 0.003906-84.484 13.68-118.53 37.535v78.535h304.55c-34.93-70.582-106.56-116.07-186.03-116.07zm-20.664 18.789c4.1172 0 7.457 3.3359 7.4531 7.4531 0 4.1172-3.3359 7.457-7.4531 7.4531-4.1172 0-7.457-3.3359-7.4531-7.4531-0.003907-4.1172 3.3359-7.4531 7.4531-7.4531zm58.586 10.789c4.1133 0.007813 7.4258 3.3438 7.4258 7.4531 0.003907 4.1133-3.3125 7.4492-7.4258 7.4531-4.1172 0.003906-7.457-3.3359-7.4531-7.4531-0.003906-4.1172 3.3359-7.457 7.4531-7.4531zm-88.492 4.8867c0.11719-0.003906 0.24609-0.003906 0.35547 0 4.1172 0 7.457 3.3359 7.4531 7.4531-0.007812 4.1133-3.3438 7.4414-7.4531 7.4375-4.1133 0-7.4492-3.3281-7.4531-7.4375-0.007812-3.9883 3.1133-7.2695 7.0977-7.4531zm-292.35 2.8203v224.05c0 29.41 23.566 52.898 53.168 52.898h102.94c29.602 0 53.152-23.488 53.152-52.898v-142.25c-47.047-0.91016-74.289-18.887-101.45-37.312-27.215-18.461-54.922-37.504-107.81-44.484zm346.9 0.51562c4.1172 0 7.457 3.3359 7.4531 7.4531 0.003906 4.1172-3.3359 7.457-7.4531 7.4531-4.1172 0.003907-7.457-3.3359-7.4531-7.4531 0-4.1172 3.3359-7.457 7.4531-7.4531zm-28.781 21.062c4.1172 0 7.457 3.3359 7.4531 7.4531 0.003906 4.1172-3.3359 7.457-7.4531 7.4531-4.1133-0.007812-7.4258-3.3438-7.4258-7.4531-0.003907-4.1133 3.3125-7.4453 7.4258-7.4531zm44.723 2.5664c4.1172 0 7.457 3.3359 7.4531 7.4531 0 4.1172-3.3359 7.457-7.4531 7.4531-4.1172 0.003906-7.457-3.3359-7.4531-7.4531-0.003906-4.1172 3.3359-7.457 7.4531-7.4531zm-255.58 69.828h25.078v24.961h-25.078zm117.12 31.098v14.156c1.3555-0.11719 2.6641-0.35547 4.0586-0.35547 11.793 0 22.051 4.3086 31.426 8.0898 9.375 3.7773 17.863 7.0117 25.801 7.0117 7.9414 0 16.41-3.2305 25.785-7.0117 9.375-3.7773 19.66-8.0898 31.453-8.0898 11.793 0 22.062 4.3086 31.441 8.0898 9.375 3.7773 17.848 7.0117 25.785 7.0117s16.41-3.2305 25.785-7.0117c9.375-3.7773 19.66-8.0898 31.453-8.0898 11.797 0 22.062 4.3086 31.441 8.0898 9.375 3.7773 17.875 7.0117 25.816 7.0117 7.9375 0 22.16-3.5039 33.715-7.1875 5.4961-1.7539 10.297-3.4727 13.977-4.8281-3.9844-9.9609-13.637-16.887-25.152-16.887zm-181.13 3.7188h25.078v24.973h-25.078zm185.19 25.18c-1.3281 0-2.6992 0.19922-4.0586 0.36719v24.973h312.79c13.355 0 24.215-9.3008 26.613-21.875-3.3398 1.1953-6.5938 2.3867-10.863 3.75-12.133 3.8711-26.492 7.9102-38.289 7.9102-11.793 0-22.062-4.3398-31.441-8.1172-9.375-3.7773-17.879-7.0117-25.816-7.0117s-16.41 3.2305-25.785 7.0117c-9.375 3.7773-19.66 8.1172-31.453 8.1172-11.793 0-22.062-4.3398-31.441-8.1172-9.375-3.7773-17.848-7.0117-25.785-7.0117s-16.441 3.2305-25.816 7.0117c-9.375 3.7773-19.629 8.1172-31.426 8.1172-11.793 0-22.062-4.3398-31.441-8.1172-9.375-3.7773-17.848-7.0117-25.785-7.0117zm49.594 40.457 12.164 16.16 30.039 39.91 96.207-42.285 31.352-13.785zm-135.79 15.836h25.078v24.957h-25.078zm82.129 12.43v1.3555c0 21.367-9.9297 40.414-25.402 52.883h338.21c15.16 0 27.129-11.961 27.129-27.113 0-15.152-11.973-27.129-27.129-27.129h-116.11l-100.23 44.043c-0.19141 0.078125-0.39062 0.14453-0.57812 0.22266-0.40625 0.14453-0.82031 0.24609-1.2383 0.32422-0.20703 0-0.39844 0.078125-0.60156 0.078125-2.5898 0.22266-5.1211-0.90625-6.6875-2.9805l-31.352-41.68z"/></svg>