<svg xmlns="http://www.w3.org/2000/svg" width="1600" height="1600" version="1.1" viewBox="0 0 1200 1200"><g fill-rule="evenodd"><path d="m358.07 970.16c24.195 67.742 67.742 130.64 130.64 169.36h435.48c62.902-38.711 106.45-101.61 130.64-169.36z"/><path d="m0 331.45 116.13 808.07h270.97c-38.711-38.711-67.742-87.098-91.934-140.32-193.55 0-193.55-295.16-4.8398-295.16 38.711-96.773 87.098-154.84 174.2-217.74h125.8l24.195-154.84h-309.68c-9.6758-77.418 0-154.84-53.227-251.61-9.6758-19.355-91.934-29.031-96.773-4.8398 38.711 91.934 58.066 169.36 38.711 256.45z"/><path d="m217.74 868.55c4.8398 33.871 29.031 67.742 82.258 67.742h812.9c38.711 0 62.902-19.355 72.582-38.711-130.64 29.031-116.13-87.098-232.26-24.195-29.031 14.516-53.227 24.195-91.934-4.8398-29.031-24.195-101.61-19.355-130.64 9.6758-43.547 38.711-96.773-43.547-140.32 4.8398-29.031 33.871-116.13 19.355-150-9.6758-14.516-9.6758-38.711 0-53.227 9.6758-130.64 62.902-82.258-43.547-150-24.195-4.8398 4.8398-14.516 4.8398-19.355 9.6758z"/><path d="m1112.9 766.93h-812.9c-48.387 0-77.418 29.031-82.258 62.902 29.031-4.8398 58.066-24.195 82.258 19.355 14.516 29.031 48.387 19.355 77.418 0 24.195-14.516 43.547-19.355 82.258-4.8398 19.355 9.6758 62.902 48.387 111.29 9.6758 72.582-58.066 116.13 24.195 140.32-4.8398 24.195-33.871 140.32-33.871 164.52-9.6758 53.227 43.547 67.742-43.547 169.36-14.516 48.387 14.516 72.582 67.742 154.84 33.871 0-48.387-24.195-91.934-87.098-91.934z"/><path d="m488.71 549.2c-62.902 43.547-106.45 101.61-130.64 169.36h696.77c-24.195-67.742-67.742-125.8-130.64-169.36zm391.93 48.387c9.6758 0 14.516 4.8398 14.516 9.6758 0 9.6758-4.8398 14.516-14.516 14.516-4.8398 0-9.6758-4.8398-9.6758-9.6758 0-9.6758 4.8398-14.516 9.6758-14.516zm91.934 62.902c9.6758 0 14.516 4.8398 14.516 9.6758 0 4.8398-4.8398 9.6758-14.516 9.6758-4.8398 0-9.6758-4.8398-9.6758-9.6758 0-4.8398 4.8398-9.6758 9.6758-9.6758zm-48.387-29.031c4.8398-4.8398 14.516 0 14.516 9.6758 0 4.8398-4.8398 9.6758-14.516 9.6758-4.8398 0-9.6758-4.8398-9.6758-9.6758 0-4.8398 4.8398-9.6758 9.6758-9.6758zm-43.547 24.195c4.8398 0 9.6758 4.8398 9.6758 9.6758 4.8398 4.8398 0 9.6758-9.6758 9.6758-4.8398 0-9.6758-4.8398-9.6758-9.6758 0-4.8398 4.8398-9.6758 9.6758-9.6758zm-53.227-29.031c9.6758 0 14.516 4.8398 14.516 14.516 0 4.8398-4.8398 9.6758-14.516 9.6758-4.8398 0-9.6758-4.8398-9.6758-9.6758 0-4.8398 4.8398-14.516 9.6758-14.516zm-53.227 0c9.6758 0 14.516 4.8398 14.516 9.6758 0 4.8398-4.8398 9.6758-9.6758 9.6758-9.6758 4.8398-14.516 0-14.516-9.6758 0-4.8398 4.8398-9.6758 9.6758-9.6758zm38.711-48.387c4.8398 0 9.6758 4.8398 9.6758 9.6758 0 4.8398-4.8398 9.6758-9.6758 14.516-4.8398 0-9.6758-4.8398-9.6758-14.516-4.8398-4.8398 4.8398-9.6758 9.6758-9.6758zm-154.84 0c4.8398 0 9.6758 4.8398 9.6758 9.6758 0 9.6758-4.8398 14.516-9.6758 14.516-4.8398 0-9.6758-4.8398-9.6758-9.6758-4.8398-9.6758 4.8398-14.516 9.6758-14.516zm38.711 53.227c4.8398 0 9.6758 4.8398 9.6758 14.516 0 4.8398-4.8398 9.6758-9.6758 9.6758-4.8398 0-9.6758-4.8398-9.6758-9.6758 0-9.6758 4.8398-14.516 9.6758-14.516zm33.871-38.711c4.8398 0 9.6758 4.8398 9.6758 9.6758 0 9.6758-4.8398 14.516-9.6758 14.516-4.8398 0-14.516-4.8398-14.516-9.6758 0-9.6758 4.8398-14.516 14.516-14.516zm-101.61 53.227c4.8398 0 9.6758 4.8398 9.6758 14.516 0 4.8398-4.8398 9.6758-9.6758 9.6758-4.8398 0-9.6758-4.8398-14.516-9.6758 0-4.8398 4.8398-14.516 14.516-14.516zm-9.6758-38.711c4.8398 0 9.6758 4.8398 9.6758 9.6758 0 4.8398-4.8398 9.6758-9.6758 9.6758-4.8398 0-14.516-4.8398-14.516-9.6758 0-4.8398 4.8398-9.6758 14.516-9.6758zm-67.742 33.871c4.8398 0 9.6758 4.8398 9.6758 9.6758 0 9.6758-4.8398 14.516-9.6758 14.516-4.8398 0-9.6758-4.8398-14.516-9.6758 0-9.6758 4.8398-14.516 14.516-14.516zm-58.066-19.355c9.6758 0 14.516 4.8398 14.516 9.6758 0 4.8398-4.8398 14.516-9.6758 14.516-9.6758 0-14.516-4.8398-14.516-14.516 0-4.8398 4.8398-9.6758 9.6758-9.6758zm43.547-29.031c4.8398-4.8398 9.6758 0 9.6758 9.6758 0 4.8398-4.8398 9.6758-9.6758 9.6758-4.8398 0-9.6758-4.8398-9.6758-9.6758-4.8398-4.8398 4.8398-9.6758 9.6758-9.6758zm-106.45 62.902c4.8398 0 9.6758 4.8398 9.6758 14.516 0 4.8398-4.8398 9.6758-9.6758 9.6758-4.8398 0-9.6758-4.8398-14.516-9.6758 0-4.8398 4.8398-9.6758 14.516-14.516z"/></g></svg>