<?xml version="1.0" encoding="UTF-8"?>
<svg width="1200pt" height="1200pt" version="1.1" viewBox="0 0 1200 1200" xmlns="http://www.w3.org/2000/svg">
 <g>
  <path d="m438.46 276.92h323.08c6.1211 0 11.988-2.4297 16.316-6.7578 4.3281-4.3281 6.7617-10.199 6.7617-16.316v-69.23c0.15625-8.0977-1.918-16.082-6-23.078-4.0664-7.043-9.9219-12.887-16.977-16.941-7.0508-4.0508-15.047-6.168-23.18-6.1367h-46.152c0-32.977-17.594-63.449-46.156-79.941-28.559-16.488-63.746-16.488-92.305 0-28.562 16.492-46.156 46.965-46.156 79.941h-46.152c-8.1328-0.03125-16.129 2.0859-23.18 6.1367-7.0547 4.0547-12.91 9.8984-16.977 16.941-4.082 6.9961-6.1562 14.98-6 23.078v69.23c0 6.1172 2.4336 11.988 6.7617 16.316 4.3281 4.3281 10.195 6.7578 16.316 6.7578zm161.54-184.62v0.003906c12.242 0 23.98 4.8633 32.637 13.516 8.6562 8.6562 13.516 20.398 13.516 32.637 0 12.242-4.8594 23.98-13.516 32.637s-20.395 13.52-32.637 13.52-23.98-4.8633-32.637-13.52-13.516-20.395-13.516-32.637c0-12.238 4.8594-23.98 13.516-32.637 8.6562-8.6523 20.395-13.516 32.637-13.516z"/>
  <path d="m276.92 253.85c-6.1211 0-11.988 2.4297-16.316 6.7578s-6.7578 10.195-6.7578 16.316v784.62c0 6.1211 2.4297 11.988 6.7578 16.316s10.195 6.7617 16.316 6.7617h646.16c6.1211 0 11.988-2.4336 16.316-6.7617s6.7578-10.195 6.7578-16.316v-784.62c0-6.1211-2.4297-11.988-6.7578-16.316s-10.195-6.7578-16.316-6.7578h-115.39c0 12.238-4.8633 23.98-13.516 32.633-8.6562 8.6562-20.398 13.52-32.637 13.52h-323.08c-12.238 0-23.98-4.8633-32.637-13.52-8.6523-8.6523-13.516-20.395-13.516-32.633zm553.85 750h-461.54c-6.3711 0-11.539-5.168-11.539-11.539 0-6.375 5.168-11.539 11.539-11.539h461.54c6.3711 0 11.539 5.1641 11.539 11.539 0 6.3711-5.168 11.539-11.539 11.539zm0-138.46-461.54-0.003907c-6.3711 0-11.539-5.1641-11.539-11.535 0-6.375 5.168-11.539 11.539-11.539h461.54c6.3711 0 11.539 5.1641 11.539 11.539 0 6.3711-5.168 11.535-11.539 11.535zm-402.92-302.31 42.23-96.922v-0.003906c2.6484-5.9531 7.6914-10.512 13.883-12.547 6.1953-2.0312 12.957-1.3516 18.621 1.875 5.6641 3.2227 9.6992 8.6953 11.109 15.059l34.383 161.54 92.309-248.77c1.6367-4.3828 4.5664-8.1602 8.3984-10.84s8.3906-4.1289 13.066-4.1602c4.7148-0.015625 9.3203 1.4141 13.199 4.0938 3.8789 2.6836 6.8398 6.4883 8.4922 10.906l66.922 178.85 103.39-0.003906c8.2422 0 15.863 4.3984 19.984 11.539 4.1211 7.1406 4.1211 15.938 0 23.078-4.1211 7.1406-11.742 11.539-19.984 11.539h-118.62c-4.7148 0.015625-9.3203-1.4141-13.199-4.0977-3.8789-2.6797-6.8438-6.4844-8.4922-10.902l-51-136.15-99.23 265.38c-1.6367 4.3789-4.5664 8.1602-8.3984 10.84-3.832 2.6758-8.3867 4.1289-13.062 4.1602h-1.8477c-4.9648-0.39062-9.6719-2.3789-13.414-5.6641-3.7461-3.2852-6.3242-7.6953-7.3555-12.566l-34.613-168.46-19.383 44.539-0.003906-0.003907c-1.8008 4.1289-4.7695 7.6406-8.543 10.102s-8.1836 3.7617-12.688 3.7461h-97.848c-8.2422 0-15.863-4.3984-19.984-11.539-4.1211-7.1406-4.1211-15.938 0-23.074 4.1211-7.1406 11.742-11.539 19.984-11.539z"/>
  <path d="m923.08 184.62h-115.39v46.152h115.39c12.238 0 23.98 4.8633 32.633 13.52 8.6562 8.6523 13.52 20.395 13.52 32.633v784.62c0 12.238-4.8633 23.98-13.52 32.637-8.6523 8.6523-20.395 13.516-32.633 13.516h-646.16c-12.238 0-23.98-4.8633-32.633-13.516-8.6562-8.6562-13.52-20.398-13.52-32.637v-784.62c0-12.238 4.8633-23.98 13.52-32.633 8.6523-8.6562 20.395-13.52 32.633-13.52h115.38l0.003906-46.152h-115.39c-24.48 0-47.961 9.7227-65.27 27.035-17.312 17.309-27.035 40.789-27.035 65.27v784.62c0 24.48 9.7227 47.961 27.035 65.27 17.309 17.312 40.789 27.039 65.27 27.039h646.16c24.48 0 47.961-9.7266 65.27-27.039 17.312-17.309 27.035-40.789 27.035-65.27v-784.62c0-24.48-9.7227-47.961-27.035-65.27-17.309-17.312-40.789-27.035-65.27-27.035z"/>
 </g>
</svg>
