<svg xmlns="http://www.w3.org/2000/svg" width="1600" height="1600" version="1.1" viewBox="0 0 1200 1200"><g><path d="m574.96 397.63-315.41 548.53c-24.469 42.551-79.141 56.641-121.14 31.223l-0.21484-0.13281c-42-25.43-54.863-80.438-28.477-121.85l340.74-534.82c46.469 24.434 80.188 45.219 124.5 77.043z"/><path d="m854.33 587.59c0.10938 11.305-14.809 15.266-20.293 5.375-117.71-212.14-450.1-413.54-692.82-419.61-11.305-0.27734-14.711-15.336-4.6445-20.473 124.13-63.383 276.04-75.625 424.68-6.1914l19.703-30.91c10.57-16.586 32.484-21.625 49.234-11.316l53.965 33.215c16.57 10.199 22.043 31.727 12.336 48.602l-19.152 33.301c120.5 98.723 175.71 233.79 176.99 368z"/><path d="m942 480h-36c-9.9375 0-18-8.0625-18-18v-72c0-9.9375 8.0625-18 18-18h36c9.9375 0 18 8.0625 18 18v72c0 9.9375-8.0625 18-18 18z"/><path d="m1022.5 546.71-25.453-25.453c-7.0312-7.0312-7.0312-18.434 0-25.453l50.762-50.762c7.0312-7.0312 18.434-7.0312 25.453 0l25.453 25.453c7.0312 7.0312 7.0312 18.434 0 25.453l-50.762 50.762c-7.0352 7.0312-18.434 7.0312-25.453 0z"/><path d="m956.29 631.4-27.324 54.648c-3.0469 6.0977-9.2773 9.9492-16.094 9.9492h-127.43c-3.5508 0-7.0312-1.0547-9.9844-3.0234l-92.867-61.906c-6.3477-4.2344-14.676-4.0078-20.785 0.57422l-129.31 96.984c-2.9297 2.1953-5.125 5.2305-6.2773 8.7109l-68.879 206.64c-0.88672 2.6523-2.375 5.0625-4.3438 7.0312l-122.57 122.54c-6.8047 6.8047-1.9805 18.445 7.6406 18.445h747.93c9.9375 0 18-8.0625 18-18v-472.16c0-7.0312-6.6016-12.18-13.414-10.477l-122.54 30.637c-5.1133 1.2734-9.3984 4.7031-11.75 9.4062zm-59.016 283.05-56.461-56.449h-49.645l-56.449 56.449c-4.2109 4.2109-11.051 4.2109-15.277 0l-22.906-22.906c-4.2109-4.2109-4.2109-11.051 0-15.277l64.367-64.367c5.0664-5.0547 11.93-7.8984 19.094-7.8984h71.988c7.1641 0 14.027 2.8438 19.094 7.9062l64.367 64.367c4.2109 4.2109 4.2109 11.051 0 15.277l-22.906 22.906c-4.2148 4.2148-11.055 4.2148-15.266-0.007812z"/></g></svg>