<?xml version="1.0" encoding="UTF-8"?>
<svg width="1200pt" height="1200pt" version="1.1" viewBox="0 0 1200 1200" xmlns="http://www.w3.org/2000/svg">
 <path d="m1050 1012.5h-862.5v-169.4l170.16-139.5 182.81 132.94c8.4375 6.1875 19.125 8.4375 29.438 6.4688 10.312-2.0625 19.219-8.3438 24.656-17.344l123.84-204.28 155.06 155.06c7.3125 7.4062 16.969 11.062 26.531 11.062s19.219-3.6562 26.531-10.969l150-150c14.625-14.625 14.625-38.344 0-53.062-14.625-14.625-38.438-14.625-53.062 0l-123.47 123.47-141.56-141.56 182.44-300.94 79.219 105.56c12.469 16.594 35.906 19.875 52.5 7.5 16.594-12.469 19.969-35.906 7.5-52.5l-112.5-150c-7.5-9.9375-19.406-15.469-31.875-14.906-12.469 0.65625-23.812 7.4062-30.188 18l-201.74 332.63-227.26-227.26c-13.969-13.969-36.375-14.719-51.188-1.6875l-237.84 208.03v-329.81c0-20.719-16.781-37.5-37.5-37.5s-37.5 16.781-37.5 37.5v900c0 20.719 16.781 37.5 37.5 37.5h900c20.719 0 37.5-16.781 37.5-37.5s-16.781-37.5-37.5-37.5zm-601.69-661.22 215.44 215.53-112.22 185.16-173.26-126.1c-13.781-10.031-32.625-9.4688-45.844 1.3125l-144.94 118.88v-166.5z"/>
</svg>
