<svg version="1" xmlns="http://www.w3.org/2000/svg" width="426.667" height="426.667" viewBox="0 0 320.000000 320.000000"><path d="M155.7 8.6c-.1.1-4.4.4-9.5.8-35.9 2.5-71 19.7-96.8 47.6C40.6 66.5 40 67.3 34 76.1c-13.3 19.4-21.9 43-24.5 66.9-.6 6-.7 29.3-.1 32.5.2 1.1.7 4.5 1.1 7.5 2.7 22 12.7 45.9 27.3 66 8.2 11.3 27.1 29.4 39 37.4 17.9 12 42.9 21.4 62.2 23.3 9.5 1 33.7 1 41.2.1 40.1-5.2 75.9-26.5 101.4-60.4 21.1-28 29.6-55.1 28.9-92.4-.3-19.6-.6-22.3-4-35.4-12.1-47.9-52.2-90.5-99.1-105.6-8.9-2.8-11.1-3.4-18.4-4.6-1.9-.3-3.8-.8-4.1-1-.9-.5-28.6-2.2-29.2-1.8zm24.2 42.1c23.1 4 43.1 14.9 60 32.9 25.7 27.3 35.4 62.3 27.9 100.4-5.9 30.2-28.4 59.3-57.3 74.2-10.2 5.2-20.2 8.7-30 10.3-1.6.3-4.3.7-6 1-4.2.7-24.2.7-29 0-26.8-4-45.7-13.5-64.2-32.2-28.6-29-38.4-68.2-27.2-109.2 8.6-31.8 39.3-63.3 71.9-73.9 15.5-5.1 36.9-6.5 53.9-3.5z"/><path d="M196.4 107.5c-1.7.7-8.8 8.2-17.4 18.5-8 9.5-15.7 18.6-17.2 20.4l-2.7 3.1-3.5-4c-1.9-2.2-8.7-10.3-15.1-18-16.8-20-17.2-20.5-21.5-20.5-4.4 0-7 2.5-7.7 7.3-.4 3.1.5 4.5 11.3 17.3 6.4 7.6 12.8 15.2 14.3 16.9 1.4 1.6 4.5 5.4 6.9 8.4 3.7 4.7 4.1 5.6 2.9 7-6.8 7.9-33 41.7-33.6 43.4-1.6 4.2.3 8.1 4.6 9.8 3.7 1.4 7.6-.9 13.4-8.1 3-3.6 5.8-7 6.4-7.6.5-.7 5.7-6.9 11.4-13.8 5.7-7 10.8-12.5 11.2-12.4.5.2 8.3 9.3 17.4 20.3 9.2 10.9 17.4 20.4 18.3 21.1 2.3 1.6 7.2.9 9.4-1.4 1.1-1 2-3.3 2-5 .1-3.2-1.4-5.4-13-19-1.1-1.3-3.5-4.2-5.4-6.4-1.8-2.3-6.8-8.3-11.1-13.4l-7.7-9.3 8.6-10.3c4.7-5.7 10.3-12.3 12.4-14.8 13.6-16.2 16-19.4 16-21.3 0-4.3-1.2-6.4-4.4-7.9-2.7-1.3-3.7-1.4-6.2-.3z"/></svg>