<?xml version="1.0" encoding="utf-8"?>
<!-- Generator: Adobe Illustrator 25.1.0, SVG Export Plug-In . SVG Version: 6.00 Build 0)  -->
<!DOCTYPE svg PUBLIC "-//W3C//DTD SVG 1.1//EN" "http://www.w3.org/Graphics/SVG/1.1/DTD/svg11.dtd" [
	<!ENTITY ns_extend "http://ns.adobe.com/Extensibility/1.0/">
	<!ENTITY ns_ai "http://ns.adobe.com/AdobeIllustrator/10.0/">
	<!ENTITY ns_graphs "http://ns.adobe.com/Graphs/1.0/">
	<!ENTITY ns_vars "http://ns.adobe.com/Variables/1.0/">
	<!ENTITY ns_imrep "http://ns.adobe.com/ImageReplacement/1.0/">
	<!ENTITY ns_sfw "http://ns.adobe.com/SaveForWeb/1.0/">
	<!ENTITY ns_custom "http://ns.adobe.com/GenericCustomNamespace/1.0/">
	<!ENTITY ns_adobe_xpath "http://ns.adobe.com/XPath/1.0/">
]>
<svg version="1.1" id="Layer_1" xmlns:x="&ns_extend;" xmlns:i="&ns_ai;" xmlns:graph="&ns_graphs;"
	 xmlns="http://www.w3.org/2000/svg" xmlns:xlink="http://www.w3.org/1999/xlink" x="0px" y="0px" width="82px" height="100px"
	 viewBox="0 0 82 100" style="enable-background:new 0 0 82 100;" xml:space="preserve">
<style type="text/css">
	.st0{fill:#F8C977;}
</style>
<metadata>
	<sfw  xmlns="&ns_sfw;">
		<slices></slices>
		<sliceSourceBounds  bottomLeftOrigin="true" height="99.6" width="42" x="20" y="0"></sliceSourceBounds>
	</sfw>
</metadata>
<g>
	<path class="st0" d="M24.6,91.7l-3.8-0.1l-0.3,2l5.2,5.8l5.9-3.6l-5-1.1l6-30.9l7.4-3.5l-1.8,3.1l5.6,8.3L43,75l6.2,2.7l5.9-6.2
		l-7.9,0.6l-0.4-19.9L37.9,52l3.7-5.7l4.5-1.2l3.2-8.3l2.9,1.1l5.7-4.5l-0.1-4.2l-2.1-2.7l1.4-1.4l3-14.3l1.3-1.3l-2.3-6.2l-2.7-2
		l0.4,6.3l-1.5-0.2l1.3,2.7l1,1L51.7,22l1.2,3.2l-8,5.8l-8.6,0.5l-10,19l-4.7,5.1l0.5,5.9l-1.3,1.3l5.5,13.3l-4.5,1.2L24.6,91.7z"/>
	<path d="M25.6,100L20,93.8l0.4-2.6l3.6,0.1L21.3,77l4.3-1.2l-5.4-13.1l1.4-1.4l-0.5-5.9l4.8-5.3l10.1-19l8.7-0.6l7.6-5.5l-1.2-3
		L57,11.2l-0.9-0.9l-1.6-3.5l1.8,0.3l-0.5-6.7L59.4,3L62,9.6L60.5,11l-3,14.3l-1.2,1.2l1.9,2.5l0.1,4.5l-6,4.8l-2.8-1l-3,8.1
		l-4.6,1.2l-3.1,4.8l8.5,0.2l0.4,19.9l8.6-0.6l-7,7.3l-6.8-2.9l0.8-3.5l-5.6-8.4l1.2-2L33,64.2l-5.9,30.2l5.7,1.2
		C32.8,95.6,25.6,100,25.6,100z M21,93.5l4.8,5.3l4.6-2.8L26,95.1l6.2-31.5l9-4.3l-2.4,4.1l5.5,8.2l-0.7,3.2l5.5,2.4l4.8-5l-7.1,0.5
		l-0.4-20l-9.3-0.2l4.2-6.6l4.5-1.2l3.2-8.6l3.1,1.2l5.3-4.2l-0.1-3.7L55,26.5l1.6-1.6l3-14.3l1.2-1.2l-2.2-5.8l-1.7-1.3l0.4,5.9
		L56.1,8L57,9.8l1.3,1.2l-6,11.1l1.3,3.3l-8.6,6L36.6,32l-9.9,18.7l-4.6,5.1l0.5,5.9L21.3,63l5.6,13.5l-4.5,1.2l2.8,14.5l-3.9-0.1
		L21,93.5z"/>
	<path class="st0" d="M32.6,63.8l-6.1-1l-2.9-3.5l0.7-6.4l-2.7,2.7l0.5,5.9l-1.3,1.3l5.5,13.3l-4.5,1.2l2.8,14.4l-3.8-0.1l-0.3,2
		l5.2,5.8l5.9-3.6l-5-1.1L32.6,63.8z"/>
	<path d="M25.6,100L20,93.8l0.4-2.6l3.6,0.1L21.3,77l4.3-1.2l-5.4-13.1l1.4-1.4l-0.5-5.9l3.7-3.7L24,59.2l2.7,3.2l6.4,1.1l-6,30.9
		l5.7,1.2C32.8,95.6,25.6,100,25.6,100z M21,93.5l4.8,5.3l4.6-2.8L26,95.1l6-30.8l-5.8-1L23,59.5l0.5-5.2l-1.6,1.6l0.5,5.9L21.3,63
		l5.6,13.5l-4.5,1.2l2.8,14.5l-3.9-0.1L21,93.5z"/>
	<path d="M43.4,42.4l-5.6-0.6l0.1-0.9l5.1,0.6l12.3-15.3l0.7,0.6L43.4,42.4z"/>
	<path class="st0" d="M39.2,31.3l7.3-7.5l3.7-10.6l-1-6.8l1.2-1.7l2,5.5L52.8,7l1.9,4.1l-2.4,3.4l0.6,5.3L51.7,22l0.4,1l-1.9,4.1
		L44.9,31L39.2,31.3z"/>
	<path d="M38,31.9l8.1-8.3l3.6-10.4l-0.9-7l1.8-2.5l1.6,4.4l0.3-2.8l2.8,5.8l-2.5,3.6l0.6,5.2l-1.2,2.2l0.4,0.9l-2,4.4l-5.5,4
		C45.1,31.4,38,31.9,38,31.9z M49.7,6.5l0.9,6.8v0.1l-3.8,10.8l-6.4,6.6l4.3-0.3l5.1-3.7l1.7-3.8l-0.4-1l1.3-2.3l-0.6-5.3l2.4-3.4
		l-1.1-2.3l-0.4,3.5l-2.4-6.5C50.3,5.7,49.7,6.5,49.7,6.5z"/>
</g>
</svg>
