<svg xmlns="http://www.w3.org/2000/svg" xmlns:xlink="http://www.w3.org/1999/xlink" x="0" y="0" version="1.1" viewBox="0 0 1837.5 639.4" xml:space="preserve" style="enable-background:new 0 0 1837.5 639.4"><style type="text/css">.st0{fill:#0b191e}.st1{fill:none;stroke:#6fc7b4;stroke-miterlimit:10}.st2{fill:#272128}.st3{fill:#0b3336}.st4{fill:#7f7b73}.st5{fill:#f9ca77}.st6{fill:url(#SVGID_1_)}.st7{opacity:.1;fill:#5f5861}.st8{opacity:.5}.st9{fill:url(#SVGID_2_)}.st10{fill:url(#SVGID_3_)}.st11{fill:#dddee1}</style><g id="background"><rect width="2471" height="648" x="-3085.8" y="-4860.7" class="st0"/><path d="M-614.8-4536.7" class="st1"/><path d="M-3338.8-4536.7" class="st1"/><path d="M-1571.5-4212.7c55.1-95.3,86.7-206,86.7-324s-31.6-228.7-86.7-324h-1122.6c-55.1,95.3-86.7,206-86.7,324 s31.6,228.7,86.7,324H-1571.5z" class="st2"/><path d="M-1100.5-4212.7c55.1-95.3,86.7-206,86.7-324s-31.6-228.7-86.7-324h-1122.6c-55.1,95.3-86.7,206-86.7,324 s31.6,228.7,86.7,324H-1100.5z" class="st3"/><path d="M-641-4212.7c55.1-95.3,86.7-206,86.7-324s-31.6-228.7-86.7-324h-1122.6c-55.1,95.3-86.7,206-86.7,324 s31.6,228.7,86.7,324H-641z" class="st4"/><path d="M-574.4-4860.7h-461.8c-55.1,95.3-86.7,206-86.7,324s31.6,228.7,86.7,324h461.8V-4860.7z" class="st5"/><g><path d="M-2631.5-4747.5c-0.5-9.4-7.3-18.8-16.8-20.5c-12.8-2.4-26.1,10.1-24.6,23c-7.2-2.6-15.8-1.2-21.8,3.6 c-1.9,1.5-3.7,3.4-6.1,4c-2.1,0.5-4.4-0.1-6.5-0.6c-8.3-1.9-17.1-1.4-25.1,1.4c1.7-7.6,6.5-14.6,13-18.9c3.5-2.4,7.6-4,10.7-6.9 c6.7-6.1,7.7-17.5,2.2-24.6c4.4,4.6,12.4,4.9,17.1,0.8c4.7-4.2,5.4-12.2,1.4-17.1c2.7,3.3,18.8-7.8,20.9-9.7 c6.2-5.4,10.9-12.5,13.1-20.4c4.5-16.1-6.2-33.7-21.5-39.4c-12.3-4.6-27.1-1.4-36.5,7.8c-9.4,9.2-12.8,23.9-8.5,36.3 c-10-1.1-20.3,4.4-25,13.3c-4.7,8.9-3.3,20.5,3.2,28.1c-7,6.3-1,19.6-7.5,26.5c-3.1,3.3-8.4,4.2-10.5,8.2c-1.6,3-0.7,6.8-1.6,10.1 c-1.9,6.6-10,8.8-15.1,13.4c-5.2,4.7-7.1,12.8-4.6,19.3c2.5,6.6,9.3,11.2,16.3,11.3c-0.2,3.4-0.5,6.8-0.7,10.3 c-9.6-8.5-27-4.9-32.5,6.6s2.7,27.3,15.3,29.4c-1.5,10.5-3.1,21.1-4.6,31.6c-0.6,4.2-1.2,8.5-0.4,12.7c1.2,6.6,6.2,12.4,12.6,14.6 c6.3,2.2,13.8,0.8,18.9-3.6c5,10.1,19.1,14.4,28.8,8.8c9.8-5.6,13.1-20,6.9-29.3c-6.2-9.4-20.8-11.8-29.7-5c-2.9-3.4,0-8.9,4-10.8 c4-1.9,8.7-1.5,13-2.4c8.8-1.8,16.3-8.9,18.4-17.7c2.1-8.7-1.2-18.5-8.2-24.1c17-0.3,33.6-10.2,41.8-25.1 c5.4-9.7,7.5-21.3,14.6-30c9.3,9.2,27.2,6.4,33.3-5.2C-2632-4740.8-2631.3-4744.2-2631.5-4747.5z M-2748.2-4709.6 c0.5,0,0.9,0,1.4-0.1c0,0.3,0,0.6,0,1c0,0,0,0,0,0.1c-0.5,0-0.9-0.1-1.4-0.1c-0.1,0-0.3,0-0.4,0 C-2748.5-4709-2748.3-4709.3-2748.2-4709.6z M-2754.7-4676.1c-0.5-0.4-1-0.9-1.5-1.2c0.6,0.3,1.2,0.6,1.9,0.9 C-2754.4-4676.3-2754.6-4676.2-2754.7-4676.1z M-2701.9-4805.8c0-0.9-0.1-1.7-0.2-2.5c1.2,0.6,2.4,1,3.7,1.5 C-2699.6-4806.7-2700.8-4806.4-2701.9-4805.8z M-2757.3-4678c-0.8-0.4-1.7-0.8-2.7-1c-0.2-0.6-0.4-1.2-0.6-1.8 C-2759.6-4679.7-2758.5-4678.8-2757.3-4678z M-2734.5-4682.5c0.2-0.3,0.4-0.6,0.6-1c0.8,0.6,1.7,1.2,2.6,1.7 C-2732.3-4682.1-2733.3-4682.4-2734.5-4682.5z" class="st0"/><circle cx="-2660.3" cy="-4792" r="15.1" class="st0"/><circle cx="-2635.1" cy="-4633" r="5.3" class="st0"/><path d="M-2666.8-4656c-1.1,0-2,0.9-2,2s0.9,2,2,2c1.1,0,2-0.9,2-2S-2665.7-4656-2666.8-4656z" class="st0"/></g><g><path d="M-2098.2-4789.8c1.1,0,2.2,0.2,3.4,0.5c6,1.8,9.9,8.9,8.1,14.9c-1.8,6-8.9,9.9-14.9,8.1 C-2115.1-4770.2-2110.5-4790-2098.2-4789.8z" class="st2"/><path d="M-2134.2-4807.1c-0.7,0-1.3,0.6-1.3,1.3c0,0.7,0.6,1.3,1.3,1.3s1.3-0.6,1.3-1.3 C-2132.8-4806.5-2133.4-4807.1-2134.2-4807.1z" class="st2"/><circle cx="-2249.4" cy="-4623.7" r="7.9" class="st2"/><circle cx="-2240.3" cy="-4596.6" r="4.2" class="st2"/><ellipse cx="-2202.2" cy="-4587.5" class="st2" rx="9.1" ry="9.1" transform="matrix(0.7071 -0.7071 0.7071 0.7071 2598.8232 -2900.8701)"/><path d="M-2179.2-4678c-1.3,0-2.5,0.1-3.8,0.5c-0.8-5.4-4.2-10.4-9-13.2s-10.8-3.3-15.9-1.3c-2.4,0.9-5.8,2.1-7.2,0 c4.8-1,9-5,10-9.8c1-4.8-1.5-10.3-5.9-12.4c-12.5-6.1-23.7,15-10.8,21.3c-2.8-0.5-5.7-0.6-8.4,0.4s-4.9,3.4-5.1,6.2 c-0.3,3.3,2.2,6.4,5.3,7.8c3,1.4,6.5,1.5,9.8,1.6c-0.7,7.6,3.6,15.5,10.4,18.9c6.8,3.4,15.7,2.3,21.4-2.8c3,4.6,9.7,6.2,14.5,3.6 s7-9.1,4.8-14.1C-2170.9-4675.4-2175-4677.8-2179.2-4678z" class="st2"/><path d="M-2151.8-4810.3c-0.3-0.3-0.6-0.7-0.8-1.1c-0.8-1.4-0.8-3.1-0.9-4.7c-0.4-12.5-2.9-25.5-10.7-35.1 c-4.2-5.2-9.8-9.2-15.4-12.9c-6.3-4.3-12.8-8.4-19.3-12.4c-9.2-5.6-18.8-11.1-29.5-13c-10.6-1.9-22.6,0.4-29.9,8.3 c-9.5,10.2-8.7,26.1-5.5,39.7c-17,10.6-33.1,26.2-22,47.3c1,1.9,2.2,3.8,2.4,5.9c0.2,2.1-0.6,4.1-0.9,6.2 c-0.7,5.3,2.6,10.9,7.7,12.8c-12.3,7.7-20.2,21.9-20.2,36.4c0,4.1,0.6,8.3,1.2,12.4c1.1,7.8,2.2,15.6,3.3,23.5 c-10.2-0.6-20.2,7.1-22.3,17.1c-2.2,10.6,3.8,21.6,2.1,32.3c-0.9,5.8-4,11.1-5.1,16.9c-1.1,5.8,0.7,13,6.2,14.9 c-4.7,6.3-3.7,15.8,1.1,22c4.8,6.3,12.6,9.6,20.5,10.8c3.2,0.5,6.8,0.5,9.5-1.4c2.7-1.9,3.8-5.4,4.3-8.7c1.2-6.8,0.7-14-2.5-20.1 s-9.4-10.9-16.2-11.3c3.9-2.6,7.3-6.1,9.7-10.2c3.6,3.2,10.5,0.1,10.4-4.8s-7.1-7.7-10.6-4.4c-0.2-4,3.3-7.3,7-8.7 c3.7-1.4,7.8-1.6,11.6-2.9c7.2-2.4,12.8-8.9,14.1-16.3c1.4-7.4-1.6-15.5-7.4-20.3c9.2-6.2,12-20.1,5.9-29.4 c-0.3-4.7,5.1-7.7,9.7-8.6c4.7-0.8,10-0.9,13.3-4.2c4.1-4.1,3.1-11.1,0.1-16.1c1.3-0.9,2.6-1.9,3.9-2.8 c-1.8,5.2,1.7,11.6,7.1,12.9c5.4,1.3,11.4-2.7,12.2-8.2c0.5-3.2-0.6-6.5-2.4-9.2c-5.3-8-16.7-11.3-25.4-7.2 c-1.2-4.2-2.5-8.6-2.2-13c0.3-4.4,2.5-9,6.5-10.8c5.9-2.7,15,0.2,17.9-5.6c13.6,5.4,28.9,6.3,43,2.5c-1.2,4.7,2.6,9.7,7.3,10.8 s9.7-0.9,13.3-4.2c6.1-5.6,7.9-16.6,1.6-22C-2149.4-4808.5-2150.8-4809.2-2151.8-4810.3z M-2158.7-4810.1 c-0.2,0.1-0.5,0.1-0.7,0.2c0.1-0.2,0.2-0.4,0.3-0.6C-2159-4810.3-2158.8-4810.2-2158.7-4810.1z M-2249.9-4758.6 c2.1-0.2,4.1-0.8,5.9-1.8c-0.3,0.9-0.6,1.9-0.6,3c0,1.6,0.4,3.1,1.2,4.3c-1,0.3-1.9,0.8-2.8,1.4 C-2247-4754.2-2248.3-4756.5-2249.9-4758.6z M-2231.5-4828.3c0,0.1,0,0.2,0,0.2c0,0,0,0.1,0,0.1c-0.1-0.1-0.1-0.2-0.2-0.3 C-2231.6-4828.3-2231.6-4828.3-2231.5-4828.3z M-2168.1-4797.4c0,0.1,0,0.2,0,0.3c-0.1,0.1-0.1,0.1-0.2,0.2 C-2168.2-4797-2168.2-4797.2-2168.1-4797.4z" class="st2"/></g><g><circle cx="-1727.3" cy="-4800.9" r="7.8" class="st3"/><circle cx="-1763.5" cy="-4719.4" r="11" class="st3"/><circle cx="-1751.3" cy="-4628" r="16.1" class="st3"/><ellipse cx="-1731.6" cy="-4679.7" class="st3" rx="12.1" ry="12.1" transform="matrix(0.3827 -0.9239 0.9239 0.3827 3254.5247 -4488.5991)"/><circle cx="-1697.9" cy="-4790.7" r="10.3" class="st3"/><circle cx="-1672.9" cy="-4842" r="11.1" class="st3"/><path d="M-1705.6-4877.6c-4,0-7.9,1.1-11,3.7c-2.3,1.8-4.4,4.4-7.3,4.3c-2.3,0-4.2-1.8-6.1-3.2c-7.6-5.8-18.4-7-27-3 s-14.7,13-15.2,22.5c-10.6-0.6-20.7,9-20.7,19.7c0,2.8,0.6,5.6,0,8.3c-0.8,3.4-3.5,6.1-6,8.7c-8.3,8.8-14.5,19.6-18,31.2 c0,0-12.7,2.1-14,2.6c-4.9,1.7-9.5,4.2-13.6,7.2c-8.2,6.1-15.7,15.4-18.1,25.6c-4.8,20.2,8.7,43.3,26.4,52.5 c-8.4-0.1-16.4,6.1-18.4,14.3c-1.9,8.2,2.4,17.4,10,21c-5.7,9-7,20.7-3.6,30.8c-7.6-0.4-15.3,3.1-20,9.1s-6.2,14.3-4,21.6 c3.4,10.8,13.9,17.7,24.1,22.6c-14.6,1-26.7,16.1-24.3,30.6c2.4,14.5,18.6,25,32.8,21.3c5.1-1.3,9.8-4.2,14.9-5.6 c5.1-1.4,10.4-1.3,15.6-2.4s10.4-4,12.2-8.9c5.4,6.5,15.7,6,23.4,2.6c4.1-1.8,8.4-4.3,12.8-3.5c3.6,0.6,6.4,3.3,9.6,5 c10.7,5.5,25.7-2.9,26.5-14.9c7-0.3,13.8-4.7,16.9-11c3.2-6.3,2.6-14.3-1.3-20.1c5.7-1.1,9.9-7.6,8.5-13.2 c-1.4-5.7-8-9.5-13.6-7.8s-9.1,8.5-7.1,14c-6.4-1.7-13.2-3.1-19.5-1.4c-6.4,1.7-12.2,7.5-11.6,14.1c-5.8-4.1-6.4-12.5-11.4-17.5 c-6.6-6.5-19.8-2.9-22.1,6.1c-1.3,4.8,0.3,10-0.3,14.9c-0.5,5-5.1,10.3-9.7,8.5c-5.6-7.3-15.1-11.4-24.3-10.5 c4.5-10.2,9.1-20.4,13.6-30.6c0.8-1.7,1.5-3.4,3-4.6c1.4-1.2,3.3-1.7,5.1-2.2c14-4.2,26.6-12.6,35.9-23.9c3.2-3.8,6-8.3,6.2-13.3 c0.3-6.3-4.4-12.5-10.6-13.9c-6.2-1.4-13.1,2-15.7,7.8c-1.3,3-2,6.8-5.1,7.9c-4.1,1.4-7.1-3.5-9.4-7.2c-4.8-8-13.5-13.7-22.8-14.8 c1.2-6.2-0.1-12.9-3.6-18.2c5.8-5.2,15-1.8,21.7,2.1c6.8,3.9,15.2,8.3,21.9,4.2c4.2-2.5,6.2-8,5.1-12.8c-1.1-4.8-4.8-8.8-9.3-10.8 c9.7-11.6,13.8-27.7,10.9-42.6c7.1,5.1,16.6,6.4,24.8,3.5c2.9,8.2,11.6,14,20.3,13.4c8.7-0.5,16.6-7.3,18.5-15.8 c1-4.3,0.5-8.9-0.4-13.3c-3.5-16.8-16.1-33.6-33.2-34.1c4.6-4.9,5.2-13.1,1.3-18.5c-3.9-5.5-11.8-7.6-17.9-4.8 c1.1-5.8,8.9-7.5,14.4-5.5c5.5,2,10.1,6.2,15.7,7.8c5.7,1.6,13.4-1.5,13.2-7.3c5.4,5.3,15.1,5.4,20.5,0.1c5.4-5.3,5.6-15,0.4-20.5 c7.8-5.3,9.8-17.4,4.1-25C-1694.8-4875.2-1700.2-4877.5-1705.6-4877.6z M-1830.8-4573.4c-0.3-0.2-0.5-0.4-0.8-0.6 c0.7-0.1,1.4-0.2,2.1-0.4C-1830-4574.1-1830.4-4573.7-1830.8-4573.4z" class="st3"/></g><g><ellipse cx="-1275.2" cy="-4721.4" class="st4" rx="9" ry="9" transform="matrix(0.3827 -0.9239 0.9239 0.3827 3574.832 -4092.6987)"/><circle cx="-1261.2" cy="-4751.4" r="5" class="st4"/><path d="M-1366.1-4668.7c6.3,25.9,18.1-3.3,20.7-13.9c1.3-5.5,9.8-5.7,15.3-7.1c1.6,3.9,3.9,7.5,6.7,10.7 c-7.1,6.4-7.4,18.8-0.7,25.6c6.7,6.8,19.2,6.6,25.7-0.4c6.5-7,5.8-19.4-1.5-25.6c4.8-4.5,7.1-11.4,6-17.9s-5.8-12.2-11.8-14.7 c8.2-3.7,12.1-13.5,11.7-22.5c-0.5-9-4.5-17.3-8.5-25.3c6.3-1.8,8.6-10.3,5.8-16.2c-2.8-5.9-9-9.4-15.2-11.7 c-6.9-2.5-14.9-3.8-21.3-0.3c-5.9,3.3-9.1,9.9-11.5,16.2c-5,13.1-7.9,29,0.7,40c-3.7-4.7-19.9,9.7-21.8,12.3 c-5.6,7.6-6.9,18.1-4.6,27.2c1.3,4.9,4.3,9.5,8.9,11.5C-1360-4680.1-1366.5-4670.4-1366.1-4668.7z" class="st4"/><path d="M-1368.7-4611.9c5.4-0.1,10.8-2.9,13.7-7.5c4-6.4,2.7-15.5-2.8-20.6c6.6,0,12.8-5.1,14.1-11.6 c1.3-6.5-2.5-13.6-8.6-16.1c-6.1-2.5-13.8-0.2-17.5,5.2c-3.7,5.5-2.9,13.5,1.7,18.2c-5.5-5.6-29.5,22-6.7,31.3 C-1372.9-4612.2-1370.8-4611.9-1368.7-4611.9z" class="st4"/><circle cx="-1377.3" cy="-4592.6" r="20.8" class="st4"/><path d="M-1293.1-4572.6c-3.2-0.1-6.5,0.9-9,3c1.4-9.4,2.4-20.2-4-27.3c-6.5-7.3-17.8-7.3-27.4-5.4 c-7.1,1.4-14.4,3.6-19.3,8.9c-5.8,6.2-7.1,16.1-3.1,23.6c4,7.5,13,11.9,21.3,10.5c2.5-0.4,6.4,0.1,5.7,2.5 c-8.4-6-21.2,6.4-29.7,0.6c3.5-4.9,1.3-12.9-4.2-15.3c-11.1-4.9-20.3,11.9-9.6,18.4c-8.2,7.2-9.7,19.3-9.3,30.1 c0.2,5.3,0.8,10.8,4,15c5.3,7,17.4,7.1,22.7,0.1c2.8-3.7,4.1-8.8,8.1-11.1c3.3-1.8,7.3-1.1,11-1.4c11.1-0.9,19.9-13.1,17.3-23.9 c5.4-1,10.3-4.5,13-9.2c3.2,6.7,12.6,9.6,19,5.8c6.4-3.8,8.4-13.4,4.1-19.5C-1284.7-4570.6-1288.9-4572.5-1293.1-4572.6z" class="st4"/><circle cx="-1268.8" cy="-4559.4" r="7.7" class="st4"/><ellipse cx="-1227.4" cy="-4721.1" class="st4" rx="12.8" ry="12.8" transform="matrix(0.982 -0.1891 0.1891 0.982 870.6573 -317.2977)"/><circle cx="-1261.8" cy="-4766.1" r="9.7" class="st4"/><path d="M-1255.6-4838.2c-1.5-1.1-3-2.3-4.1-3.8c-3.7-4.9-2.8-11.7-3.2-17.9c-1.4-19.5-20.2-36-39.7-34.8 c-36.9,2.3-47.6,54.1-17.3,73.1c-7.7,4-10.9,14.7-6.6,22.2s15.1,10.4,22.4,5.9c7.4-4.5,9.8-15.4,5.1-22.6 c8.6-3.9,18.4-5.2,27.7-3.6c5.2,0.9,10.4,2.7,15.6,2s10.6-5,9.9-10.3C-1246.5-4832.8-1251.4-4835.2-1255.6-4838.2z" class="st4"/></g><radialGradient id="SVGID_1_" cx="1968.487" cy="60.906" r="1731.849" fx="1860.088" fy="77.696" gradientTransform="matrix(0.7528 0 0 1 217.0397 0)" gradientUnits="userSpaceOnUse"><stop offset=".008" style="stop-color:#f9ca77"/><stop offset=".1" style="stop-color:#ed6f4b"/><stop offset=".495" style="stop-color:#252027"/><stop offset=".608" style="stop-color:#272128"/><stop offset="1" style="stop-color:#0b191e"/></radialGradient><rect width="1860.3" height="559.3" x="-12.5" y="-4.1" class="st6"/><polygon points="9.5 28 -32.3 73.6 -19.3 126.8 -4.1 136.6 -47.5 162.6 -19 202.1 -47.5 212.6 -38.9 223.4 14.4 223.4 83.8 218 139.9 198.5 197.1 223.4 246.7 202.1 282.5 218 367.8 196.3 420.4 207.2 533.3 201.7 561.6 159.4 527.9 112.7 424.8 107.3 398.7 134.4 361.8 88.8 314 67.1 257 70.4 223.9 100.8 231.5 56.2 197.1 5.2 76.2 -35" class="st7"/><polygon points="1099.6 172 959.9 206.1 959.9 229.1 910.5 239.3 924.6 278.5 936.3 292.9 1198 272.4 1495.6 287.8 1643.1 286.3 1584 232 1471.9 225.2 1482 198.4 1431.7 107.7 1356.8 71.1 1259.9 114.1 1272 130.7 1251.6 136 1225.6 83.6 1146.9 77.7 1088.1 130.7" class="st7"/><polygon points="1409.2 234.4 1362.3 232.8 1345.4 253.3 1328.8 271.9 1297.3 276.5 1320.8 295.7 1358.2 296.8 1368.3 309 1416.5 309.8 1663.4 315 1675.7 301.6 1668 269.4 1645.2 278.4 1647.4 253.3 1624.7 234.6 1627 177.1 1618.4 141.9 1597.9 138.7 1572 173.2 1564.5 180.7 1535 147.1 1504.5 134.6 1440.3 159.2 1406.7 211.8 1415.1 229.5" class="st7"/><polygon points="965.9 221 1009.8 192.7 1027.8 206.8 1032.8 221 1162.5 221 1141.6 250.3 938 259 848.1 267.7 827.5 253.6 780.3 278.6 747.3 273.1 705.1 264.4 677.1 235.6 420 225.3 339.3 217.7 368.1 192.7 418 200.3 546 182.9 546 150.3 630.6 150.3 640.5 155.7 634.6 182.9 655 165.5 671.5 167.7 655 132.9 780.3 66.6 860.1 98.1 880.1 117.7 886.1 147 867.1 172.6 908 143.8 951.9 182.9 959.9 206.8 947.9 227.5" class="st7"/><g class="st8"><path d="M1928.5,313.9c0.7-44,67.3-90.3,43.9-124.4c-34.8-50.6-32.9,40.3-87.2,49.3c-42.2,7.1-113.8-1.4-150.7,24.3 c-24.3,16.9-153.5-46.6-177.8-29.7c-21.3,11.5-42.6,23-63.9,34.5c13.4-9,10.7-35.5-1.8-46.2c-12.4-10.7-29.5-9.5-44.4-5 c-11.7,3.5-23.2,8.9-33.1,17.1c-14.5,12-25.4,30.2-30.2,50.5c-6.9-2.9-13.7-5.7-20.6-8.6c12.4-15.1,4.6-43.4-11.3-52.6 c-15.9-9.2-35.3-3.5-50.5,7.4c-7.4,5.3-14.8,12.7-16.5,22.9c-1.8,10.2,5.2,22.5,13.7,20.6c-5.1,1.1-15.9-5.6-20.9-7.3 c-7.4-2.6-15-4.8-22.3-7.8c-12.8-5.4-24.3-14.7-36.8-21.2c-14-7.3-30.1-9.1-44.9-4c8.5-16.1-0.5-40.9-16.1-44.7 c-15.6-3.7-31.9,15-29.2,33.8c-23.6,0-47.1,6.1-68.6,17.8c-11.2-22.9-25.6-43.6-42.4-60.9c17.2,5.5,31.6-26.9,18.1-40.8 c-13.4-13.9-38.2,7.8-31.2,27.3c-72.5-36.6-159.7-28.4-226.6,21.1c-29.6,0.5-59.3,1-88.9,1.5c3.4-7.6-2.2-18.5-9.4-18.2 c-39.7,20-86.5,18.9-125.5-3c-6.2-3.5-12.3-7.5-19-8.6c-13-2.2-26.7,8.2-30.6,23.3c11.2-13,8.7-38.6-4.6-48.3 c-13.3-9.7-33.4-0.5-38,17.3c-44.1-33-101.8-38.6-149.7-14.5c-0.3-22.9-29.5-35.3-41.8-17.7c-38.7-12-77.3-24-116-36 c-6.7-2.1-13.8-4.2-20.5-2.1c-12.3,3.7-18.9,19.2-26.8,31.2s-23.7,21.1-32.5,10.2c6.1-8.1-5.5-20-14.4-17.9S43.2,115,34,115.2 c-8.3,0.2-15.5-6.1-22.8-10.6c-37.5-23.2-84.1-0.5-115.8,32.9c-43.3,45.6-71.7,113.8-67.6,182.6c3.7,62.1,34.7,120.9,79.9,151.8 S11,504.7,57.6,477c59.1,81.3,177.9,84.7,240.2,6.8c55.8,65.7,150.8,76.7,216.1,25c38,46.1,96.2,67.1,149.2,53.8 s99.2-60.4,118.6-121c42.8,76.1,133.9,106.8,203.6,68.5c39.6,83.3,133.7,122.4,208,86.5c84.4,69.4,196.5,88.2,293.6,49 c14.1-5.7,28-12.5,42.6-15.8c11.7-2.6,23.6-2.9,35.4-4.1c69.9-7.2,134.1-46.8,196.2-85.7c62.9-39.4,130.6-84.9,157-163.7 C1924.8,356.5,1928.2,335.3,1928.5,313.9z M765.1,265.3c-0.7-1.2-1.4-2.4-2.1-3.7c1.2-0.1,2.3-0.3,3.5-0.5 C766,262.5,765.5,263.9,765.1,265.3z M1405.8,275.4c0.7,1.5,1.6,3,2.5,4.4c-1.6,0.1-3.1,0.3-4.7,0.4 C1404.6,278.8,1405.3,277.2,1405.8,275.4z" class="st2"/><ellipse cx="640.1" cy="150.1" class="st2" rx="10.2" ry="12.2"/></g></g><g id="background_details"><linearGradient id="SVGID_2_" x1="917.888" x2="917.888" y1="670.906" y2="298.96" gradientUnits="userSpaceOnUse"><stop offset="0" style="stop-color:#272128"/><stop offset="0" style="stop-color:#272128"/><stop offset=".43" style="stop-color:#2b252c"/><stop offset="1" style="stop-color:#93989a"/></linearGradient><path d="M-12,283.7l395-39c0,0,381.7,36,447.2,39s379.4,66,433.7,54c54.2-12,173.3-24,192.8-30 c19.5-6,306.4-51,306.4-51l84.7,30v357.2H-12V283.7z" class="st9"/><linearGradient id="SVGID_3_" x1="917.832" x2="917.832" y1="676.906" y2="350.906" gradientUnits="userSpaceOnUse"><stop offset=".338" style="stop-color:#272128"/><stop offset="1" style="stop-color:#7f7b73"/></linearGradient><polygon points="-12.2 336.9 399.6 336.9 705.2 367.9 893.4 352.4 1084.6 352.4 1405.7 393.7 1656.8 336.9 1847.6 345.9 1847.9 644.2 -11.9 644.2" class="st10"/><path d="M-8.4,418.1l48.7,18.3l74.5-54l195.3,43.5l66.6,32.8l80.2-31.3l53.1-57h54.2h42.9l9,22.5l28.2-22.5l161.5,12 l71.1,22.5l51.9-25.5l236,3l135.8,52.9l129.5-2c0,0,131-28,135.5-28c4.5,0,204.8,20,204.8,20l80.9,33.4v184.8H-8.4V418.1z" class="st2"/><polygon points="40.5 222.7 40.5 219.6 45.4 215.6 57.4 216.9 60.5 219.6 59.3 222.3 63.1 224 68.1 224.8 72.5 221.1 78.7 223 79.7 224.8 78.7 225.7 97 225 100.6 227.2 81.9 228.1 66.5 229.7 58.8 231.4 48.6 229 42.9 230.3 44.3 234.2 36.8 237.5 30.1 237.5 27.5 234 27 232.6 20.1 232.8 12 233.8 7.6 232.4 16.4 231 18.5 228.9 26.7 222.8" class="st11"/><path d="M92.1,243.7l-3.5,0.4l1.8,2l-10.1,0.8l-2.2,0.9l21-0.9l12.8-0.4l12.4-1c0,0,5-1.5,5.1-1.6 c0.2,0,14.4-0.4,14.4-0.4l-3-1.3L129,242l-3.7,0.7l-1.3-1.4l-2.4-0.7l-5.9,0.3l-2-0.3l1.5-0.9l-3.9-2.8l-3.9,0.2l-2.7,0.1l-0.5,1.5 l-1-1.2l-2.9,0.1l-3.3,0.7l-4.6,2.1l1.6,2.6L92.1,243.7z" class="st11"/><path d="M792.3,257.4l-2.3,0.3l1.2,1.3l-6.6,0.5l-1.5,0.6l13.8-0.6l8.4-0.2l8.1-0.6c0,0,3.3-1,3.4-1s9.5-0.3,9.5-0.3 l-2-0.8l-7.6-0.1l-2.4,0.4l-0.8-0.9l-1.6-0.5l-3.9,0.2l-1.3-0.2l1-0.6l-2.5-1.9l-2.6,0.1l-1.8,0.1l-0.4,1l-0.6-0.8l-1.9,0.1 l-2.2,0.4l-3,1.4l1,1.7L792.3,257.4z" class="st11"/><polygon points="418.1 225 397.2 228.7 397.2 231.3 389.8 232.4 391.9 236.7 393.7 238.3 432.8 236 477.2 237.8 494.2 236.7 494.2 230.8 473.7 230.8 475.2 227.9 467.7 217.9 456.5 213.8 442 218.6 443.8 220.4 440.8 221 436.9 215.2 425.1 214.6 416.3 220.4" class="st11"/><polygon points="-1.5 236.2 1.3 239.4 7.6 237.8 3.9 235.6" class="st11"/><path d="M165.2,233.4l16.7-1.3l5.5-4.9l8.5-0.7h7.5l2.2,4.2l3.1-1.8c0,0,1.3,0,1.8,0.4c0.5,0.4,2.2,1.4,2.2,1.4 l11.7,1.3l-1.1,1.4l-35,1.8h-20.7L165.2,233.4z" class="st11"/><polygon points="650.6 238.5 641.8 238.7 638.9 241.4 636 243.8 630.1 244.6 634.8 246.8 641.9 246.7 644 248.1 653.2 247.9 700 246.7 702.1 244.9 700.2 241 696 242.3 696 239.1 691.4 237 691 229.8 688.8 225.5 684.9 225.2 680.5 229.7 679.2 230.7 673.1 226.8 667.2 225.4 655.4 229 649.8 235.7 651.7 237.9" class="st11"/><polygon points="307.6 233.8 312.4 231.7 314.4 232.7 315 233.8 329.3 233.8 327 236 304.5 236.6 294.6 237.3 292.3 236.2 287.1 238.1 283.4 237.7 278.7 237 275.7 234.9 247.2 234.1 238.3 233.5 241.5 231.7 247 232.2 261.2 230.9 261.2 228.5 270.5 228.5 271.6 228.9 271 230.9 273.2 229.6 275 229.8 273.2 227.2 287.1 222.2 295.9 224.6 298.1 226 298.7 228.2 296.6 230.2 301.2 228 306 230.9 306.9 232.7 305.6 234.3" class="st11"/><polygon points="767.9 245.2 772.7 243.1 774.7 244.1 775.3 245.2 789.6 245.2 787.3 247.4 764.8 248 754.9 248.7 752.6 247.6 747.4 249.5 743.7 249.1 739.1 248.4 736 246.3 707.5 245.5 698.6 244.9 701.8 243.1 707.3 243.6 721.5 242.3 721.5 239.9 730.8 239.9 731.9 240.3 731.3 242.3 733.5 241 735.3 241.2 733.5 238.6 747.4 233.6 756.2 236 758.4 237.4 759.1 239.6 757 241.6 761.5 239.4 766.3 242.3 767.2 244.1 765.9 245.7" class="st11"/><path d="M483.8,234.6l-6.6-7.4l9.5-8.4l19.1,1.7l3.1,2v2.5l10.8-0.9l3.7,4.2v2.4l1.6,0.9l5.3,0.4l1.8,2.1v1.9l2.1-0.9 l1.9-1.5l35.8,0.7c0,0,4.7-0.4,5.1-0.4s3.5,2.1,3.5,2.1l-2.4,1.3l-51.6,2l-2.3,2.4h-7.5l-4.7-2.6l-9.2-0.1l-34,1.2v-1.7l6.7-2.1 l3.4-2.1l3.4,1.2L483.8,234.6z" class="st11"/><polygon points="98.7 206.7 92.5 211.6 94.4 217.5 96.7 218.5 90.2 221.4 94.4 225.7 90.2 226.8 91.5 228 99.4 228 109.7 227.4 118 225.3 126.4 228 133.8 225.7 139.1 227.4 151.7 225 159.4 226.2 176.2 225.6 180.3 221 175.3 215.9 160.1 215.3 156.2 218.3 150.8 213.3 143.7 210.9 135.3 211.3 130.4 214.6 131.5 209.7 126.4 204.2 108.5 199.8" class="st11"/><polygon points="687.2 227.6 686.4 220.6 703.9 214 712.4 218.1 712.4 223.2 716.1 222.9 723.2 230.2 717.6 233 714 233.6 714.5 235.9 696.4 238.1 694.5 236.5 687.7 237 681 231.7 683.7 227.4" class="st11"/><polygon points="1747.8 226.4 1747.8 223.3 1742.9 219.3 1730.9 220.6 1727.8 223.3 1729 226 1725.2 227.7 1720.2 228.5 1715.8 224.8 1709.6 226.7 1708.6 228.5 1709.6 229.4 1691.3 228.7 1687.7 230.9 1706.4 231.8 1721.8 233.5 1729.5 235.1 1739.7 232.7 1745.4 234 1744 237.9 1751.5 241.2 1758.2 241.2 1760.8 237.7 1761.3 236.3 1768.2 236.5 1776.3 237.5 1780.7 236.1 1771.9 234.7 1769.8 232.6 1761.6 226.5" class="st11"/><path d="M1847.9,226.2l5,0.6l-2.5,2.8l14.4,1.2l3.2,1.2l-30.1-1.3l-18.3-0.5l-17.7-1.4c0,0-7.1-2.2-7.4-2.2 c-0.3-0.1-20.6-0.6-20.6-0.6l4.3-1.8l16.6-0.3l5.3,1l1.8-2.1l3.4-1l8.5,0.4l2.9-0.4l-2.1-1.3l5.5-4l5.6,0.3l3.8,0.2l0.8,2.2 l1.4-1.7l4.2,0.2l4.7,1l6.6,3l-2.3,3.7L1847.9,226.2z" class="st11"/><path d="M1139.1,227.5l3.9,0.4l-1.9,2.2l11.1,0.9l2.5,0.9l-23.2-1l-14.1-0.4l-13.7-1.1c0,0-5.5-1.7-5.7-1.7 c-0.2,0-15.9-0.4-15.9-0.4l3.3-1.4l12.8-0.2l4.1,0.7l1.4-1.6l2.6-0.8l6.6,0.3l2.3-0.3l-1.6-1l4.3-3.1l4.3,0.2l3,0.1l0.6,1.7 l1.1-1.3l3.2,0.1l3.7,0.7l5.1,2.3l-1.7,2.9L1139.1,227.5z" class="st11"/><polygon points="1475 231.5 1484.7 233.2 1484.7 234.4 1488.2 234.9 1487.2 237 1486.4 237.7 1468.1 236.6 1447.3 237.4 1439.4 237 1439.4 234.2 1449 234.2 1448.2 232.8 1451.8 228.1 1457 226.3 1463.8 228.5 1462.9 229.3 1464.3 229.6 1466.2 226.9 1471.7 226.6 1475.8 229.3" class="st11"/><polygon points="1789.8 239.9 1787 243.1 1780.7 241.5 1784.4 239.3" class="st11"/><path d="M1666.8,243.4l-6.7-0.5l-2.2-2l-3.4-0.3h-3l-0.9,1.7l-1.2-0.7c0,0-0.5,0-0.7,0.1c-0.2,0.1-0.9,0.6-0.9,0.6 l-4.7,0.5l0.5,0.6l14,0.7h8.3L1666.8,243.4z" class="st11"/><path d="M1506.1,236.9l-6.7-0.5l-2.2-2l-3.4-0.3h-3l-0.9,1.7l-1.2-0.7c0,0-0.5,0-0.7,0.1c-0.2,0.1-0.9,0.6-0.9,0.6 l-4.7,0.5l0.5,0.6l14,0.7h8.3L1506.1,236.9z" class="st11"/><path d="M1123.1,263.5l-8.4-0.7l-2.7-2.4l-4.3-0.4h-3.8l-1.1,2.1l-1.5-0.9c0,0-0.6,0-0.9,0.2 c-0.2,0.2-1.1,0.7-1.1,0.7l-5.9,0.7l0.6,0.7l17.5,0.9h10.4L1123.1,263.5z" class="st11"/><polygon points="1239.4 238.1 1248.3 238.2 1251.1 240.9 1254 243.3 1259.9 244.2 1255.2 246.4 1248.1 246.2 1246 247.7 1236.8 247.4 1190 246.2 1187.9 244.5 1189.8 240.5 1194 241.8 1194 238.7 1198.6 236.5 1199 229.4 1201.2 225 1205.1 224.8 1209.5 229.3 1210.8 230.3 1216.9 226.3 1222.8 225 1234.6 228.5 1240.2 235.3 1238.3 237.4" class="st11"/><polygon points="1521 239.5 1516.2 237.4 1514.2 238.5 1513.7 239.5 1499.3 239.5 1501.6 241.7 1524.1 242.4 1534.1 243 1536.3 242 1541.6 243.8 1545.2 243.4 1549.9 242.8 1553 240.6 1581.4 239.8 1590.3 239.3 1587.1 237.4 1581.6 238 1567.4 236.7 1567.4 234.2 1558.1 234.2 1557 234.6 1557.7 236.7 1555.4 235.4 1553.6 235.5 1555.4 232.9 1541.6 227.9 1532.7 230.3 1530.5 231.8 1529.9 234 1532 235.9 1527.4 233.7 1522.6 236.7 1521.7 238.5 1523 240" class="st11"/><polygon points="1029.6 253.8 1022.7 250.7 1019.9 252.2 1019.1 253.8 998.7 253.8 1002 256.9 1034 257.8 1048.1 258.7 1051.3 257.2 1058.7 259.9 1063.9 259.3 1070.5 258.4 1074.9 255.3 1115.3 254.2 1127.9 253.4 1123.4 250.7 1115.6 251.6 1095.5 249.7 1095.5 246.2 1082.2 246.2 1080.6 246.8 1081.6 249.7 1078.4 247.9 1075.8 248.1 1078.4 244.4 1058.7 237.3 1046.2 240.7 1043 242.8 1042.1 245.9 1045.1 248.6 1038.7 245.5 1031.8 249.7 1030.5 252.2 1032.4 254.4" class="st11"/><path d="M1334.7,251.5l6.6-6.5l-9.5-7.4l-19.1,1.5l-3.1,1.8v2.2l-10.8-0.8l-3.7,3.7v2.1l-1.6,0.8l-5.3,0.3l-1.8,1.9 v1.7l-2.1-0.8l-1.9-1.4l-35.8,0.6c0,0-4.7-0.3-5.1-0.3c-0.5,0-3.5,1.9-3.5,1.9l2.4,1.1l51.6,1.8l2.3,2.1h7.5l4.7-2.3l9.2-0.1l34,1 v-1.5l-6.7-1.9l-3.4-1.9l-3.4,1L1334.7,251.5z" class="st11"/><polygon points="1689.6 210.4 1695.8 215.4 1693.9 221.2 1691.7 222.2 1698.1 225.1 1693.9 229.4 1698.1 230.5 1696.8 231.7 1688.9 231.7 1678.6 231.1 1670.3 229 1661.9 231.7 1654.6 229.4 1649.3 231.1 1636.6 228.8 1628.9 229.9 1612.2 229.4 1608 224.7 1613 219.6 1628.2 219 1632.1 222 1637.5 217 1644.6 214.6 1653 215 1657.9 218.3 1656.8 213.5 1661.9 207.9 1679.8 203.5" class="st11"/><polygon points="1194.5 238.2 1195 234 1184.3 230 1179.1 232.4 1179.1 235.5 1176.9 235.4 1172.6 239.8 1176 241.5 1178.1 241.9 1177.8 243.3 1188.9 244.7 1190.1 243.6 1194.2 244 1198.2 240.8 1196.6 238.2" class="st11"/><polygon points="1452 230.9 1452.5 226.6 1441.8 222.6 1436.7 225.1 1436.7 228.2 1434.4 228.1 1430.1 232.5 1433.5 234.2 1435.7 234.6 1435.4 235.9 1446.5 237.3 1447.6 236.3 1451.7 236.7 1455.8 233.4 1454.2 230.8" class="st11"/></g></svg>