<?xml version="1.0" encoding="UTF-8" standalone="no"?>
<!DOCTYPE svg PUBLIC "-//W3C//DTD SVG 1.1//EN" "http://www.w3.org/Graphics/SVG/1.1/DTD/svg11.dtd">
<svg width="100%" height="100%" viewBox="0 0 600 300" version="1.1" xmlns="http://www.w3.org/2000/svg" xmlns:xlink="http://www.w3.org/1999/xlink" xml:space="preserve" xmlns:serif="http://www.serif.com/" style="fill-rule:evenodd;clip-rule:evenodd;stroke-linejoin:round;stroke-miterlimit:2;">
    <g id="Great-Sex-Tips" serif:id="Great Sex Tips">
        <g transform="matrix(1,0,0,1,2.92969,137.953)">
            <g>
                <g transform="matrix(1,0,0,1,-259.5,-41)">
                    <path d="M331.6,143.4L329.7,143.4C328.8,143.4 327.6,143.6 326.1,143.9C324.6,144.2 322.9,144.8 320.9,145.5C320.1,145.8 319.1,146.1 318.1,146.4C317.1,146.7 316,146.9 315,147.1C313.9,147.3 312.9,147.4 311.8,147.5C310.7,147.6 309.8,147.7 308.9,147.7C305,147.7 301.5,147.1 298.3,145.9C295.1,144.7 292.4,143 290.2,140.7C288,138.4 286.3,135.7 285,132.5C283.8,129.3 283.2,125.6 283.2,121.5C283.2,118.9 283.5,116.2 284,113.5C284.5,110.8 285.3,108.3 286.4,105.8C287.5,103.3 288.8,101.1 290.5,98.9C292.1,96.8 294,94.9 296.2,93.3C298.4,91.7 300.8,90.5 303.6,89.6C306.3,88.7 309.4,88.3 312.7,88.3C314.1,88.3 315.6,88.4 317.1,88.6C318.6,88.8 320,89.1 321.5,89.5C322.9,89.9 324.3,90.3 325.6,90.9C326.9,91.4 328.1,92.1 329.2,92.7L329,88.8L333.5,88.8L332.5,107.3L329.6,107.3C329.5,104.8 329.1,102.5 328.2,100.5C327.3,98.5 326.2,96.9 324.7,95.5C323.2,94.1 321.5,93.1 319.5,92.4C317.5,91.7 315.3,91.4 313,91.4C311,91.4 309.1,91.7 307.2,92.3C305.3,92.9 303.6,93.8 301.9,95C300.3,96.2 298.8,97.6 297.4,99.2C296,100.9 294.9,102.7 293.9,104.8C292.9,106.9 292.2,109.1 291.6,111.5C291.1,113.9 290.8,116.5 290.8,119.2C290.8,122.8 291.3,126 292.3,129C293.3,132 294.7,134.5 296.4,136.7C298.1,138.9 300.3,140.5 302.8,141.7C305.3,142.9 308.1,143.5 311.1,143.5C312.2,143.5 313.3,143.4 314.5,143.3C315.7,143.1 316.9,142.9 318.1,142.6C319.3,142.3 320.5,141.9 321.7,141.4C322.9,140.9 324,140.3 325.1,139.6L326,121.9L320.3,122.2L320.5,118.7L338.6,118.7L338.4,121.3C337.4,121.3 336.5,121.5 335.8,121.9C335.1,122.3 334.5,122.8 334.1,123.4C333.7,124 333.3,124.7 333,125.4C332.7,126.1 332.5,126.8 332.4,127.6C332.3,128.3 332.2,129 332.1,129.6C332.1,130.2 332,130.7 332,131.1L331.6,143.4Z" style="fill:rgb(255,62,62);fill-rule:nonzero;"/>
                </g>
                <g transform="matrix(1,0,0,1,-259.5,-41)">
                    <path d="M369.8,110.1C369.6,110 369.5,110 369.3,110L368.9,110C367.7,110 366.5,110.5 365.4,111.6C364.3,112.6 363.2,114 362.1,115.7C361.1,117.4 360.1,119.4 359.2,121.7C358.3,124 357.6,126.3 357,128.7C356.4,131.1 355.9,133.6 355.5,136C355.1,138.4 355,140.7 355,142.8L355,144.6C355,144.9 355,145.1 355.1,145.4C355.1,145.7 355.2,145.9 355.2,146.3L348.5,146.3C348.4,145.7 348.4,145.3 348.4,145.1L348.4,142.8C348.4,141.9 348.5,140.9 348.5,139.6C348.5,138.3 348.7,136.7 348.9,134.8C349.1,132.9 349.3,130.5 349.6,127.7C349.8,125.6 350,123.8 350.2,122.4C350.4,121 350.5,119.7 350.6,118.8C350.7,117.9 350.8,117 350.9,116.5C351,115.9 351,115.4 351.1,115C351.2,114.6 351.2,114.2 351.2,113.9L351.2,112.8C351.2,112.3 351.2,111.9 351.1,111.5C351,111.1 350.9,110.7 350.8,110.4C350.6,110.1 350.4,109.8 350.1,109.6C349.8,109.4 349.4,109.3 349,109.3C348.6,109.3 348.1,109.4 347.6,109.7C347.1,110 346.6,110.4 346,111C345.4,111.6 344.9,112.4 344.4,113.4C343.9,114.4 343.5,115.6 343.1,117L340.8,116.5C341,115.6 341.3,114.4 341.8,113.1C342.3,111.8 343,110.5 343.9,109.3C344.8,108.1 345.8,107.1 347,106.3C348.2,105.5 349.6,105.1 351.2,105.1C352.3,105.1 353.2,105.3 354,105.7C354.8,106.1 355.4,106.6 355.8,107.3C356.3,108 356.6,108.8 356.8,109.8C357,110.8 357.1,111.9 357.1,113C357.1,114.4 357,115.9 356.8,117.6C356.6,119.2 356.3,121 355.9,122.8L356.1,122.8C357.3,119.3 358.5,116.4 359.7,114.1C360.9,111.8 362.2,110 363.5,108.7C364.8,107.4 366.1,106.4 367.4,105.9C368.7,105.4 370,105.1 371.4,105.1C372.2,105.1 373,105.2 373.7,105.4C374.4,105.6 375,105.9 375.5,106.3C376,106.7 376.4,107.2 376.7,107.8C377,108.4 377.1,109 377.1,109.7C377.1,110.2 377,110.6 376.8,111.1C376.6,111.6 376.4,112 376.1,112.3C375.8,112.7 375.4,112.9 374.9,113.2C374.4,113.4 373.9,113.5 373.3,113.5C372.3,113.5 371.5,113.2 370.8,112.7C370.3,112.1 369.9,111.2 369.8,110.1Z" style="fill:rgb(255,62,62);fill-rule:nonzero;"/>
                </g>
                <g transform="matrix(1,0,0,1,-259.5,-41)">
                    <path d="M410.4,114.2C410.4,115.7 410,117.1 409.3,118.3C408.6,119.5 407.6,120.6 406.4,121.5C405.2,122.4 403.8,123.3 402.2,124C400.6,124.7 398.9,125.3 397.2,125.9C395.4,126.4 393.6,126.9 391.8,127.2C390,127.5 388.2,127.8 386.5,128C386.5,133.1 387.3,136.9 388.8,139.4C390.3,141.9 392.6,143.2 395.8,143.2C397,143.2 398.2,143 399.4,142.6C400.6,142.2 401.8,141.6 402.9,140.8C404,140 405.1,139 406.2,137.8C407.3,136.6 408.2,135.1 409.1,133.4L411.7,134.9C409.4,139.1 406.9,142.3 404.1,144.2C401.3,146.2 398.1,147.2 394.4,147.2C391.8,147.2 389.6,146.8 387.7,145.9C385.8,145.1 384.3,143.9 383,142.3C381.8,140.8 380.8,138.9 380.3,136.8C379.7,134.7 379.4,132.3 379.4,129.6C379.4,127.5 379.6,125.5 379.9,123.4C380.3,121.4 380.8,119.4 381.5,117.6C382.2,115.8 383.1,114.1 384.2,112.5C385.3,110.9 386.6,109.6 388,108.4C389.5,107.3 391.1,106.4 392.9,105.7C394.7,105.1 396.8,104.7 399,104.7C400.4,104.7 401.8,104.9 403.2,105.2C404.6,105.5 405.8,106.1 406.8,106.8C407.9,107.5 408.7,108.5 409.3,109.7C410.1,111 410.4,112.5 410.4,114.2ZM398,107.7C396.1,107.7 394.5,108.2 393.2,109.2C391.8,110.2 390.7,111.5 389.8,113.1C388.9,114.7 388.2,116.6 387.7,118.7C387.2,120.8 386.9,122.9 386.7,125.1C388.8,124.8 390.9,124.4 393,123.8C395,123.2 396.9,122.4 398.5,121.5C400.1,120.6 401.4,119.5 402.4,118.2C403.4,116.9 403.9,115.5 403.9,114C403.9,113.1 403.8,112.3 403.5,111.6C403.3,110.8 402.9,110.2 402.4,109.6C401.9,109 401.3,108.6 400.6,108.3C399.8,107.8 398.9,107.7 398,107.7Z" style="fill:rgb(255,62,62);fill-rule:nonzero;"/>
                </g>
                <g transform="matrix(1,0,0,1,-259.5,-41)">
                    <path d="M452.3,106.3C451.9,109.6 451.4,112.9 451,116.3C450.6,119.6 450.2,122.7 449.9,125.7C449.6,128.6 449.3,131.2 449.1,133.5C448.9,135.8 448.8,137.5 448.8,138.8L448.8,140.4C448.8,140.9 448.9,141.4 449.1,141.8C449.3,142.2 449.5,142.6 449.8,142.8C450.1,143.1 450.5,143.2 451.1,143.2C451.5,143.2 452,143.1 452.5,142.8C453,142.5 453.5,142.1 454.1,141.5C454.6,140.9 455.1,140.1 455.6,139.1C456.1,138.1 456.5,136.9 456.9,135.5L459.2,136C459,136.9 458.7,138.1 458.2,139.4C457.7,140.7 457,142 456.1,143.2C455.2,144.4 454.2,145.4 452.9,146.2C451.7,147 450.2,147.4 448.6,147.4C447.5,147.4 446.6,147.2 445.8,146.9C445,146.5 444.4,146.1 443.9,145.4C443.4,144.8 443.1,144 442.9,143.1C442.7,142.2 442.6,141.2 442.6,140.1C442.6,138.6 442.7,136.9 443,135.1C443.3,133.3 443.6,131.3 444,129.3L443.8,129.3C443,132 442.1,134.3 441.2,136.2C440.3,138.1 439.4,139.8 438.5,141.1C437.6,142.4 436.6,143.5 435.7,144.4C434.8,145.2 433.9,145.9 433,146.3C432.1,146.8 431.3,147.1 430.4,147.2C429.6,147.4 428.8,147.4 428,147.4C426.6,147.4 425.2,147.1 423.9,146.6C422.6,146.1 421.6,145.3 420.6,144.2C419.7,143.1 419,141.6 418.4,139.8C417.9,138 417.6,135.8 417.6,133.3C417.6,129.5 418.1,125.9 419.1,122.5C420.1,119.1 421.6,116.1 423.5,113.5C425.5,110.9 427.9,108.9 430.9,107.4C433.9,105.9 437.3,105.1 441.3,105.1C443,105.1 444.7,105.2 446.7,105.5C448.7,105.5 450.5,105.9 452.3,106.3ZM445.2,108.8C444.4,108.5 443.4,108.2 442.4,108C441.3,107.8 440.2,107.8 438.9,107.8C436.4,107.8 434.3,108.5 432.5,109.9C430.7,111.3 429.2,113.1 428,115.3C426.8,117.6 426,120.1 425.4,123C424.8,125.9 424.5,128.8 424.5,131.8C424.5,133.5 424.6,135.1 424.8,136.6C425,138.1 425.3,139.3 425.7,140.4C426.1,141.5 426.7,142.3 427.3,142.9C427.9,143.5 428.8,143.8 429.8,143.8C431,143.8 432.3,143.3 433.5,142.2C434.7,141.1 435.9,139.7 437,138C438.1,136.2 439.2,134.2 440.2,131.8C441.2,129.5 442,127 442.8,124.4C443.5,121.8 444.1,119.2 444.5,116.5C445,113.8 445.2,111.2 445.2,108.8Z" style="fill:rgb(255,62,62);fill-rule:nonzero;"/>
                </g>
                <g transform="matrix(1,0,0,1,-259.5,-41)">
                    <path d="M461.2,105.8C464.5,105.8 467.2,104.8 469.1,102.8C471.1,100.8 472.6,98 473.6,94.3L476.7,94.3L475.2,105.7L488.1,105.7L487.9,108.7L474.9,108.9C474.7,111.2 474.4,113.5 474.1,115.9C473.8,118.3 473.6,120.7 473.3,123.1C473.1,125.5 472.9,127.7 472.7,129.9C472.5,132.1 472.5,134.1 472.5,135.9C472.5,136.7 472.5,137.5 472.6,138.3C472.7,139.1 472.8,139.9 473.1,140.6C473.4,141.3 473.7,141.8 474.2,142.3C474.7,142.7 475.4,143 476.3,143C476.7,143 477.2,142.9 477.7,142.8C478.3,142.7 478.9,142.4 479.5,142.1C480.1,141.8 480.9,141.1 481.6,140.4C482.3,139.6 483.1,138.6 483.9,137.3L486,138.7C485.2,140.1 484.4,141.3 483.6,142.4C482.8,143.4 481.9,144.3 481,145C480.1,145.7 479.1,146.2 478,146.6C476.9,147 475.7,147.1 474.4,147.1C472.8,147.1 471.5,146.8 470.4,146.3C469.3,145.8 468.5,145.1 467.8,144.2C467.2,143.3 466.7,142.3 466.4,141.1C466.1,139.9 466,138.7 466,137.5C466,136 466,134.2 466.1,132.1C466.2,130 466.3,127.8 466.5,125.3C466.7,122.8 466.9,120.2 467.2,117.5C467.5,114.7 467.8,111.9 468.1,109L460.9,109.1L461.2,105.8Z" style="fill:rgb(255,62,62);fill-rule:nonzero;"/>
                </g>
                <g transform="matrix(1,0,0,1,-259.5,-41)">
                    <path d="M518,146.9L513.8,146.9L514.2,129.7L517.4,129.7C517.4,132.2 517.8,134.4 518.6,136.2C519.4,138 520.4,139.5 521.8,140.7C523.1,141.9 524.7,142.8 526.6,143.3C528.4,143.9 530.4,144.2 532.6,144.2C534.2,144.2 535.8,144 537.3,143.5C538.8,143 540.1,142.4 541.3,141.4C542.4,140.5 543.4,139.4 544,138.1C544.7,136.8 545,135.3 545,133.5C545,131.6 544.6,130 543.8,128.6C543,127.2 541.9,126 540.5,124.9C539.1,123.8 537.6,122.8 535.8,122C534.1,121.1 532.3,120.3 530.5,119.4C528.7,118.5 526.9,117.6 525.2,116.7C523.5,115.8 521.9,114.7 520.5,113.5C519.1,112.3 518,110.9 517.2,109.3C516.4,107.7 516,105.8 516,103.7C516,102.8 516.1,101.8 516.3,100.7C516.5,99.6 516.8,98.5 517.3,97.3C517.8,96.2 518.5,95.1 519.3,94C520.1,92.9 521.2,92 522.5,91.1C523.8,90.3 525.3,89.6 527,89.1C528.8,88.6 530.8,88.3 533.1,88.3C534.1,88.3 535.2,88.4 536.4,88.5C537.6,88.6 538.8,88.9 540,89.2C541.2,89.5 542.4,89.9 543.6,90.5C544.8,91 545.9,91.7 547,92.5L546.9,89.1L551,89.1L550.1,106.8L547,106.8C547,104.8 546.7,103 546.2,101.1C545.7,99.3 544.8,97.6 543.7,96.2C542.6,94.8 541.2,93.7 539.5,92.8C537.8,91.9 535.7,91.5 533.4,91.5C531.7,91.5 530.1,91.8 528.7,92.3C527.3,92.9 526.2,93.6 525.2,94.5C524.3,95.4 523.5,96.5 523,97.7C522.5,98.9 522.2,100.2 522.2,101.6C522.2,103.3 522.6,104.9 523.5,106.1C524.3,107.4 525.5,108.5 526.8,109.5C528.2,110.5 529.8,111.4 531.5,112.3C533.2,113.2 535.1,114 536.9,114.9C538.7,115.8 540.5,116.7 542.3,117.6C544.1,118.6 545.6,119.7 547,121C548.4,122.3 549.5,123.7 550.3,125.4C551.1,127.1 551.6,129 551.6,131.2C551.6,133.6 551.2,135.8 550.3,137.7C549.4,139.7 548.1,141.4 546.4,142.8C544.7,144.2 542.6,145.4 540.2,146.2C537.7,147 534.9,147.4 531.8,147.4C530.8,147.4 529.6,147.3 528.4,147.2C527.2,147.1 525.9,146.9 524.7,146.6C523.4,146.3 522.2,146 521,145.5C519.8,145.1 518.7,144.5 517.6,143.8L518,146.9Z" style="fill:rgb(255,62,62);fill-rule:nonzero;"/>
                </g>
                <g transform="matrix(1,0,0,1,-259.5,-41)">
                    <path d="M590,114.2C590,115.7 589.6,117.1 588.9,118.3C588.2,119.5 587.2,120.6 586,121.5C584.8,122.4 583.4,123.3 581.8,124C580.2,124.7 578.5,125.3 576.8,125.9C575,126.4 573.2,126.9 571.4,127.2C569.6,127.5 567.8,127.8 566.1,128C566.1,133.1 566.9,136.9 568.4,139.4C569.9,141.9 572.2,143.2 575.4,143.2C576.6,143.2 577.8,143 579,142.6C580.2,142.2 581.4,141.6 582.5,140.8C583.6,140 584.7,139 585.8,137.8C586.9,136.6 587.8,135.1 588.7,133.4L591.3,134.9C589,139.1 586.5,142.3 583.7,144.2C580.9,146.2 577.7,147.2 574,147.2C571.4,147.2 569.2,146.8 567.3,145.9C565.4,145.1 563.9,143.9 562.6,142.3C561.4,140.8 560.4,138.9 559.9,136.8C559.3,134.7 559,132.3 559,129.6C559,127.5 559.2,125.5 559.5,123.4C559.9,121.4 560.4,119.4 561.1,117.6C561.8,115.8 562.7,114.1 563.8,112.5C564.9,110.9 566.2,109.6 567.6,108.4C569.1,107.3 570.7,106.4 572.5,105.7C574.3,105.1 576.4,104.7 578.6,104.7C580,104.7 581.4,104.9 582.8,105.2C584.2,105.5 585.4,106.1 586.4,106.8C587.5,107.5 588.3,108.5 588.9,109.7C589.6,111 590,112.5 590,114.2ZM577.5,107.7C575.6,107.7 574,108.2 572.7,109.2C571.4,110.2 570.2,111.5 569.3,113.1C568.4,114.7 567.7,116.6 567.2,118.7C566.7,120.8 566.4,122.9 566.2,125.1C568.3,124.8 570.4,124.4 572.5,123.8C574.5,123.2 576.4,122.4 578,121.5C579.6,120.6 580.9,119.5 581.9,118.2C582.9,116.9 583.4,115.5 583.4,114C583.4,113.1 583.3,112.3 583,111.6C582.8,110.8 582.4,110.2 581.9,109.6C581.4,109 580.8,108.6 580.1,108.3C579.3,107.8 578.5,107.7 577.5,107.7Z" style="fill:rgb(255,62,62);fill-rule:nonzero;"/>
                </g>
                <g transform="matrix(1,0,0,1,-259.5,-41)">
                    <path d="M618.6,126.3C621.4,133.1 623.3,137.1 624,138.4C624.8,139.7 625.5,140.7 626.2,141.3C626.9,141.9 627.6,142.2 628.2,142.2C630.1,142.2 631.5,140.1 632.3,135.8L634.6,136.1C634.4,137.5 634.1,138.9 633.8,140.2C633.4,141.5 633,142.7 632.3,143.7C631.7,144.7 630.9,145.6 629.9,146.2C628.9,146.8 627.8,147.1 626.5,147.1C625.6,147.1 624.8,147 624.1,146.8C623.4,146.6 622.7,146.3 622.1,145.8C621.5,145.3 620.9,144.7 620.3,143.9C619.7,143.1 619.1,142 618.4,140.8C617.8,139.5 617.1,138 616.3,136.2C615.5,134.4 614.7,132.3 613.8,129.9L613.7,129.9C612.3,133.9 611,137 609.8,139.3C608.6,141.6 607.4,143.3 606.2,144.5C605.1,145.7 603.9,146.4 602.9,146.7C601.8,147 600.8,147.2 599.8,147.2C598.2,147.2 597,146.8 596.1,146.1C595.2,145.3 594.8,144.3 594.8,143.1C594.8,141.9 595.1,141 595.8,140.3C596.4,139.6 597.2,139.3 598.1,139.3C598.7,139.3 599.2,139.4 599.6,139.6C600,139.8 600.3,140.1 600.5,140.4C600.7,140.7 600.9,141.1 601,141.5C601.1,141.9 601.2,142.3 601.2,142.6C601.3,142.6 601.4,142.6 601.5,142.7L601.8,142.7C602.5,142.7 603.3,142.4 604.1,141.8C604.9,141.2 605.7,140.2 606.6,138.9C607.5,137.6 608.4,135.8 609.3,133.7C610.3,131.6 611.3,129 612.3,125.9C609.8,119.1 608.3,115 607.7,113.7C607.1,112.4 606.6,111.4 606,110.8C605.4,110.2 604.8,109.9 604.1,109.9C603.6,109.9 603.2,110 602.7,110.3C602.2,110.5 601.8,111 601.4,111.5C601,112 600.7,112.9 600.5,114C600.2,115 600.1,116.4 600,117.9L597.7,118C597.7,117.3 597.7,116.4 597.8,115.5C597.9,114.6 598,113.6 598.3,112.7C598.5,111.7 598.9,110.8 599.2,109.9C599.6,109 600.1,108.2 600.8,107.4C601.5,106.6 602.2,106.1 603.1,105.7C604,105.3 605,105 606.3,105C607.7,105 608.9,105.3 609.9,106C610.8,106.7 611.7,107.7 612.4,109.1C613.1,110.4 613.8,112.1 614.4,114.1C615,116.1 615.8,118.4 616.7,120.9L616.8,120.9C618.2,117.4 619.6,114.6 621,112.5C622.4,110.4 623.7,108.8 624.9,107.7C626.1,106.6 627.3,105.9 628.3,105.5C629.3,105.2 630.2,105 631,105C632.4,105 633.5,105.4 634.3,106.1C635.1,106.9 635.4,107.8 635.4,108.9C635.4,109.4 635.3,109.8 635.1,110.2C634.9,110.6 634.7,111 634.4,111.3C634.1,111.6 633.7,111.9 633.4,112.1C633,112.3 632.6,112.4 632.1,112.4C631.5,112.4 631,112.3 630.6,112.1C630.2,111.9 629.8,111.7 629.5,111.4C629.2,111.1 629,110.9 628.8,110.6C628.6,110.3 628.5,110.1 628.4,109.9C627.8,110 627.2,110.3 626.5,110.8C625.8,111.3 625,112.1 624.2,113.2C623.3,114.3 622.4,115.8 621.4,117.7C620.4,119.6 619.3,121.9 618.2,124.8L618.6,126.3Z" style="fill:rgb(255,62,62);fill-rule:nonzero;"/>
                </g>
                <g transform="matrix(1,0,0,1,-259.5,-41)">
                    <path d="M706.7,106.7L706.7,104.7C706.7,102.6 706.6,100.8 706.3,99.3C706,97.8 705.5,96.5 704.7,95.5C703.9,94.5 702.9,93.7 701.7,93.2C700.4,92.7 698.8,92.5 696.9,92.5L690,92.6L687.4,136.7C687.3,138.2 687.2,139.5 687.1,140.5C687,141.5 686.9,142.4 686.8,143.1L693.5,142.8L693.3,146.3L674.6,146.3L674.8,143.7C676.1,143.6 677.1,143.4 677.9,142.8C678.7,142.3 679.2,141.6 679.6,140.7C680,139.8 680.3,138.8 680.4,137.6C680.5,136.4 680.7,135.1 680.7,133.8L683.2,92.7L674.9,92.7C673.2,92.7 671.7,93 670.5,93.5C669.3,94.1 668.3,94.9 667.5,96.1C666.7,97.3 666.1,98.7 665.7,100.5C665.3,102.3 665,104.3 664.9,106.7L661.9,106.7L663.3,89.6L710.2,89.6L709.8,106.7L706.7,106.7Z" style="fill:rgb(255,62,62);fill-rule:nonzero;"/>
                </g>
                <g transform="matrix(1,0,0,1,-259.5,-41)">
                    <path d="M728.1,113.3C728.1,114.9 727.9,116.8 727.6,118.9C727.3,121 726.9,123.2 726.5,125.5C726.1,127.8 725.7,130.2 725.4,132.6C725.1,135 724.9,137.4 724.9,139.6C724.9,140.7 725.1,141.5 725.5,142.1C725.9,142.7 726.5,143 727.4,143C727.8,143 728.3,142.9 728.8,142.6C729.3,142.3 729.8,141.9 730.4,141.3C730.9,140.7 731.4,139.9 731.9,138.9C732.4,137.9 732.8,136.7 733.2,135.3L735.5,135.8C735.3,136.9 734.9,138.2 734.4,139.5C733.9,140.8 733.2,142.1 732.4,143.2C731.6,144.3 730.6,145.3 729.5,146.1C728.4,146.9 727,147.2 725.5,147.2C720.6,147.2 718.2,144.7 718.2,139.6C718.2,137.3 718.4,135 718.7,132.7C719,130.5 719.4,128.2 719.8,126C720.2,123.8 720.6,121.6 720.9,119.4C721.2,117.2 721.4,114.9 721.4,112.6C721.4,112.3 721.4,111.9 721.3,111.5C721.2,111.1 721.1,110.7 721,110.3C720.8,109.9 720.6,109.6 720.3,109.4C720,109.1 719.6,109 719.2,109C718.8,109 718.3,109.1 717.8,109.4C717.3,109.7 716.8,110.1 716.2,110.7C715.7,111.3 715.1,112.1 714.6,113.1C714.1,114.1 713.7,115.3 713.3,116.7L711,116.2C711.2,115.3 711.5,114.1 712,112.8C712.5,111.5 713.1,110.2 714,109C714.8,107.8 715.8,106.8 717,106C718.2,105.2 719.6,104.8 721.2,104.8C722.3,104.8 723.3,105 724.2,105.4C725.1,105.8 725.8,106.4 726.3,107.1C726.9,107.8 727.3,108.7 727.6,109.7C728,110.9 728.1,112.1 728.1,113.3ZM730.2,92.1C730.2,92.8 730.1,93.4 729.8,94C729.6,94.6 729.2,95 728.9,95.4C728.5,95.8 728,96.1 727.5,96.3C727,96.5 726.4,96.6 725.8,96.6C725.2,96.6 724.6,96.5 724.1,96.3C723.6,96.1 723.1,95.8 722.7,95.4C722.3,95 722,94.5 721.8,94C721.6,93.4 721.5,92.8 721.5,92.1C721.5,91.4 721.6,90.8 721.9,90.2C722.1,89.6 722.5,89.1 722.9,88.7C723.3,88.3 723.8,88 724.3,87.8C724.8,87.6 725.4,87.5 726,87.5C727.3,87.5 728.3,87.9 729.1,88.7C729.8,89.5 730.2,90.7 730.2,92.1Z" style="fill:rgb(255,62,62);fill-rule:nonzero;"/>
                </g>
                <g transform="matrix(1,0,0,1,-259.5,-41)">
                    <path d="M751,157.1C750.9,158.2 750.8,159.4 750.8,160.6C750.7,161.8 750.6,162.9 750.3,163.8L755.4,163.6L755.4,166.9L740.1,166.9L740.1,164.5C741.2,164.5 742.1,164.2 742.7,163.6C743.3,163 743.8,162.2 744.1,161.2C744.4,160.2 744.6,159 744.7,157.6C744.8,156.2 744.9,154.7 745.1,153.2C745.3,150.1 745.6,147.1 745.9,144.1C746.2,141.1 746.4,138.3 746.7,135.6C747,132.9 747.2,130.3 747.4,127.9C747.6,125.5 747.8,123.3 748,121.4C748.2,119.5 748.3,117.8 748.4,116.4C748.5,115 748.6,114 748.6,113.3L748.6,111.7C748.6,111.2 748.5,110.7 748.3,110.3C748.2,109.9 747.9,109.6 747.6,109.3C747.3,109 746.9,108.9 746.4,108.9C746,108.9 745.5,109 745,109.3C744.5,109.6 744,110 743.5,110.6C743,111.2 742.5,112 742,113C741.5,114 741.1,115.2 740.7,116.6L738.3,116.1C738.5,115.2 738.8,114 739.3,112.7C739.8,111.4 740.5,110.1 741.4,108.9C742.3,107.7 743.3,106.7 744.5,105.9C745.7,105.1 747.1,104.7 748.7,104.7C749.9,104.7 750.9,104.9 751.7,105.4C752.5,105.9 753.1,106.5 753.6,107.3C754.1,108.1 754.4,109 754.6,110C754.8,111 754.9,112.1 754.9,113.2C754.9,114.9 754.8,116.5 754.5,118.1C754.2,119.7 754,121.2 753.7,122.4L754,122.4C755.1,118.7 756.3,115.7 757.4,113.4C758.6,111.1 759.8,109.3 761,108C762.2,106.7 763.5,105.9 764.7,105.4C765.9,104.9 767.2,104.7 768.3,104.7C770.1,104.7 771.8,105.1 773.1,106C774.5,106.8 775.6,108 776.5,109.4C777.4,110.8 778.1,112.5 778.5,114.4C778.9,116.3 779.2,118.3 779.2,120.4C779.2,124.4 778.7,128 777.7,131.2C776.7,134.5 775.2,137.3 773.2,139.6C771.2,141.9 768.7,143.8 765.7,145.1C762.7,146.4 759.3,147 755.4,147C754.1,147 752.8,146.9 751.6,146.8L751,157.1ZM752.7,135.8C752.5,137 752.3,138.2 752.2,139.5C752.1,140.8 751.9,142.1 751.8,143.5C752.6,143.8 753.5,144 754.2,144.2C755,144.4 755.8,144.5 756.7,144.5C758.6,144.5 760.3,144.2 761.8,143.5C763.3,142.9 764.6,142 765.8,140.9C766.9,139.8 767.9,138.5 768.7,137C769.5,135.5 770.2,134 770.7,132.3C771.2,130.7 771.6,129 771.8,127.2C772,125.4 772.2,123.8 772.2,122.1C772.2,120.3 772.1,118.5 771.9,116.9C771.7,115.3 771.4,113.9 771,112.7C770.6,111.5 770,110.5 769.3,109.8C768.6,109.1 767.6,108.8 766.5,108.8C765.5,108.8 764.5,109.2 763.6,109.9C762.6,110.6 761.7,111.6 760.8,112.9C759.9,114.2 759,115.7 758.2,117.4C757.4,119.1 756.6,121 755.9,123C755.2,125 754.6,127.1 754,129.3C753.5,131.4 753.1,133.6 752.7,135.8Z" style="fill:rgb(255,62,62);fill-rule:nonzero;"/>
                </g>
                <g transform="matrix(1,0,0,1,-259.5,-41)">
                    <path d="M791.4,140.5C791.6,141.1 791.9,141.6 792.4,142.1C792.8,142.6 793.4,142.9 794,143.3C794.6,143.6 795.3,143.9 796,144C796.7,144.1 797.4,144.3 798.2,144.3C801.1,144.3 803.3,143.6 804.8,142.3C806.2,141 807,139.1 807,136.6C807,135.2 806.5,134 805.6,132.9C804.6,131.8 803.4,130.8 802,129.8C800.5,128.8 799,127.8 797.3,126.9C795.6,126 794,124.9 792.6,123.9C791.1,122.8 789.9,121.7 789,120.4C788,119.1 787.6,117.7 787.6,116C787.6,114.5 787.9,113.1 788.6,111.8C789.3,110.5 790.2,109.3 791.4,108.3C792.6,107.3 794.1,106.5 795.8,105.9C797.5,105.3 799.4,105 801.5,105C803,105 804.5,105.2 805.9,105.6C807.3,106 808.6,106.5 809.7,107.2C810.8,107.9 811.7,108.7 812.4,109.7C813.1,110.7 813.4,111.8 813.4,113C813.4,114.2 813.1,115.1 812.4,115.8C811.8,116.5 810.9,116.8 810,116.8C809.1,116.8 808.2,116.5 807.6,115.8C807,115.1 806.7,114.4 806.7,113.5C806.7,113.1 806.8,112.7 806.9,112.2C807,111.8 807.2,111.3 807.5,110.9C807.2,110 806.5,109.2 805.5,108.6C804.4,108 803,107.7 801.2,107.7C800.3,107.7 799.4,107.9 798.5,108.2C797.6,108.5 796.8,108.9 796.1,109.5C795.4,110.1 794.8,110.7 794.4,111.5C794,112.3 793.7,113.2 793.7,114.1C793.7,115.1 794,116 794.5,116.8C795.1,117.6 795.8,118.4 796.8,119.2C797.7,119.9 798.8,120.7 800,121.4C801.2,122.1 802.4,122.8 803.7,123.6C804.9,124.3 806.2,125.1 807.4,125.9C808.6,126.7 809.7,127.6 810.6,128.6C811.5,129.6 812.3,130.6 812.9,131.8C813.5,133 813.7,134.2 813.7,135.7C813.7,137.4 813.3,139 812.6,140.4C811.9,141.8 810.8,143.1 809.5,144.1C808.2,145.2 806.5,146 804.7,146.6C802.8,147.2 800.8,147.5 798.5,147.5C796.9,147.5 795.3,147.3 793.7,146.9C792.1,146.5 790.7,146 789.5,145.2C788.3,144.5 787.3,143.6 786.6,142.5C785.9,141.4 785.5,140.2 785.5,138.8C785.5,137.6 785.8,136.7 786.5,135.9C787.2,135.2 788,134.8 789,134.8C790.1,134.8 790.9,135.2 791.5,135.9C792.1,136.6 792.3,137.4 792.3,138.3C792.3,138.7 792.3,139.1 792.2,139.5C791.9,139.6 791.7,140 791.4,140.5Z" style="fill:rgb(255,62,62);fill-rule:nonzero;"/>
                </g>
                <g transform="matrix(1,0,0,1,-259.5,-41)">
                    <path d="M832.5,142.4C832.4,143.1 832.3,143.8 832,144.4C831.7,145 831.3,145.6 830.9,146.1C830.4,146.6 829.9,146.9 829.3,147.2C828.7,147.5 828.1,147.6 827.5,147.6C826.9,147.6 826.3,147.5 825.8,147.2C825.3,146.9 824.8,146.6 824.4,146.2C824,145.8 823.7,145.3 823.5,144.7C823.3,144.1 823.1,143.5 823.1,142.8C823.1,142 823.2,141.3 823.5,140.6C823.8,139.9 824.1,139.3 824.6,138.8C825.1,138.3 825.6,137.9 826.2,137.6C826.8,137.3 827.4,137.1 828.1,137.1C829.4,137.2 830.5,137.7 831.3,138.5C832.1,139.4 832.5,140.7 832.5,142.4ZM830,127.7L827,127.7L825.8,94C825.8,93.3 825.9,92.6 826.1,91.9C826.3,91.2 826.6,90.6 827,90.1C827.4,89.6 827.9,89.1 828.5,88.8C829.1,88.5 829.8,88.3 830.6,88.3C831.3,88.3 832,88.4 832.5,88.7C833,89 833.5,89.3 833.8,89.8C834.1,90.2 834.4,90.8 834.5,91.3C834.7,91.9 834.7,92.5 834.7,93.1L834.7,93.7C834.8,93.8 833.2,105.1 830,127.7Z" style="fill:rgb(255,62,62);fill-rule:nonzero;"/>
                </g>
            </g>
        </g>
        <g transform="matrix(0.791972,0,0,0.791972,61.8753,-62.0154)">
            <g transform="matrix(0.766557,0,0,0.766557,196.441,94.4347)">
                <path d="M194.5,252.1C169.5,252.1 147.3,237.8 136.9,215.7C126,236.5 104.3,250 80.4,250C45.3,250 16.7,221.4 16.7,186.3C16.7,172.8 20.9,159.9 28.8,149L129.3,18.7C129.8,18 132.5,14.9 136.5,14.9C140.4,14.9 143.2,18.1 143.7,18.7L244.5,149C253.5,160.3 258.2,174 258.2,188.5C258.2,223.5 229.6,252.1 194.5,252.1Z" style="fill:rgb(238,45,43);fill-rule:nonzero;"/>
            </g>
            <g transform="matrix(0.766557,0,0,0.766557,196.441,94.4347)">
                <path d="M136.5,18.3C138.9,18.3 140.9,20.6 141,20.8L241.8,151.1C249.9,161.4 254.8,174.3 254.8,188.5C254.8,221.7 227.8,248.7 194.6,248.7C167.7,248.7 144.9,231 137.2,206.7C128.9,229.9 106.6,246.6 80.5,246.6C47.3,246.6 20.3,219.6 20.3,186.4C20.3,173.2 24.5,161.1 31.7,151.2L132.1,20.8C132.2,20.7 134,18.3 136.5,18.3M136.5,11.3C131.7,11.3 128,14.5 126.5,16.6L26.1,146.8L25.9,147C17.6,158.5 13.2,172.1 13.2,186.3C13.2,223.4 43.3,253.5 80.4,253.5C103.4,253.5 124.5,241.7 136.8,222.9C141.3,230.4 147.2,237 154.4,242.4C166.1,251.1 179.9,255.7 194.5,255.7C231.6,255.7 261.7,225.6 261.7,188.5C261.7,173.2 256.7,158.8 247.2,146.8L146.5,16.5C145.6,15.4 141.9,11.3 136.5,11.3Z" style="fill:rgb(145,37,37);fill-rule:nonzero;"/>
            </g>
            <g transform="matrix(0.766557,0,0,0.766557,196.441,94.4347)">
                <path d="M136.8,111.7C138.1,108.8 139.5,106.2 141.4,103.9C145.7,98.5 151,94.9 157.9,93.8C164.9,92.8 171,94.6 176.2,99.3C180.7,103.2 183.2,108.3 184.5,114C185.4,117.6 185.7,121.3 185.5,125.1C185.2,130.8 183.1,135.8 179.3,140.2C175.6,144.5 171,147.6 166.3,150.6C161.7,153.5 157.1,156.2 152.9,159.7C150.8,161.4 148.9,163.2 147,165C143.7,168.2 140.7,171.5 138.2,175.3C137.7,176.2 137.2,177.1 136.8,178.1C136.2,176.9 135.6,175.6 134.9,174.5C133.6,172.5 132.1,170.7 130.6,168.9C126.6,164.3 122,160.4 117,157.1C113.8,155 110.5,153.1 107.2,151C102.8,148.3 98.6,145.4 95.1,141.5C91.5,137.6 89.1,133.1 88.4,127.7C87.5,120.7 88.5,114 91.4,107.5C93.9,102 97.8,97.8 103.3,95.2C106.9,93.5 110.6,92.9 114.6,93.3C121.2,94 126.4,97.1 130.7,101.9C133,104.4 134.7,107.2 136.1,110.3C136.3,110.7 136.5,111.1 136.8,111.7Z" style="fill:rgb(146,36,37);fill-rule:nonzero;"/>
            </g>
        </g>
    </g>
</svg>
