<?xml version="1.0" encoding="UTF-8" standalone="no"?>
<!DOCTYPE svg PUBLIC "-//W3C//DTD SVG 1.1//EN" "http://www.w3.org/Graphics/SVG/1.1/DTD/svg11.dtd">
<svg width="100%" height="100%" viewBox="0 0 600 300" version="1.1" xmlns="http://www.w3.org/2000/svg" xmlns:xlink="http://www.w3.org/1999/xlink" xml:space="preserve" xmlns:serif="http://www.serif.com/" style="fill-rule:evenodd;clip-rule:evenodd;stroke-linejoin:round;stroke-miterlimit:2;">
    <g id="Invalid" transform="matrix(0.37309,0,0,0.37309,4.54806,48.3296)">
        <g>
            <g id="Layer_14">
                <g>
                    <path d="M188.3,131.3L180.6,108.2C179.1,103.6 174.4,102 169.8,103.6L125.1,125.2L132.8,74.3C132.8,69.7 129.7,65 125.1,65L100.4,65C95.8,65 92.7,69.6 92.7,74.3L100.4,125.2L54.1,103.6C51,102.1 46.4,103.6 44.8,108.2L35.5,131.3C35.5,135.9 37,140.6 41.7,140.6L91,149.9L57.1,185.4C54,188.5 54,194.7 57.1,197.7L77.1,213.1C80.2,216.2 86.4,214.6 87.9,210L111,165.3L134.1,210C135.6,214.6 141.8,214.6 144.9,213.1L164.9,197.7C171.1,194.6 171.1,190 168,185.4L132.5,149.9L181.8,140.6C186.7,140.6 189.8,136 188.3,131.3Z" style="fill:rgb(238,51,40);fill-rule:nonzero;"/>
                </g>
            </g>
        </g>
        <g>
            <path d="M1536,467.5C1545.3,467.5 1554.5,466 1565.3,466L1565.3,499.9L1477.4,499.9C1475.9,493.7 1475.9,487.6 1474.3,479.9C1472.8,481.4 1471.2,481.4 1469.7,483C1429.6,523.1 1352.5,516.9 1326.3,456.8C1303.2,402.8 1304.7,348.9 1340.2,301.1C1364.9,267.2 1412.7,251.8 1454.3,264.1C1458.9,265.6 1465.1,267.2 1471.3,268.7L1471.3,196.2L1440.5,196.2L1440.5,162.3C1452.8,159.2 1466.7,157.7 1479.1,156.1C1489.9,154.6 1499.1,149.9 1508.4,146.8C1517.7,145.3 1525.4,145.3 1536.2,143.7C1536,253.2 1536,359.6 1536,467.5ZM1471.2,371.9L1471.2,307.1C1471.2,304 1469.7,300.9 1468.1,299.4C1446.5,287.1 1408,287.1 1394.1,319.4C1389.5,331.7 1384.8,345.6 1383.3,358C1380.2,385.8 1381.8,412 1392.6,438.2C1406.5,467.5 1437.3,475.2 1462,453.6C1468.2,449 1472.8,442.8 1472.8,432C1469.7,413.5 1471.2,391.9 1471.2,371.9Z" style="fill:rgb(238,51,40);fill-rule:nonzero;"/>
            <path d="M340.9,499.9L219.1,499.9L219.1,472.1L220.6,470.6C239.1,467.5 245.3,461.3 245.3,442.8C245.3,418.1 246.8,391.9 246.8,367.2L246.8,308.6L216,308.6L216,274.7C229.9,273.2 243.8,273.2 257.6,270.1C266.9,268.6 276.1,263.9 285.4,262.4C293.1,260.9 302.4,260.9 311.6,259.3C313.1,268.6 313.1,274.7 314.7,284C319.3,280.9 322.4,279.4 325.5,277.8C342.5,267 359.4,259.3 377.9,257.8C411.8,256.3 445.7,264 456.5,307.1C461.1,325.6 462.7,344.1 462.7,362.6C462.7,395 462.7,428.9 461.2,461.3L461.2,465.9C470.5,465.9 479.7,464.4 490.5,464.4L490.5,498.3L368.7,498.3L368.7,470.5C368.7,470.5 368.7,469 370.2,469C390.2,465.9 396.4,459.7 396.4,439.7C396.4,404.2 396.4,368.8 394.9,334.8C393.4,305.5 371.8,293.2 342.5,302.4C341,302.4 337.9,303.9 336.3,303.9C317.8,311.6 314.7,314.7 314.7,334.7C314.7,376.3 313.2,418 313.2,458.1L313.2,464.3L342.5,464.3C340.9,476.8 340.9,487.5 340.9,499.9Z" style="fill:rgb(238,51,40);fill-rule:nonzero;"/>
            <path d="M954.7,467.5C965.5,467.5 974.7,466 984,466L984,501.5L905.4,501.5C897.7,501.5 894.6,500 894.6,492.2C894.6,489.1 894.6,486 893.1,479.9C890,483 886.9,484.5 885.4,486.1C857.6,507.7 826.8,516.9 794.4,503.1C755.8,487.7 746.6,432.2 775.9,399.8C788.2,385.9 803.7,378.2 820.6,373.6C840.6,367.4 860.7,364.3 880.7,361.3C883.8,361.3 886.9,359.8 891.5,359.8C890,345.9 891.5,330.5 888.4,318.2C883.8,295.1 862.2,287.4 839.1,296.6C834.5,298.1 829.8,302.8 823.7,305.9C825.2,309 826.8,310.5 826.8,313.6C831.4,325.9 828.3,339.8 819.1,347.5C811.4,355.2 796,356.8 785.2,352.1C772.9,345.9 769.8,335.1 769.8,322.8C769.8,302.8 782.1,288.9 799.1,279.6C822.2,265.7 848.4,261.1 874.7,262.6C885.5,262.6 897.8,265.7 908.6,268.8C937.9,278.1 950.2,301.2 954.9,330.5C956.4,341.3 956.4,352.1 956.4,362.9C956.4,396.8 954.9,430.7 954.9,464.7C954.7,461.3 954.7,462.9 954.7,467.5ZM891.4,391.9C872.9,393.4 857.5,398.1 842.1,407.3C837.5,410.4 834.4,413.5 831.3,418.1C820.5,433.5 825.1,453.6 842.1,459.7C857.5,464.3 879.1,458.2 889.9,445.8C891.4,444.3 891.4,442.7 891.4,442.7L891.4,391.9Z" style="fill:rgb(238,51,40);fill-rule:nonzero;"/>
            <path d="M1002.5,193L1002.5,159.1C1016.4,159.1 1030.3,157.6 1042.6,156C1051.9,154.5 1062.6,149.8 1071.9,148.3C1081.2,146.8 1090.4,146.8 1099.7,145.2L1099.7,467.5C1109,467.5 1118.2,466 1129,466L1129,499.9L1007.2,499.9L1007.2,472.1C1028.8,467.5 1033.4,462.8 1033.4,439.7C1033.4,382.6 1033.4,325.6 1034.9,268.5C1034.9,245.4 1036.4,222.2 1036.4,199.1L1036.4,194.5C1024,193 1013.2,193 1002.5,193Z" style="fill:rgb(238,51,40);fill-rule:nonzero;"/>
            <path d="M654,310.2L721.9,310.2C745,310.2 746.6,313.3 743.5,336.4C743.5,337.9 742,341 740.4,341C729.6,345.6 721.9,353.3 717.3,362.6C703.4,395 689.5,427.4 675.7,459.7C664.9,485.9 654.1,513.7 643.3,539.9C641.8,544.5 638.7,547.6 632.5,547.6L604.7,547.6C601.6,547.6 597,544.5 597,543C570.7,487.5 546,430.5 519.8,375C515.2,365.7 513.6,356.5 510.5,347.2L495.1,347.2L495.1,313.3L603,313.3L603,341.1C587.6,345.7 584.5,353.4 589.1,368.9C596.8,392 606.1,415.2 615.3,436.7C619.9,449 626.1,462.9 632.3,476.8C649.3,432.1 664.7,388.9 681.6,345.7C673.9,345.7 664.6,347.2 655.4,347.2C654,334.9 654,324.1 654,310.2Z" style="fill:rgb(238,51,40);fill-rule:nonzero;"/>
            <path d="M1253.8,467.5C1263.1,467.5 1272.3,466 1283.1,466L1283.1,499.9L1161.3,499.9L1161.3,472.1C1182.9,467.5 1187.5,464.4 1187.5,442.8C1189,413.5 1187.5,385.7 1189,356.4L1189,310.1L1158.2,310.1L1158.2,276.2C1172.1,274.7 1186,274.7 1199.8,271.6C1209.1,270.1 1218.3,265.4 1227.6,263.9C1236.9,262.4 1244.6,262.4 1255.4,260.8C1253.8,328.7 1253.8,398.1 1253.8,467.5Z" style="fill:rgb(238,51,40);fill-rule:nonzero;"/>
            <path d="M61.8,308.7L61.8,274.8C75.7,273.3 88,273.3 101.9,270.2C112.7,268.7 121.9,264 131.2,260.9C138.9,259.4 148.2,259.4 157.4,257.8L157.4,464.4C166.7,464.4 175.9,462.9 186.7,462.9L186.7,496.8L64.9,496.8L64.9,469C86.5,467.5 91.1,461.3 91.1,439.7L91.1,308.6C81.9,308.7 72.6,308.7 61.8,308.7Z" style="fill:rgb(238,51,40);fill-rule:nonzero;"/>
            <path d="M1261.5,180.7C1261.5,202.3 1246.1,219.3 1226,217.7C1206,217.7 1189,200.7 1190.5,179.1C1190.5,157.5 1207.5,140.5 1226,140.5C1247.6,142.1 1261.5,157.6 1261.5,180.7Z" style="fill:rgb(238,51,40);fill-rule:nonzero;"/>
        </g>
    </g>
</svg>
