<?xml version="1.0" encoding="UTF-8" standalone="no"?>
<!DOCTYPE svg PUBLIC "-//W3C//DTD SVG 1.1//EN" "http://www.w3.org/Graphics/SVG/1.1/DTD/svg11.dtd">
<svg width="100%" height="100%" viewBox="0 0 1417 461" version="1.1" xmlns="http://www.w3.org/2000/svg" xmlns:xlink="http://www.w3.org/1999/xlink" xml:space="preserve" xmlns:serif="http://www.serif.com/" style="fill-rule:evenodd;clip-rule:evenodd;stroke-linejoin:round;stroke-miterlimit:2;">
    <g id="motherfucking-best" serif:id="motherfucking best">
        <g transform="matrix(1.15585,0,0,1.15585,-204.83,315.158)">
            <path d="M1034.17,103.252C1030.07,103.252 1026.78,101.95 1024.31,99.346C1021.83,96.742 1020.6,93.714 1020.6,90.264C1020.6,86.813 1021.83,83.786 1024.31,81.182C1026.78,78.513 1030.07,77.178 1034.17,77.178C1038.27,77.178 1041.56,78.513 1044.03,81.182C1046.51,83.786 1047.74,86.813 1047.74,90.264C1047.74,93.714 1046.51,96.742 1044.03,99.346C1041.56,101.95 1038.27,103.252 1034.17,103.252Z" style="fill:rgb(76,233,17);fill-rule:nonzero;"/>
            <path d="M1066.47,103.252L1066.47,-55.928C1068.03,-55.928 1070.44,-55.83 1073.7,-55.635C1076.95,-55.439 1079.3,-55.244 1080.73,-55.049C1092.45,-53.681 1101.59,-50.524 1108.17,-45.576C1114.81,-40.693 1119.46,-34.899 1122.13,-28.193C1124.87,-21.487 1126.24,-14.782 1126.24,-8.076C1126.24,-2.542 1124.8,3.187 1121.94,9.112C1119.07,14.971 1115.04,20.212 1109.83,24.834C1116.6,28.675 1121.78,33.526 1125.36,39.385C1129,45.179 1130.83,51.852 1130.83,59.404C1130.83,65.915 1129.36,72.36 1126.43,78.74C1123.57,85.121 1118.65,90.557 1111.68,95.049C1104.78,99.476 1095.25,102.08 1083.07,102.862C1082.1,102.927 1080.47,102.992 1078.19,103.057C1075.97,103.122 1073.73,103.154 1071.45,103.154C1069.17,103.22 1067.51,103.252 1066.47,103.252ZM1084.34,19.658C1088.31,20.309 1092.15,19.3 1095.86,16.631C1099.58,13.962 1102.63,10.316 1105.04,5.694C1107.45,1.006 1108.66,-3.974 1108.66,-9.248C1108.66,-16.019 1107.32,-21.422 1104.65,-25.459C1101.98,-29.495 1098.76,-32.425 1094.99,-34.248C1091.21,-36.071 1087.66,-36.982 1084.34,-36.982L1084.34,19.658ZM1084.34,84.697C1091.89,84.697 1098.34,82.484 1103.68,78.057C1109.08,73.63 1111.78,67.412 1111.78,59.404C1111.78,54.652 1110.67,50.322 1108.46,46.416C1106.25,42.445 1103.09,39.385 1098.99,37.237C1094.95,35.088 1090.07,34.339 1084.34,34.99L1084.34,84.697Z" style="fill:rgb(76,233,17);fill-rule:nonzero;"/>
            <path d="M1157.36,101.494L1157.36,-54.072L1210.78,-54.072L1210.78,-36.885L1175.92,-36.885L1175.92,22.881L1205.8,22.881L1205.8,40.069L1175.92,40.069L1175.92,84.307L1210.78,84.307L1210.78,101.494L1157.36,101.494Z" style="fill:rgb(76,233,17);fill-rule:nonzero;"/>
            <path d="M1258.9,103.35C1253.04,103.35 1247.44,102.503 1242.11,100.811C1236.83,99.118 1232.28,96.97 1228.43,94.365L1236.93,78.154C1240.18,79.977 1243.6,81.67 1247.18,83.233C1250.76,84.73 1254.67,85.479 1258.9,85.479C1264.11,85.479 1268.67,84.014 1272.57,81.084C1276.55,78.154 1278.53,73.5 1278.53,67.119C1278.53,62.822 1277.29,58.168 1274.82,53.154C1272.41,48.076 1268.12,41.696 1261.93,34.014L1249.14,18.096C1242.76,10.153 1238.23,2.959 1235.56,-3.486C1232.89,-9.997 1231.56,-16.149 1231.56,-21.943C1231.56,-31.709 1234.68,-39.782 1240.93,-46.162C1247.18,-52.607 1255.81,-55.83 1266.81,-55.83C1271.24,-55.83 1275.67,-55.244 1280.09,-54.072C1284.59,-52.965 1288.95,-51.175 1293.18,-48.701L1285.17,-33.564C1282.83,-34.931 1280.32,-36.103 1277.65,-37.08C1274.98,-38.122 1272.02,-38.642 1268.77,-38.642C1263.36,-38.642 1259,-37.112 1255.68,-34.053C1252.42,-30.993 1250.8,-26.728 1250.8,-21.26C1250.8,-18.265 1251.51,-14.977 1252.94,-11.396C1254.44,-7.816 1257.4,-3.161 1261.83,2.569L1280.48,26.592C1285.3,32.842 1289.37,38.929 1292.69,44.854C1296.08,50.713 1297.77,57.647 1297.77,65.654C1297.77,73.467 1296.08,80.205 1292.69,85.869C1289.37,91.468 1284.78,95.798 1278.92,98.858C1273.13,101.852 1266.45,103.35 1258.9,103.35Z" style="fill:rgb(76,233,17);fill-rule:nonzero;"/>
            <path d="M1335.83,101.494L1335.83,-36.885L1310.93,-36.885L1310.93,-54.072L1379.29,-54.072L1379.29,-36.885L1354.39,-36.885L1354.39,101.494L1335.83,101.494Z" style="fill:rgb(76,233,17);fill-rule:nonzero;"/>
        </g>
        <g transform="matrix(1.15585,0,0,1.15585,-61.8302,109.158)">
            <path d="M69.491,101.494L69.491,-58.857L71.346,-58.857L115.292,25.713L115.487,25.713L159.432,-58.857L161.288,-58.857L161.288,101.494L142.733,101.494L142.733,29.815L144.296,5.498L144.1,5.498L132.675,28.643L115.487,59.502L115.389,59.502L98.007,28.545L86.581,5.498L86.386,5.498L88.046,29.619L88.046,101.494L69.491,101.494Z" style="fill:rgb(230,10,205);fill-rule:nonzero;"/>
            <path d="M232.162,103.35C227.475,103.35 222.592,102.21 217.514,99.932C212.501,97.588 207.813,93.519 203.451,87.725C199.155,81.931 195.672,73.858 193.002,63.506C190.333,53.154 188.998,39.906 188.998,23.76C188.998,7.614 190.333,-5.635 193.002,-15.986C195.672,-26.338 199.155,-34.411 203.451,-40.205C207.813,-45.999 212.501,-50.036 217.514,-52.314C222.592,-54.658 227.475,-55.83 232.162,-55.83C236.915,-55.83 241.798,-54.658 246.811,-52.314C251.889,-50.036 256.576,-45.999 260.873,-40.205C265.235,-34.411 268.751,-26.338 271.42,-15.986C274.089,-5.635 275.424,7.614 275.424,23.76C275.424,39.906 274.089,53.154 271.42,63.506C268.751,73.858 265.235,81.931 260.873,87.725C256.576,93.519 251.889,97.588 246.811,99.932C241.798,102.21 236.915,103.35 232.162,103.35ZM232.162,85.381C235.938,85.381 239.649,83.558 243.295,79.912C247.006,76.201 250.066,69.854 252.475,60.869C254.949,51.885 256.186,39.515 256.186,23.76C256.186,7.94 254.949,-4.43 252.475,-13.349C250.066,-22.334 247.006,-28.649 243.295,-32.295C239.649,-36.006 235.938,-37.861 232.162,-37.861C228.451,-37.861 224.741,-36.006 221.03,-32.295C217.384,-28.649 214.324,-22.334 211.85,-13.349C209.441,-4.43 208.237,7.94 208.237,23.76C208.237,39.515 209.441,51.885 211.85,60.869C214.324,69.854 217.384,76.201 221.03,79.912C224.741,83.558 228.451,85.381 232.162,85.381Z" style="fill:rgb(230,10,205);fill-rule:nonzero;"/>
            <path d="M311.826,101.494L311.826,-36.885L286.924,-36.885L286.924,-54.072L355.283,-54.072L355.283,-36.885L330.381,-36.885L330.381,101.494L311.826,101.494Z" style="fill:rgb(230,10,205);fill-rule:nonzero;"/>
            <path d="M375.376,101.494L375.376,-54.072L393.931,-54.072L393.931,32.256L428.892,32.256L428.892,-54.072L447.447,-54.072L447.447,101.494L428.892,101.494L428.892,49.444L393.931,49.444L393.931,101.494L375.376,101.494Z" style="fill:rgb(230,10,205);fill-rule:nonzero;"/>
            <path d="M479.063,101.494L479.063,-54.072L532.481,-54.072L532.481,-36.885L497.618,-36.885L497.618,22.881L527.501,22.881L527.501,40.069L497.618,40.069L497.618,84.307L532.481,84.307L532.481,101.494L479.063,101.494Z" style="fill:rgb(230,10,205);fill-rule:nonzero;"/>
            <path d="M557.946,101.494L557.946,-56.025C573.18,-56.676 585.745,-54.788 595.641,-50.361C605.537,-45.934 612.894,-39.554 617.711,-31.221C622.594,-22.952 625.036,-13.252 625.036,-2.119C625.036,7.516 623.213,16.143 619.567,23.76C615.986,31.312 610.517,37.432 603.161,42.119L630.7,101.494L609.801,101.494L587.145,49.053C583.825,49.964 580.276,50.648 576.5,51.104L576.5,101.494L557.946,101.494ZM576.5,32.647C585.029,31.931 592.028,28.74 597.496,23.076C603.03,17.347 605.797,8.949 605.797,-2.119C605.797,-13.187 603.03,-21.553 597.496,-27.217C592.028,-32.946 585.029,-36.168 576.5,-36.885L576.5,32.647Z" style="fill:rgb(230,10,205);fill-rule:nonzero;"/>
            <path d="M652.551,101.494L652.551,-54.17L706.75,-54.17L706.75,-36.885L671.105,-36.885L671.105,28.936L701.769,28.936L701.769,46.123L671.105,46.123L671.105,101.494L652.551,101.494Z" style="fill:rgb(230,10,205);fill-rule:nonzero;"/>
            <path d="M766.492,103.35C754.773,103.35 745.593,99.769 738.953,92.608C732.377,85.381 729.089,73.923 729.089,58.233L729.089,-54.072L747.644,-54.072L747.644,55.987C747.644,66.794 749.272,74.411 752.527,78.838C755.847,83.2 760.502,85.381 766.492,85.381C772.481,85.381 777.104,83.2 780.359,78.838C783.679,74.411 785.339,66.794 785.339,55.987L785.339,-54.072L803.796,-54.072L803.796,58.233C803.796,73.923 800.509,85.381 793.933,92.608C787.358,99.769 778.21,103.35 766.492,103.35Z" style="fill:rgb(230,10,205);fill-rule:nonzero;"/>
            <path d="M878.968,103.35C870.439,103.35 862.561,100.713 855.335,95.44C848.173,90.101 842.412,81.605 838.05,69.951C833.688,58.298 831.507,42.901 831.507,23.76C831.507,4.294 833.688,-11.266 838.05,-22.92C842.412,-34.573 848.173,-42.972 855.335,-48.115C862.561,-53.258 870.439,-55.83 878.968,-55.83C882.614,-55.83 885.999,-55.504 889.124,-54.853C892.249,-54.202 895.407,-53.193 898.597,-51.826L894.3,-36.592C893.063,-37.112 891.045,-37.503 888.245,-37.763C885.511,-38.089 883.265,-38.252 881.507,-38.252C875.973,-38.252 870.83,-36.201 866.077,-32.099C861.324,-28.063 857.483,-21.487 854.554,-12.373C851.689,-3.323 850.257,8.721 850.257,23.76C850.257,38.734 851.689,50.778 854.554,59.893C857.483,68.942 861.324,75.518 866.077,79.619C870.83,83.656 875.973,85.674 881.507,85.674C883.265,85.674 885.185,85.544 887.269,85.283C889.417,84.958 891.11,84.535 892.347,84.014L898.597,99.346C895.407,100.713 892.249,101.722 889.124,102.373C885.999,103.024 882.614,103.35 878.968,103.35Z" style="fill:rgb(230,10,205);fill-rule:nonzero;"/>
            <path d="M976.6,101.494L936.366,29.326L972.694,-54.072L992.616,-54.072L956.385,27.08L997.987,101.494L976.6,101.494ZM917.811,101.494L917.811,-54.072L936.366,-54.072L936.366,101.494L917.811,101.494Z" style="fill:rgb(230,10,205);fill-rule:nonzero;"/>
            <rect x="1015.44" y="-54.072" width="18.555" height="155.566" style="fill:rgb(230,10,205);fill-rule:nonzero;"/>
            <path d="M1065.91,101.494L1065.91,-58.857L1066.49,-58.857L1114.83,21.514L1128.8,47.295L1126.36,21.807L1126.36,-54.072L1144.72,-54.072L1144.72,104.424L1144.13,104.424L1095.69,23.76L1081.92,0.908L1084.46,23.76L1084.46,101.494L1065.91,101.494Z" style="fill:rgb(230,10,205);fill-rule:nonzero;"/>
            <path d="M1245.77,103.252C1231.31,103.773 1218.39,101.332 1207,95.928C1195.67,90.459 1186.72,81.572 1180.14,69.268C1173.63,56.963 1170.38,40.817 1170.38,20.83C1170.38,4.489 1172.75,-9.378 1177.51,-20.771C1182.26,-32.165 1188.74,-40.856 1196.94,-46.846C1205.14,-52.835 1214.45,-55.83 1224.87,-55.83C1228.77,-55.83 1232.36,-55.504 1235.61,-54.853C1238.93,-54.202 1242.58,-53.193 1246.55,-51.826L1238.25,-36.396C1236.42,-36.917 1234.31,-37.308 1231.9,-37.568C1229.49,-37.894 1227.28,-38.056 1225.26,-38.056C1218.94,-38.056 1213.05,-35.778 1207.58,-31.221C1202.11,-26.728 1197.69,-20.088 1194.3,-11.299C1190.98,-2.575 1189.32,8.2 1189.32,21.026C1189.32,35.934 1190.95,47.914 1194.2,56.963C1197.46,65.947 1201.95,72.686 1207.68,77.178C1213.41,81.605 1219.95,84.47 1227.31,85.772L1227.31,38.701L1218.81,38.701L1218.81,22.295L1245.86,22.295L1245.86,38.701L1245.77,38.701L1245.77,103.252Z" style="fill:rgb(230,10,205);fill-rule:nonzero;"/>
        </g>
    </g>
</svg>
