<?xml version="1.0" encoding="UTF-8" standalone="no"?>
<!DOCTYPE svg PUBLIC "-//W3C//DTD SVG 1.1//EN" "http://www.w3.org/Graphics/SVG/1.1/DTD/svg11.dtd">
<svg width="100%" height="100%" viewBox="0 0 600 300" version="1.1" xmlns="http://www.w3.org/2000/svg" xmlns:xlink="http://www.w3.org/1999/xlink" xml:space="preserve" xmlns:serif="http://www.serif.com/" style="fill-rule:evenodd;clip-rule:evenodd;stroke-miterlimit:10;">
    <g transform="matrix(1,0,0,1,298.4,148.8)">
        <g transform="matrix(1,0,0,1,-300,-150)">
            <g id="Sisyphus-Clicker" serif:id="Sisyphus Clicker">
                <g transform="matrix(0.384453,0,0,0.384453,-3.49055,31.1699)">
                    <path d="M271.7,174.7C271.7,135.1 271.7,127.7 271.4,119.5C270.8,110.6 268,107.5 262.1,105.7C259,104.8 255.6,104.5 252.2,104.5C249.4,104.5 247.9,103.9 247.9,101.4C247.9,99.9 250.1,99.3 254.4,99.3C264.6,99.3 283.2,99.9 291,99.9C297.8,99.9 315.5,99.3 326,99.3C329.4,99.3 331.6,99.9 331.6,101.4C331.6,103.9 330,104.5 327.3,104.5C324.5,104.5 322.3,104.8 319.2,105.4C311.8,106.6 309.6,110.3 309,119.5C308.4,127.8 308.4,135.2 308.4,174.7L308.4,220.7C308.4,245.9 308.4,266.7 309.6,277.8C310.5,284.9 312.4,288.8 320.4,290.1C324.1,290.7 330.3,291 334.4,291C337.5,291 338.7,292.5 338.7,293.8C338.7,295.6 336.5,296.6 333.4,296.6C315.4,296.6 296.8,295.7 289.4,295.7C283.2,295.7 264.6,296.6 253.8,296.6C250.4,296.6 248.5,295.7 248.5,293.8C248.5,292.6 249.4,291 252.8,291C256.8,291 259.9,290.7 262.4,290.1C268,288.9 269.5,285.2 270.5,277.5C271.7,266.8 271.7,245.9 271.7,220.7L271.7,174.7Z" style="fill:rgb(21,21,21);fill-rule:nonzero;"/>
                    <path d="M379.9,293.2C375.6,291.4 374.6,290.1 374.6,284.3C374.6,270.2 375.8,253.9 376.1,249.6C376.1,245.6 377.3,242.8 379.5,242.8C382,242.8 382.3,245.3 382.3,247.1C382.3,250.5 383.2,256 384.8,260.6C390.7,279.9 411.1,286.4 428.2,286.4C451.8,286.4 466,271.7 466,253.3C466,241.9 463.2,230.6 439,216.5L423.2,207.3C391,188.5 380.5,171 380.5,148C380.5,116.1 411.5,95.5 449.3,95.5C467,95.5 480.9,98 488,99.8C490.5,100.4 491.7,101.3 491.7,103.2C491.7,106.6 490.8,113.9 490.8,134.5C490.8,140 489.6,142.8 487.4,142.8C485.5,142.8 484.6,141.3 484.6,138.2C484.6,135.7 483.4,127.8 477.5,121C473.5,116.1 464.8,108.7 447.1,108.7C427.6,108.7 409.9,118.8 409.9,136.6C409.9,148.3 414.2,157.5 438.7,171L449.9,177.1C485.9,196.7 497,216.7 497,240.3C497,259.6 489.6,275.3 469.7,289.1C456.7,298.3 438.7,299.8 424.1,299.8C408.4,300 391.6,298.4 379.9,293.2Z" style="fill:rgb(21,21,21);fill-rule:nonzero;"/>
                    <path d="M588.5,228.8C588.5,214.7 586,209.2 582.3,201.5C580.4,197.5 543.2,140.1 533.6,126.3C526.8,116.8 521.2,110.6 515.9,107.9C512.5,106.1 507.8,104.5 504.4,104.5C502.2,104.5 500.4,103.6 500.4,101.7C500.4,99.9 502.3,99.2 505.7,99.2C510.3,99.2 530.8,99.8 539.8,99.8C545.7,99.8 558.4,99.2 570.8,99.2C573.3,99.2 574.8,99.8 574.8,101.7C574.8,103.8 572.9,103.8 568.6,105.1C566.4,105.7 564.9,106.9 564.9,109.1C564.9,111.3 566.1,114.3 568.3,118C573.3,126 608.9,187.1 613.6,194.4C617,188.3 650.2,132.4 654.2,124.4C657,118.6 658.2,114 658.2,110.6C658.2,108.1 657,105.7 652.3,104.8C649.8,104.2 647.3,103.9 647.3,101.7C647.3,99.9 648.9,99.2 651.9,99.2C660.9,99.2 670.5,99.8 678.6,99.8C684.5,99.8 702.5,99.2 707.7,99.2C710.8,99.2 712.7,99.8 712.7,101.3C712.7,103.1 710.5,104.4 707.4,104.4C704.6,104.4 699.6,105.6 695.6,107.5C689.7,110.3 687.2,112.7 681.3,119.8C672.3,130.2 633.3,192.2 628.3,203.3C624.3,212.8 624.9,220.8 624.9,229.4L624.9,250.3C624.9,254.6 624.9,265.3 625.5,276.4C626.1,284.1 628.6,289 636.7,290.2C640.7,290.8 646.6,291.1 650.3,291.1C653.4,291.1 654.9,292.6 654.9,293.9C654.9,295.7 652.7,296.7 649,296.7C632,296.7 613.7,295.8 606.2,295.8C599.4,295.8 581.1,296.7 570.9,296.7C567.2,296.7 565,296.1 565,293.9C565,292.7 566.2,291.1 569.3,291.1C573,291.1 576.4,290.8 578.9,290.2C584.5,289 586.7,284.1 587.3,276.4C588.2,265.4 588.2,254.6 588.2,250.3L588.2,228.8L588.5,228.8Z" style="fill:rgb(21,21,21);fill-rule:nonzero;"/>
                    <path d="M738.8,174.7C738.8,135.1 738.8,127.7 738.5,119.5C737.9,110.6 735.4,107.8 726.7,105.4C724.5,104.8 719.9,104.5 715.8,104.5C713,104.5 711.2,103.6 711.2,101.7C711.2,99.9 713.4,99.2 717.4,99.2C731.7,99.2 749,99.8 756.8,99.8C768,99.8 789.7,99.2 802.1,99.2C836.2,99.2 848.6,110.2 852.9,113.9C858.8,119.4 866.5,131.1 866.5,145.2C866.5,182 836.7,208.4 798,208.4C796.8,208.4 791.2,208.4 789.9,208.1C788.4,208.1 786.5,207.2 786.5,205.3C786.5,203.2 789.6,201.9 795.5,201.9C810.7,201.9 832.1,186.2 832.1,159.5C832.1,150.9 831.2,133.7 816,120.8C806.1,112.2 794.9,111 788.7,111C784.7,111 779.4,111.3 776.9,112.2C775.3,112.8 774.7,114.3 774.7,117.1L774.7,220.5C774.7,244.4 774.7,265 775.9,276.4C776.8,283.8 778.4,288.7 786.4,289.9C790.4,290.5 796.3,290.8 800.4,290.8C803.5,290.8 804.7,292.3 804.7,293.6C804.7,295.4 802.5,296.4 799.7,296.4C781.4,296.4 762.2,295.5 755.1,295.5C748.9,295.5 731.5,296.4 720.7,296.4C717.3,296.4 715.4,295.5 715.4,293.6C715.4,292.4 716.3,290.8 719.7,290.8C723.7,290.8 726.8,290.5 729.3,289.9C734.9,288.7 736.4,283.8 737.4,276.1C738.6,265.1 738.6,244.5 738.6,220.5L738.6,174.7L738.8,174.7Z" style="fill:rgb(21,21,21);fill-rule:nonzero;"/>
                    <path d="M1061.9,184.2C1062.5,184.2 1063.4,183.9 1063.4,182.4L1063.4,176.9C1063.4,137.3 1063.1,127.8 1062.8,119.5C1062.2,110.6 1059.7,107.8 1051,105.4C1048.8,104.8 1044.2,104.5 1040.5,104.5C1037.4,104.5 1035.9,103.6 1035.9,101.7C1035.9,99.9 1037.8,99.2 1041.8,99.2C1056.4,99.2 1075.6,99.8 1082.7,99.8C1089.2,99.8 1107.2,99.2 1117.7,99.2C1121.7,99.2 1123.6,99.8 1123.6,101.7C1123.6,103.5 1121.7,104.5 1118.6,104.5C1116.4,104.5 1113.9,104.8 1110.5,105.4C1103.4,106.6 1101.2,110.3 1100.6,119.5C1100,127.8 1100,135.2 1100,174.7L1100,220.7C1100,244.6 1100,265.2 1101.2,276.6C1102.1,284 1103.7,288.9 1112,290.1C1115.7,290.7 1121.6,291 1126,291C1128.8,291 1130.3,292.5 1130.3,293.8C1130.3,295.6 1128.1,296.6 1124.7,296.6C1107,296.6 1089.1,295.7 1081.6,295.7C1075.4,295.7 1056.2,296.6 1045.6,296.6C1041.9,296.6 1039.7,295.7 1039.7,293.8C1039.7,292.6 1040.9,291 1044,291C1048.3,291 1051.4,290.7 1053.9,290.1C1059.5,288.9 1061,284 1062,276.3C1063.2,265.3 1063.2,245.3 1063.2,221.4L1063.2,201.4C1063.2,200.5 1062.3,199.9 1061.7,199.9L958.9,199.9C958,199.9 957,200.2 957,201.4L957,221.4C957,245.3 957.3,265.3 958.5,276.6C959.4,284 961,288.9 969,290.1C972.7,290.7 978.9,291 982.9,291C986,291 987.2,292.5 987.2,293.8C987.2,295.6 985,296.6 981.6,296.6C963.9,296.6 945,295.7 937.3,295.7C931.1,295.7 913.1,296.6 902.3,296.6C898.9,296.6 897,295.7 897,293.8C897,292.6 897.9,291 901.3,291C905.3,291 908.4,290.7 910.9,290.1C916.5,288.9 918,284 919,276.3C920.2,265.3 920.2,244.7 920.2,220.7L920.2,174.7C920.2,135.1 920.2,127.7 919.9,119.5C919.3,110.6 916.8,107.8 908.1,105.4C905.9,104.8 901.3,104.5 897.3,104.5C894.5,104.5 892.6,103.6 892.6,101.7C892.6,99.9 894.8,99.2 898.5,99.2C913.1,99.2 931,99.8 938.5,99.8C945,99.8 963.9,99.2 974.8,99.2C978.5,99.2 980.4,99.8 980.4,101.7C980.4,103.5 978.9,104.5 975.4,104.5C973.2,104.5 970.7,104.8 967.6,105.4C960.2,106.6 958,110.3 957.4,119.5C956.8,127.8 956.8,137.3 956.8,176.9L956.8,182.4C956.8,183.9 957.7,184.2 958.7,184.2L1061.9,184.2Z" style="fill:rgb(21,21,21);fill-rule:nonzero;"/>
                    <path d="M1174.4,174.7C1174.4,135.1 1174.7,127.7 1174.1,119.5C1173.5,110.3 1171,107.8 1162.3,105.4C1160.1,104.8 1155.5,104.5 1151.8,104.5C1148.7,104.5 1147.2,103.6 1147.2,101.7C1147.2,99.9 1149.1,99.2 1153.1,99.2C1167.7,99.2 1186,99.8 1194,99.8C1200.8,99.8 1219.1,99.2 1229,99.2C1233,99.2 1234.9,99.8 1234.9,101.7C1234.9,103.5 1233.3,104.5 1230.6,104.5C1227.5,104.5 1225.9,104.8 1222.5,105.4C1215.4,106.6 1213.2,110.3 1212.6,119.5C1212,127.8 1212,135.2 1212,174.7L1212,211.2C1212,249.3 1219.4,264 1232.8,274.4C1244.9,283.9 1257.9,284.8 1267.2,284.8C1279,284.8 1292.9,281.4 1303.8,271C1319,256.9 1319.6,234.2 1319.6,207.5L1319.6,174.7C1319.6,135.1 1319.3,127.7 1319,119.5C1318.4,110.6 1316.2,107.8 1307.5,105.4C1305.3,104.8 1300.7,104.5 1297.6,104.5C1294.5,104.5 1292.9,103.6 1292.9,101.7C1292.9,99.9 1294.8,99.2 1298.5,99.2C1312.5,99.2 1330.7,99.8 1331,99.8C1334.1,99.8 1352.4,99.2 1362.9,99.2C1366.6,99.2 1368.5,99.8 1368.5,101.7C1368.5,103.5 1367,104.5 1363.9,104.5C1360.8,104.5 1359.2,104.8 1355.8,105.4C1348.4,106.6 1346.5,110.3 1345.9,119.5C1345.6,127.8 1345.3,135.2 1345.3,174.7L1345.3,202.6C1345.3,231.8 1342.2,262.5 1319.3,281.2C1300.1,297.2 1279.3,299.9 1261.6,299.9C1247.3,299.9 1219.1,299.3 1199.3,282.1C1185.4,270.1 1174.5,250.8 1174.5,213L1174.5,174.7L1174.4,174.7Z" style="fill:rgb(21,21,21);fill-rule:nonzero;"/>
                    <path d="M1403.8,293.2C1399.5,291.4 1398.5,290.1 1398.5,284.3C1398.5,270.2 1399.7,253.9 1400,249.6C1400,245.6 1401.2,242.8 1403.4,242.8C1405.9,242.8 1406.2,245.3 1406.2,247.1C1406.2,250.5 1407.1,256 1408.7,260.6C1414.6,279.9 1435,286.4 1452.1,286.4C1475.7,286.4 1489.9,271.7 1489.9,253.3C1489.9,241.9 1487.1,230.6 1462.9,216.5L1447.1,207.3C1414.9,188.6 1404.3,171.1 1404.3,148.1C1404.3,116.2 1435.3,95.6 1473.1,95.6C1490.8,95.6 1504.7,98.1 1511.9,99.9C1514.4,100.5 1515.6,101.4 1515.6,103.3C1515.6,106.7 1514.7,114 1514.7,134.6C1514.7,140.1 1513.5,142.9 1511.3,142.9C1509.4,142.9 1508.5,141.4 1508.5,138.3C1508.5,135.8 1507.3,127.9 1501.4,121.1C1497.4,116.2 1488.7,108.8 1471,108.8C1451.5,108.8 1433.8,118.9 1433.8,136.7C1433.8,148.4 1438.1,157.6 1462.6,171.1L1473.8,177.2C1509.8,196.8 1520.9,216.8 1520.9,240.4C1520.9,259.7 1513.5,275.4 1493.6,289.2C1480.6,298.4 1462.6,299.9 1448,299.9C1432.3,300 1415.6,298.4 1403.8,293.2Z" style="fill:rgb(21,21,21);fill-rule:nonzero;"/>
                </g>
                <g transform="matrix(0.384453,0,0,0.384453,-3.49055,42.7699)">
                    <path d="M359.8,513.6C336.8,493.6 330.7,467.6 330.7,445.1C330.7,429.3 335.6,401.9 358.1,381.5C375,366.2 397.2,356.9 432.2,356.9C446.7,356.9 455.4,357.8 466.2,359.2C475.1,360.4 482.6,362.4 489.6,363.1C492.2,363.3 493.1,364.5 493.1,365.9C493.1,367.8 492.4,370.5 491.9,378.7C491.4,386.4 491.7,399.1 491.2,403.8C491,407.3 490.5,409.1 488.4,409.1C486.5,409.1 486.1,407.2 486.1,404C485.9,396.8 482.8,388.7 477,382.6C469.3,374.5 451,368.2 429.4,368.2C409,368.2 395.6,373.3 385.3,382.6C368.2,398.1 363.7,420.2 363.7,442.7C363.7,497.9 406.1,525.3 437.5,525.3C458.4,525.3 471,523 480.4,512.3C484.4,507.9 487.4,501.2 488.4,497C489.1,493.3 489.6,492.4 491.4,492.4C493,492.4 493.5,494 493.5,495.9C493.5,498.7 490.7,518.9 488.3,526.8C487.1,530.7 486.2,531.9 482.2,533.5C472.8,537.2 455,538.8 440,538.8C408.1,538.9 381.1,532 359.8,513.6Z" style="fill:rgb(21,21,21);fill-rule:nonzero;"/>
                    <path d="M570.7,468.4C570.7,498.1 570.7,514.1 575.6,518.3C579.6,521.8 585.7,523.4 604,523.4C616.4,523.4 625.6,523.2 631.4,516.9C634.2,513.9 637,507.4 637.5,503C637.7,500.9 638.2,499.5 640.1,499.5C641.7,499.5 642,500.7 642,503.4C642,506 640.4,523.4 638.5,530.1C637.1,535.2 635.9,536.4 623.7,536.4C606.8,536.4 594.6,535.9 584.1,535.7C573.6,535.2 565.1,535 555.5,535C552.9,535 547.8,535 542.1,535.2C536.7,535.2 530.6,535.7 525.9,535.7C522.9,535.7 521.2,535 521.2,533.4C521.2,532.2 522.1,531.5 525,531.5C528.5,531.5 531.3,531 533.4,530.6C538.1,529.7 539.3,524.6 540.2,517.8C541.4,508.1 541.4,489.7 541.4,468.4L541.4,427.6C541.4,392.3 541.4,385.8 540.9,378.4C540.4,370.5 538.6,366.8 530.8,365.2C528.9,364.7 526.1,364.5 523.1,364.5C520.5,364.5 519.1,364 519.1,362.4C519.1,360.8 520.7,360.3 524.3,360.3C535.3,360.3 550.1,361 556.4,361C562,361 579.1,360.3 588.3,360.3C591.6,360.3 593.2,360.8 593.2,362.4C593.2,364 591.8,364.5 589,364.5C586.4,364.5 582.7,364.7 579.9,365.2C573.6,366.4 571.7,370.3 571.2,378.4C570.7,385.8 570.7,392.3 570.7,427.6L570.7,468.4Z" style="fill:rgb(21,21,21);fill-rule:nonzero;"/>
                    <path d="M680.9,427.5C680.9,392.2 680.9,385.7 680.4,378.3C679.9,370.4 677.6,366.5 672.4,365.3C669.8,364.6 666.8,364.4 664,364.4C661.7,364.4 660.2,363.9 660.2,362.1C660.2,360.7 662.1,360.2 665.8,360.2C674.7,360.2 689.5,360.9 696.3,360.9C702.2,360.9 716,360.2 724.9,360.2C727.9,360.2 729.8,360.7 729.8,362.1C729.8,364 728.4,364.4 726,364.4C723.7,364.4 721.8,364.6 719,365.1C712.7,366.3 710.8,370.2 710.3,378.3C709.8,385.7 709.8,392.2 709.8,427.5L709.8,468.3C709.8,490.8 709.8,509.1 710.7,519.1C711.4,525.4 713,529.5 720.1,530.5C723.4,531 728.5,531.4 732.1,531.4C734.7,531.4 735.9,532.1 735.9,533.3C735.9,534.9 734,535.6 731.4,535.6C715.9,535.6 701.2,534.9 694.8,534.9C689.4,534.9 674.6,535.6 665.3,535.6C662.3,535.6 660.6,534.9 660.6,533.3C660.6,532.1 661.5,531.4 664.4,531.4C667.9,531.4 670.7,530.9 672.8,530.5C677.5,529.6 678.9,525.6 679.6,518.9C680.8,509.2 680.8,490.8 680.8,468.3L680.9,427.5Z" style="fill:rgb(21,21,21);fill-rule:nonzero;"/>
                    <path d="M785.7,513.6C762.7,493.6 756.6,467.6 756.6,445.1C756.6,429.3 761.5,401.9 784,381.5C800.9,366.2 823.1,356.9 858.1,356.9C872.6,356.9 881.3,357.8 892.1,359.2C901,360.4 908.5,362.4 915.5,363.1C918.1,363.3 919,364.5 919,365.9C919,367.8 918.3,370.5 917.8,378.7C917.3,386.4 917.6,399.1 917.1,403.8C916.9,407.3 916.4,409.1 914.3,409.1C912.4,409.1 912,407.2 912,404C911.8,396.8 908.7,388.7 902.9,382.6C895.2,374.5 876.9,368.2 855.3,368.2C834.9,368.2 821.5,373.3 811.2,382.6C794.1,398.1 789.6,420.2 789.6,442.7C789.6,497.9 832,525.3 863.4,525.3C884.3,525.3 896.9,523 906.3,512.3C910.3,507.9 913.3,501.2 914.3,497C915,493.3 915.5,492.4 917.3,492.4C918.9,492.4 919.4,494 919.4,495.9C919.4,498.7 916.6,518.9 914.2,526.8C913,530.7 912.1,531.9 908.1,533.5C898.7,537.2 880.9,538.8 865.9,538.8C834,538.9 807,532 785.7,513.6Z" style="fill:rgb(21,21,21);fill-rule:nonzero;"/>
                    <path d="M995.6,437.7L997.1,437.7C1005.1,429.1 1039.3,394.5 1046.1,386.6C1052.7,378.9 1057.8,373.1 1057.8,369.2C1057.8,366.6 1056.9,365 1054.5,364.6C1052.4,364.1 1051.5,363.7 1051.5,362.3C1051.5,360.7 1052.7,360.2 1055.3,360.2C1060.2,360.2 1073.1,360.9 1079.4,360.9C1086.7,360.9 1099.6,360.2 1106.8,360.2C1109.1,360.2 1110.8,360.7 1110.8,362.3C1110.8,363.9 1109.6,364.4 1107.3,364.4C1104,364.4 1098.2,365.3 1093.7,367C1086.4,369.8 1078.5,374.7 1068.4,384.4C1061.1,391.4 1025.7,426.2 1017.8,434.5C1026.2,445.4 1072.2,494.4 1081.3,503C1091.6,512.7 1102.2,523.2 1114.8,528.1C1121.8,530.9 1126.5,531.6 1129.3,531.6C1130.9,531.6 1132.3,532.1 1132.3,533.5C1132.3,535.1 1131.1,535.8 1126.7,535.8L1106.3,535.8C1099.3,535.8 1095,535.8 1090.1,535.3C1077.4,534.1 1071.1,529 1061,520.2C1050.7,511.1 1004.5,457.5 999.6,450.8L997,447.3L995.8,447.3L995.8,468.4C995.8,489.8 995.8,508.1 996.5,518.1C997,524.6 999.1,529.7 1004.9,530.6C1008.2,531.1 1013.3,531.5 1016.4,531.5C1018.3,531.5 1019.4,532.2 1019.4,533.4C1019.4,535 1017.5,535.7 1014.9,535.7C1001.8,535.7 987,535 981.1,535C975.7,535 960.9,535.7 951.6,535.7C948.6,535.7 946.9,535 946.9,533.4C946.9,532.2 947.8,531.5 950.7,531.5C954.2,531.5 957,531 959.1,530.6C963.8,529.7 965,524.6 965.9,517.8C967.1,508.1 967.1,489.7 967.1,468.4L967.1,427.6C967.1,392.3 967.1,385.8 966.6,378.4C966.1,370.5 964.3,366.8 956.5,365.2C954.6,364.7 950.6,364.5 947.4,364.5C944.8,364.5 943.4,364 943.4,362.4C943.4,360.8 945,360.3 948.6,360.3C961,360.3 975.8,361 981.4,361C987,361 1001.8,360.3 1009.8,360.3C1013.1,360.3 1014.7,360.8 1014.7,362.4C1014.7,364 1013.3,364.5 1011.4,364.5C1009.1,364.5 1007.6,364.7 1004.8,365.2C998.5,366.4 996.6,370.3 996.1,378.4C995.6,385.8 995.6,392.3 995.6,427.6L995.6,437.7Z" style="fill:rgb(21,21,21);fill-rule:nonzero;"/>
                    <path d="M1145,427.5C1145,392.2 1145,385.7 1144.5,378.3C1144,370.4 1142.2,366.7 1134.4,365.1C1132.5,364.6 1128.5,364.4 1125.3,364.4C1122.7,364.4 1121.3,363.9 1121.3,362.3C1121.3,360.7 1122.9,360.2 1126.5,360.2C1132.8,360.2 1139.6,360.4 1145.5,360.4C1151.6,360.6 1157,360.9 1160.3,360.9C1167.8,360.9 1214.4,360.9 1218.9,360.7C1223.4,360.2 1227.1,359.8 1229,359.3C1230.2,359.1 1231.6,358.4 1232.8,358.4C1234,358.4 1234.2,359.3 1234.2,360.5C1234.2,362.1 1233,364.9 1232.3,375.6C1232.1,377.9 1231.6,388.1 1231.1,390.9C1230.9,392.1 1230.4,393.5 1228.8,393.5C1227.2,393.5 1226.7,392.3 1226.7,390.3C1226.7,388.7 1226.5,384.7 1225.3,381.9C1223.7,377.7 1221.3,374.9 1209.6,373.5C1205.6,373 1181,372.6 1176.3,372.6C1175.1,372.6 1174.7,373.3 1174.7,374.9L1174.7,433.6C1174.7,435.2 1174.9,436.2 1176.3,436.2C1181.5,436.2 1208.4,436.2 1213.8,435.7C1219.4,435.2 1222.9,434.5 1225.1,432.2C1226.7,430.3 1227.7,429.2 1228.9,429.2C1229.8,429.2 1230.5,429.7 1230.5,431.1C1230.5,432.5 1229.6,436.2 1228.6,448C1228.4,452.6 1227.7,461.9 1227.7,463.5C1227.7,465.4 1227.7,467.9 1225.6,467.9C1224,467.9 1223.5,467 1223.5,465.8C1223.3,463.5 1223.3,460.5 1222.6,457.4C1221.4,452.8 1218.1,449.3 1209.5,448.3C1205,447.8 1181.8,447.6 1176.2,447.6C1175,447.6 1174.8,448.5 1174.8,449.9L1174.8,468.2C1174.8,476.1 1174.6,497.4 1174.8,504.2C1175.3,520.2 1179,523.7 1202.9,523.7C1209,523.7 1218.8,523.7 1224.9,520.9C1231,518.1 1233.8,513.2 1235.4,503.7C1235.9,501.1 1236.3,500.2 1238,500.2C1239.9,500.2 1239.9,502.1 1239.9,504.4C1239.9,509.7 1238,525.5 1236.9,530.2C1235.3,536.2 1233.1,536.2 1224.2,536.2C1206.6,536.2 1193.7,535.7 1183.6,535.5C1173.5,535 1166.3,534.8 1159.2,534.8C1156.6,534.8 1151.5,534.8 1145.8,535C1140.4,535 1134.3,535.5 1129.6,535.5C1126.6,535.5 1124.9,534.8 1124.9,533.2C1124.9,532 1125.8,531.3 1128.7,531.3C1132.2,531.3 1135,530.8 1137.1,530.4C1141.8,529.5 1143,524.4 1143.9,517.6C1145.1,507.9 1145.1,489.5 1145.1,468.2L1145.1,427.5L1145,427.5Z" style="fill:rgb(21,21,21);fill-rule:nonzero;"/>
                    <path d="M1290.8,427.5C1290.8,392.2 1290.8,385.7 1290.3,378.3C1289.8,370.4 1288,366.7 1280.2,365.1C1278.3,364.6 1274.3,364.4 1271.1,364.4C1268.5,364.4 1267.1,363.9 1267.1,362.3C1267.1,360.7 1268.7,360.2 1272.3,360.2C1284.7,360.2 1299.5,360.9 1304.4,360.9C1312.4,360.9 1330.2,360.2 1337.5,360.2C1352.3,360.2 1368,361.6 1380.6,370.2C1387.2,374.6 1396.5,386.4 1396.5,402C1396.5,419.2 1389.2,435 1365.6,454C1386.5,480 1402.6,500.6 1416.5,515C1429.6,528.5 1439.2,530.1 1442.8,530.8C1445.4,531.3 1447.5,531.5 1449.4,531.5C1451.3,531.5 1452.2,532.2 1452.2,533.4C1452.2,535.3 1450.6,535.7 1447.7,535.7L1425.4,535.7C1412.3,535.7 1406.4,534.5 1400.3,531.3C1390.2,526 1381.3,515.1 1368.2,497.2C1358.8,484.4 1348,468.7 1345,465.2C1343.8,463.8 1342.4,463.6 1340.8,463.6L1320.4,463.1C1319.2,463.1 1318.5,463.6 1318.5,465L1318.5,468.2C1318.5,489.8 1318.5,508.1 1319.7,517.9C1320.4,524.6 1321.8,529.7 1328.8,530.7C1332.3,531.2 1337.5,531.6 1340.3,531.6C1342.2,531.6 1343.1,532.3 1343.1,533.5C1343.1,535.1 1341.5,535.8 1338.4,535.8C1324.8,535.8 1307.5,535.1 1303.9,535.1C1299.4,535.1 1284.7,535.8 1275.3,535.8C1272.3,535.8 1270.6,535.1 1270.6,533.5C1270.6,532.3 1271.5,531.6 1274.4,531.6C1277.9,531.6 1280.7,531.1 1282.8,530.7C1287.5,529.8 1288.7,524.7 1289.6,517.9C1290.8,508.2 1290.8,489.8 1290.8,468.5L1290.8,427.5ZM1318.5,445.9C1318.5,448.5 1319,449.4 1320.6,450.1C1325.5,451.7 1332.6,452.4 1338.4,452.4C1347.8,452.4 1350.8,451.5 1355,448.5C1362,443.4 1368.8,432.7 1368.8,413.7C1368.8,380.7 1346.8,371.2 1332.9,371.2C1327,371.2 1322.8,371.4 1320.5,372.1C1318.9,372.6 1318.4,373.5 1318.4,375.3L1318.5,445.9Z" style="fill:rgb(21,21,21);fill-rule:nonzero;"/>
                </g>
                <g transform="matrix(0.384453,0,0,0.384453,-3.49055,31.1699)">
                    <path d="M63.7,343.4C58.1,341 57.1,339.3 57.1,331.6C57.1,312.6 58.5,291.8 58.8,286.3C59.1,281.1 60.2,277.3 63,277.3C66.1,277.3 66.5,280.4 66.5,283.2C66.5,287.7 67.9,295 69.6,300.8C77.3,326.4 97.9,335.7 119.5,335.7C150.9,335.7 166.3,314.6 166.3,296.3C166.3,279.4 161.1,263.5 132.1,241L116,228.6C77.6,198.9 64.3,174.7 64.3,146.7C64.3,108.7 96.4,81.4 145,81.4C167.7,81.4 182.4,84.9 191.4,87.3C194.5,88 196.3,89 196.3,91.4C196.3,95.9 194.9,105.9 194.9,132.9C194.9,140.5 193.9,143.3 191.1,143.3C188.7,143.3 187.6,141.2 187.6,137.1C187.6,134 185.9,123.3 178.5,114.3C173.3,107.7 163.1,97.4 140.4,97.4C114.6,97.4 98.9,112.3 98.9,133C98.9,148.9 106.9,161 135.9,182.8L145.7,190.1C187.9,221.6 203,245.4 203,278.3C203,298.3 195.3,322.2 170.2,338.4C152.7,349.5 133.2,352.6 114.7,352.6C94.4,352.4 78.7,350 63.7,343.4Z" style="fill:rgb(21,21,21);fill-rule:nonzero;"/>
                </g>
                <g transform="matrix(0.384453,0,0,0.384453,-3.49055,31.1699)">
                    <path d="M283.5,164.9C283.5,125.3 283.5,117.9 283.2,109.7C282.6,100.8 279.8,97.7 273.9,95.9C270.8,95 267.4,94.7 264,94.7C261.2,94.7 259.7,94.1 259.7,91.6C259.7,90.1 261.9,89.5 266.2,89.5C276.4,89.5 295,90.1 302.8,90.1C309.6,90.1 327.3,89.5 337.8,89.5C341.2,89.5 343.4,90.1 343.4,91.6C343.4,94.1 341.9,94.7 339.1,94.7C336.3,94.7 334.1,95 331,95.6C323.6,96.8 321.4,100.5 320.8,109.7C320.2,118 320.2,125.4 320.2,164.9L320.2,210.9C320.2,236.1 320.2,256.9 321.4,268C322.3,275.1 324.2,279 332.2,280.3C335.9,280.9 342.1,281.2 346.2,281.2C349.3,281.2 350.5,282.7 350.5,284C350.5,285.8 348.3,286.8 345.2,286.8C327.2,286.8 308.6,285.9 301.2,285.9C295,285.9 276.4,286.8 265.6,286.8C262.2,286.8 260.3,285.9 260.3,284C260.3,282.8 261.2,281.2 264.6,281.2C268.6,281.2 271.7,280.9 274.2,280.3C279.8,279.1 281.3,275.4 282.3,267.7C283.5,257 283.5,236.1 283.5,210.9L283.5,164.9Z" style="fill:rgb(242,221,29);fill-rule:nonzero;stroke:rgb(114,115,48);stroke-width:1.98px;"/>
                    <path d="M391.7,283.3C387.4,281.5 386.4,280.2 386.4,274.4C386.4,260.3 387.6,244 388,239.7C388,235.7 389.2,232.9 391.4,232.9C393.9,232.9 394.2,235.4 394.2,237.2C394.2,240.6 395.1,246.1 396.7,250.7C402.6,270 423,276.5 440.1,276.5C463.7,276.5 477.9,261.8 477.9,243.4C477.9,232 475.1,220.7 450.9,206.6L435.1,197.4C402.9,178.7 392.3,161.2 392.3,138.2C392.3,106.3 423.3,85.7 461.1,85.7C478.8,85.7 492.7,88.2 499.8,90C502.3,90.6 503.5,91.5 503.5,93.4C503.5,96.8 502.6,104.1 502.6,124.7C502.6,130.2 501.4,133 499.2,133C497.3,133 496.4,131.5 496.4,128.4C496.4,125.9 495.2,118 489.3,111.2C485.3,106.3 476.6,98.9 458.9,98.9C439.4,98.9 421.7,109 421.7,126.8C421.7,138.5 426,147.7 450.5,161.2L461.7,167.3C497.7,186.9 508.8,206.9 508.8,230.5C508.8,249.8 501.4,265.5 481.5,279.3C468.5,288.5 450.5,290 435.9,290C420.2,290.1 403.5,288.5 391.7,283.3Z" style="fill:rgb(242,221,29);fill-rule:nonzero;stroke:rgb(114,115,48);stroke-width:1.98px;"/>
                    <path d="M600.3,218.9C600.3,204.8 597.8,199.3 594.1,191.6C592.2,187.6 555,130.2 545.4,116.4C538.6,106.9 533,100.7 527.7,98C524.3,96.2 519.6,94.6 516.2,94.6C514,94.6 512.2,93.7 512.2,91.8C512.2,90 514.1,89.3 517.5,89.3C522.2,89.3 542.6,89.9 551.6,89.9C557.5,89.9 570.2,89.3 582.6,89.3C585.1,89.3 586.6,89.9 586.6,91.8C586.6,93.9 584.7,93.9 580.4,95.2C578.2,95.8 576.7,97 576.7,99.2C576.7,101.4 577.9,104.4 580.1,108.1C585.1,116.1 620.7,177.2 625.4,184.5C628.8,178.4 662,122.5 666,114.5C668.8,108.7 670,104.1 670,100.7C670,98.2 668.8,95.8 664.1,94.9C661.6,94.3 659.1,94 659.1,91.8C659.1,90 660.7,89.3 663.7,89.3C672.7,89.3 682.3,89.9 690.4,89.9C696.3,89.9 714.3,89.3 719.5,89.3C722.6,89.3 724.5,89.9 724.5,91.4C724.5,93.2 722.3,94.5 719.2,94.5C716.4,94.5 711.4,95.7 707.4,97.6C701.5,100.4 699,102.8 693.1,109.9C684.1,120.3 645.1,182.3 640.1,193.4C636.1,202.9 636.7,210.9 636.7,219.5L636.7,240.4C636.7,244.7 636.7,255.4 637.3,266.5C637.9,274.2 640.4,279.1 648.5,280.3C652.5,280.9 658.4,281.2 662.1,281.2C665.2,281.2 666.7,282.7 666.7,284C666.7,285.8 664.5,286.8 660.8,286.8C643.8,286.8 625.5,285.9 618,285.9C611.2,285.9 592.9,286.8 582.7,286.8C579,286.8 576.8,286.2 576.8,284C576.8,282.8 578,281.2 581.1,281.2C584.8,281.2 588.2,280.9 590.7,280.3C596.3,279.1 598.5,274.2 599.1,266.5C600,255.5 600,244.7 600,240.4L600,218.9L600.3,218.9Z" style="fill:rgb(242,221,29);fill-rule:nonzero;stroke:rgb(114,115,48);stroke-width:1.98px;"/>
                    <path d="M750.7,164.9C750.7,125.3 750.7,117.9 750.4,109.7C749.8,100.8 747.3,98 738.6,95.6C736.4,95 731.8,94.7 727.7,94.7C724.9,94.7 723.1,93.8 723.1,91.9C723.1,90.1 725.3,89.4 729.3,89.4C743.6,89.4 760.9,90 768.7,90C779.9,90 801.6,89.4 814,89.4C848.1,89.4 860.5,100.4 864.8,104.1C870.7,109.6 878.4,121.3 878.4,135.4C878.4,172.2 848.6,198.6 809.9,198.6C808.7,198.6 803.1,198.6 801.8,198.3C800.3,198.3 798.4,197.4 798.4,195.5C798.4,193.4 801.5,192.1 807.4,192.1C822.6,192.1 844,176.4 844,149.7C844,141.1 843.1,123.9 827.9,111C818,102.4 806.8,101.2 800.6,101.2C796.6,101.2 791.3,101.5 788.8,102.4C787.2,103 786.6,104.5 786.6,107.3L786.6,210.7C786.6,234.6 786.6,255.2 787.8,266.6C788.7,274 790.3,278.9 798.3,280.1C802.3,280.7 808.2,281 812.2,281C815.3,281 816.5,282.5 816.5,283.8C816.5,285.6 814.3,286.6 811.5,286.6C793.2,286.6 774,285.7 766.9,285.7C760.7,285.7 743.3,286.6 732.5,286.6C729.1,286.6 727.2,285.7 727.2,283.8C727.2,282.6 728.1,281 731.5,281C735.5,281 738.6,280.7 741.1,280.1C746.7,278.9 748.2,274 749.2,266.3C750.4,255.3 750.4,234.7 750.4,210.7L750.4,164.9L750.7,164.9Z" style="fill:rgb(242,221,29);fill-rule:nonzero;stroke:rgb(114,115,48);stroke-width:1.98px;"/>
                    <path d="M1073.7,174.4C1074.3,174.4 1075.3,174.1 1075.3,172.6L1075.3,167C1075.3,127.4 1075,117.9 1074.7,109.6C1074.1,100.7 1071.6,97.9 1062.9,95.5C1060.7,94.9 1056.1,94.6 1052.4,94.6C1049.3,94.6 1047.8,93.7 1047.8,91.8C1047.8,90 1049.7,89.3 1053.7,89.3C1068.3,89.3 1087.5,89.9 1094.6,89.9C1101.1,89.9 1119.1,89.3 1129.6,89.3C1133.6,89.3 1135.5,89.9 1135.5,91.8C1135.5,93.6 1133.6,94.6 1130.5,94.6C1128.3,94.6 1125.8,94.9 1122.4,95.5C1115.3,96.7 1113.1,100.4 1112.5,109.6C1111.9,117.9 1111.9,125.3 1111.9,164.8L1111.9,210.8C1111.9,234.7 1111.9,255.3 1113.1,266.7C1114,274.1 1115.6,279 1123.9,280.2C1127.6,280.8 1133.5,281.1 1137.9,281.1C1140.7,281.1 1142.2,282.6 1142.2,283.9C1142.2,285.7 1140,286.7 1136.6,286.7C1118.9,286.7 1101,285.8 1093.5,285.8C1087.3,285.8 1068.1,286.7 1057.5,286.7C1053.8,286.7 1051.6,285.8 1051.6,283.9C1051.6,282.7 1052.8,281.1 1055.9,281.1C1060.2,281.1 1063.3,280.8 1065.8,280.2C1071.4,279 1072.9,274.1 1073.9,266.4C1075.1,255.4 1075.1,235.4 1075.1,211.5L1075.1,191.5C1075.1,190.6 1074.2,190 1073.5,190L970.8,190C969.9,190 968.9,190.3 968.9,191.5L968.9,211.5C968.9,235.4 969.2,255.4 970.4,266.7C971.3,274.1 972.9,279 980.9,280.2C984.6,280.8 990.8,281.1 994.8,281.1C997.9,281.1 999.1,282.6 999.1,283.9C999.1,285.7 996.9,286.7 993.5,286.7C975.8,286.7 956.9,285.8 949.2,285.8C943,285.8 925,286.7 914.2,286.7C910.8,286.7 908.9,285.8 908.9,283.9C908.9,282.7 909.8,281.1 913.2,281.1C917.2,281.1 920.3,280.8 922.8,280.2C928.4,279 929.9,274.1 930.9,266.4C932.1,255.4 932.1,234.8 932.1,210.8L932.1,164.8C932.1,125.2 932.1,117.8 931.8,109.6C931.2,100.7 928.7,97.9 920,95.5C917.8,94.9 913.2,94.6 909.2,94.6C906.4,94.6 904.5,93.7 904.5,91.8C904.5,90 906.7,89.3 910.4,89.3C925,89.3 942.9,89.9 950.4,89.9C956.9,89.9 975.8,89.3 986.7,89.3C990.4,89.3 992.3,89.9 992.3,91.8C992.3,93.6 990.8,94.6 987.3,94.6C985.1,94.6 982.6,94.9 979.5,95.5C972.1,96.7 969.9,100.4 969.3,109.6C968.7,117.9 968.7,127.4 968.7,167L968.7,172.5C968.7,174 969.6,174.3 970.6,174.3L1073.7,174.4Z" style="fill:rgb(242,221,29);fill-rule:nonzero;stroke:rgb(114,115,48);stroke-width:1.98px;"/>
                    <path d="M1186.2,164.9C1186.2,125.3 1186.5,117.9 1185.9,109.7C1185.3,100.5 1182.8,98 1174.1,95.6C1171.9,95 1167.3,94.7 1163.6,94.7C1160.5,94.7 1159,93.8 1159,91.9C1159,90.1 1160.9,89.4 1164.9,89.4C1179.5,89.4 1197.8,90 1205.8,90C1212.6,90 1230.9,89.4 1240.8,89.4C1244.8,89.4 1246.7,90 1246.7,91.9C1246.7,93.7 1245.2,94.7 1242.4,94.7C1239.3,94.7 1237.7,95 1234.3,95.6C1227.2,96.8 1225,100.5 1224.4,109.7C1223.8,118 1223.8,125.4 1223.8,164.9L1223.8,201.4C1223.8,239.5 1231.2,254.2 1244.6,264.6C1256.7,274.1 1269.7,275 1279,275C1290.8,275 1304.7,271.6 1315.6,261.2C1330.8,247.1 1331.4,224.4 1331.4,197.7L1331.4,164.9C1331.4,125.3 1331.1,117.9 1330.8,109.7C1330.2,100.8 1328,98 1319.3,95.6C1317.1,95 1312.5,94.7 1309.4,94.7C1306.3,94.7 1304.8,93.8 1304.8,91.9C1304.8,90.1 1306.7,89.4 1310.4,89.4C1324.4,89.4 1342.6,90 1342.9,90C1346,90 1364.3,89.4 1374.8,89.4C1378.5,89.4 1380.4,90 1380.4,91.9C1380.4,93.7 1378.9,94.7 1375.8,94.7C1372.7,94.7 1371.1,95 1367.7,95.6C1360.3,96.8 1358.4,100.5 1357.8,109.7C1357.5,118 1357.2,125.4 1357.2,164.9L1357.2,192.8C1357.2,222 1354.1,252.7 1331.2,271.4C1312,287.4 1291.2,290.1 1273.5,290.1C1259.2,290.1 1231,289.5 1211.2,272.3C1197.3,260.3 1186.4,241 1186.4,203.2L1186.4,164.9L1186.2,164.9Z" style="fill:rgb(242,221,29);fill-rule:nonzero;stroke:rgb(114,115,48);stroke-width:1.98px;"/>
                    <path d="M1415.6,283.3C1411.3,281.5 1410.3,280.2 1410.3,274.4C1410.3,260.3 1411.5,244 1411.8,239.7C1411.8,235.7 1413,232.9 1415.2,232.9C1417.7,232.9 1418,235.4 1418,237.2C1418,240.6 1418.9,246.1 1420.5,250.7C1426.4,270 1446.8,276.5 1463.9,276.5C1487.5,276.5 1501.7,261.8 1501.7,243.4C1501.7,232 1498.9,220.7 1474.7,206.6L1458.9,197.4C1426.7,178.7 1416.1,161.2 1416.1,138.2C1416.1,106.3 1447.1,85.7 1484.9,85.7C1502.6,85.7 1516.5,88.2 1523.7,90C1526.2,90.6 1527.4,91.5 1527.4,93.4C1527.4,96.8 1526.5,104.1 1526.5,124.7C1526.5,130.2 1525.3,133 1523.1,133C1521.2,133 1520.3,131.5 1520.3,128.4C1520.3,125.9 1519.1,118 1513.2,111.2C1509.2,106.3 1500.5,98.9 1482.8,98.9C1463.3,98.9 1445.6,109 1445.6,126.8C1445.6,138.5 1449.9,147.7 1474.4,161.2L1485.6,167.3C1521.6,186.9 1532.7,206.9 1532.7,230.5C1532.7,249.8 1525.3,265.5 1505.4,279.3C1492.4,288.5 1474.4,290 1459.8,290C1444.2,290.1 1427.4,288.5 1415.6,283.3Z" style="fill:rgb(242,221,29);fill-rule:nonzero;stroke:rgb(114,115,48);stroke-width:1.98px;"/>
                </g>
                <g transform="matrix(0.384453,0,0,0.384453,-3.49055,42.7699)">
                    <path d="M371.6,503.8C348.6,483.8 342.5,457.8 342.5,435.3C342.5,419.5 347.4,392.1 369.9,371.7C386.8,356.4 409,347.1 444,347.1C458.5,347.1 467.2,348 478,349.4C486.9,350.6 494.4,352.6 501.4,353.3C504,353.5 504.9,354.7 504.9,356.1C504.9,358 504.2,360.7 503.7,368.9C503.2,376.6 503.5,389.3 503,394C502.8,397.5 502.3,399.3 500.2,399.3C498.3,399.3 497.9,397.4 497.9,394.2C497.7,387 494.6,378.9 488.8,372.8C481.1,364.7 462.8,358.4 441.2,358.4C420.8,358.4 407.4,363.5 397.1,372.8C380,388.3 375.5,410.4 375.5,432.9C375.5,488.1 417.9,515.5 449.3,515.5C470.2,515.5 482.8,513.2 492.2,502.5C496.2,498.1 499.2,491.4 500.2,487.2C500.9,483.5 501.4,482.6 503.2,482.6C504.8,482.6 505.3,484.2 505.3,486.1C505.3,488.9 502.5,509.1 500.1,517C498.9,520.9 498,522.1 494,523.7C484.6,527.4 466.8,529 451.8,529C419.9,529.1 393,522.1 371.6,503.8Z" style="fill:rgb(242,221,29);fill-rule:nonzero;stroke:rgb(114,115,48);stroke-width:1.98px;"/>
                    <path d="M582.6,458.5C582.6,488.2 582.6,504.2 587.5,508.4C591.5,511.9 597.6,513.5 615.9,513.5C628.3,513.5 637.5,513.3 643.3,507C646.1,504 648.9,497.5 649.4,493.1C649.6,491 650.1,489.6 652,489.6C653.6,489.6 653.9,490.8 653.9,493.5C653.9,496.1 652.3,513.5 650.4,520.2C649,525.3 647.8,526.5 635.6,526.5C618.7,526.5 606.5,526 596,525.8C585.5,525.3 577,525.1 567.4,525.1C564.8,525.1 559.7,525.1 554,525.3C548.6,525.3 542.5,525.8 537.8,525.8C534.8,525.8 533.1,525.1 533.1,523.5C533.1,522.3 534,521.6 536.9,521.6C540.4,521.6 543.2,521.1 545.3,520.7C550,519.8 551.2,514.7 552.1,507.9C553.3,498.2 553.3,479.8 553.3,458.5L553.3,417.7C553.3,382.4 553.3,375.9 552.8,368.5C552.3,360.6 550.5,356.9 542.7,355.3C540.8,354.8 538,354.6 535,354.6C532.4,354.6 531,354.1 531,352.5C531,350.9 532.6,350.4 536.2,350.4C547.2,350.4 562,351.1 568.3,351.1C573.9,351.1 591,350.4 600.2,350.4C603.5,350.4 605.1,350.9 605.1,352.5C605.1,354.1 603.7,354.6 600.9,354.6C598.3,354.6 594.6,354.8 591.8,355.3C585.5,356.5 583.6,360.4 583.1,368.5C582.6,375.9 582.6,382.4 582.6,417.7L582.6,458.5Z" style="fill:rgb(242,221,29);fill-rule:nonzero;stroke:rgb(114,115,48);stroke-width:1.98px;"/>
                    <path d="M692.8,417.7C692.8,382.4 692.8,375.9 692.3,368.5C691.8,360.6 689.5,356.7 684.3,355.5C681.7,354.8 678.7,354.6 675.9,354.6C673.6,354.6 672.1,354.1 672.1,352.3C672.1,350.9 674,350.4 677.7,350.4C686.6,350.4 701.4,351.1 708.2,351.1C714.1,351.1 727.9,350.4 736.8,350.4C739.8,350.4 741.7,350.9 741.7,352.3C741.7,354.2 740.3,354.6 737.9,354.6C735.6,354.6 733.7,354.8 730.9,355.3C724.6,356.5 722.7,360.4 722.2,368.5C721.7,375.9 721.7,382.4 721.7,417.7L721.7,458.5C721.7,481 721.7,499.3 722.6,509.3C723.3,515.6 724.9,519.7 732,520.7C735.3,521.2 740.4,521.6 744,521.6C746.6,521.6 747.8,522.3 747.8,523.5C747.8,525.1 745.9,525.8 743.3,525.8C727.8,525.8 713.1,525.1 706.7,525.1C701.3,525.1 686.5,525.8 677.2,525.8C674.2,525.8 672.5,525.1 672.5,523.5C672.5,522.3 673.4,521.6 676.3,521.6C679.8,521.6 682.6,521.1 684.7,520.7C689.4,519.8 690.8,515.8 691.5,509.1C692.7,499.4 692.7,481 692.7,458.5L692.8,417.7Z" style="fill:rgb(242,221,29);fill-rule:nonzero;stroke:rgb(114,115,48);stroke-width:1.98px;"/>
                    <path d="M797.5,503.8C774.5,483.8 768.4,457.8 768.4,435.3C768.4,419.5 773.3,392.1 795.8,371.7C812.7,356.4 834.9,347.1 869.9,347.1C884.4,347.1 893.1,348 903.9,349.4C912.8,350.6 920.3,352.6 927.3,353.3C929.9,353.5 930.8,354.7 930.8,356.1C930.8,358 930.1,360.7 929.6,368.9C929.1,376.6 929.4,389.3 928.9,394C928.7,397.5 928.2,399.3 926.1,399.3C924.2,399.3 923.8,397.4 923.8,394.2C923.6,387 920.5,378.9 914.7,372.8C907,364.7 888.7,358.4 867.1,358.4C846.7,358.4 833.3,363.5 823,372.8C805.9,388.3 801.4,410.4 801.4,432.9C801.4,488.1 843.8,515.5 875.2,515.5C896.1,515.5 908.7,513.2 918.1,502.5C922.1,498.1 925.1,491.4 926.1,487.2C926.8,483.5 927.3,482.6 929.1,482.6C930.7,482.6 931.2,484.2 931.2,486.1C931.2,488.9 928.4,509.1 926,517C924.8,520.9 923.9,522.1 919.9,523.7C910.5,527.4 892.7,529 877.7,529C845.8,529.1 818.9,522.1 797.5,503.8Z" style="fill:rgb(242,221,29);fill-rule:nonzero;stroke:rgb(114,115,48);stroke-width:1.98px;"/>
                    <path d="M1007.5,427.9L1009,427.9C1017,419.3 1051.2,384.7 1058,376.8C1064.6,369.1 1069.7,363.3 1069.7,359.4C1069.7,356.8 1068.8,355.2 1066.4,354.8C1064.3,354.3 1063.4,353.9 1063.4,352.5C1063.4,350.9 1064.6,350.4 1067.2,350.4C1072.1,350.4 1085,351.1 1091.3,351.1C1098.6,351.1 1111.5,350.4 1118.7,350.4C1121,350.4 1122.7,350.9 1122.7,352.5C1122.7,354.1 1121.5,354.6 1119.2,354.6C1115.9,354.6 1110.1,355.5 1105.6,357.2C1098.3,360 1090.4,364.9 1080.3,374.6C1073,381.6 1037.6,416.4 1029.7,424.7C1038.1,435.6 1084.1,484.6 1093.2,493.2C1103.5,502.9 1114.1,513.4 1126.7,518.3C1133.7,521.1 1138.4,521.8 1141.2,521.8C1142.8,521.8 1144.2,522.3 1144.2,523.7C1144.2,525.3 1143,526 1138.6,526L1118.2,526C1111.2,526 1106.9,526 1102,525.5C1089.3,524.3 1083,519.2 1072.9,510.4C1062.6,501.3 1016.4,447.7 1011.5,441L1008.9,437.5L1007.7,437.5L1007.7,458.6C1007.7,480 1007.7,498.3 1008.4,508.3C1008.9,514.8 1011,519.9 1016.8,520.8C1020.1,521.3 1025.2,521.7 1028.3,521.7C1030.2,521.7 1031.3,522.4 1031.3,523.6C1031.3,525.2 1029.4,525.9 1026.8,525.9C1013.7,525.9 998.9,525.2 993,525.2C987.6,525.2 972.8,525.9 963.5,525.9C960.5,525.9 958.8,525.2 958.8,523.6C958.8,522.4 959.7,521.7 962.6,521.7C966.1,521.7 968.9,521.2 971,520.8C975.7,519.9 976.9,514.8 977.8,508C979,498.3 979,479.9 979,458.6L979,417.8C979,382.5 979,376 978.5,368.6C978,360.7 976.2,357 968.4,355.4C966.5,354.9 962.5,354.7 959.3,354.7C956.7,354.7 955.3,354.2 955.3,352.6C955.3,351 956.9,350.5 960.5,350.5C972.9,350.5 987.7,351.2 993.3,351.2C998.9,351.2 1013.7,350.5 1021.7,350.5C1025,350.5 1026.6,351 1026.6,352.6C1026.6,354.2 1025.2,354.7 1023.3,354.7C1021,354.7 1019.5,354.9 1016.7,355.4C1010.4,356.6 1008.5,360.5 1008,368.6C1007.5,376 1007.5,382.5 1007.5,417.8L1007.5,427.9Z" style="fill:rgb(242,221,29);fill-rule:nonzero;stroke:rgb(114,115,48);stroke-width:1.98px;"/>
                    <path d="M1156.9,417.7C1156.9,382.4 1156.9,375.9 1156.4,368.5C1155.9,360.6 1154.1,356.9 1146.3,355.3C1144.4,354.8 1140.4,354.6 1137.2,354.6C1134.6,354.6 1133.2,354.1 1133.2,352.5C1133.2,350.9 1134.8,350.4 1138.4,350.4C1144.7,350.4 1151.5,350.6 1157.4,350.6C1163.5,350.8 1168.9,351.1 1172.2,351.1C1179.7,351.1 1226.3,351.1 1230.8,350.9C1235.3,350.4 1239,350 1240.9,349.5C1242.1,349.3 1243.5,348.6 1244.7,348.6C1245.9,348.6 1246.1,349.5 1246.1,350.7C1246.1,352.3 1244.9,355.1 1244.2,365.8C1244,368.1 1243.5,378.3 1243,381.1C1242.8,382.3 1242.3,383.7 1240.7,383.7C1239.1,383.7 1238.6,382.5 1238.6,380.5C1238.6,378.9 1238.4,374.9 1237.2,372.1C1235.6,367.9 1233.2,365.1 1221.5,363.7C1217.5,363.2 1192.9,362.8 1188.2,362.8C1187,362.8 1186.6,363.5 1186.6,365.1L1186.6,423.8C1186.6,425.4 1186.8,426.4 1188.2,426.4C1193.4,426.4 1220.3,426.4 1225.7,425.9C1231.3,425.4 1234.8,424.7 1237,422.4C1238.6,420.5 1239.6,419.4 1240.8,419.4C1241.7,419.4 1242.4,419.9 1242.4,421.3C1242.4,422.7 1241.5,426.4 1240.5,438.2C1240.3,442.8 1239.6,452.1 1239.6,453.7C1239.6,455.6 1239.6,458.1 1237.5,458.1C1235.9,458.1 1235.4,457.2 1235.4,456C1235.2,453.7 1235.2,450.7 1234.5,447.6C1233.3,443 1230,439.5 1221.4,438.5C1216.9,438 1193.7,437.8 1188.1,437.8C1186.9,437.8 1186.7,438.7 1186.7,440.1L1186.7,458.4C1186.7,466.3 1186.5,487.6 1186.7,494.4C1187.2,510.4 1190.9,513.9 1214.8,513.9C1220.9,513.9 1230.7,513.9 1236.8,511.1C1242.9,508.3 1245.7,503.4 1247.3,493.9C1247.8,491.3 1248.2,490.4 1249.9,490.4C1251.8,490.4 1251.8,492.3 1251.8,494.6C1251.8,499.9 1249.9,515.7 1248.8,520.4C1247.2,526.4 1245,526.4 1236.1,526.4C1218.5,526.4 1205.6,525.9 1195.5,525.7C1185.4,525.2 1178.2,525 1171.1,525C1168.5,525 1163.4,525 1157.7,525.2C1152.3,525.2 1146.2,525.7 1141.5,525.7C1138.5,525.7 1136.8,525 1136.8,523.4C1136.8,522.2 1137.7,521.5 1140.6,521.5C1144.1,521.5 1146.9,521 1149,520.6C1153.7,519.7 1154.9,514.6 1155.8,507.8C1157,498.1 1157,479.7 1157,458.4L1157,417.7L1156.9,417.7Z" style="fill:rgb(242,221,29);fill-rule:nonzero;stroke:rgb(114,115,48);stroke-width:1.98px;"/>
                    <path d="M1302.7,417.7C1302.7,382.4 1302.7,375.9 1302.2,368.5C1301.7,360.6 1299.9,356.9 1292.1,355.3C1290.2,354.8 1286.2,354.6 1283,354.6C1280.4,354.6 1279,354.1 1279,352.5C1279,350.9 1280.6,350.4 1284.2,350.4C1296.6,350.4 1311.4,351.1 1316.3,351.1C1324.3,351.1 1342.1,350.4 1349.4,350.4C1364.2,350.4 1379.9,351.8 1392.5,360.4C1399.1,364.8 1408.4,376.6 1408.4,392.2C1408.4,409.4 1401.1,425.2 1377.5,444.2C1398.4,470.2 1414.5,490.8 1428.4,505.2C1441.5,518.7 1451.1,520.3 1454.7,521C1457.3,521.5 1459.4,521.7 1461.3,521.7C1463.2,521.7 1464.1,522.4 1464.1,523.6C1464.1,525.5 1462.5,525.9 1459.6,525.9L1437.3,525.9C1424.2,525.9 1418.3,524.7 1412.2,521.5C1402.1,516.2 1393.2,505.3 1380.1,487.4C1370.7,474.6 1359.9,458.9 1356.9,455.4C1355.7,454 1354.3,453.8 1352.7,453.8L1332.3,453.3C1331.1,453.3 1330.4,453.8 1330.4,455.2L1330.4,458.4C1330.4,480 1330.4,498.3 1331.6,508.1C1332.3,514.8 1333.7,519.9 1340.7,520.9C1344.2,521.4 1349.4,521.8 1352.2,521.8C1354.1,521.8 1355,522.5 1355,523.7C1355,525.3 1353.4,526 1350.3,526C1336.7,526 1319.4,525.3 1315.8,525.3C1311.3,525.3 1296.6,526 1287.2,526C1284.2,526 1282.5,525.3 1282.5,523.7C1282.5,522.5 1283.4,521.8 1286.3,521.8C1289.8,521.8 1292.6,521.3 1294.7,520.9C1299.4,520 1300.6,514.9 1301.5,508.1C1302.7,498.4 1302.7,480 1302.7,458.7L1302.7,417.7ZM1330.3,436C1330.3,438.6 1330.8,439.5 1332.4,440.2C1337.3,441.8 1344.4,442.5 1350.2,442.5C1359.6,442.5 1362.6,441.6 1366.8,438.6C1373.8,433.5 1380.6,422.8 1380.6,403.8C1380.6,370.8 1358.6,361.3 1344.7,361.3C1338.8,361.3 1334.6,361.5 1332.3,362.2C1330.7,362.7 1330.2,363.6 1330.2,365.4L1330.3,436Z" style="fill:rgb(242,221,29);fill-rule:nonzero;stroke:rgb(114,115,48);stroke-width:1.98px;"/>
                </g>
                <g transform="matrix(0.384453,0,0,0.384453,-3.49055,31.1699)">
                    <path d="M75.6,333.6C70,331.2 69,329.5 69,321.8C69,302.8 70.4,282 70.7,276.5C71,271.3 72.1,267.5 74.9,267.5C78,267.5 78.4,270.6 78.4,273.4C78.4,277.9 79.8,285.2 81.5,291C89.2,316.6 109.8,325.9 131.4,325.9C162.8,325.9 178.2,304.8 178.2,286.5C178.2,269.6 173,253.7 144,231.2L127.9,218.8C89.5,189.1 76.2,164.9 76.2,136.9C76.2,98.9 108.3,71.6 156.9,71.6C179.6,71.6 194.3,75.1 203.3,77.5C206.4,78.2 208.2,79.2 208.2,81.6C208.2,86.1 206.8,96.1 206.8,123.1C206.8,130.7 205.8,133.5 203,133.5C200.6,133.5 199.5,131.4 199.5,127.3C199.5,124.2 197.8,113.5 190.4,104.5C185.2,97.9 175,87.6 152.3,87.6C126.5,87.6 110.8,102.5 110.8,123.2C110.8,139.1 118.8,151.2 147.8,173L157.6,180.3C199.8,211.8 214.9,235.6 214.9,268.5C214.9,288.5 207.2,312.4 182.1,328.6C164.6,339.7 145.1,342.8 126.6,342.8C106.3,342.5 90.6,340.1 75.6,333.6Z" style="fill:rgb(242,221,29);fill-rule:nonzero;stroke:rgb(114,115,48);stroke-width:1.98px;"/>
                </g>
            </g>
        </g>
    </g>
</svg>
