<svg xmlns="http://www.w3.org/2000/svg" xmlns:xlink="http://www.w3.org/1999/xlink" width="100%" height="100%" version="1.1" viewBox="0 0 1000 1000" xml:space="preserve" style="fill-rule:evenodd;clip-rule:evenodd;stroke-linecap:round;stroke-miterlimit:1.5"><g id="G_Blade"><g><path d="M422.006,223.263L422.006,371.193L595.754,466.092L595.754,223.961L422.006,223.263Z" style="fill:#dfe2e2" transform="matrix(1,0,0,1,0,-26.3449) matrix(1,0,0,1,0,35.2992)"/><path d="M422.006,223.263L422.006,371.193L595.754,466.092L595.754,223.961L422.006,223.263ZM426.172,227.447L591.588,228.111C591.588,228.111 591.588,459.069 591.588,459.069C591.588,459.069 426.172,368.722 426.172,368.722C426.172,368.722 426.172,227.447 426.172,227.447L426.172,227.447Z" style="fill:#001742" transform="matrix(1,0,0,1,0,-26.3449) matrix(1,0,0,1,0,35.2992)"/></g><g><path d="M422.006,344.112L595.754,439.01L595.754,223.961L422.006,223.263L422.006,344.112Z" style="fill:#a7a7a7" transform="matrix(1,0,0,1,0,-26.3449) matrix(0.955776,0,0,0.955776,22.5046,49.9434)"/></g><path d="M477.129,302.811L377.348,302.811L377.348,196.747L486.592,196.747C488.153,187.524 496.189,180.489 505.855,180.489C515.522,180.489 523.558,187.524 525.119,196.747L639.715,196.747L639.715,302.811L535.722,302.811C535.844,301.724 535.907,300.617 535.907,299.496C535.907,283.225 522.697,270.015 506.425,270.015C490.154,270.015 476.944,283.225 476.944,299.496C476.944,300.617 477.007,301.724 477.129,302.811Z" style="fill:#ffb849;stroke:#1e1f2a;stroke-width:5.21px" transform="matrix(1,0,0,1,0,-26.3449)"/></g><g id="G_Structure"><g transform="matrix(0.633293,0.408275,-0.854649,1.32568,786.195,-401.574)"><rect width="30.725" height="161.841" x="309.086" y="727.166" style="fill:#ffb849;stroke:#1e1f2a;stroke-width:6.74px;stroke-linejoin:round"/></g><g transform="matrix(0.636212,-0.403711,0.845096,1.33179,-175.074,-143.063)"><rect width="30.725" height="161.841" x="309.086" y="727.166" style="fill:#ffb849;stroke:#1e1f2a;stroke-width:6.74px;stroke-linejoin:round"/></g><g><path d="M461.148,712.418L403.842,712.418L403.842,631.3L614.05,631.3L614.05,712.418L554.472,712.418C554.55,711.314 554.589,710.202 554.589,709.082C554.589,683.264 533.628,662.302 507.81,662.302C481.991,662.302 461.03,683.264 461.03,709.082C461.03,710.202 461.07,711.314 461.148,712.418Z" style="fill:#ffb849;stroke:#1e1f2a;stroke-width:7.5px;stroke-linejoin:round" transform="matrix(1.11114,0,0,1.11114,-57.5659,-78.132)"/></g><g><path d="M554.525,711.545L614.05,711.545L614.05,792.663L403.842,792.663L403.842,711.545L461.094,711.545C462.377,736.22 482.818,755.861 507.81,755.861C532.802,755.861 553.243,736.22 554.525,711.545Z" style="fill:#ffb849;stroke:#1e1f2a;stroke-width:7.5px;stroke-linejoin:round" transform="matrix(1.11114,0,0,1.11114,-57.5659,-78.132)"/></g><g transform="matrix(1,0,0,1,-2,0)"><rect width="47.101" height="588.756" x="352.38" y="168.145" style="fill:#ffb849;stroke:#1e1f2a;stroke-width:8.33px;stroke-linejoin:round"/></g><g transform="matrix(1,0,0,1,263.158,0)"><rect width="47.101" height="588.756" x="352.38" y="168.145" style="fill:#ffb849;stroke:#1e1f2a;stroke-width:8.33px;stroke-linejoin:round"/></g><g transform="matrix(1,0,0,1,-423.905,0)"><rect width="229.397" height="45.356" x="604.455" y="894.714" style="fill:#ffb849;stroke:#1e1f2a;stroke-width:8.33px;stroke-linejoin:round"/></g><rect width="215.441" height="42.739" x="397.736" y="850.23" style="fill:#ffb849;stroke:#1e1f2a;stroke-width:8.33px;stroke-linejoin:round"/><rect width="229.397" height="45.356" x="604.455" y="894.714" style="fill:#ffb849;stroke:#1e1f2a;stroke-width:8.33px;stroke-linejoin:round"/><g transform="matrix(1,0,0,0.226667,264.031,719.661)"><rect width="47.101" height="588.756" x="352.38" y="168.145" style="fill:#ffb849;stroke:#1e1f2a;stroke-width:11.49px;stroke-linejoin:round"/></g><g transform="matrix(1,0,0,0.226667,-2,719.661)"><rect width="47.101" height="588.756" x="352.38" y="168.145" style="fill:#ffb849;stroke:#1e1f2a;stroke-width:11.49px;stroke-linejoin:round"/></g><rect width="344.531" height="35.761" x="335.808" y="135" style="fill:#ffb849;stroke:#1e1f2a;stroke-width:8.33px;stroke-linejoin:round"/><path d="M312.258,85.074C312.249,84.92 312.244,84.768 312.244,84.616C312.244,63.185 399.223,45.786 506.357,45.786C613.491,45.786 700.47,63.185 700.47,84.616C700.47,84.967 700.447,85.317 700.401,85.663L700.401,135.873L312.258,135.873L312.258,85.074Z" style="fill:#ffb849;stroke:#1e1f2a;stroke-width:8.33px;stroke-linejoin:round"/></g></svg>