<?xml version="1.0" standalone="no"?>
<!DOCTYPE svg PUBLIC "-//W3C//DTD SVG 20010904//EN"
 "http://www.w3.org/TR/2001/REC-SVG-20010904/DTD/svg10.dtd">
<svg version="1.0" xmlns="http://www.w3.org/2000/svg"
 width="600.000000pt" height="600.000000pt" viewBox="0 0 600.000000 600.000000"
 preserveAspectRatio="xMidYMid meet">
<metadata>
Created by potrace 1.11, written by Peter Selinger 2001-2013
</metadata>
<g transform="translate(0.000000,600.000000) scale(0.100000,-0.100000)"
fill="#000000" stroke="none">
<path d="M2523 5314 c-93 -46 -138 -133 -129 -247 3 -38 8 -72 10 -75 2 -4 7
-36 10 -71 4 -36 8 -67 10 -70 2 -3 7 -31 10 -61 4 -30 11 -80 16 -110 5 -30
11 -71 14 -90 13 -93 19 -137 22 -155 3 -11 6 -38 9 -60 3 -22 8 -58 11 -80 4
-22 8 -49 9 -60 2 -11 6 -40 10 -65 23 -157 36 -248 40 -270 9 -63 25 -168 30
-202 17 -125 24 -167 30 -200 3 -16 1 -28 -4 -28 -10 0 -606 293 -1181 580
-135 67 -267 130 -295 139 -84 29 -164 14 -233 -44 -53 -45 -50 -36 -277 -729
-38 -117 -55 -185 -55 -220 1 -111 81 -205 190 -222 14 -2 36 -7 50 -10 14 -3
36 -8 50 -10 14 -2 41 -7 60 -10 19 -3 46 -8 60 -10 14 -2 41 -7 60 -10 19 -4
44 -8 55 -9 11 -2 63 -11 115 -20 52 -9 109 -18 125 -21 62 -11 71 -12 130
-22 33 -6 74 -13 90 -15 17 -3 59 -10 95 -17 36 -7 74 -13 85 -15 11 -1 52 -8
90 -14 39 -7 84 -14 100 -17 17 -3 37 -7 45 -9 8 -2 33 -7 55 -10 23 -3 52 -8
65 -10 14 -3 54 -10 90 -16 87 -15 122 -21 140 -24 8 -2 23 -4 33 -4 13 -1 3
-15 -35 -55 -29 -29 -179 -183 -333 -341 -154 -158 -316 -325 -360 -370 -471
-483 -459 -467 -457 -570 0 -57 19 -107 54 -146 13 -15 127 -102 253 -194 127
-91 240 -174 253 -183 12 -9 37 -27 55 -40 17 -13 63 -45 101 -73 78 -56 128
-72 196 -66 107 11 160 61 247 232 30 61 75 146 98 190 23 44 86 166 140 270
54 105 118 228 143 275 24 47 81 155 125 240 44 85 103 199 131 252 28 54 53
94 57 90 3 -4 42 -77 86 -162 106 -203 184 -354 243 -465 26 -49 82 -157 125
-240 76 -148 164 -316 255 -489 26 -48 59 -103 73 -121 49 -62 149 -92 237
-71 42 10 82 35 225 139 61 44 144 106 187 136 42 31 86 63 98 71 111 76 261
194 277 217 47 66 55 172 18 244 -10 19 -66 84 -125 144 -59 61 -140 144 -180
185 -39 41 -210 217 -380 390 -411 421 -490 503 -486 508 2 2 19 6 38 8 18 3
44 7 58 10 14 2 41 7 60 10 19 2 58 9 85 14 28 5 64 12 80 14 29 5 407 69 470
80 17 3 44 8 60 10 17 2 111 18 210 36 99 17 192 33 208 36 15 2 42 6 60 9 17
3 43 8 57 10 241 39 272 48 321 92 83 75 101 162 60 288 -12 39 -63 196 -113
350 -49 154 -100 309 -111 344 -41 127 -124 195 -236 194 -46 0 -74 -8 -132
-36 -114 -54 -1158 -570 -1303 -644 l-129 -65 7 47 c4 26 9 57 12 68 2 12 6
40 9 62 2 22 13 99 24 170 11 72 23 150 26 175 4 25 17 115 30 200 13 85 26
178 29 205 4 28 8 61 11 75 6 30 12 69 20 130 3 25 8 59 11 75 8 52 13 84 30
205 3 25 12 83 19 130 7 47 11 104 9 127 -6 76 -57 152 -127 190 -29 16 -75
18 -498 20 l-465 3 -51 -26z"/>
</g>
</svg>
