<svg xmlns="http://www.w3.org/2000/svg" width="533.333" height="533.333" version="1" viewBox="0 0 400 400"><path d="M347 48.4c0 .2.8 1 1.8 1.7 1.5 1.3 1.6 1.2.3-.4s-2.1-2.1-2.1-1.3zM322.5 59.6c-7.1 4.7-19.7 13.2-28 19-8.2 5.8-24.9 17.5-37 25.9-12.1 8.5-22.4 15.7-23 16.2-.5.4-3 2.1-5.5 3.8-2.4 1.6-16.8 11.6-32 22.2-15.1 10.6-31.3 21.8-35.9 25-4.6 3.2-8.9 6.3-9.5 6.9-.6.6-1.6 1.3-2.1 1.5-.6.2-5.1 3.2-10 6.7-26 18.2-55 38.4-62.5 43.5-4.7 3.2-11.9 8.2-16 11.1-4.1 2.8-12.7 8.7-19 13-11.8 8.1-18.1 13-10 7.9 6.2-3.9 43.5-29.5 73-50.1 9.1-6.3 21.2-14.8 27-18.7 5.8-4 22.1-15.3 36.2-25.1 14.2-9.9 29.4-20.4 33.8-23.4 8.9-6.1 20.9-14.5 22.5-15.7.6-.4 3.7-2.6 7-4.9 7.2-4.9 16.2-11.1 44.5-30.7 11.8-8.3 25.8-17.9 31-21.5 5.2-3.6 10.6-7.4 12-8.5 1.4-1.1 6.1-4.4 10.4-7.3 12.6-8.5 7.5-6.1-6.9 3.2z"/><path d="M352.6 55.9c11.1 18.3 19.9 44.1 23 67.1 1.2 9.3 1.1 25.1-.3 33.6-5 31.4-29.8 70.9-61.3 97.5-23.4 19.8-64.5 38.9-107.1 49.8-8.5 2.2-17 4.2-18.9 4.5-1.9.3-4.6.8-6 1.1-1.4.3-4.5.8-7 1.1-2.5.3-5.2.7-6 .9-6.1 1.6-39.7 2.3-50.9 1-26.2-2.9-46.7-8.5-68-18.8-8-3.8-25.3-14-30.2-17.9-4.1-3.2-5.2-3.4-6.8-1.4-3.6 4.4 12.9 25.8 29.4 38.1 2.2 1.7 4.9 3.8 6 4.8 4 3.6 27.1 18.6 34.2 22.1 20.7 10.4 46 17.4 72.3 20.1 5.2.6 42.1.6 45 .1 1.4-.3 4.8-.7 7.5-1.1 23.7-2.6 45.8-9.8 72.5-23.6 35.3-18.3 62.9-48 85-91.4 14.8-28.9 22.2-58.6 22.4-89.5.1-23-1.6-34.9-7.5-52.1-5.3-15.5-17.4-36.8-26.3-46.4l-3.7-4 2.7 4.4z"/><path d="M296.9 88c-10.1 7.1-20.6 14.3-23.2 16.2-2.6 1.8-6.3 4.4-8.2 5.8-1.8 1.4-8.9 6.3-15.6 11-6.7 4.7-24.9 17.4-40.3 28.2-15.5 10.9-28.8 20.2-29.6 20.8-.8.5-5.2 3.6-9.7 6.7-4.5 3.2-11.9 8.3-16.3 11.3s-16.5 11.4-26.8 18.6c-10.3 7.1-23 15.9-28.2 19.5-5.2 3.6-18.9 13-30.3 20.9l-20.9 14.4 2.4 1.8c9.9 7.5 44.6 21 60.2 23.3 2.1.3 4.1.7 4.5.9.3.2 3.1.7 6.1 1.1 3 .3 8.2 1 11.5 1.5 3.3.5 14.6.7 25 .5 17.5-.3 21.8-.6 28.3-2.1 1.3-.3 4.3-.7 6.5-1.1 7-.9 27.7-6.9 37.7-10.8 18.8-7.4 40.2-19.6 56-31.8 19.1-14.9 33.4-32.9 44.6-56.1 9.8-20.5 16.2-44.2 15-56.1-1.4-14.8-11-34.1-25.6-51.7l-4.7-5.6L296.9 88zm43.4 35.2c.2 2-1.5 2.7-23.3 8.5-12.9 3.5-31.8 8.6-42 11.4-10.2 2.8-19.4 5.2-20.5 5.5-1.1.2-14.4 3.7-29.5 7.9-15.1 4.1-27.6 7.3-27.7 7.1-.2-.2 9.7-3.7 21.9-7.9 12.3-4.1 36.9-12.5 54.8-18.7 17.9-6.1 39.5-13.5 48-16.4l15.5-5.4 1.3 3c.7 1.6 1.3 3.8 1.5 5zm-143.2 57.7c6.3 2.1 15.2 5 19.9 6.5 15.3 4.8 61.2 19.6 76.8 24.8l15.3 5-1.8 2.2c-.9 1.1-2.6 3.1-3.6 4.2l-1.8 2.2-10.7-4.5c-5.9-2.4-11.6-4.8-12.7-5.3-1.1-.5-13.7-5.7-28-11.5-14.3-5.9-27.3-11.3-29-12-1.6-.7-10.4-4.3-19.5-8s-16.7-6.9-16.9-7.1c-.9-.8 1.1-.3 12 3.5zm-26.1 8.2c.5 3 1.2 6.7 1.5 8.4.3 1.6 2.6 13.3 5 26 2.4 12.6 4.6 24.1 4.8 25.5.3 1.4 1.7 8.8 3.2 16.5 1.5 7.7 2.8 15.3 2.8 17 .2 2.9.1 3-6.2 3.8-3.5.4-6.6.6-6.8.3-.3-.3-.6-2-.8-3.8-.3-3.5-1.2-20.8-3-56.3-.3-6.6-.8-15.4-1.1-19.5-1.5-23.8-1.4-29.2.6-17.9zM24 267.1c-2.2 1.8-2.2 1.9-.3 1 1.2-.6 2.5-1.6 2.8-2.1.9-1.5.3-1.2-2.5 1.1z"/></svg>