<?xml version="1.0" encoding="utf-8"?>
<!-- Generator: Adobe Illustrator 25.1.0, SVG Export Plug-In . SVG Version: 6.00 Build 0)  -->
<svg version="1.1" xmlns="http://www.w3.org/2000/svg" xmlns:xlink="http://www.w3.org/1999/xlink" x="0px" y="0px"
	 viewBox="0 0 73.9 100" style="enable-background:new 0 0 73.9 100;" xml:space="preserve">
<style type="text/css">
	.st0{fill-rule:evenodd;clip-rule:evenodd;}
</style>
<g id="ThumbsUp" xmlns:cc="http://creativecommons.org/ns#" xmlns:dc="http://purl.org/dc/elements/1.1/" xmlns:rdf="http://www.w3.org/1999/02/22-rdf-syntax-ns#" xmlns:svg="http://www.w3.org/2000/svg">
	<path class="st0" d="M31.7,66.6c3.3,0,10.2-2.2,13.1-2.7c1.8-0.3,6.8-0.8,6.8-0.8V38c0,0-3.7-0.2-5.1-1.2c-2.3-1.7-3.1-4.8-4.5-7.3
		c-0.8-1.4-1.2-2.9-2.1-4.2c-1.7-2.3-4.6-3.7-6-6.2c-1.3-2.3-2-5-2.1-7.6c-0.1-2.1,0.1-4.4-1.4-5.6c-0.8-0.7-2-0.5-3-0.2
		c-1.2,0.4-2.4,1.3-3,2.4c-0.8,1.2-0.7,2.8-0.8,4.2c-0.1,1.9,0,3.8,0.4,5.7c0.4,1.9,1.1,3.6,1.7,5.4c0.6,1.6,2,3.1,1.8,4.8
		c-0.1,0.6-0.5,1.4-1.6,1.4H10.7c-2.9,0-5.3,2.2-5.3,5.1c0,2.5,1.8,4.7,4.2,5.1c-2.4,0.4-4.2,2.5-4.2,5c0,2.4,1.7,4.5,4,5
		c-1.9,0.7-3.3,2.5-3.3,4.6c0,2.6,2,4.7,4.6,4.9c-1.2,0.6-2,1.9-2,3.3c0,2.1,1.7,3.7,3.8,3.7H31.7z M68.6,66.2
		c0.1,0,0.2-0.1,0.2-0.2V35.2c0-0.1-0.1-0.2-0.2-0.2H54.4c-0.1,0-0.2,0.1-0.2,0.2V66c0,0.1,0.1,0.2,0.2,0.2H68.6
		C68.6,66.2,68.6,66.2,68.6,66.2z M59.4,64.8c-1.6,0-2.9-1.3-2.9-2.9c0-1.6,1.3-2.9,2.9-2.9c1.6,0,2.9,1.3,2.9,2.9
		C62.3,63.5,61,64.8,59.4,64.8z"/>
</g>
<g id="ThumbsDown">
	<path class="st0" d="M44.1,33.4c-3.3,0-10.2,2.2-13.1,2.7c-1.8,0.3-6.8,0.8-6.8,0.8V62c0,0,3.7,0.2,5.1,1.2
		c2.3,1.7,3.1,4.8,4.5,7.3c0.8,1.4,1.2,2.9,2.1,4.2c1.7,2.3,4.6,3.7,6,6.2c1.3,2.3,2,5,2.1,7.6c0.1,2.1-0.1,4.4,1.4,5.6
		c0.8,0.7,2,0.5,3,0.2c1.2-0.4,2.4-1.3,3-2.4c0.8-1.2,0.7-2.8,0.8-4.2c0.1-1.9,0-3.8-0.4-5.7c-0.4-1.9-1.1-3.6-1.7-5.4
		c-0.6-1.6-2-3.1-1.8-4.8c0.1-0.6,0.5-1.4,1.6-1.4h15.1c2.9,0,5.3-2.2,5.3-5.1c0-2.5-1.8-4.7-4.2-5.1c2.4-0.4,4.2-2.5,4.2-5
		c0-2.4-1.7-4.5-4-5c1.9-0.7,3.3-2.5,3.3-4.6c0-2.6-2-4.7-4.6-4.9c1.2-0.6,2-1.9,2-3.3c0-2.1-1.7-3.7-3.8-3.7H44.1z M7.2,33.8
		C7.1,33.8,7,33.9,7,34v30.8c0,0.1,0.1,0.2,0.2,0.2h14.1c0.1,0,0.2-0.1,0.2-0.2V34c0-0.1-0.1-0.2-0.2-0.2H7.2
		C7.2,33.8,7.2,33.8,7.2,33.8z M16.4,35.2c1.6,0,2.9,1.3,2.9,2.9c0,1.6-1.3,2.9-2.9,2.9c-1.6,0-2.9-1.3-2.9-2.9
		C13.5,36.5,14.8,35.2,16.4,35.2z"/>
</g>
</svg>
