<svg xmlns="http://www.w3.org/2000/svg" xmlns:xlink="http://www.w3.org/1999/xlink" id="Layer_1" x="0" y="0" version="1.1" viewBox="0 0 1894.7 867.1" xml:space="preserve" style="enable-background:new 0 0 1894.7 867.1"><style type="text/css">.st0{enable-background:new}.st1{fill:#796c0b}.st2{fill:#7c6e0b}.st3{fill:#7a6d0b}.st4{fill:#7d6f0b}.st5{fill:#efd416}.st6{fill:#7a6c0b}.st7{fill:#7b6e0b}.st8{fill:#7e700b}.st9{fill:#0e5e7d}.st10{fill:#0e5c7a}.st11{fill:#0f5e7e}.st12{fill:#0e5b79}.st13{fill:#1cb3ef}.st14{fill:#0e5d7c}.st15{fill:#0e5c7b}.st16{fill:#0e5b7a}</style><g><g class="st0"><g><polygon points="1469.3 123 1308.2 293.4 1319.4 255.8 1480.6 85.4" class="st1"/></g><g><polygon points="1457.8 156.5 1296.6 326.9 1259.7 251.8 1420.9 81.5" class="st2"/></g><g><polygon points="1463.9 221.5 1302.8 391.9 1296.6 326.9 1457.8 156.5" class="st3"/></g><g><polygon points="1493.7 223.5 1332.6 393.9 1302.8 391.9 1463.9 221.5" class="st4"/></g><g><polygon points="1510.4 87.4 1487.6 158.5 1493.7 223.5 1463.9 221.5 1457.8 156.5 1420.9 81.5 1450.8 83.4 1469.3 123 1480.6 85.4" class="st5"/></g></g><g class="st0"><g><polygon points="1429 207.6 1267.9 378 1198.3 373.4 1359.5 203" class="st4"/></g><g><polygon points="1359.5 203 1198.3 373.4 1185.1 235.1 1346.3 64.8" class="st3"/></g><g><polygon points="1376.1 66.7 1386.4 175.4 1426.2 178 1429 207.6 1359.5 203 1346.3 64.8" class="st5"/></g></g><g class="st0"><g><polygon points="1334.5 107.2 1173.4 277.6 1133.6 275 1294.7 104.6" class="st4"/></g><g><polygon points="1339.7 161.5 1178.5 331.9 1138.7 329.2 1299.9 158.9" class="st4"/></g><g><polygon points="1344.8 215.6 1183.6 386 1114 381.4 1275.2 211" class="st4"/></g><g><polygon points="1275.2 211 1114 381.4 1100.9 243.4 1262.1 73" class="st3"/></g><g><polygon points="1331.7 77.6 1334.5 107.2 1294.7 104.6 1297.1 129.3 1336.9 131.9 1339.7 161.5 1299.9 158.9 1302.2 183.5 1342 186.2 1344.8 215.6 1275.2 211 1262.1 73" class="st5"/></g></g><g class="st0"><g><polygon points="1220.5 165.8 1059.3 336.2 1066.5 245 1227.6 74.7" class="st6"/></g><g><polygon points="1205 210.3 1043.8 380.7 1005 241 1166.2 70.6" class="st7"/></g><g><polygon points="1244.7 212.9 1083.5 383.3 1043.8 380.7 1205 210.3" class="st4"/></g><g><polygon points="1257.4 76.6 1244.7 212.9 1205 210.3 1166.2 70.6 1195.8 72.6 1220.5 165.8 1227.6 74.7" class="st5"/></g></g><g class="st0"><g><polygon points="1172.5 190.7 1011.3 361.1 981.5 359.1 1142.7 188.7" class="st4"/></g><g><polygon points="1142.7 188.7 981.5 359.1 968.4 220.9 1129.6 50.5" class="st3"/></g><g><polygon points="1159.4 52.4 1172.5 190.7 1142.7 188.7 1129.6 50.5" class="st5"/></g></g><g class="st0"><g><polygon points="1123.7 93.3 962.5 263.7 932.7 261.7 1093.9 91.3" class="st4"/></g><g><polygon points="1064.1 89.4 902.9 259.8 873 257.8 1034.2 87.4" class="st4"/></g><g><polygon points="1034.2 87.4 873 257.8 870.2 228.2 1031.4 57.8" class="st3"/></g><g><polygon points="1000.6 124.5 839.4 294.9 827.9 251.5 989.1 81.1" class="st7"/></g><g><polygon points="1120.9 63.7 1123.7 93.3 1093.9 91.3 1104.2 199.7 1074.4 197.8 1064.1 89.4 1034.2 87.4 1031.4 57.8" class="st5"/></g><g><polygon points="1104.2 199.7 943 370.1 913.2 368.1 1074.4 197.8" class="st4"/></g><g><polygon points="1074.4 197.8 913.2 368.1 902.9 259.8 1064.1 89.4" class="st3"/></g><g><polygon points="1043.6 176.4 882.4 346.8 852.6 344.8 1013.8 174.4" class="st4"/></g><g><polygon points="1013.8 174.4 852.6 344.8 847.4 324.8 1008.5 154.4" class="st7"/></g><g><polygon points="1008.5 154.4 847.4 324.8 822.3 323.2 983.5 152.8" class="st4"/></g><g><polygon points="982 172.3 820.8 342.7 791.2 340.7 952.4 170.4" class="st4"/></g><g><polygon points="952.4 170.4 791.2 340.7 803.8 204.2 964.9 33.8" class="st6"/></g><g><path d="M1004.7,36.4l39,140l-29.8-2l-5.3-20l-25-1.7l-1.5,19.5l-29.6-2l12.6-136.6L1004.7,36.4z M985.9,123.5 l14.7,1l-11.5-43.4L985.9,123.5" class="st5"/></g></g><g class="st0"><g><polygon points="907.8 67.3 746.7 237.7 726.8 236.4 887.9 66" class="st4"/></g><g><polygon points="940.1 94.9 778.9 265.3 766.3 278.3 927.5 107.9" class="st1"/></g><g><polygon points="910.2 92 749 262.4 746.7 237.7 907.8 67.3" class="st3"/></g><g><polygon points="913 121.6 751.8 292 731.9 290.6 893.1 120.3" class="st4"/></g><g><polygon points="948 177.9 786.8 348.3 757 346.3 918.2 176" class="st4"/></g><g><polygon points="918.2 176 757 346.3 751.8 292 913 121.6" class="st3"/></g><g><polygon points="868.5 172.7 707.3 343.1 694.2 204.8 855.3 34.4" class="st3"/></g><g><path d="M936.7,59.4l3.4,35.5l-12.6,13l15.2,14.7l5.3,55.3l-29.8-2l-5.2-54.4l-19.9-1.3l5.2,54.4l-29.8-2L855.3,34.4 l59.6,3.9L936.7,59.4z M910.2,92l-2.3-24.7L887.9,66l2.3,24.7L910.2,92" class="st5"/></g><g><polygon points="898.3 174.6 737.1 345 707.3 343.1 868.5 172.7" class="st4"/></g></g><g class="st0"><g><polygon points="819.6 112.5 658.5 282.9 647 239.5 808.2 69.2" class="st7"/></g><g><polygon points="862.7 164.4 701.5 334.8 671.7 332.9 832.9 162.5" class="st4"/></g><g><polygon points="832.9 162.5 671.7 332.9 666.4 312.9 827.6 142.5" class="st7"/></g><g><polygon points="827.6 142.5 666.4 312.9 641.4 311.2 802.5 140.8" class="st4"/></g><g><polygon points="733 57.8 571.8 228.2 551.9 226.8 713.1 56.5" class="st4"/></g><g><polygon points="771.4 158.4 610.2 328.8 622.8 192.2 784 21.8" class="st6"/></g><g><polygon points="735.4 82.5 574.2 252.9 571.8 228.2 733 57.8" class="st3"/></g><g><polygon points="766.1 94.3 604.9 264.7 586.9 283.1 748.1 112.7" class="st1"/></g><g><path d="M823.7,24.5l39,140l-29.8-2l-5.3-20l-25-1.7l-1.5,19.5l-29.6-2L784,21.8L823.7,24.5z M805,111.6l14.7,1 l-11.4-43.4L805,111.6" class="st5"/></g><g><polygon points="801 160.4 639.8 330.8 610.2 328.8 771.4 158.4" class="st4"/></g><g><polygon points="748.1 112.7 586.9 283.1 557.1 281.1 718.3 110.8" class="st4"/></g><g><polygon points="723.4 165 562.3 335.4 532.4 333.5 693.6 163.1" class="st4"/></g><g><path d="M740.1,28.7l21.8,21.1l4.2,44.5l-18,18.5l-29.8-2l5.2,54.3l-29.8-2L680.5,24.8L740.1,28.7z M735.4,82.5 L733,57.8l-19.9-1.3l2.3,24.7L735.4,82.5" class="st5"/></g><g><polygon points="693.6 163.1 532.4 333.5 519.3 195.2 680.5 24.8" class="st3"/></g></g><g class="st0"><g><polygon points="620.5 79.8 459.3 250.2 474.5 202.1 635.7 31.7" class="st1"/></g><g><polygon points="648.8 169.7 487.6 340.1 483 290.9 644.1 120.5" class="st3"/></g><g><polygon points="678.6 171.7 517.4 342.1 487.6 340.1 648.8 169.7" class="st4"/></g><g><polygon points="628.9 168.4 467.7 338.8 443.2 288.3 604.3 117.9" class="st2"/></g><g><polygon points="579.2 165.1 418 335.5 404.9 197.5 566.1 27.1" class="st3"/></g><g><polygon points="609 167.1 447.8 337.5 418 335.5 579.2 165.1" class="st4"/></g><g><polygon points="665.5 33.7 678.6 171.7 648.8 169.7 644.1 120.5 628.9 168.4 604.3 117.9 609 167.1 579.2 165.1 566.1 27.1 595.9 29.1 620.5 79.8 635.7 31.7" class="st5"/></g></g><g class="st0"><g><polygon points="521.7 37.9 360.5 208.3 340.6 207 501.8 36.6" class="st4"/></g><g><polygon points="529.2 116.9 368 287.3 360.5 208.3 521.7 37.9" class="st3"/></g><g><polygon points="559.9 128.8 398.8 299.2 380.8 317.6 541.9 147.2" class="st1"/></g><g><polygon points="480.4 123.5 319.3 293.9 309.9 195.2 471.1 24.8" class="st3"/></g><g><polygon points="502.2 144.6 341.1 315 319.3 293.9 480.4 123.5" class="st8"/></g><g><polygon points="541.9 147.2 380.8 317.6 341.1 315 502.2 144.6" class="st4"/></g><g><path d="M528.8,9L550.6,30l9.4,98.7l-18,18.5l-39.7-2.6l-21.8-21.1l-9.4-98.7l18-18.5L528.8,9z M529.2,116.9l-7.5-79 l-19.9-1.3l7.5,79L529.2,116.9" class="st5"/></g></g><g class="st0"><g><polygon points="428 49.5 266.8 219.8 246.9 218.5 408.1 48.1" class="st4"/></g><g><polygon points="429.8 69.1 268.7 239.5 266.8 219.8 428 49.5" class="st3"/></g><g><polygon points="459.6 71.1 298.5 241.5 268.7 239.5 429.8 69.1" class="st4"/></g><g><polygon points="435.5 128.4 274.3 298.8 272.4 279.1 433.6 108.7" class="st3"/></g><g><polygon points="466.2 140.2 305 310.6 287 328.9 448.2 158.5" class="st1"/></g><g><polygon points="386.7 135 225.5 305.4 216.2 206.6 377.3 36.3" class="st3"/></g><g><polygon points="408.5 155.9 247.3 326.3 225.5 305.4 386.7 135" class="st8"/></g><g><polygon points="435.1 20.4 456.8 41.5 459.6 71.1 429.8 69.1 428 49.5 408.1 48.1 415.6 127.1 435.5 128.4 433.6 108.7 463.4 110.6 466.2 140.2 448.2 158.5 408.5 155.9 386.7 135 377.3 36.3 395.4 17.8" class="st5"/></g><g><polygon points="448.2 158.5 287 328.9 247.3 326.3 408.5 155.9" class="st4"/></g></g></g><g><g class="st0"><g><polygon points="1857.6 434.5 1739.4 559.4 1647.3 553.4 1765.5 428.4" class="st9"/></g><g><polygon points="1765.5 428.4 1647.3 553.4 1644.4 523 1762.6 398" class="st10"/></g><g><polygon points="1762.6 398 1644.4 523 1582.9 518.9 1701.1 394" class="st9"/></g><g><polygon points="1785.7 642.1 1667.6 767.1 1660.3 690.8 1778.5 565.8" class="st10"/></g><g><polygon points="1619.1 494.6 1500.9 619.5 1487.9 482.1 1606 357.2" class="st10"/></g><g><polygon points="1686.4 559.8 1568.2 684.7 1500.9 619.5 1619.1 494.6" class="st11"/></g><g><polygon points="1778.5 565.8 1660.3 690.8 1568.2 684.7 1686.4 559.8" class="st9"/></g><g><polygon points="1880.7 678.6 1762.6 803.5 1706.9 860.6 1825 735.7" class="st12"/></g><g><polygon points="1635 662.4 1516.8 787.3 1511 726.2 1629.2 601.3" class="st10"/></g><g><polygon points="1825 735.7 1706.9 860.6 1584.2 852.5 1702.3 727.6" class="st9"/></g><g><polygon points="1702.3 727.6 1584.2 852.5 1516.8 787.3 1635 662.4" class="st11"/></g><g><polygon points="1784.5 308.3 1851.8 373.4 1857.6 434.5 1765.5 428.4 1762.6 398 1701.1 394 1708.3 470.3 1800.4 476.4 1867.7 541.2 1880.7 678.6 1825 735.7 1702.3 727.6 1635 662.4 1629.2 601.3 1721.3 607.4 1724.2 638.1 1785.7 642.1 1778.5 565.8 1686.4 559.8 1619.1 494.6 1606 357.2 1661.7 300.2" class="st13"/></g></g><g class="st0"><g><polygon points="1489.7 610.5 1371.5 735.4 1339.6 399.5 1457.8 274.6" class="st10"/></g><g><polygon points="1584.7 647 1466.5 771.9 1410.8 828.9 1529 704" class="st12"/></g><g><polygon points="1338.9 630.8 1220.8 755.7 1186 389.4 1304.2 264.5" class="st10"/></g><g><polygon points="1406.2 695.9 1288.1 820.8 1220.8 755.7 1338.9 630.8" class="st11"/></g><g><polygon points="1529 704 1410.8 828.9 1288.1 820.8 1406.2 695.9" class="st9"/></g><g><polygon points="1549.9 280.7 1584.7 647 1529 704 1406.2 695.9 1338.9 630.8 1304.2 264.5 1396.3 270.5 1428.2 606.4 1489.7 610.5 1457.8 274.6" class="st13"/></g></g><g class="st0"><g><polygon points="1171 340.7 1052.8 465.6 991.3 461.6 1109.5 336.6" class="st9"/></g><g><polygon points="1194.2 584.8 1076 709.7 1052.8 465.6 1171 340.7" class="st10"/></g><g><polygon points="1289.2 621.6 1171 746.5 1115.3 803.5 1233.5 678.6" class="st12"/></g><g><polygon points="1043.4 605.4 925.3 730.3 896.3 425.1 1014.5 300.2" class="st10"/></g><g><polygon points="1110.8 670.5 992.6 795.4 925.3 730.3 1043.4 605.4" class="st11"/></g><g><polygon points="1233.5 678.6 1115.3 803.5 992.6 795.4 1110.8 670.5" class="st9"/></g><g><path d="M1192.9,251.2l67.3,65.2l29,305.2l-55.7,57l-122.7-8.1l-67.3-65.2l-29-305.2l55.7-57L1192.9,251.2z M1194.2,584.8L1171,340.7l-61.5-4.1l23.2,244.1L1194.2,584.8" class="st13"/></g></g><g class="st0"><g><polygon points="833.4 371.5 715.3 496.4 762.3 347.9 880.4 223" class="st12"/></g><g><polygon points="920.9 649.5 802.8 774.4 788.3 622.4 906.5 497.5" class="st10"/></g><g><polygon points="1013.1 655.5 894.9 780.5 802.8 774.4 920.9 649.5" class="st9"/></g><g><polygon points="859.4 645.4 741.3 770.3 665.3 614.3 783.5 489.3" class="st14"/></g><g><polygon points="705.8 635.3 587.6 760.2 547.2 333.7 665.3 208.8" class="st10"/></g><g><polygon points="797.9 641.4 679.8 766.3 587.6 760.2 705.8 635.3" class="st9"/></g><g><polygon points="972.6 229 1013.1 655.5 920.9 649.5 906.5 497.5 859.4 645.4 783.5 489.3 797.9 641.4 705.8 635.3 665.3 208.8 757.4 214.9 833.4 371.5 880.4 223" class="st13"/></g></g><g class="st0"><g><polygon points="543.1 469.3 424.9 594.3 389.5 460.1 507.7 335.2" class="st15"/></g><g><polygon points="394 611.1 275.9 736.1 314.8 313.9 433 189" class="st16"/></g><g><polygon points="366.6 293.9 248.4 418.8 125.4 410.7 243.6 285.8" class="st9"/></g><g><polygon points="584 623.7 465.8 748.6 449.5 686.8 567.6 561.9" class="st15"/></g><g><polygon points="676.1 629.7 557.9 754.7 465.8 748.6 584 623.7" class="st9"/></g><g><polygon points="567.6 561.9 449.5 686.8 372.1 681.7 490.2 556.8" class="st9"/></g><g><polygon points="382.5 461.7 264.4 586.6 141.3 578.5 259.5 453.6" class="st9"/></g><g><polygon points="485.5 617.2 367.4 742.1 275.9 736.1 394 611.1" class="st9"/></g><g><path d="M555.7,197.1l120.4,432.6l-92.1-6.1l-16.3-61.8l-77.4-5.1l-4.7,60.4l-91.5-6L433,189L555.7,197.1z M497.8,466.3l45.3,3l-35.4-134.1L497.8,466.3" class="st13"/></g><g><polygon points="275.5 621.4 157.3 746.3 65.2 740.3 183.3 615.3" class="st9"/></g><g><polygon points="357.9 202.1 366.6 293.9 243.6 285.8 250.8 362.1 373.8 370.2 382.5 461.7 259.5 453.6 275.5 621.4 183.3 615.3 142.8 187.9" class="st13"/></g><g><polygon points="183.3 615.3 65.2 740.3 24.6 312.9 142.8 187.9" class="st10"/></g></g></g></svg>