<?xml version="1.0" encoding="utf-8"?>
<!-- Generator: Adobe Illustrator 25.0.1, SVG Export Plug-In . SVG Version: 6.00 Build 0)  -->
<svg version="1.1" id="Layer_1" xmlns="http://www.w3.org/2000/svg" xmlns:xlink="http://www.w3.org/1999/xlink" x="0px" y="0px"
	 viewBox="0 0 100 33.7" style="enable-background:new 0 0 100 33.7;" xml:space="preserve">
<style type="text/css">
	.st0{fill:#EE2F26;}
</style>
<g>
	<g>
	</g>
	<g id="Layer_14">
		<g>
			<path class="st0" d="M10.3,5.4L9.8,3.9C9.7,3.6,9.4,3.5,9.1,3.6L6.2,5l0.5-3.3c0-0.3-0.2-0.6-0.5-0.6H4.6c-0.3,0-0.5,0.3-0.5,0.6
				L4.6,5L1.6,3.6C1.4,3.5,1.1,3.6,1,3.9L0.4,5.4C0.4,5.7,0.5,6,0.8,6l3.2,0.6L1.8,8.9C1.6,9.1,1.6,9.5,1.8,9.7l1.3,1
				c0.2,0.2,0.6,0.1,0.7-0.2l1.5-2.9l1.5,2.9c0.1,0.3,0.5,0.3,0.7,0.2l1.3-1C9.2,9.5,9.2,9.2,9,8.9L6.7,6.6L9.9,6
				C10.2,6,10.4,5.7,10.3,5.4z"/>
		</g>
	</g>
</g>
<g>
	<path class="st0" d="M97.7,27.2c0.6,0,1.2-0.1,1.9-0.1c0,0.8,0,1.5,0,2.2c-1.9,0-3.8,0-5.7,0c-0.1-0.4-0.1-0.8-0.2-1.3
		c-0.1,0.1-0.2,0.1-0.3,0.2c-2.6,2.6-7.6,2.2-9.3-1.7c-1.5-3.5-1.4-7,0.9-10.1c1.6-2.2,4.7-3.2,7.4-2.4c0.3,0.1,0.7,0.2,1.1,0.3
		c0-1.6,0-3.1,0-4.7c-0.6,0-1.3,0-2,0c0-0.7,0-1.4,0-2.2C92.3,7.2,93.2,7.1,94,7c0.7-0.1,1.3-0.4,1.9-0.6c0.6-0.1,1.1-0.1,1.8-0.2
		C97.7,13.3,97.7,20.2,97.7,27.2z M93.5,21c0-1.4,0-2.8,0-4.2c0-0.2-0.1-0.4-0.2-0.5c-1.4-0.8-3.9-0.8-4.8,1.3
		c-0.3,0.8-0.6,1.7-0.7,2.5c-0.2,1.8-0.1,3.5,0.6,5.2c0.9,1.9,2.9,2.4,4.5,1c0.4-0.3,0.7-0.7,0.7-1.4C93.4,23.7,93.5,22.3,93.5,21z"
		/>
	<path class="st0" d="M20.2,29.3c-2.7,0-5.3,0-7.9,0c0-0.6,0-1.2,0-1.8c0,0,0.1-0.1,0.1-0.1c1.2-0.2,1.6-0.6,1.6-1.8
		c0-1.6,0.1-3.3,0.1-4.9c0-1.2,0-2.5,0-3.8c-0.6,0-1.3,0-2,0c0-0.7,0-1.5,0-2.2c0.9-0.1,1.8-0.1,2.7-0.3c0.6-0.1,1.2-0.4,1.8-0.5
		c0.5-0.1,1.1-0.1,1.7-0.2c0.1,0.6,0.1,1,0.2,1.6c0.3-0.2,0.5-0.3,0.7-0.4c1.1-0.7,2.2-1.2,3.4-1.3c2.2-0.1,4.4,0.4,5.1,3.2
		c0.3,1.2,0.4,2.4,0.4,3.6c0,2.1,0,4.3-0.1,6.4c0,0.1,0,0.1,0,0.3c0.6,0,1.2-0.1,1.9-0.1c0,0.8,0,1.5,0,2.2c-2.6,0-5.3,0-7.9,0
		c0-0.6,0-1.2,0-1.8c0,0,0-0.1,0.1-0.1c1.3-0.2,1.7-0.6,1.7-1.9c0-2.3,0-4.6-0.1-6.8c-0.1-1.9-1.5-2.7-3.4-2.1
		c-0.1,0-0.3,0.1-0.4,0.1c-1.2,0.5-1.4,0.7-1.4,2c0,2.7-0.1,5.4-0.1,8c0,0.1,0,0.3,0,0.4c0.6,0,1.3,0,1.9,0
		C20.2,27.8,20.2,28.5,20.2,29.3z"/>
	<path class="st0" d="M60,27.2c0.7,0,1.3-0.1,1.9-0.1c0,0.8,0,1.5,0,2.3c-0.3,0-0.6,0-0.8,0c-1.4,0-2.8,0-4.3,0
		c-0.5,0-0.7-0.1-0.7-0.6c0-0.2,0-0.4-0.1-0.8c-0.2,0.2-0.4,0.3-0.5,0.4c-1.8,1.4-3.8,2-5.9,1.1c-2.5-1-3.1-4.6-1.2-6.7
		c0.8-0.9,1.8-1.4,2.9-1.7c1.3-0.4,2.6-0.6,3.9-0.8c0.2,0,0.4-0.1,0.7-0.1c-0.1-0.9,0-1.9-0.2-2.7c-0.3-1.5-1.7-2-3.2-1.4
		c-0.3,0.1-0.6,0.4-1,0.6c0.1,0.2,0.2,0.3,0.2,0.5c0.3,0.8,0.1,1.7-0.5,2.2c-0.5,0.5-1.5,0.6-2.2,0.3c-0.8-0.4-1-1.1-1-1.9
		c0-1.3,0.8-2.2,1.9-2.8c1.5-0.9,3.2-1.2,4.9-1.1c0.7,0,1.5,0.2,2.2,0.4c1.9,0.6,2.7,2.1,3,4c0.1,0.7,0.1,1.4,0.1,2.1
		c0,2.2-0.1,4.4-0.1,6.6C60,26.8,60,26.9,60,27.2z M55.9,22.3c-1.2,0.1-2.2,0.4-3.2,1c-0.3,0.2-0.5,0.4-0.7,0.7
		c-0.7,1-0.4,2.3,0.7,2.7c1,0.3,2.4-0.1,3.1-0.9c0.1-0.1,0.1-0.2,0.1-0.2C55.9,24.5,55.9,23.5,55.9,22.3z"/>
	<path class="st0" d="M63.1,9.4c0-0.7,0-1.4,0-2.2C64,7.2,64.9,7.1,65.7,7c0.6-0.1,1.3-0.4,1.9-0.5c0.6-0.1,1.2-0.1,1.8-0.2
		c0,7,0,13.9,0,20.9c0.6,0,1.2-0.1,1.9-0.1c0,0.7,0,1.5,0,2.2c-2.6,0-5.2,0-7.9,0c0-0.6,0-1.2,0-1.8c1.4-0.3,1.7-0.6,1.7-2.1
		c0-3.7,0-7.4,0.1-11.1c0-1.5,0.1-3,0.1-4.5c0-0.1,0-0.2,0-0.3C64.5,9.4,63.8,9.4,63.1,9.4z"/>
	<path class="st0" d="M40.5,17c0.3,0,0.5,0,0.7,0c1.2,0,2.5,0,3.7,0c1.5,0,1.6,0.2,1.4,1.7c0,0.1-0.1,0.3-0.2,0.3
		c-0.7,0.3-1.2,0.8-1.5,1.4c-0.9,2.1-1.8,4.2-2.7,6.3c-0.7,1.7-1.4,3.5-2.1,5.2c-0.1,0.3-0.3,0.5-0.7,0.5c-0.6,0-1.2,0-1.8,0
		c-0.2,0-0.5-0.2-0.5-0.3c-1.7-3.6-3.3-7.3-5-10.9c-0.3-0.6-0.4-1.2-0.6-1.8c-0.3,0-0.6,0-1,0c0-0.7,0-1.4,0-2.2c2.3,0,4.7,0,7,0
		c0,0.6,0,1.2,0,1.8c-1,0.3-1.2,0.8-0.9,1.8c0.5,1.5,1.1,3,1.7,4.4c0.3,0.8,0.7,1.7,1.1,2.6c1.1-2.9,2.1-5.7,3.2-8.5
		c-0.5,0-1.1,0.1-1.7,0.1C40.5,18.6,40.5,17.9,40.5,17z"/>
	<path class="st0" d="M79.4,27.2c0.6,0,1.2-0.1,1.9-0.1c0,0.7,0,1.5,0,2.2c-2.6,0-5.3,0-7.9,0c0-0.6,0-1.2,0-1.8
		c1.4-0.3,1.7-0.5,1.7-1.9c0.1-1.9,0-3.7,0.1-5.6c0-1,0-2,0-3c-0.6,0-1.3,0-2,0c0-0.7,0-1.4,0-2.2c0.9-0.1,1.8-0.1,2.7-0.3
		c0.6-0.1,1.2-0.4,1.8-0.5c0.6-0.1,1.1-0.1,1.8-0.2C79.4,18.2,79.4,22.7,79.4,27.2z"/>
	<path class="st0" d="M2.1,16.9c0-0.7,0-1.5,0-2.2c0.9-0.1,1.7-0.1,2.6-0.3c0.7-0.1,1.3-0.4,1.9-0.6c0.5-0.1,1.1-0.1,1.7-0.2
		c0,4.5,0,8.9,0,13.4c0.6,0,1.2-0.1,1.9-0.1c0,0.8,0,1.5,0,2.2c-2.6,0-5.3,0-7.9,0c0-0.6,0-1.2,0-1.8C3.7,27.2,4,26.8,4,25.4
		c0-1.9,0-3.8,0-5.7c0-0.9,0-1.8,0-2.8C3.4,16.9,2.8,16.9,2.1,16.9z"/>
	<path class="st0" d="M79.9,8.6c0,1.4-1,2.5-2.3,2.4c-1.3,0-2.4-1.1-2.3-2.5c0-1.4,1.1-2.5,2.3-2.5C79,6.1,79.9,7.1,79.9,8.6z"/>
</g>
</svg>
