<?xml version="1.0" encoding="utf-8"?>
<!-- Generator: Adobe Illustrator 25.1.0, SVG Export Plug-In . SVG Version: 6.00 Build 0)  -->
<svg version="1.1" id="Layer_1" xmlns="http://www.w3.org/2000/svg" xmlns:xlink="http://www.w3.org/1999/xlink" x="0px" y="0px"
	 viewBox="0 0 1600 595.6" style="enable-background:new 0 0 1600 595.6;" xml:space="preserve">
<style type="text/css">
	.st0{fill:#EE3328;}
</style>
<g>
	<g id="Layer_14">
		<g>
			<path class="st0" d="M188.3,131.3l-7.7-23.1c-1.5-4.6-6.2-6.2-10.8-4.6l-44.7,21.6l7.7-50.9c0-4.6-3.1-9.3-7.7-9.3h-24.7
				c-4.6,0-7.7,4.6-7.7,9.3l7.7,50.9l-46.3-21.6c-3.1-1.5-7.7,0-9.3,4.6l-9.3,23.1c0,4.6,1.5,9.3,6.2,9.3l49.3,9.3l-33.9,35.5
				c-3.1,3.1-3.1,9.3,0,12.3l20,15.4c3.1,3.1,9.3,1.5,10.8-3.1l23.1-44.7l23.1,44.7c1.5,4.6,7.7,4.6,10.8,3.1l20-15.4
				c6.2-3.1,6.2-7.7,3.1-12.3l-35.5-35.5l49.3-9.3C186.7,140.6,189.8,136,188.3,131.3z"/>
		</g>
	</g>
</g>
<g>
	<path class="st0" d="M1536,467.5c9.3,0,18.5-1.5,29.3-1.5c0,12.3,0,23.1,0,33.9c-29.3,0-58.6,0-87.9,0c-1.5-6.2-1.5-12.3-3.1-20
		c-1.5,1.5-3.1,1.5-4.6,3.1c-40.1,40.1-117.2,33.9-143.4-26.2c-23.1-54-21.6-107.9,13.9-155.7c24.7-33.9,72.5-49.3,114.1-37
		c4.6,1.5,10.8,3.1,17,4.6c0-24.7,0-47.8,0-72.5c-9.3,0-20,0-30.8,0c0-10.8,0-21.6,0-33.9c12.3-3.1,26.2-4.6,38.6-6.2
		c10.8-1.5,20-6.2,29.3-9.3c9.3-1.5,17-1.5,27.8-3.1C1536,253.2,1536,359.6,1536,467.5z M1471.2,371.9c0-21.6,0-43.2,0-64.8
		c0-3.1-1.5-6.2-3.1-7.7c-21.6-12.3-60.1-12.3-74,20c-4.6,12.3-9.3,26.2-10.8,38.6c-3.1,27.8-1.5,54,9.3,80.2
		c13.9,29.3,44.7,37,69.4,15.4c6.2-4.6,10.8-10.8,10.8-21.6C1469.7,413.5,1471.2,391.9,1471.2,371.9z"/>
	<path class="st0" d="M340.9,499.9c-41.6,0-81.7,0-121.8,0c0-9.3,0-18.5,0-27.8l1.5-1.5c18.5-3.1,24.7-9.3,24.7-27.8
		c0-24.7,1.5-50.9,1.5-75.6c0-18.5,0-38.6,0-58.6c-9.3,0-20,0-30.8,0c0-10.8,0-23.1,0-33.9c13.9-1.5,27.8-1.5,41.6-4.6
		c9.3-1.5,18.5-6.2,27.8-7.7c7.7-1.5,17-1.5,26.2-3.1c1.5,9.3,1.5,15.4,3.1,24.7c4.6-3.1,7.7-4.6,10.8-6.2
		c17-10.8,33.9-18.5,52.4-20c33.9-1.5,67.8,6.2,78.6,49.3c4.6,18.5,6.2,37,6.2,55.5c0,32.4,0,66.3-1.5,98.7c0,1.5,0,1.5,0,4.6
		c9.3,0,18.5-1.5,29.3-1.5c0,12.3,0,23.1,0,33.9c-40.1,0-81.7,0-121.8,0c0-9.3,0-18.5,0-27.8c0,0,0-1.5,1.5-1.5
		c20-3.1,26.2-9.3,26.2-29.3c0-35.5,0-70.9-1.5-104.9c-1.5-29.3-23.1-41.6-52.4-32.4c-1.5,0-4.6,1.5-6.2,1.5
		c-18.5,7.7-21.6,10.8-21.6,30.8c0,41.6-1.5,83.3-1.5,123.4c0,1.5,0,4.6,0,6.2c9.3,0,20,0,29.3,0
		C340.9,476.8,340.9,487.5,340.9,499.9z"/>
	<path class="st0" d="M954.7,467.5c10.8,0,20-1.5,29.3-1.5c0,12.3,0,23.1,0,35.5c-4.6,0-9.3,0-12.3,0c-21.6,0-43.2,0-66.3,0
		c-7.7,0-10.8-1.5-10.8-9.3c0-3.1,0-6.2-1.5-12.3c-3.1,3.1-6.2,4.6-7.7,6.2c-27.8,21.6-58.6,30.8-91,17
		c-38.6-15.4-47.8-70.9-18.5-103.3c12.3-13.9,27.8-21.6,44.7-26.2c20-6.2,40.1-9.3,60.1-12.3c3.1,0,6.2-1.5,10.8-1.5
		c-1.5-13.9,0-29.3-3.1-41.6c-4.6-23.1-26.2-30.8-49.3-21.6c-4.6,1.5-9.3,6.2-15.4,9.3c1.5,3.1,3.1,4.6,3.1,7.7
		c4.6,12.3,1.5,26.2-7.7,33.9c-7.7,7.7-23.1,9.3-33.9,4.6c-12.3-6.2-15.4-17-15.4-29.3c0-20,12.3-33.9,29.3-43.2
		c23.1-13.9,49.3-18.5,75.6-17c10.8,0,23.1,3.1,33.9,6.2c29.3,9.3,41.6,32.4,46.3,61.7c1.5,10.8,1.5,21.6,1.5,32.4
		c0,33.9-1.5,67.8-1.5,101.8C954.7,461.3,954.7,462.9,954.7,467.5z M891.4,391.9c-18.5,1.5-33.9,6.2-49.3,15.4
		c-4.6,3.1-7.7,6.2-10.8,10.8c-10.8,15.4-6.2,35.5,10.8,41.6c15.4,4.6,37-1.5,47.8-13.9c1.5-1.5,1.5-3.1,1.5-3.1
		C891.4,425.9,891.4,410.4,891.4,391.9z"/>
	<path class="st0" d="M1002.5,193c0-10.8,0-21.6,0-33.9c13.9,0,27.8-1.5,40.1-3.1c9.3-1.5,20-6.2,29.3-7.7
		c9.3-1.5,18.5-1.5,27.8-3.1c0,107.9,0,214.3,0,322.3c9.3,0,18.5-1.5,29.3-1.5c0,10.8,0,23.1,0,33.9c-40.1,0-80.2,0-121.8,0
		c0-9.3,0-18.5,0-27.8c21.6-4.6,26.2-9.3,26.2-32.4c0-57.1,0-114.1,1.5-171.2c0-23.1,1.5-46.3,1.5-69.4c0-1.5,0-3.1,0-4.6
		C1024,193,1013.2,193,1002.5,193z"/>
	<path class="st0" d="M654,310.2c4.6,0,7.7,0,10.8,0c18.5,0,38.6,0,57.1,0c23.1,0,24.7,3.1,21.6,26.2c0,1.5-1.5,4.6-3.1,4.6
		c-10.8,4.6-18.5,12.3-23.1,21.6c-13.9,32.4-27.8,64.8-41.6,97.1c-10.8,26.2-21.6,54-32.4,80.2c-1.5,4.6-4.6,7.7-10.8,7.7
		c-9.3,0-18.5,0-27.8,0c-3.1,0-7.7-3.1-7.7-4.6C570.7,487.5,546,430.5,519.8,375c-4.6-9.3-6.2-18.5-9.3-27.8c-4.6,0-9.3,0-15.4,0
		c0-10.8,0-21.6,0-33.9c35.5,0,72.5,0,107.9,0c0,9.3,0,18.5,0,27.8c-15.4,4.6-18.5,12.3-13.9,27.8c7.7,23.1,17,46.3,26.2,67.8
		c4.6,12.3,10.8,26.2,17,40.1c17-44.7,32.4-87.9,49.3-131.1c-7.7,0-17,1.5-26.2,1.5C654,334.9,654,324.1,654,310.2z"/>
	<path class="st0" d="M1253.8,467.5c9.3,0,18.5-1.5,29.3-1.5c0,10.8,0,23.1,0,33.9c-40.1,0-81.7,0-121.8,0c0-9.3,0-18.5,0-27.8
		c21.6-4.6,26.2-7.7,26.2-29.3c1.5-29.3,0-57.1,1.5-86.4c0-15.4,0-30.8,0-46.3c-9.3,0-20,0-30.8,0c0-10.8,0-21.6,0-33.9
		c13.9-1.5,27.8-1.5,41.6-4.6c9.3-1.5,18.5-6.2,27.8-7.7c9.3-1.5,17-1.5,27.8-3.1C1253.8,328.7,1253.8,398.1,1253.8,467.5z"/>
	<path class="st0" d="M61.8,308.7c0-10.8,0-23.1,0-33.9c13.9-1.5,26.2-1.5,40.1-4.6c10.8-1.5,20-6.2,29.3-9.3
		c7.7-1.5,17-1.5,26.2-3.1c0,69.4,0,137.2,0,206.6c9.3,0,18.5-1.5,29.3-1.5c0,12.3,0,23.1,0,33.9c-40.1,0-81.7,0-121.8,0
		c0-9.3,0-18.5,0-27.8c21.6-1.5,26.2-7.7,26.2-29.3c0-29.3,0-58.6,0-87.9c0-13.9,0-27.8,0-43.2C81.9,308.7,72.6,308.7,61.8,308.7z"
		/>
	<path class="st0" d="M1261.5,180.7c0,21.6-15.4,38.6-35.5,37c-20,0-37-17-35.5-38.6c0-21.6,17-38.6,35.5-38.6
		C1247.6,142.1,1261.5,157.6,1261.5,180.7z"/>
</g>
</svg>
