<svg xmlns="http://www.w3.org/2000/svg" xmlns:xlink="http://www.w3.org/1999/xlink" width="100" height="100" x="0" y="0" fill="#000" style="shape-rendering:geometricPrecision;text-rendering:geometricPrecision;image-rendering:optimizeQuality" fill-rule="evenodd" clip-rule="evenodd" version="1.1" viewBox="0 0 2.146 2.16" xml:space="preserve"><defs><style type="text/css">.fil0{fill:#000}</style></defs><g><path d="M0.902 0.989c0.007,0.01 0.019,0.014 0.031,0.013l0.048 -0.006c0.013,-0.002 0.024,-0.005 0.033,-0.014l0.027 -0.031c0.003,-0.002 0.005,-0.003 0.008,-0.004l0.024 -0.004c0.005,-0.001 0.009,-0.001 0.013,0l0.025 0.004c0.004,0.001 0.006,0.002 0.008,0.004l0.028 0.031c0.009,0.009 0.02,0.012 0.033,0.014l0.048 0.006c0.012,0.001 0.024,-0.003 0.031,-0.013 0.011,-0.018 0.022,-0.036 0.033,-0.054 0.004,-0.006 0.007,-0.011 0.016,-0.011 0.004,0.001 0.004,0.002 0.002,0.006 -0.003,0.007 -0.008,0.016 -0.012,0.023 -0.009,0.018 -0.018,0.037 -0.028,0.055 -0.007,0.015 -0.022,0.023 -0.039,0.023l-0.085 0c-0.013,0 -0.024,-0.005 -0.033,-0.015l-0.025 -0.027c-0.002,-0.002 -0.004,-0.003 -0.008,-0.003 -0.003,0 -0.005,0.001 -0.007,0.003l-0.025 0.027c-0.009,0.01 -0.02,0.015 -0.033,0.015l-0.085 0c-0.017,0 -0.032,-0.008 -0.039,-0.023 -0.005,-0.01 -0.01,-0.02 -0.016,-0.03 -0.003,-0.007 -0.024,-0.047 -0.025,-0.05 0,-0.003 0,-0.003 0.003,-0.004 0.003,0 0.007,0.001 0.009,0.003 0.005,0.004 0.018,0.027 0.023,0.034 0.006,0.009 0.011,0.018 0.017,0.028zm0.572 -0.399c0.072,-0.016 0.113,-0.066 0.139,-0.096 0.026,-0.03 0.031,-0.055 0.032,-0.075 0,-0.021 -0.004,-0.037 -0.024,-0.053 -0.019,-0.015 -0.053,-0.031 -0.089,-0.041 -0.036,-0.01 -0.074,-0.015 -0.089,-0.014 -0.014,0 -0.006,0.005 -0.002,0.014 0.005,0.009 0.006,0.022 0.002,0.033 -0.003,0.011 -0.01,0.019 -0.016,0.022 -0.004,0.002 -0.008,0 -0.018,-0.021 -0.137,0.047 -0.245,0.071 -0.354,0.071 -0.109,0 -0.217,-0.024 -0.354,-0.071 -0.01,0.021 -0.014,0.023 -0.018,0.021 -0.007,-0.003 -0.014,-0.011 -0.017,-0.022 -0.003,-0.011 -0.002,-0.024 0.003,-0.033 0.004,-0.009 0.012,-0.014 -0.002,-0.014 -0.015,-0.001 -0.053,0.004 -0.089,0.014 -0.036,0.01 -0.07,0.026 -0.089,0.041 -0.02,0.016 -0.024,0.032 -0.024,0.053 0.001,0.02 0.006,0.045 0.032,0.075 0.025,0.03 0.067,0.078 0.139,0.096 0.251,0.06 0.568,0.06 0.838,0zm-0.083 -0.273c-0.024,-0.059 -0.065,-0.173 -0.094,-0.235 -0.029,-0.064 -0.045,-0.075 -0.061,-0.08 -0.016,-0.004 -0.032,-0.002 -0.055,0.008 -0.023,0.01 -0.054,0.029 -0.076,0.039 -0.022,0.01 -0.036,0.012 -0.05,0.013 -0.014,-0.001 -0.028,-0.003 -0.05,-0.013 -0.022,-0.01 -0.053,-0.029 -0.076,-0.039 -0.023,-0.01 -0.04,-0.012 -0.056,-0.008 -0.015,0.005 -0.031,0.016 -0.06,0.08 -0.029,0.062 -0.07,0.176 -0.094,0.235 0.13,0.045 0.233,0.068 0.336,0.068 0.102,0 0.206,-0.023 0.336,-0.068zm-0.316 0.421c-0.007,0 -0.014,-0.001 -0.045,-0.013 -0.031,-0.012 -0.086,-0.037 -0.141,-0.054 -0.055,-0.017 -0.11,-0.026 -0.143,-0.031 -0.034,-0.005 -0.048,-0.006 -0.055,-0.004 -0.007,0.003 -0.008,0.007 -0.007,0.013 0,0.006 0.003,0.012 0.009,0.02 0.007,0.008 0.017,0.018 0.026,0.038 0.009,0.019 0.018,0.049 0.024,0.072 0.007,0.023 0.011,0.041 0.022,0.057 0.011,0.016 0.028,0.03 0.05,0.04 0.021,0.01 0.047,0.017 0.074,0.018 0.027,0.002 0.055,-0.002 0.076,-0.013 0.021,-0.011 0.036,-0.029 0.048,-0.045 0.011,-0.016 0.018,-0.029 0.027,-0.037 0.01,-0.008 0.023,-0.011 0.029,-0.012 0.008,-0.001 0.005,-0.001 0.013,0 0.006,0.001 0.019,0.004 0.028,0.012 0.01,0.008 0.017,0.021 0.028,0.037 0.011,0.016 0.026,0.034 0.048,0.045 0.021,0.011 0.049,0.015 0.076,0.013 0.027,-0.001 0.053,-0.008 0.074,-0.018 0.022,-0.01 0.039,-0.024 0.05,-0.04 0.01,-0.016 0.015,-0.034 0.022,-0.057 0.006,-0.023 0.015,-0.053 0.024,-0.072 0.009,-0.02 0.019,-0.03 0.025,-0.038 0.007,-0.008 0.009,-0.014 0.01,-0.02 0.001,-0.006 0,-0.01 -0.007,-0.013 -0.008,-0.002 -0.021,-0.001 -0.055,0.004 -0.034,0.005 -0.088,0.014 -0.143,0.031 -0.055,0.017 -0.11,0.042 -0.141,0.054 -0.032,0.012 -0.039,0.013 -0.046,0.013zm0.08 0.015c0.012,-0.018 0.04,-0.032 0.074,-0.041 0.034,-0.01 0.073,-0.015 0.101,-0.017 0.028,-0.002 0.044,0.001 0.053,0.006 0.009,0.005 0.01,0.013 0.009,0.03 -0.002,0.016 -0.007,0.042 -0.017,0.064 -0.01,0.023 -0.025,0.043 -0.047,0.056 -0.022,0.012 -0.049,0.017 -0.075,0.017 -0.026,0 -0.051,-0.006 -0.068,-0.015 -0.016,-0.009 -0.025,-0.022 -0.031,-0.04 -0.007,-0.018 -0.011,-0.042 0.001,-0.06zm-0.159 0c-0.012,-0.018 -0.041,-0.032 -0.074,-0.041 -0.034,-0.01 -0.073,-0.015 -0.101,-0.017 -0.028,-0.002 -0.044,0.001 -0.053,0.006 -0.009,0.005 -0.01,0.013 -0.009,0.03 0.002,0.016 0.006,0.042 0.016,0.064 0.011,0.023 0.026,0.043 0.048,0.056 0.021,0.012 0.049,0.017 0.075,0.017 0.026,0 0.051,-0.006 0.067,-0.015 0.017,-0.009 0.025,-0.022 0.032,-0.04 0.006,-0.018 0.011,-0.042 -0.001,-0.06zm0.192 1.045l0 0c-0.006,-0.041 -0.013,-0.095 -0.019,-0.147 -0.011,-0.084 -0.021,-0.165 -0.024,-0.19l0.047 -0.084c0.002,-0.004 0.002,-0.008 0.001,-0.013 -0.001,-0.005 -0.004,-0.008 -0.008,-0.011l-0.016 -0.008c-0.016,-0.009 -0.032,-0.011 -0.05,-0.008l-0.003 0c-0.028,0.005 -0.053,0.006 -0.08,0.001l-0.007 -0.001c-0.019,-0.003 -0.037,0.001 -0.054,0.011l-0.009 0.006c-0.007,0.005 -0.01,0.015 -0.006,0.023l0.04 0.084 -0.043 0.337 0 0 -0.076 -0.275c-0.011,-0.04 -0.004,-0.079 0.02,-0.112l0.031 -0.044c0.039,-0.054 0.032,-0.128 -0.016,-0.174 -0.051,-0.048 -0.095,-0.107 -0.115,-0.15 -0.019,-0.04 -0.035,-0.094 -0.047,-0.154 -0.001,-0.005 -0.004,-0.009 -0.009,-0.012 -0.005,-0.002 -0.01,-0.003 -0.015,-0.001l-0.001 0.001c-0.092,0.039 -0.176,0.06 -0.275,0.069l-0.105 0.008 0.248 0.312c0.006,0.008 0.013,0.016 0.018,0.024 -0.056,0.014 -0.112,0.028 -0.168,0.042 0,0 0,0.001 0,0.001 -0.09,0.022 -0.179,0.046 -0.269,0.07 -0.03,0.008 -0.059,0.034 -0.08,0.06 -0.001,0.001 -0.003,0.003 -0.004,0.005 -0.021,0.025 -0.033,0.06 -0.043,0.093 -0.033,0.103 -0.042,0.209 -0.047,0.316 0,0.013 -0.001,0.027 -0.002,0.04 -0.003,0.077 -0.014,0.062 0.059,0.093 0.018,0.008 0.036,0.015 0.055,0.021 0.132,0.044 0.266,0.073 0.401,0.092 0.132,0.02 0.266,0.029 0.4,0.035 0.027,0 0.231,0.002 0.231,0.002 0.026,-0.001 0.052,-0.001 0.078,-0.002 0.15,-0.006 0.299,-0.017 0.447,-0.04l0 -0.001c0.12,-0.019 0.239,-0.046 0.357,-0.085 0.019,-0.007 0.037,-0.013 0.055,-0.021 0.073,-0.031 0.062,-0.017 0.059,-0.093 -0.001,-0.013 -0.002,-0.027 -0.002,-0.04 -0.005,-0.107 -0.014,-0.213 -0.047,-0.316 -0.011,-0.033 -0.022,-0.068 -0.043,-0.093 -0.001,-0.002 -0.003,-0.004 -0.004,-0.006 -0.021,-0.025 -0.05,-0.051 -0.08,-0.059 -0.09,-0.024 -0.179,-0.048 -0.269,-0.071 0,0 0,0 0,0 -0.055,-0.014 -0.11,-0.028 -0.165,-0.042 0.006,-0.008 0.013,-0.016 0.02,-0.025l0.248 -0.312 -0.105 -0.008c-0.099,-0.009 -0.183,-0.03 -0.275,-0.069l-0.002 -0.001c-0.005,-0.002 -0.01,-0.001 -0.014,0.001 -0.005,0.003 -0.008,0.007 -0.009,0.012 -0.012,0.06 -0.028,0.114 -0.047,0.154 -0.02,0.044 -0.063,0.103 -0.112,0.152 -0.049,0.048 -0.054,0.125 -0.011,0.178l0.028 0.035c0.029,0.036 0.037,0.081 0.022,0.126l-0.089 0.264zm-0.123 -0.557l-0.002 -0.001c-0.005,-0.004 -0.007,-0.008 -0.009,-0.013l-0.025 -0.053c-0.005,-0.013 0,-0.026 0.009,-0.037 0.013,-0.016 0.013,-0.012 0.001,-0.028 -0.004,-0.004 -0.004,-0.009 -0.001,-0.013 0.003,-0.004 0.008,-0.006 0.014,-0.006 0.019,0 0.038,0 0.057,0 0.006,0 0.011,0.002 0.014,0.006 0.003,0.004 0.003,0.009 0,0.013 -0.013,0.016 -0.013,0.012 0,0.028 0.009,0.011 0.014,0.024 0.009,0.037l-0.025 0.053c-0.002,0.005 -0.004,0.009 -0.009,0.013l-0.002 0.001c-0.009,0.007 -0.022,0.007 -0.031,0z" class="fil0"/></g></svg>