<svg xmlns="http://www.w3.org/2000/svg" xmlns:xlink="http://www.w3.org/1999/xlink" width="100" height="100" x="0" y="0" style="enable-background:new 0 0 100 100" fill="#000" version="1.1" viewBox="0 0 100 100" xml:space="preserve"><style type="text/css">.st0{fill:#000}</style><path d="M67.5,44.2c0,1,0.8,1.8,1.8,1.8s1.8-0.8,1.8-1.8c0-1-0.8-1.8-1.8-1.8S67.5,43.2,67.5,44.2z M30.8,42.3 c-1,0-1.8,0.8-1.8,1.8c0,1,0.8,1.8,1.8,1.8c1,0,1.8-0.8,1.8-1.8C32.6,43.2,31.8,42.3,30.8,42.3z M52.9,47.7 c-0.2-0.3-0.5-0.4-0.8-0.4c-0.6,0-1.1,0.5-1.1,1.1c0,0,0,0,0,0.1l0.2,3.5c0.1,1.1,1,2,2.1,2c1.2,0,2.1-1,2.1-2.1 c0-0.5-0.2-0.9-0.4-1.3L52.9,47.7z M47.9,47.2c-0.3,0-0.7,0.2-0.8,0.4L45,50.4c-0.3,0.4-0.4,0.8-0.4,1.3c0,1.2,1,2.1,2.1,2.1 c1.1,0,2.1-0.9,2.1-2l0.2-3.5c0,0,0,0,0-0.1C49,47.7,48.5,47.2,47.9,47.2z M42.1,34.8c0.3,0,0.5-0.2,0.5-0.5c0-0.3-0.2-0.5-0.5-0.5 s-0.5,0.2-0.5,0.5C41.5,34.5,41.8,34.8,42.1,34.8z M44.3,33.7c0.3,0,0.5-0.2,0.5-0.5s-0.2-0.5-0.5-0.5s-0.5,0.2-0.5,0.5 S44,33.7,44.3,33.7z M42.1,32.1c0.3,0,0.5-0.2,0.5-0.5c0-0.3-0.2-0.5-0.5-0.5c-0.3,0-0.5,0.2-0.5,0.5C41.5,31.8,41.8,32.1,42.1,32.1 z M66,50.9c-0.1,0.2-0.2,0.6-0.4,0.9c-0.2,0.3-0.5,0.7-0.9,1c-0.4,0.3-0.9,0.4-1.4,0.5c-0.1,0-0.2,0-0.3,0l-0.2,0c0,0-0.1,0-0.2,0 c-0.3,0-0.6-0.1-0.8-0.1c-0.5-0.1-1-0.1-1.4-0.2c-0.2,0-0.4,0-0.5-0.1c0.1-0.4,0.1-0.8,0.1-1.3c0-1.5-0.5-2.9-1.4-4.1l-4.7-5.9 c-0.9-1.1-2.3-1.8-3.8-1.8s-2.8,0.7-3.8,1.8l-4.7,5.9c-0.9,1.1-1.4,2.6-1.4,4.1c0,0.4,0,0.9,0.1,1.3c0,0-0.1,0-0.1,0 c-0.4,0-0.9,0.1-1.4,0.2c-0.3,0-0.5,0.1-0.8,0.1c-0.1,0-0.2,0-0.2,0l-0.2,0c-0.2,0-0.2,0-0.3,0c-0.5,0-1-0.2-1.4-0.5 c-0.4-0.3-0.7-0.6-0.9-1c-0.2-0.3-0.3-0.7-0.4-0.9c0-0.2-0.1-0.4-0.1-0.4s0,0.1,0,0.4c0,0.3,0,0.6,0.2,1c0.1,0.4,0.4,0.9,0.8,1.3 c0.4,0.4,1,0.8,1.6,1c0.2,0,0.4,0.1,0.5,0.1l0.2,0l0.2,0c0.3,0,0.6,0.1,0.8,0.1c0.5,0.1,1,0.1,1.4,0.2c0.3,0,0.5,0.1,0.7,0.1 c1.1,2,3.2,3.4,5.7,3.4c1.2,0,2.4-0.3,3.4-1c1,0.6,2.2,1,3.4,1c1.9,0,3.6-0.8,4.8-2.1c0.1,2.5-0.1,5-0.6,7.5c0,0.1-0.1,0.5,0,0.7 c0.1,1.4,1.3,2.4,2.6,2.4c0.1,0,0.1,0,0.2,0c1.5-0.1,2.5-1.4,2.4-2.8c0-0.3-0.1-0.6-0.2-0.7l0-0.1c-1.1-2.7-1.7-5.5-1.9-8.4 c0.3,0,0.7-0.1,1-0.1c0.3,0,0.5-0.1,0.8-0.1l0.2,0l0.2,0c0.1,0,0.3-0.1,0.5-0.1c0.6-0.2,1.2-0.5,1.6-1c0.4-0.4,0.7-0.9,0.8-1.3 C66,51.5,66.1,51.2,66,50.9c0.1-0.2,0.1-0.4,0.1-0.4S66,50.7,66,50.9z M53.4,56.2c-1,0-2-0.3-2.8-1L50,54.7l-0.6,0.5 c-0.8,0.6-1.8,1-2.8,1c-2.5,0-4.5-2-4.5-4.5c0-1,0.3-2,1-2.8l4.7-5.9c0.5-0.7,1.3-1.1,2.2-1.1s1.7,0.4,2.2,1.1l4.7,5.9 c0.6,0.8,1,1.8,1,2.8C57.9,54.2,55.9,56.2,53.4,56.2z M61.3,63.6c0,0.1,0.1,0.3,0.1,0.4c0.1,0.6-0.4,1.2-1,1.2 c-0.3,0-0.6-0.1-0.8-0.3c-0.2-0.2-0.4-0.5-0.4-0.8c0-0.1,0-0.2,0-0.3c0.4-1.7,0.6-3.4,0.7-5.2C60.1,60.3,60.6,62,61.3,63.6z M81.9,20.4c-0.7-0.7-1.8-0.9-2.7-0.5l-17,6.8c-1.9-0.7-3.9-1.1-6-1.2c-1.2-2.2-3.6-3.7-6.1-3.7s-4.9,1.4-6.1,3.7 c-2,0.1-4,0.5-6,1.2l-17-6.8c-0.9-0.4-2-0.2-2.7,0.5c-0.7,0.7-1,1.7-0.7,2.7l2.7,8.6c1,3.1,3.6,5.4,6.8,6c-0.3,0.9-0.6,1.9-0.8,2.8 c-0.5,2.6-0.4,5.3,0.3,7.8c0.2,0.7,0,1.5-0.6,2c-6.1,6.1-6.1,16.1,0,22.2c3.3,3.3,7.7,4.9,12.3,4.6c3.3,2,7,3,10.7,3.2 c0.4,0,0.7,0,1.1,0.1c0.2,0,0.4,0,0.6,0c3.9-0.1,7.8-1.2,11.3-3.2c4.6,0.4,9-1.3,12.3-4.5c6.1-6.1,6.1-16.1,0-22.2 c-0.5-0.5-0.7-1.3-0.6-2c0.7-2.6,0.8-5.2,0.3-7.8c-0.2-0.9-0.4-1.9-0.8-2.8c3.1-0.6,5.8-2.9,6.8-6l2.7-8.6 C82.9,22.1,82.6,21.1,81.9,20.4z M80.6,22.5L77.9,31c-0.9,2.8-3.4,4.7-6.3,4.8l-0.4,0c0.4-0.5,0.7-1.2,0.8-1.9 c0.2-0.8,0.1-1.8-0.2-2.6c-0.1-0.2-0.2-0.4-0.3-0.6c-0.1-0.3-0.2-0.3-0.3-0.5c0,0,0,0,0-0.1c0.4-0.3,0.8-0.5,1.2-0.8 c0.7-0.5,1.4-1,2.1-1.5c0.7-0.5,1.3-1,2-1.6c0.6-0.6,1.3-1.1,1.9-1.8c-0.8,0.2-1.6,0.6-2.4,0.9c-0.8,0.3-1.5,0.7-2.3,1.1 c-0.8,0.4-1.5,0.8-2.2,1.2c-0.7,0.4-1.4,0.9-2.1,1.3l-0.9,0.6l0.6,0.8c0.2,0.3,0.4,0.6,0.7,0.9c0,0.1,0.2,0.3,0.3,0.4 c0.1,0.1,0.1,0.2,0.2,0.4c0.3,0.5,0.4,1.1,0.4,1.8c0,0.6-0.1,1.3-0.4,1.9c-0.1,0.3-0.3,0.6-0.5,0.9c-0.2,0.3-0.4,0.7-0.5,1 c0.3-0.2,0.6-0.4,0.9-0.7c0.1-0.1,0.3-0.2,0.4-0.3l0.2,0.5c0.5,1.2,0.9,2.4,1.1,3.6c0.4,2.3,0.3,4.7-0.3,7c-0.4,1.4,0,2.9,1.1,4 c5.3,5.3,5.3,14,0,19.4c-2.6,2.6-6.2,4-9.9,4c0.8-0.7,1.4-1.3,1.8-1.8c0.3-0.4,0.6-0.7,0.7-0.9c0.2-0.2,0.2-0.3,0.2-0.3 s-0.5,0.3-1.2,0.9c-0.4,0.3-0.9,0.6-1.4,1c-0.6,0.4-1.2,0.7-1.9,1.1c-0.7,0.4-1.5,0.8-2.3,1.2c-0.8,0.4-1.7,0.7-2.7,1 c-0.9,0.3-1.9,0.5-3,0.7c-0.4,0.1-0.8,0.1-1.2,0.2c-1.4,0.1-2.9,0.1-4.3,0c-0.2,0-0.5-0.1-0.7-0.1c-1-0.2-2-0.4-3-0.7 c-0.9-0.3-1.8-0.7-2.7-1c-0.8-0.4-1.6-0.8-2.3-1.2c-0.7-0.4-1.3-0.8-1.9-1.1c-0.6-0.4-1-0.7-1.4-1c-0.8-0.6-1.2-0.9-1.2-0.9 s0.1,0.1,0.2,0.3c0.2,0.2,0.4,0.5,0.7,0.9c0.4,0.5,1,1.1,1.8,1.8c-3.7,0.1-7.2-1.4-9.9-4c-5.3-5.3-5.3-14,0-19.3 c1.1-1,1.5-2.5,1.1-4c-0.6-2.3-0.7-4.6-0.3-7c0.2-1.2,0.6-2.4,1.1-3.6l0.2-0.5c0.1,0.1,0.3,0.2,0.4,0.3c0.3,0.2,0.6,0.4,0.9,0.7 c-0.2-0.3-0.3-0.7-0.5-1c-0.2-0.3-0.4-0.6-0.5-0.9c-0.3-0.6-0.4-1.3-0.4-1.9c0-0.6,0.2-1.2,0.4-1.8c0.1-0.1,0.1-0.3,0.2-0.4 c0-0.1,0.2-0.3,0.3-0.4c0.2-0.3,0.4-0.6,0.7-0.9l0.6-0.8L30.7,29c-0.7-0.5-1.4-0.9-2.1-1.3c-0.7-0.4-1.5-0.8-2.2-1.2 c-0.7-0.4-1.5-0.8-2.3-1.1c-0.8-0.3-1.6-0.7-2.4-0.9c0.6,0.6,1.2,1.2,1.9,1.8c0.6,0.6,1.3,1.1,2,1.6c0.7,0.5,1.4,1,2.1,1.5 c0.4,0.3,0.8,0.5,1.2,0.8c0,0,0,0,0,0.1c-0.1,0.2-0.2,0.3-0.3,0.5c-0.1,0.2-0.2,0.4-0.3,0.6c-0.3,0.8-0.4,1.7-0.2,2.6 c0.1,0.7,0.4,1.3,0.8,1.9l-0.4,0c-2.9-0.1-5.4-2-6.3-4.8l-2.7-8.6c-0.1-0.3,0.1-0.5,0.2-0.6c0.1-0.1,0.3-0.2,0.6-0.1l17.7,7l0.4-0.1 c2-0.8,4.1-1.2,6.2-1.2l0.7,0l0.3-0.6c0.8-1.8,2.6-3,4.6-3s3.8,1.2,4.6,3l0.3,0.6l0.7,0c2.1,0,4.2,0.4,6.2,1.2l0.4,0.1l17.7-7 c0.3-0.1,0.5,0,0.6,0.1C80.6,21.9,80.7,22.1,80.6,22.5z" class="st0"/></svg>