<svg height='100px' width='100px'  fill="#000000" xmlns="http://www.w3.org/2000/svg" xmlns:xlink="http://www.w3.org/1999/xlink" version="1.1" x="0px" y="0px" viewBox="0 0 100 100" style="enable-background:new 0 0 100 100;" xml:space="preserve"><style type="text/css">
	.st0{fill:#000000;}
</style><path class="st0" d="M39.6,46.4c1.9,0.1,3.5-0.3,3.5-0.8s-1.5-1.1-3.4-1.2c-1.9-0.1-3.5,0.3-3.5,0.8C36.2,45.8,37.7,46.3,39.6,46.4z   M60,46.4c1.9-0.1,3.4-0.6,3.4-1.2s-1.6-0.9-3.5-0.8s-3.4,0.6-3.4,1.2S58.1,46.5,60,46.4z M67.1,62.7c-0.5-0.2-1.1-0.3-2.1-0.4v-1.8  c0-1.1-0.9-2.1-2-2.1s-2,0.9-2,2.1v1.5c0,0-1.4,0.1-2.2,0.1c0.6-1,1.1-2.2,1.1-3.4c0-1.5-0.5-2.9-1.4-4.1l-4.7-5.9  c-0.9-1.1-2.3-1.8-3.7-1.8s-2.8,0.7-3.7,1.8l-4.7,5.9c-0.9,1.1-1.4,2.6-1.4,4.1c0,1.2,0.4,2.4,1,3.4C40,62.1,38.7,62,37.4,62  c-0.9,0-1.7,0.1-2.5,0.2c-0.8,0.1-1.5,0.3-2.1,0.5c-0.3,0.1-0.6,0.2-0.8,0.3c-0.2,0.1-0.4,0.2-0.6,0.3c-0.3,0.2-0.5,0.3-0.5,0.3  s0.2-0.1,0.5-0.2c0.2-0.1,0.4-0.1,0.6-0.2c0.2-0.1,0.5-0.1,0.8-0.2c0.6-0.1,1.3-0.2,2.1-0.1c0.8,0,1.6,0.1,2.4,0.2  c1.6,0.2,3.2,0.6,4.4,0.9c0.6,0.2,1.1,0.3,1.4,0.4c0.2,0.1,0.3,0.1,0.4,0.1c0.9,0.5,1.9,0.7,3,0.7c1.2,0,2.4-0.3,3.4-1  c1,0.6,2.2,1,3.4,1c1.1,0,2.1-0.3,3-0.7c0.1,0,0.2-0.1,0.4-0.1c0.3-0.1,0.8-0.3,1.4-0.4c1.2-0.3,2.8-0.7,4.4-0.9  c0.8-0.1,1.6-0.2,2.4-0.2c0.8,0,1.5,0,2.1,0.1c0.3,0.1,0.6,0.1,0.8,0.2c0.2,0.1,0.5,0.1,0.6,0.2c0.3,0.1,0.5,0.2,0.5,0.2  s-0.2-0.1-0.5-0.3c-0.2-0.1-0.5-0.2-0.7-0.3C67.8,62.9,67.4,62.8,67.1,62.7z M53.5,63.3c-1,0-2-0.3-2.8-1l-0.6-0.5l-0.6,0.5  c-0.8,0.6-1.8,1-2.8,1c-2.5,0-4.5-2-4.5-4.5c0-1,0.3-2,1-2.8l4.7-5.9c0.5-0.7,1.3-1.1,2.2-1.1s1.7,0.4,2.2,1.1L57,56  c0.6,0.8,1,1.8,1,2.8C58,61.3,56,63.3,53.5,63.3z M64,62.2c0-0.1-1.1-0.1-1.7-0.1c-0.1,0-0.3,0-0.3,0v-1.5c0-0.6,0.4-1.1,1-1.1  s1,0.5,1,1.1V62.2z M81.9,21c-0.7-0.7-1.8-0.9-2.7-0.5l-17,6.8C60,26.4,57.7,26,55.5,26H54v-3.5c0-1.9-1.2-3.5-3.1-3.5h-1.8  c-1.9,0-3.2,1.6-3.2,3.5V26h-1.3c-2.3,0-4.6,0.4-6.7,1.2l-17-6.8c-0.9-0.4-2-0.2-2.7,0.5c-0.7,0.7-1,1.7-0.7,2.7l2.3,7.4  c-0.8,0.4-1.5,1.1-2,1.9c-1.3,2.3-0.5,5.3,1.8,6.7c0.7,0.4,1.6,0.6,2.4,0.6c0.4,0,0.9-0.1,1.3-0.2c1.2-0.3,2.1-1.1,2.8-2.1  c0.2,0.1,0.5,0.1,0.8,0.2c-0.3,0.9-0.6,1.9-0.8,2.8c-0.5,2.6-0.4,5.3,0.3,7.8c0.2,0.7,0,1.5-0.6,2c-3,3-4.6,6.9-4.6,11.1  s1.6,8.1,4.6,11.1c3.3,3.3,7.8,4.9,12.3,4.6c3.3,2,7,3,10.7,3.2c0.4,0,0.7,0,1.1,0.1c0.2,0,0.4,0,0.6,0c3.9-0.1,7.8-1.2,11.3-3.2  c4.6,0.3,9-1.3,12.3-4.5c3-3,4.6-6.9,4.6-11.1s-1.6-8.1-4.6-11.1c-0.5-0.5-0.7-1.3-0.6-2c0.7-2.6,0.8-5.2,0.3-7.8  c-0.2-0.9-0.4-1.9-0.8-2.8c3.1-0.6,5.8-2.9,6.8-6l2.7-8.6C82.9,22.7,82.7,21.7,81.9,21z M48,22.5c0-0.8,0.4-1.5,1.2-1.5h1.8  c0.8,0,1.1,0.7,1.1,1.5v7.1c0-0.2-0.4-0.6-0.9-0.6H49c-0.4,0-1,0.5-1,0.6V22.5z M48,32.6c0-0.7,0.3-1.6,1-1.6h2.2  c0.7,0,0.9,0.9,0.9,1.6V35h-4V32.6z M22.9,38.2c-0.7,0.2-1.5,0.1-2.2-0.3c-1.4-0.8-1.9-2.5-1.1-3.9c0.2-0.4,0.5-0.7,0.9-1  c0.8,1.8,2.1,3.3,3.8,4.2C24,37.7,23.5,38,22.9,38.2z M80.7,23.1L78,31.6c-0.9,2.8-3.4,4.7-6.3,4.8l-0.4,0c0.4-0.5,0.7-1.2,0.8-1.9  c0.2-0.8,0.1-1.8-0.2-2.6c-0.1-0.2-0.2-0.4-0.3-0.6c-0.1-0.3-0.2-0.3-0.3-0.5c0,0,0,0,0-0.1c0.4-0.3,0.8-0.5,1.2-0.8  c0.7-0.5,1.4-1,2.1-1.5c0.7-0.5,1.3-1,2-1.6c0.6-0.6,1.3-1.1,1.9-1.8c-0.8,0.2-1.6,0.6-2.4,0.9c-0.8,0.3-1.5,0.7-2.3,1.1  c-0.8,0.4-1.5,0.8-2.2,1.2c-0.7,0.4-1.4,0.9-2.1,1.3l-0.9,0.6l0.6,0.8c0.2,0.3,0.4,0.6,0.7,0.9c0,0.1,0.2,0.3,0.3,0.4  c0.1,0.1,0.1,0.2,0.2,0.4c0.3,0.5,0.4,1.1,0.4,1.8c0,0.6-0.1,1.3-0.4,1.9c-0.1,0.3-0.3,0.6-0.5,0.9c-0.2,0.3-0.4,0.7-0.5,1  c0.3-0.2,0.6-0.4,0.9-0.7c0.1-0.1,0.3-0.2,0.4-0.3l0.2,0.5c0.5,1.2,0.9,2.4,1.1,3.6c0.4,2.3,0.3,4.7-0.3,7c-0.4,1.4,0,2.9,1.1,4  c2.6,2.6,4,6,4,9.7s-1.4,7.1-4,9.7c-2.6,2.6-6.2,4-9.9,4c0.8-0.7,1.4-1.3,1.8-1.8c0.3-0.4,0.6-0.7,0.7-0.9c0.2-0.2,0.2-0.3,0.2-0.3  s-0.5,0.3-1.2,0.9c-0.4,0.3-0.9,0.6-1.4,1c-0.6,0.4-1.2,0.7-1.9,1.1c-0.7,0.4-1.5,0.8-2.3,1.2c-0.8,0.4-1.7,0.7-2.7,1  c-0.9,0.3-1.9,0.5-3,0.7c-0.4,0.1-0.8,0.1-1.2,0.2c-1.4,0.1-2.9,0.1-4.3-0.1c-0.2,0-0.5-0.1-0.7-0.1c-1-0.2-2-0.4-3-0.7  c-0.9-0.3-1.8-0.7-2.7-1c-0.8-0.4-1.6-0.8-2.3-1.2c-0.7-0.4-1.3-0.8-1.9-1.1c-0.6-0.4-1-0.7-1.4-1c-0.8-0.6-1.2-0.9-1.2-0.9  s0.1,0.1,0.2,0.3c0.2,0.2,0.4,0.5,0.7,0.9c0.4,0.5,1,1.1,1.8,1.8c-3.7,0-7.2-1.4-9.9-4c-2.6-2.6-4-6-4-9.7s1.4-7.1,4-9.7  c1.1-1,1.5-2.5,1.1-4c-0.6-2.3-0.7-4.6-0.3-7c0.2-1.2,0.6-2.4,1.1-3.6l0.2-0.5c0.1,0.1,0.3,0.2,0.4,0.3c0.3,0.2,0.6,0.4,0.9,0.7  c-0.2-0.3-0.3-0.7-0.5-1c-0.2-0.3-0.4-0.6-0.5-0.9c-0.3-0.6-0.4-1.3-0.4-1.9c0-0.6,0.2-1.2,0.4-1.8c0.1-0.1,0.1-0.3,0.2-0.4  c0-0.1,0.2-0.3,0.3-0.4c0.2-0.3,0.4-0.6,0.7-0.9l0.6-0.8l-0.9-0.6c-0.7-0.5-1.4-0.9-2.1-1.3c-0.7-0.4-1.5-0.8-2.2-1.2  c-0.7-0.4-1.5-0.8-2.3-1.1c-0.8-0.3-1.6-0.7-2.4-0.9c0.6,0.6,1.2,1.2,1.9,1.8c0.6,0.6,1.3,1.1,2,1.6c0.7,0.5,1.4,1,2.1,1.5  c0.4,0.3,0.8,0.5,1.2,0.8c0,0,0,0,0,0.1c-0.1,0.2-0.2,0.3-0.3,0.5c-0.1,0.2-0.2,0.4-0.3,0.6c-0.3,0.8-0.4,1.7-0.2,2.6  c0.1,0.7,0.4,1.3,0.8,1.9l-0.4,0c-2.6-0.1-4.8-1.6-5.9-3.8c0.4,0,0.7,0.2,1.1,0.4c0.3,0.2,0.6,0.4,0.8,0.7c0.3,0.4,1,0.5,1.4,0.2  c0.4-0.3,0.5-1,0.2-1.4c-0.4-0.5-0.9-0.9-1.4-1.2c-0.9-0.5-1.8-0.7-2.8-0.6l-2.4-7.5c-0.1-0.3,0.1-0.5,0.2-0.6  c0.1-0.1,0.3-0.2,0.6-0.1l17.7,7l0.4-0.1c2.1-0.8,4.2-1.2,6.4-1.2H46v9h8v-9h1.5c2.2,0,4.3,0.4,6.4,1.2l0.4,0.1l17.7-7  c0.3-0.1,0.5,0,0.6,0.1C80.6,22.5,80.8,22.7,80.7,23.1z M41.4,32.6c0.3,0,0.5-0.2,0.5-0.5c0-0.3-0.2-0.5-0.5-0.5  c-0.3,0-0.5,0.2-0.5,0.5C40.9,32.4,41.1,32.6,41.4,32.6z M43.6,34.3c0.3,0,0.5-0.2,0.5-0.5c0-0.3-0.2-0.5-0.5-0.5  c-0.3,0-0.5,0.2-0.5,0.5C43,34,43.3,34.3,43.6,34.3z M41.4,35.4c0.3,0,0.5-0.2,0.5-0.5c0-0.3-0.2-0.5-0.5-0.5  c-0.3,0-0.5,0.2-0.5,0.5C40.8,35.1,41.1,35.4,41.4,35.4z M53,54.8c-0.2-0.3-0.5-0.4-0.8-0.4c-0.6,0-1.1,0.5-1.1,1.1c0,0,0,0,0,0.1  l0.2,3.5c0.1,1.1,1,2,2.1,2c1.2,0,2.1-1,2.1-2.1c0-0.5-0.2-0.9-0.4-1.3L53,54.8z M48,54.3c-0.3,0-0.7,0.2-0.8,0.4l-2.1,2.8  c-0.3,0.4-0.4,0.8-0.4,1.3c0,1.2,1,2.1,2.1,2.1c1.1,0,2.1-0.9,2.1-2l0.2-3.5c0,0,0,0,0-0.1C49.1,54.8,48.6,54.3,48,54.3z M33.7,49.2  c0.3,0.5,0.7,1,1.1,1.4c0.2,0.2,0.5,0.4,0.8,0.6c0.3,0.2,0.5,0.3,0.8,0.4c0.6,0.2,1.2,0.4,1.8,0.4c0.6,0,1.2,0,1.8-0.1  c0.6-0.1,1.1-0.3,1.5-0.6c0.5-0.3,0.8-0.6,1.1-0.9c0.6-0.7,0.9-1.3,1.1-1.8c0.1-0.2,0.1-0.4,0.1-0.5c0-0.1,0-0.2,0-0.2  s-0.2,0.2-0.5,0.5c-0.2,0.2-0.4,0.3-0.6,0.5c-0.2,0.2-0.5,0.4-0.8,0.6c-0.3,0.2-0.7,0.3-1,0.4c-0.4,0.1-0.8,0.2-1.2,0.2  c-0.4,0-0.8,0-1.3,0c-0.4-0.1-0.8-0.2-1.2-0.4c-0.1-0.1-0.5-0.2-0.6-0.3c-0.2-0.1-0.3-0.2-0.5-0.3c-0.3-0.3-0.7-0.5-0.9-0.9  c-0.2-0.3-0.5-0.7-0.6-1c-0.2-0.4-0.3-0.7-0.4-1.1c-0.1-0.3-0.1-0.7-0.2-1c0-0.3,0-0.6,0-0.8c0-0.5,0-0.7,0-0.7s0,0.1-0.1,0.2  c-0.1,0.1-0.2,0.3-0.3,0.5c-0.2,0.4-0.5,1.1-0.6,2c0,0.4,0,0.9,0.1,1.4C33.2,48.2,33.4,48.7,33.7,49.2z M56.3,48.6  c0.1,0.5,0.5,1.1,1.1,1.8c0.3,0.3,0.7,0.6,1.1,0.9c0.4,0.3,1,0.5,1.5,0.6c0.6,0.1,1.2,0.2,1.8,0.1c0.6-0.1,1.2-0.2,1.8-0.5  c0.4-0.2,1.1-0.6,1.5-1c0.5-0.4,0.8-0.9,1.1-1.4c0.3-0.5,0.5-1,0.6-1.5c0.1-0.5,0.1-1,0.1-1.4c0-0.9-0.3-1.6-0.6-2  c-0.1-0.2-0.2-0.4-0.3-0.5c-0.1-0.1-0.1-0.2-0.1-0.2s0,0.3,0,0.7c0,0.2,0,0.5,0,0.8c0,0.3-0.1,0.6-0.2,1c-0.1,0.3-0.2,0.7-0.4,1.1  c-0.2,0.4-0.4,0.7-0.6,1c-0.3,0.3-0.6,0.6-0.9,0.9c-0.4,0.3-0.6,0.4-1.2,0.7c-0.3,0.1-0.8,0.3-1.2,0.3c-0.4,0-0.8,0.1-1.3,0  c-0.4-0.1-0.8-0.1-1.2-0.2c-0.4-0.1-0.7-0.3-1-0.4c-0.3-0.2-0.6-0.4-0.8-0.6c-0.2-0.2-0.4-0.4-0.6-0.5c-0.3-0.3-0.5-0.5-0.5-0.5  s0,0.1,0,0.2C56.2,48.1,56.2,48.3,56.3,48.6z M31.9,60.5c0.4,0.2,0.7,0.2,0.9,0.2c0.2,0,0.4,0,0.4,0s-0.1-0.1-0.3-0.2  c-0.1-0.1-0.2-0.1-0.3-0.2c-0.1-0.1-0.2-0.2-0.4-0.3c-0.3-0.2-0.6-0.5-0.9-0.8c-0.2-0.2-0.3-0.3-0.4-0.5c-0.2-0.2-0.3-0.4-0.4-0.6  c0,0,0,0,0,0c0.5-0.9,1-1.8,1.4-2.5c0.4-0.7,0.6-1.2,0.6-1.2s-0.5,0.3-1,0.9c-0.5,0.5-1,1.1-1.5,1.9c0-0.1-0.1-0.2-0.1-0.2  c-0.2-0.4-0.4-0.8-0.6-1.1c-0.3-0.7-0.5-1.2-0.5-1.2s-0.1,0.5,0,1.3c0.1,0.4,0.1,0.8,0.3,1.3c0.1,0.3,0.2,0.6,0.4,0.8  c0,0.1-0.1,0.2-0.1,0.3c-0.1,0.2-0.2,0.5-0.3,0.7c-0.2,0.5-0.3,1-0.3,1.4c0,0.2,0,0.4,0,0.6c0,0.2,0,0.3,0,0.4  c0,0.2,0.1,0.4,0.1,0.4s0-0.1,0.1-0.4c0-0.1,0.1-0.2,0.1-0.4c0.1-0.1,0.1-0.3,0.2-0.5c0.2-0.5,0.5-1.1,0.8-1.6  c0.2,0.3,0.5,0.6,0.8,0.8c0.2,0.2,0.4,0.3,0.6,0.4C31.5,60.3,31.7,60.4,31.9,60.5z"></path></svg>