<svg xmlns="http://www.w3.org/2000/svg" xmlns:xlink="http://www.w3.org/1999/xlink" width="100" height="100" x="0" y="0" style="enable-background:new 0 0 100 100" fill="#000" version="1.1" viewBox="0 0 100 100" xml:space="preserve"><style type="text/css">.st0{fill:#000}</style><path d="M81.9,20.4c-0.7-0.7-1.8-0.9-2.7-0.5l-17,6.5c-2.2-0.8-4.4-1.5-6.7-1.5H44.6c-2.3,0-4.6,0.6-6.7,1.5l-17-6.6 c-0.9-0.4-2-0.1-2.7,0.6c-0.7,0.7-1,1.7-0.7,2.7l2.7,8.6c1,3.1,3.6,5.4,6.8,6c-0.3,0.9-0.6,1.9-0.8,2.8c-0.5,2.6-0.4,5.3,0.3,7.8 c0.2,0.7,0,1.5-0.6,2c-6.1,6.1-6.1,16.1,0,22.2c3.3,3.3,7.7,4.9,12.3,4.6c3.3,2,7,3,10.7,3.2c0.4,0,0.7,0,1.1,0.1c0.2,0,0.4,0,0.6,0 c3.9-0.1,7.8-1.2,11.3-3.2c4.6,0.4,9-1.3,12.3-4.5c6.1-6.1,6.1-16.1,0-22.2c-0.5-0.5-0.7-1.3-0.6-2c0.7-2.6,0.8-5.2,0.3-7.8 c-0.2-0.9-0.4-1.9-0.8-2.8c3.1-0.6,5.8-2.9,6.8-6l2.7-8.6C82.9,22.1,82.6,21.1,81.9,20.4z M80.6,22.5l-2.7,8.6 c-0.9,2.8-3.4,4.7-6.3,4.8l-0.4,0c0.4-0.5,0.7-1.2,0.8-1.9c0.2-0.8,0.1-1.8-0.2-2.6c-0.1-0.2-0.2-0.4-0.3-0.6 c-0.1-0.3-0.2-0.3-0.3-0.5c0,0,0,0,0-0.1c0.4-0.3,0.8-0.5,1.2-0.8c0.7-0.5,1.4-1,2.1-1.5c0.7-0.5,1.3-1,2-1.6 c0.6-0.6,1.3-1.1,1.9-1.8c-0.8,0.2-1.6,0.6-2.4,0.9c-0.8,0.3-1.5,0.7-2.3,1.1c-0.8,0.4-1.5,0.8-2.2,1.2c-0.7,0.4-1.4,0.9-2.1,1.3 l-0.9,0.6l0.6,0.8c0.2,0.3,0.4,0.6,0.7,0.9c0,0.1,0.2,0.3,0.3,0.4c0.1,0.1,0.1,0.2,0.2,0.4c0.3,0.5,0.4,1.1,0.4,1.8 c0,0.6-0.1,1.3-0.4,1.9c-0.1,0.3-0.3,0.6-0.5,0.9c-0.2,0.3-0.4,0.7-0.5,1c0.3-0.2,0.6-0.4,0.9-0.7c0.1-0.1,0.3-0.2,0.4-0.3l0.2,0.5 c0.5,1.2,0.9,2.4,1.1,3.6c0.4,2.3,0.3,4.7-0.3,7c-0.4,1.4,0,2.9,1.1,4c5.3,5.3,5.3,14,0,19.4c-2.6,2.6-6.2,4-9.9,4 c0.8-0.7,1.4-1.3,1.8-1.8c0.3-0.4,0.6-0.7,0.7-0.9c0.2-0.2,0.2-0.3,0.2-0.3s-0.5,0.3-1.2,0.9c-0.4,0.3-0.9,0.6-1.4,1 c-0.6,0.4-1.2,0.7-1.9,1.1c-0.7,0.4-1.5,0.8-2.3,1.2c-0.8,0.4-1.7,0.7-2.7,1c-0.9,0.3-1.9,0.5-3,0.7c-0.4,0.1-0.8,0.1-1.2,0.2 c-1.4,0.1-2.9,0.1-4.3,0c-0.2,0-0.5-0.1-0.7-0.1c-1-0.2-2-0.4-3-0.7c-0.9-0.3-1.8-0.7-2.7-1c-0.8-0.4-1.6-0.8-2.3-1.2 c-0.7-0.4-1.3-0.8-1.9-1.1c-0.6-0.4-1-0.7-1.4-1c-0.8-0.6-1.2-0.9-1.2-0.9s0.1,0.1,0.2,0.3c0.2,0.2,0.4,0.5,0.7,0.9 c0.4,0.5,1,1.1,1.8,1.8c-3.7,0.1-7.2-1.4-9.9-4c-5.3-5.3-5.3-14,0-19.3c1.1-1,1.5-2.5,1.1-4c-0.6-2.3-0.7-4.6-0.3-7 c0.2-1.2,0.6-2.4,1.1-3.6l0.2-0.5c0.1,0.1,0.3,0.2,0.4,0.3c0.3,0.2,0.6,0.4,0.9,0.7c-0.2-0.3-0.3-0.7-0.5-1 c-0.2-0.3-0.4-0.6-0.5-0.9c-0.3-0.6-0.4-1.3-0.4-1.9c0-0.6,0.2-1.2,0.4-1.8c0.1-0.1,0.1-0.3,0.2-0.4c0-0.1,0.2-0.3,0.3-0.4 c0.2-0.3,0.4-0.6,0.7-0.9l0.6-0.8L30.7,29c-0.7-0.5-1.4-0.9-2.1-1.3c-0.7-0.4-1.5-0.8-2.2-1.2c-0.7-0.4-1.5-0.8-2.3-1.1 c-0.8-0.3-1.6-0.7-2.4-0.9c0.6,0.6,1.2,1.2,1.9,1.8c0.6,0.6,1.3,1.1,2,1.6c0.7,0.5,1.4,1,2.1,1.5c0.4,0.3,0.8,0.5,1.2,0.8 c0,0,0,0,0,0.1c-0.1,0.2-0.2,0.3-0.3,0.5c-0.1,0.2-0.2,0.4-0.3,0.6c-0.3,0.8-0.4,1.7-0.2,2.6c0.1,0.7,0.4,1.3,0.8,1.9l-0.4,0 c-2.9-0.1-5.4-2-6.3-4.8l-2.7-8.6c-0.1-0.3,0.1-0.5,0.2-0.6c0.1-0.1,0.3-0.2,0.6-0.1l17.7,7l0.4-0.4c2.1-0.8,4.2-1.5,6.4-1.5h10.8 c2.2,0,4.3,0.6,6.4,1.5l0.4,0.3l17.7-7c0.3-0.1,0.5,0.1,0.6,0.1C80.6,21.9,80.7,22.2,80.6,22.5z M47.9,53.8c-0.3,0-0.7,0.2-0.8,0.4 L45,57c-0.3,0.4-0.4,0.8-0.4,1.3c0,1.2,1,2.1,2.1,2.1c1.1,0,2.1-0.9,2.1-2l0.2-3.5c0,0,0,0,0-0.1C49,54.3,48.5,53.8,47.9,53.8z M58.5,54.2l-4.7-5.9c-0.9-1.1-2.3-1.8-3.8-1.8s-2.8,0.7-3.8,1.8l-4.7,5.9c-0.9,1.1-1.4,2.6-1.4,4.1c0,0.8,0.1,1.5,0.4,2.2 c-0.9-0.1-2.1-0.2-3.3,0.1c-0.3,0.1-0.7,0.2-1,0.4c-0.3,0.2-0.6,0.3-0.9,0.6c-0.5,0.4-0.9,0.9-1.1,1.4c-0.4,0.8-0.3,1.5-0.3,1.6 c0-0.1,0-0.2,0.1-0.4c0.1-0.3,0.2-0.7,0.5-1c0.3-0.4,0.7-0.7,1.2-1c0.2-0.1,0.5-0.2,0.8-0.3c0.3-0.1,0.6-0.1,0.9-0.2 c1.2-0.1,2.4,0.3,3.3,0.6c0.5,0.2,0.9,0.4,1.2,0.5c1.2,1.3,2.9,2.1,4.7,2.1c1.2,0,2.4-0.3,3.4-1c1,0.6,2.2,1,3.4,1 c3.6,0,6.5-2.9,6.5-6.5C59.9,56.8,59.4,55.3,58.5,54.2L58.5,54.2z M53.4,62.7c-1,0-2-0.3-2.8-1L50,61.2l-0.6,0.5 c-0.8,0.6-1.8,1-2.8,1c-2.5,0-4.5-2-4.5-4.5c0-1,0.3-2,1-2.8l4.7-5.9c0.5-0.7,1.3-1.1,2.2-1.1s1.7,0.4,2.2,1.1l4.7,5.9v0 c0.6,0.8,1,1.8,1,2.8C57.9,60.7,55.9,62.7,53.4,62.7z M52.9,54.2c-0.2-0.3-0.5-0.4-0.8-0.4c-0.6,0-1.1,0.5-1.1,1.1c0,0,0,0,0,0.1 l0.2,3.5c0.1,1.1,1,2,2.1,2c1.2,0,2.1-1,2.1-2.1c0-0.5-0.2-0.9-0.4-1.3L52.9,54.2z M44.9,31.5c0.3,0,0.5-0.2,0.5-0.5 c0-0.3-0.2-0.5-0.5-0.5s-0.5,0.2-0.5,0.5C44.4,31.3,44.6,31.5,44.9,31.5z M42.7,32.6c0.3,0,0.5-0.2,0.5-0.5c0-0.3-0.2-0.5-0.5-0.5 c-0.3,0-0.5,0.2-0.5,0.5C42.2,32.4,42.4,32.6,42.7,32.6z M42.7,29.9c0.3,0,0.5-0.2,0.5-0.5s-0.2-0.5-0.5-0.5c-0.3,0-0.5,0.2-0.5,0.5 S42.4,29.9,42.7,29.9z M68.3,41.7c0,0-0.6,0-1.6,0c-1,0-2.4,0-4.1,0c-1.7,0-3.7,0-5.8,0c-2.1,0-4.4,0-6.7,0c-4.6,0-9.1,0.1-12.5,0 c-1.7,0-3.1,0-4.1,0c-1,0-1.6,0-1.6,0s0.6,0.1,1.5,0.3c0.4,0.1,0.8,0.1,1.3,0.2c-0.8,0.5-1.3,1.2-1.3,2.2c0,1.6,1.3,2.6,2.8,2.6h6.6 c1.6,0,2.8-1.1,2.8-2.6c0-0.5-0.2-0.9-0.4-1.3c1.6,0.1,3.3,0.1,4.9,0.1c1.7,0,3.3,0,4.9-0.1c-0.3,0.4-0.4,0.7-0.4,1.3 c0,1.6,1.3,2.6,2.8,2.6H64c1.6,0,2.8-1.1,2.8-2.6c0-1-0.5-1.8-1.3-2.3c0.5-0.1,0.9-0.1,1.3-0.2C67.7,41.8,68.3,41.7,68.3,41.7z M36,45c-0.4,0-0.8-0.6-0.8-1s0.4-1,0.8-1h3.2c-0.1,1-0.2,0.7-0.2,1c0,0.3,0.1,1,0.2,1H36z M42.7,45.4h-0.1c0.1-0.2,0.2-0.5,0.2-0.8 c0-0.3-0.1-0.6-0.2-0.8h0.1c0.4,0,0.8,0.4,0.8,0.8S43.1,45.4,42.7,45.4z M57.3,45c-0.4,0-0.8-0.6-0.8-1s0.4-1,0.8-1h3.2 c-0.1,1-0.2,0.7-0.2,1c0,0.3,0.1,1,0.2,1H57.3z M64,45.4h-0.1c0.1-0.2,0.2-0.5,0.2-0.8c0-0.3-0.1-0.6-0.2-0.8H64 c0.4,0,0.8,0.4,0.8,0.8S64.4,45.4,64,45.4z M48.3,40.3c0.6,0.1,1.2,0.2,1.7,0.2c0.6,0,1.2,0,1.7-0.2c0.6-0.1,1.1-0.3,1.5-0.5 c0.4-0.2,0.7-0.4,0.9-0.6c0.2-0.2,0.3-0.3,0.3-0.3s-0.6,0.2-1.4,0.3c-0.8,0.2-1.9,0.2-3,0.2c-1.1,0-2.2-0.1-3-0.2 c-0.8-0.2-1.4-0.3-1.4-0.3s0.4,0.4,1.2,0.9C47.2,40,47.7,40.1,48.3,40.3z M62.4,48.4c-0.6,0.1-1.1,0.2-1.7,0.2 c-1.2,0.1-2.3-0.2-3.2-0.4c-0.4-0.1-0.8-0.3-1-0.4c-0.3-0.1-0.4-0.2-0.4-0.2s0.1,0.1,0.3,0.3c0.2,0.2,0.5,0.5,0.9,0.7 c0.4,0.3,0.9,0.5,1.5,0.7c0.6,0.2,1.3,0.3,1.9,0.2c0.3,0,0.7-0.1,1-0.1c0.3-0.1,0.6-0.2,0.9-0.3c0.6-0.2,1.1-0.4,1.5-0.6 c0.9-0.4,1.4-0.7,1.4-0.7s-0.6,0-1.6,0.1C63.5,48.2,63,48.3,62.4,48.4z M37.3,49.3c0.3,0.1,0.6,0.2,0.9,0.3c0.3,0.1,0.7,0.1,1,0.1 c0.7,0,1.3-0.1,1.9-0.2c0.6-0.2,1.1-0.4,1.5-0.7c0.4-0.3,0.7-0.5,0.9-0.7c0.2-0.2,0.3-0.3,0.3-0.3s-0.1,0.1-0.4,0.2 c-0.3,0.1-0.6,0.2-1,0.4c-0.9,0.3-2,0.5-3.2,0.4c-0.6,0-1.1-0.1-1.7-0.2c-0.6-0.1-1.1-0.2-1.6-0.3c-0.9-0.1-1.6-0.1-1.6-0.1 s0.6,0.3,1.4,0.7C36.3,48.9,36.8,49.1,37.3,49.3z" class="st0"/></svg>