<svg height='100px' width='100px'  fill="#000000" xmlns="http://www.w3.org/2000/svg" xmlns:xlink="http://www.w3.org/1999/xlink" version="1.1" x="0px" y="0px" viewBox="0 0 100 100" style="enable-background:new 0 0 100 100;" xml:space="preserve"><g><path d="M88.6392212,69.2294006h-6.6060181H59.5250244l-3.0205078,3.527832   c-0.1551514,0.1817627-0.3815918,0.2860107-0.6201782,0.2860107H44.1156616c-0.2385864,0-0.4650269-0.104248-0.6201782-0.2860107   l-3.0205078-3.527832H17.9667969h-6.6060181c-0.7504272,0-1.3605347,0.6101074-1.3605347,1.3604736v4.3623047   c0,1.3498535,1.0985107,2.4489746,2.4489136,2.4489746h75.1016846c1.3504028,0,2.4489136-1.0991211,2.4489136-2.4489746v-4.3623047   C89.9997559,69.8395081,89.3896484,69.2294006,88.6392212,69.2294006z M16.7348633,74.1316223H14.421936   c-0.4506226,0-0.8162842-0.3657227-0.8162842-0.8164063s0.3656616-0.8162842,0.8162842-0.8162842h2.3129272   c0.4506836,0,0.8163452,0.3656006,0.8163452,0.8162842S17.1855469,74.1316223,16.7348633,74.1316223z M23.8096924,74.1316223   h-2.3129272c-0.4506836,0-0.8163452-0.3657227-0.8163452-0.8164063s0.3656616-0.8162842,0.8163452-0.8162842h2.3129272   c0.4506226,0,0.8162842,0.3656006,0.8162842,0.8162842S24.2603149,74.1316223,23.8096924,74.1316223z"></path><path d="M17.9667969,67.5967712h64.0664063c0.7504272,0,1.3605347-0.6101685,1.3605347-1.3605957V23.9593811   c0-0.7503662-0.6101074-1.3605347-1.3605347-1.3605347H17.9667969c-0.7504272,0-1.3605347,0.6101685-1.3605347,1.3605347   v42.2767944C16.6062622,66.9866028,17.2163696,67.5967712,17.9667969,67.5967712z M51.1564331,65.3699036h-2.3128662   c-0.4506836,0-0.8163452-0.3656616-0.8163452-0.8163452c0-0.4506226,0.3656616-0.8162842,0.8163452-0.8162842h2.3128662   c0.4506836,0,0.8163452,0.3656616,0.8163452,0.8162842C51.9727783,65.0042419,51.6071167,65.3699036,51.1564331,65.3699036z    M49.822998,24.8267517h0.3540039c0.4506226,0,0.8162842,0.3656616,0.8162842,0.8163452s-0.3656616,0.8162842-0.8162842,0.8162842   H49.822998c-0.4506226,0-0.8162842-0.3656006-0.8162842-0.8162842S49.3723755,24.8267517,49.822998,24.8267517z    M21.0657349,29.5036316c0-0.4506836,0.3656616-0.8163452,0.8163452-0.8163452h56.2358398   c0.4506836,0,0.8163452,0.3656616,0.8163452,0.8163452v31.1893921c0,0.4506836-0.3656616,0.8163452-0.8163452,0.8163452H21.8820801   c-0.4506836,0-0.8163452-0.3656616-0.8163452-0.8163452V29.5036316z"></path><path d="M27.6478882,39.6598816h4.7618408v4.8979492c0,0.3178101,0.1849365,0.6069336,0.4735718,0.7408447   c0.2885742,0.1339722,0.6297607,0.0882568,0.871582-0.1190186l2.2751465-1.9334717l1.9301758,1.1563721l-2.3728638,2.9039917   c-0.0249634,0.0308228-0.0478516,0.0627441-0.0680542,0.0967407l-1.6676636,2.779541l-2.0594482-0.9268799   c-0.350769-0.1583862-0.7658081-0.0499268-0.9932861,0.2614746l-2.9931641,4.081665   c-0.2662964,0.3635254-0.1876221,0.8737183,0.1759033,1.1405029c0.1450806,0.1073608,0.3140869,0.1583862,0.4820557,0.1583862   c0.2507935,0,0.4990234-0.1158447,0.6589966-0.3337402l2.6019897-3.5491333l2.1189575,0.9534302   c0.378418,0.1711426,0.8221436,0.0308228,1.034729-0.3241577l2.0105591-3.3503418l2.4864502-3.0435181l0.9143066,0.5477295   c0.2174072,0.1307373,0.4847412,0.1520386,0.7211914,0.0584717l1.5540161-0.6185913l2.6142578,2.4957275   c0.041748,0.0396118,0.0944824,0.0617065,0.1428223,0.0914307c0.0377808,0.0234375,0.0698242,0.0541992,0.1113892,0.0713501   c0.0977173,0.0401001,0.2023926,0.062561,0.3096313,0.062561h3.4959717l-0.9619751,1.6251831   c-0.1312256,0.222168-0.1498413,0.4932251-0.0504761,0.7313232c0.0999146,0.2380981,0.3066406,0.4145508,0.5570068,0.4772339   l0.6446533,0.1594849l-5.4352417,2.8125c-0.3045654,0.1572876-0.4777832,0.4888916-0.4347534,0.8290405   c0.0435791,0.3391113,0.2949829,0.6165161,0.6292725,0.6919556l12.6046143,2.8571777   c0.0610962,0.0137939,0.1217041,0.0202026,0.1812134,0.0202026c0.3731079,0,0.7095337-0.2572632,0.7955933-0.6356201   c0.0999146-0.4400635-0.1759033-0.8769531-0.6154175-0.9768677l-10.4256592-2.362854l5.37677-2.7827759   c0.3018799-0.15625,0.4751587-0.4825439,0.4353027-0.8205566s-0.2843628-0.6154175-0.6143799-0.6972656l-1.6842041-0.416687   l1.132019-1.9121704c0.149353-0.2519531,0.1519775-0.5654907,0.0064087-0.819519   c-0.1451416-0.255127-0.4156494-0.4124146-0.7089844-0.4124146h-3.2021484l1.7507324-2.1343994l5.9937744,2.6105957   c0.3226318,0.1413574,0.703125,0.0584106,0.9369507-0.2072754l2.4796143-2.7996826l1.7577515,1.8621826   c0.0866089,0.0924683,0.1939697,0.1625977,0.3125,0.2061768l5.578186,2.045105   c0.0478516,0.0169678,0.0967407,0.0308228,0.1466675,0.0393066l7.3469238,1.2244873   c0.0457153,0.0074463,0.0908813,0.0106201,0.135498,0.0106201c0.3917236,0,0.7376709-0.2827148,0.8041382-0.682373   c0.0744019-0.4443359-0.2264404-0.8652344-0.6707153-0.9396362l-7.2719727-1.211731l-5.3257446-1.9526367l-1.7265015-1.8285522   l0.8920898-1.0073242c0.1833496-0.2072754,0.2492676-0.4921265,0.175415-0.7589111   c-0.0739136-0.2667847-0.2774658-0.4772339-0.5415649-0.5612183l-2.1625366-0.6802979l0.7174683-1.6698608h4.2246094   c0.4506836,0,0.8162842-0.3656006,0.8162842-0.8162842s-0.3656006-0.8163452-0.8162842-0.8163452h-4.7619019   c-0.3262939,0-0.6212769,0.194519-0.7498779,0.4942627l-1.2872314,2.9932251   c-0.0913696,0.2114868-0.0881958,0.4527588,0.0079956,0.6621704s0.2763672,0.3688354,0.4968872,0.4389648l1.8239746,0.5740356   l-3.2307129,3.6479492l-6.015625-2.6201172c-0.3353271-0.1466675-0.7249146-0.052124-0.9571533,0.2306519l-1.1534424,1.4063721   l-1.0839844-3.3186035c-0.0255127-0.0775757-0.0621948-0.1509399-0.1089478-0.2178955l-2.3570557-3.338623h0.8737793   c0.3847656,0,0.7174683-0.2689209,0.7982178-0.6452026l0.8163452-3.8095093   c0.0946045-0.4411011-0.1865845-0.8748169-0.6271362-0.9694214c-0.4406128-0.0956421-0.8748169,0.1870728-0.9693604,0.6271362   l-0.6781616,3.1643066h-1.7888794c-0.3050537,0-0.5846558,0.170105-0.7249146,0.4411621   c-0.1403198,0.2699585-0.117981,0.5962524,0.0579224,0.8460693l3.1945801,4.5249023l1.2935791,3.9604492   c0.0241089,0.0736694,0.0618286,0.1383667,0.1030273,0.199585l-0.3235474,0.3945923l-2.3565063-2.2502441   c-0.2317505-0.2189331-0.5697632-0.2848511-0.8657837-0.1679077l-1.6655884,0.663269l-4.4158936-2.6456299   c-0.298645-0.1796265-0.6807861-0.1477661-0.9481201,0.0786133l-1.3759155,1.1692505v-3.9487915   c0-0.4506836-0.3656616-0.8162842-0.8163452-0.8162842h-4.1953735l1.5088501-2.7349243   c0.2178955-0.3943481,0.0744019-0.8917847-0.3204956-1.1086426c-0.3932495-0.2168579-0.8912354-0.0754395-1.1091309,0.3199463   l-2.1768799,3.9455566c-0.1392212,0.2529907-0.1350098,0.5601807,0.0117188,0.8088989   C27.09198,39.5068054,27.359314,39.6598816,27.6478882,39.6598816z"></path></g></svg>