<svg xmlns="http://www.w3.org/2000/svg" xmlns:xlink="http://www.w3.org/1999/xlink" width="100" height="100" x="0" y="0" style="enable-background:new 0 0 100 100" fill="#1A1A1A" version="1.1" viewBox="0 0 100 100" xml:space="preserve"><style type="text/css">.st0{fill:#1a1a1a}</style><path d="M67.3,65.1c-0.4-0.1-0.8-0.2-1.3-0.3l-1.4-4.4c-0.2-0.5-0.6-0.9-1.2-0.9c0,0,0,0,0,0c-0.6,0-1,0.3-1.2,0.9 l-1.3,4.1c-0.7,0-1.3,0.1-1.9,0.1c0.6-1,1-2.2,1-3.4c0-1.5-0.5-2.9-1.4-4.1l-4.7-5.9c-0.1-0.1-0.2-0.2-0.3-0.3 c0.4-0.1,0.8-0.3,1.1-0.6c0.3-0.2,0.7-0.6,0.8-0.9c0.1-0.1,0.2-0.3,0.2-0.4c0.2,0.1,0.5,0.2,0.8,0.2c1,0.3,2.5,0.3,3.9-0.1 c0.7-0.2,1.4-0.5,2-0.8c0.6-0.4,1.1-0.8,1.4-1.3c0.2-0.2,0.3-0.4,0.4-0.7c0.1-0.2,0.2-0.4,0.2-0.5c0.1-0.3,0.1-0.5,0.1-0.5 s-0.2,0.1-0.4,0.3c-0.3,0.2-0.6,0.4-1.1,0.6c-0.9,0.4-2,0.8-3.2,1.1c-1.2,0.3-2.5,0.6-3.5,0.9c-0.2,0.1-0.4,0.1-0.5,0.2 c0.1-0.3,0.1-0.6,0.1-0.8c0-0.6-0.2-1-0.3-1.3c-0.1-0.3-0.3-0.4-0.3-0.4s0,0.2-0.1,0.5c-0.1,0.3-0.2,0.7-0.4,1.1 c-0.1,0.2-0.2,0.4-0.3,0.6c-0.1,0.2-0.3,0.4-0.4,0.5c-0.2,0.2-0.3,0.3-0.5,0.4C53.2,48.9,53,49,52.8,49c-0.2,0.1-0.4,0.1-0.6,0.1 c-0.1,0-0.2,0-0.3,0c0,0-0.1,0-0.2,0l-0.1,0l0,0c0.1,0,0,0,0,0l0,0l-0.1,0c-0.3-0.1-0.7-0.4-0.9-0.7c-0.2-0.3-0.3-0.7-0.4-1 c0-0.3,0-0.5,0-0.5c0,0-0.1,0.1-0.3,0.3c-0.2-0.2-0.3-0.3-0.3-0.3c0,0,0,0.2,0,0.5c0,0.3-0.1,0.6-0.4,1c-0.2,0.3-0.6,0.6-0.9,0.7 l-0.1,0l0,0c0,0,0,0,0,0l0,0l-0.1,0c-0.1,0-0.2,0.1-0.2,0c0,0-0.2,0-0.3,0c-0.2,0-0.4,0-0.6-0.1c-0.2-0.1-0.4-0.2-0.6-0.3 c-0.2-0.1-0.4-0.2-0.5-0.4c-0.1-0.1-0.3-0.3-0.4-0.5c-0.1-0.2-0.3-0.4-0.3-0.6c-0.2-0.4-0.3-0.8-0.4-1.1c-0.1-0.3-0.1-0.5-0.1-0.5 s-0.1,0.1-0.3,0.4c-0.1,0.3-0.3,0.7-0.3,1.3c0,0.3,0,0.5,0.1,0.8c-0.2-0.1-0.3-0.1-0.5-0.2c-1-0.3-2.3-0.6-3.5-0.9 c-1.2-0.3-2.4-0.7-3.2-1.1c-0.4-0.2-0.8-0.4-1.1-0.6c-0.3-0.2-0.4-0.3-0.4-0.3s0,0.2,0.1,0.5c0,0.2,0.1,0.3,0.2,0.5 c0.1,0.2,0.2,0.4,0.4,0.7c0.3,0.5,0.8,0.9,1.4,1.3c0.6,0.4,1.3,0.7,2,0.8c1.4,0.4,2.9,0.3,3.9,0.1c0.3-0.1,0.6-0.1,0.8-0.2 c0.1,0.1,0.1,0.3,0.2,0.4c0.2,0.3,0.5,0.7,0.8,0.9c0.3,0.2,0.7,0.4,1.1,0.6c-0.1,0.1-0.2,0.2-0.3,0.3l-4.7,5.9 c-0.9,1.1-1.4,2.6-1.4,4.1c0,1.2,0.4,2.4,1,3.4c-0.6-0.1-1.2-0.1-1.8-0.1l-1.3-4.1c-0.2-0.5-0.6-0.9-1.2-0.9s-1,0.3-1.2,0.9 l-1.4,4.4c-0.5,0.1-1,0.2-1.4,0.3c-0.3,0.1-0.6,0.2-0.8,0.3c-0.2,0.1-0.4,0.2-0.6,0.3C31,65.9,30.8,66,30.8,66s0.2-0.1,0.5-0.2 c0.2-0.1,0.4-0.1,0.6-0.2c0.2-0.1,0.5-0.1,0.8-0.2c0.6-0.1,1.3-0.2,2.1-0.1c0.8,0,1.6,0.1,2.4,0.2c1.6,0.2,3.2,0.6,4.4,0.9 c0.6,0.2,1.1,0.3,1.4,0.4c0.2,0.1,0.3,0.1,0.4,0.1c0.9,0.5,1.9,0.7,3,0.7c1.2,0,2.4-0.3,3.4-1c1,0.6,2.2,1,3.4,1 c1.1,0,2.1-0.3,3-0.7c0.1,0,0.2-0.1,0.4-0.1c0.3-0.1,0.8-0.3,1.4-0.4c1.2-0.3,2.8-0.7,4.4-0.9c0.8-0.1,1.6-0.2,2.4-0.2 c0.8,0,1.5,0,2.1,0.1c0.3,0.1,0.6,0.1,0.8,0.2c0.2,0.1,0.5,0.1,0.6,0.2c0.3,0.1,0.5,0.2,0.5,0.2s-0.2-0.1-0.5-0.3 c-0.2-0.1-0.4-0.2-0.6-0.3C67.9,65.3,67.6,65.2,67.3,65.1z M37.4,64.4c-0.7,0-1.4,0.1-2.1,0.2l1.2-4c0.1-0.2,0.2-0.2,0.3-0.2 s0.2,0,0.3,0.2l1.2,3.8C37.9,64.4,37.6,64.4,37.4,64.4z M53.4,65.7c-1,0-2-0.3-2.8-1L50,64.2l-0.6,0.5c-0.8,0.6-1.8,1-2.8,1 c-2.5,0-4.5-2-4.5-4.5c0-1,0.3-2,1-2.8l4.7-5.9c0.5-0.7,1.3-1.1,2.2-1.1s1.7,0.4,2.2,1.1l4.7,5.9c0.6,0.8,1,1.8,1,2.8 C57.9,63.7,55.9,65.7,53.4,65.7z M62.6,64.4c-0.2,0-0.5,0-0.7,0l1.2-3.8c0.1-0.2,0.2-0.2,0.3-0.2c0.1,0,0.2,0,0.3,0.2l1.2,4 C64.2,64.5,63.4,64.5,62.6,64.4z M41.3,35c0.3,0,0.5-0.2,0.5-0.5c0-0.3-0.2-0.5-0.5-0.5c-0.3,0-0.5,0.2-0.5,0.5 C40.8,34.8,41,35,41.3,35z M41.3,37.8c0.3,0,0.5-0.2,0.5-0.5c0-0.3-0.2-0.5-0.5-0.5c-0.3,0-0.5,0.2-0.5,0.5 C40.8,37.5,41,37.8,41.3,37.8z M43.5,36.7c0.3,0,0.5-0.2,0.5-0.5c0-0.3-0.2-0.5-0.5-0.5S43,35.8,43,36.1 C43,36.4,43.2,36.7,43.5,36.7z M52.9,57.2c-0.2-0.3-0.5-0.4-0.8-0.4c-0.6,0-1.1,0.5-1.1,1.1c0,0,0,0,0,0.1l0.2,3.5 c0.1,1.1,1,2,2.1,2c1.2,0,2.1-1,2.1-2.1c0-0.5-0.2-0.9-0.4-1.3L52.9,57.2z M47.9,56.7c-0.3,0-0.7,0.2-0.8,0.4L45,59.9 c-0.3,0.4-0.4,0.8-0.4,1.3c0,1.2,1,2.1,2.1,2.1c1.1,0,2.1-0.9,2.1-2l0.2-3.5c0,0,0,0,0-0.1C49,57.2,48.5,56.7,47.9,56.7z M33.6,51.6 c0.3,0.5,0.7,1,1.1,1.4c0.2,0.2,0.5,0.4,0.8,0.6c0.3,0.2,0.5,0.3,0.8,0.4c0.6,0.2,1.2,0.4,1.8,0.4c0.6,0,1.2,0,1.8-0.1 c0.6-0.1,1.1-0.3,1.5-0.6c0.5-0.3,0.8-0.6,1.1-0.9c0.6-0.7,0.9-1.3,1.1-1.8c0.1-0.2,0.1-0.4,0.1-0.5c0-0.1,0-0.2,0-0.2 s-0.2,0.2-0.5,0.5c-0.2,0.2-0.4,0.3-0.6,0.5c-0.2,0.2-0.5,0.4-0.8,0.6c-0.3,0.2-0.7,0.3-1,0.4c-0.4,0.1-0.8,0.2-1.2,0.2 c-0.4,0-0.8,0-1.3,0c-0.4-0.1-0.8-0.2-1.2-0.4c-0.1-0.1-0.5-0.2-0.6-0.3c-0.2-0.1-0.3-0.2-0.5-0.3c-0.3-0.3-0.7-0.5-0.9-0.9 c-0.2-0.3-0.5-0.7-0.6-1c-0.2-0.4-0.3-0.7-0.4-1.1c-0.1-0.3-0.1-0.7-0.2-1c0-0.3,0-0.6,0-0.8c0-0.5,0-0.7,0-0.7s0,0.1-0.1,0.2 c-0.1,0.1-0.2,0.3-0.3,0.5c-0.2,0.4-0.5,1.1-0.6,2c0,0.4,0,0.9,0.1,1.4C33.1,50.6,33.3,51.1,33.6,51.6z M63.8,51.5 c-0.4,0.3-0.6,0.4-1.2,0.7c-0.3,0.1-0.8,0.3-1.2,0.3c-0.4,0-0.8,0.1-1.3,0c-0.4-0.1-0.8-0.1-1.2-0.2c-0.4-0.1-0.7-0.3-1-0.4 c-0.3-0.2-0.6-0.4-0.8-0.6c-0.2-0.2-0.4-0.4-0.6-0.5c-0.3-0.3-0.5-0.5-0.5-0.5s0,0.1,0,0.2c0,0.1,0,0.3,0.1,0.5 c0.1,0.5,0.5,1.1,1.1,1.8c0.3,0.3,0.7,0.6,1.1,0.9c0.4,0.3,1,0.5,1.5,0.6c0.6,0.1,1.2,0.2,1.8,0.1c0.6-0.1,1.2-0.2,1.8-0.5 c0.4-0.2,1.1-0.6,1.5-1c0.5-0.4,0.8-0.9,1.1-1.4c0.3-0.5,0.5-1,0.6-1.5c0.1-0.5,0.1-1,0.1-1.4c0-0.9-0.3-1.6-0.6-2 c-0.1-0.2-0.2-0.4-0.3-0.5C66,46,65.9,46,65.9,46s0,0.3,0,0.7c0,0.2,0,0.5,0,0.8c0,0.3-0.1,0.6-0.2,1c-0.1,0.3-0.2,0.7-0.4,1.1 c-0.2,0.4-0.4,0.7-0.6,1C64.5,50.9,64.2,51.2,63.8,51.5z M56.1,70.7c-0.4,0-0.8,0-1.3,0c-0.5,0-0.9-0.1-1.4-0.1 c-0.5-0.1-1.1-0.1-1.6-0.2c-0.6-0.1-1.1-0.1-1.8-0.1c-0.3,0-0.6,0-0.9,0c-0.3,0-0.6,0.1-0.9,0.1c-0.6,0.1-1.1,0.2-1.6,0.2 c-0.5,0.1-1,0.1-1.4,0.1c-0.5,0-0.9,0-1.3,0c-0.8,0-1.5-0.2-2-0.2c-0.5-0.1-0.8-0.2-0.8-0.2s0.2,0.2,0.6,0.5 c0.2,0.1,0.5,0.3,0.8,0.5c0.3,0.2,0.7,0.4,1.1,0.5c0.9,0.3,2,0.5,3.1,0.5c0.6,0,1.1,0,1.7-0.1c0.3,0,0.5,0,0.8,0c0.2,0,0.5,0,0.8,0 c0.5,0,1,0,1.6,0.1c0.6,0,1.1,0,1.7,0.1c1.1,0,2.2-0.2,3.1-0.5c0.4-0.1,0.8-0.3,1.1-0.5c0.3-0.2,0.6-0.4,0.8-0.5 c0.4-0.3,0.6-0.5,0.6-0.5s-0.3,0.1-0.8,0.2C57.6,70.5,57,70.6,56.1,70.7z M81.9,23.4c-0.7-0.7-1.8-0.9-2.7-0.5l-11.7,4.6 c0.1-1.7-0.2-3.5-0.8-5.2c-1-2.6-2.7-4.5-4.7-5.3c-1.4-0.5-2.9-0.4-4.1-0.2c-3.6,0.6-7,2-10.3,3.4c-3.7,1.5-7.2,3-10.9,3.4l-0.7,0.1 l-0.1,0.7c0,0.1-0.1,0.3-0.1,0.4c-0.2,0.9-0.5,2.3-0.3,3.7l-14.5-5.7c-0.9-0.4-2-0.2-2.7,0.5c-0.7,0.7-1,1.7-0.7,2.7l2.7,8.6 c1,3.1,3.6,5.4,6.8,6c-0.3,0.9-0.6,1.9-0.8,2.8c-0.5,2.6-0.4,5.3,0.3,7.8c0.2,0.7,0,1.5-0.6,2c-3,3-4.6,6.9-4.6,11.1 s1.6,8.1,4.6,11.1c3.3,3.3,7.8,4.9,12.3,4.6c3.3,2,7,3,10.7,3.2c0.4,0,0.7,0,1.1,0.1c0.2,0,0.4,0,0.6,0c3.9-0.1,7.8-1.2,11.3-3.2 c4.6,0.4,9-1.3,12.3-4.5c3-3,4.6-6.9,4.6-11.1s-1.6-8.1-4.6-11.1c-0.5-0.5-0.7-1.3-0.6-2c0.7-2.6,0.8-5.2,0.3-7.8 c-0.2-0.9-0.4-1.9-0.8-2.8c3.1-0.6,5.8-2.9,6.8-6l2.7-8.6C82.9,25.1,82.6,24.1,81.9,23.4z M37.5,25.6c3.8-0.6,7.3-2,10.8-3.5 c1.5-0.6,3-1.2,4.5-1.8c-0.4,0.2-0.9,0.4-1.4,0.7c-0.7,0.4-1.5,1-2.4,1.6c-0.8,0.6-1.7,1.2-2.6,1.7c-0.5,0.3-0.9,0.5-1.4,0.7 l-0.4,0.1c-0.1,0-0.2,0.1-0.3,0.1c-0.2,0.1-0.5,0.1-0.7,0.2c-1,0.2-1.9,0.3-2.7,0.3c-0.8,0-1.5,0-2-0.1c-0.5-0.1-0.8-0.1-0.8-0.1 s0.2,0.1,0.7,0.3c0.5,0.1,1.1,0.4,2,0.5c0.8,0.1,1.8,0.2,2.9,0c0.3,0,0.5-0.1,0.8-0.1c0.1,0,0.3-0.1,0.4-0.1l0.4-0.1 c0.5-0.2,1.1-0.4,1.6-0.7c1-0.6,1.9-1.3,2.7-1.9c0.8-0.7,1.5-1.3,2.1-1.8c0.3-0.2,0.6-0.5,0.9-0.7c0.3-0.2,0.5-0.3,0.7-0.5 c0.4-0.2,0.7-0.4,0.7-0.4s-0.1,0-0.3,0.1c1.5-0.5,2.9-0.9,4.4-1.1c1-0.2,2.1-0.3,3.1,0.1c1.5,0.5,2.8,2,3.5,4.1c1,2.5,1,5.4,0,7.2 c-1.9,3.5-4.7,4.2-9.7,2.4c-0.5-0.2-1-0.4-1.6-0.6c-2.3-0.9-5.4-2-8.7-2.7c-1.1-0.2-2.2-0.3-3.1-0.3c-1.3,0-2.6,0.2-3.7,0.6 C36.9,28.3,37.2,26.8,37.5,25.6z M80.6,25.4L77.9,34c-0.9,2.8-3.4,4.7-6.3,4.8l-0.4,0c0.4-0.5,0.7-1.2,0.8-1.9 c0.2-0.8,0.1-1.8-0.2-2.6c-0.1-0.2-0.2-0.4-0.3-0.6c-0.1-0.3-0.2-0.3-0.3-0.5c0,0,0,0,0-0.1c0.4-0.3,0.8-0.5,1.2-0.8 c0.7-0.5,1.4-1,2.1-1.5c0.7-0.5,1.3-1,2-1.6c0.6-0.6,1.3-1.1,1.9-1.8c-0.8,0.2-1.6,0.6-2.4,0.9c-0.8,0.3-1.5,0.7-2.3,1.1 c-0.8,0.4-1.5,0.8-2.2,1.2c-0.7,0.4-1.4,0.9-2.1,1.3l-0.9,0.6l0.6,0.8c0.2,0.3,0.4,0.6,0.7,0.9c0,0.1,0.2,0.3,0.3,0.4 c0.1,0.1,0.1,0.2,0.2,0.4c0.3,0.5,0.4,1.1,0.4,1.8c0,0.6-0.1,1.3-0.4,1.9c-0.1,0.3-0.3,0.6-0.5,0.9c-0.2,0.3-0.4,0.7-0.5,1 c0.3-0.2,0.6-0.4,0.9-0.7c0.1-0.1,0.3-0.2,0.4-0.3l0.2,0.5c0.5,1.2,0.9,2.4,1.1,3.6c0.4,2.3,0.3,4.7-0.3,7c-0.4,1.4,0,2.9,1.1,4 c2.6,2.6,4,6,4,9.7s-1.4,7.1-4,9.7c-2.6,2.6-6.2,4-9.9,4c0.8-0.7,1.4-1.3,1.8-1.8c0.3-0.4,0.6-0.7,0.7-0.9c0.2-0.2,0.2-0.3,0.2-0.3 s-0.5,0.3-1.2,0.9c-0.4,0.3-0.9,0.6-1.4,1c-0.6,0.4-1.2,0.7-1.9,1.1c-0.7,0.4-1.5,0.8-2.3,1.2c-0.8,0.4-1.7,0.7-2.7,1 c-0.9,0.3-1.9,0.5-3,0.7c-0.4,0.1-0.8,0.1-1.2,0.2c-1.4,0.1-2.9,0.1-4.3-0.1c-0.2,0-0.5-0.1-0.7-0.1c-1-0.2-2-0.4-3-0.7 c-0.9-0.3-1.8-0.7-2.7-1c-0.8-0.4-1.6-0.8-2.3-1.2c-0.7-0.4-1.3-0.8-1.9-1.1c-0.6-0.4-1-0.7-1.4-1c-0.8-0.6-1.2-0.9-1.2-0.9 s0.1,0.1,0.2,0.3c0.2,0.2,0.4,0.5,0.7,0.9c0.4,0.5,1,1.1,1.8,1.8c-3.7,0.1-7.2-1.4-9.9-4c-2.6-2.6-4-6-4-9.7s1.4-7.1,4-9.7 c1.1-1,1.5-2.5,1.1-4c-0.6-2.3-0.7-4.6-0.3-7c0.2-1.2,0.6-2.4,1.1-3.6l0.2-0.5c0.1,0.1,0.3,0.2,0.4,0.3c0.3,0.2,0.6,0.4,0.9,0.7 c-0.2-0.3-0.3-0.7-0.5-1c-0.2-0.3-0.4-0.6-0.5-0.9c-0.3-0.6-0.4-1.3-0.4-1.9c0-0.6,0.2-1.2,0.4-1.8c0.1-0.1,0.1-0.3,0.2-0.4 c0-0.1,0.2-0.3,0.3-0.4c0.2-0.3,0.4-0.6,0.7-0.9l0.6-0.8L30.7,32c-0.7-0.5-1.4-0.9-2.1-1.3c-0.7-0.4-1.5-0.8-2.2-1.2 c-0.7-0.4-1.5-0.8-2.3-1.1c-0.8-0.3-1.6-0.7-2.4-0.9c0.6,0.6,1.2,1.2,1.9,1.8c0.6,0.6,1.3,1.1,2,1.6c0.7,0.5,1.4,1,2.1,1.5 c0.4,0.3,0.8,0.5,1.2,0.8c0,0,0,0,0,0.1c-0.1,0.2-0.2,0.3-0.3,0.5c-0.1,0.2-0.2,0.4-0.3,0.6c-0.3,0.8-0.4,1.7-0.2,2.6 c0.1,0.7,0.4,1.3,0.8,1.9l-0.4,0c-2.9-0.1-5.4-2-6.3-4.8l-2.7-8.6c-0.1-0.3,0.1-0.5,0.2-0.6c0.1-0.1,0.3-0.2,0.6-0.1l17.7,7l0.4-0.1 c1.7-0.7,3.7-0.8,6.1-0.3c3.1,0.6,6.1,1.8,8.4,2.6c0.6,0.2,1.2,0.4,1.6,0.6c4,1.4,9.1,2.3,12.2-3.3c0.2-0.4,0.4-0.9,0.6-1.4 l12.8-5.1c0.3-0.1,0.5,0,0.6,0.1C80.6,24.9,80.7,25.1,80.6,25.4z M56.5,30.1l3.7,1.4l2.8-2.9l-0.7-6.3l-1.7,0.4l0.1-1.8l-5.1,1.2 l0.8,1.5l-1.7,0.4L56.5,30.1z M57.1,22.8l2.5-0.6L59.5,24l1.9-0.5l0.6,4.7l-2,2.1l-2.6-1L56,24.8l1.9-0.5L57.1,22.8z" class="st0"/></svg>