<?xml version="1.0" encoding="utf-8"?>
<!-- Generator: Adobe Illustrator 18.1.1, SVG Export Plug-In . SVG Version: 6.00 Build 0)  -->
<svg version="1.2" baseProfile="tiny" id="Layer_1" xmlns="http://www.w3.org/2000/svg" xmlns:xlink="http://www.w3.org/1999/xlink"
	 x="0px" y="0px" viewBox="0 0 600 189.8" xml:space="preserve">
<g>
	<path fill="#EF4E79" d="M69.7,64.9l12.5,45l12.4-45c0.2-0.9,0.8-1.7,1.6-2.3c0.8-0.6,1.8-0.9,2.9-0.9c0.9,0,1.8,0.3,2.7,0.8
		c0.8,0.5,1.4,1.3,1.7,2.3l12.5,45l12.5-45c0.2-0.6,0.6-1.2,1.1-1.8c0.9-0.9,2-1.4,3.3-1.4c1.3,0,2.4,0.5,3.3,1.4
		c0.9,0.9,1.3,2,1.3,3.3c0,0.6-0.1,1.2-0.3,1.8l-16.5,59.9c-0.4,1.1-1,2.1-1.8,2.7c-0.8,0.7-1.8,1-2.8,1c-1.3,0-2.4-0.5-3.2-1.4
		c-0.6-0.6-1.1-1.4-1.4-2.3L99.1,83.9l-12.2,44.2c-0.4,1.1-1,2.1-1.8,2.7c-0.8,0.7-1.8,1-2.8,1c-1.3,0-2.4-0.5-3.3-1.4
		c-0.6-0.6-1-1.3-1.4-2.3l-16.6-60c-0.2-0.7-0.3-1.3-0.3-1.8c0-1.3,0.5-2.4,1.4-3.3c0.9-0.9,2-1.4,3.3-1.4c1.3,0,2.4,0.5,3.3,1.4
		C69.1,63.7,69.4,64.3,69.7,64.9z"/>
	<path fill="#EF4E79" d="M144.5,127.3V66.4c0-0.6,0.1-1.2,0.4-1.8c0.2-0.6,0.6-1.1,1-1.5c0.4-0.4,0.9-0.8,1.5-1
		c0.6-0.2,1.2-0.4,1.8-0.4h16.9c3,0,5.7,0.6,8.4,1.7c2.6,1.1,4.9,2.7,6.8,4.6c1.9,2,3.5,4.2,4.6,6.9c1.1,2.6,1.7,5.4,1.7,8.4
		c0,1.9-0.2,3.8-0.7,5.6c-0.5,1.8-1.2,3.6-2.1,5.2c-0.9,1.6-2.1,3.1-3.6,4.5c-1.4,1.4-3.1,2.6-4.9,3.7l14,22.4
		c0.5,0.8,0.7,1.7,0.7,2.5c0,0.7-0.1,1.3-0.4,1.8c-0.2,0.6-0.6,1-1,1.5c-0.4,0.4-0.9,0.8-1.5,1c-0.6,0.2-1.2,0.4-1.8,0.4
		c-1.6,0-3-0.8-4-2.3l-15.5-24.8h-13.1v22.4c0,1.3-0.5,2.4-1.4,3.3c-0.9,0.9-2,1.4-3.3,1.4c-1.3,0-2.4-0.5-3.3-1.4
		C144.9,129.7,144.5,128.6,144.5,127.3z M153.8,71.1v24.5h12.3c1.7,0,3.3-0.3,4.8-1c1.5-0.6,2.8-1.5,3.9-2.7c1.1-1.1,2-2.4,2.6-3.9
		c0.6-1.5,1-3,1-4.7c0-1.7-0.3-3.3-1-4.8c-0.6-1.5-1.5-2.8-2.6-3.9c-1.1-1.1-2.4-2-3.9-2.6c-1.5-0.6-3.1-1-4.7-1H153.8z"/>
	<path fill="#EF4E79" d="M267.4,96.9c0,9.7-3.4,17.9-10.3,24.8c-6.8,6.8-15.1,10.3-24.8,10.3c-9.7,0-18-3.4-24.8-10.3
		c-6.8-6.8-10.3-15.1-10.3-24.8c0-9.7,3.4-17.9,10.3-24.8c6.9-6.9,15.1-10.3,24.8-10.3c9.6,0,17.9,3.4,24.8,10.3
		c3.4,3.4,6,7.2,7.7,11.3C266.6,87.5,267.4,92,267.4,96.9z M232.4,71.1c-3.6,0-6.9,0.6-9.9,1.9c-3,1.3-5.8,3.2-8.3,5.7
		s-4.4,5.3-5.7,8.3c-1.2,3-1.9,6.3-1.9,9.9c0,7.1,2.5,13.2,7.5,18.2c5,5,11.1,7.5,18.2,7.5c7.1,0,13.2-2.5,18.2-7.5
		c5-5,7.5-11.1,7.5-18.2c0-7.1-2.5-13.2-7.5-18.2C245.6,73.6,239.5,71.1,232.4,71.1z"/>
	<path fill="#EF4E79" d="M274.3,127.3V66.4c0-0.6,0.1-1.2,0.4-1.8c0.2-0.6,0.6-1.1,1-1.5c0.4-0.4,0.9-0.8,1.5-1
		c0.6-0.2,1.2-0.4,1.8-0.4c1.4,0,2.6,0.6,3.6,1.7l39.1,50.3V66.4c0-1.3,0.5-2.4,1.4-3.3c0.9-0.9,2-1.4,3.3-1.4
		c1.3,0,2.4,0.5,3.3,1.4c0.9,0.9,1.4,2,1.4,3.3v60.8c0,0.7-0.1,1.3-0.4,1.8c-0.2,0.6-0.6,1-1,1.5s-0.9,0.8-1.5,1
		c-0.6,0.2-1.2,0.4-1.8,0.4c-1.4,0-2.6-0.5-3.6-1.6L283.6,80v47.3c0,1.3-0.5,2.4-1.4,3.3c-0.9,0.9-2,1.4-3.3,1.4
		c-1.3,0-2.4-0.5-3.3-1.4C274.8,129.7,274.3,128.6,274.3,127.3z"/>
	<path fill="#EF4E79" d="M396.1,120.8c0,1.2-0.5,2.3-1.4,3.3c-6.5,5.2-13.9,7.8-22,7.8c-9.7,0-18-3.4-24.8-10.3
		c-6.8-6.8-10.3-15.1-10.3-24.8c0-9.7,3.4-17.9,10.3-24.8c6.9-6.9,15.1-10.3,24.8-10.3c8.3,0,15.8,2.7,22.5,8.2
		c0.8,0.8,1.2,1.8,1.2,3.2c0,0.7-0.1,1.3-0.4,1.8c-0.2,0.6-0.6,1-1,1.5c-0.4,0.4-0.9,0.8-1.5,1c-0.6,0.2-1.2,0.4-1.8,0.4
		c-1.2,0-2.3-0.4-3.2-1.3c-2.2-1.8-4.7-3.1-7.3-4c-2.7-0.9-5.5-1.4-8.5-1.4c-7.1,0-13.2,2.5-18.3,7.6c-5,5-7.5,11.1-7.5,18.2
		c0,7.2,2.5,13.2,7.5,18.2c5,5,11.1,7.5,18.3,7.5c5.3,0,10-1.4,14.2-4.2v-13.6h-12.1c-1.3,0-2.4-0.4-3.3-1.3c-0.9-0.9-1.3-2-1.3-3.3
		c0-0.6,0.1-1.2,0.4-1.8c0.2-0.6,0.6-1.1,1-1.5c0.4-0.4,0.9-0.8,1.5-1c0.6-0.2,1.2-0.4,1.8-0.4h16.8c0.6,0,1.2,0.1,1.8,0.4
		c0.6,0.2,1,0.6,1.5,1c0.4,0.4,0.8,0.9,1,1.5c0.2,0.6,0.4,1.2,0.4,1.8V120.8z"/>
	<path fill="#EF4E79" d="M448.4,122.6c1.3,0,2.4,0.5,3.3,1.4c0.9,0.9,1.4,2,1.4,3.3c0,1.3-0.5,2.4-1.4,3.3c-0.9,0.9-2,1.4-3.3,1.4
		h-40.5c-0.7,0-1.3-0.1-1.8-0.4c-0.6-0.2-1-0.6-1.5-1c-0.4-0.4-0.8-0.9-1-1.5c-0.2-0.6-0.4-1.2-0.4-1.8V66.4c0-0.6,0.1-1.2,0.4-1.8
		c0.2-0.6,0.6-1.1,1-1.5c0.4-0.4,0.9-0.8,1.5-1c0.6-0.2,1.2-0.4,1.8-0.4h40.5c1.3,0,2.4,0.5,3.3,1.4c0.9,0.9,1.4,2,1.4,3.3
		c0,1.3-0.5,2.4-1.4,3.3c-0.9,0.9-2,1.4-3.3,1.4h-35.9v21.1h25.8c1.3,0,2.4,0.5,3.3,1.4c0.9,0.9,1.4,2,1.4,3.3
		c0,1.3-0.5,2.4-1.4,3.3c-0.9,0.9-2,1.4-3.3,1.4h-25.8v21.1H448.4z"/>
	<path fill="#EF4E79" d="M460.1,122.2c-0.6-0.8-0.9-1.7-0.9-2.8c0-0.6,0.1-1.3,0.4-1.8c0.2-0.6,0.6-1.1,1-1.5c0.4-0.4,0.9-0.8,1.5-1
		c0.6-0.2,1.2-0.4,1.8-0.4c1.7,0,3,0.7,3.9,2.1c1.2,1.9,2.8,3.3,4.6,4.3c1.8,1,3.8,1.4,6,1.4c1.7,0,3.2-0.3,4.7-1
		c1.5-0.7,2.8-1.5,3.9-2.7s2-2.4,2.6-3.9c0.6-1.5,1-3.1,1-4.8c0-1.6-0.3-3.1-0.9-4.5c-0.6-1.4-1.4-2.7-2.4-3.7
		c-1-1.1-2.2-1.9-3.6-2.6c-1.4-0.7-2.8-1.1-4.3-1.2c-2.3-0.2-4.5-0.8-6.5-1.8c-2-1-3.8-2.3-5.3-4s-2.7-3.5-3.6-5.6
		c-0.9-2.1-1.3-4.3-1.3-6.6c0-2.9,0.5-5.5,1.6-7.8s2.7-4.4,4.8-6.2h0c3.4-2.9,7.3-4.4,11.8-4.4c1.5,0,2.9,0.2,4.4,0.5
		c1.5,0.4,2.9,0.9,4.2,1.7c1.4,0.7,2.6,1.7,3.8,2.8c1.2,1.1,2.2,2.4,3.2,3.9c0.4,0.8,0.7,1.6,0.7,2.5c0,0.7-0.1,1.3-0.4,1.8
		c-0.2,0.6-0.6,1-1,1.5c-0.4,0.4-0.9,0.8-1.5,1c-0.6,0.2-1.2,0.4-1.8,0.4c-0.6,0-1.1-0.1-1.6-0.3s-0.9-0.4-1.2-0.7
		c-0.4-0.3-0.7-0.7-1.1-1.1c-0.3-0.4-0.7-0.9-1.1-1.5c-0.7-1-1.7-1.8-2.9-2.3c-1.2-0.5-2.5-0.8-3.9-0.8c-1.1,0-2.2,0.2-3.2,0.7
		c-1.1,0.5-2,1.1-2.8,1.9c-0.8,0.8-1.5,1.7-2,2.8c-0.5,1.1-0.8,2.3-0.8,3.5c0,1.1,0.2,2.2,0.6,3.2c0.4,1,1,1.9,1.7,2.7
		c0.7,0.8,1.6,1.5,2.6,2c1,0.5,2,0.8,3.2,0.9c2.7,0.2,5.3,0.9,7.7,2.1c2.4,1.2,4.5,2.8,6.3,4.7c1.8,1.9,3.2,4.1,4.3,6.6
		c1.1,2.5,1.6,5.1,1.6,7.8c0,6.8-2.5,12.4-7.6,16.7h0c-4.1,3.4-8.7,5.2-13.9,5.2c-1.7,0-3.4-0.2-5.2-0.6c-1.7-0.4-3.4-1-5-1.9
		c-1.6-0.8-3.1-1.8-4.5-3.1C462.3,125.1,461.1,123.8,460.1,122.2z"/>
	<path fill="#EF4E79" d="M554.4,71.1H537v56.2c0,1.3-0.5,2.4-1.4,3.3c-0.9,0.9-2,1.4-3.3,1.4c-1.3,0-2.4-0.5-3.3-1.4
		c-0.9-0.9-1.4-2-1.4-3.3V71.1h-17.3c-1.3,0-2.4-0.5-3.3-1.4c-0.9-0.9-1.4-2-1.4-3.3c0-1.3,0.5-2.4,1.4-3.3c0.9-0.9,2-1.4,3.3-1.4
		h43.9c1.3,0,2.4,0.5,3.3,1.4c0.9,0.9,1.4,2,1.4,3.3c0,1.3-0.5,2.4-1.4,3.3C556.7,70.6,555.6,71.1,554.4,71.1z"/>
</g>
<g>
	<path fill="#EF4E79" d="M20.4,50.2c0.7,0,1.3,0.2,1.7,0.7s0.7,1.1,0.7,1.7c0,0.7-0.2,1.3-0.7,1.7s-1.1,0.7-1.7,0.7
		c-8.2,0-12.3-4.1-12.3-12.3V25.5H5.6c-0.7,0-1.3-0.2-1.7-0.7c-0.5-0.5-0.7-1.1-0.7-1.7c0-0.7,0.2-1.3,0.7-1.7
		c0.5-0.5,1.1-0.7,1.7-0.7h2.5V8.2c0-0.7,0.2-1.3,0.7-1.7C9.3,6,9.9,5.7,10.6,5.7c0.7,0,1.3,0.2,1.7,0.7C12.8,6.9,13,7.5,13,8.2
		v12.3h5c0.7,0,1.3,0.2,1.7,0.7c0.5,0.5,0.7,1.1,0.7,1.7c0,0.7-0.2,1.3-0.7,1.7c-0.5,0.5-1.1,0.7-1.7,0.7h-5v17.3
		C13,47.7,15.5,50.2,20.4,50.2z"/>
	<path fill="#EF4E79" d="M27.9,8.2c0-0.7,0.2-1.3,0.7-1.7c0.5-0.5,1.1-0.7,1.7-0.7c0.7,0,1.3,0.2,1.7,0.7c0.5,0.5,0.7,1.1,0.7,1.7
		V25c3.1-3,6.8-4.5,11.1-4.5c4.4,0,8.2,1.6,11.3,4.7c3.1,3.1,4.7,6.9,4.7,11.3v16c0,0.7-0.2,1.3-0.7,1.7c-0.5,0.5-1.1,0.7-1.7,0.7
		c-0.7,0-1.3-0.2-1.7-0.7c-0.5-0.5-0.7-1.1-0.7-1.7v-16c0-3.1-1.1-5.7-3.3-7.9c-2.2-2.2-4.8-3.3-7.9-3.3c-3.1,0-5.7,1.1-7.9,3.3
		c-2.2,2.2-3.3,4.8-3.3,7.9v16c0,0.7-0.2,1.3-0.7,1.7c-0.5,0.5-1.1,0.7-1.7,0.7c-0.7,0-1.3-0.2-1.7-0.7c-0.5-0.5-0.7-1.1-0.7-1.7
		V8.2z"/>
	<path fill="#EF4E79" d="M91.7,46.7c0.7,0,1.3,0.2,1.7,0.7s0.7,1.1,0.7,1.7c0,0.7-0.2,1.3-0.7,1.8c-3.2,2.8-6.9,4.2-11.3,4.2
		c-4.8,0-8.8-1.7-12.2-5.1c-3.4-3.4-5.1-7.4-5.1-12.2c0-4.8,1.7-8.8,5.1-12.2c3.4-3.4,7.4-5.1,12.2-5.1s8.8,1.7,12.2,5.1
		c3.4,3.4,5.1,7.4,5.1,12.2c0,0.7-0.2,1.3-0.7,1.7s-1.1,0.7-1.7,0.7H70c0.5,2.4,1.6,4.5,3.4,6.3c2.4,2.4,5.3,3.6,8.7,3.6
		c3.1,0,5.7-1,8-2.9C90.6,46.9,91.1,46.7,91.7,46.7z M94.3,35.4c-0.5-2.4-1.6-4.5-3.4-6.3c-2.4-2.4-5.3-3.6-8.7-3.6
		s-6.3,1.2-8.7,3.6c-1.8,1.8-2.9,3.9-3.4,6.3H94.3z"/>
</g>
<g>
	<path fill="#EF4E79" d="M428.8,150.5c0.5-0.5,1-0.7,1.7-0.7c0.7,0,1.3,0.2,1.8,0.7c0.3,0.3,0.5,0.7,0.6,1.1l7.5,22.4l7.6-22.9
		c0.1-0.2,0.3-0.5,0.5-0.7c0.5-0.5,1-0.7,1.7-0.7c0.7,0,1.3,0.2,1.7,0.7s0.7,1.1,0.7,1.7c0,0.3-0.1,0.6-0.2,1l-9.8,29.6
		c-0.1,0.3-0.3,0.6-0.6,0.9c-0.5,0.5-1.1,0.7-1.8,0.7s-1.3-0.2-1.7-0.7c-0.3-0.3-0.5-0.6-0.6-0.9l-7.6-22.7l-7.6,22.7
		c-0.1,0.3-0.3,0.6-0.6,0.9c-0.5,0.5-1.1,0.7-1.8,0.7s-1.3-0.2-1.7-0.7c-0.3-0.3-0.5-0.6-0.6-0.9l-9.8-29.6c-0.1-0.3-0.2-0.6-0.2-1
		c0-0.7,0.2-1.3,0.7-1.7s1.1-0.7,1.7-0.7c0.7,0,1.3,0.2,1.8,0.7c0.2,0.2,0.4,0.5,0.5,0.7l7.6,22.9l7.5-22.4
		C428.3,151.2,428.5,150.9,428.8,150.5z"/>
	<path fill="#EF4E79" d="M492.3,167.1c0,4.8-1.7,8.8-5.1,12.2c-3.4,3.4-7.4,5.1-12.2,5.1s-8.8-1.7-12.2-5.1
		c-3.4-3.4-5.1-7.4-5.1-12.2c0-4.8,1.7-8.8,5.1-12.2c3.4-3.4,7.4-5.1,12.2-5.1s8.8,1.7,12.2,5.1
		C490.6,158.3,492.3,162.3,492.3,167.1z M475,154.8c-3.4,0-6.3,1.2-8.7,3.6s-3.6,5.3-3.6,8.7s1.2,6.3,3.6,8.7s5.3,3.6,8.7,3.6
		s6.3-1.2,8.7-3.6c2.4-2.4,3.6-5.3,3.6-8.7s-1.2-6.3-3.6-8.7C481.3,156,478.4,154.8,475,154.8z"/>
	<path fill="#EF4E79" d="M497.2,152.3c0-0.7,0.2-1.3,0.7-1.7s1.1-0.7,1.7-0.7c0.7,0,1.3,0.2,1.7,0.7s0.7,1.1,0.7,1.7v2.7
		c3.5-3.5,7.6-5.2,12.3-5.2c2.4,0,4.6,0.4,6.6,1.2c0.4,0.1,0.7,0.4,1,0.6c0.5,0.5,0.7,1.1,0.7,1.8s-0.2,1.3-0.7,1.7
		c-0.5,0.5-1.1,0.7-1.7,0.7c-0.4,0-0.8-0.1-1.1-0.2c-1.5-0.6-3.1-0.9-4.8-0.9c-3.4,0-6.3,1.2-8.7,3.6s-3.6,5.3-3.6,8.7v14.8
		c0,0.7-0.2,1.3-0.7,1.7c-0.5,0.5-1.1,0.7-1.7,0.7c-0.7,0-1.3-0.2-1.7-0.7c-0.5-0.5-0.7-1.1-0.7-1.7V152.3z"/>
	<path fill="#EF4E79" d="M556.4,137.4c0-0.7,0.2-1.3,0.7-1.7c0.5-0.5,1.1-0.7,1.7-0.7s1.3,0.2,1.7,0.7c0.5,0.5,0.7,1.1,0.7,1.7v29.7
		c0,4.8-1.7,8.8-5.1,12.2c-3.4,3.4-7.4,5.1-12.2,5.1s-8.8-1.7-12.2-5.1c-3.4-3.4-5.1-7.4-5.1-12.2c0-4.8,1.7-8.8,5.1-12.2
		c3.4-3.4,7.4-5.1,12.2-5.1s8.8,1.7,12.2,5.1c0,0,0.1,0.1,0.1,0.1V137.4z M556.4,167.1c0-3.4-1.2-6.3-3.6-8.7
		c-2.4-2.4-5.3-3.6-8.7-3.6s-6.3,1.2-8.7,3.6s-3.6,5.3-3.6,8.7s1.2,6.3,3.6,8.7s5.3,3.6,8.7,3.6s6.3-1.2,8.7-3.6
		C555.2,173.4,556.4,170.5,556.4,167.1z"/>
	<path fill="#EF4E79" d="M572.4,167.1c-1.9-0.7-3.2-1.4-3.9-2.2c-1.5-1.4-2.2-3.2-2.2-5.2c0-2,0.8-3.8,2.3-5.3c3-3,6.8-4.5,11.6-4.5
		c5.2,0,9.6,2.1,13.3,6.2c0.3,0.4,0.5,0.9,0.5,1.5c0,0.7-0.2,1.3-0.7,1.7s-1.1,0.7-1.7,0.7c-0.7,0-1.2-0.2-1.6-0.6
		c-0.4-0.4-0.7-0.7-0.9-0.9c-2.4-2.4-5.3-3.6-8.7-3.6s-6.1,1.1-8.2,3.2c-0.5,0.6-0.7,1.3-0.7,2.1c0.1,1,0.6,1.6,1.5,2l15.2,5
		c1.9,0.7,3.2,1.4,3.9,2.2c1.5,1.4,2.2,3.2,2.2,5.2c0,2-0.8,3.8-2.3,5.3c-3,3-6.8,4.5-11.6,4.5c-5.2,0-9.6-2.1-13.3-6.2
		c-0.3-0.4-0.5-0.9-0.5-1.5c0-0.7,0.2-1.3,0.7-1.7s1.1-0.7,1.7-0.7c0.7,0,1.2,0.2,1.6,0.6c0.4,0.4,0.7,0.7,0.9,0.9
		c2.4,2.4,5.3,3.6,8.7,3.6s6.1-1.1,8.2-3.2c0.5-0.6,0.7-1.3,0.7-2.1c-0.1-1-0.6-1.6-1.5-2L572.4,167.1z"/>
</g>
<g>
	<path fill="#EF4E79" d="M229.6,97.4l-8.2-9.8c-0.3-0.3-0.4-0.7-0.4-1.2c0-0.5,0.2-0.9,0.5-1.3c0.4-0.4,0.8-0.5,1.3-0.5
		s1,0.2,1.4,0.6l7.9,9.4l7.9-9.4c0.4-0.4,0.9-0.6,1.4-0.6s0.9,0.2,1.3,0.5c0.4,0.4,0.5,0.8,0.5,1.3c0,0.5-0.1,0.9-0.4,1.2l-8.2,9.8
		l8.3,10c0.2,0.3,0.4,0.7,0.4,1.1c0,0.5-0.2,0.9-0.5,1.3c-0.4,0.4-0.8,0.5-1.3,0.5s-0.9-0.2-1.3-0.6l-7.9-9.5l-7.9,9.5
		c-0.4,0.4-0.8,0.6-1.3,0.6s-0.9-0.2-1.3-0.5c-0.4-0.4-0.5-0.8-0.5-1.3c0-0.4,0.1-0.8,0.4-1.1L229.6,97.4z"/>
</g>
<g>
</g>
<g>
</g>
<g>
</g>
<g>
</g>
<g>
</g>
<g>
</g>
</svg>
