<?xml version="1.0" encoding="utf-8"?>
<!-- Generator: Adobe Illustrator 25.1.0, SVG Export Plug-In . SVG Version: 6.00 Build 0)  -->
<svg version="1.1" id="Layer_2" xmlns="http://www.w3.org/2000/svg" xmlns:xlink="http://www.w3.org/1999/xlink" x="0px" y="0px"
	 viewBox="0 0 1600 595.6" style="enable-background:new 0 0 1600 595.6;" xml:space="preserve">
<style type="text/css">
	.st0{fill:#EF507A;}
</style>
<g>
	<path class="st0" d="M207.7,238.9l32.3,116.5l32.1-116.5c0.5-2.3,2.1-4.4,4.1-6c2.1-1.6,4.7-2.3,7.5-2.3c2.3,0,4.7,0.8,7,2.1
		c2.1,1.3,3.6,3.4,4.4,6l32.3,116.5l32.3-116.5c0.5-1.6,1.6-3.1,2.8-4.7c2.3-2.3,5.2-3.6,8.5-3.6s6.2,1.3,8.5,3.6
		c2.3,2.3,3.4,5.2,3.4,8.5c0,1.6-0.3,3.1-0.8,4.7l-42.7,155c-1,2.8-2.6,5.4-4.7,7c-2.1,1.8-4.7,2.6-7.2,2.6c-3.4,0-6.2-1.3-8.3-3.6
		c-1.6-1.6-2.8-3.6-3.6-6L283.8,288l-31.6,114.4c-1,2.8-2.6,5.4-4.7,7c-2.1,1.8-4.7,2.6-7.2,2.6c-3.4,0-6.2-1.3-8.5-3.6
		c-1.6-1.6-2.6-3.4-3.6-6l-43-155.3c-0.5-1.8-0.8-3.4-0.8-4.7c0-3.4,1.3-6.2,3.6-8.5c2.3-2.3,5.2-3.6,8.5-3.6s6.2,1.3,8.5,3.6
		C206.2,235.8,206.9,237.3,207.7,238.9z"/>
	<path class="st0" d="M401.3,400.4V242.8c0-1.6,0.3-3.1,1-4.7c0.5-1.6,1.6-2.8,2.6-3.9c1-1,2.3-2.1,3.9-2.6c1.6-0.5,3.1-1,4.7-1
		h43.7c7.8,0,14.8,1.6,21.7,4.4c6.7,2.8,12.7,7,17.6,11.9c4.9,5.2,9.1,10.9,11.9,17.9c2.8,6.7,4.4,14,4.4,21.7
		c0,4.9-0.5,9.8-1.8,14.5c-1.3,4.7-3.1,9.3-5.4,13.5c-2.3,4.1-5.4,8-9.3,11.6c-3.6,3.6-8,6.7-12.7,9.6l36.2,58
		c1.3,2.1,1.8,4.4,1.8,6.5c0,1.8-0.3,3.4-1,4.7c-0.5,1.6-1.6,2.6-2.6,3.9c-1,1-2.3,2.1-3.9,2.6s-3.1,1-4.7,1c-4.1,0-7.8-2.1-10.4-6
		L459,342.1h-33.9v58c0,3.4-1.3,6.2-3.6,8.5c-2.3,2.3-5.2,3.6-8.5,3.6s-6.2-1.3-8.5-3.6C402.3,406.6,401.3,403.7,401.3,400.4z
		 M425.3,254.9v63.4h31.8c4.4,0,8.5-0.8,12.4-2.6c3.9-1.6,7.2-3.9,10.1-7c2.8-2.8,5.2-6.2,6.7-10.1c1.6-3.9,2.6-7.8,2.6-12.2
		c0-4.4-0.8-8.5-2.6-12.4c-1.6-3.9-3.9-7.2-6.7-10.1c-2.8-2.8-6.2-5.2-10.1-6.7c-3.9-1.6-8-2.6-12.2-2.6h-32.1V254.9z"/>
	<path class="st0" d="M719.3,321.7c0,25.1-8.8,46.3-26.7,64.2c-17.6,17.6-39.1,26.7-64.2,26.7c-25.1,0-46.6-8.8-64.2-26.7
		c-17.6-17.6-26.7-39.1-26.7-64.2s8.8-46.3,26.7-64.2s39.1-26.7,64.2-26.7c24.8,0,46.3,8.8,64.2,26.7c8.8,8.8,15.5,18.6,19.9,29.2
		C717.3,297.4,719.3,309,719.3,321.7z M628.7,254.9c-9.3,0-17.9,1.6-25.6,4.9c-7.8,3.4-15,8.3-21.5,14.8
		c-6.5,6.5-11.4,13.7-14.8,21.5c-3.1,7.8-4.9,16.3-4.9,25.6c0,18.4,6.5,34.2,19.4,47.1c12.9,12.9,28.7,19.4,47.1,19.4
		s34.2-6.5,47.1-19.4c12.9-12.9,19.4-28.7,19.4-47.1c0-18.4-6.5-34.2-19.4-47.1C662.9,261.4,647.1,254.9,628.7,254.9z"/>
	<path class="st0" d="M737.2,400.4V242.8c0-1.6,0.3-3.1,1-4.7c0.5-1.6,1.6-2.8,2.6-3.9c1-1,2.3-2.1,3.9-2.6c1.6-0.5,3.1-1,4.7-1
		c3.6,0,6.7,1.6,9.3,4.4l101.2,130.2V242.8c0-3.4,1.3-6.2,3.6-8.5s5.2-3.6,8.5-3.6c3.4,0,6.2,1.3,8.5,3.6s3.6,5.2,3.6,8.5v157.3
		c0,1.8-0.3,3.4-1,4.7c-0.5,1.6-1.6,2.6-2.6,3.9c-1,1.3-2.3,2.1-3.9,2.6c-1.6,0.5-3.1,1-4.7,1c-3.6,0-6.7-1.3-9.3-4.1L761.2,278
		v122.4c0,3.4-1.3,6.2-3.6,8.5c-2.3,2.3-5.2,3.6-8.5,3.6c-3.4,0-6.2-1.3-8.5-3.6C738.5,406.6,737.2,403.7,737.2,400.4z"/>
	<path class="st0" d="M1052.4,383.5c0,3.1-1.3,6-3.6,8.5c-16.8,13.5-36,20.2-56.9,20.2c-25.1,0-46.6-8.8-64.2-26.7
		C910,368,901,346.5,901,321.4s8.8-46.3,26.7-64.2c17.9-17.9,39.1-26.7,64.2-26.7c21.5,0,40.9,7,58.2,21.2c2.1,2.1,3.1,4.7,3.1,8.3
		c0,1.8-0.3,3.4-1,4.7c-0.5,1.6-1.6,2.6-2.6,3.9c-1,1-2.3,2.1-3.9,2.6s-3.1,1-4.7,1c-3.1,0-6-1-8.3-3.4c-5.7-4.7-12.2-8-18.9-10.4
		c-7-2.3-14.2-3.6-22-3.6c-18.4,0-34.2,6.5-47.4,19.7c-12.9,12.9-19.4,28.7-19.4,47.1c0,18.6,6.5,34.2,19.4,47.1
		s28.7,19.4,47.4,19.4c13.7,0,25.9-3.6,36.7-10.9v-35.2h-31.3c-3.4,0-6.2-1-8.5-3.4c-2.3-2.3-3.4-5.2-3.4-8.5c0-1.6,0.3-3.1,1-4.7
		c0.5-1.6,1.6-2.8,2.6-3.9c1-1,2.3-2.1,3.9-2.6c1.6-0.5,3.1-1,4.7-1h43.5c1.6,0,3.1,0.3,4.7,1c1.6,0.5,2.6,1.6,3.9,2.6
		c1,1,2.1,2.3,2.6,3.9s1,3.1,1,4.7v53.3H1052.4z"/>
	<path class="st0" d="M1187.7,388.2c3.4,0,6.2,1.3,8.5,3.6c2.3,2.3,3.6,5.2,3.6,8.5s-1.3,6.2-3.6,8.5c-2.3,2.3-5.2,3.6-8.5,3.6
		h-104.8c-1.8,0-3.4-0.3-4.7-1c-1.6-0.5-2.6-1.6-3.9-2.6c-1-1-2.1-2.3-2.6-3.9c-0.5-1.6-1-3.1-1-4.7V242.8c0-1.6,0.3-3.1,1-4.7
		c0.5-1.6,1.6-2.8,2.6-3.9c1-1,2.3-2.1,3.9-2.6s3.1-1,4.7-1h104.8c3.4,0,6.2,1.3,8.5,3.6c2.3,2.3,3.6,5.2,3.6,8.5s-1.3,6.2-3.6,8.5
		c-2.3,2.3-5.2,3.6-8.5,3.6h-92.9v54.6h66.8c3.4,0,6.2,1.3,8.5,3.6c2.3,2.3,3.6,5.2,3.6,8.5s-1.3,6.2-3.6,8.5
		c-2.3,2.3-5.2,3.6-8.5,3.6h-66.8v54.6h92.9V388.2z"/>
	<path class="st0" d="M1218,387.2c-1.6-2.1-2.3-4.4-2.3-7.2c0-1.6,0.3-3.4,1-4.7c0.5-1.6,1.6-2.8,2.6-3.9c1-1,2.3-2.1,3.9-2.6
		s3.1-1,4.7-1c4.4,0,7.8,1.8,10.1,5.4c3.1,4.9,7.2,8.5,11.9,11.1c4.7,2.6,9.8,3.6,15.5,3.6c4.4,0,8.3-0.8,12.2-2.6
		c3.9-1.8,7.2-3.9,10.1-7c2.8-3.1,5.2-6.2,6.7-10.1c1.6-3.9,2.6-8,2.6-12.4c0-4.1-0.8-8-2.3-11.6c-1.6-3.6-3.6-7-6.2-9.6
		c-2.6-2.8-5.7-4.9-9.3-6.7s-7.2-2.8-11.1-3.1c-6-0.5-11.6-2.1-16.8-4.7s-9.8-6-13.7-10.4c-3.9-4.4-7-9.1-9.3-14.5
		c-2.3-5.4-3.4-11.1-3.4-17.1c0-7.5,1.3-14.2,4.1-20.2c2.8-6,7-11.4,12.4-16l0,0c8.8-7.5,18.9-11.4,30.5-11.4
		c3.9,0,7.5,0.5,11.4,1.3c3.9,1,7.5,2.3,10.9,4.4c3.6,1.8,6.7,4.4,9.8,7.2c3.1,2.8,5.7,6.2,8.3,10.1c1,2.1,1.8,4.1,1.8,6.5
		c0,1.8-0.3,3.4-1,4.7c-0.5,1.6-1.6,2.6-2.6,3.9c-1,1-2.3,2.1-3.9,2.6s-3.1,1-4.7,1c-1.6,0-2.8-0.3-4.1-0.8c-1.3-0.5-2.3-1-3.1-1.8
		c-1-0.8-1.8-1.8-2.8-2.8c-0.8-1-1.8-2.3-2.8-3.9c-1.8-2.6-4.4-4.7-7.5-6c-3.1-1.3-6.5-2.1-10.1-2.1c-2.8,0-5.7,0.5-8.3,1.8
		c-2.8,1.3-5.2,2.8-7.2,4.9c-2.1,2.1-3.9,4.4-5.2,7.2c-1.3,2.8-2.1,6-2.1,9.1c0,2.8,0.5,5.7,1.6,8.3c1,2.6,2.6,4.9,4.4,7
		c1.8,2.1,4.1,3.9,6.7,5.2c2.6,1.3,5.2,2.1,8.3,2.3c7,0.5,13.7,2.3,19.9,5.4c6.2,3.1,11.6,7.2,16.3,12.2c4.7,4.9,8.3,10.6,11.1,17.1
		c2.8,6.5,4.1,13.2,4.1,20.2c0,17.6-6.5,32.1-19.7,43.2l0,0c-10.6,8.8-22.5,13.5-36,13.5c-4.4,0-8.8-0.5-13.5-1.6
		c-4.4-1-8.8-2.6-12.9-4.9c-4.1-2.1-8-4.7-11.6-8C1223.7,394.7,1220.6,391.3,1218,387.2z"/>
	<path class="st0" d="M1462,254.9h-45v145.4c0,3.4-1.3,6.2-3.6,8.5c-2.3,2.3-5.2,3.6-8.5,3.6s-6.2-1.3-8.5-3.6
		c-2.3-2.3-3.6-5.2-3.6-8.5V254.9h-44.8c-3.4,0-6.2-1.3-8.5-3.6c-2.3-2.3-3.6-5.2-3.6-8.5s1.3-6.2,3.6-8.5c2.3-2.3,5.2-3.6,8.5-3.6
		h113.6c3.4,0,6.2,1.3,8.5,3.6c2.3,2.3,3.6,5.2,3.6,8.5s-1.3,6.2-3.6,8.5C1468,253.6,1465.1,254.9,1462,254.9z"/>
</g>
<g>
	<path class="st0" d="M80.1,200.8c1.8,0,3.4,0.5,4.4,1.8c1,1.3,1.8,2.8,1.8,4.4c0,1.8-0.5,3.4-1.8,4.4c-1.3,1-2.8,1.8-4.4,1.8
		c-21.2,0-31.8-10.6-31.8-31.8v-44.5h-6.5c-1.8,0-3.4-0.5-4.4-1.8c-1.3-1.3-1.8-2.8-1.8-4.4c0-1.8,0.5-3.4,1.8-4.4
		c1.3-1.3,2.8-1.8,4.4-1.8h6.5V92.1c0-1.8,0.5-3.4,1.8-4.4c1.3-1.3,2.8-2.1,4.7-2.1c1.8,0,3.4,0.5,4.4,1.8c1.3,1.3,1.8,2.8,1.8,4.7
		V124h12.9c1.8,0,3.4,0.5,4.4,1.8c1.3,1.3,1.8,2.8,1.8,4.4c0,1.8-0.5,3.4-1.8,4.4c-1.3,1.3-2.8,1.8-4.4,1.8H61v44.8
		C61,194.4,67.4,200.8,80.1,200.8z"/>
	<path class="st0" d="M99.5,92.1c0-1.8,0.5-3.4,1.8-4.4c1.3-1.3,2.8-1.8,4.4-1.8c1.8,0,3.4,0.5,4.4,1.8c1.3,1.3,1.8,2.8,1.8,4.4
		v43.5c8-7.8,17.6-11.6,28.7-11.6c11.4,0,21.2,4.1,29.2,12.2s12.2,17.9,12.2,29.2v41.4c0,1.8-0.5,3.4-1.8,4.4
		c-1.3,1.3-2.8,1.8-4.4,1.8c-1.8,0-3.4-0.5-4.4-1.8c-1.3-1.3-1.8-2.8-1.8-4.4v-41.4c0-8-2.8-14.8-8.5-20.4
		c-5.7-5.7-12.4-8.5-20.4-8.5c-8,0-14.8,2.8-20.4,8.5c-5.7,5.7-8.5,12.4-8.5,20.4v41.4c0,1.8-0.5,3.4-1.8,4.4
		c-1.3,1.3-2.8,1.8-4.4,1.8c-1.8,0-3.4-0.5-4.4-1.8c-1.3-1.3-1.8-2.8-1.8-4.4V92.1H99.5z"/>
	<path class="st0" d="M264.6,191.8c1.8,0,3.4,0.5,4.4,1.8s1.8,2.8,1.8,4.4c0,1.8-0.5,3.4-1.8,4.7c-8.3,7.2-17.9,10.9-29.2,10.9
		c-12.4,0-22.8-4.4-31.6-13.2c-8.8-8.8-13.2-19.1-13.2-31.6s4.4-22.8,13.2-31.6s19.1-13.2,31.6-13.2c12.4,0,22.8,4.4,31.6,13.2
		c8.8,8.8,13.2,19.1,13.2,31.6c0,1.8-0.5,3.4-1.8,4.4c-1.3,1-2.8,1.8-4.4,1.8h-69.9c1.3,6.2,4.1,11.6,8.8,16.3
		c6.2,6.2,13.7,9.3,22.5,9.3c8,0,14.8-2.6,20.7-7.5C261.8,192.3,263.1,191.8,264.6,191.8z M271.4,162.5c-1.3-6.2-4.1-11.6-8.8-16.3
		c-6.2-6.2-13.7-9.3-22.5-9.3s-16.3,3.1-22.5,9.3c-4.7,4.7-7.5,10.1-8.8,16.3H271.4z"/>
</g>
<g>
	<path class="st0" d="M1137,460.4c1.3-1.3,2.6-1.8,4.4-1.8s3.4,0.5,4.7,1.8c0.8,0.8,1.3,1.8,1.6,2.8l19.4,58l19.7-59.3
		c0.3-0.5,0.8-1.3,1.3-1.8c1.3-1.3,2.6-1.8,4.4-1.8s3.4,0.5,4.4,1.8c1,1.3,1.8,2.8,1.8,4.4c0,0.8-0.3,1.6-0.5,2.6l-25.4,76.6
		c-0.3,0.8-0.8,1.6-1.6,2.3c-1.3,1.3-2.8,1.8-4.7,1.8c-1.8,0-3.4-0.5-4.4-1.8c-0.8-0.8-1.3-1.6-1.6-2.3l-19.7-58.7l-19.7,58.7
		c-0.3,0.8-0.8,1.6-1.6,2.3c-1.3,1.3-2.8,1.8-4.7,1.8c-1.8,0-3.4-0.5-4.4-1.8c-0.8-0.8-1.3-1.6-1.6-2.3l-25.4-76.6
		c-0.3-0.8-0.5-1.6-0.5-2.6c0-1.8,0.5-3.4,1.8-4.4c1.3-1,2.8-1.8,4.4-1.8c1.8,0,3.4,0.5,4.7,1.8c0.5,0.5,1,1.3,1.3,1.8l19.7,59.3
		l19.4-58C1135.7,462.2,1136.2,461.4,1137,460.4z"/>
	<path class="st0" d="M1301.3,503.4c0,12.4-4.4,22.8-13.2,31.6c-8.8,8.8-19.2,13.2-31.6,13.2c-12.4,0-22.8-4.4-31.6-13.2
		s-13.2-19.2-13.2-31.6c0-12.4,4.4-22.8,13.2-31.6c8.8-8.8,19.1-13.2,31.6-13.2c12.4,0,22.8,4.4,31.6,13.2
		C1296.9,480.6,1301.3,490.9,1301.3,503.4z M1256.6,471.5c-8.8,0-16.3,3.1-22.5,9.3c-6.2,6.2-9.3,13.7-9.3,22.5
		c0,8.8,3.1,16.3,9.3,22.5c6.2,6.2,13.7,9.3,22.5,9.3s16.3-3.1,22.5-9.3c6.2-6.2,9.3-13.7,9.3-22.5c0-8.8-3.1-16.3-9.3-22.5
		C1272.9,474.6,1265.4,471.5,1256.6,471.5z"/>
	<path class="st0" d="M1314,465.1c0-1.8,0.5-3.4,1.8-4.4s2.8-1.8,4.4-1.8c1.8,0,3.4,0.5,4.4,1.8s1.8,2.8,1.8,4.4v7
		c9.1-9.1,19.7-13.5,31.8-13.5c6.2,0,11.9,1,17.1,3.1c1,0.3,1.8,1,2.6,1.6c1.3,1.3,1.8,2.8,1.8,4.7c0,1.8-0.5,3.4-1.8,4.4
		c-1.3,1.3-2.8,1.8-4.4,1.8c-1,0-2.1-0.3-2.8-0.5c-3.9-1.6-8-2.3-12.4-2.3c-8.8,0-16.3,3.1-22.5,9.3c-6.2,6.2-9.3,13.7-9.3,22.5
		v38.3c0,1.8-0.5,3.4-1.8,4.4c-1.3,1.3-2.8,1.8-4.4,1.8c-1.8,0-3.4-0.5-4.4-1.8c-1.3-1.3-1.8-2.8-1.8-4.4L1314,465.1L1314,465.1z"/>
	<path class="st0" d="M1467.2,426.5c0-1.8,0.5-3.4,1.8-4.4c1.3-1.3,2.8-1.8,4.4-1.8c1.6,0,3.4,0.5,4.4,1.8c1.3,1.3,1.8,2.8,1.8,4.4
		v76.9c0,12.4-4.4,22.8-13.2,31.6c-8.8,8.8-19.2,13.2-31.6,13.2s-22.8-4.4-31.6-13.2s-13.2-19.1-13.2-31.6s4.4-22.8,13.2-31.6
		c8.8-8.8,19.2-13.2,31.6-13.2s22.8,4.4,31.6,13.2l0.3,0.3v-45.5H1467.2z M1467.2,503.4c0-8.8-3.1-16.3-9.3-22.5
		c-6.2-6.2-13.7-9.3-22.5-9.3s-16.3,3.1-22.5,9.3c-6.2,6.2-9.3,13.7-9.3,22.5c0,8.8,3.1,16.3,9.3,22.5c6.2,6.2,13.7,9.3,22.5,9.3
		s16.3-3.1,22.5-9.3C1464.1,519.7,1467.2,512.2,1467.2,503.4z"/>
	<path class="st0" d="M1508.6,503.4c-4.9-1.8-8.3-3.6-10.1-5.7c-3.9-3.6-5.7-8.3-5.7-13.5c0-5.2,2.1-9.8,6-13.7
		c7.8-7.8,17.6-11.6,30-11.6c13.5,0,24.8,5.4,34.4,16c0.8,1,1.3,2.3,1.3,3.9c0,1.8-0.5,3.4-1.8,4.4c-1.3,1-2.8,1.8-4.4,1.8
		c-1.8,0-3.1-0.5-4.1-1.6c-1-1-1.8-1.8-2.3-2.3c-6.2-6.2-13.7-9.3-22.5-9.3s-15.8,2.8-21.2,8.3c-1.3,1.6-1.8,3.4-1.8,5.4
		c0.3,2.6,1.6,4.1,3.9,5.2l39.3,12.9c4.9,1.8,8.3,3.6,10.1,5.7c3.9,3.6,5.7,8.3,5.7,13.5c0,5.2-2.1,9.8-6,13.7
		c-7.8,7.8-17.6,11.6-30,11.6c-13.5,0-24.8-5.4-34.4-16c-0.8-1-1.3-2.3-1.3-3.9c0-1.8,0.5-3.4,1.8-4.4c1.3-1,2.8-1.8,4.4-1.8
		c1.8,0,3.1,0.5,4.1,1.6c1,1,1.8,1.8,2.3,2.3c6.2,6.2,13.7,9.3,22.5,9.3s15.8-2.8,21.2-8.3c1.3-1.6,1.8-3.4,1.8-5.4
		c-0.3-2.6-1.6-4.1-3.9-5.2L1508.6,503.4z"/>
</g>
<g>
	<path class="st0" d="M621.5,320.2l-21.2-25.4c-0.8-0.8-1-1.8-1-3.1s0.5-2.3,1.3-3.4c1-1,2.1-1.3,3.4-1.3c1.3,0,2.6,0.5,3.6,1.6
		l20.4,24.3l20.4-24.3c1-1,2.3-1.6,3.6-1.6c1.3,0,2.3,0.5,3.4,1.3c1,1,1.3,2.1,1.3,3.4s-0.3,2.3-1,3.1l-21.2,25.4l21.5,25.9
		c0.5,0.8,1,1.8,1,2.8c0,1.3-0.5,2.3-1.3,3.4c-1,1-2.1,1.3-3.4,1.3c-1.3,0-2.3-0.5-3.4-1.6l-20.4-24.6L608,352c-1,1-2.1,1.6-3.4,1.6
		s-2.3-0.5-3.4-1.3c-1-1-1.3-2.1-1.3-3.4c0-1,0.3-2.1,1-2.8L621.5,320.2z"/>
</g>
</svg>
