<?xml version="1.0" encoding="UTF-8"?>
<svg width="1200pt" height="1200pt" version="1.1" viewBox="0 0 1200 1200" xmlns="http://www.w3.org/2000/svg">
 <path d="m1064 721.13c-28.922-39.656-63.234-67.5-117.89-56.812-11.766 2.1562-15-4.2656-15-16.078-2.1562-36.422-6.4219-72.844-21.422-106.08-11.812-27.844-2.1562-37.5 20.344-48.234 20.344-9.6562 45-16.078 56.766-36.422 20.344-36.422 36.422-75 52.5-113.58 6.4219-12.844 4.3125-30-12.844-36.422-15-5.3438-27.844 1.0781-34.266 16.078-8.5781 18.234-19.266 35.344-24.656 54.656-11.766 39.656-36.422 65.344-75 79.312-1.0781 1.0781-1.0781 1.0781-2.1562 1.0781-9.6562 7.5-16.078 5.3438-22.5-4.2656-17.156-24.656-38.578-46.078-63.234-61.078-18.234-10.734-22.5-22.5-22.5-41.812 2.1562-34.266-7.5-65.344-25.734-94.312-33.234-54.656-15-126.42 40.734-157.5 13.922-7.5 25.734-17.156 16.078-35.344-8.5781-17.156-23.578-19.266-40.734-10.734-6.4219 3.2344-12.844 7.5-19.266 12.844-38.578 30-58.922 70.734-63.234 121.08-64.312-34.266-126.42-33.234-188.58 0-2.1562-11.812-2.1562-20.344-4.3125-28.922-12.844-42.844-34.266-80.344-75-101.81-22.5-11.766-39.656-8.5781-47.156 8.5781-8.5781 21.422 5.3438 28.922 22.5 36.422 48.234 23.578 69.656 101.81 39.656 145.74-22.5 34.266-34.266 70.734-31.078 112.5 0 11.766-3.2344 19.266-13.922 26.766-20.344 11.766-38.578 27.844-54.656 46.078-25.734 30-25.734 27.844-61.078 10.734-25.734-11.766-41.766-27.844-51.422-54.656-7.5-22.5-19.266-45-30-66.422-6.4219-15-20.344-21.422-35.344-13.922s-17.156 21.422-10.734 36.422c4.3125 10.734 11.812 21.422 15 32.156 18.234 60 53.578 103.92 114.66 124.31 11.766 4.2656 11.766 9.6562 7.5 21.422-11.766 32.156-20.344 66.422-23.578 100.73-4.2656 40.688-3.2344 39.656-43.922 40.688-18.234 0-37.5-4.2656-52.5 12.844-27.844 33.234-57.844 64.266-85.734 96.422-11.812 11.766-16.078 27.844-2.1562 39.656 12.844 10.734 27.844 7.5 39.656-5.3438 21.422-23.578 45-46.078 64.266-70.734 15-19.312 31.078-25.734 54.656-24.656 13.922 1.0781 19.266 2.1562 18.234 18.234-3.2344 45 1.0781 90 12.844 135 3.2344 15-2.1562 20.344-12.844 28.922-24.656 18.234-53.578 32.156-65.344 61.078-17.156 40.734-32.156 82.5-46.078 124.31-4.2656 13.922-4.2656 31.078 15 36.422 18.234 5.3438 27.844-5.3438 33.234-21.422 9.6562-26.766 20.344-52.5 28.922-79.312 8.5781-31.078 24.656-55.734 52.5-72.844 11.766-7.5 16.078-6.4219 21.422 6.4219 16.078 33.234 35.344 63.234 61.078 90 85.734 90 189.66 131.81 312.89 102.84 113.58-27.844 187.5-102.84 232.5-208.92 42.844 21.422 63.234 60 76.078 102.84 6.4219 21.422 13.922 42.844 22.5 64.266 5.3438 13.922 16.078 22.5 32.156 17.156 12.844-5.3438 22.5-16.078 17.156-30-28.922-70.734-37.5-154.31-116.81-195-3.2344-2.1562-5.3438-5.3438-8.5781-7.5-6.4219-4.3125-5.3438-8.5781-4.3125-13.922 9.6562-48.234 13.922-97.5 16.078-146.81 0-4.3125-2.1562-8.5781 4.2656-11.812 16.078-5.3438 49.312 3.2344 61.078 17.156 23.578 26.766 47.156 52.5 71.766 79.312 11.812 12.844 26.766 16.078 39.656 5.3438 15-11.766 11.812-26.766 0-39.656-15.938-17.062-33.094-34.172-48.094-53.484zm-225-220.74c12.844 19.266 9.6562 34.266-5.3438 49.312-35.344 34.266-79.312 47.156-125.34 56.766-23.578 5.3438-48.234 5.3438-72.844 9.6562-12.844 1.0781-18.234-1.0781-18.234-16.078 1.0781-33.234 1.0781-65.344 1.0781-97.5l-0.046875-100.73c0-7.5-1.0781-13.922 10.734-12.844 85.688 7.5 160.69 35.344 210 111.42zm-466.13-28.922c38.578-50.344 94.312-70.734 154.31-78.234 40.734-4.2656 40.734-3.2344 40.734 38.578v71.766c0 32.156-1.0781 65.344 0 97.5 0 12.844-3.2344 15-16.078 13.922-53.578-3.2344-107.16-10.734-155.39-37.5-73.922-41.719-65.344-52.453-23.578-106.03zm-67.5 297.89c-1.0781-62.156 2.1562-123.24 15-184.31 15 9.6562 27.844 23.578 42.844 32.156 57.844 33.234 121.08 46.078 186.42 47.156 5.3438 0 9.6562 0 12.844 2.1562 2.1562 0 4.2656 2.1562 5.3438 5.3438 1.0781 2.1562 1.0781 4.3125 1.0781 7.5-1.0781 136.08-1.0781 271.08-1.0781 406.08 1.0781 13.922-4.3125 15-16.078 12.844-31.078-7.5-60-18.234-88.922-32.156-107.11-69.609-154.22-170.34-157.45-296.76zm267.89-429.66c-35.344 0-69.656 4.2656-103.92 12.844-12.844 3.2344-17.156 2.1562-13.922-12.844 12.844-70.734 54.656-113.58 125.34-126.42 77.156-12.844 156.42 62.156 147.84 141.42-51.422-13.969-102.84-16.078-155.34-15zm275.34 586.08c-42.844 101.81-120 160.74-230.39 173.58 0-6.4219-1.0781-12.844-1.0781-19.312v-392.16c0-7.5 1.0781-15 2.1562-23.578 92.156 1.0781 178.92-16.078 252.89-80.344 17.156 117.89 23.578 232.55-23.578 341.81z"/>
</svg>
