<?xml version="1.0" encoding="UTF-8" standalone="no"?>
<!DOCTYPE svg PUBLIC "-//W3C//DTD SVG 1.1//EN" "http://www.w3.org/Graphics/SVG/1.1/DTD/svg11.dtd">
<svg width="100%" height="100%" viewBox="0 0 600 300" version="1.1" xmlns="http://www.w3.org/2000/svg" xmlns:xlink="http://www.w3.org/1999/xlink" xml:space="preserve" xmlns:serif="http://www.serif.com/" style="fill-rule:evenodd;clip-rule:evenodd;stroke-linejoin:round;stroke-miterlimit:2;">
    <g id="_2unltd" serif:id="2unltd">
        <g transform="matrix(0.600948,0,0,0.538046,201.616,267.624)">
            <path d="M0,-440.733L20.975,-440.733C25.47,-435.028 29.665,-423.848 33.561,-407.199L33.561,-400.697C33.561,-371.954 29.564,-346.975 21.575,-325.759C21.575,-322.337 20.175,-318.113 17.379,-313.098C17.379,-306.939 13.683,-299.978 6.292,-292.225C6.292,-287.889 1.596,-276.709 -7.792,-258.691L-20.376,-239.529L-42.701,-209.074C-49.094,-194.242 -55.637,-184.207 -62.328,-178.962L-90.195,-142.006L-90.945,-143.717L-91.694,-143.717L-93.042,-138.925L-93.042,-137.215C-93.042,-131.51 -84.652,-127.292 -67.872,-124.554L-58.133,-129.345L-10.488,-129.345L-7.792,-134.135L16.78,-134.135L27.268,-129.345L33.561,-129.345L33.561,-135.846L23.073,-165.959L22.324,-167.67L22.324,-205.994C23.223,-209.871 26.018,-215.688 30.714,-223.445L50.342,-223.445L60.829,-205.994L62.178,-191.623L62.178,-182.042C62.178,-179.303 58.433,-171.316 50.941,-158.088C50.941,-153.753 52.589,-147.935 55.884,-140.636C55.884,-136.531 59.129,-129.003 65.623,-118.053C67.722,-104.366 77.76,-87.941 95.737,-68.779C100.133,-67.634 105.726,-58.513 112.519,-41.404L112.519,-25.664C110.421,-16.312 106.924,-7.757 102.031,0L98.586,0C91.992,-11.863 80.554,-24.636 64.275,-38.324L46.146,-59.197L44.048,-57.486C44.048,-60.678 40.752,-63.871 34.16,-67.068C31.164,-70.49 25.568,-73.681 17.379,-76.649L9.738,-76.649L7.641,-79.728L-2.847,-79.728L-3.596,-81.439L-4.195,-79.728L-7.792,-79.728L-10.488,-84.519L-14.684,-84.519L-17.53,-79.728L-20.376,-79.728L-20.976,-81.439L-21.725,-79.728L-60.23,-79.728L-62.328,-76.649L-62.927,-76.649C-81.206,-73.452 -93.094,-69.687 -98.586,-65.357L-102.781,-67.068L-106.376,-67.068C-110.073,-63.871 -119.164,-61.705 -133.645,-60.566L-158.816,-44.826L-159.415,-43.115L-169.304,-43.115C-180.889,-35.811 -189.029,-32.165 -193.725,-32.165L-194.325,-32.165C-198.318,-32.165 -203.015,-39.008 -208.408,-52.696L-207.659,-54.407L-207.659,-55.775L-208.408,-60.566L-196.422,-87.941C-194.924,-91.363 -187.482,-99.799 -174.098,-113.262C-174.098,-115.316 -168.756,-119.079 -158.067,-124.554C-150.077,-127.292 -141.237,-136.301 -131.548,-151.587C-120.362,-164.36 -113.819,-170.749 -111.92,-170.749C-98.038,-179.646 -87.3,-190.821 -79.708,-204.283C-73.617,-211.351 -66.174,-222.077 -57.384,-236.449L-37.157,-260.402C-27.77,-267.246 -13.986,-294.39 4.195,-341.841L8.989,-368.874L8.989,-381.535C8.989,-384.497 7.14,-386.668 3.446,-388.036L-10.488,-388.036C-17.979,-388.036 -28.467,-380.621 -41.952,-365.795L-66.523,-346.632C-83.004,-324.733 -98.387,-302.833 -112.669,-280.933C-121.06,-267.93 -125.255,-260.514 -125.255,-258.691C-137.042,-234.278 -144.484,-222.077 -147.579,-222.077C-147.579,-219.794 -148.729,-218.655 -151.025,-218.655L-158.067,-218.655C-163.362,-218.655 -167.307,-224.584 -169.903,-236.449L-169.903,-250.82C-168.006,-254.242 -166.857,-258.461 -166.457,-263.481C-165.558,-263.481 -164.86,-267.7 -164.359,-276.142L-163.011,-279.564L-163.011,-313.098C-168.105,-323.818 -170.652,-330.662 -170.652,-333.629C-166.757,-351.877 -160.714,-361.004 -152.523,-361.004C-145.533,-361.004 -139.937,-354.043 -135.743,-340.13L-135.743,-320.968L-134.245,-320.968L-128.701,-327.47C-120.111,-346.632 -107.777,-363.624 -91.694,-378.455C-91.694,-382.786 -84.703,-389.175 -70.718,-397.618C-67.024,-402.863 -61.878,-407.081 -55.286,-410.278C-39.006,-428.526 -28.519,-437.653 -23.822,-437.653L-22.474,-437.653L0,-440.733Z" style="fill:rgb(110,186,111);fill-rule:nonzero;"/>
        </g>
        <g transform="matrix(1,0,0,1,56.5,-35)">
            <g transform="matrix(0.810521,0,0,0.810521,277.047,102.321)">
                <path d="M0,47.726C2.048,47.726 3.072,46.609 3.072,44.372L3.072,-14.334C3.072,-19.823 4.052,-23.811 6.016,-26.303C7.978,-28.793 11.091,-30.039 15.358,-30.039C23.805,-30.039 28.028,-24.802 28.028,-14.334L28.028,68.311C28.028,74.615 25.469,77.765 20.35,77.765L-50.553,77.765C-55.758,77.765 -58.359,74.615 -58.359,68.311L-58.359,-14.334C-58.359,-24.702 -54.222,-29.886 -45.945,-29.886C-37.67,-29.886 -33.531,-24.702 -33.531,-14.334L-33.531,43.762C-33.531,46.406 -32.465,47.726 -30.331,47.726L0,47.726Z" style="fill:rgb(197,66,134);fill-rule:nonzero;"/>
            </g>
            <g transform="matrix(0.810521,0,0,0.810521,330.884,141.621)">
                <path d="M0,-48.03C-2.22,-48.03 -3.328,-46.708 -3.328,-44.066L-3.328,14.334C-3.328,19.824 -4.288,23.814 -6.207,26.304C-8.127,28.796 -11.263,30.039 -15.614,30.039C-23.891,30.039 -28.028,24.805 -28.028,14.334L-28.028,-68.615C-28.028,-74.917 -25.469,-78.069 -20.35,-78.069L50.297,-78.069C55.586,-78.069 58.231,-74.917 58.231,-68.615L58.231,14.334C58.231,24.703 54.092,29.887 45.817,29.887C37.54,29.887 33.403,24.703 33.403,14.334L33.403,-44.066C33.403,-46.708 32.335,-48.03 30.203,-48.03L0,-48.03Z" style="fill:rgb(197,66,134);fill-rule:nonzero;"/>
            </g>
        </g>
        <g transform="matrix(0.497798,0,0,0.497798,-113.1,49.1398)">
            <g transform="matrix(1.735,0,0,1.735,936.562,211.247)">
                <path d="M0,113.253C-8.614,113.253 -12.921,108.022 -12.921,97.555L-12.921,15.538C-12.921,10.411 -11.635,6.542 -9.058,3.925C-6.483,1.309 -3.463,0 0,0C3.374,0 6.349,1.336 8.925,4.005C11.499,6.675 12.788,10.52 12.788,15.538L12.788,81.856L39.162,81.856C43.158,81.856 46.199,83.405 48.287,86.501C50.372,89.6 51.417,93.284 51.417,97.555C51.417,101.935 50.372,105.644 48.287,108.688C46.199,111.732 43.158,113.253 39.162,113.253L0,113.253Z" style="fill:rgb(234,209,31);fill-rule:nonzero;"/>
            </g>
            <g transform="matrix(1.735,0,0,1.735,1092.1,239.039)">
                <path d="M0,82.337C0,87.463 -1.288,91.335 -3.863,93.95C-6.439,96.568 -9.504,97.875 -13.055,97.875C-16.518,97.875 -19.515,96.568 -22.046,93.95C-24.576,91.335 -25.842,87.463 -25.842,82.337L-25.842,15.858L-34.9,15.858C-38.985,15.858 -42.159,14.312 -44.424,11.213C-46.688,8.117 -47.821,4.433 -47.821,0.16C-47.821,-4.109 -46.688,-7.795 -44.424,-10.892C-42.159,-13.989 -38.985,-15.538 -34.9,-15.538L8.791,-15.538C12.875,-15.538 16.072,-13.989 18.382,-10.892C20.69,-7.795 21.846,-4.109 21.846,0.16C21.846,4.433 20.69,8.117 18.382,11.213C16.072,14.312 12.875,15.858 8.791,15.858L0,15.858L0,82.337Z" style="fill:rgb(234,209,31);fill-rule:nonzero;"/>
            </g>
            <g transform="matrix(1.735,0,0,1.735,1188.47,266.555)">
                <path d="M0,49.978L10.257,49.978C13.274,49.978 16.095,49.393 18.716,48.216C21.334,47.042 23.621,45.388 25.575,43.25C27.527,41.116 29.06,38.499 30.171,35.401C31.28,32.305 31.836,28.833 31.836,24.989C31.836,21.144 31.304,17.701 30.237,14.657C29.172,11.614 27.661,8.998 25.709,6.807C23.754,4.62 21.467,2.963 18.849,1.842C16.229,0.72 13.32,0.16 10.124,0.16L0,0.16L0,49.978ZM-25.842,-15.699C-25.842,-17.621 -25.509,-19.516 -24.843,-21.386C-24.177,-23.253 -23.244,-24.935 -22.045,-26.431C-20.847,-27.925 -19.427,-29.127 -17.783,-30.036C-16.141,-30.942 -14.343,-31.397 -12.388,-31.397L8.126,-31.397C15.852,-31.397 22.799,-29.901 28.973,-26.912C35.144,-23.921 40.382,-19.864 44.69,-14.738C48.997,-9.612 52.327,-3.658 54.681,3.124C57.033,9.907 58.211,17.087 58.211,24.668C58.211,32.678 57.012,40.075 54.614,46.855C52.217,53.638 48.887,59.509 44.624,64.475C40.361,69.442 35.276,73.394 29.372,76.33C23.465,79.268 17.051,80.95 10.124,81.375L-12.388,81.375C-16.65,81.375 -19.96,79.989 -22.312,77.21C-24.666,74.435 -25.842,70.59 -25.842,65.677L-25.842,-15.699Z" style="fill:rgb(234,209,31);fill-rule:nonzero;"/>
            </g>
        </g>
    </g>
</svg>
