<?xml version="1.0" encoding="UTF-8" standalone="no"?>
<!DOCTYPE svg PUBLIC "-//W3C//DTD SVG 1.1//EN" "http://www.w3.org/Graphics/SVG/1.1/DTD/svg11.dtd">
<svg width="100%" height="100%" viewBox="0 0 600 300" version="1.1" xmlns="http://www.w3.org/2000/svg" xmlns:xlink="http://www.w3.org/1999/xlink" xml:space="preserve" xmlns:serif="http://www.serif.com/" style="fill-rule:evenodd;clip-rule:evenodd;stroke-linejoin:round;stroke-miterlimit:2;">
    <g id="Comparatively-Famous" serif:id="Comparatively Famous" transform="matrix(0.58071,0,0,0.58071,-129.717,20.0495)">
        <g transform="matrix(0.515112,0,0,0.515112,264.928,5.60573)">
            <g>
                <g>
                    <path d="M1469.3,123L1308.2,293.4L1319.4,255.8L1480.6,85.4L1469.3,123Z" style="fill:rgb(121,108,11);fill-rule:nonzero;"/>
                </g>
                <g>
                    <path d="M1457.8,156.5L1296.6,326.9L1259.7,251.8L1420.9,81.5L1457.8,156.5Z" style="fill:rgb(124,110,11);fill-rule:nonzero;"/>
                </g>
                <g>
                    <path d="M1463.9,221.5L1302.8,391.9L1296.6,326.9L1457.8,156.5L1463.9,221.5Z" style="fill:rgb(122,109,11);fill-rule:nonzero;"/>
                </g>
                <g>
                    <path d="M1493.7,223.5L1332.6,393.9L1302.8,391.9L1463.9,221.5L1493.7,223.5Z" style="fill:rgb(125,111,11);fill-rule:nonzero;"/>
                </g>
                <g>
                    <path d="M1510.4,87.4L1487.6,158.5L1493.7,223.5L1463.9,221.5L1457.8,156.5L1420.9,81.5L1450.8,83.4L1469.3,123L1480.6,85.4L1510.4,87.4Z" style="fill:rgb(239,212,22);fill-rule:nonzero;"/>
                </g>
            </g>
            <g>
                <g>
                    <path d="M1429,207.6L1267.9,378L1198.3,373.4L1359.5,203L1429,207.6Z" style="fill:rgb(125,111,11);fill-rule:nonzero;"/>
                </g>
                <g>
                    <path d="M1359.5,203L1198.3,373.4L1185.1,235.1L1346.3,64.8L1359.5,203Z" style="fill:rgb(122,109,11);fill-rule:nonzero;"/>
                </g>
                <g>
                    <path d="M1376.1,66.7L1386.4,175.4L1426.2,178L1429,207.6L1359.5,203L1346.3,64.8L1376.1,66.7Z" style="fill:rgb(239,212,22);fill-rule:nonzero;"/>
                </g>
            </g>
            <g>
                <g>
                    <path d="M1334.5,107.2L1173.4,277.6L1133.6,275L1294.7,104.6L1334.5,107.2Z" style="fill:rgb(125,111,11);fill-rule:nonzero;"/>
                </g>
                <g>
                    <path d="M1339.7,161.5L1178.5,331.9L1138.7,329.2L1299.9,158.9L1339.7,161.5Z" style="fill:rgb(125,111,11);fill-rule:nonzero;"/>
                </g>
                <g>
                    <path d="M1344.8,215.6L1183.6,386L1114,381.4L1275.2,211L1344.8,215.6Z" style="fill:rgb(125,111,11);fill-rule:nonzero;"/>
                </g>
                <g>
                    <path d="M1275.2,211L1114,381.4L1100.9,243.4L1262.1,73L1275.2,211Z" style="fill:rgb(122,109,11);fill-rule:nonzero;"/>
                </g>
                <g>
                    <path d="M1331.7,77.6L1334.5,107.2L1294.7,104.6L1297.1,129.3L1336.9,131.9L1339.7,161.5L1299.9,158.9L1302.2,183.5L1342,186.2L1344.8,215.6L1275.2,211L1262.1,73L1331.7,77.6Z" style="fill:rgb(239,212,22);fill-rule:nonzero;"/>
                </g>
            </g>
            <g>
                <g>
                    <path d="M1220.5,165.8L1059.3,336.2L1066.5,245L1227.6,74.7L1220.5,165.8Z" style="fill:rgb(122,108,11);fill-rule:nonzero;"/>
                </g>
                <g>
                    <path d="M1205,210.3L1043.8,380.7L1005,241L1166.2,70.6L1205,210.3Z" style="fill:rgb(123,110,11);fill-rule:nonzero;"/>
                </g>
                <g>
                    <path d="M1244.7,212.9L1083.5,383.3L1043.8,380.7L1205,210.3L1244.7,212.9Z" style="fill:rgb(125,111,11);fill-rule:nonzero;"/>
                </g>
                <g>
                    <path d="M1257.4,76.6L1244.7,212.9L1205,210.3L1166.2,70.6L1195.8,72.6L1220.5,165.8L1227.6,74.7L1257.4,76.6Z" style="fill:rgb(239,212,22);fill-rule:nonzero;"/>
                </g>
            </g>
            <g>
                <g>
                    <path d="M1172.5,190.7L1011.3,361.1L981.5,359.1L1142.7,188.7L1172.5,190.7Z" style="fill:rgb(125,111,11);fill-rule:nonzero;"/>
                </g>
                <g>
                    <path d="M1142.7,188.7L981.5,359.1L968.4,220.9L1129.6,50.5L1142.7,188.7Z" style="fill:rgb(122,109,11);fill-rule:nonzero;"/>
                </g>
                <g>
                    <path d="M1159.4,52.4L1172.5,190.7L1142.7,188.7L1129.6,50.5L1159.4,52.4Z" style="fill:rgb(239,212,22);fill-rule:nonzero;"/>
                </g>
            </g>
            <g>
                <g>
                    <path d="M1123.7,93.3L962.5,263.7L932.7,261.7L1093.9,91.3L1123.7,93.3Z" style="fill:rgb(125,111,11);fill-rule:nonzero;"/>
                </g>
                <g>
                    <path d="M1064.1,89.4L902.9,259.8L873,257.8L1034.2,87.4L1064.1,89.4Z" style="fill:rgb(125,111,11);fill-rule:nonzero;"/>
                </g>
                <g>
                    <path d="M1034.2,87.4L873,257.8L870.2,228.2L1031.4,57.8L1034.2,87.4Z" style="fill:rgb(122,109,11);fill-rule:nonzero;"/>
                </g>
                <g>
                    <path d="M1000.6,124.5L839.4,294.9L827.9,251.5L989.1,81.1L1000.6,124.5Z" style="fill:rgb(123,110,11);fill-rule:nonzero;"/>
                </g>
                <g>
                    <path d="M1120.9,63.7L1123.7,93.3L1093.9,91.3L1104.2,199.7L1074.4,197.8L1064.1,89.4L1034.2,87.4L1031.4,57.8L1120.9,63.7Z" style="fill:rgb(239,212,22);fill-rule:nonzero;"/>
                </g>
                <g>
                    <path d="M1104.2,199.7L943,370.1L913.2,368.1L1074.4,197.8L1104.2,199.7Z" style="fill:rgb(125,111,11);fill-rule:nonzero;"/>
                </g>
                <g>
                    <path d="M1074.4,197.8L913.2,368.1L902.9,259.8L1064.1,89.4L1074.4,197.8Z" style="fill:rgb(122,109,11);fill-rule:nonzero;"/>
                </g>
                <g>
                    <path d="M1043.6,176.4L882.4,346.8L852.6,344.8L1013.8,174.4L1043.6,176.4Z" style="fill:rgb(125,111,11);fill-rule:nonzero;"/>
                </g>
                <g>
                    <path d="M1013.8,174.4L852.6,344.8L847.4,324.8L1008.5,154.4L1013.8,174.4Z" style="fill:rgb(123,110,11);fill-rule:nonzero;"/>
                </g>
                <g>
                    <path d="M1008.5,154.4L847.4,324.8L822.3,323.2L983.5,152.8L1008.5,154.4Z" style="fill:rgb(125,111,11);fill-rule:nonzero;"/>
                </g>
                <g>
                    <path d="M982,172.3L820.8,342.7L791.2,340.7L952.4,170.4L982,172.3Z" style="fill:rgb(125,111,11);fill-rule:nonzero;"/>
                </g>
                <g>
                    <path d="M952.4,170.4L791.2,340.7L803.8,204.2L964.9,33.8L952.4,170.4Z" style="fill:rgb(122,108,11);fill-rule:nonzero;"/>
                </g>
                <g>
                    <path d="M1004.7,36.4L1043.7,176.4L1013.9,174.4L1008.6,154.4L983.6,152.7L982.1,172.2L952.5,170.2L965.1,33.6L1004.7,36.4ZM985.9,123.5L1000.6,124.5L989.1,81.1L985.9,123.5" style="fill:rgb(239,212,22);fill-rule:nonzero;"/>
                </g>
            </g>
            <g>
                <g>
                    <path d="M907.8,67.3L746.7,237.7L726.8,236.4L887.9,66L907.8,67.3Z" style="fill:rgb(125,111,11);fill-rule:nonzero;"/>
                </g>
                <g>
                    <path d="M940.1,94.9L778.9,265.3L766.3,278.3L927.5,107.9L940.1,94.9Z" style="fill:rgb(121,108,11);fill-rule:nonzero;"/>
                </g>
                <g>
                    <path d="M910.2,92L749,262.4L746.7,237.7L907.8,67.3L910.2,92Z" style="fill:rgb(122,109,11);fill-rule:nonzero;"/>
                </g>
                <g>
                    <path d="M913,121.6L751.8,292L731.9,290.6L893.1,120.3L913,121.6Z" style="fill:rgb(125,111,11);fill-rule:nonzero;"/>
                </g>
                <g>
                    <path d="M948,177.9L786.8,348.3L757,346.3L918.2,176L948,177.9Z" style="fill:rgb(125,111,11);fill-rule:nonzero;"/>
                </g>
                <g>
                    <path d="M918.2,176L757,346.3L751.8,292L913,121.6L918.2,176Z" style="fill:rgb(122,109,11);fill-rule:nonzero;"/>
                </g>
                <g>
                    <path d="M868.5,172.7L707.3,343.1L694.2,204.8L855.3,34.4L868.5,172.7Z" style="fill:rgb(122,109,11);fill-rule:nonzero;"/>
                </g>
                <g>
                    <path d="M936.7,59.4L940.1,94.9L927.5,107.9L942.7,122.6L948,177.9L918.2,175.9L913,121.5L893.1,120.2L898.3,174.6L868.5,172.6L855.3,34.4L914.9,38.3L936.7,59.4ZM910.2,92L907.9,67.3L887.9,66L890.2,90.7L910.2,92" style="fill:rgb(239,212,22);fill-rule:nonzero;"/>
                </g>
                <g>
                    <path d="M898.3,174.6L737.1,345L707.3,343.1L868.5,172.7L898.3,174.6Z" style="fill:rgb(125,111,11);fill-rule:nonzero;"/>
                </g>
            </g>
            <g>
                <g>
                    <path d="M819.6,112.5L658.5,282.9L647,239.5L808.2,69.2L819.6,112.5Z" style="fill:rgb(123,110,11);fill-rule:nonzero;"/>
                </g>
                <g>
                    <path d="M862.7,164.4L701.5,334.8L671.7,332.9L832.9,162.5L862.7,164.4Z" style="fill:rgb(125,111,11);fill-rule:nonzero;"/>
                </g>
                <g>
                    <path d="M832.9,162.5L671.7,332.9L666.4,312.9L827.6,142.5L832.9,162.5Z" style="fill:rgb(123,110,11);fill-rule:nonzero;"/>
                </g>
                <g>
                    <path d="M827.6,142.5L666.4,312.9L641.4,311.2L802.5,140.8L827.6,142.5Z" style="fill:rgb(125,111,11);fill-rule:nonzero;"/>
                </g>
                <g>
                    <path d="M733,57.8L571.8,228.2L551.9,226.8L713.1,56.5L733,57.8Z" style="fill:rgb(125,111,11);fill-rule:nonzero;"/>
                </g>
                <g>
                    <path d="M771.4,158.4L610.2,328.8L622.8,192.2L784,21.8L771.4,158.4Z" style="fill:rgb(122,108,11);fill-rule:nonzero;"/>
                </g>
                <g>
                    <path d="M735.4,82.5L574.2,252.9L571.8,228.2L733,57.8L735.4,82.5Z" style="fill:rgb(122,109,11);fill-rule:nonzero;"/>
                </g>
                <g>
                    <path d="M766.1,94.3L604.9,264.7L586.9,283.1L748.1,112.7L766.1,94.3Z" style="fill:rgb(121,108,11);fill-rule:nonzero;"/>
                </g>
                <g>
                    <path d="M823.7,24.5L862.7,164.5L832.9,162.5L827.6,142.5L802.6,140.8L801.1,160.3L771.5,158.3L784,21.8L823.7,24.5ZM805,111.6L819.7,112.6L808.3,69.2L805,111.6" style="fill:rgb(239,212,22);fill-rule:nonzero;"/>
                </g>
                <g>
                    <path d="M801,160.4L639.8,330.8L610.2,328.8L771.4,158.4L801,160.4Z" style="fill:rgb(125,111,11);fill-rule:nonzero;"/>
                </g>
                <g>
                    <path d="M748.1,112.7L586.9,283.1L557.1,281.1L718.3,110.8L748.1,112.7Z" style="fill:rgb(125,111,11);fill-rule:nonzero;"/>
                </g>
                <g>
                    <path d="M723.4,165L562.3,335.4L532.4,333.5L693.6,163.1L723.4,165Z" style="fill:rgb(125,111,11);fill-rule:nonzero;"/>
                </g>
                <g>
                    <path d="M740.1,28.7L761.9,49.8L766.1,94.3L748.1,112.8L718.3,110.8L723.5,165.1L693.7,163.1L680.5,24.8L740.1,28.7ZM735.4,82.5L733,57.8L713.1,56.5L715.4,81.2L735.4,82.5" style="fill:rgb(239,212,22);fill-rule:nonzero;"/>
                </g>
                <g>
                    <path d="M693.6,163.1L532.4,333.5L519.3,195.2L680.5,24.8L693.6,163.1Z" style="fill:rgb(122,109,11);fill-rule:nonzero;"/>
                </g>
            </g>
            <g>
                <g>
                    <path d="M620.5,79.8L459.3,250.2L474.5,202.1L635.7,31.7L620.5,79.8Z" style="fill:rgb(121,108,11);fill-rule:nonzero;"/>
                </g>
                <g>
                    <path d="M648.8,169.7L487.6,340.1L483,290.9L644.1,120.5L648.8,169.7Z" style="fill:rgb(122,109,11);fill-rule:nonzero;"/>
                </g>
                <g>
                    <path d="M678.6,171.7L517.4,342.1L487.6,340.1L648.8,169.7L678.6,171.7Z" style="fill:rgb(125,111,11);fill-rule:nonzero;"/>
                </g>
                <g>
                    <path d="M628.9,168.4L467.7,338.8L443.2,288.3L604.3,117.9L628.9,168.4Z" style="fill:rgb(124,110,11);fill-rule:nonzero;"/>
                </g>
                <g>
                    <path d="M579.2,165.1L418,335.5L404.9,197.5L566.1,27.1L579.2,165.1Z" style="fill:rgb(122,109,11);fill-rule:nonzero;"/>
                </g>
                <g>
                    <path d="M609,167.1L447.8,337.5L418,335.5L579.2,165.1L609,167.1Z" style="fill:rgb(125,111,11);fill-rule:nonzero;"/>
                </g>
                <g>
                    <path d="M665.5,33.7L678.6,171.7L648.8,169.7L644.1,120.5L628.9,168.4L604.3,117.9L609,167.1L579.2,165.1L566.1,27.1L595.9,29.1L620.5,79.8L635.7,31.7L665.5,33.7Z" style="fill:rgb(239,212,22);fill-rule:nonzero;"/>
                </g>
            </g>
            <g>
                <g>
                    <path d="M521.7,37.9L360.5,208.3L340.6,207L501.8,36.6L521.7,37.9Z" style="fill:rgb(125,111,11);fill-rule:nonzero;"/>
                </g>
                <g>
                    <path d="M529.2,116.9L368,287.3L360.5,208.3L521.7,37.9L529.2,116.9Z" style="fill:rgb(122,109,11);fill-rule:nonzero;"/>
                </g>
                <g>
                    <path d="M559.9,128.8L398.8,299.2L380.8,317.6L541.9,147.2L559.9,128.8Z" style="fill:rgb(121,108,11);fill-rule:nonzero;"/>
                </g>
                <g>
                    <path d="M480.4,123.5L319.3,293.9L309.9,195.2L471.1,24.8L480.4,123.5Z" style="fill:rgb(122,109,11);fill-rule:nonzero;"/>
                </g>
                <g>
                    <path d="M502.2,144.6L341.1,315L319.3,293.9L480.4,123.5L502.2,144.6Z" style="fill:rgb(126,112,11);fill-rule:nonzero;"/>
                </g>
                <g>
                    <path d="M541.9,147.2L380.8,317.6L341.1,315L502.2,144.6L541.9,147.2Z" style="fill:rgb(125,111,11);fill-rule:nonzero;"/>
                </g>
                <g>
                    <path d="M528.8,9L550.6,30L560,128.7L542,147.2L502.3,144.6L480.5,123.5L471.1,24.8L489.1,6.3L528.8,9ZM529.2,116.9L521.7,37.9L501.8,36.6L509.3,115.6L529.2,116.9" style="fill:rgb(239,212,22);fill-rule:nonzero;"/>
                </g>
            </g>
            <g>
                <g>
                    <path d="M428,49.5L266.8,219.8L246.9,218.5L408.1,48.1L428,49.5Z" style="fill:rgb(125,111,11);fill-rule:nonzero;"/>
                </g>
                <g>
                    <path d="M429.8,69.1L268.7,239.5L266.8,219.8L428,49.5L429.8,69.1Z" style="fill:rgb(122,109,11);fill-rule:nonzero;"/>
                </g>
                <g>
                    <path d="M459.6,71.1L298.5,241.5L268.7,239.5L429.8,69.1L459.6,71.1Z" style="fill:rgb(125,111,11);fill-rule:nonzero;"/>
                </g>
                <g>
                    <path d="M435.5,128.4L274.3,298.8L272.4,279.1L433.6,108.7L435.5,128.4Z" style="fill:rgb(122,109,11);fill-rule:nonzero;"/>
                </g>
                <g>
                    <path d="M466.2,140.2L305,310.6L287,328.9L448.2,158.5L466.2,140.2Z" style="fill:rgb(121,108,11);fill-rule:nonzero;"/>
                </g>
                <g>
                    <path d="M386.7,135L225.5,305.4L216.2,206.6L377.3,36.3L386.7,135Z" style="fill:rgb(122,109,11);fill-rule:nonzero;"/>
                </g>
                <g>
                    <path d="M408.5,155.9L247.3,326.3L225.5,305.4L386.7,135L408.5,155.9Z" style="fill:rgb(126,112,11);fill-rule:nonzero;"/>
                </g>
                <g>
                    <path d="M435.1,20.4L456.8,41.5L459.6,71.1L429.8,69.1L428,49.5L408.1,48.1L415.6,127.1L435.5,128.4L433.6,108.7L463.4,110.6L466.2,140.2L448.2,158.5L408.5,155.9L386.7,135L377.3,36.3L395.4,17.8L435.1,20.4Z" style="fill:rgb(239,212,22);fill-rule:nonzero;"/>
                </g>
                <g>
                    <path d="M448.2,158.5L287,328.9L247.3,326.3L408.5,155.9L448.2,158.5Z" style="fill:rgb(125,111,11);fill-rule:nonzero;"/>
                </g>
            </g>
        </g>
        <g transform="matrix(0.515112,0,0,0.515112,264.928,5.60573)">
            <g>
                <g>
                    <path d="M1857.6,434.5L1739.4,559.4L1647.3,553.4L1765.5,428.4L1857.6,434.5Z" style="fill:rgb(14,94,125);fill-rule:nonzero;"/>
                </g>
                <g>
                    <path d="M1765.5,428.4L1647.3,553.4L1644.4,523L1762.6,398L1765.5,428.4Z" style="fill:rgb(14,92,122);fill-rule:nonzero;"/>
                </g>
                <g>
                    <path d="M1762.6,398L1644.4,523L1582.9,518.9L1701.1,394L1762.6,398Z" style="fill:rgb(14,94,125);fill-rule:nonzero;"/>
                </g>
                <g>
                    <path d="M1785.7,642.1L1667.6,767.1L1660.3,690.8L1778.5,565.8L1785.7,642.1Z" style="fill:rgb(14,92,122);fill-rule:nonzero;"/>
                </g>
                <g>
                    <path d="M1619.1,494.6L1500.9,619.5L1487.9,482.1L1606,357.2L1619.1,494.6Z" style="fill:rgb(14,92,122);fill-rule:nonzero;"/>
                </g>
                <g>
                    <path d="M1686.4,559.8L1568.2,684.7L1500.9,619.5L1619.1,494.6L1686.4,559.8Z" style="fill:rgb(15,94,126);fill-rule:nonzero;"/>
                </g>
                <g>
                    <path d="M1778.5,565.8L1660.3,690.8L1568.2,684.7L1686.4,559.8L1778.5,565.8Z" style="fill:rgb(14,94,125);fill-rule:nonzero;"/>
                </g>
                <g>
                    <path d="M1880.7,678.6L1762.6,803.5L1706.9,860.6L1825,735.7L1880.7,678.6Z" style="fill:rgb(14,91,121);fill-rule:nonzero;"/>
                </g>
                <g>
                    <path d="M1635,662.4L1516.8,787.3L1511,726.2L1629.2,601.3L1635,662.4Z" style="fill:rgb(14,92,122);fill-rule:nonzero;"/>
                </g>
                <g>
                    <path d="M1825,735.7L1706.9,860.6L1584.2,852.5L1702.3,727.6L1825,735.7Z" style="fill:rgb(14,94,125);fill-rule:nonzero;"/>
                </g>
                <g>
                    <path d="M1702.3,727.6L1584.2,852.5L1516.8,787.3L1635,662.4L1702.3,727.6Z" style="fill:rgb(15,94,126);fill-rule:nonzero;"/>
                </g>
                <g>
                    <path d="M1784.5,308.3L1851.8,373.4L1857.6,434.5L1765.5,428.4L1762.6,398L1701.1,394L1708.3,470.3L1800.4,476.4L1867.7,541.2L1880.7,678.6L1825,735.7L1702.3,727.6L1635,662.4L1629.2,601.3L1721.3,607.4L1724.2,638.1L1785.7,642.1L1778.5,565.8L1686.4,559.8L1619.1,494.6L1606,357.2L1661.7,300.2L1784.5,308.3Z" style="fill:rgb(28,179,239);fill-rule:nonzero;"/>
                </g>
            </g>
            <g>
                <g>
                    <path d="M1489.7,610.5L1371.5,735.4L1339.6,399.5L1457.8,274.6L1489.7,610.5Z" style="fill:rgb(14,92,122);fill-rule:nonzero;"/>
                </g>
                <g>
                    <path d="M1584.7,647L1466.5,771.9L1410.8,828.9L1529,704L1584.7,647Z" style="fill:rgb(14,91,121);fill-rule:nonzero;"/>
                </g>
                <g>
                    <path d="M1338.9,630.8L1220.8,755.7L1186,389.4L1304.2,264.5L1338.9,630.8Z" style="fill:rgb(14,92,122);fill-rule:nonzero;"/>
                </g>
                <g>
                    <path d="M1406.2,695.9L1288.1,820.8L1220.8,755.7L1338.9,630.8L1406.2,695.9Z" style="fill:rgb(15,94,126);fill-rule:nonzero;"/>
                </g>
                <g>
                    <path d="M1529,704L1410.8,828.9L1288.1,820.8L1406.2,695.9L1529,704Z" style="fill:rgb(14,94,125);fill-rule:nonzero;"/>
                </g>
                <g>
                    <path d="M1549.9,280.7L1584.7,647L1529,704L1406.2,695.9L1338.9,630.8L1304.2,264.5L1396.3,270.5L1428.2,606.4L1489.7,610.5L1457.8,274.6L1549.9,280.7Z" style="fill:rgb(28,179,239);fill-rule:nonzero;"/>
                </g>
            </g>
            <g>
                <g>
                    <path d="M1171,340.7L1052.8,465.6L991.3,461.6L1109.5,336.6L1171,340.7Z" style="fill:rgb(14,94,125);fill-rule:nonzero;"/>
                </g>
                <g>
                    <path d="M1194.2,584.8L1076,709.7L1052.8,465.6L1171,340.7L1194.2,584.8Z" style="fill:rgb(14,92,122);fill-rule:nonzero;"/>
                </g>
                <g>
                    <path d="M1289.2,621.6L1171,746.5L1115.3,803.5L1233.5,678.6L1289.2,621.6Z" style="fill:rgb(14,91,121);fill-rule:nonzero;"/>
                </g>
                <g>
                    <path d="M1043.4,605.4L925.3,730.3L896.3,425.1L1014.5,300.2L1043.4,605.4Z" style="fill:rgb(14,92,122);fill-rule:nonzero;"/>
                </g>
                <g>
                    <path d="M1110.8,670.5L992.6,795.4L925.3,730.3L1043.4,605.4L1110.8,670.5Z" style="fill:rgb(15,94,126);fill-rule:nonzero;"/>
                </g>
                <g>
                    <path d="M1233.5,678.6L1115.3,803.5L992.6,795.4L1110.8,670.5L1233.5,678.6Z" style="fill:rgb(14,94,125);fill-rule:nonzero;"/>
                </g>
                <g>
                    <path d="M1192.9,251.2L1260.2,316.4L1289.2,621.6L1233.5,678.6L1110.8,670.5L1043.5,605.3L1014.5,300.1L1070.2,243.1L1192.9,251.2ZM1194.2,584.8L1171,340.7L1109.5,336.6L1132.7,580.7L1194.2,584.8" style="fill:rgb(28,179,239);fill-rule:nonzero;"/>
                </g>
            </g>
            <g>
                <g>
                    <path d="M833.4,371.5L715.3,496.4L762.3,347.9L880.4,223L833.4,371.5Z" style="fill:rgb(14,91,121);fill-rule:nonzero;"/>
                </g>
                <g>
                    <path d="M920.9,649.5L802.8,774.4L788.3,622.4L906.5,497.5L920.9,649.5Z" style="fill:rgb(14,92,122);fill-rule:nonzero;"/>
                </g>
                <g>
                    <path d="M1013.1,655.5L894.9,780.5L802.8,774.4L920.9,649.5L1013.1,655.5Z" style="fill:rgb(14,94,125);fill-rule:nonzero;"/>
                </g>
                <g>
                    <path d="M859.4,645.4L741.3,770.3L665.3,614.3L783.5,489.3L859.4,645.4Z" style="fill:rgb(14,93,124);fill-rule:nonzero;"/>
                </g>
                <g>
                    <path d="M705.8,635.3L587.6,760.2L547.2,333.7L665.3,208.8L705.8,635.3Z" style="fill:rgb(14,92,122);fill-rule:nonzero;"/>
                </g>
                <g>
                    <path d="M797.9,641.4L679.8,766.3L587.6,760.2L705.8,635.3L797.9,641.4Z" style="fill:rgb(14,94,125);fill-rule:nonzero;"/>
                </g>
                <g>
                    <path d="M972.6,229L1013.1,655.5L920.9,649.5L906.5,497.5L859.4,645.4L783.5,489.3L797.9,641.4L705.8,635.3L665.3,208.8L757.4,214.9L833.4,371.5L880.4,223L972.6,229Z" style="fill:rgb(28,179,239);fill-rule:nonzero;"/>
                </g>
            </g>
            <g>
                <g>
                    <path d="M543.1,469.3L424.9,594.3L389.5,460.1L507.7,335.2L543.1,469.3Z" style="fill:rgb(14,92,123);fill-rule:nonzero;"/>
                </g>
                <g>
                    <path d="M394,611.1L275.9,736.1L314.8,313.9L433,189L394,611.1Z" style="fill:rgb(14,91,122);fill-rule:nonzero;"/>
                </g>
                <g>
                    <path d="M366.6,293.9L248.4,418.8L125.4,410.7L243.6,285.8L366.6,293.9Z" style="fill:rgb(14,94,125);fill-rule:nonzero;"/>
                </g>
                <g>
                    <path d="M584,623.7L465.8,748.6L449.5,686.8L567.6,561.9L584,623.7Z" style="fill:rgb(14,92,123);fill-rule:nonzero;"/>
                </g>
                <g>
                    <path d="M676.1,629.7L557.9,754.7L465.8,748.6L584,623.7L676.1,629.7Z" style="fill:rgb(14,94,125);fill-rule:nonzero;"/>
                </g>
                <g>
                    <path d="M567.6,561.9L449.5,686.8L372.1,681.7L490.2,556.8L567.6,561.9Z" style="fill:rgb(14,94,125);fill-rule:nonzero;"/>
                </g>
                <g>
                    <path d="M382.5,461.7L264.4,586.6L141.3,578.5L259.5,453.6L382.5,461.7Z" style="fill:rgb(14,94,125);fill-rule:nonzero;"/>
                </g>
                <g>
                    <path d="M485.5,617.2L367.4,742.1L275.9,736.1L394,611.1L485.5,617.2Z" style="fill:rgb(14,94,125);fill-rule:nonzero;"/>
                </g>
                <g>
                    <path d="M555.7,197.1L676.1,629.7L584,623.6L567.7,561.8L490.3,556.7L485.6,617.1L394.1,611.1L433,189L555.7,197.1ZM497.8,466.3L543.1,469.3L507.7,335.2L497.8,466.3" style="fill:rgb(28,179,239);fill-rule:nonzero;"/>
                </g>
                <g>
                    <path d="M275.5,621.4L157.3,746.3L65.2,740.3L183.3,615.3L275.5,621.4Z" style="fill:rgb(14,94,125);fill-rule:nonzero;"/>
                </g>
                <g>
                    <path d="M357.9,202.1L366.6,293.9L243.6,285.8L250.8,362.1L373.8,370.2L382.5,461.7L259.5,453.6L275.5,621.4L183.3,615.3L142.8,187.9L357.9,202.1Z" style="fill:rgb(28,179,239);fill-rule:nonzero;"/>
                </g>
                <g>
                    <path d="M183.3,615.3L65.2,740.3L24.6,312.9L142.8,187.9L183.3,615.3Z" style="fill:rgb(14,92,122);fill-rule:nonzero;"/>
                </g>
            </g>
        </g>
    </g>
</svg>
