<?xml version="1.0" encoding="UTF-8" standalone="no"?>
<!DOCTYPE svg PUBLIC "-//W3C//DTD SVG 1.1//EN" "http://www.w3.org/Graphics/SVG/1.1/DTD/svg11.dtd">
<svg width="100%" height="100%" viewBox="0 0 600 300" version="1.1" xmlns="http://www.w3.org/2000/svg" xmlns:xlink="http://www.w3.org/1999/xlink" xml:space="preserve" xmlns:serif="http://www.serif.com/" style="fill-rule:evenodd;clip-rule:evenodd;stroke-linejoin:round;stroke-miterlimit:2;">
    <g id="Layer-6" serif:id="Layer 6" transform="matrix(0.650259,0,0,0.650259,246.469,74.2503)">
        <g transform="matrix(1,0,0,1,273.315,67.625)">
            <path d="M0,-23.316C-38.616,-52.463 -90.104,-37.161 -90.104,-37.161C-52.218,-45.905 -26.963,9.67 -22.584,17.489C-16.101,29.064 -4.851,29.147 -4.851,29.147C-9.225,19.674 -3.396,-0.484 -0.725,-9.228C1.946,-17.974 0,-23.316 0,-23.316" style="fill:rgb(171,68,68);fill-rule:nonzero;"/>
        </g>
        <g transform="matrix(1,0,0,1,119.14,81.47)">
            <path d="M0,-51.006C0,-51.006 -51.49,-66.308 -90.106,-37.161C-90.106,-37.161 -92.052,-31.819 -89.379,-23.073C-86.708,-14.329 -80.879,5.829 -85.253,15.302C-85.253,15.302 -74.435,15.219 -67.52,3.644C-62.92,-4.05 -37.891,-59.749 0,-51.006" style="fill:rgb(171,68,68);fill-rule:nonzero;"/>
        </g>
        <g transform="matrix(-0.998585,0.0531863,0.0531863,0.998585,150.79,230.064)">
            <path d="M-0.651,-17.836C14.545,-13.357 24.516,-17.899 24.516,-17.899C24.516,-17.899 19.034,-1.006 -0.651,-0.688C-20.336,-0.371 -25.428,-13.779 -25.428,-13.779C-14.195,-11.826 -0.651,-17.836 -0.651,-17.836" style="fill:rgb(171,68,68);fill-rule:nonzero;"/>
        </g>
        <g transform="matrix(1,0,0,1,178.127,65.4381)">
            <path d="M0,9.186L-12.342,0L-15.208,9.186L0,9.186Z" style="fill:rgb(171,68,68);fill-rule:nonzero;"/>
        </g>
        <g transform="matrix(1,0,0,1,155.852,49.8382)">
            <path d="M0,3.446L7.894,9.338L12.654,-5.892L0,3.446Z" style="fill:rgb(171,68,68);fill-rule:nonzero;"/>
        </g>
        <g transform="matrix(1,0,0,1,197.268,129.51)">
            <path d="M0,-16.622C-9.719,-14.921 -19.674,-18.323 -26.23,-22.935C-26.23,-22.935 -14.575,-37.024 -4.617,-37.994C5.342,-38.967 10.201,-32.654 12.388,-29.248C12.388,-29.251 9.712,-18.323 0,-16.622M-23.063,43.587C-23.429,46.138 -27.983,49.234 -29.44,49.419C-29.44,49.419 -30.531,42.312 -35.451,44.499C-40.368,46.686 -41.28,55.609 -36.908,56.702C-32.536,57.796 -38.729,63.809 -41.098,65.264C-43.464,66.724 -44.924,71.093 -44.924,73.28L-44.976,73.28C-44.976,71.093 -46.433,66.724 -48.802,65.264C-51.168,63.807 -57.363,57.794 -52.989,56.702C-48.617,55.611 -49.529,46.686 -54.449,44.499C-59.366,42.312 -60.457,49.419 -60.457,49.419C-61.917,49.234 -66.468,46.138 -66.834,43.587C-67.198,41.036 -68.655,32.841 -59.73,27.56C-50.802,22.279 -44.976,26.282 -44.976,26.282L-44.924,26.282C-44.924,26.282 -39.093,22.276 -30.17,27.56C-21.247,32.843 -22.699,41.036 -23.063,43.587M-91.504,-17.303C-101.221,-19.003 -103.892,-29.934 -103.892,-29.934C-101.708,-33.335 -96.852,-39.648 -86.894,-38.677C-76.934,-37.707 -65.276,-23.616 -65.276,-23.616C-71.83,-19.003 -81.79,-15.602 -91.504,-17.303M42.214,-54.653C42.214,-54.653 22.132,-102.445 -16.489,-96.616L-20.859,-91.273C-20.859,-91.273 -21.575,-91.426 -22.872,-91.644L-30.286,-67.925L-12.255,-54.509L-7.648,-51.07L-35.539,-51.07L-44.797,-21.451L-53.911,-51.07L-81.947,-51.07L-59.092,-67.925L-66.519,-92.067C-69.552,-91.652 -71.324,-91.273 -71.324,-91.273L-75.696,-96.616C-114.314,-102.445 -134.821,-51.923 -134.821,-51.923C-134.821,-51.923 -125.488,-34.922 -116.99,-28.366C-116.99,-28.366 -125.972,19.726 -93.183,47.17C-93.183,47.17 -88.324,66.844 -82.252,72.43C-76.261,77.944 -65.991,85.82 -46.091,77.598C-26.191,85.823 -15.926,77.947 -9.933,72.43C-3.861,66.844 1,47.17 1,47.17C33.787,19.726 24.805,-28.366 24.805,-28.366C33.305,-34.925 42.214,-54.653 42.214,-54.653" style="fill:rgb(171,68,68);fill-rule:nonzero;"/>
        </g>
        <g transform="matrix(0.804968,-0.593319,-0.593319,-0.804968,157.011,49.389)">
            <path d="M-4.407,1.365L18.413,1.365C15.085,4.564 9.737,9.292 2.963,13.853C-2.256,18.054 -7.3,21.307 -11.176,23.572L-4.407,1.365Z" style="fill:rgb(171,68,68);fill-rule:nonzero;"/>
        </g>
        <g transform="matrix(1,0,0,1,162.549,67.2592)">
            <path d="M0,-4.237L-9.904,-11.602L-19.939,-4.208L-16.376,7.365L-3.621,7.365L0,-4.237Z" style="fill:rgb(171,68,68);fill-rule:nonzero;"/>
        </g>
        <g transform="matrix(1,0,0,1,126.909,65.4451)">
            <path d="M0,9.179L15.281,9.179L12.458,0L0,9.179Z" style="fill:rgb(171,68,68);fill-rule:nonzero;"/>
        </g>
        <g transform="matrix(1,0,0,1,136.682,59.1911)">
            <path d="M0,-15.426L4.738,0L12.771,-5.913L0,-15.426Z" style="fill:rgb(171,68,68);fill-rule:nonzero;"/>
        </g>
        <g transform="matrix(1,0,0,1,157.732,95.1937)">
            <path d="M0,-16.754L-10.384,-16.754L-5.232,0L0,-16.754Z" style="fill:rgb(171,68,68);fill-rule:nonzero;"/>
        </g>
    </g>
    <g transform="matrix(0.354846,0,0,0.354846,-234.852,24.6233)">
        <path d="M721.311,489.545C709.302,489.545 698.976,486.588 690.333,480.675C681.78,474.67 675.23,466.345 670.681,455.701C666.132,445.056 663.857,432.638 663.857,418.445L663.857,415.579C663.857,399.748 666.132,385.874 670.681,373.956C675.23,362.037 681.826,352.803 690.469,346.252C699.112,339.611 709.484,336.29 721.584,336.29C730.318,336.29 738.006,337.928 744.647,341.203C751.38,344.387 757.112,349.027 761.843,355.123L761.843,294.94L739.598,291.119L739.598,273.787L788.727,273.787L788.727,465.663L810.972,469.484L810.972,486.679L765.391,486.679L763.207,469.075C758.385,475.807 752.472,480.902 745.466,484.359C738.552,487.817 730.5,489.545 721.311,489.545ZM728.135,467.71C736.141,467.71 742.873,465.891 748.332,462.251C753.791,458.612 758.294,453.472 761.843,446.83L761.843,378.323C758.385,372.136 753.882,367.223 748.332,363.584C742.782,359.945 736.141,358.125 728.408,358.125C719.855,358.125 712.805,360.582 707.255,365.495C701.705,370.316 697.565,377.049 694.836,385.692C692.107,394.244 690.742,404.206 690.742,415.579L690.742,418.445C690.742,433.274 693.79,445.193 699.885,454.2C705.981,463.207 715.397,467.71 728.135,467.71Z" style="fill:rgb(107,178,69);fill-rule:nonzero;"/>
        <path d="M881.629,489.545C866.254,489.545 854.563,485.815 846.557,478.355C838.55,470.803 834.547,460.204 834.547,446.557C834.547,432.547 840.279,421.311 851.743,412.849C863.206,404.297 879.127,400.021 899.507,400.021L925.845,400.021L925.845,385.556C925.845,376.64 923.116,369.725 917.657,364.812C912.29,359.899 904.693,357.443 894.867,357.443C888.68,357.443 883.312,358.216 878.764,359.763C874.215,361.218 870.075,363.266 866.345,365.904L863.479,386.511L842.736,386.511L842.736,352.666C849.377,347.299 857.11,343.25 865.935,340.521C874.76,337.7 884.541,336.29 895.276,336.29C913.199,336.29 927.256,340.566 937.445,349.118C947.635,357.67 952.73,369.907 952.73,385.828L952.73,462.524C952.821,464.344 952.957,466.164 953.139,467.983L967.469,469.484L967.469,486.679L928.848,486.679C928.029,482.676 927.392,479.083 926.937,475.898C926.482,472.714 926.164,469.53 925.982,466.345C920.796,472.987 914.291,478.537 906.467,482.995C898.734,487.362 890.454,489.545 881.629,489.545ZM885.587,467.028C894.503,467.028 902.646,464.89 910.015,460.614C917.384,456.338 922.661,451.197 925.845,445.193L925.845,418.445L898.552,418.445C886.178,418.445 876.898,421.402 870.712,427.315C864.525,433.229 861.432,439.825 861.432,447.103C861.432,453.563 863.433,458.521 867.437,461.978C871.44,465.345 877.49,467.028 885.587,467.028Z" style="fill:rgb(107,178,69);fill-rule:nonzero;"/>
        <path d="M992.682,486.679L992.682,469.484L1014.93,465.663L1014.93,360.172L992.682,356.351L992.682,339.019L1039.08,339.019L1040.86,358.262C1045.59,351.256 1051.68,345.843 1059.14,342.022C1066.6,338.201 1075.25,336.29 1085.07,336.29C1094.9,336.29 1103.31,338.565 1110.32,343.114C1117.41,347.663 1122.74,354.486 1126.29,363.584C1130.93,355.214 1137.07,348.572 1144.71,343.659C1152.35,338.747 1161.27,336.29 1171.46,336.29C1186.56,336.29 1198.48,341.476 1207.21,351.848C1215.95,362.128 1220.31,377.64 1220.31,398.384L1220.31,465.663L1242.56,469.484L1242.56,486.679L1171.05,486.679L1171.05,469.484L1193.29,465.663L1193.29,398.111C1193.29,383.554 1190.79,373.273 1185.79,367.269C1180.78,361.173 1173.37,358.125 1163.54,358.125C1154.17,358.125 1146.62,361.446 1140.89,368.087C1135.25,374.638 1131.97,382.917 1131.06,392.925L1131.06,465.663L1153.31,469.484L1153.31,486.679L1081.93,486.679L1081.93,469.484L1104.18,465.663L1104.18,398.111C1104.18,384.282 1101.59,374.183 1096.4,367.815C1091.3,361.355 1083.89,358.125 1074.15,358.125C1065.97,358.125 1059.23,359.808 1053.96,363.175C1048.68,366.541 1044.63,371.272 1041.81,377.367L1041.81,465.663L1064.06,469.484L1064.06,486.679L992.682,486.679Z" style="fill:rgb(107,178,69);fill-rule:nonzero;"/>
        <path d="M1266.82,486.679L1266.82,469.484L1289.06,465.663L1289.06,360.172L1266.82,356.351L1266.82,339.019L1313.08,339.019L1314.99,360.991C1319.9,353.167 1326.04,347.117 1333.41,342.841C1340.87,338.474 1349.33,336.29 1358.8,336.29C1374.72,336.29 1387.05,340.976 1395.78,350.346C1404.51,359.626 1408.88,374.001 1408.88,393.471L1408.88,465.663L1431.12,469.484L1431.12,486.679L1359.75,486.679L1359.75,469.484L1382,465.663L1382,394.017C1382,381.007 1379.4,371.772 1374.22,366.313C1369.12,360.855 1361.3,358.125 1350.75,358.125C1343.01,358.125 1336.14,359.99 1330.14,363.72C1324.22,367.451 1319.49,372.545 1315.94,379.005L1315.94,465.663L1338.19,469.484L1338.19,486.679L1266.82,486.679Z" style="fill:rgb(107,178,69);fill-rule:nonzero;"/>
    </g>
    <g transform="matrix(0.354846,0,0,0.354846,186.62,24.0191)">
        <path d="M721.311,489.545C709.302,489.545 698.976,486.588 690.333,480.675C681.78,474.67 675.23,466.345 670.681,455.701C666.132,445.056 663.857,432.638 663.857,418.445L663.857,415.579C663.857,399.748 666.132,385.874 670.681,373.956C675.23,362.037 681.826,352.803 690.469,346.252C699.112,339.611 709.484,336.29 721.584,336.29C730.318,336.29 738.006,337.928 744.647,341.203C751.38,344.387 757.112,349.027 761.843,355.123L761.843,294.94L739.598,291.119L739.598,273.787L788.727,273.787L788.727,465.663L810.972,469.484L810.972,486.679L765.391,486.679L763.207,469.075C758.385,475.807 752.472,480.902 745.466,484.359C738.552,487.817 730.5,489.545 721.311,489.545ZM728.135,467.71C736.141,467.71 742.873,465.891 748.332,462.251C753.791,458.612 758.294,453.472 761.843,446.83L761.843,378.323C758.385,372.136 753.882,367.223 748.332,363.584C742.782,359.945 736.141,358.125 728.408,358.125C719.855,358.125 712.805,360.582 707.255,365.495C701.705,370.316 697.565,377.049 694.836,385.692C692.107,394.244 690.742,404.206 690.742,415.579L690.742,418.445C690.742,433.274 693.79,445.193 699.885,454.2C705.981,463.207 715.397,467.71 728.135,467.71Z" style="fill:rgb(107,178,69);fill-rule:nonzero;"/>
    </g>
    <g transform="matrix(0.354846,0,0,0.354846,186.62,24.0191)">
        <path d="M899.916,489.545C886.269,489.545 874.487,486.361 864.571,479.992C854.745,473.533 847.148,464.662 841.78,453.381C836.412,442.008 833.729,429.044 833.729,414.487L833.729,411.485C833.729,396.928 836.412,384.009 841.78,372.727C847.148,361.355 854.745,352.439 864.571,345.979C874.487,339.52 886.178,336.29 899.643,336.29C913.29,336.29 925.027,339.52 934.852,345.979C944.769,352.439 952.412,361.309 957.779,372.591C963.147,383.872 965.831,396.837 965.831,411.485L965.831,414.487C965.831,429.135 963.147,442.145 957.779,453.517C952.412,464.799 944.815,473.624 934.989,479.992C925.163,486.361 913.472,489.545 899.916,489.545ZM899.916,468.529C908.468,468.529 915.61,466.209 921.342,461.569C927.165,456.838 931.532,450.424 934.443,442.327C937.445,434.139 938.947,424.859 938.947,414.487L938.947,411.485C938.947,401.113 937.445,391.879 934.443,383.781C931.532,375.593 927.165,369.179 921.342,364.539C915.519,359.808 908.286,357.443 899.643,357.443C891.091,357.443 883.904,359.808 878.081,364.539C872.258,369.179 867.891,375.593 864.98,383.781C862.069,391.879 860.613,401.113 860.613,411.485L860.613,414.487C860.613,424.859 862.069,434.139 864.98,442.327C867.891,450.424 872.258,456.838 878.081,461.569C883.995,466.209 891.273,468.529 899.916,468.529Z" style="fill:rgb(107,178,69);fill-rule:nonzero;"/>
    </g>
    <g transform="matrix(0.354846,0,0,0.354846,186.62,24.0191)">
        <path d="M1060.51,546.317C1053.41,546.317 1045.72,545.316 1037.44,543.314C1029.16,541.404 1021.89,538.765 1015.61,535.399L1022.57,514.519C1027.57,517.158 1033.49,519.341 1040.31,521.07C1047.13,522.798 1053.78,523.663 1060.24,523.663C1072.24,523.663 1081.02,520.296 1086.57,513.564C1092.21,506.831 1095.03,497.233 1095.03,484.769L1095.03,470.713C1090.21,476.899 1084.43,481.585 1077.7,484.769C1070.97,487.953 1063.24,489.545 1054.5,489.545C1042.49,489.545 1032.12,486.588 1023.39,480.675C1014.65,474.67 1007.92,466.345 1003.19,455.701C998.55,444.965 996.23,432.547 996.23,418.445L996.23,415.579C996.23,399.748 998.55,385.874 1003.19,373.956C1007.92,362.037 1014.65,352.803 1023.39,346.252C1032.12,339.611 1042.58,336.29 1054.78,336.29C1064.06,336.29 1072.2,338.11 1079.2,341.749C1086.21,345.388 1092.08,350.665 1096.81,357.579L1099.27,339.019L1121.92,339.019L1121.92,484.769C1121.92,497.506 1119.51,508.469 1114.69,517.658C1109.95,526.847 1103,533.898 1093.81,538.811C1084.71,543.815 1073.61,546.317 1060.51,546.317ZM1061.19,467.71C1069.29,467.71 1076.07,465.891 1081.52,462.251C1086.98,458.521 1091.49,453.29 1095.03,446.557L1095.03,378.596C1091.58,372.318 1087.07,367.36 1081.52,363.72C1075.97,359.99 1069.29,358.125 1061.46,358.125C1052.91,358.125 1045.77,360.582 1040.04,365.495C1034.4,370.407 1030.17,377.185 1027.35,385.828C1024.53,394.381 1023.12,404.297 1023.12,415.579L1023.12,418.445C1023.12,433.274 1026.25,445.193 1032.53,454.2C1038.81,463.207 1048.36,467.71 1061.19,467.71ZM1117.83,360.991L1107.32,339.019L1140.21,339.019L1140.21,356.215L1117.83,360.991Z" style="fill:rgb(107,178,69);fill-rule:nonzero;"/>
    </g>
</svg>
