<?xml version="1.0" encoding="UTF-8" standalone="no"?>
<!DOCTYPE svg PUBLIC "-//W3C//DTD SVG 1.1//EN" "http://www.w3.org/Graphics/SVG/1.1/DTD/svg11.dtd">
<svg width="100%" height="100%" viewBox="0 0 600 300" version="1.1" xmlns="http://www.w3.org/2000/svg" xmlns:xlink="http://www.w3.org/1999/xlink" xml:space="preserve" xmlns:serif="http://www.serif.com/" style="fill-rule:evenodd;clip-rule:evenodd;stroke-linejoin:round;stroke-miterlimit:2;">
    <g id="Dumb-Men" serif:id="Dumb Men" transform="matrix(0.734131,0,0,0.734131,80.8473,41.5817)">
        <g transform="matrix(1.40016,0,0,1.40016,81.1809,-35.7915)">
            <path d="M33.999,106.889C31.219,86.177 37.773,68.207 53.66,56.888C80.702,37.62 134.786,37.62 161.828,76.155C188.87,37.62 242.954,37.62 269.997,56.888C285.884,68.207 292.438,86.177 289.658,106.889L33.999,106.889ZM252.779,172.953C229.211,194.851 193.108,215.438 161.828,230.295C130.549,215.438 94.445,194.851 70.877,172.953L252.779,172.953Z" style="fill:rgb(251,0,255);"/>
        </g>
        <g transform="matrix(6.87312,0,0,6.87312,-265.889,-995.543)">
            <g transform="matrix(16.6667,0,0,16.6667,123.72,173.87)">
            </g>
            <text x="42.128px" y="173.87px" style="font-family:'LuckiestGuy-Regular', 'Luckiest Guy';font-size:16.667px;fill:rgb(251,0,255);">Dumb Men</text>
        </g>
    </g>
</svg>
