<?xml version="1.0" encoding="UTF-8" standalone="no"?>
<!DOCTYPE svg PUBLIC "-//W3C//DTD SVG 1.1//EN" "http://www.w3.org/Graphics/SVG/1.1/DTD/svg11.dtd">
<svg width="100%" height="100%" viewBox="0 0 600 300" version="1.1" xmlns="http://www.w3.org/2000/svg" xmlns:xlink="http://www.w3.org/1999/xlink" xml:space="preserve" xmlns:serif="http://www.serif.com/" style="fill-rule:evenodd;clip-rule:evenodd;stroke-linejoin:round;stroke-miterlimit:2;">
    <g id="Frank-West-pronounces-emoticons-for-you-" serif:id="Frank West pronounces emoticons for you!">
        <g transform="matrix(1,0,0,0.503326,5,138.403)">
            <path d="M25.47,120.605L33.02,49.676L48.57,49.676L47.52,59.511L37.62,59.511L35.27,81.564L44.52,81.564L43.42,91.3L34.22,91.3L31.12,120.605L25.47,120.605Z" style="fill:rgb(252,250,250);fill-rule:nonzero;"/>
            <path d="M45.62,120.605L51.37,66.763L55.67,66.763L55.22,75.703L55.42,75.703C56.02,73.518 56.653,71.697 57.32,70.24C57.987,68.783 58.72,67.69 59.52,66.962C60.32,66.167 61.22,65.769 62.22,65.769C62.553,65.769 62.903,65.836 63.27,65.968C63.637,66.034 64.003,66.2 64.37,66.465L62.87,77.69C62.537,77.491 62.187,77.326 61.82,77.193C61.487,77.061 61.12,76.995 60.72,76.995C59.82,76.995 59.003,77.458 58.27,78.386C57.57,79.313 56.937,80.571 56.37,82.16C55.803,83.75 55.32,85.571 54.92,87.624C54.553,89.611 54.237,91.697 53.97,93.882L51.17,120.605L45.62,120.605Z" style="fill:rgb(252,250,250);fill-rule:nonzero;"/>
            <path d="M69.62,121.598C68.42,121.598 67.37,120.969 66.47,119.711C65.57,118.452 64.87,116.598 64.37,114.148C63.87,111.697 63.62,108.684 63.62,105.108C63.62,101.929 63.77,98.551 64.07,94.975C64.37,91.399 64.82,87.889 65.42,84.445C66.053,81.001 66.82,77.889 67.72,75.107C68.653,72.26 69.72,70.008 70.92,68.352C72.153,66.63 73.52,65.769 75.02,65.769C75.887,65.769 76.653,66.067 77.32,66.663C78.02,67.26 78.62,68.154 79.12,69.346C79.62,70.538 80.02,71.995 80.32,73.717L80.47,73.717L81.72,66.763L86.32,66.763L80.52,120.605L76.12,120.605L76.42,113.154L76.27,113.154C75.67,114.81 75.037,116.267 74.37,117.525C73.703,118.783 72.97,119.777 72.17,120.505C71.403,121.234 70.553,121.598 69.62,121.598ZM71.77,112.36C72.77,112.36 73.67,111.532 74.47,109.876C75.27,108.154 75.953,105.969 76.52,103.32C77.087,100.671 77.537,97.988 77.87,95.273C78.203,92.624 78.437,90.339 78.57,88.419C78.703,86.432 78.77,84.545 78.77,82.756C78.77,80.439 78.503,78.617 77.97,77.293C77.47,75.902 76.787,75.207 75.92,75.207C75.12,75.207 74.37,75.836 73.67,77.094C73.003,78.352 72.387,80.041 71.82,82.16C71.287,84.213 70.82,86.531 70.42,89.114C70.053,91.697 69.77,94.28 69.57,96.863C69.37,99.445 69.27,101.863 69.27,104.114C69.27,106.896 69.47,108.982 69.87,110.373C70.303,111.697 70.937,112.36 71.77,112.36Z" style="fill:rgb(252,250,250);fill-rule:nonzero;"/>
            <path d="M86.57,120.605L92.32,66.763L96.72,66.763L96.32,74.611L96.47,74.611C97.037,72.823 97.653,71.266 98.32,69.942C99.02,68.617 99.77,67.591 100.57,66.862C101.403,66.134 102.303,65.769 103.27,65.769C104.37,65.769 105.353,66.2 106.22,67.061C107.087,67.922 107.753,69.246 108.22,71.034C108.72,72.823 108.97,75.107 108.97,77.889C108.97,79.147 108.903,80.571 108.77,82.16C108.67,83.75 108.537,85.405 108.37,87.127L104.77,120.605L99.27,120.605L102.72,88.319C102.853,86.862 102.97,85.439 103.07,84.048C103.203,82.591 103.27,81.333 103.27,80.273C103.27,78.684 103.087,77.491 102.72,76.697C102.387,75.836 101.837,75.405 101.07,75.405C100.137,75.405 99.287,76.167 98.52,77.69C97.753,79.147 97.07,81.266 96.47,84.048C95.903,86.763 95.403,90.008 94.97,93.783L92.12,120.605L86.57,120.605Z" style="fill:rgb(252,250,250);fill-rule:nonzero;"/>
            <path d="M110.77,120.605L118.87,45.107L124.37,45.107L120.77,78.684C120.57,80.67 120.32,82.657 120.02,84.644C119.753,86.631 119.503,88.518 119.27,90.306L119.37,90.306L128.92,66.763L135.07,66.763L125.57,89.512L129.92,120.605L123.92,120.605L120.97,97.757L118.12,103.022L116.32,120.605L110.77,120.605Z" style="fill:rgb(252,250,250);fill-rule:nonzero;"/>
            <path d="M146.87,120.605L147.17,49.676L152.67,49.676L152.27,89.611C152.237,92.326 152.187,94.909 152.12,97.359C152.053,99.81 151.97,101.995 151.87,103.916L151.97,103.916C152.403,101.664 152.853,99.313 153.32,96.863C153.82,94.346 154.287,91.929 154.72,89.611L163.07,49.676L168.07,49.676L167.77,89.015C167.77,90.803 167.753,92.558 167.72,94.28C167.687,95.935 167.653,97.591 167.62,99.247C167.587,100.836 167.537,102.392 167.47,103.916L167.62,103.916C167.887,102.26 168.17,100.604 168.47,98.949C168.77,97.293 169.07,95.671 169.37,94.081C169.703,92.425 170.02,90.803 170.32,89.213L178.22,49.676L183.97,49.676L169.42,120.605L162.92,120.605L163.22,82.458L163.22,78.386C163.253,77.061 163.287,75.77 163.32,74.511C163.353,73.187 163.37,71.895 163.37,70.637L163.27,70.637C162.97,72.425 162.653,74.213 162.32,76.001C162.02,77.789 161.67,79.611 161.27,81.465L153.27,120.605L146.87,120.605Z" style="fill:rgb(252,250,250);fill-rule:nonzero;"/>
            <path d="M189.62,121.598C187.853,121.598 186.337,120.903 185.07,119.512C183.803,118.121 182.82,116.068 182.12,113.353C181.453,110.638 181.12,107.359 181.12,103.518C181.12,98.684 181.403,94.015 181.97,89.512C182.57,85.008 183.437,81.001 184.57,77.491C185.703,73.915 187.07,71.101 188.67,69.048C190.27,66.928 192.103,65.869 194.17,65.869C196.337,65.869 198.02,66.995 199.22,69.246C200.453,71.432 201.07,74.478 201.07,78.386C201.07,81.432 200.77,84.147 200.17,86.531C199.57,88.849 198.687,90.836 197.52,92.492C196.387,94.147 194.97,95.406 193.27,96.267C191.57,97.128 189.637,97.558 187.47,97.558L186.87,97.558C186.77,98.419 186.703,99.28 186.67,100.141C186.637,101.002 186.62,101.863 186.62,102.724C186.62,106.101 186.97,108.618 187.67,110.273C188.37,111.929 189.437,112.757 190.87,112.757C191.97,112.757 192.987,112.492 193.92,111.962C194.853,111.366 195.92,110.439 197.12,109.181L197.12,117.823C195.953,119.148 194.77,120.108 193.57,120.704C192.37,121.3 191.053,121.598 189.62,121.598ZM187.97,89.611C189.803,89.611 191.303,89.18 192.47,88.319C193.637,87.392 194.503,86.167 195.07,84.644C195.637,83.054 195.92,81.233 195.92,79.18C195.92,77.657 195.72,76.498 195.32,75.703C194.92,74.842 194.32,74.412 193.52,74.412C192.72,74.412 191.937,75.041 191.17,76.299C190.403,77.558 189.703,79.313 189.07,81.564C188.47,83.816 187.987,86.498 187.62,89.611L187.97,89.611Z" style="fill:rgb(252,250,250);fill-rule:nonzero;"/>
            <path d="M208.42,121.598C206.953,121.598 205.67,121.333 204.57,120.803C203.503,120.274 202.57,119.578 201.77,118.717L201.77,108.485C202.603,109.611 203.57,110.538 204.67,111.267C205.803,111.995 206.887,112.36 207.92,112.36C208.72,112.36 209.437,112.095 210.07,111.565C210.703,111.035 211.187,110.24 211.52,109.181C211.853,108.121 212.02,106.863 212.02,105.406C212.02,104.346 211.937,103.386 211.77,102.525C211.603,101.598 211.287,100.637 210.82,99.644C210.387,98.651 209.737,97.459 208.87,96.068C207.937,94.611 207.17,93.187 206.57,91.796C206.003,90.339 205.57,88.816 205.27,87.227C205.003,85.637 204.87,83.915 204.87,82.061C204.87,78.882 205.203,76.068 205.87,73.617C206.57,71.167 207.553,69.246 208.82,67.856C210.12,66.465 211.687,65.769 213.52,65.769C214.953,65.769 216.287,66.134 217.52,66.862C218.787,67.591 219.903,68.584 220.87,69.842L218.77,78.187C218.003,77.061 217.17,76.2 216.27,75.604C215.403,75.008 214.553,74.71 213.72,74.71C212.753,74.71 211.97,75.24 211.37,76.299C210.77,77.359 210.47,78.783 210.47,80.571C210.47,81.564 210.553,82.492 210.72,83.352C210.887,84.147 211.17,85.008 211.57,85.935C212.003,86.796 212.62,87.856 213.42,89.114C214.353,90.571 215.137,91.995 215.77,93.386C216.437,94.776 216.937,96.333 217.27,98.055C217.603,99.71 217.77,101.73 217.77,104.114C217.77,107.624 217.403,110.704 216.67,113.353C215.937,115.936 214.87,117.956 213.47,119.413C212.07,120.87 210.387,121.598 208.42,121.598Z" style="fill:rgb(252,250,250);fill-rule:nonzero;"/>
            <path d="M227.77,121.598C226.037,121.598 224.737,120.704 223.87,118.916C223.003,117.062 222.57,114.346 222.57,110.77C222.57,109.777 222.603,108.717 222.67,107.591C222.737,106.399 222.837,105.075 222.97,103.618L225.97,75.703L223.12,75.703L223.67,70.041L227.32,66.763L229.92,55.041L233.67,55.041L232.42,66.763L237.32,66.763L236.37,75.703L231.47,75.703L228.42,104.412C228.353,105.207 228.287,105.969 228.22,106.697C228.153,107.426 228.12,108.088 228.12,108.684C228.12,109.81 228.253,110.671 228.52,111.267C228.787,111.863 229.22,112.161 229.82,112.161C230.22,112.161 230.67,112.062 231.17,111.863C231.67,111.664 232.187,111.366 232.72,110.969L232.72,119.611C232.053,120.207 231.253,120.671 230.32,121.002C229.42,121.399 228.57,121.598 227.77,121.598Z" style="fill:rgb(252,250,250);fill-rule:nonzero;"/>
            <path d="M243.42,144.049L251.67,66.763L256.07,66.763L255.67,74.71L255.87,74.71C256.503,72.789 257.153,71.167 257.82,69.842C258.52,68.518 259.27,67.524 260.07,66.862C260.87,66.134 261.72,65.769 262.62,65.769C263.82,65.769 264.853,66.365 265.72,67.558C266.62,68.75 267.32,70.571 267.82,73.021C268.353,75.472 268.62,78.584 268.62,82.359C268.62,85.604 268.453,89.048 268.12,92.69C267.787,96.267 267.303,99.777 266.67,103.22C266.07,106.598 265.303,109.677 264.37,112.459C263.47,115.24 262.42,117.459 261.22,119.115C260.02,120.77 258.67,121.598 257.17,121.598C256.303,121.598 255.537,121.267 254.87,120.605C254.203,120.009 253.637,119.148 253.17,118.022C252.703,116.83 252.32,115.472 252.02,113.949L251.87,113.949C251.737,115.803 251.603,117.624 251.47,119.413C251.337,121.201 251.187,122.823 251.02,124.28L248.92,144.049L243.42,144.049ZM256.32,112.26C257.12,112.26 257.853,111.631 258.52,110.373C259.22,109.048 259.837,107.359 260.37,105.306C260.937,103.187 261.403,100.869 261.77,98.353C262.17,95.77 262.47,93.187 262.67,90.604C262.87,87.955 262.97,85.472 262.97,83.154C262.97,80.372 262.753,78.319 262.32,76.995C261.887,75.67 261.253,75.008 260.42,75.008C259.72,75.008 259.053,75.505 258.42,76.498C257.787,77.425 257.203,78.717 256.67,80.372C256.17,82.028 255.72,83.915 255.32,86.035C254.92,88.088 254.57,90.24 254.27,92.492C254.003,94.677 253.803,96.796 253.67,98.849C253.537,100.902 253.47,102.757 253.47,104.412C253.47,106.929 253.703,108.883 254.17,110.273C254.67,111.598 255.387,112.26 256.32,112.26Z" style="fill:rgb(252,250,250);fill-rule:nonzero;"/>
            <path d="M270.07,120.605L275.82,66.763L280.12,66.763L279.67,75.703L279.87,75.703C280.47,73.518 281.103,71.697 281.77,70.24C282.437,68.783 283.17,67.69 283.97,66.962C284.77,66.167 285.67,65.769 286.67,65.769C287.003,65.769 287.353,65.836 287.72,65.968C288.087,66.034 288.453,66.2 288.82,66.465L287.32,77.69C286.987,77.491 286.637,77.326 286.27,77.193C285.937,77.061 285.57,76.995 285.17,76.995C284.27,76.995 283.453,77.458 282.72,78.386C282.02,79.313 281.387,80.571 280.82,82.16C280.253,83.75 279.77,85.571 279.37,87.624C279.003,89.611 278.687,91.697 278.42,93.882L275.62,120.605L270.07,120.605Z" style="fill:rgb(252,250,250);fill-rule:nonzero;"/>
            <path d="M296.17,121.598C294.503,121.598 293.053,120.903 291.82,119.512C290.62,118.055 289.687,115.969 289.02,113.254C288.387,110.538 288.07,107.26 288.07,103.419C288.07,100.439 288.22,97.227 288.52,93.783C288.853,90.339 289.337,86.995 289.97,83.75C290.603,80.439 291.42,77.458 292.42,74.809C293.42,72.094 294.62,69.942 296.02,68.352C297.42,66.697 299.037,65.869 300.87,65.869C302.537,65.869 303.953,66.597 305.12,68.054C306.32,69.511 307.237,71.597 307.87,74.313C308.537,77.028 308.87,80.306 308.87,84.147C308.87,87.458 308.703,90.869 308.37,94.379C308.07,97.823 307.587,101.167 306.92,104.412C306.253,107.657 305.42,110.571 304.42,113.154C303.42,115.737 302.237,117.79 300.87,119.313C299.503,120.836 297.937,121.598 296.17,121.598ZM296.72,112.36C297.52,112.36 298.253,111.763 298.92,110.571C299.62,109.379 300.237,107.79 300.77,105.803C301.303,103.75 301.753,101.498 302.12,99.048C302.52,96.598 302.803,94.081 302.97,91.498C303.17,88.849 303.27,86.333 303.27,83.949C303.27,82.16 303.17,80.604 302.97,79.28C302.77,77.889 302.453,76.829 302.02,76.101C301.587,75.372 301.003,75.008 300.27,75.008C299.37,75.008 298.57,75.67 297.87,76.995C297.17,78.253 296.553,79.942 296.02,82.061C295.52,84.18 295.087,86.531 294.72,89.114C294.353,91.631 294.07,94.147 293.87,96.664C293.703,99.181 293.62,101.465 293.62,103.518C293.62,106.366 293.887,108.552 294.42,110.075C294.953,111.598 295.72,112.36 296.72,112.36Z" style="fill:rgb(252,250,250);fill-rule:nonzero;"/>
            <path d="M310.47,120.605L316.22,66.763L320.62,66.763L320.22,74.611L320.37,74.611C320.937,72.823 321.553,71.266 322.22,69.942C322.92,68.617 323.67,67.591 324.47,66.862C325.303,66.134 326.203,65.769 327.17,65.769C328.27,65.769 329.253,66.2 330.12,67.061C330.987,67.922 331.653,69.246 332.12,71.034C332.62,72.823 332.87,75.107 332.87,77.889C332.87,79.147 332.803,80.571 332.67,82.16C332.57,83.75 332.437,85.405 332.27,87.127L328.67,120.605L323.17,120.605L326.62,88.319C326.753,86.862 326.87,85.439 326.97,84.048C327.103,82.591 327.17,81.333 327.17,80.273C327.17,78.684 326.987,77.491 326.62,76.697C326.287,75.836 325.737,75.405 324.97,75.405C324.037,75.405 323.187,76.167 322.42,77.69C321.653,79.147 320.97,81.266 320.37,84.048C319.803,86.763 319.303,90.008 318.87,93.783L316.02,120.605L310.47,120.605Z" style="fill:rgb(252,250,250);fill-rule:nonzero;"/>
            <path d="M344.07,121.598C342.403,121.598 340.953,120.903 339.72,119.512C338.52,118.055 337.587,115.969 336.92,113.254C336.287,110.538 335.97,107.26 335.97,103.419C335.97,100.439 336.12,97.227 336.42,93.783C336.753,90.339 337.237,86.995 337.87,83.75C338.503,80.439 339.32,77.458 340.32,74.809C341.32,72.094 342.52,69.942 343.92,68.352C345.32,66.697 346.937,65.869 348.77,65.869C350.437,65.869 351.853,66.597 353.02,68.054C354.22,69.511 355.137,71.597 355.77,74.313C356.437,77.028 356.77,80.306 356.77,84.147C356.77,87.458 356.603,90.869 356.27,94.379C355.97,97.823 355.487,101.167 354.82,104.412C354.153,107.657 353.32,110.571 352.32,113.154C351.32,115.737 350.137,117.79 348.77,119.313C347.403,120.836 345.837,121.598 344.07,121.598ZM344.62,112.36C345.42,112.36 346.153,111.763 346.82,110.571C347.52,109.379 348.137,107.79 348.67,105.803C349.203,103.75 349.653,101.498 350.02,99.048C350.42,96.598 350.703,94.081 350.87,91.498C351.07,88.849 351.17,86.333 351.17,83.949C351.17,82.16 351.07,80.604 350.87,79.28C350.67,77.889 350.353,76.829 349.92,76.101C349.487,75.372 348.903,75.008 348.17,75.008C347.27,75.008 346.47,75.67 345.77,76.995C345.07,78.253 344.453,79.942 343.92,82.061C343.42,84.18 342.987,86.531 342.62,89.114C342.253,91.631 341.97,94.147 341.77,96.664C341.603,99.181 341.52,101.465 341.52,103.518C341.52,106.366 341.787,108.552 342.32,110.075C342.853,111.598 343.62,112.36 344.62,112.36Z" style="fill:rgb(252,250,250);fill-rule:nonzero;"/>
            <path d="M365.52,121.598C364.287,121.598 363.253,121.134 362.42,120.207C361.587,119.214 360.953,117.823 360.52,116.035C360.087,114.181 359.87,111.962 359.87,109.379C359.87,108.187 359.92,106.797 360.02,105.207C360.12,103.618 360.237,102.061 360.37,100.538L364.02,66.763L369.52,66.763L366.02,99.545C365.853,100.936 365.72,102.26 365.62,103.518C365.553,104.777 365.52,105.936 365.52,106.995C365.52,108.585 365.687,109.843 366.02,110.77C366.387,111.631 366.937,112.062 367.67,112.062C368.637,112.062 369.503,111.333 370.27,109.876C371.037,108.353 371.72,106.2 372.32,103.419C372.92,100.637 373.42,97.326 373.82,93.485L376.72,66.763L382.17,66.763L376.47,120.605L372.07,120.605L372.42,112.956L372.22,112.956C371.687,114.677 371.07,116.201 370.37,117.525C369.703,118.783 368.953,119.777 368.12,120.505C367.32,121.234 366.453,121.598 365.52,121.598Z" style="fill:rgb(252,250,250);fill-rule:nonzero;"/>
            <path d="M382.57,120.605L388.32,66.763L392.72,66.763L392.32,74.611L392.47,74.611C393.037,72.823 393.653,71.266 394.32,69.942C395.02,68.617 395.77,67.591 396.57,66.862C397.403,66.134 398.303,65.769 399.27,65.769C400.37,65.769 401.353,66.2 402.22,67.061C403.087,67.922 403.753,69.246 404.22,71.034C404.72,72.823 404.97,75.107 404.97,77.889C404.97,79.147 404.903,80.571 404.77,82.16C404.67,83.75 404.537,85.405 404.37,87.127L400.77,120.605L395.27,120.605L398.72,88.319C398.853,86.862 398.97,85.439 399.07,84.048C399.203,82.591 399.27,81.333 399.27,80.273C399.27,78.684 399.087,77.491 398.72,76.697C398.387,75.836 397.837,75.405 397.07,75.405C396.137,75.405 395.287,76.167 394.52,77.69C393.753,79.147 393.07,81.266 392.47,84.048C391.903,86.763 391.403,90.008 390.97,93.783L388.12,120.605L382.57,120.605Z" style="fill:rgb(252,250,250);fill-rule:nonzero;"/>
            <path d="M415.97,121.598C414.37,121.598 412.97,120.936 411.77,119.611C410.603,118.287 409.703,116.333 409.07,113.75C408.437,111.101 408.12,107.823 408.12,103.916C408.12,100.538 408.27,97.061 408.57,93.485C408.903,89.909 409.403,86.465 410.07,83.154C410.737,79.842 411.57,76.895 412.57,74.313C413.603,71.73 414.82,69.677 416.22,68.154C417.62,66.564 419.203,65.769 420.97,65.769C422.137,65.769 423.203,66.034 424.17,66.564C425.137,67.028 426.053,67.789 426.92,68.849L424.87,77.591C424.303,76.862 423.687,76.299 423.02,75.902C422.387,75.438 421.72,75.207 421.02,75.207C419.82,75.207 418.753,76.101 417.82,77.889C416.92,79.677 416.17,81.995 415.57,84.843C414.97,87.624 414.52,90.604 414.22,93.783C413.92,96.962 413.77,99.975 413.77,102.823C413.77,104.876 413.887,106.631 414.12,108.088C414.387,109.479 414.77,110.538 415.27,111.267C415.803,111.929 416.453,112.26 417.22,112.26C418.02,112.26 418.837,111.962 419.67,111.366C420.537,110.704 421.437,109.843 422.37,108.783L422.37,118.121C421.537,119.115 420.57,119.942 419.47,120.605C418.37,121.267 417.203,121.598 415.97,121.598Z" style="fill:rgb(252,250,250);fill-rule:nonzero;"/>
            <path d="M435.67,121.598C433.903,121.598 432.387,120.903 431.12,119.512C429.853,118.121 428.87,116.068 428.17,113.353C427.503,110.638 427.17,107.359 427.17,103.518C427.17,98.684 427.453,94.015 428.02,89.512C428.62,85.008 429.487,81.001 430.62,77.491C431.753,73.915 433.12,71.101 434.72,69.048C436.32,66.928 438.153,65.869 440.22,65.869C442.387,65.869 444.07,66.995 445.27,69.246C446.503,71.432 447.12,74.478 447.12,78.386C447.12,81.432 446.82,84.147 446.22,86.531C445.62,88.849 444.737,90.836 443.57,92.492C442.437,94.147 441.02,95.406 439.32,96.267C437.62,97.128 435.687,97.558 433.52,97.558L432.92,97.558C432.82,98.419 432.753,99.28 432.72,100.141C432.687,101.002 432.67,101.863 432.67,102.724C432.67,106.101 433.02,108.618 433.72,110.273C434.42,111.929 435.487,112.757 436.92,112.757C438.02,112.757 439.037,112.492 439.97,111.962C440.903,111.366 441.97,110.439 443.17,109.181L443.17,117.823C442.003,119.148 440.82,120.108 439.62,120.704C438.42,121.3 437.103,121.598 435.67,121.598ZM434.02,89.611C435.853,89.611 437.353,89.18 438.52,88.319C439.687,87.392 440.553,86.167 441.12,84.644C441.687,83.054 441.97,81.233 441.97,79.18C441.97,77.657 441.77,76.498 441.37,75.703C440.97,74.842 440.37,74.412 439.57,74.412C438.77,74.412 437.987,75.041 437.22,76.299C436.453,77.558 435.753,79.313 435.12,81.564C434.52,83.816 434.037,86.498 433.67,89.611L434.02,89.611Z" style="fill:rgb(252,250,250);fill-rule:nonzero;"/>
            <path d="M454.47,121.598C453.003,121.598 451.72,121.333 450.62,120.803C449.553,120.274 448.62,119.578 447.82,118.717L447.82,108.485C448.653,109.611 449.62,110.538 450.72,111.267C451.853,111.995 452.937,112.36 453.97,112.36C454.77,112.36 455.487,112.095 456.12,111.565C456.753,111.035 457.237,110.24 457.57,109.181C457.903,108.121 458.07,106.863 458.07,105.406C458.07,104.346 457.987,103.386 457.82,102.525C457.653,101.598 457.337,100.637 456.87,99.644C456.437,98.651 455.787,97.459 454.92,96.068C453.987,94.611 453.22,93.187 452.62,91.796C452.053,90.339 451.62,88.816 451.32,87.227C451.053,85.637 450.92,83.915 450.92,82.061C450.92,78.882 451.253,76.068 451.92,73.617C452.62,71.167 453.603,69.246 454.87,67.856C456.17,66.465 457.737,65.769 459.57,65.769C461.003,65.769 462.337,66.134 463.57,66.862C464.837,67.591 465.953,68.584 466.92,69.842L464.82,78.187C464.053,77.061 463.22,76.2 462.32,75.604C461.453,75.008 460.603,74.71 459.77,74.71C458.803,74.71 458.02,75.24 457.42,76.299C456.82,77.359 456.52,78.783 456.52,80.571C456.52,81.564 456.603,82.492 456.77,83.352C456.937,84.147 457.22,85.008 457.62,85.935C458.053,86.796 458.67,87.856 459.47,89.114C460.403,90.571 461.187,91.995 461.82,93.386C462.487,94.776 462.987,96.333 463.32,98.055C463.653,99.71 463.82,101.73 463.82,104.114C463.82,107.624 463.453,110.704 462.72,113.353C461.987,115.936 460.92,117.956 459.52,119.413C458.12,120.87 456.437,121.598 454.47,121.598Z" style="fill:rgb(252,250,250);fill-rule:nonzero;"/>
            <path d="M34.97,237.494C33.203,237.494 31.687,236.798 30.42,235.408C29.153,234.017 28.17,231.964 27.47,229.249C26.803,226.533 26.47,223.255 26.47,219.414C26.47,214.58 26.753,209.911 27.32,205.407C27.92,200.904 28.787,196.897 29.92,193.387C31.053,189.811 32.42,186.996 34.02,184.943C35.62,182.824 37.453,181.765 39.52,181.765C41.687,181.765 43.37,182.89 44.57,185.142C45.803,187.328 46.42,190.374 46.42,194.281C46.42,197.328 46.12,200.043 45.52,202.427C44.92,204.745 44.037,206.732 42.87,208.387C41.737,210.043 40.32,211.301 38.62,212.162C36.92,213.023 34.987,213.454 32.82,213.454L32.22,213.454C32.12,214.315 32.053,215.176 32.02,216.037C31.987,216.897 31.97,217.758 31.97,218.619C31.97,221.997 32.32,224.513 33.02,226.169C33.72,227.825 34.787,228.653 36.22,228.653C37.32,228.653 38.337,228.388 39.27,227.858C40.203,227.262 41.27,226.335 42.47,225.076L42.47,233.719C41.303,235.043 40.12,236.004 38.92,236.6C37.72,237.196 36.403,237.494 34.97,237.494ZM33.32,205.507C35.153,205.507 36.653,205.076 37.82,204.215C38.987,203.288 39.853,202.063 40.42,200.54C40.987,198.95 41.27,197.129 41.27,195.076C41.27,193.553 41.07,192.394 40.67,191.599C40.27,190.738 39.67,190.308 38.87,190.308C38.07,190.308 37.287,190.937 36.52,192.195C35.753,193.453 35.053,195.208 34.42,197.46C33.82,199.712 33.337,202.394 32.97,205.507L33.32,205.507Z" style="fill:rgb(252,250,250);fill-rule:nonzero;"/>
            <path d="M47.42,236.5L53.17,182.659L57.57,182.659L57.17,190.407L57.37,190.407C57.903,188.619 58.503,187.096 59.17,185.837C59.87,184.513 60.62,183.486 61.42,182.758C62.253,182.029 63.137,181.665 64.07,181.665C65.57,181.665 66.753,182.361 67.62,183.751C68.487,185.142 69.053,187.195 69.32,189.91L69.47,189.91C70.037,188.255 70.67,186.831 71.37,185.639C72.07,184.38 72.837,183.42 73.67,182.758C74.537,182.029 75.437,181.665 76.37,181.665C78.103,181.665 79.437,182.725 80.37,184.844C81.303,186.897 81.77,189.811 81.77,193.586C81.77,194.712 81.72,195.97 81.62,197.361C81.553,198.685 81.437,200.076 81.27,201.533L77.57,236.5L72.07,236.5L75.62,203.023C75.787,201.699 75.903,200.473 75.97,199.348C76.037,198.222 76.07,197.261 76.07,196.467C76.07,194.745 75.887,193.453 75.52,192.592C75.187,191.732 74.67,191.301 73.97,191.301C73.27,191.301 72.637,191.732 72.07,192.592C71.503,193.387 70.987,194.513 70.52,195.97C70.087,197.361 69.687,198.983 69.32,200.838C68.987,202.692 68.72,204.646 68.52,206.699L65.32,236.5L59.82,236.5L63.42,202.626C63.553,201.367 63.653,200.208 63.72,199.149C63.82,198.089 63.87,197.162 63.87,196.367C63.87,194.645 63.687,193.387 63.32,192.592C62.987,191.732 62.47,191.301 61.77,191.301C61.037,191.301 60.353,191.798 59.72,192.791C59.12,193.718 58.57,195.01 58.07,196.665C57.57,198.321 57.137,200.242 56.77,202.427C56.403,204.613 56.103,206.93 55.87,209.381L52.97,236.5L47.42,236.5Z" style="fill:rgb(252,250,250);fill-rule:nonzero;"/>
            <path d="M92.92,237.494C91.253,237.494 89.803,236.798 88.57,235.408C87.37,233.951 86.437,231.865 85.77,229.149C85.137,226.434 84.82,223.156 84.82,219.315C84.82,216.335 84.97,213.123 85.27,209.679C85.603,206.235 86.087,202.891 86.72,199.646C87.353,196.334 88.17,193.354 89.17,190.705C90.17,187.99 91.37,185.837 92.77,184.248C94.17,182.592 95.787,181.765 97.62,181.765C99.287,181.765 100.703,182.493 101.87,183.95C103.07,185.407 103.987,187.493 104.62,190.208C105.287,192.924 105.62,196.202 105.62,200.043C105.62,203.354 105.453,206.765 105.12,210.275C104.82,213.719 104.337,217.063 103.67,220.308C103.003,223.553 102.17,226.467 101.17,229.05C100.17,231.633 98.987,233.686 97.62,235.209C96.253,236.732 94.687,237.494 92.92,237.494ZM93.47,228.255C94.27,228.255 95.003,227.659 95.67,226.467C96.37,225.275 96.987,223.686 97.52,221.699C98.053,219.646 98.503,217.394 98.87,214.944C99.27,212.493 99.553,209.977 99.72,207.394C99.92,204.745 100.02,202.228 100.02,199.844C100.02,198.056 99.92,196.5 99.72,195.175C99.52,193.785 99.203,192.725 98.77,191.996C98.337,191.268 97.753,190.904 97.02,190.904C96.12,190.904 95.32,191.566 94.62,192.891C93.92,194.149 93.303,195.838 92.77,197.957C92.27,200.076 91.837,202.427 91.47,205.01C91.103,207.526 90.82,210.043 90.62,212.56C90.453,215.076 90.37,217.361 90.37,219.414C90.37,222.262 90.637,224.447 91.17,225.97C91.703,227.494 92.47,228.255 93.47,228.255Z" style="fill:rgb(252,250,250);fill-rule:nonzero;"/>
            <path d="M114.17,237.494C112.437,237.494 111.137,236.6 110.27,234.812C109.403,232.957 108.97,230.242 108.97,226.666C108.97,225.672 109.003,224.613 109.07,223.487C109.137,222.295 109.237,220.97 109.37,219.513L112.37,191.599L109.52,191.599L110.07,185.937L113.72,182.659L116.32,170.937L120.07,170.937L118.82,182.659L123.72,182.659L122.77,191.599L117.87,191.599L114.82,220.308C114.753,221.103 114.687,221.864 114.62,222.593C114.553,223.321 114.52,223.984 114.52,224.58C114.52,225.706 114.653,226.566 114.92,227.163C115.187,227.759 115.62,228.057 116.22,228.057C116.62,228.057 117.07,227.957 117.57,227.759C118.07,227.56 118.587,227.262 119.12,226.865L119.12,235.507C118.453,236.103 117.653,236.567 116.72,236.898C115.82,237.295 114.97,237.494 114.17,237.494Z" style="fill:rgb(252,250,250);fill-rule:nonzero;"/>
            <path d="M122.47,236.5L128.22,182.659L133.72,182.659L127.97,236.5L122.47,236.5ZM132.02,175.009C131.187,175.009 130.52,174.612 130.02,173.817C129.553,172.956 129.32,171.731 129.32,170.142C129.32,168.751 129.453,167.427 129.72,166.168C129.987,164.91 130.387,163.917 130.92,163.188C131.487,162.393 132.17,161.996 132.97,161.996C133.803,161.996 134.453,162.393 134.92,163.188C135.42,163.917 135.67,165.109 135.67,166.764C135.67,169.082 135.337,171.036 134.67,172.625C134.037,174.215 133.153,175.009 132.02,175.009Z" style="fill:rgb(252,250,250);fill-rule:nonzero;"/>
            <path d="M143.27,237.494C141.67,237.494 140.27,236.832 139.07,235.507C137.903,234.183 137.003,232.229 136.37,229.646C135.737,226.997 135.42,223.719 135.42,219.811C135.42,216.434 135.57,212.957 135.87,209.381C136.203,205.805 136.703,202.361 137.37,199.05C138.037,195.738 138.87,192.791 139.87,190.208C140.903,187.626 142.12,185.573 143.52,184.049C144.92,182.46 146.503,181.665 148.27,181.665C149.437,181.665 150.503,181.93 151.47,182.46C152.437,182.923 153.353,183.685 154.22,184.745L152.17,193.487C151.603,192.758 150.987,192.195 150.32,191.798C149.687,191.334 149.02,191.102 148.32,191.102C147.12,191.102 146.053,191.996 145.12,193.785C144.22,195.573 143.47,197.891 142.87,200.738C142.27,203.52 141.82,206.5 141.52,209.679C141.22,212.858 141.07,215.871 141.07,218.719C141.07,220.772 141.187,222.527 141.42,223.984C141.687,225.374 142.07,226.434 142.57,227.163C143.103,227.825 143.753,228.156 144.52,228.156C145.32,228.156 146.137,227.858 146.97,227.262C147.837,226.6 148.737,225.739 149.67,224.679L149.67,234.017C148.837,235.01 147.87,235.838 146.77,236.5C145.67,237.163 144.503,237.494 143.27,237.494Z" style="fill:rgb(252,250,250);fill-rule:nonzero;"/>
            <path d="M162.57,237.494C160.903,237.494 159.453,236.798 158.22,235.408C157.02,233.951 156.087,231.865 155.42,229.149C154.787,226.434 154.47,223.156 154.47,219.315C154.47,216.335 154.62,213.123 154.92,209.679C155.253,206.235 155.737,202.891 156.37,199.646C157.003,196.334 157.82,193.354 158.82,190.705C159.82,187.99 161.02,185.837 162.42,184.248C163.82,182.592 165.437,181.765 167.27,181.765C168.937,181.765 170.353,182.493 171.52,183.95C172.72,185.407 173.637,187.493 174.27,190.208C174.937,192.924 175.27,196.202 175.27,200.043C175.27,203.354 175.103,206.765 174.77,210.275C174.47,213.719 173.987,217.063 173.32,220.308C172.653,223.553 171.82,226.467 170.82,229.05C169.82,231.633 168.637,233.686 167.27,235.209C165.903,236.732 164.337,237.494 162.57,237.494ZM163.12,228.255C163.92,228.255 164.653,227.659 165.32,226.467C166.02,225.275 166.637,223.686 167.17,221.699C167.703,219.646 168.153,217.394 168.52,214.944C168.92,212.493 169.203,209.977 169.37,207.394C169.57,204.745 169.67,202.228 169.67,199.844C169.67,198.056 169.57,196.5 169.37,195.175C169.17,193.785 168.853,192.725 168.42,191.996C167.987,191.268 167.403,190.904 166.67,190.904C165.77,190.904 164.97,191.566 164.27,192.891C163.57,194.149 162.953,195.838 162.42,197.957C161.92,200.076 161.487,202.427 161.12,205.01C160.753,207.526 160.47,210.043 160.27,212.56C160.103,215.076 160.02,217.361 160.02,219.414C160.02,222.262 160.287,224.447 160.82,225.97C161.353,227.494 162.12,228.255 163.12,228.255Z" style="fill:rgb(252,250,250);fill-rule:nonzero;"/>
            <path d="M176.87,236.5L182.62,182.659L187.02,182.659L186.62,190.506L186.77,190.506C187.337,188.718 187.953,187.162 188.62,185.837C189.32,184.513 190.07,183.486 190.87,182.758C191.703,182.029 192.603,181.665 193.57,181.665C194.67,181.665 195.653,182.096 196.52,182.957C197.387,183.818 198.053,185.142 198.52,186.93C199.02,188.718 199.27,191.003 199.27,193.785C199.27,195.043 199.203,196.467 199.07,198.056C198.97,199.646 198.837,201.301 198.67,203.023L195.07,236.5L189.57,236.5L193.02,204.215C193.153,202.758 193.27,201.334 193.37,199.944C193.503,198.487 193.57,197.228 193.57,196.169C193.57,194.579 193.387,193.387 193.02,192.592C192.687,191.732 192.137,191.301 191.37,191.301C190.437,191.301 189.587,192.063 188.82,193.586C188.053,195.043 187.37,197.162 186.77,199.944C186.203,202.659 185.703,205.904 185.27,209.679L182.42,236.5L176.87,236.5Z" style="fill:rgb(252,250,250);fill-rule:nonzero;"/>
            <path d="M207.42,237.494C205.953,237.494 204.67,237.229 203.57,236.699C202.503,236.169 201.57,235.474 200.77,234.613L200.77,224.381C201.603,225.507 202.57,226.434 203.67,227.163C204.803,227.891 205.887,228.255 206.92,228.255C207.72,228.255 208.437,227.99 209.07,227.461C209.703,226.931 210.187,226.136 210.52,225.076C210.853,224.017 211.02,222.758 211.02,221.302C211.02,220.242 210.937,219.282 210.77,218.421C210.603,217.494 210.287,216.533 209.82,215.54C209.387,214.546 208.737,213.354 207.87,211.964C206.937,210.507 206.17,209.083 205.57,207.692C205.003,206.235 204.57,204.712 204.27,203.122C204.003,201.533 203.87,199.811 203.87,197.957C203.87,194.778 204.203,191.963 204.87,189.513C205.57,187.063 206.553,185.142 207.82,183.751C209.12,182.361 210.687,181.665 212.52,181.665C213.953,181.665 215.287,182.029 216.52,182.758C217.787,183.486 218.903,184.48 219.87,185.738L217.77,194.083C217.003,192.957 216.17,192.096 215.27,191.5C214.403,190.904 213.553,190.606 212.72,190.606C211.753,190.606 210.97,191.136 210.37,192.195C209.77,193.255 209.47,194.679 209.47,196.467C209.47,197.46 209.553,198.387 209.72,199.248C209.887,200.043 210.17,200.904 210.57,201.831C211.003,202.692 211.62,203.752 212.42,205.01C213.353,206.467 214.137,207.891 214.77,209.281C215.437,210.672 215.937,212.229 216.27,213.95C216.603,215.606 216.77,217.626 216.77,220.01C216.77,223.52 216.403,226.6 215.67,229.249C214.937,231.831 213.87,233.851 212.47,235.308C211.07,236.765 209.387,237.494 207.42,237.494Z" style="fill:rgb(252,250,250);fill-rule:nonzero;"/>
            <path d="M226.92,260.342C226.353,260.342 225.803,260.276 225.27,260.143C224.737,260.011 224.22,259.779 223.72,259.448L223.72,250.011C224.087,250.275 224.487,250.474 224.92,250.607C225.353,250.805 225.753,250.905 226.12,250.905C227.287,250.905 228.12,250.044 228.62,248.322C229.087,246.6 229.487,244.216 229.82,241.169L235.12,191.599L231.87,191.599L232.47,185.937L236.07,182.659L236.62,177.99C236.92,175.274 237.27,172.857 237.67,170.738C238.07,168.552 238.587,166.731 239.22,165.274C239.853,163.751 240.62,162.592 241.52,161.797C242.42,160.936 243.52,160.506 244.82,160.506C245.653,160.506 246.47,160.671 247.27,161.003C248.07,161.334 248.82,161.83 249.52,162.493L247.72,170.937C247.353,170.605 246.953,170.341 246.52,170.142C246.12,169.877 245.72,169.744 245.32,169.744C244.42,169.744 243.72,170.473 243.22,171.93C242.753,173.387 242.37,175.473 242.07,178.188L241.57,182.659L245.87,182.659L244.97,191.599L240.62,191.599L235.17,242.262C234.803,245.772 234.303,248.885 233.67,251.6C233.07,254.315 232.237,256.434 231.17,257.958C230.103,259.547 228.687,260.342 226.92,260.342Z" style="fill:rgb(252,250,250);fill-rule:nonzero;"/>
            <path d="M253.32,237.494C251.653,237.494 250.203,236.798 248.97,235.408C247.77,233.951 246.837,231.865 246.17,229.149C245.537,226.434 245.22,223.156 245.22,219.315C245.22,216.335 245.37,213.123 245.67,209.679C246.003,206.235 246.487,202.891 247.12,199.646C247.753,196.334 248.57,193.354 249.57,190.705C250.57,187.99 251.77,185.837 253.17,184.248C254.57,182.592 256.187,181.765 258.02,181.765C259.687,181.765 261.103,182.493 262.27,183.95C263.47,185.407 264.387,187.493 265.02,190.208C265.687,192.924 266.02,196.202 266.02,200.043C266.02,203.354 265.853,206.765 265.52,210.275C265.22,213.719 264.737,217.063 264.07,220.308C263.403,223.553 262.57,226.467 261.57,229.05C260.57,231.633 259.387,233.686 258.02,235.209C256.653,236.732 255.087,237.494 253.32,237.494ZM253.87,228.255C254.67,228.255 255.403,227.659 256.07,226.467C256.77,225.275 257.387,223.686 257.92,221.699C258.453,219.646 258.903,217.394 259.27,214.944C259.67,212.493 259.953,209.977 260.12,207.394C260.32,204.745 260.42,202.228 260.42,199.844C260.42,198.056 260.32,196.5 260.12,195.175C259.92,193.785 259.603,192.725 259.17,191.996C258.737,191.268 258.153,190.904 257.42,190.904C256.52,190.904 255.72,191.566 255.02,192.891C254.32,194.149 253.703,195.838 253.17,197.957C252.67,200.076 252.237,202.427 251.87,205.01C251.503,207.526 251.22,210.043 251.02,212.56C250.853,215.076 250.77,217.361 250.77,219.414C250.77,222.262 251.037,224.447 251.57,225.97C252.103,227.494 252.87,228.255 253.87,228.255Z" style="fill:rgb(252,250,250);fill-rule:nonzero;"/>
            <path d="M267.62,236.5L273.37,182.659L277.67,182.659L277.22,191.599L277.42,191.599C278.02,189.414 278.653,187.592 279.32,186.135C279.987,184.678 280.72,183.586 281.52,182.857C282.32,182.063 283.22,181.665 284.22,181.665C284.553,181.665 284.903,181.731 285.27,181.864C285.637,181.93 286.003,182.096 286.37,182.361L284.87,193.586C284.537,193.387 284.187,193.222 283.82,193.089C283.487,192.957 283.12,192.891 282.72,192.891C281.82,192.891 281.003,193.354 280.27,194.281C279.57,195.208 278.937,196.467 278.37,198.056C277.803,199.646 277.32,201.467 276.92,203.52C276.553,205.507 276.237,207.593 275.97,209.778L273.17,236.5L267.62,236.5Z" style="fill:rgb(252,250,250);fill-rule:nonzero;"/>
            <path d="M293.12,260.342C292.453,260.342 291.87,260.242 291.37,260.044C290.837,259.911 290.37,259.713 289.97,259.448L290.52,250.011C290.887,250.209 291.27,250.375 291.67,250.507C292.037,250.706 292.437,250.805 292.87,250.805C293.937,250.805 294.803,250.11 295.47,248.719C296.137,247.328 296.753,245.375 297.32,242.858L298.92,236.202L297.02,182.659L302.52,182.659L302.97,209.281C303.003,210.606 303.02,212.03 303.02,213.553C303.053,215.01 303.053,216.467 303.02,217.924C303.02,219.315 303.003,220.639 302.97,221.898L303.17,221.898C303.37,220.705 303.587,219.414 303.82,218.023C304.087,216.633 304.353,215.275 304.62,213.95C304.887,212.56 305.137,211.334 305.37,210.275L311.57,182.659L317.37,182.659L302.42,245.242C301.687,248.355 300.887,251.037 300.02,253.289C299.153,255.607 298.17,257.362 297.07,258.554C295.97,259.746 294.653,260.342 293.12,260.342Z" style="fill:rgb(252,250,250);fill-rule:nonzero;"/>
            <path d="M324.32,237.494C322.653,237.494 321.203,236.798 319.97,235.408C318.77,233.951 317.837,231.865 317.17,229.149C316.537,226.434 316.22,223.156 316.22,219.315C316.22,216.335 316.37,213.123 316.67,209.679C317.003,206.235 317.487,202.891 318.12,199.646C318.753,196.334 319.57,193.354 320.57,190.705C321.57,187.99 322.77,185.837 324.17,184.248C325.57,182.592 327.187,181.765 329.02,181.765C330.687,181.765 332.103,182.493 333.27,183.95C334.47,185.407 335.387,187.493 336.02,190.208C336.687,192.924 337.02,196.202 337.02,200.043C337.02,203.354 336.853,206.765 336.52,210.275C336.22,213.719 335.737,217.063 335.07,220.308C334.403,223.553 333.57,226.467 332.57,229.05C331.57,231.633 330.387,233.686 329.02,235.209C327.653,236.732 326.087,237.494 324.32,237.494ZM324.87,228.255C325.67,228.255 326.403,227.659 327.07,226.467C327.77,225.275 328.387,223.686 328.92,221.699C329.453,219.646 329.903,217.394 330.27,214.944C330.67,212.493 330.953,209.977 331.12,207.394C331.32,204.745 331.42,202.228 331.42,199.844C331.42,198.056 331.32,196.5 331.12,195.175C330.92,193.785 330.603,192.725 330.17,191.996C329.737,191.268 329.153,190.904 328.42,190.904C327.52,190.904 326.72,191.566 326.02,192.891C325.32,194.149 324.703,195.838 324.17,197.957C323.67,200.076 323.237,202.427 322.87,205.01C322.503,207.526 322.22,210.043 322.02,212.56C321.853,215.076 321.77,217.361 321.77,219.414C321.77,222.262 322.037,224.447 322.57,225.97C323.103,227.494 323.87,228.255 324.87,228.255Z" style="fill:rgb(252,250,250);fill-rule:nonzero;"/>
            <path d="M345.77,237.494C344.537,237.494 343.503,237.03 342.67,236.103C341.837,235.11 341.203,233.719 340.77,231.931C340.337,230.076 340.12,227.858 340.12,225.275C340.12,224.083 340.17,222.692 340.27,221.103C340.37,219.513 340.487,217.957 340.62,216.434L344.27,182.659L349.77,182.659L346.27,215.441C346.103,216.831 345.97,218.156 345.87,219.414C345.803,220.672 345.77,221.831 345.77,222.891C345.77,224.48 345.937,225.739 346.27,226.666C346.637,227.527 347.187,227.957 347.92,227.957C348.887,227.957 349.753,227.229 350.52,225.772C351.287,224.249 351.97,222.096 352.57,219.315C353.17,216.533 353.67,213.222 354.07,209.381L356.97,182.659L362.42,182.659L356.72,236.5L352.32,236.5L352.67,228.851L352.47,228.851C351.937,230.573 351.32,232.096 350.62,233.421C349.953,234.679 349.203,235.673 348.37,236.401C347.57,237.13 346.703,237.494 345.77,237.494Z" style="fill:rgb(252,250,250);fill-rule:nonzero;"/>
            <path d="M365.82,214.844L370.27,165.572L376.67,165.572L370.47,214.844L365.82,214.844ZM365.92,237.494C364.987,237.494 364.27,237.03 363.77,236.103C363.303,235.11 363.07,233.785 363.07,232.129C363.07,229.745 363.42,227.626 364.12,225.772C364.82,223.917 365.87,222.99 367.27,222.99C368.103,222.99 368.753,223.487 369.22,224.48C369.72,225.408 369.97,226.732 369.97,228.454C369.97,231.037 369.587,233.189 368.82,234.911C368.053,236.633 367.087,237.494 365.92,237.494Z" style="fill:rgb(252,250,250);fill-rule:nonzero;"/>
        </g>
        <g transform="matrix(0.803096,0,0,0.471886,63.2382,3.90191)">
            <path d="M247.77,53.276C253.37,53.276 258.348,54.789 262.703,57.814C267.059,60.689 270.481,65 272.97,70.749C275.548,76.497 276.837,83.683 276.837,92.306C276.837,98.811 276.037,104.484 274.437,109.325C272.837,114.166 270.703,118.477 268.037,122.259C265.37,125.89 262.392,129.067 259.103,131.79C262.837,134.966 266.259,138.597 269.37,142.682C272.57,146.615 275.103,151.229 276.97,156.524C278.925,161.818 279.903,168.172 279.903,175.585C279.903,184.662 278.57,192.528 275.903,199.184C273.325,205.689 269.637,210.757 264.837,214.388C260.037,218.019 254.437,219.834 248.037,219.834C241.192,219.834 235.325,218.094 230.437,214.615C225.637,211.135 221.992,206.219 219.503,199.865C217.014,193.36 215.77,185.494 215.77,176.266C215.77,168.853 216.659,162.424 218.437,156.978C220.214,151.532 222.57,146.842 225.503,142.909C228.437,138.975 231.637,135.647 235.103,132.924C232.081,129.899 229.325,126.495 226.837,122.713C224.348,118.78 222.392,114.317 220.97,109.325C219.548,104.333 218.837,98.584 218.837,92.079C218.837,83.607 220.125,76.573 222.703,70.976C225.281,65.227 228.748,60.84 233.103,57.814C237.548,54.789 242.437,53.276 247.77,53.276ZM229.37,175.812C229.37,183.224 230.881,189.351 233.903,194.192C236.925,198.882 241.548,201.227 247.77,201.227C253.814,201.227 258.392,198.882 261.503,194.192C264.703,189.351 266.303,183.149 266.303,175.585C266.303,170.593 265.503,166.206 263.903,162.424C262.392,158.642 260.259,155.314 257.503,152.439C254.837,149.414 251.725,146.691 248.17,144.27L246.17,142.909C242.525,145.48 239.459,148.355 236.97,151.532C234.481,154.708 232.57,158.263 231.237,162.197C229.992,166.13 229.37,170.668 229.37,175.812ZM247.637,72.11C243.281,72.11 239.637,73.925 236.703,77.556C233.859,81.187 232.437,86.482 232.437,93.44C232.437,98.433 233.148,102.668 234.57,106.148C235.992,109.627 237.903,112.653 240.303,115.225C242.703,117.645 245.325,119.99 248.17,122.259C251.014,120.141 253.548,117.872 255.77,115.452C257.992,112.88 259.77,109.854 261.103,106.375C262.437,102.744 263.103,98.433 263.103,93.44C263.103,86.482 261.681,81.187 258.837,77.556C255.992,73.925 252.259,72.11 247.637,72.11Z" style="fill:rgb(255,103,12);fill-rule:nonzero;"/>
            <path d="M375.77,134.966C375.77,153.12 373.77,168.323 369.77,180.577C365.77,192.831 359.992,202.059 352.437,208.261C344.97,214.464 335.948,217.565 325.37,217.565L298.703,217.565L298.703,55.545L328.17,55.545C337.859,55.545 346.259,58.571 353.37,64.622C360.481,70.673 365.992,79.598 369.903,91.398C373.814,103.047 375.77,117.569 375.77,134.966ZM360.703,135.647C360.703,122.032 359.414,110.838 356.837,102.063C354.259,93.289 350.437,86.784 345.37,82.548C340.392,78.313 334.348,76.195 327.237,76.195L313.103,76.195L313.103,196.915L324.703,196.915C336.703,196.915 345.681,191.772 351.637,181.485C357.681,171.198 360.703,155.919 360.703,135.647Z" style="fill:rgb(255,103,12);fill-rule:nonzero;"/>
        </g>
    </g>
</svg>
