<?xml version="1.0" encoding="UTF-8" standalone="no"?>
<!DOCTYPE svg PUBLIC "-//W3C//DTD SVG 1.1//EN" "http://www.w3.org/Graphics/SVG/1.1/DTD/svg11.dtd">
<svg width="100%" height="100%" viewBox="0 0 600 300" version="1.1" xmlns="http://www.w3.org/2000/svg" xmlns:xlink="http://www.w3.org/1999/xlink" xml:space="preserve" xmlns:serif="http://www.serif.com/" style="fill-rule:evenodd;clip-rule:evenodd;stroke-linejoin:round;stroke-miterlimit:2;">
    <g id="Hamilton-Doom" serif:id="Hamilton Doom">
        <g transform="matrix(1,0,0,1,10.4,0)">
            <path d="M290.7,118.96L326.869,118.917L443.915,118.917L349.223,187.715L385.392,299.033L290.7,230.235L196.008,299.033L232.177,187.715L137.485,118.917L254.531,118.917L290.7,118.96Z" style="fill:rgb(255,215,0);"/>
        </g>
        <g transform="matrix(0.0776596,0,0,0.0776596,274.153,1.28486)">
            <path d="M280,228C278.863,232.383 275.505,235.631 274.419,240C272.97,245.829 276.75,256.018 270.852,259.861C268.474,261.41 263.846,263.094 261,262.596C256.379,261.789 253.235,257.631 248.09,259.603C244.59,260.945 242.525,264.53 238.996,265.991C234.896,267.689 230.202,267.566 226,269.17C219.022,271.834 212.837,275.914 206,278.788C198.756,281.833 190.482,283.552 183,286.319C177.412,288.385 171.75,291.942 166,293.323C161.764,294.341 157.929,292.319 154.188,295.434C147.772,300.779 148.642,309.685 150,317C135.613,309.768 119.063,321.845 107,329.609C80.01,346.979 61.327,374.287 52.573,405C49.652,415.246 46.765,426.255 47.015,437C47.138,442.282 48.154,449.622 51.513,453.892C53.856,456.871 59.989,458.38 58.962,463.019C57.835,468.112 52.769,471.706 51.695,477C51.006,480.395 54.311,483.664 52.968,486.791C51.73,489.674 48.325,491.005 46.993,494.043C41.454,506.679 39.185,520.729 35.715,534C32.815,545.094 27.925,555.57 26.3,567C24.427,580.173 28.747,594.963 37.301,605C54.827,625.564 77.145,636.773 103,643.255C110.536,645.144 118.337,646.625 126,647.919C133.875,649.249 142.269,650.283 147.527,657.174C149.93,660.323 148.787,663.446 148.299,667C147.488,672.914 146.775,679.054 146.171,685C145.311,693.459 146.52,701.629 145.91,710C145.443,716.404 143.246,722.528 143.011,729C142.84,733.697 141.164,739.616 144.703,743.501C146.974,745.993 150.85,746.843 154,747.572C161.736,749.361 170.088,750.375 178,751C177.278,759.272 173.218,766.302 170.609,774C168.823,779.269 170.286,783.793 169.636,789C169.102,793.276 165.917,796.705 165.209,801C162.422,817.916 159.306,834.988 157.285,852C156.46,858.949 156.685,866.089 155.7,873C154.111,884.151 150.239,894.9 148.438,906C145.273,925.508 144.901,945.315 144.039,965C142.565,998.678 148.015,1031.56 149.907,1065C150.874,1082.1 145.79,1099.86 145.039,1117C144.227,1135.56 148.525,1153.62 147.985,1172C147.696,1181.84 140.706,1190.25 139.3,1200C138.135,1208.08 140.26,1216.01 139.896,1224C139.593,1230.64 137.803,1237.35 137.17,1244C136.359,1252.52 136.902,1261.44 137.004,1270C137.092,1277.44 139.115,1284.63 139.83,1292C142.782,1322.38 150.119,1353.25 146.826,1384C145.648,1395.01 142.85,1405.91 142.09,1417C141.804,1421.16 141.227,1425.85 141.495,1430C141.644,1432.32 142.692,1434.56 142.27,1436.91C141.4,1441.75 138.025,1445.91 137.302,1451C136.618,1455.81 139.242,1459.45 139.22,1464C139.199,1468.35 135.842,1473 134.323,1477C133.339,1479.6 133.107,1482.53 131.825,1485C129.034,1490.37 122.758,1493.73 118,1497.14C110.257,1502.69 102.408,1508.69 96.213,1516C89.129,1524.36 84.083,1539.02 84.079,1550C84.076,1555.95 86.001,1562.05 85.683,1568C85.503,1571.36 83.05,1573.8 82.313,1577C81.143,1582.08 82.265,1591.05 84.148,1595.89C86.535,1602.03 101.152,1604.24 107,1605.62C112.612,1606.95 117.491,1604.58 123,1605.34C127.051,1605.9 130.9,1607.42 135,1607.83C140.646,1608.39 146.36,1607.59 152,1608.29C161.607,1609.47 170.564,1612.22 180,1609.21C183.733,1608.02 187.508,1608.83 190.83,1606.34C193.804,1604.12 195.833,1600.82 198.428,1598.21C201.468,1595.15 205.019,1593.31 206.467,1589C208.473,1583.02 207.698,1569.62 214.059,1566.7C221.743,1563.18 222.946,1570.8 229.043,1572.57C239.411,1575.57 249.157,1570.85 257.424,1565.38C259.346,1564.1 261.739,1563.36 263.273,1561.57C268.039,1556 266.876,1544.83 267.904,1538C268.765,1532.28 270.997,1526.84 271.714,1521C272.734,1512.69 272.238,1503.31 271.472,1495C270.836,1488.1 267.066,1481.7 266.41,1475C266.06,1471.42 269.08,1469.12 270.259,1466C271.675,1462.25 271.971,1456.99 271.971,1453C271.97,1446.29 268.867,1440.49 268.129,1434C266.784,1422.19 267.039,1408.89 267.175,1397C267.667,1354 286.011,1314.3 291.711,1272C293.953,1255.36 293.867,1238.68 295.09,1222C295.717,1213.45 298,1205.76 298,1197C298,1192.78 298.544,1188.1 297.362,1184C296.423,1180.75 293.156,1177.49 293.484,1174C294.04,1168.09 300.659,1162.44 302.929,1157C305.737,1150.27 305.827,1141.22 306.714,1134C308.066,1122.98 306.134,1111.96 306.004,1101C305.801,1083.99 307.019,1066.9 308.834,1050C310.027,1038.9 313.298,1028.1 314.715,1017C318.44,987.808 322.039,959.443 330,931C332.603,921.7 336.036,912.997 339.524,904C340.826,900.641 342.623,896.184 347.015,896.786C360.327,898.612 363.548,918.988 367.295,929C378.235,958.235 379.202,990.462 383.701,1021C384.866,1028.91 384.941,1037.21 386.746,1045C393.953,1076.11 392.915,1108.61 398.464,1140C400.744,1152.9 403.923,1165.92 409.065,1178C411.569,1183.88 417.833,1189.77 418.944,1196C419.867,1201.16 415.716,1206.48 416.174,1212C416.884,1220.57 420.866,1226.93 422.61,1235C423.455,1238.91 422.793,1243.04 423.17,1247C423.905,1254.72 425.056,1262.38 426.464,1270C432.946,1305.08 449.079,1338.05 456.193,1373C458.293,1383.31 460.022,1395.47 459.741,1406C459.545,1413.33 458.194,1420.67 458.015,1428C457.753,1438.69 459.854,1449.41 459.39,1460C459.227,1463.71 457.778,1467.28 457.519,1471C456.903,1479.82 465.814,1483.72 465.966,1492C466.087,1498.61 462.551,1504.45 462.09,1511C460.911,1527.73 463.316,1545.79 467.258,1562C469.206,1570.01 471.467,1577.28 479.039,1581.99C485.046,1585.73 495.227,1584.48 502,1584C503.104,1592.55 505.867,1600.18 509.335,1608C510.517,1610.67 511.246,1614.11 513.51,1616.11C520.026,1621.87 532.98,1621 541,1621C545.178,1621 549.9,1620.4 554,1621.3C559.29,1622.46 563.314,1625.64 569,1625.9C574.749,1626.16 579.483,1623.12 585,1622.55C587.971,1622.24 591.005,1623.05 594,1622.96C599.994,1622.77 606.088,1621.54 612,1620.59C614.885,1620.13 619.002,1620.28 621.262,1618.14C623.077,1616.43 623.409,1613.3 623.997,1611C625.195,1606.3 626.496,1600.88 626.312,1596C626.208,1593.24 624.816,1590.76 624.804,1588C624.785,1583.55 627.267,1579.3 628.181,1575C629.513,1568.73 629.518,1561.36 628.826,1555C627.523,1543 620.611,1532.12 612,1524.09C607.116,1519.53 600.543,1515.44 596.728,1509.91C593.79,1505.65 594.643,1500.75 593.61,1496C592.633,1491.51 589.792,1487.65 589.225,1483C588.71,1478.77 591.599,1475.14 591.176,1471C590.857,1467.88 588.766,1464.91 587.696,1462C585.72,1456.62 584.166,1450.77 584.054,1445C583.93,1438.58 586.926,1432.35 586.482,1426C585.799,1416.23 582.548,1406.69 581.289,1397C579.839,1385.83 579.739,1373.27 580.015,1362C580.833,1328.58 588.032,1295.5 584.83,1262C583.654,1249.69 579.49,1238.09 577.759,1226C576.446,1216.83 577.716,1207.19 575.391,1198C573.157,1189.17 565.198,1182.96 563.978,1174C563.248,1168.63 566.476,1164.24 566.907,1159C567.918,1146.67 567.004,1134.29 565.83,1122C564.912,1112.39 563.35,1103.41 561.116,1094C559.935,1089.03 557.799,1084.07 557.184,1079C555.753,1067.2 556.481,1054.88 555.961,1043C555.42,1030.66 553.34,1018.38 553.34,1006C553.34,998.016 554.546,989.964 554.896,982C555.255,973.821 553.649,965.173 553.089,957C551.012,926.659 545.292,897.12 541.714,867C540.595,857.576 539.05,848.307 537.2,839C536.535,835.657 534.643,830.411 536.773,827.302C539.144,823.842 545.635,822.01 548.996,819.331C552.517,816.525 555.036,811.437 559.104,809.563C565.586,806.578 571.271,807.096 578,806.854C580.736,806.756 583.262,805.666 586,806.422C597.299,809.543 607.844,818.098 618,823.688C653.613,843.292 689.507,862.376 724.995,882.238C731.184,885.701 731.997,892.201 737.213,896.298C740.217,898.658 744.489,899.456 748,900.811C754.188,903.198 760.572,906.985 767,908.471C777.684,910.94 789.08,912.1 800,913.421C804.562,913.972 811.914,913.618 815.378,910.005C818.083,907.184 814.606,902.214 814.188,899C813.088,890.531 818.252,872.898 830,875.58C839.045,877.646 848.884,885.238 857,889.694C873.198,898.589 889.823,906.728 906,915.664C912.594,919.307 919.278,922.838 926,926.244C928.67,927.597 931.877,929.714 935,929.484C940.501,929.078 942.145,923.324 946.325,920.951C949.331,919.244 952.841,921.148 955.985,919.242C963.751,914.535 972.413,898.095 972.756,889.001C973.078,880.467 959.111,876.443 953,873.219C930.637,861.419 908.237,849.719 886,837.691C876.728,832.676 866.846,828.509 858.043,822.676C855.091,820.719 853.388,817.838 850.791,815.529C847.686,812.768 843.615,810.866 840,808.861C818.102,796.715 796.042,784.758 774,772.887C766.417,768.802 758.317,765.495 751,760.934C748.677,759.487 746.268,757.95 744.509,755.816C743.098,754.104 742.456,751.266 740.491,750.082C737.583,748.329 733.429,750.563 730,748.938C716.321,742.456 703.216,734.235 690,726.862C684.141,723.594 677.659,721.313 672.019,717.673C666.315,713.991 668.345,706.526 662.867,703.303C658.895,700.967 654.22,701.753 650,700.488C644.131,698.728 638.263,693.669 633,690.508C630.925,689.261 628.06,688.226 626.451,686.363C624.106,683.647 626.745,680.572 628.01,678C631.24,671.43 634.851,664.764 637.652,658C643.809,643.132 645.812,628.606 648.805,613C651.046,601.313 654.173,590.053 653.871,578C653.622,568.05 649.808,558.691 648.296,549C645.922,533.777 645.869,518.136 642.892,503.015C642.39,500.465 640.233,498.338 640.002,495.83C639.692,492.455 642.709,489.473 642.799,486C642.922,481.214 637.404,474.609 639.241,470.263C640.705,466.797 645.623,465.463 647.558,461.96C652.27,453.427 652.378,438.54 651.961,429C650.658,399.251 638.288,367.807 622.414,343C617.192,334.84 611.923,325.851 604.985,319.039C598.558,312.729 590.799,305.771 583,301.221C578.726,298.727 572.962,297.996 569.314,294.502C566.942,292.23 566.743,288.958 565.777,286C564.242,281.302 561.331,275.86 556.957,273.279C552.32,270.542 547.982,271.776 543,271.53C539.244,271.345 535.533,269.84 532,268.667C512.33,262.134 492.035,256.577 472,251.471C466.623,250.1 462.628,246.13 457,245.301C451.421,244.479 448.143,247.164 443,248.182C439.159,248.943 434.821,247.485 431,247C430.439,242.69 428.27,239.134 427.044,235C425.323,229.198 423.745,221.98 423,216C430.335,215.334 435.573,209.969 442,206.753C450.482,202.509 459.094,200.112 465.606,192.714C469.021,188.837 469.696,183.768 471.175,179C472.916,173.388 475.593,166.958 475.501,161C475.427,156.244 472.33,151.576 471.13,147C467.891,134.645 465.074,122.242 461.41,110C458.162,99.144 453.88,89.372 449.427,79C446.892,73.092 444.428,65.843 439.671,61.299C437.183,58.923 433.753,57.946 431.17,55.657C426.519,51.535 423.23,46.031 417.961,42.559C414.078,40.002 408.73,39.861 405.34,36.686C398.107,29.914 397.09,18.096 387,14.009C381.272,11.69 374.878,13.637 369,13.896C357.77,14.39 346.349,13.312 335,14.089C324.322,14.821 313.674,16.129 303,16.911C298.262,17.259 291.348,16.694 287.094,19.028C278.456,23.766 277.926,38.473 272.185,45.737C269.599,49.01 265.225,50.512 262.17,53.326C257.247,57.859 253.982,63.661 249.96,68.911C247.781,71.754 244.94,74.005 242.968,77.015C240.2,81.241 238.983,86.293 237.308,91C232.669,104.036 230.044,117.525 226.989,131C224.664,141.257 224.124,151.682 222.196,162C221.107,167.825 218.07,175.218 218.279,181C218.463,186.105 221.34,191.338 223.2,196C224.962,200.418 226.18,206.099 229.613,209.57C235.269,215.288 246.935,216.295 254,219.972C256.822,221.441 259.103,223.714 262,225.08C267.467,227.659 274.056,227.984 280,228Z" style="fill:rgb(255,215,0);fill-rule:nonzero;"/>
        </g>
        <g transform="matrix(0.607682,0,0,0.607682,82.935,72.429)">
            <path d="M234.328,90.959C234.274,93.998 234.219,96.941 234.165,99.789C234.138,101.01 234.111,102.258 234.084,103.533C234.084,104.808 234.07,106.069 234.043,107.317C234.043,108.538 234.029,109.718 234.002,110.857L234.002,113.827C234.002,115.645 234.016,117.842 234.043,120.419C234.07,122.996 234.097,125.641 234.124,128.354C234.179,131.066 234.246,133.67 234.328,136.166C234.409,138.662 234.504,140.737 234.613,142.392C234.992,142.446 235.494,142.514 236.118,142.595C236.769,142.649 237.447,142.704 238.153,142.758C238.858,142.785 239.55,142.812 240.228,142.839C240.906,142.866 241.476,142.88 241.937,142.88C243.836,142.88 245.775,142.758 247.756,142.514C249.763,142.243 251.689,141.754 253.533,141.049C255.405,140.344 257.155,139.381 258.783,138.16C260.437,136.912 261.875,135.312 263.096,133.359C264.344,131.405 265.32,129.059 266.025,126.319C266.731,123.552 267.083,120.297 267.083,116.554C267.083,112.403 266.581,108.714 265.578,105.486C264.574,102.231 263.096,99.491 261.143,97.266C259.217,95.042 256.816,93.36 253.94,92.221C251.092,91.054 247.81,90.471 244.093,90.471C243.361,90.471 242.534,90.498 241.611,90.553C240.689,90.58 239.767,90.62 238.844,90.675C237.949,90.702 237.095,90.756 236.281,90.837C235.494,90.892 234.843,90.932 234.328,90.959ZM225.417,87.297C226.041,87.324 226.624,87.352 227.166,87.379C227.627,87.406 228.102,87.433 228.59,87.46L229.77,87.46C230.286,87.46 231.14,87.433 232.334,87.379C233.555,87.324 234.938,87.27 236.484,87.216C238.031,87.162 239.631,87.107 241.286,87.053C242.968,86.999 244.541,86.972 246.006,86.972C249.939,86.972 253.683,87.46 257.236,88.437C260.79,89.413 263.909,91.014 266.595,93.238C269.281,95.462 271.41,98.379 272.983,101.986C274.557,105.594 275.343,110.03 275.343,115.292C275.343,119.063 274.923,122.454 274.082,125.465C273.268,128.476 272.115,131.134 270.623,133.44C269.131,135.746 267.341,137.726 265.252,139.381C263.191,141.008 260.898,142.351 258.376,143.409C255.88,144.467 253.208,145.24 250.36,145.728C247.511,146.217 244.568,146.461 241.53,146.461C240.445,146.461 239.129,146.42 237.583,146.339C236.064,146.284 234.531,146.217 232.985,146.135C231.439,146.054 229.974,145.972 228.59,145.891C227.234,145.837 226.176,145.81 225.417,145.81L225.417,145.647C225.579,145.077 225.729,144.372 225.864,143.531C226.027,142.69 226.163,141.646 226.271,140.398C226.38,139.15 226.461,137.672 226.515,135.963C226.57,134.227 226.597,132.206 226.597,129.9L226.597,103.411C226.597,101.105 226.57,99.084 226.515,97.348C226.461,95.585 226.38,94.079 226.271,92.831C226.163,91.556 226.027,90.485 225.864,89.617C225.729,88.749 225.579,88.03 225.417,87.46L225.417,87.297Z" style="fill:rgb(17,17,17);fill-rule:nonzero;"/>
            <path d="M311.517,86.484C316.047,86.484 320.225,87.23 324.049,88.721C327.901,90.186 331.224,92.262 334.019,94.947C336.813,97.605 338.996,100.806 340.57,104.55C342.143,108.293 342.93,112.43 342.93,116.96C342.93,119.537 342.631,122.074 342.034,124.569C341.438,127.065 340.556,129.425 339.39,131.65C338.25,133.874 336.84,135.936 335.158,137.834C333.476,139.706 331.55,141.334 329.38,142.717C327.237,144.074 324.863,145.132 322.259,145.891C319.655,146.678 316.847,147.071 313.836,147.071C309.306,147.071 305.115,146.352 301.263,144.915C297.438,143.45 294.129,141.388 291.335,138.73C288.541,136.071 286.357,132.884 284.783,129.167C283.21,125.424 282.423,121.274 282.423,116.716C282.423,114.139 282.722,111.603 283.319,109.107C283.915,106.612 284.783,104.238 285.923,101.986C287.089,99.735 288.5,97.673 290.155,95.802C291.836,93.903 293.749,92.262 295.892,90.878C298.062,89.495 300.449,88.423 303.053,87.664C305.685,86.877 308.506,86.484 311.517,86.484ZM313.836,143.409C316.847,143.409 319.601,142.866 322.096,141.781C324.592,140.696 326.735,139.123 328.525,137.061C330.343,135 331.753,132.49 332.757,129.534C333.761,126.55 334.263,123.172 334.263,119.402C334.263,115.224 333.774,111.359 332.798,107.805C331.848,104.224 330.424,101.132 328.525,98.528C326.626,95.896 324.253,93.848 321.405,92.384C318.583,90.892 315.288,90.146 311.517,90.146C308.506,90.146 305.752,90.688 303.257,91.773C300.761,92.831 298.605,94.377 296.787,96.412C294.997,98.446 293.6,100.942 292.596,103.899C291.592,106.856 291.09,110.219 291.09,113.99C291.09,118.14 291.565,122.02 292.515,125.627C293.464,129.208 294.888,132.314 296.787,134.945C298.686,137.577 301.06,139.652 303.908,141.171C306.756,142.663 310.066,143.409 313.836,143.409Z" style="fill:rgb(17,17,17);fill-rule:nonzero;"/>
            <path d="M378.696,86.484C383.226,86.484 387.404,87.23 391.229,88.721C395.081,90.186 398.404,92.262 401.198,94.947C403.992,97.605 406.176,100.806 407.749,104.55C409.322,108.293 410.109,112.43 410.109,116.96C410.109,119.537 409.811,122.074 409.214,124.569C408.617,127.065 407.735,129.425 406.569,131.65C405.43,133.874 404.019,135.936 402.337,137.834C400.655,139.706 398.729,141.334 396.559,142.717C394.416,144.074 392.043,145.132 389.438,145.891C386.834,146.678 384.027,147.071 381.016,147.071C376.485,147.071 372.294,146.352 368.442,144.915C364.617,143.45 361.308,141.388 358.514,138.73C355.72,136.071 353.536,132.884 351.963,129.167C350.39,125.424 349.603,121.274 349.603,116.716C349.603,114.139 349.901,111.603 350.498,109.107C351.095,106.612 351.963,104.238 353.102,101.986C354.269,99.735 355.679,97.673 357.334,95.802C359.016,93.903 360.928,92.262 363.071,90.878C365.241,89.495 367.629,88.423 370.233,87.664C372.864,86.877 375.685,86.484 378.696,86.484ZM381.016,143.409C384.027,143.409 386.78,142.866 389.276,141.781C391.771,140.696 393.914,139.123 395.705,137.061C397.522,135 398.933,132.49 399.936,129.534C400.94,126.55 401.442,123.172 401.442,119.402C401.442,115.224 400.954,111.359 399.977,107.805C399.028,104.224 397.604,101.132 395.705,98.528C393.806,95.896 391.432,93.848 388.584,92.384C385.763,90.892 382.467,90.146 378.696,90.146C375.685,90.146 372.932,90.688 370.436,91.773C367.941,92.831 365.784,94.377 363.966,96.412C362.176,98.446 360.779,100.942 359.775,103.899C358.772,106.856 358.27,110.219 358.27,113.99C358.27,118.14 358.745,122.02 359.694,125.627C360.643,129.208 362.068,132.314 363.966,134.945C365.865,137.577 368.239,139.652 371.087,141.171C373.936,142.663 377.245,143.409 381.016,143.409Z" style="fill:rgb(17,17,17);fill-rule:nonzero;"/>
            <path d="M416.375,145.647C416.674,145.213 417.013,144.575 417.393,143.734C417.772,142.866 418.071,141.781 418.288,140.479C418.586,138.58 418.912,136.451 419.264,134.091C419.644,131.704 420.024,129.208 420.404,126.604C420.811,124 421.204,121.341 421.584,118.629C421.991,115.889 422.37,113.203 422.723,110.572C423.103,107.914 423.455,105.364 423.781,102.922C424.134,100.454 424.445,98.202 424.717,96.168C424.988,94.133 425.205,92.37 425.368,90.878C425.558,89.359 425.693,88.22 425.775,87.46L430.942,87.46L456.536,135.312L481.927,87.46L485.793,87.46L492.466,135.8C492.656,137.319 492.859,138.621 493.076,139.706C493.293,140.791 493.51,141.727 493.727,142.514C493.944,143.273 494.148,143.911 494.338,144.426C494.555,144.915 494.758,145.321 494.948,145.647L494.948,145.81L484.694,145.81L484.694,145.647C484.83,145.349 484.952,144.86 485.06,144.182C485.196,143.504 485.264,142.69 485.264,141.741C485.264,141.388 485.25,141.035 485.223,140.683C485.196,140.303 485.155,139.896 485.101,139.462L479.933,100.481L455.926,145.647L453.118,145.321L428.949,100.074C427.999,106.503 427.172,112.444 426.466,117.896C426.168,120.229 425.87,122.562 425.571,124.895C425.273,127.201 425.002,129.357 424.757,131.365C424.54,133.372 424.364,135.149 424.228,136.695C424.093,138.214 424.025,139.34 424.025,140.072C424.025,140.995 424.052,141.809 424.106,142.514C424.161,143.219 424.215,143.816 424.269,144.304C424.351,144.874 424.432,145.376 424.513,145.81L416.375,145.81L416.375,145.647Z" style="fill:rgb(17,17,17);fill-rule:nonzero;"/>
        </g>
        <g transform="matrix(0.607682,0,0,0.607682,105.435,92.929)">
            <path d="M226.562,127.784C225.508,127.784 224.557,127.833 223.709,127.932C222.861,128.021 222.129,128.119 221.513,128.226C220.799,128.36 220.16,128.507 219.598,128.668L219.986,126.499C220.093,126.507 220.254,126.516 220.468,126.525C220.683,126.534 220.919,126.543 221.178,126.552C221.446,126.561 221.723,126.57 222.008,126.579C222.303,126.579 222.58,126.583 222.839,126.592C223.098,126.592 223.325,126.597 223.522,126.606L232.039,126.606C232.244,126.597 232.476,126.592 232.735,126.592C232.994,126.583 233.267,126.579 233.552,126.579C233.847,126.57 234.124,126.561 234.383,126.552C234.65,126.543 234.892,126.534 235.106,126.525C235.32,126.516 235.481,126.507 235.588,126.499L235.976,128.668C235.405,128.507 234.762,128.36 234.048,128.226C233.432,128.119 232.7,128.021 231.852,127.932C231.003,127.833 230.053,127.784 228.999,127.784L228.999,140.573C228.999,141.332 229.008,141.997 229.026,142.569C229.053,143.131 229.079,143.618 229.106,144.029C229.142,144.439 229.182,144.783 229.227,145.06C229.28,145.337 229.334,145.569 229.387,145.756L229.387,145.81L226.187,145.81L226.187,145.756C226.24,145.569 226.289,145.337 226.334,145.06C226.379,144.783 226.419,144.439 226.455,144.029C226.49,143.618 226.517,143.131 226.535,142.569C226.553,141.997 226.562,141.332 226.562,140.573L226.562,127.784Z" style="fill:rgb(17,17,17);fill-rule:nonzero;"/>
            <path d="M247.252,136.784C247.252,135.605 247.016,134.739 246.542,134.186C246.069,133.632 245.435,133.355 244.641,133.355C244.346,133.355 244.016,133.418 243.65,133.543C243.293,133.659 242.922,133.819 242.538,134.025C242.163,134.23 241.788,134.471 241.413,134.748C241.038,135.016 240.69,135.302 240.369,135.605L240.369,140.573C240.369,141.332 240.378,141.997 240.396,142.569C240.413,143.131 240.44,143.618 240.476,144.029C240.512,144.439 240.552,144.783 240.596,145.06C240.641,145.337 240.69,145.569 240.744,145.756L240.744,145.81L237.65,145.81L237.65,145.756C237.704,145.569 237.753,145.337 237.798,145.06C237.851,144.783 237.891,144.439 237.918,144.029C237.954,143.618 237.981,143.131 237.998,142.569C238.025,141.997 238.039,141.332 238.039,140.573L238.039,131.025C238.039,130.266 238.025,129.605 237.998,129.043C237.981,128.472 237.954,127.981 237.918,127.57C237.891,127.159 237.851,126.816 237.798,126.539C237.753,126.262 237.704,126.03 237.65,125.842L237.65,125.789L240.744,125.789L240.744,125.842C240.69,126.03 240.641,126.262 240.596,126.539C240.552,126.816 240.512,127.159 240.476,127.57C240.44,127.981 240.413,128.472 240.396,129.043C240.378,129.605 240.369,130.266 240.369,131.025L240.369,134.453C240.726,134.132 241.119,133.815 241.547,133.503C241.985,133.19 242.436,132.909 242.9,132.659C243.364,132.409 243.837,132.208 244.319,132.056C244.802,131.904 245.275,131.829 245.739,131.829C246.435,131.829 247.025,131.949 247.507,132.19C247.998,132.431 248.395,132.748 248.699,133.141C249.011,133.534 249.234,133.985 249.368,134.494C249.511,134.994 249.582,135.502 249.582,136.02L249.582,140.573C249.582,141.332 249.591,141.997 249.609,142.569C249.627,143.131 249.654,143.618 249.69,144.029C249.725,144.439 249.765,144.783 249.81,145.06C249.855,145.337 249.904,145.569 249.957,145.756L249.957,145.81L246.864,145.81L246.864,145.756C246.917,145.569 246.967,145.337 247.011,145.06C247.065,144.783 247.105,144.439 247.132,144.029C247.167,143.618 247.194,143.131 247.212,142.569C247.239,141.997 247.252,141.332 247.252,140.573L247.252,136.784Z" style="fill:rgb(17,17,17);fill-rule:nonzero;"/>
            <path d="M259.613,146.051C258.622,146.051 257.693,145.895 256.827,145.582C255.961,145.27 255.207,144.814 254.564,144.216C253.921,143.609 253.413,142.863 253.038,141.98C252.671,141.087 252.488,140.069 252.488,138.926C252.488,137.917 252.658,136.984 252.997,136.127C253.337,135.261 253.805,134.511 254.404,133.878C255.002,133.244 255.698,132.748 256.493,132.391C257.296,132.034 258.162,131.855 259.091,131.855C260.01,131.855 260.863,132.016 261.649,132.337C262.434,132.65 263.113,133.11 263.684,133.717C264.264,134.315 264.72,135.06 265.05,135.953C265.389,136.837 265.572,137.846 265.599,138.98C264.59,138.962 263.581,138.949 262.573,138.94C261.564,138.931 260.515,138.926 259.425,138.926C258.649,138.926 257.89,138.931 257.149,138.94C256.417,138.949 255.756,138.962 255.167,138.98C255.22,139.908 255.363,140.748 255.595,141.498C255.836,142.247 256.162,142.89 256.573,143.426C256.993,143.953 257.497,144.359 258.086,144.645C258.684,144.93 259.359,145.073 260.108,145.073C260.626,145.073 261.113,145.015 261.568,144.899C262.032,144.774 262.452,144.604 262.827,144.39C263.202,144.176 263.537,143.926 263.831,143.64C264.126,143.346 264.376,143.029 264.581,142.689L264.742,142.77L263.751,145.153C263.269,145.403 262.693,145.618 262.023,145.796C261.354,145.966 260.55,146.051 259.613,146.051ZM256.439,137.882L260.51,137.882C261.412,137.873 262.229,137.855 262.961,137.828C262.881,137.051 262.729,136.355 262.506,135.739C262.282,135.123 261.997,134.601 261.649,134.172C261.3,133.744 260.89,133.413 260.416,133.181C259.943,132.949 259.421,132.833 258.85,132.833C258.332,132.833 257.854,132.949 257.417,133.181C256.988,133.404 256.613,133.73 256.292,134.159C255.97,134.587 255.711,135.114 255.515,135.739C255.319,136.355 255.203,137.06 255.167,137.855C255.569,137.873 255.993,137.882 256.439,137.882Z" style="fill:rgb(17,17,17);fill-rule:nonzero;"/>
            <path d="M277.759,126.606L277.759,126.659C277.741,126.704 277.728,126.771 277.719,126.86C277.71,126.949 277.705,127.03 277.705,127.101C277.705,127.378 277.741,127.686 277.813,128.025C277.893,128.356 278.04,128.771 278.254,129.271L284.187,142.649L289.919,129.378C290.053,129.047 290.196,128.686 290.347,128.293C290.499,127.9 290.575,127.503 290.575,127.101C290.575,126.994 290.566,126.905 290.548,126.833C290.53,126.753 290.513,126.695 290.495,126.659L290.495,126.606L293.24,126.606L293.24,126.659C293.07,126.829 292.865,127.132 292.624,127.57C292.383,128.007 292.12,128.548 291.834,129.19L284.16,146.225L283.089,146.225L275.817,129.847C275.648,129.463 275.469,129.092 275.281,128.735C275.103,128.378 274.933,128.056 274.773,127.771C274.612,127.476 274.469,127.231 274.344,127.034C274.219,126.838 274.134,126.713 274.09,126.659L274.09,126.606L277.759,126.606Z" style="fill:rgb(17,17,17);fill-rule:nonzero;"/>
            <path d="M294.285,137.333C294.285,136.574 294.271,135.913 294.244,135.351C294.227,134.779 294.2,134.288 294.164,133.878C294.137,133.467 294.097,133.123 294.044,132.846C293.999,132.57 293.95,132.337 293.896,132.15L293.896,132.096L296.99,132.096L296.99,132.15C296.936,132.337 296.887,132.57 296.842,132.846C296.798,133.123 296.758,133.467 296.722,133.878C296.686,134.288 296.659,134.779 296.642,135.351C296.624,135.913 296.615,136.574 296.615,137.333L296.615,140.573C296.615,141.332 296.624,141.997 296.642,142.569C296.659,143.131 296.686,143.618 296.722,144.029C296.758,144.439 296.798,144.783 296.842,145.06C296.887,145.337 296.936,145.569 296.99,145.756L296.99,145.81L293.896,145.81L293.896,145.756C293.95,145.569 293.999,145.337 294.044,145.06C294.097,144.783 294.137,144.439 294.164,144.029C294.2,143.618 294.227,143.131 294.244,142.569C294.271,141.997 294.285,141.332 294.285,140.573L294.285,137.333ZM294.003,128.039C294.003,127.842 294.039,127.659 294.11,127.49C294.191,127.311 294.294,127.159 294.419,127.034C294.543,126.9 294.691,126.798 294.86,126.726C295.039,126.646 295.231,126.606 295.436,126.606C295.642,126.606 295.829,126.646 295.999,126.726C296.177,126.798 296.329,126.9 296.454,127.034C296.588,127.159 296.691,127.311 296.762,127.49C296.842,127.659 296.883,127.842 296.883,128.039C296.883,128.449 296.744,128.793 296.467,129.07C296.191,129.347 295.847,129.485 295.436,129.485C295.231,129.485 295.039,129.449 294.86,129.378C294.691,129.297 294.543,129.195 294.419,129.07C294.294,128.936 294.191,128.784 294.11,128.614C294.039,128.436 294.003,128.244 294.003,128.039Z" style="fill:rgb(17,17,17);fill-rule:nonzero;"/>
            <path d="M306.927,131.855C307.293,131.855 307.659,131.887 308.025,131.949C308.391,132.012 308.748,132.101 309.096,132.217C309.444,132.333 309.775,132.476 310.087,132.645C310.4,132.815 310.681,133.007 310.931,133.221L310.931,131.025C310.931,130.266 310.922,129.605 310.904,129.043C310.886,128.472 310.859,127.981 310.824,127.57C310.788,127.159 310.748,126.816 310.703,126.539C310.658,126.262 310.609,126.03 310.556,125.842L310.556,125.789L313.649,125.789L313.649,125.842C313.596,126.03 313.542,126.262 313.489,126.539C313.444,126.816 313.404,127.159 313.368,127.57C313.341,127.981 313.314,128.472 313.288,129.043C313.27,129.605 313.261,130.266 313.261,131.025L313.261,140.573C313.261,141.332 313.27,141.997 313.288,142.569C313.314,143.131 313.341,143.618 313.368,144.029C313.404,144.439 313.444,144.783 313.489,145.06C313.542,145.337 313.596,145.569 313.649,145.756L313.649,145.81L310.69,145.81L310.69,145.756C310.716,145.685 310.739,145.582 310.757,145.448C310.774,145.305 310.797,145.131 310.824,144.926C310.368,145.212 309.797,145.47 309.109,145.703C308.422,145.935 307.623,146.051 306.712,146.051C305.65,146.051 304.686,145.886 303.82,145.555C302.954,145.225 302.213,144.752 301.597,144.136C300.989,143.52 300.521,142.774 300.19,141.899C299.86,141.015 299.695,140.024 299.695,138.926C299.695,137.917 299.873,136.984 300.231,136.127C300.588,135.261 301.088,134.511 301.73,133.878C302.373,133.244 303.137,132.748 304.021,132.391C304.904,132.034 305.873,131.855 306.927,131.855ZM310.931,135.578C310.574,134.641 310.06,133.949 309.391,133.503C308.73,133.056 307.985,132.833 307.154,132.833C306.458,132.833 305.815,132.958 305.226,133.208C304.637,133.449 304.132,133.802 303.712,134.266C303.293,134.73 302.963,135.302 302.721,135.98C302.489,136.65 302.373,137.413 302.373,138.27C302.373,139.234 302.48,140.132 302.695,140.962C302.909,141.792 303.221,142.515 303.632,143.131C304.052,143.738 304.57,144.216 305.186,144.564C305.802,144.904 306.511,145.073 307.315,145.073C307.735,145.073 308.127,145.024 308.493,144.926C308.859,144.828 309.194,144.703 309.498,144.551C309.801,144.399 310.069,144.234 310.301,144.055C310.533,143.868 310.725,143.685 310.877,143.506C310.895,143.122 310.908,142.685 310.917,142.194C310.926,141.703 310.931,141.163 310.931,140.573L310.931,135.578Z" style="fill:rgb(17,17,17);fill-rule:nonzero;"/>
            <path d="M323.385,146.051C322.394,146.051 321.466,145.895 320.6,145.582C319.734,145.27 318.979,144.814 318.336,144.216C317.694,143.609 317.185,142.863 316.81,141.98C316.444,141.087 316.261,140.069 316.261,138.926C316.261,137.917 316.43,136.984 316.77,136.127C317.109,135.261 317.578,134.511 318.176,133.878C318.774,133.244 319.47,132.748 320.265,132.391C321.068,132.034 321.934,131.855 322.863,131.855C323.782,131.855 324.635,132.016 325.421,132.337C326.206,132.65 326.885,133.11 327.456,133.717C328.037,134.315 328.492,135.06 328.822,135.953C329.162,136.837 329.345,137.846 329.371,138.98C328.363,138.962 327.354,138.949 326.345,138.94C325.336,138.931 324.287,138.926 323.198,138.926C322.421,138.926 321.662,138.931 320.921,138.94C320.189,138.949 319.528,138.962 318.939,138.98C318.993,139.908 319.135,140.748 319.368,141.498C319.609,142.247 319.935,142.89 320.345,143.426C320.765,143.953 321.269,144.359 321.859,144.645C322.457,144.93 323.131,145.073 323.881,145.073C324.399,145.073 324.885,145.015 325.34,144.899C325.805,144.774 326.224,144.604 326.599,144.39C326.974,144.176 327.309,143.926 327.604,143.64C327.898,143.346 328.148,143.029 328.354,142.689L328.514,142.77L327.523,145.153C327.041,145.403 326.465,145.618 325.796,145.796C325.126,145.966 324.323,146.051 323.385,146.051ZM320.211,137.882L324.282,137.882C325.184,137.873 326.001,137.855 326.733,137.828C326.653,137.051 326.501,136.355 326.278,135.739C326.055,135.123 325.769,134.601 325.421,134.172C325.073,133.744 324.662,133.413 324.189,133.181C323.716,132.949 323.193,132.833 322.622,132.833C322.104,132.833 321.626,132.949 321.189,133.181C320.76,133.404 320.385,133.73 320.064,134.159C319.743,134.587 319.484,135.114 319.287,135.739C319.091,136.355 318.975,137.06 318.939,137.855C319.341,137.873 319.765,137.882 320.211,137.882Z" style="fill:rgb(17,17,17);fill-rule:nonzero;"/>
            <path d="M331.126,138.926C331.126,137.917 331.313,136.984 331.688,136.127C332.063,135.261 332.577,134.511 333.228,133.878C333.889,133.244 334.666,132.748 335.558,132.391C336.451,132.034 337.411,131.855 338.438,131.855C339.447,131.855 340.393,132.025 341.277,132.364C342.17,132.695 342.946,133.168 343.607,133.784C344.268,134.4 344.785,135.15 345.16,136.034C345.544,136.917 345.736,137.908 345.736,139.007C345.736,139.926 345.576,140.81 345.254,141.658C344.933,142.506 344.46,143.256 343.835,143.908C343.21,144.56 342.442,145.082 341.531,145.475C340.629,145.859 339.589,146.051 338.411,146.051C337.411,146.051 336.469,145.886 335.585,145.555C334.701,145.225 333.929,144.752 333.268,144.136C332.608,143.52 332.085,142.774 331.702,141.899C331.318,141.015 331.126,140.024 331.126,138.926ZM338.719,145.073C339.353,145.073 339.933,144.948 340.46,144.698C340.996,144.448 341.455,144.087 341.839,143.613C342.223,143.14 342.522,142.564 342.736,141.886C342.951,141.207 343.058,140.44 343.058,139.582C343.058,138.618 342.955,137.725 342.75,136.904C342.545,136.074 342.237,135.36 341.826,134.761C341.424,134.154 340.915,133.681 340.299,133.342C339.683,133.003 338.964,132.833 338.143,132.833C337.509,132.833 336.929,132.958 336.402,133.208C335.875,133.449 335.416,133.802 335.023,134.266C334.639,134.73 334.34,135.302 334.125,135.98C333.911,136.65 333.804,137.413 333.804,138.27C333.804,139.234 333.907,140.132 334.112,140.962C334.326,141.792 334.639,142.515 335.05,143.131C335.46,143.738 335.969,144.216 336.576,144.564C337.192,144.904 337.906,145.073 338.719,145.073Z" style="fill:rgb(17,17,17);fill-rule:nonzero;"/>
            <path d="M373.712,143.56C373.712,143.658 373.699,143.761 373.672,143.868C373.654,143.975 373.605,144.064 373.524,144.136C373.123,144.439 372.685,144.72 372.212,144.979C371.748,145.229 371.243,145.448 370.699,145.636C370.154,145.823 369.565,145.966 368.931,146.064C368.306,146.171 367.632,146.225 366.909,146.225C365.284,146.225 363.802,145.988 362.463,145.515C361.124,145.033 359.972,144.354 359.008,143.48C358.052,142.605 357.311,141.556 356.785,140.332C356.258,139.1 355.994,137.734 355.994,136.234C355.994,135.386 356.102,134.552 356.316,133.73C356.539,132.909 356.86,132.128 357.28,131.387C357.7,130.646 358.218,129.967 358.834,129.351C359.45,128.726 360.15,128.186 360.936,127.731C361.731,127.275 362.601,126.923 363.548,126.673C364.503,126.414 365.534,126.284 366.641,126.284C367.07,126.284 367.507,126.307 367.953,126.351C368.4,126.387 368.842,126.445 369.279,126.525C369.717,126.597 370.136,126.686 370.538,126.793C370.949,126.9 371.337,127.021 371.703,127.155L372.614,129.632L372.507,129.686C372.158,129.373 371.757,129.083 371.301,128.815C370.846,128.548 370.36,128.315 369.842,128.119C369.324,127.923 368.779,127.771 368.208,127.664C367.645,127.548 367.074,127.49 366.494,127.49C365.369,127.49 364.338,127.668 363.4,128.025C362.463,128.373 361.655,128.882 360.976,129.552C360.307,130.222 359.784,131.043 359.409,132.016C359.034,132.989 358.847,134.096 358.847,135.337C358.847,136.703 359.026,137.971 359.383,139.141C359.74,140.31 360.271,141.323 360.976,142.18C361.682,143.038 362.561,143.712 363.614,144.203C364.677,144.685 365.913,144.926 367.324,144.926C367.949,144.926 368.507,144.877 368.998,144.779C369.489,144.68 369.904,144.56 370.243,144.417C370.583,144.265 370.837,144.104 371.007,143.935C371.185,143.756 371.275,143.596 371.275,143.453L371.275,142.93C371.275,142.305 371.266,141.765 371.248,141.31C371.23,140.855 371.203,140.462 371.167,140.132C371.132,139.792 371.092,139.502 371.047,139.261C371.002,139.02 370.949,138.797 370.886,138.591L370.886,138.538L374.1,138.538L374.1,138.591C374.047,138.779 373.993,139.002 373.94,139.261C373.895,139.511 373.855,139.81 373.819,140.158C373.783,140.507 373.757,140.917 373.739,141.39C373.721,141.855 373.712,142.395 373.712,143.011L373.712,143.56Z" style="fill:rgb(17,17,17);fill-rule:nonzero;"/>
            <path d="M376.243,141.859C376.243,141.154 376.386,140.542 376.672,140.024C376.966,139.507 377.355,139.065 377.837,138.699C378.319,138.333 378.868,138.038 379.484,137.815C380.1,137.583 380.738,137.404 381.399,137.279C382.06,137.145 382.711,137.056 383.354,137.011C383.997,136.958 384.586,136.926 385.122,136.917L385.122,136.234C385.122,135.645 385.046,135.136 384.894,134.708C384.742,134.279 384.528,133.927 384.251,133.65C383.975,133.364 383.64,133.154 383.247,133.02C382.863,132.878 382.439,132.806 381.975,132.806C381.653,132.806 381.336,132.833 381.024,132.887C380.711,132.94 380.386,133.029 380.046,133.154C379.716,133.279 379.363,133.449 378.988,133.663C378.622,133.878 378.225,134.15 377.796,134.48L377.663,134.4L378.573,132.512C378.868,132.378 379.158,132.27 379.444,132.19C379.729,132.101 380.02,132.029 380.314,131.976C380.609,131.922 380.908,131.887 381.211,131.869C381.524,131.842 381.85,131.829 382.189,131.829C383.126,131.829 383.926,131.945 384.586,132.177C385.256,132.4 385.8,132.712 386.22,133.114C386.649,133.507 386.961,133.971 387.157,134.507C387.354,135.034 387.452,135.601 387.452,136.208L387.452,140.573C387.452,141.332 387.461,141.997 387.479,142.569C387.506,143.131 387.532,143.618 387.559,144.029C387.595,144.439 387.635,144.783 387.68,145.06C387.733,145.337 387.787,145.569 387.84,145.756L387.84,145.81L384.881,145.81L384.881,145.756C384.925,145.613 384.957,145.453 384.975,145.274C385.001,145.095 385.024,144.881 385.042,144.631C384.854,144.792 384.631,144.957 384.372,145.127C384.122,145.296 383.832,145.453 383.501,145.595C383.18,145.729 382.818,145.836 382.417,145.917C382.024,146.006 381.591,146.051 381.118,146.051C379.564,146.051 378.363,145.689 377.515,144.966C376.667,144.234 376.243,143.198 376.243,141.859ZM385.122,137.962C384.309,137.971 383.528,138.02 382.778,138.109C382.028,138.19 381.363,138.364 380.783,138.632C380.211,138.899 379.752,139.283 379.404,139.783C379.064,140.274 378.895,140.931 378.895,141.752C378.895,142.805 379.158,143.609 379.685,144.162C380.211,144.716 380.939,144.993 381.868,144.993C382.296,144.993 382.685,144.935 383.033,144.819C383.39,144.694 383.702,144.542 383.97,144.363C384.247,144.176 384.479,143.975 384.667,143.761C384.854,143.538 384.997,143.323 385.095,143.118C385.113,142.779 385.122,142.404 385.122,141.993L385.122,137.962Z" style="fill:rgb(17,17,17);fill-rule:nonzero;"/>
            <path d="M400.429,136.784C400.429,136.194 400.366,135.685 400.241,135.257C400.125,134.828 399.951,134.476 399.719,134.199C399.496,133.913 399.224,133.703 398.902,133.569C398.581,133.427 398.224,133.355 397.831,133.355C397.563,133.355 397.264,133.409 396.934,133.516C396.603,133.623 396.259,133.77 395.902,133.958C395.554,134.136 395.201,134.346 394.844,134.587C394.496,134.828 394.166,135.087 393.853,135.364C393.836,135.65 393.827,135.958 393.827,136.288L393.827,140.573C393.827,141.332 393.836,141.997 393.853,142.569C393.871,143.131 393.898,143.618 393.934,144.029C393.969,144.439 394.01,144.783 394.054,145.06C394.099,145.337 394.148,145.569 394.202,145.756L394.202,145.81L391.108,145.81L391.108,145.756C391.162,145.569 391.211,145.337 391.255,145.06C391.309,144.783 391.349,144.439 391.376,144.029C391.412,143.618 391.438,143.131 391.456,142.569C391.483,141.997 391.496,141.332 391.496,140.573L391.496,137.333C391.496,136.574 391.483,135.913 391.456,135.351C391.438,134.779 391.412,134.288 391.376,133.878C391.349,133.467 391.309,133.123 391.255,132.846C391.211,132.57 391.162,132.337 391.108,132.15L391.108,132.096L394.202,132.096L394.202,132.15C394.13,132.355 394.072,132.619 394.027,132.94C393.992,133.253 393.952,133.65 393.907,134.132C394.264,133.846 394.648,133.565 395.059,133.288C395.469,133.012 395.889,132.766 396.317,132.552C396.755,132.337 397.192,132.163 397.63,132.029C398.067,131.896 398.5,131.829 398.929,131.829C399.438,131.829 399.889,131.896 400.281,132.029C400.674,132.163 401.018,132.346 401.313,132.578C401.607,132.811 401.853,133.083 402.049,133.395C402.255,133.708 402.411,134.043 402.518,134.4C402.884,134.087 403.281,133.779 403.71,133.476C404.147,133.163 404.594,132.887 405.049,132.645C405.513,132.404 405.982,132.208 406.455,132.056C406.937,131.904 407.406,131.829 407.861,131.829C408.558,131.829 409.147,131.949 409.629,132.19C410.12,132.431 410.517,132.748 410.821,133.141C411.133,133.534 411.357,133.985 411.491,134.494C411.633,134.994 411.705,135.502 411.705,136.02L411.705,140.573C411.705,141.332 411.714,141.997 411.732,142.569C411.749,143.131 411.776,143.618 411.812,144.029C411.848,144.439 411.888,144.783 411.932,145.06C411.986,145.337 412.04,145.569 412.093,145.756L412.093,145.81L408.986,145.81L408.986,145.756C409.04,145.569 409.089,145.337 409.134,145.06C409.187,144.783 409.232,144.439 409.267,144.029C409.303,143.618 409.33,143.131 409.348,142.569C409.366,141.997 409.375,141.332 409.375,140.573L409.375,136.784C409.375,135.605 409.138,134.739 408.665,134.186C408.192,133.632 407.558,133.355 406.763,133.355C406.486,133.355 406.178,133.409 405.839,133.516C405.509,133.623 405.165,133.77 404.808,133.958C404.451,134.145 404.094,134.364 403.737,134.614C403.379,134.855 403.045,135.114 402.732,135.391C402.75,135.498 402.759,135.605 402.759,135.712L402.759,140.573C402.759,141.332 402.768,141.997 402.786,142.569C402.813,143.131 402.839,143.618 402.866,144.029C402.902,144.439 402.942,144.783 402.987,145.06C403.04,145.337 403.094,145.569 403.147,145.756L403.147,145.81L400.054,145.81L400.054,145.756C400.107,145.569 400.157,145.337 400.201,145.06C400.246,144.783 400.286,144.439 400.322,144.029C400.357,143.618 400.384,143.131 400.402,142.569C400.42,141.997 400.429,141.332 400.429,140.573L400.429,136.784Z" style="fill:rgb(17,17,17);fill-rule:nonzero;"/>
            <path d="M421.735,146.051C420.744,146.051 419.816,145.895 418.95,145.582C418.084,145.27 417.329,144.814 416.687,144.216C416.044,143.609 415.535,142.863 415.16,141.98C414.794,141.087 414.611,140.069 414.611,138.926C414.611,137.917 414.78,136.984 415.12,136.127C415.459,135.261 415.928,134.511 416.526,133.878C417.124,133.244 417.82,132.748 418.615,132.391C419.419,132.034 420.285,131.855 421.213,131.855C422.133,131.855 422.985,132.016 423.771,132.337C424.557,132.65 425.235,133.11 425.806,133.717C426.387,134.315 426.842,135.06 427.172,135.953C427.512,136.837 427.695,137.846 427.721,138.98C426.713,138.962 425.704,138.949 424.695,138.94C423.686,138.931 422.637,138.926 421.548,138.926C420.771,138.926 420.012,138.931 419.271,138.94C418.539,138.949 417.878,138.962 417.289,138.98C417.343,139.908 417.486,140.748 417.718,141.498C417.959,142.247 418.285,142.89 418.695,143.426C419.115,143.953 419.619,144.359 420.209,144.645C420.807,144.93 421.481,145.073 422.231,145.073C422.749,145.073 423.235,145.015 423.691,144.899C424.155,144.774 424.574,144.604 424.949,144.39C425.324,144.176 425.659,143.926 425.954,143.64C426.248,143.346 426.498,143.029 426.704,142.689L426.864,142.77L425.873,145.153C425.391,145.403 424.815,145.618 424.146,145.796C423.476,145.966 422.673,146.051 421.735,146.051ZM418.561,137.882L422.633,137.882C423.534,137.873 424.351,137.855 425.083,137.828C425.003,137.051 424.851,136.355 424.628,135.739C424.405,135.123 424.119,134.601 423.771,134.172C423.423,133.744 423.012,133.413 422.539,133.181C422.066,132.949 421.543,132.833 420.972,132.833C420.454,132.833 419.977,132.949 419.539,133.181C419.111,133.404 418.736,133.73 418.414,134.159C418.093,134.587 417.834,135.114 417.637,135.739C417.441,136.355 417.325,137.06 417.289,137.855C417.691,137.873 418.115,137.882 418.561,137.882Z" style="fill:rgb(17,17,17);fill-rule:nonzero;"/>
        </g>
    </g>
</svg>
