<?xml version="1.0" encoding="UTF-8" standalone="no"?>
<!DOCTYPE svg PUBLIC "-//W3C//DTD SVG 1.1//EN" "http://www.w3.org/Graphics/SVG/1.1/DTD/svg11.dtd">
<svg width="100%" height="100%" viewBox="0 0 600 300" version="1.1" xmlns="http://www.w3.org/2000/svg" xmlns:xlink="http://www.w3.org/1999/xlink" xml:space="preserve" xmlns:serif="http://www.serif.com/" style="fill-rule:evenodd;clip-rule:evenodd;stroke-linejoin:round;stroke-miterlimit:2;">
    <g transform="matrix(0.473891,0,0,0.473891,-24.809,2.67617)">
        <g transform="matrix(1.05847,0,0,1.05847,512.782,419.67)">
            <path d="M0,-219.396L45.342,-236.298C23.582,-203.256 0.105,-157.654 -4.858,-109.412C-9.16,-104.459 -35.17,-81.858 -150.871,-81.858C-266.572,-81.858 -292.583,-104.459 -296.884,-109.412C-301.848,-157.654 -325.325,-203.256 -347.084,-236.299L-301.743,-219.396C-301.268,-219.219 -300.785,-219.062 -300.297,-218.925C-290.908,-216.297 -281.501,-214.965 -272.337,-214.965C-210.177,-214.965 -171.22,-274.127 -150.873,-318.02C-130.528,-274.126 -91.574,-214.965 -29.405,-214.965C-20.241,-214.965 -10.834,-216.297 -1.445,-218.925C-0.957,-219.062 -0.475,-219.219 0,-219.396M-20.786,-34.216C-24.426,-27.496 -28.998,-22.281 -33.557,-17.216C-42.727,-7.026 -52.285,3.228 -58.45,18.159C-60.525,23.187 -62.169,28.645 -64.226,33.69C-68.074,43.126 -73.272,50.901 -78.417,58.574C-82.645,64.88 -86.955,71.277 -92.142,75.327C-98.607,80.375 -105.979,81.42 -113.164,81.668C-118.806,81.863 -124.757,81.483 -129.574,76.756C-133.783,72.626 -136.58,65.706 -140.152,60.241C-142.562,56.554 -145.926,52.981 -149.242,52.005C-149.485,51.921 -149.728,51.855 -149.975,51.812C-150.276,51.761 -150.573,51.753 -150.872,51.75C-151.17,51.753 -151.466,51.761 -151.768,51.812C-152.015,51.855 -152.258,51.921 -152.5,52.005C-155.816,52.981 -159.181,56.554 -161.591,60.241C-165.163,65.706 -167.96,72.626 -172.168,76.756C-176.985,81.483 -182.937,81.863 -188.579,81.668C-195.764,81.42 -203.136,80.375 -209.601,75.327C-214.788,71.277 -219.098,64.88 -223.326,58.574C-228.471,50.901 -233.669,43.126 -237.517,33.69C-239.574,28.645 -241.218,23.187 -243.293,18.159C-249.458,3.228 -259.016,-7.026 -268.186,-17.216C-272.745,-22.281 -277.317,-27.496 -280.957,-34.216C-285.328,-42.285 -289.386,-65.987 -292.758,-84.777C-271.763,-74.391 -230.765,-63.739 -150.871,-63.739C-70.979,-63.739 -29.98,-74.39 -8.984,-84.777C-12.357,-65.986 -16.415,-42.285 -20.786,-34.216M-29.405,-233.084C-113.442,-233.084 -150.871,-369.089 -150.871,-369.089C-150.871,-369.089 -188.312,-233.084 -272.337,-233.084C-279.676,-233.084 -287.358,-234.119 -295.414,-236.374L-400.161,-275.421C-400.161,-275.421 -321.981,-192.816 -314.605,-104.311C-314.605,-104.311 -313.527,-98.749 -304.269,-91.745C-306.049,-75.018 -306.556,-50.63 -306.735,-35.186C-307.031,-9.819 -304.085,16.094 -296.169,38.043C-282.58,75.726 -256.689,96.694 -231.929,114.375C-206.055,132.851 -178.561,149.693 -150.872,142.117C-123.182,149.693 -95.688,132.851 -69.814,114.375C-45.054,96.694 -19.163,75.726 -5.573,38.043C2.342,16.094 5.288,-9.819 4.993,-35.186C4.813,-50.63 4.307,-75.018 2.526,-91.745C11.784,-98.749 12.863,-104.311 12.863,-104.311C20.239,-192.816 98.418,-275.421 98.418,-275.421L-6.329,-236.374C-14.378,-234.121 -22.071,-233.084 -29.405,-233.084" style="fill:rgb(240,217,93);fill-rule:nonzero;"/>
        </g>
        <g transform="matrix(0.273926,-1.02241,-1.02241,-0.273926,340.152,353.958)">
            <path d="M-8.851,-6.792C-10.788,-6.815 -12.358,-2.729 -12.358,2.332C-12.358,7.392 -10.788,11.513 -8.851,11.536C-6.914,11.558 -5.344,7.473 -5.343,2.412C-5.344,-2.649 -6.914,-6.77 -8.851,-6.792" style="fill:rgb(240,217,93);fill-rule:nonzero;"/>
        </g>
        <g transform="matrix(0.273926,1.02241,1.02241,-0.273926,366.026,353.957)">
            <path d="M8.852,-6.792C10.789,-6.814 12.358,-2.729 12.358,2.331C12.359,7.391 10.789,11.512 8.852,11.535C6.914,11.557 5.345,7.472 5.344,2.411C5.344,-2.649 6.914,-6.769 8.852,-6.792" style="fill:rgb(240,217,93);fill-rule:nonzero;"/>
        </g>
        <g transform="matrix(1.05847,0,0,1.05847,331.992,299.386)">
            <path d="M0,-72.985L0,-84.621L39.864,-84.621L39.864,-72.985L29.551,-71.002L29.551,-1.917L39.864,0.067L39.864,11.636L0,11.636L0,0.067L10.313,-1.917L10.313,-71.002L0,-72.985Z" style="fill:rgb(240,217,93);fill-rule:nonzero;"/>
        </g>
        <g transform="matrix(1.05847,0,0,1.05847,353.089,194.555)">
            <path d="M0,-45.516L5.649,-28.13L23.929,-28.13L9.14,-17.386L14.789,0L0,-10.745L-14.789,0L-9.14,-17.386L-23.929,-28.13L-5.649,-28.13L0,-45.516Z" style="fill:rgb(240,217,93);fill-rule:nonzero;"/>
        </g>
        <g transform="matrix(1.05847,0,0,1.05847,404.09,456.016)">
            <path d="M0,-62.45L0.993,-44.74C1.115,-42.557 -0.571,-40.672 -2.753,-40.55L-18.163,-39.686C-20.346,-39.563 -22.231,-41.25 -22.354,-43.432L-23.262,-59.643L-34.785,-58.253L-33.378,-33.147C-33.256,-30.965 -34.942,-29.079 -37.125,-28.957L-52.534,-28.093C-54.717,-27.971 -56.603,-29.657 -56.725,-31.84L-58.048,-55.446L-69.057,-54.118L-65.864,-37.688C-65.447,-35.543 -66.861,-33.446 -69.007,-33.028L-84.158,-30.084C-86.303,-29.667 -88.4,-31.082 -88.818,-33.227L-92.332,-51.309L-121.541,-47.786C-121.541,-47.786 -81.462,2.56 -36.085,-3.733C9.292,-10.026 21.216,-65.01 21.216,-65.01L0,-62.45Z" style="fill:rgb(240,217,93);fill-rule:nonzero;"/>
        </g>
    </g>
    <g transform="matrix(2.00799,0,0,2.00799,-206.427,-211.4)">
        <path d="M259.521,179.603L259.521,155.353L254.671,155.353L254.671,179.603L259.521,179.603ZM257.021,151.003C257.855,151.003 258.571,150.719 259.171,150.153C259.771,149.553 260.071,148.836 260.071,148.003C260.071,147.136 259.771,146.419 259.171,145.853C258.571,145.286 257.855,145.003 257.021,145.003C256.188,145.003 255.488,145.303 254.921,145.903C254.355,146.469 254.071,147.169 254.071,148.003C254.071,148.869 254.355,149.586 254.921,150.153C255.488,150.719 256.188,151.003 257.021,151.003Z" style="fill:rgb(202,202,202);fill-rule:nonzero;"/>
        <path d="M281.371,175.503L283.471,179.603L286.221,179.603L286.221,144.353L281.371,144.853L281.371,175.503ZM282.871,172.503C281.838,173.736 280.805,174.653 279.771,175.253C278.771,175.853 277.538,176.153 276.071,176.153C274.538,176.153 273.238,175.769 272.171,175.003C271.105,174.236 270.288,173.186 269.721,171.853C269.188,170.519 268.921,168.986 268.921,167.253C268.921,165.653 269.205,164.219 269.771,162.953C270.338,161.686 271.155,160.686 272.221,159.953C273.288,159.186 274.571,158.803 276.071,158.803C277.505,158.803 278.755,159.086 279.821,159.653C280.921,160.219 281.988,161.153 283.021,162.453L284.421,159.053C283.721,157.986 282.838,157.136 281.771,156.503C280.738,155.869 279.705,155.419 278.671,155.153C277.638,154.853 276.788,154.703 276.121,154.703C273.688,154.703 271.555,155.236 269.721,156.303C267.921,157.336 266.521,158.803 265.521,160.703C264.521,162.569 264.021,164.769 264.021,167.303C264.021,169.903 264.505,172.169 265.471,174.103C266.438,176.036 267.821,177.553 269.621,178.653C271.455,179.719 273.605,180.253 276.071,180.253C276.771,180.253 277.621,180.103 278.621,179.803C279.655,179.503 280.688,179.036 281.721,178.403C282.755,177.736 283.621,176.919 284.321,175.953L282.871,172.503Z" style="fill:rgb(202,202,202);fill-rule:nonzero;"/>
        <path d="M297.571,179.603L297.571,155.353L292.721,155.353L292.721,179.603L297.571,179.603ZM295.071,151.003C295.905,151.003 296.621,150.719 297.221,150.153C297.821,149.553 298.121,148.836 298.121,148.003C298.121,147.136 297.821,146.419 297.221,145.853C296.621,145.286 295.905,145.003 295.071,145.003C294.238,145.003 293.538,145.303 292.971,145.903C292.405,146.469 292.121,147.169 292.121,148.003C292.121,148.869 292.405,149.586 292.971,150.153C293.538,150.719 294.238,151.003 295.071,151.003Z" style="fill:rgb(202,202,202);fill-rule:nonzero;"/>
        <path d="M314.071,180.253C311.605,180.253 309.471,179.719 307.671,178.653C305.871,177.553 304.488,176.053 303.521,174.153C302.555,172.219 302.071,169.986 302.071,167.453C302.105,164.919 302.605,162.703 303.571,160.803C304.571,158.903 305.971,157.419 307.771,156.353C309.605,155.253 311.771,154.703 314.271,154.703C316.771,154.703 318.921,155.253 320.721,156.353C322.521,157.419 323.905,158.919 324.871,160.853C325.838,162.753 326.321,164.969 326.321,167.503C326.321,170.003 325.821,172.219 324.821,174.153C323.821,176.053 322.405,177.553 320.571,178.653C318.771,179.719 316.605,180.253 314.071,180.253ZM314.121,176.153C315.655,176.153 316.955,175.769 318.021,175.003C319.121,174.236 319.955,173.203 320.521,171.903C321.121,170.603 321.421,169.153 321.421,167.553C321.421,165.853 321.138,164.353 320.571,163.053C320.038,161.719 319.238,160.686 318.171,159.953C317.105,159.186 315.805,158.803 314.271,158.803C312.771,158.803 311.471,159.186 310.371,159.953C309.305,160.719 308.471,161.753 307.871,163.053C307.305,164.353 307.005,165.803 306.971,167.403C306.971,169.069 307.238,170.569 307.771,171.903C308.338,173.236 309.155,174.286 310.221,175.053C311.288,175.786 312.588,176.153 314.121,176.153Z" style="fill:rgb(202,202,202);fill-rule:nonzero;"/>
        <path d="M341.221,155.653L336.821,155.653L336.821,148.503L332.021,149.603L332.021,155.653L328.571,155.653L328.621,159.303L332.021,159.303L332.021,172.853C332.021,174.486 332.338,175.869 332.971,177.003C333.605,178.136 334.505,179.003 335.671,179.603C336.838,180.169 338.205,180.453 339.771,180.453C340.271,180.453 340.771,180.386 341.271,180.253C341.805,180.153 342.305,180.019 342.771,179.853C343.238,179.686 343.605,179.536 343.871,179.403L342.621,175.753C342.288,175.886 341.905,176.019 341.471,176.153C341.071,176.253 340.671,176.303 340.271,176.303C339.071,176.303 338.188,175.919 337.621,175.153C337.088,174.353 336.821,173.336 336.821,172.103L336.821,159.303L342.721,159.303L341.221,155.653Z" style="fill:rgb(202,202,202);fill-rule:nonzero;"/>
        <path d="M346.571,178.053C347.271,178.519 348.105,178.919 349.071,179.253C350.071,179.586 351.071,179.836 352.071,180.003C353.071,180.169 353.905,180.253 354.571,180.253C357.771,180.253 360.205,179.619 361.871,178.353C363.571,177.053 364.421,175.269 364.421,173.003C364.421,171.669 364.005,170.503 363.171,169.503C362.371,168.503 361.338,167.653 360.071,166.953C358.838,166.219 357.555,165.619 356.221,165.153C354.755,164.653 353.555,164.136 352.621,163.603C351.721,163.036 351.255,162.386 351.221,161.653C351.221,160.786 351.621,160.069 352.421,159.503C353.255,158.903 354.305,158.603 355.571,158.603C356.871,158.603 358.021,158.769 359.021,159.103C360.055,159.436 361.038,159.819 361.971,160.253L363.471,157.003C362.805,156.503 361.988,156.086 361.021,155.753C360.055,155.419 359.088,155.169 358.121,155.003C357.188,154.803 356.371,154.703 355.671,154.703C352.838,154.703 350.588,155.336 348.921,156.603C347.288,157.836 346.471,159.553 346.471,161.753C346.471,163.053 346.871,164.169 347.671,165.103C348.471,166.036 349.471,166.819 350.671,167.453C351.905,168.086 353.155,168.619 354.421,169.053C355.488,169.386 356.421,169.769 357.221,170.203C358.021,170.603 358.655,171.053 359.121,171.553C359.588,172.053 359.821,172.619 359.821,173.253C359.821,173.853 359.605,174.386 359.171,174.853C358.738,175.319 358.121,175.686 357.321,175.953C356.555,176.219 355.638,176.353 354.571,176.353C353.838,176.353 353.105,176.286 352.371,176.153C351.638,176.019 350.905,175.836 350.171,175.603C349.471,175.336 348.771,175.036 348.071,174.703L346.571,178.053Z" style="fill:rgb(202,202,202);fill-rule:nonzero;"/>
    </g>
    <g transform="matrix(2.00799,0,0,2.00799,-206.427,-123.617)">
        <path d="M278.721,179.603L286.271,155.353L281.321,155.353L276.571,172.453L271.571,155.353L266.521,155.353L261.771,172.453L256.771,154.503L252.171,156.203L259.521,179.603L263.921,179.603L268.971,162.353L274.321,179.603L278.721,179.603Z" style="fill:rgb(202,202,202);fill-rule:nonzero;"/>
        <path d="M294.621,179.603L294.621,155.353L289.771,155.353L289.771,179.603L294.621,179.603ZM292.121,151.003C292.955,151.003 293.671,150.719 294.271,150.153C294.871,149.553 295.171,148.836 295.171,148.003C295.171,147.136 294.871,146.419 294.271,145.853C293.671,145.286 292.955,145.003 292.121,145.003C291.288,145.003 290.588,145.303 290.021,145.903C289.455,146.469 289.171,147.169 289.171,148.003C289.171,148.869 289.455,149.586 290.021,150.153C290.588,150.719 291.288,151.003 292.121,151.003Z" style="fill:rgb(202,202,202);fill-rule:nonzero;"/>
        <path d="M305.421,179.603L305.421,162.503C306.221,161.803 307.055,161.169 307.921,160.603C308.788,160.003 309.655,159.536 310.521,159.203C311.421,158.836 312.271,158.653 313.071,158.653C314.638,158.653 315.688,159.153 316.221,160.153C316.788,161.119 317.071,162.419 317.071,164.053L317.071,179.603L321.871,179.603L321.871,163.603C321.871,161.869 321.605,160.319 321.071,158.953C320.538,157.586 319.688,156.519 318.521,155.753C317.388,154.953 315.905,154.553 314.071,154.553C312.971,154.553 311.855,154.736 310.721,155.103C309.621,155.436 308.571,155.903 307.571,156.503C306.571,157.103 305.655,157.786 304.821,158.553L303.971,155.353L300.621,155.353L300.621,179.603L305.421,179.603Z" style="fill:rgb(202,202,202);fill-rule:nonzero;"/>
        <path d="M329.271,179.603C330.105,179.603 330.788,179.319 331.321,178.753C331.888,178.153 332.171,177.419 332.171,176.553C332.171,175.719 331.888,175.019 331.321,174.453C330.788,173.886 330.105,173.603 329.271,173.603C328.371,173.603 327.621,173.903 327.021,174.503C326.455,175.069 326.171,175.769 326.171,176.603C326.171,177.436 326.455,178.153 327.021,178.753C327.621,179.319 328.371,179.603 329.271,179.603Z" style="fill:rgb(202,202,202);fill-rule:nonzero;"/>
    </g>
</svg>
