<?xml version="1.0" encoding="UTF-8" standalone="no"?>
<!DOCTYPE svg PUBLIC "-//W3C//DTD SVG 1.1//EN" "http://www.w3.org/Graphics/SVG/1.1/DTD/svg11.dtd">
<svg width="100%" height="100%" viewBox="0 0 600 300" version="1.1" xmlns="http://www.w3.org/2000/svg" xmlns:xlink="http://www.w3.org/1999/xlink" xml:space="preserve" xmlns:serif="http://www.serif.com/" style="fill-rule:evenodd;clip-rule:evenodd;stroke-linejoin:round;stroke-miterlimit:2;">
    <g transform="matrix(1,0,0,1,9.49999,9)">
        <path d="M145.2,102.1C149,103.9 153.1,105.4 157.2,106.6C158.1,106.9 159.5,106.6 159.8,106.3C160.1,105.1 159.5,104.2 158.3,103.6C156.2,102.7 154.2,101.8 152.1,100.6C148.3,97.9 144.8,95.2 140.9,92.6C139.1,91.4 137.4,90.2 135.9,88.7C135,88.1 134.1,87.2 133.3,86.3C132.1,85.1 131,85.1 129.8,86.3C128.6,87.5 127.2,88.7 126,90.2C120.7,88.1 116.9,84.3 114.8,78.9C113.3,75 111.9,71.2 110.1,67.3C106.3,59 102.2,50.6 96,43.8C91.8,39 88.6,33.4 85,28C82.1,23.5 78.2,20 72.7,18.5C65.7,16.7 58.9,14.6 52.1,12C46.8,10.2 42.4,10.5 38,13.8C36.8,14.7 35.7,14.7 34.5,14.1C31.9,15 30.4,14.7 28.9,14.7C22.7,13.8 17.2,14.4 12.2,18.3C9.9,20.1 8.7,22.5 9,25.4C9.3,28.1 9,30.8 9.6,33.1C10.5,36.1 11.1,39 13.7,41.4C15.5,42.9 15.2,43.8 13.1,45C6.6,47.7 6.3,53.3 6.9,58.7C7.2,60.2 8.7,61.4 9.8,62.6C11.3,63.2 12.7,64.4 14.2,65.9C13,67.1 12.1,68.3 11,69.5C9.8,70.7 9.8,72.2 9.8,74C9.8,79.7 12.7,83.2 16.6,86.8C17.2,87.4 17.8,87.7 18.4,88.3L18.4,88.6C17.5,89.5 16.3,90.4 15.8,91.6C14.9,94.3 14.9,97 15.8,99.6C17,103.5 19.9,104.4 23.1,105.3C30.1,107.7 36.9,110.4 43.4,114.2C47.5,116.6 50.7,120.4 54.3,123.4C58.7,127.3 63.1,131.4 68.1,134.4C71.9,136.8 76.6,137.4 81,138.9C86,140.4 91,140.7 96,139.5C98.1,138.9 100.1,139.5 101.6,141.6C103.4,144 105.7,146.1 107.8,148.4C105.2,152 104.9,156.4 104.6,160.6C104,165.1 104,169.8 104.3,174.3C104.3,176.4 104.9,178.5 105.5,180.2C106.1,182 107.6,182.9 109.3,183.8C116.1,187.1 122.5,190.3 129.3,193.6C135.2,196.3 141.3,198.7 147.2,200.7C149.3,201.6 149.5,200.7 149.8,198.3C140.1,192.6 130.7,187.3 121.3,181.6C121,181.3 120.7,181.3 120.4,181C119.8,180.4 118.6,179.8 119.5,178.9C119.8,178.6 121,178.9 121.6,179.2C127.8,182.5 134.2,186 140.4,189.3C140.9,189.6 141.7,189.8 142.3,189.9C145,191.3 147.7,192.7 150.4,194.1C151.1,194.4 151.8,194.8 152.5,194.7C153.2,194.6 153.9,193.9 153.6,193.2L149.2,189.6C147.4,189.1 145.6,188.7 143.9,188.2C143.8,187.9 143.7,187.7 143.4,187.5C140.5,185.4 137.2,183.6 134,181.6C130.8,179.5 127.2,177.7 124,175.7C123.4,175.4 122.8,174.8 122.5,174.2C122.2,173.9 122.2,173 122.5,172.4C122.8,172.1 123.7,172.1 124,172.4C126.1,173.9 128.1,175.4 130.2,176.9C134.6,179.9 139,183.1 144.6,184L145.4,184C145.7,184.2 146.1,184.5 146.4,184.7C148.9,186.5 151.4,188.2 153.9,190C154.8,190.6 155.7,191.2 156.8,191.1C158.1,190.9 159,189.5 159.1,188.2C159.2,186.9 158.6,185.6 158.1,184.4L152.3,182.8C150.1,182.6 147.9,182.4 145.7,182.2C145.1,181.5 144.5,180.8 143.8,180.4C139.7,178 135.6,175.6 131.5,173.3C129.2,172.1 127.1,170.6 125,169.1C124.1,168.5 123.8,167.6 124.7,167C125,166.7 126.2,166.7 126.5,167C130.9,170.6 136.2,173.2 141.5,175.6C142.4,175.9 143.6,176.5 144.4,176.5C144.9,176.5 145.3,176.4 145.8,176.3C148.3,178.7 151.7,180.3 155.1,180.6C155.7,180.7 156.3,180.7 156.8,180.3C157.3,179.9 157.4,179.1 157.2,178.5C157,177.9 156.5,177.4 156.1,176.9L154.4,177.6C152,176.9 149.5,176.2 147.1,175.6L147.1,175.1C145.9,174.5 144.8,173.6 143.6,173C138.3,170 133,166.8 128,163.8C125.9,162.6 125.9,162.3 127.1,159.6C127.7,160.2 128.6,160.5 129.2,161.1C135.1,165.6 141.2,168.8 148.3,171.5C149.8,172.1 150.4,171.2 150.9,170.3C151.5,168.8 150.3,168.8 149.4,168.5C143.8,166.7 139.4,163.4 134.7,160.2C132.6,158.7 130.6,157.8 128.8,156.3C128.5,156 128.5,155.4 128.2,155.1C128.5,155.1 129.1,154.5 129.4,154.8C130.6,155.4 131.7,156 132.6,156.3C138.2,159.3 143.5,162 149,164.9C149.9,165.5 151.1,165.5 152.2,165.5C152.2,165.5 152.2,165.2 152.5,165.2C152.2,164.9 152.2,164.6 151.9,164.6C146.6,161.3 141.6,157.8 136.3,154.8C134.5,153.6 132.5,153 130.4,152.1C129.2,151.5 128.9,150.9 129.5,149.7C130.1,148.2 131,149.1 131.6,149.7C138.1,153 144.8,156.5 151.3,159.8C151.9,160.1 153.1,160.1 153.6,160.1C153.6,159.8 153.6,159.8 153.9,159.5C153.6,159.2 153.3,158.9 153,158.6C148,155.6 143,152.7 137.7,149.4C135.9,148.5 134.2,147.3 132.4,146.4C130.3,145.5 130.3,144.6 131.5,142.5C134.1,143.7 136.5,144.9 139.1,146.1C143.8,148.2 148.5,150.3 153.2,152.3C153.8,152.6 154.4,152.3 155.3,152.6C155.3,152.3 155.3,152.3 155.6,152C154.7,151.4 153.8,150.8 153,150.2C146.5,146.6 140.1,143.1 133.9,139.2C133.3,138.9 133,137.7 132.7,137.1C133,136.8 133,136.8 133.3,136.5C135.1,137.4 136.5,138.3 138.3,139.2C142.1,141.3 145.9,143.4 150,145.4C151.5,146 152.9,146.3 154.7,146.9C154.7,146.6 155,146.6 155,146.3C153.2,145.1 151.5,143.3 149.4,142.4C144.7,139.7 140,137.3 135.3,135C133.5,134.1 133.5,133.8 134.4,132C141.4,135.3 148.5,138.5 155.5,141.5C155.8,141.2 155.8,140.9 156.1,140.6C154.6,139.7 152.9,138.5 151.4,137.6C146.4,134.6 141.4,131.7 136.7,129C135.5,128.4 135.2,127.5 136.1,126C142.3,129 148.4,132.5 155.2,134C155.2,133.7 155.5,133.7 155.5,133.4C155.2,133.1 154.9,132.8 154.6,132.5C149,129.2 143.7,126 138.2,122.7C137.6,122.4 137.6,121.2 137,120.6L139.1,120.6C145.3,123.3 151.1,126.3 157.3,128.9C157.3,128.9 157.6,128.9 158.5,128.6C157.3,127.7 156.4,127.1 155.9,126.5C150.6,123.2 145.3,120 140,116.7C139.1,116.1 137.9,115.5 138.8,113.7C145,117.6 150.8,122 158.2,123.2C158.2,122.9 158.5,122.9 158.5,122.6C157.6,122 156.7,121.1 155.6,120.5C150.6,117.5 145.6,114.6 140.9,111.3C140.6,111 140,111 139.7,110.4C139.4,109.8 139.4,109.2 139.1,108.6C139.7,108.6 140.3,108.3 140.6,108.6C142.9,109.8 145.3,111.6 147.6,112.8C150.5,114.3 153.5,115.5 156.4,116.7C157,117 157.9,116.7 158.5,117C158.5,116.7 158.5,116.7 158.8,116.4C152.3,112.5 145.9,108.4 139.4,104.5C139.4,104.2 139.7,104.2 139.7,103.9C145.9,107.5 151.7,111.6 159.1,110.7C152.1,107.7 145.6,103.9 139.4,99.4L139.4,98.5C141.4,100 143.2,101.5 145.2,102.1ZM128.5,92.9C128.8,92.3 129.1,91.7 129.7,91.7C130,91.7 130.6,92.3 130.9,92.6C131.2,93.8 131.8,95.3 132.4,96.5L132.1,96.8C130.9,95.9 129.8,95.3 128.9,94.4C128.5,94 128.2,93.2 128.5,92.9ZM14.5,31.3C11.9,27.7 11.6,24.2 13.9,20.6C15.1,18.8 18.9,16.7 20.9,17C24.1,17.6 27.4,18.5 30.9,19.1C28.8,21.2 28.8,21.2 26.2,20.9C25.3,20.9 24.4,21.2 23.3,21.2C23.6,22.1 23.9,23 24.5,24.2C21.3,26.5 18.1,28.9 14.5,31.3ZM27.2,29.5C27.5,30.1 27.8,30.7 27.5,31.3C25.7,34.3 21.3,35.2 18.1,33.1C20.7,31 23.4,29.2 25.7,27.4C26.3,28.3 26.9,28.9 27.2,29.5ZM13.9,58.7C13,58.1 11.8,57.5 11.6,56.6C9.5,51.5 13.4,45.9 18.6,45.9C23,45.9 27.4,46.5 31.5,46.8C36.2,47.4 40.9,48 45.6,48.6C49.7,49.2 53.5,49.8 57.6,50.7C61.4,51.6 64.1,56.9 62.9,60.8C62.9,61.1 62.6,61.7 62.3,61.7C59.7,63.2 57,63.2 54.7,63.2C54.4,60.5 54.4,58.1 54.1,55.5C55.3,56.1 56.4,56.4 57.6,56.7C58.5,57 59.7,57.3 60.5,57C61.4,57 61.7,56.1 60.8,55.2C58.5,53.1 55.8,51.9 52.3,52.5C50.8,52.8 50,54.3 50.2,55.5C50.5,57.6 50.8,59.7 51.1,61.7C51.1,62 50.5,62.9 50.2,62.9C48.1,63.2 45.8,63.2 44,63.5C43.7,61.1 43.4,59.3 43.1,57.3L42.2,57.3C41.6,58.8 41,60.3 40.4,61.5C39.8,62.7 39.2,63.3 37.8,63C32.5,62.7 27.2,62.4 21.9,61.8C17.8,61.5 16.3,59.7 16.3,55.3C16.3,54.7 16.3,54.1 16,53.5C15.7,53.5 15.4,53.5 15.1,53.2C15.1,55.4 14.5,56.9 13.9,58.7ZM43.6,42.9C43.6,42.6 44.2,41.7 44.8,41.1C45.1,41.1 45.1,41.1 45.4,41.4C45.7,42.3 46,42.9 46,43.8C45.7,44.1 45.7,44.1 45.4,44.4C44.8,43.8 43.9,43.5 43.6,42.9ZM48.6,40.5C50.4,41.4 51.5,42.3 50.7,44.4C49.2,44.1 48.3,42.6 48.6,40.5ZM18.1,78.9L18.1,78.6C17.8,78.3 17.2,77.4 17.2,77.4C16.6,77.7 16,78 15.4,78.6C15.7,78.3 16,78.9 16,79.5C15.7,79.5 15.7,79.8 15.4,79.8C14.5,78.6 13.3,77.1 13.3,75.9C13.3,74.1 13.3,71.4 14.5,70.5C17.1,67.8 21,66.9 24.8,67.5C32.1,68.4 39.5,69.3 47.1,68.4C50.6,68.1 53.9,67.8 57.4,67.8C60.9,67.8 63,69.6 63.9,73.5C64.5,76.2 62.1,79.4 60.1,80.3C57.8,81.2 55.4,82.4 53.1,83C49.9,83.6 46.9,83.9 43.7,84.5C44,82.1 44,80 44,78C44,77.7 43.7,77.1 43.4,76.8C42.8,77.1 42.2,77.1 41.9,77.4C41.6,77.7 41.6,78.3 41.3,78.9C40.7,81 40.1,82.8 39.5,84.6L37.2,84.6C32.5,84.3 27.8,83.7 23.1,83.4C19.5,83 18.9,82.1 18.1,78.9ZM40.4,100.6C40.4,99.7 40.4,98.8 40.1,98.2C39.8,97.9 39.2,97.9 38.6,97.6C38,98.8 37.7,99.7 37.4,101.2C37.1,101.2 36.5,101.2 35.9,101.5C31.5,102.1 26.8,101.8 22.4,100.6C20.6,100 19.2,99.1 18.6,97.6C18,95.5 17.7,92.5 19.8,91.4C21.9,89.9 24.5,89 27.1,88.7C32.1,88.1 37.1,88.4 42.1,88.1C45.9,88.1 49.7,87.5 53.6,87.5C54.5,87.5 55.4,88.1 55.9,88.7C57.4,90.8 56.2,94.6 54.1,95.8C50.3,98.2 47.6,96.7 47.1,92.5C46.8,90.7 47.7,90.4 49.2,90.1L53.3,90.1C53.9,90.1 54.5,89.8 55.1,89.8C55.1,89.5 55.1,89.5 55.4,89.2C55.1,88.9 54.8,88.6 54.5,88.6C52.4,88.3 50.1,87.7 48,88C44.5,88.6 43.3,91.3 45.1,94.5C46,96 46.9,97.2 47.7,99C45.1,99.7 42.7,100 40.4,100.6ZM120.9,160.1C118.8,165.8 116.8,171.4 114.7,176.8C114.4,177.4 113.8,178.3 113.2,178.9C111.1,181 109.4,180.4 108.5,177.1C111.7,177.1 114.1,175.6 115.5,172.6C116.4,171.1 117,169.3 117.6,167.8C118.5,164.5 119.7,161.6 120.5,158.6L121.1,158.6C121.2,159.2 121.2,159.8 120.9,160.1ZM132.3,116.1C131.7,120.6 130.5,125 129.4,129.5C127.3,137.5 125.3,145.6 123.2,153.6C122.9,154.8 122.3,156 121.7,157.8C119.4,155.1 117,152.7 114.9,150.7C111.7,146.8 107.9,143.3 105.2,139.1C103.7,136.7 102,135.2 99.6,133.4C98.7,134.9 97.8,134.6 96.7,134C94.1,132.5 91.7,131 89.1,129.5C88.5,129.2 87.6,128.9 87,128.9C87,129.2 86.7,129.5 86.7,129.5C87.9,131 88.8,132.5 89.9,134C89.6,134 89.6,134.3 89.3,134.3C86.4,131.9 83.7,129.2 80.5,126.6C81.1,128.7 81.4,130.5 81.7,132.3C78.8,131.1 77.9,127.2 74.1,126.4C74.7,128.2 75,129.7 75.6,131.2C72.4,129.4 71.5,125.5 67.7,124.4C68,125.9 68.3,126.8 68.6,127.4C68.3,127.4 68.3,127.7 68,127.7C66.5,125.9 64.8,124.1 63,122.3C62.1,123.5 61.5,123.2 60.7,122.3C59.8,121.4 58.6,120.5 57.8,119.6C55.7,117.2 52.5,116 51.3,112.8C51,111.9 50.4,108.9 47.8,111.9C46.6,109.8 45.5,108 44.3,106.2C48.4,104.4 52.2,102.6 56,101.1C56.9,103.2 57.2,105.6 59.5,107C59.2,102.2 57.7,97.8 60.7,93.6C63.9,98.1 65.1,103.4 68.6,107C68.9,107 68.9,106.7 69.2,106.7C68.3,102.5 67.4,98.4 66.6,94.2C66.9,94.2 66.9,94.2 67.2,93.9C67.5,94.2 68.1,94.5 68.4,95.1C70.2,97.2 71.6,99.3 73.4,101C74.9,102.8 76.6,104 77.8,105.8C79.6,107.9 81.6,109.1 84.3,109.7C86.9,110.6 90.2,110.6 92.8,110.9C93.1,110.9 93.4,110.6 94,110.3C94,110 94,110 94.3,109.7C90.2,108.2 85.8,107.9 82.8,104.3C80.2,100.7 77.2,97.8 74.6,94.2C72,90.6 69.3,87.4 69.6,82.6C71.7,84.1 73.4,85.9 75.8,87.1C77.6,88 79.6,87.7 81.7,88C82,88 82.6,87.4 83.2,86.8C82.3,86.5 81.7,86.5 81.4,86.2C79.3,85.3 77.3,84.7 75.5,83.5C71.1,80.5 69.6,76.1 68.2,71C67.9,69.2 67,67.7 67,65.9C67,63.2 67.6,60.8 67.9,58.2C68.5,55.5 70,53.7 72.3,52.3C73.2,51.7 74.1,51.1 75.2,50.2C70.8,47.8 68.4,50.5 66.1,52.9C64.9,50.8 65.2,49.6 67,47.5C67.3,47.2 67.3,46.6 67.6,46C67,46 66.4,45.4 66.1,45.7C64.9,46.3 63.8,47.2 62.6,48.1C61.1,46.9 59.1,46 57.9,44.2C56.4,42.1 55.6,39.7 56.4,36.8C56.7,36.2 56.4,35.6 56.4,35C56.4,34.7 55.8,33.8 55.8,33.8C55.2,33.8 54.9,34.1 54.6,34.7C54,35.3 53.7,36.2 53.1,37.1L52.5,37.1C52.2,35.6 52.2,34.4 51.9,32.9C51.6,31.7 51.6,29.9 49.6,29.3C49.9,31.7 50.2,33.8 50.2,35.5C49,34.6 48.7,33.7 47.9,32.8C47.6,32.2 46.7,31.9 46.1,31.3C45.8,32.2 45.8,32.8 45.5,33.7C45.2,34.6 45.5,35.8 45.2,36.4C42.3,39.7 38.4,41.8 34,42.3C29.9,42.9 26.1,42 22.5,40.5C20.7,39.6 18.7,38.7 17.5,36.3C22.2,38.4 25.4,36.3 28.7,33.3C31.6,30.3 31,27.9 26.9,26.5C31.3,23.2 35.4,20 39.2,17C41,15.5 43,15.2 45.1,15.8C48.6,16.7 52.1,17.9 55.4,19.1C60.1,20.9 64.5,23.3 69.5,24.2C71.3,24.5 73.3,25.1 75.1,26C78.6,28.1 81,31.4 83,35.2C85.1,38.8 87.1,42.6 89.8,45.3C95.1,50.7 99.2,56.9 102.4,63.7C105.3,69.4 107.4,75.6 110,81.2C112.1,85.4 114.4,89.5 118.5,92.5C120.8,94 122.9,95.8 125.3,97.3C127.4,98.5 129.1,100.6 131.8,99.7C132.1,99.7 132.4,100.3 132.7,100.6C133.5,105.9 133.2,111 132.3,116.1Z" style="fill:rgb(135,135,135);fill-rule:nonzero;"/>
    </g>
    <g>
        <path d="M218.2,153.8C214.7,157.5 209.6,159.3 203.1,159.3C199,159.3 195.4,158.5 192.3,156.9C189.2,155.3 186.9,153.2 185.2,150.6C183.6,148 182.7,145.2 182.6,142.2C182.6,141.7 182.8,141.3 183.1,141C183.4,140.7 183.9,140.5 184.3,140.5L188.3,140.5C189.2,140.5 189.8,141.1 190,142.2C190.6,145.2 191.9,147.6 194,149.4C196.1,151.3 199.1,152.2 202.9,152.2C207.4,152.2 210.7,151 212.7,148.6C214.7,146.2 215.8,142.8 215.8,138.2L215.8,110.1L188.4,110.1C187.8,110.1 187.3,109.9 186.9,109.5C186.5,109.1 186.3,108.6 186.3,108L186.3,105.1C186.3,104.5 186.5,104 186.9,103.6C187.3,103.2 187.8,103 188.4,103L221.1,103C221.7,103 222.2,103.2 222.6,103.6C223,104 223.2,104.5 223.2,105.1L223.2,139C223.5,145.2 221.7,150.1 218.2,153.8Z" style="fill:white;fill-rule:nonzero;"/>
        <path d="M244.2,151.4L270.8,151.4C271.4,151.4 271.9,151.6 272.3,152C272.7,152.4 272.9,152.9 272.9,153.5L272.9,156.4C272.9,157 272.7,157.5 272.3,157.9C271.9,158.3 271.4,158.5 270.8,158.5L238.8,158.5C238.2,158.5 237.7,158.3 237.3,157.9C236.9,157.5 236.7,157 236.7,156.4L236.7,105.2C236.7,104.6 236.9,104.1 237.3,103.7C237.7,103.3 238.2,103.1 238.8,103.1L270.2,103.1C270.8,103.1 271.3,103.3 271.7,103.7C272.1,104.1 272.3,104.6 272.3,105.2L272.3,108.1C272.3,108.7 272.1,109.2 271.7,109.6C271.3,110 270.8,110.2 270.2,110.2L244.2,110.2L244.2,126.9L268.5,126.9C269.1,126.9 269.6,127.1 270,127.5C270.4,127.9 270.6,128.4 270.6,129L270.6,131.9C270.6,132.5 270.4,133 270,133.4C269.6,133.8 269.1,134 268.5,134L244.2,134L244.2,151.4Z" style="fill:white;fill-rule:nonzero;"/>
        <path d="M318.6,107.1C322.2,109.8 324,113.9 324,119.4C324,123.5 323,126.9 320.9,129.5C318.8,132.1 316.1,133.9 312.6,135L324.6,155.9C324.8,156.2 324.8,156.5 324.8,156.8C324.8,157.3 324.6,157.7 324.3,158C324,158.3 323.5,158.5 323.1,158.5L319.7,158.5C318.2,158.5 317.1,157.8 316.3,156.4L304.8,136.2L291.2,136.2L291.2,156.4C291.2,157 291,157.5 290.6,157.9C290.2,158.3 289.7,158.5 289.1,158.5L285.8,158.5C285.2,158.5 284.7,158.3 284.3,157.9C283.9,157.5 283.7,157 283.7,156.4L283.7,105.2C283.7,104.6 283.9,104.1 284.3,103.7C284.7,103.3 285.2,103.1 285.8,103.1L305,103.1C310.5,103 315.1,104.4 318.6,107.1ZM304.5,129C312.5,129 316.5,125.8 316.5,119.4C316.5,116.1 315.5,113.8 313.5,112.3C311.5,110.8 308.5,110.1 304.5,110.1L291.1,110.1L291.1,129L304.5,129Z" style="fill:white;fill-rule:nonzero;"/>
        <path d="M373.9,155.3C374.4,155.8 374.7,156.3 374.7,156.7C374.7,157.2 374.5,157.6 374.2,157.9C373.9,158.2 373.4,158.4 373,158.4L368,158.4C366.9,158.4 365.9,158 365.1,157.2L342.7,135.8L342.7,156.3C342.7,156.9 342.5,157.4 342.1,157.8C341.7,158.2 341.2,158.4 340.6,158.4L337.3,158.4C336.7,158.4 336.2,158.2 335.8,157.8C335.4,157.4 335.2,156.9 335.2,156.3L335.2,105.1C335.2,104.5 335.4,104 335.8,103.6C336.2,103.2 336.7,103 337.3,103L340.6,103C341.2,103 341.7,103.2 342.1,103.6C342.5,104 342.7,104.5 342.7,105.1L342.7,123.6L363.9,104.2C364.7,103.4 365.6,103 366.8,103L371.4,103C371.9,103 372.3,103.2 372.6,103.5C372.9,103.8 373.1,104.3 373.1,104.7C373.1,105.1 372.8,105.6 372.3,106.1L346.8,129.5L373.9,155.3Z" style="fill:white;fill-rule:nonzero;"/>
        <path d="M383.3,157.9C382.9,157.5 382.7,157 382.7,156.4L382.7,105.2C382.7,104.6 382.9,104.1 383.3,103.7C383.7,103.3 384.2,103.1 384.8,103.1L388.1,103.1C388.7,103.1 389.2,103.3 389.6,103.7C390,104.1 390.2,104.6 390.2,105.2L390.2,156.4C390.2,157 390,157.5 389.6,157.9C389.2,158.3 388.7,158.5 388.1,158.5L384.8,158.5C384.3,158.5 383.8,158.3 383.3,157.9Z" style="fill:white;fill-rule:nonzero;"/>
        <path d="M438.6,157.9C438.1,157.5 437.6,156.9 437.2,156.2L411.4,117.4L411.4,156.4C411.4,157 411.2,157.5 410.8,157.9C410.4,158.3 409.9,158.5 409.3,158.5L406,158.5C405.4,158.5 404.9,158.3 404.5,157.9C404.1,157.5 403.9,157 403.9,156.4L403.9,105.2C403.9,104.6 404.1,104.1 404.5,103.7C404.9,103.3 405.4,103.1 406,103.1L408.8,103.1C409.5,103.1 410.1,103.3 410.5,103.7C411,104.1 411.5,104.7 411.9,105.4L437.7,144.2L437.7,105.2C437.7,104.6 437.9,104.1 438.3,103.7C438.7,103.3 439.2,103.1 439.8,103.1L443.1,103.1C443.7,103.1 444.2,103.3 444.6,103.7C445,104.1 445.2,104.6 445.2,105.2L445.2,156.4C445.2,157 445,157.5 444.6,157.9C444.2,158.3 443.7,158.5 443.1,158.5L440.3,158.5C439.7,158.5 439.1,158.3 438.6,157.9Z" style="fill:white;fill-rule:nonzero;"/>
        <path d="M491.2,104.7C494.5,106.4 497,108.4 498.7,110.8C500.4,113.2 501.3,115.4 501.4,117.5C501.5,118 501.3,118.4 500.9,118.7C500.5,119 500.1,119.2 499.6,119.2L496.3,119.2C495.1,119.2 494.3,118.9 494,118.3C492.5,115.3 490.6,113.1 488.5,111.6C486.4,110.1 483.3,109.3 479.4,109.3C475,109.3 471.4,110.6 468.6,113.1C465.9,115.6 464.4,119.2 464.2,123.9C464.1,125.5 464.1,127.7 464.1,130.5C464.1,133.3 464.1,135.5 464.2,137.1C464.4,142.1 465.8,145.8 468.5,148.4C471.2,150.9 474.8,152.2 479.3,152.2C483.9,152.2 487.6,151 490.3,148.6C493,146.2 494.4,142.4 494.4,137.2L494.4,135L483,135C482.4,135 481.9,134.8 481.5,134.4C481.1,134 480.9,133.5 480.9,132.9L480.9,130C480.9,129.4 481.1,128.9 481.5,128.5C481.9,128.1 482.4,127.9 483,127.9L499.8,127.9C500.4,127.9 500.9,128.1 501.3,128.5C501.7,128.9 501.9,129.4 501.9,130L501.9,137.5C501.9,141.7 501,145.5 499.2,148.8C497.4,152.1 494.8,154.7 491.4,156.5C488,158.4 483.9,159.3 479.2,159.3C471.9,159.3 466.4,157.3 462.6,153.2C458.8,149.2 456.8,143.9 456.6,137.5C456.5,135.9 456.5,133.6 456.5,130.5C456.5,127.4 456.5,125.1 456.6,123.5C456.8,119.4 457.7,115.8 459.3,112.6C461,109.4 463.5,106.9 466.8,105C470.2,103.1 474.3,102.2 479.2,102.2C484,102.2 487.9,103.1 491.2,104.7Z" style="fill:white;fill-rule:nonzero;"/>
    </g>
    <g>
        <g>
            <path d="M234.2,175.7C238.5,177.8 241.8,180.7 244.2,184.5C246.6,188.2 247.8,192.4 247.8,197C247.8,198.4 247.7,199.8 247.5,201.2C246.6,206.8 245.2,213.1 243.5,220C241.2,228.7 236.9,235.6 230.8,240.8C224.6,246 216.2,248.6 205.5,248.6C200,248.6 195.1,247.5 190.8,245.4C186.5,243.3 183.2,240.4 180.8,236.6C178.4,232.9 177.3,228.7 177.3,224.1C177.3,222.8 177.4,221.4 177.6,219.9C178.4,214.5 179.7,208.2 181.6,201.1C183.9,192.4 188.1,185.5 194.3,180.3C200.4,175.1 208.8,172.5 219.5,172.5C225,172.5 229.9,173.6 234.2,175.7ZM225.2,192.1C223.4,190.3 220.6,189.4 216.9,189.4C212.7,189.4 209.3,190.5 206.7,192.7C204,194.9 202.1,197.9 201,201.6C200.3,203.9 199.6,206.8 198.8,210.3C198.1,213.8 197.5,216.8 197.2,219.3C197.1,219.8 197.1,220.5 197.1,221.5C197.1,224.6 198,227 199.7,228.8C201.5,230.6 204.2,231.5 207.9,231.5C212.1,231.5 215.5,230.4 218.2,228.2C220.9,226 222.8,223 224,219.3C224.9,216.1 225.8,212.5 226.6,208.4C227.4,204.3 227.9,201.3 227.9,199.4C227.9,196.4 227,193.9 225.2,192.1Z" style="fill:rgb(202,98,40);fill-rule:nonzero;"/>
            <path d="M297.7,246.8C297.1,246.3 296.6,245.7 296.2,244.9L277.6,209L270,244.7C269.9,245.5 269.5,246.1 268.8,246.7C268.1,247.3 267.4,247.5 266.6,247.5L252.8,247.5C252,247.5 251.4,247.2 251,246.7C250.5,246.1 250.4,245.5 250.5,244.7L265.1,176.5C265.2,175.7 265.6,175.1 266.3,174.5C267,173.9 267.7,173.7 268.5,173.7L277.4,173.7C279.2,173.7 280.4,174.5 281.2,176.1L299.9,212.2L307.5,176.5C307.6,175.7 308,175.1 308.7,174.5C309.4,173.9 310.1,173.7 310.9,173.7L324.7,173.7C325.5,173.7 326.1,174 326.5,174.5C327,175.1 327.1,175.7 327,176.5L312.4,244.7C312.3,245.5 311.9,246.1 311.2,246.7C310.5,247.3 309.8,247.5 309,247.5L300.1,247.5C299.1,247.5 298.3,247.2 297.7,246.8Z" style="fill:rgb(202,98,40);fill-rule:nonzero;"/>
            <path d="M383.7,231.4C384.1,232 384.3,232.6 384.1,233.4L381.7,244.6C381.6,245.4 381.2,246 380.5,246.6C379.8,247.2 379.1,247.4 378.3,247.4L329.4,247.4C328.6,247.4 328,247.1 327.6,246.6C327.1,246 327,245.4 327.1,244.6L341.7,176.4C341.8,175.6 342.2,175 342.9,174.4C343.6,173.8 344.3,173.6 345.1,173.6L358.9,173.6C359.7,173.6 360.3,173.9 360.7,174.4C361.2,175 361.3,175.6 361.2,176.4L349.7,230.6L382,230.6C382.7,230.6 383.3,230.9 383.7,231.4Z" style="fill:rgb(202,98,40);fill-rule:nonzero;"/>
            <path d="M391,246.6C390.5,246 390.4,245.4 390.5,244.6L405.1,176.4C405.2,175.6 405.6,175 406.3,174.4C407,173.8 407.7,173.6 408.5,173.6L422.3,173.6C423.1,173.6 423.7,173.9 424.1,174.4C424.6,175 424.7,175.6 424.6,176.4L410,244.6C409.9,245.4 409.5,246 408.8,246.6C408.1,247.2 407.4,247.4 406.6,247.4L392.8,247.4C392,247.5 391.4,247.2 391,246.6Z" style="fill:rgb(202,98,40);fill-rule:nonzero;"/>
            <path d="M471.9,246.8C471.3,246.3 470.8,245.7 470.4,244.9L451.9,209L444.3,244.7C444.2,245.5 443.8,246.1 443.1,246.7C442.4,247.3 441.7,247.5 440.9,247.5L427.1,247.5C426.3,247.5 425.7,247.2 425.3,246.7C424.8,246.1 424.7,245.5 424.8,244.7L439.4,176.5C439.5,175.7 439.9,175.1 440.6,174.5C441.3,173.9 442,173.7 442.8,173.7L451.7,173.7C453.5,173.7 454.7,174.5 455.5,176.1L474.2,212.2L481.8,176.5C481.9,175.7 482.3,175.1 483,174.5C483.7,173.9 484.4,173.7 485.2,173.7L499,173.7C499.8,173.7 500.4,174 500.8,174.5C501.3,175.1 501.4,175.7 501.3,176.5L486.7,244.7C486.6,245.5 486.2,246.1 485.5,246.7C484.8,247.3 484.1,247.5 483.3,247.5L474.4,247.5C473.4,247.5 472.5,247.2 471.9,246.8Z" style="fill:rgb(202,98,40);fill-rule:nonzero;"/>
            <path d="M524,230.6L557.4,230.6C558.2,230.6 558.8,230.9 559.2,231.4C559.6,232 559.8,232.6 559.6,233.4L557.2,244.6C557.1,245.4 556.7,246 556,246.6C555.3,247.2 554.6,247.4 553.8,247.4L503.8,247.4C503,247.4 502.4,247.1 502,246.6C501.5,246 501.4,245.4 501.5,244.6L516.1,176.4C516.2,175.6 516.6,175 517.3,174.4C518,173.8 518.7,173.6 519.5,173.6L568.7,173.6C569.5,173.6 570.1,173.9 570.5,174.4C571,175 571.1,175.6 571,176.4L568.6,187.6C568.5,188.4 568,189 567.3,189.6C566.6,190.2 565.9,190.4 565.1,190.4L532.6,190.4L530.2,201.8L560.4,201.8C561.2,201.8 561.8,202.1 562.2,202.6C562.7,203.2 562.8,203.8 562.7,204.6L560.3,215.8C560.2,216.6 559.7,217.2 559,217.8C558.3,218.4 557.6,218.6 556.8,218.6L526.6,218.6L524,230.6Z" style="fill:rgb(202,98,40);fill-rule:nonzero;"/>
        </g>
    </g>
</svg>
