<?xml version="1.0" encoding="UTF-8" standalone="no"?>
<!DOCTYPE svg PUBLIC "-//W3C//DTD SVG 1.1//EN" "http://www.w3.org/Graphics/SVG/1.1/DTD/svg11.dtd">
<svg width="100%" height="100%" viewBox="0 0 600 300" version="1.1" xmlns="http://www.w3.org/2000/svg" xmlns:xlink="http://www.w3.org/1999/xlink" xml:space="preserve" xmlns:serif="http://www.serif.com/" style="fill-rule:evenodd;clip-rule:evenodd;stroke-linejoin:round;stroke-miterlimit:2;">
    <g transform="matrix(1,0,0,1,9.49999,9)">
        <path d="M145.2,102.1C149,103.9 153.1,105.4 157.2,106.6C158.1,106.9 159.5,106.6 159.8,106.3C160.1,105.1 159.5,104.2 158.3,103.6C156.2,102.7 154.2,101.8 152.1,100.6C148.3,97.9 144.8,95.2 140.9,92.6C139.1,91.4 137.4,90.2 135.9,88.7C135,88.1 134.1,87.2 133.3,86.3C132.1,85.1 131,85.1 129.8,86.3C128.6,87.5 127.2,88.7 126,90.2C120.7,88.1 116.9,84.3 114.8,78.9C113.3,75 111.9,71.2 110.1,67.3C106.3,59 102.2,50.6 96,43.8C91.8,39 88.6,33.4 85,28C82.1,23.5 78.2,20 72.7,18.5C65.7,16.7 58.9,14.6 52.1,12C46.8,10.2 42.4,10.5 38,13.8C36.8,14.7 35.7,14.7 34.5,14.1C31.9,15 30.4,14.7 28.9,14.7C22.7,13.8 17.2,14.4 12.2,18.3C9.9,20.1 8.7,22.5 9,25.4C9.3,28.1 9,30.8 9.6,33.1C10.5,36.1 11.1,39 13.7,41.4C15.5,42.9 15.2,43.8 13.1,45C6.6,47.7 6.3,53.3 6.9,58.7C7.2,60.2 8.7,61.4 9.8,62.6C11.3,63.2 12.7,64.4 14.2,65.9C13,67.1 12.1,68.3 11,69.5C9.8,70.7 9.8,72.2 9.8,74C9.8,79.7 12.7,83.2 16.6,86.8C17.2,87.4 17.8,87.7 18.4,88.3L18.4,88.6C17.5,89.5 16.3,90.4 15.8,91.6C14.9,94.3 14.9,97 15.8,99.6C17,103.5 19.9,104.4 23.1,105.3C30.1,107.7 36.9,110.4 43.4,114.2C47.5,116.6 50.7,120.4 54.3,123.4C58.7,127.3 63.1,131.4 68.1,134.4C71.9,136.8 76.6,137.4 81,138.9C86,140.4 91,140.7 96,139.5C98.1,138.9 100.1,139.5 101.6,141.6C103.4,144 105.7,146.1 107.8,148.4C105.2,152 104.9,156.4 104.6,160.6C104,165.1 104,169.8 104.3,174.3C104.3,176.4 104.9,178.5 105.5,180.2C106.1,182 107.6,182.9 109.3,183.8C116.1,187.1 122.5,190.3 129.3,193.6C135.2,196.3 141.3,198.7 147.2,200.7C149.3,201.6 149.5,200.7 149.8,198.3C140.1,192.6 130.7,187.3 121.3,181.6C121,181.3 120.7,181.3 120.4,181C119.8,180.4 118.6,179.8 119.5,178.9C119.8,178.6 121,178.9 121.6,179.2C127.8,182.5 134.2,186 140.4,189.3C140.9,189.6 141.7,189.8 142.3,189.9C145,191.3 147.7,192.7 150.4,194.1C151.1,194.4 151.8,194.8 152.5,194.7C153.2,194.6 153.9,193.9 153.6,193.2L149.2,189.6C147.4,189.1 145.6,188.7 143.9,188.2C143.8,187.9 143.7,187.7 143.4,187.5C140.5,185.4 137.2,183.6 134,181.6C130.8,179.5 127.2,177.7 124,175.7C123.4,175.4 122.8,174.8 122.5,174.2C122.2,173.9 122.2,173 122.5,172.4C122.8,172.1 123.7,172.1 124,172.4C126.1,173.9 128.1,175.4 130.2,176.9C134.6,179.9 139,183.1 144.6,184L145.4,184C145.7,184.2 146.1,184.5 146.4,184.7C148.9,186.5 151.4,188.2 153.9,190C154.8,190.6 155.7,191.2 156.8,191.1C158.1,190.9 159,189.5 159.1,188.2C159.2,186.9 158.6,185.6 158.1,184.4L152.3,182.8C150.1,182.6 147.9,182.4 145.7,182.2C145.1,181.5 144.5,180.8 143.8,180.4C139.7,178 135.6,175.6 131.5,173.3C129.2,172.1 127.1,170.6 125,169.1C124.1,168.5 123.8,167.6 124.7,167C125,166.7 126.2,166.7 126.5,167C130.9,170.6 136.2,173.2 141.5,175.6C142.4,175.9 143.6,176.5 144.4,176.5C144.9,176.5 145.3,176.4 145.8,176.3C148.3,178.7 151.7,180.3 155.1,180.6C155.7,180.7 156.3,180.7 156.8,180.3C157.3,179.9 157.4,179.1 157.2,178.5C157,177.9 156.5,177.4 156.1,176.9L154.4,177.6C152,176.9 149.5,176.2 147.1,175.6L147.1,175.1C145.9,174.5 144.8,173.6 143.6,173C138.3,170 133,166.8 128,163.8C125.9,162.6 125.9,162.3 127.1,159.6C127.7,160.2 128.6,160.5 129.2,161.1C135.1,165.6 141.2,168.8 148.3,171.5C149.8,172.1 150.4,171.2 150.9,170.3C151.5,168.8 150.3,168.8 149.4,168.5C143.8,166.7 139.4,163.4 134.7,160.2C132.6,158.7 130.6,157.8 128.8,156.3C128.5,156 128.5,155.4 128.2,155.1C128.5,155.1 129.1,154.5 129.4,154.8C130.6,155.4 131.7,156 132.6,156.3C138.2,159.3 143.5,162 149,164.9C149.9,165.5 151.1,165.5 152.2,165.5C152.2,165.5 152.2,165.2 152.5,165.2C152.2,164.9 152.2,164.6 151.9,164.6C146.6,161.3 141.6,157.8 136.3,154.8C134.5,153.6 132.5,153 130.4,152.1C129.2,151.5 128.9,150.9 129.5,149.7C130.1,148.2 131,149.1 131.6,149.7C138.1,153 144.8,156.5 151.3,159.8C151.9,160.1 153.1,160.1 153.6,160.1C153.6,159.8 153.6,159.8 153.9,159.5C153.6,159.2 153.3,158.9 153,158.6C148,155.6 143,152.7 137.7,149.4C135.9,148.5 134.2,147.3 132.4,146.4C130.3,145.5 130.3,144.6 131.5,142.5C134.1,143.7 136.5,144.9 139.1,146.1C143.8,148.2 148.5,150.3 153.2,152.3C153.8,152.6 154.4,152.3 155.3,152.6C155.3,152.3 155.3,152.3 155.6,152C154.7,151.4 153.8,150.8 153,150.2C146.5,146.6 140.1,143.1 133.9,139.2C133.3,138.9 133,137.7 132.7,137.1C133,136.8 133,136.8 133.3,136.5C135.1,137.4 136.5,138.3 138.3,139.2C142.1,141.3 145.9,143.4 150,145.4C151.5,146 152.9,146.3 154.7,146.9C154.7,146.6 155,146.6 155,146.3C153.2,145.1 151.5,143.3 149.4,142.4C144.7,139.7 140,137.3 135.3,135C133.5,134.1 133.5,133.8 134.4,132C141.4,135.3 148.5,138.5 155.5,141.5C155.8,141.2 155.8,140.9 156.1,140.6C154.6,139.7 152.9,138.5 151.4,137.6C146.4,134.6 141.4,131.7 136.7,129C135.5,128.4 135.2,127.5 136.1,126C142.3,129 148.4,132.5 155.2,134C155.2,133.7 155.5,133.7 155.5,133.4C155.2,133.1 154.9,132.8 154.6,132.5C149,129.2 143.7,126 138.2,122.7C137.6,122.4 137.6,121.2 137,120.6L139.1,120.6C145.3,123.3 151.1,126.3 157.3,128.9C157.3,128.9 157.6,128.9 158.5,128.6C157.3,127.7 156.4,127.1 155.9,126.5C150.6,123.2 145.3,120 140,116.7C139.1,116.1 137.9,115.5 138.8,113.7C145,117.6 150.8,122 158.2,123.2C158.2,122.9 158.5,122.9 158.5,122.6C157.6,122 156.7,121.1 155.6,120.5C150.6,117.5 145.6,114.6 140.9,111.3C140.6,111 140,111 139.7,110.4C139.4,109.8 139.4,109.2 139.1,108.6C139.7,108.6 140.3,108.3 140.6,108.6C142.9,109.8 145.3,111.6 147.6,112.8C150.5,114.3 153.5,115.5 156.4,116.7C157,117 157.9,116.7 158.5,117C158.5,116.7 158.5,116.7 158.8,116.4C152.3,112.5 145.9,108.4 139.4,104.5C139.4,104.2 139.7,104.2 139.7,103.9C145.9,107.5 151.7,111.6 159.1,110.7C152.1,107.7 145.6,103.9 139.4,99.4L139.4,98.5C141.4,100 143.2,101.5 145.2,102.1ZM128.5,92.9C128.8,92.3 129.1,91.7 129.7,91.7C130,91.7 130.6,92.3 130.9,92.6C131.2,93.8 131.8,95.3 132.4,96.5L132.1,96.8C130.9,95.9 129.8,95.3 128.9,94.4C128.5,94 128.2,93.2 128.5,92.9ZM14.5,31.3C11.9,27.7 11.6,24.2 13.9,20.6C15.1,18.8 18.9,16.7 20.9,17C24.1,17.6 27.4,18.5 30.9,19.1C28.8,21.2 28.8,21.2 26.2,20.9C25.3,20.9 24.4,21.2 23.3,21.2C23.6,22.1 23.9,23 24.5,24.2C21.3,26.5 18.1,28.9 14.5,31.3ZM27.2,29.5C27.5,30.1 27.8,30.7 27.5,31.3C25.7,34.3 21.3,35.2 18.1,33.1C20.7,31 23.4,29.2 25.7,27.4C26.3,28.3 26.9,28.9 27.2,29.5ZM13.9,58.7C13,58.1 11.8,57.5 11.6,56.6C9.5,51.5 13.4,45.9 18.6,45.9C23,45.9 27.4,46.5 31.5,46.8C36.2,47.4 40.9,48 45.6,48.6C49.7,49.2 53.5,49.8 57.6,50.7C61.4,51.6 64.1,56.9 62.9,60.8C62.9,61.1 62.6,61.7 62.3,61.7C59.7,63.2 57,63.2 54.7,63.2C54.4,60.5 54.4,58.1 54.1,55.5C55.3,56.1 56.4,56.4 57.6,56.7C58.5,57 59.7,57.3 60.5,57C61.4,57 61.7,56.1 60.8,55.2C58.5,53.1 55.8,51.9 52.3,52.5C50.8,52.8 50,54.3 50.2,55.5C50.5,57.6 50.8,59.7 51.1,61.7C51.1,62 50.5,62.9 50.2,62.9C48.1,63.2 45.8,63.2 44,63.5C43.7,61.1 43.4,59.3 43.1,57.3L42.2,57.3C41.6,58.8 41,60.3 40.4,61.5C39.8,62.7 39.2,63.3 37.8,63C32.5,62.7 27.2,62.4 21.9,61.8C17.8,61.5 16.3,59.7 16.3,55.3C16.3,54.7 16.3,54.1 16,53.5C15.7,53.5 15.4,53.5 15.1,53.2C15.1,55.4 14.5,56.9 13.9,58.7ZM43.6,42.9C43.6,42.6 44.2,41.7 44.8,41.1C45.1,41.1 45.1,41.1 45.4,41.4C45.7,42.3 46,42.9 46,43.8C45.7,44.1 45.7,44.1 45.4,44.4C44.8,43.8 43.9,43.5 43.6,42.9ZM48.6,40.5C50.4,41.4 51.5,42.3 50.7,44.4C49.2,44.1 48.3,42.6 48.6,40.5ZM18.1,78.9L18.1,78.6C17.8,78.3 17.2,77.4 17.2,77.4C16.6,77.7 16,78 15.4,78.6C15.7,78.3 16,78.9 16,79.5C15.7,79.5 15.7,79.8 15.4,79.8C14.5,78.6 13.3,77.1 13.3,75.9C13.3,74.1 13.3,71.4 14.5,70.5C17.1,67.8 21,66.9 24.8,67.5C32.1,68.4 39.5,69.3 47.1,68.4C50.6,68.1 53.9,67.8 57.4,67.8C60.9,67.8 63,69.6 63.9,73.5C64.5,76.2 62.1,79.4 60.1,80.3C57.8,81.2 55.4,82.4 53.1,83C49.9,83.6 46.9,83.9 43.7,84.5C44,82.1 44,80 44,78C44,77.7 43.7,77.1 43.4,76.8C42.8,77.1 42.2,77.1 41.9,77.4C41.6,77.7 41.6,78.3 41.3,78.9C40.7,81 40.1,82.8 39.5,84.6L37.2,84.6C32.5,84.3 27.8,83.7 23.1,83.4C19.5,83 18.9,82.1 18.1,78.9ZM40.4,100.6C40.4,99.7 40.4,98.8 40.1,98.2C39.8,97.9 39.2,97.9 38.6,97.6C38,98.8 37.7,99.7 37.4,101.2C37.1,101.2 36.5,101.2 35.9,101.5C31.5,102.1 26.8,101.8 22.4,100.6C20.6,100 19.2,99.1 18.6,97.6C18,95.5 17.7,92.5 19.8,91.4C21.9,89.9 24.5,89 27.1,88.7C32.1,88.1 37.1,88.4 42.1,88.1C45.9,88.1 49.7,87.5 53.6,87.5C54.5,87.5 55.4,88.1 55.9,88.7C57.4,90.8 56.2,94.6 54.1,95.8C50.3,98.2 47.6,96.7 47.1,92.5C46.8,90.7 47.7,90.4 49.2,90.1L53.3,90.1C53.9,90.1 54.5,89.8 55.1,89.8C55.1,89.5 55.1,89.5 55.4,89.2C55.1,88.9 54.8,88.6 54.5,88.6C52.4,88.3 50.1,87.7 48,88C44.5,88.6 43.3,91.3 45.1,94.5C46,96 46.9,97.2 47.7,99C45.1,99.7 42.7,100 40.4,100.6ZM120.9,160.1C118.8,165.8 116.8,171.4 114.7,176.8C114.4,177.4 113.8,178.3 113.2,178.9C111.1,181 109.4,180.4 108.5,177.1C111.7,177.1 114.1,175.6 115.5,172.6C116.4,171.1 117,169.3 117.6,167.8C118.5,164.5 119.7,161.6 120.5,158.6L121.1,158.6C121.2,159.2 121.2,159.8 120.9,160.1ZM132.3,116.1C131.7,120.6 130.5,125 129.4,129.5C127.3,137.5 125.3,145.6 123.2,153.6C122.9,154.8 122.3,156 121.7,157.8C119.4,155.1 117,152.7 114.9,150.7C111.7,146.8 107.9,143.3 105.2,139.1C103.7,136.7 102,135.2 99.6,133.4C98.7,134.9 97.8,134.6 96.7,134C94.1,132.5 91.7,131 89.1,129.5C88.5,129.2 87.6,128.9 87,128.9C87,129.2 86.7,129.5 86.7,129.5C87.9,131 88.8,132.5 89.9,134C89.6,134 89.6,134.3 89.3,134.3C86.4,131.9 83.7,129.2 80.5,126.6C81.1,128.7 81.4,130.5 81.7,132.3C78.8,131.1 77.9,127.2 74.1,126.4C74.7,128.2 75,129.7 75.6,131.2C72.4,129.4 71.5,125.5 67.7,124.4C68,125.9 68.3,126.8 68.6,127.4C68.3,127.4 68.3,127.7 68,127.7C66.5,125.9 64.8,124.1 63,122.3C62.1,123.5 61.5,123.2 60.7,122.3C59.8,121.4 58.6,120.5 57.8,119.6C55.7,117.2 52.5,116 51.3,112.8C51,111.9 50.4,108.9 47.8,111.9C46.6,109.8 45.5,108 44.3,106.2C48.4,104.4 52.2,102.6 56,101.1C56.9,103.2 57.2,105.6 59.5,107C59.2,102.2 57.7,97.8 60.7,93.6C63.9,98.1 65.1,103.4 68.6,107C68.9,107 68.9,106.7 69.2,106.7C68.3,102.5 67.4,98.4 66.6,94.2C66.9,94.2 66.9,94.2 67.2,93.9C67.5,94.2 68.1,94.5 68.4,95.1C70.2,97.2 71.6,99.3 73.4,101C74.9,102.8 76.6,104 77.8,105.8C79.6,107.9 81.6,109.1 84.3,109.7C86.9,110.6 90.2,110.6 92.8,110.9C93.1,110.9 93.4,110.6 94,110.3C94,110 94,110 94.3,109.7C90.2,108.2 85.8,107.9 82.8,104.3C80.2,100.7 77.2,97.8 74.6,94.2C72,90.6 69.3,87.4 69.6,82.6C71.7,84.1 73.4,85.9 75.8,87.1C77.6,88 79.6,87.7 81.7,88C82,88 82.6,87.4 83.2,86.8C82.3,86.5 81.7,86.5 81.4,86.2C79.3,85.3 77.3,84.7 75.5,83.5C71.1,80.5 69.6,76.1 68.2,71C67.9,69.2 67,67.7 67,65.9C67,63.2 67.6,60.8 67.9,58.2C68.5,55.5 70,53.7 72.3,52.3C73.2,51.7 74.1,51.1 75.2,50.2C70.8,47.8 68.4,50.5 66.1,52.9C64.9,50.8 65.2,49.6 67,47.5C67.3,47.2 67.3,46.6 67.6,46C67,46 66.4,45.4 66.1,45.7C64.9,46.3 63.8,47.2 62.6,48.1C61.1,46.9 59.1,46 57.9,44.2C56.4,42.1 55.6,39.7 56.4,36.8C56.7,36.2 56.4,35.6 56.4,35C56.4,34.7 55.8,33.8 55.8,33.8C55.2,33.8 54.9,34.1 54.6,34.7C54,35.3 53.7,36.2 53.1,37.1L52.5,37.1C52.2,35.6 52.2,34.4 51.9,32.9C51.6,31.7 51.6,29.9 49.6,29.3C49.9,31.7 50.2,33.8 50.2,35.5C49,34.6 48.7,33.7 47.9,32.8C47.6,32.2 46.7,31.9 46.1,31.3C45.8,32.2 45.8,32.8 45.5,33.7C45.2,34.6 45.5,35.8 45.2,36.4C42.3,39.7 38.4,41.8 34,42.3C29.9,42.9 26.1,42 22.5,40.5C20.7,39.6 18.7,38.7 17.5,36.3C22.2,38.4 25.4,36.3 28.7,33.3C31.6,30.3 31,27.9 26.9,26.5C31.3,23.2 35.4,20 39.2,17C41,15.5 43,15.2 45.1,15.8C48.6,16.7 52.1,17.9 55.4,19.1C60.1,20.9 64.5,23.3 69.5,24.2C71.3,24.5 73.3,25.1 75.1,26C78.6,28.1 81,31.4 83,35.2C85.1,38.8 87.1,42.6 89.8,45.3C95.1,50.7 99.2,56.9 102.4,63.7C105.3,69.4 107.4,75.6 110,81.2C112.1,85.4 114.4,89.5 118.5,92.5C120.8,94 122.9,95.8 125.3,97.3C127.4,98.5 129.1,100.6 131.8,99.7C132.1,99.7 132.4,100.3 132.7,100.6C133.5,105.9 133.2,111 132.3,116.1Z" style="fill:rgb(246,244,244);fill-rule:nonzero;"/>
    </g>
    <g transform="matrix(1.3587,0,0,1.21633,53.2834,-8.06052)">
        <g>
            <g>
                <path d="M129.869,151.857C129.869,158.144 129.852,163.369 129.818,167.531C129.784,171.693 129.733,175.102 129.665,177.758C129.597,180.415 129.496,182.496 129.36,184.001C129.224,185.506 129.088,186.835 128.952,187.986C128.069,194.627 125.878,199.984 122.379,204.058C118.881,208.131 113.939,210.168 107.553,210.168C105.922,210.168 103.935,210.013 101.592,209.703C99.248,209.393 96.955,208.84 94.713,208.043C94.577,205.032 94.476,201.955 94.408,198.811C94.34,195.668 94.306,192.546 94.306,189.447C94.306,186.259 94.34,183.071 94.408,179.883C94.476,176.696 94.577,173.508 94.713,170.32C96.412,171.294 97.94,172.002 99.299,172.445C100.658,172.888 102.084,173.109 103.579,173.109C105.685,173.109 107.4,172.644 108.725,171.715C110.049,170.785 111.102,169.346 111.884,167.398C112.665,165.45 113.191,162.926 113.463,159.827C113.735,156.727 113.871,153.053 113.871,148.802L113.871,122.768L99.706,122.768L99.706,100.055L129.869,100.055L129.869,151.857Z" style="fill:rgb(222,219,219);fill-rule:nonzero;"/>
                <path d="M155.956,166.867C156.839,170.674 158.3,173.773 160.338,176.164C162.376,178.555 165.195,179.751 168.795,179.751C169.882,179.751 171.054,179.64 172.311,179.419C173.568,179.197 174.808,178.887 176.03,178.489C177.253,178.09 178.408,177.648 179.495,177.161C180.582,176.674 181.533,176.209 182.348,175.766C182.484,178.334 182.569,181.057 182.603,183.935C182.637,186.813 182.654,189.668 182.654,192.502C182.654,197.195 182.552,201.401 182.348,205.12C177.049,208.485 171.105,210.168 164.516,210.168C161.458,210.168 158.367,209.725 155.243,208.84C152.118,207.954 149.094,206.272 146.173,203.792C143.592,201.578 141.469,198.988 139.805,196.022C138.14,193.055 136.832,190 135.881,186.857C134.93,183.713 134.285,180.636 133.945,177.625C133.606,174.615 133.436,171.914 133.436,169.523C133.436,165.981 133.758,162.284 134.404,158.432C135.049,154.58 136.051,150.905 137.41,147.408C138.769,143.91 140.501,140.7 142.607,137.778C144.713,134.855 147.192,132.553 150.046,130.871C153.51,128.834 157.179,127.816 161.051,127.816C165.127,127.816 168.795,128.878 172.056,131.003C175.317,133.129 177.966,136.051 180.004,139.77C181.975,143.312 183.214,147.253 183.724,151.592C184.233,155.931 184.488,161.022 184.488,166.867L155.956,166.867ZM161.764,142.161C160.338,142.161 158.979,142.936 157.688,144.485C156.397,146.035 155.548,148.758 155.141,152.654L168.49,152.654C168.218,149.112 167.42,146.478 166.095,144.751C164.77,143.024 163.327,142.161 161.764,142.161Z" style="fill:rgb(222,219,219);fill-rule:nonzero;"/>
                <path d="M201.2,129.277L201.913,139.372C202.728,137.689 203.713,136.139 204.868,134.723C206.023,133.306 207.229,132.088 208.486,131.07C209.743,130.052 210.999,129.255 212.256,128.679C213.513,128.103 214.685,127.816 215.772,127.816C215.908,130.118 216.026,132.752 216.128,135.719C216.23,138.685 216.281,141.718 216.281,144.817C216.281,148.359 216.23,151.857 216.128,155.311C216.026,158.764 215.908,161.952 215.772,164.874C215.16,164.52 214.311,164.254 213.224,164.077C212.137,163.9 211.22,163.812 210.473,163.812C207.959,163.812 206.108,164.586 204.919,166.136C203.73,167.686 203.136,169.612 203.136,171.914L203.136,208.707L188.157,208.707C188.224,194.362 188.275,180.747 188.309,167.863C188.343,154.979 188.36,142.117 188.36,129.277L201.2,129.277Z" style="fill:rgb(222,219,219);fill-rule:nonzero;"/>
                <path d="M267.436,129.277L251.131,166.867L268.556,208.707L251.131,208.707L236.967,175.5L236.254,175.5L236.254,183.138C236.254,185.661 236.271,188.252 236.305,190.908C236.339,193.565 236.39,196.354 236.458,199.276C236.526,202.198 236.594,205.342 236.661,208.707L219.848,208.707C220.187,197.815 220.391,185.617 220.459,172.113C220.527,158.609 220.561,143.799 220.561,127.683L220.561,106.298C220.561,104.173 220.544,102.446 220.51,101.118C220.476,99.789 220.425,98.417 220.357,97L237.68,97C237.477,105.147 237.307,112.474 237.171,118.983C237.035,125.491 236.916,131.38 236.814,136.649C236.712,141.917 236.627,146.655 236.56,150.861C236.492,155.067 236.424,158.941 236.356,162.483L237.069,162.483L251.131,129.277L267.436,129.277Z" style="fill:rgb(222,219,219);fill-rule:nonzero;"/>
                <path d="M269.474,131.402L284.453,131.402L284.453,208.707L269.474,208.707L269.474,131.402ZM277.32,98.461C278.95,98.461 280.428,98.882 281.753,99.723C283.077,100.564 284.181,101.649 285.064,102.977C285.948,104.305 286.627,105.789 287.102,107.427C287.578,109.065 287.816,110.637 287.816,112.142C287.816,114.179 287.527,116.061 286.95,117.787C286.372,119.514 285.591,121.019 284.606,122.303C283.621,123.587 282.5,124.606 281.243,125.358C279.986,126.111 278.645,126.487 277.218,126.487C275.452,126.487 273.889,126.111 272.531,125.358C271.172,124.606 270.034,123.632 269.117,122.436C268.2,121.241 267.52,119.846 267.079,118.252C266.637,116.658 266.417,115.02 266.417,113.338C266.417,111.655 266.671,109.928 267.181,108.157C267.69,106.386 268.404,104.77 269.321,103.309C270.238,101.848 271.376,100.675 272.734,99.789C274.093,98.904 275.622,98.461 277.32,98.461Z" style="fill:rgb(222,219,219);fill-rule:nonzero;"/>
                <path d="M304.426,129.277L304.426,136.449C306.056,133.793 308.043,131.69 310.387,130.14C312.731,128.59 315.125,127.816 317.571,127.816C320.56,127.816 323.209,128.878 325.519,131.003C327.829,133.129 329.357,135.652 330.105,138.575C330.444,139.903 330.733,141.74 330.971,144.087C331.209,146.433 331.328,149.068 331.328,151.99L331.328,208.707L316.348,208.707L316.348,170.187C316.348,166.202 315.788,163.524 314.667,162.151C313.546,160.779 312.238,160.092 310.744,160.092C308.773,160.092 307.228,160.911 306.107,162.55C304.986,164.188 304.426,166.291 304.426,168.859L304.426,208.707L289.65,208.707C289.65,205.785 289.667,202.707 289.701,199.475C289.735,196.243 289.752,193.011 289.752,189.779L289.752,163.546C289.752,160.181 289.735,156.506 289.701,152.521C289.667,148.537 289.65,144.463 289.65,140.301L289.65,129.277L304.426,129.277Z" style="fill:rgb(222,219,219);fill-rule:nonzero;"/>
                <path d="M371.578,199.409C368.997,202.065 366.636,203.969 364.496,205.12C362.356,206.272 360.03,206.847 357.516,206.847C354.119,206.847 351.028,205.94 348.243,204.124C345.458,202.309 343.063,199.785 341.059,196.553C339.055,193.321 337.493,189.447 336.372,184.931C335.251,180.415 334.69,175.456 334.69,170.054C334.69,164.21 335.319,158.742 336.575,153.65C337.832,148.559 339.565,144.087 341.772,140.235C343.98,136.383 346.545,133.35 349.466,131.136C352.387,128.923 355.512,127.816 358.841,127.816C363.8,127.816 368.046,130.516 371.578,135.918L371.578,129.277L386.048,129.277L386.048,172.047C386.048,179.928 385.963,186.613 385.794,192.103C385.624,197.594 385.369,201.933 385.029,205.12C384.01,214.507 381.276,221.702 376.826,226.705C372.377,231.708 366.517,234.209 359.248,234.209C356.191,234.209 353.287,233.767 350.536,232.881C347.785,231.996 345.254,230.712 342.944,229.029L342.944,212.692C347.903,215.968 352.863,217.606 357.822,217.606C362.305,217.606 365.719,216.366 368.063,213.887C370.407,211.408 371.578,207.866 371.578,203.261L371.578,199.409ZM354.153,160.757C354.153,164.387 354.901,167.309 356.395,169.523C357.89,171.737 359.86,172.844 362.305,172.844C363.596,172.844 364.802,172.512 365.923,171.848C367.044,171.183 368.029,170.276 368.878,169.125C369.727,167.973 370.39,166.623 370.865,165.073C371.341,163.524 371.578,161.863 371.578,160.092C371.578,158.41 371.358,156.816 370.916,155.311C370.475,153.805 369.846,152.499 369.031,151.392C368.216,150.285 367.265,149.422 366.178,148.802C365.091,148.182 363.936,147.872 362.713,147.872C360.267,147.872 358.229,149.068 356.599,151.459C354.969,153.85 354.153,156.949 354.153,160.757Z" style="fill:rgb(222,219,219);fill-rule:nonzero;"/>
            </g>
        </g>
    </g>
</svg>
