<?xml version="1.0" encoding="UTF-8" standalone="no"?>
<!DOCTYPE svg PUBLIC "-//W3C//DTD SVG 1.1//EN" "http://www.w3.org/Graphics/SVG/1.1/DTD/svg11.dtd">
<svg width="100%" height="100%" viewBox="0 0 600 300" version="1.1" xmlns="http://www.w3.org/2000/svg" xmlns:xlink="http://www.w3.org/1999/xlink" xml:space="preserve" xmlns:serif="http://www.serif.com/" style="fill-rule:evenodd;clip-rule:evenodd;stroke-linejoin:round;stroke-miterlimit:2;">
    <g>
        <g transform="matrix(10.7569,0,0,10.7569,-462.147,-4323.31)">
            <path d="M46.919,414.592L46.403,413.74L46.403,407.38L49.343,413.74L48.983,414.592L48.983,414.76L51.419,414.76L51.419,414.58L50.903,413.74L50.903,407.38L51.419,406.528L51.419,406.36L49.943,406.36L49.943,406.528L50.459,407.38L50.459,412.648L48.035,407.38L48.155,406.528L48.155,406.36L45.431,406.36L45.431,406.528L45.947,407.38L45.947,413.74L45.431,414.592L45.431,414.76L46.919,414.76L46.919,414.592Z" style="fill:rgb(155,255,174);fill-rule:nonzero;"/>
            <path d="M53.903,409.108C52.511,409.108 51.491,410.008 51.491,411.976C51.491,413.932 52.511,414.832 53.903,414.832C55.307,414.832 56.219,413.932 56.219,411.976C56.219,410.02 55.307,409.108 53.903,409.108ZM53.903,414.52C53.519,414.52 53.099,414.268 53.099,411.976C53.099,409.672 53.519,409.432 53.903,409.432C54.299,409.432 54.611,409.684 54.611,411.976C54.611,414.268 54.299,414.52 53.903,414.52Z" style="fill:rgb(155,255,174);fill-rule:nonzero;"/>
            <path d="M61.139,414.592L60.623,413.74L60.623,407.716L62.951,414.76L63.863,414.76L65.915,408.556L65.915,413.74L65.399,414.592L65.399,414.76L68.051,414.76L68.051,414.592L67.535,413.74L67.535,407.38L68.051,406.528L68.051,406.36L65.423,406.36L65.423,406.528L65.855,407.38L63.995,413.032L62.123,407.38L62.375,406.528L62.375,406.36L59.651,406.36L59.651,406.528L60.167,407.38L60.167,413.74L59.651,414.592L59.651,414.76L61.139,414.76L61.139,414.592Z" style="fill:rgb(155,255,174);fill-rule:nonzero;"/>
            <path d="M70.523,409.108C69.131,409.108 68.111,410.008 68.111,411.976C68.111,413.932 69.131,414.832 70.523,414.832C71.927,414.832 72.839,413.932 72.839,411.976C72.839,410.02 71.927,409.108 70.523,409.108ZM70.523,414.52C70.139,414.52 69.719,414.268 69.719,411.976C69.719,409.672 70.139,409.432 70.523,409.432C70.919,409.432 71.231,409.684 71.231,411.976C71.231,414.268 70.919,414.52 70.523,414.52Z" style="fill:rgb(155,255,174);fill-rule:nonzero;"/>
            <path d="M77.915,410.368C77.795,409.336 77.111,409.18 76.283,409.18L75.203,410.008L75.203,409.18L73.067,410.008L73.067,410.176L73.583,411.028L73.583,413.74L73.067,414.592L73.067,414.76L75.719,414.76L75.719,414.592L75.203,413.74L75.203,410.272L75.827,410.008C76.307,410.008 76.331,410.392 76.331,410.68L76.331,411.232L77.915,410.368Z" style="fill:rgb(155,255,174);fill-rule:nonzero;"/>
            <path d="M79.583,411.628L82.427,411.628C82.343,409.672 81.383,409.108 80.207,409.108C78.971,409.108 77.975,410.128 77.975,411.892C77.975,414.076 79.055,414.82 80.279,414.82C81.455,414.82 82.091,414.424 82.355,413.224L82.151,413.104C82.007,413.584 81.623,413.848 81.191,413.848C80.471,413.848 79.619,413.14 79.583,411.628ZM80.207,409.276C80.615,409.276 80.819,409.684 80.819,411.424L79.583,411.424C79.595,409.672 79.871,409.276 80.207,409.276Z" style="fill:rgb(155,255,174);fill-rule:nonzero;"/>
        </g>
        <g transform="matrix(10.7569,0,0,10.7569,-462.26,-4206.82)">
            <path d="M48.707,414.76C50.495,414.76 51.431,413.896 51.431,412.132C51.431,411.928 51.407,411.736 51.383,411.556C51.383,411.496 51.359,411.448 51.359,411.388C51.335,411.268 51.299,411.16 51.275,411.052C51.251,410.992 51.227,410.932 51.203,410.884C51.167,410.788 51.131,410.692 51.083,410.608C51.047,410.56 51.023,410.512 50.987,410.464C50.939,410.38 50.879,410.308 50.807,410.236C50.675,410.104 50.567,410.008 50.411,409.912C50.387,409.9 50.375,409.876 50.339,409.864C50.207,409.792 50.063,409.732 49.919,409.684C49.823,409.636 49.595,409.588 49.499,409.576C50.243,409.348 50.627,408.856 50.627,408.076C50.627,406.972 49.859,406.36 48.395,406.36L45.431,406.36L45.431,406.528L45.947,407.38L45.947,413.74L45.431,414.592L45.431,414.76L48.707,414.76ZM47.567,406.564L48.395,406.564C48.803,406.564 49.295,406.708 49.295,408.076C49.295,409.444 48.803,409.504 48.395,409.504L47.567,409.504L47.567,406.564ZM48.707,414.568L47.567,414.568L47.567,409.708L48.707,409.708C49.211,409.708 49.811,409.936 49.811,412.132C49.811,414.328 49.211,414.568 48.707,414.568Z" style="fill:rgb(155,255,174);fill-rule:nonzero;"/>
            <path d="M52.955,408.892C53.567,408.892 54.071,408.4 54.071,407.788C54.071,407.164 53.567,406.672 52.955,406.672C52.343,406.672 51.851,407.164 51.851,407.788C51.851,408.4 52.343,408.892 52.955,408.892ZM53.771,413.74L53.771,409.18L51.635,410.008L51.635,410.176L52.151,411.028L52.151,413.74L51.635,414.592L51.635,414.76L54.287,414.76L54.287,414.592L53.771,413.74Z" style="fill:rgb(155,255,174);fill-rule:nonzero;"/>
            <path d="M56.663,413.74L56.663,406.36L54.527,407.188L54.527,407.356L55.043,408.208L55.043,413.74L54.527,414.592L54.527,414.76L57.179,414.76L57.179,414.592L56.663,413.74Z" style="fill:rgb(155,255,174);fill-rule:nonzero;"/>
            <path d="M59.555,413.74L59.555,406.36L57.419,407.188L57.419,407.356L57.935,408.208L57.935,413.74L57.419,414.592L57.419,414.76L60.071,414.76L60.071,414.592L59.555,413.74Z" style="fill:rgb(155,255,174);fill-rule:nonzero;"/>
            <path d="M61.679,408.892C62.291,408.892 62.795,408.4 62.795,407.788C62.795,407.164 62.291,406.672 61.679,406.672C61.067,406.672 60.575,407.164 60.575,407.788C60.575,408.4 61.067,408.892 61.679,408.892ZM62.495,413.74L62.495,409.18L60.359,410.008L60.359,410.176L60.875,411.028L60.875,413.74L60.359,414.592L60.359,414.76L63.011,414.76L63.011,414.592L62.495,413.74Z" style="fill:rgb(155,255,174);fill-rule:nonzero;"/>
            <path d="M65.507,409.108C64.115,409.108 63.095,410.008 63.095,411.976C63.095,413.932 64.115,414.832 65.507,414.832C66.911,414.832 67.823,413.932 67.823,411.976C67.823,410.02 66.911,409.108 65.507,409.108ZM65.507,414.52C65.123,414.52 64.703,414.268 64.703,411.976C64.703,409.672 65.123,409.432 65.507,409.432C65.903,409.432 66.215,409.684 66.215,411.976C66.215,414.268 65.903,414.52 65.507,414.52Z" style="fill:rgb(155,255,174);fill-rule:nonzero;"/>
            <path d="M73.139,413.74L73.139,410.704C73.139,409.372 72.227,409.18 71.303,409.18L70.187,410.02L70.187,409.18L68.051,410.008L68.051,410.176L68.567,411.028L68.567,413.74L68.051,414.592L68.051,414.76L70.703,414.76L70.703,414.592L70.187,413.74L70.187,410.284L70.859,409.984C71.339,409.984 71.531,410.128 71.531,410.68L71.531,413.74L71.003,414.592L71.003,414.76L73.655,414.76L73.655,414.592L73.139,413.74Z" style="fill:rgb(155,255,174);fill-rule:nonzero;"/>
            <path d="M78.443,413.74L78.443,410.632C78.443,409.3 77.531,409.108 76.619,409.108L74.351,409.6L74.351,411.496L74.519,411.496L75.491,409.576L76.091,409.42C76.571,409.42 76.835,409.828 76.835,410.368L76.835,411.052L76.223,411.268C74.243,411.952 73.607,412.336 73.607,413.44C73.607,414.916 75.419,414.832 75.995,414.832C76.271,414.832 76.619,414.724 76.835,414.496L76.835,414.76L78.959,414.76L78.959,414.592L78.443,413.74ZM76.835,413.872C76.835,413.872 76.751,414.568 76.115,414.568C75.539,414.568 75.215,414.064 75.215,413.344C75.215,412.96 75.215,411.916 76.235,411.484L76.835,411.256L76.835,413.872Z" style="fill:rgb(155,255,174);fill-rule:nonzero;"/>
            <path d="M80.567,408.892C81.179,408.892 81.683,408.4 81.683,407.788C81.683,407.164 81.179,406.672 80.567,406.672C79.955,406.672 79.463,407.164 79.463,407.788C79.463,408.4 79.955,408.892 80.567,408.892ZM81.383,413.74L81.383,409.18L79.247,410.008L79.247,410.176L79.763,411.028L79.763,413.74L79.247,414.592L79.247,414.76L81.899,414.76L81.899,414.592L81.383,413.74Z" style="fill:rgb(155,255,174);fill-rule:nonzero;"/>
            <path d="M87.035,410.368C86.915,409.336 86.231,409.18 85.403,409.18L84.323,410.008L84.323,409.18L82.187,410.008L82.187,410.176L82.703,411.028L82.703,413.74L82.187,414.592L82.187,414.76L84.839,414.76L84.839,414.592L84.323,413.74L84.323,410.272L84.947,410.008C85.427,410.008 85.451,410.392 85.451,410.68L85.451,411.232L87.035,410.368Z" style="fill:rgb(155,255,174);fill-rule:nonzero;"/>
            <path d="M88.703,411.628L91.547,411.628C91.463,409.672 90.503,409.108 89.327,409.108C88.091,409.108 87.095,410.128 87.095,411.892C87.095,414.076 88.175,414.82 89.399,414.82C90.575,414.82 91.211,414.424 91.475,413.224L91.271,413.104C91.127,413.584 90.743,413.848 90.311,413.848C89.591,413.848 88.739,413.14 88.703,411.628ZM89.327,409.276C89.735,409.276 89.939,409.684 89.939,411.424L88.703,411.424C88.715,409.672 88.991,409.276 89.327,409.276Z" style="fill:rgb(155,255,174);fill-rule:nonzero;"/>
            <path d="M93.551,409.984C93.551,409.684 93.683,409.372 94.163,409.372L94.595,409.372L95.735,410.764L95.903,410.764L95.903,409.18L93.731,409.18C92.819,409.18 92.027,409.36 92.027,410.44C92.027,412.228 94.859,412.516 94.859,413.98C94.859,414.436 94.619,414.52 94.367,414.52L93.971,414.52L92.327,412.564L92.159,412.564L92.159,414.76L94.787,414.76C95.951,414.76 96.467,414.424 96.467,413.524C96.467,411.94 93.551,411.316 93.551,409.984Z" style="fill:rgb(155,255,174);fill-rule:nonzero;"/>
        </g>
    </g>
</svg>
