<?xml version="1.0" encoding="UTF-8" standalone="no"?>
<!DOCTYPE svg PUBLIC "-//W3C//DTD SVG 1.1//EN" "http://www.w3.org/Graphics/SVG/1.1/DTD/svg11.dtd">
<svg width="100%" height="100%" viewBox="0 0 600 300" version="1.1" xmlns="http://www.w3.org/2000/svg" xmlns:xlink="http://www.w3.org/1999/xlink" xml:space="preserve" xmlns:serif="http://www.serif.com/" style="fill-rule:evenodd;clip-rule:evenodd;stroke-linejoin:round;stroke-miterlimit:2;">
    <g transform="matrix(0.987993,0,0,0.586813,-512.312,-11.4659)">
        <g transform="matrix(0.756999,0,0,0.756999,207.678,69.7717)">
            <path d="M581.996,230.856C581.409,230.856 580.808,230.602 580.193,230.095C579.578,229.586 579.271,228.866 579.271,227.935C579.271,226.757 579.544,225.812 580.092,225.101C580.641,224.387 581.338,223.881 582.184,223.583C585.261,222.518 587.492,221.1 588.879,219.33C590.266,217.558 590.959,214.497 590.959,210.147L590.959,125.774C590.959,120.398 590.878,116.431 590.716,113.875C590.554,111.317 590.341,109.607 590.077,108.747C589.812,107.886 589.455,107.331 589.006,107.082C588.338,106.449 587.409,106.071 586.22,105.948C585.032,105.824 584.083,105.762 583.372,105.762L580.65,105.762C578.11,105.762 575.672,106.83 573.338,108.964C571.004,111.096 569.158,113.749 567.802,116.923C567.426,117.829 566.855,119.125 566.088,120.812C565.323,122.497 564.516,123.985 563.669,125.276C562.822,126.564 561.976,127.209 561.13,127.209C560.474,127.209 560.019,126.853 559.765,126.142C559.511,125.428 559.384,124.619 559.384,123.713C559.384,122.013 559.652,120.259 560.19,118.451C561.722,113.379 562.851,109.001 563.576,105.318C564.301,101.635 564.792,97.346 565.05,92.451C565.212,90.468 565.565,89.105 566.109,88.361C566.655,87.616 567.289,87.243 568.011,87.243C568.601,87.243 569.223,88.117 569.878,89.866C570.534,91.613 571.223,93.032 571.945,94.122C572.762,95.262 574.124,96.117 576.031,96.688C577.938,97.257 579.476,97.541 580.646,97.541L626.387,97.375C628.424,97.375 630.15,97.047 631.566,96.391C632.983,95.733 634.041,95.094 634.739,94.474C636.042,93.208 637.08,91.82 637.853,90.307C638.626,88.793 639.532,88.035 640.571,88.035C641.08,88.035 641.431,88.352 641.626,88.984C641.821,89.615 641.918,90.475 641.918,91.566C641.918,92.137 641.891,92.812 641.835,93.592C641.78,94.371 641.713,95.102 641.632,95.784C641.256,98.461 640.867,100.989 640.465,103.366C640.064,105.741 639.74,108.009 639.493,110.169C639.246,112.327 639.123,114.572 639.123,116.904L639.123,120.866C639.123,123.099 638.977,124.887 638.686,126.231C638.395,127.575 637.86,128.247 637.079,128.247C636.314,128.247 635.686,127.609 635.196,126.333C634.707,125.057 634.2,123.012 633.676,120.198C632.755,115.212 631.419,111.56 629.666,109.242C627.914,106.922 625.26,105.762 621.705,105.762L615.414,105.762C614.031,105.762 612.911,106.283 612.053,107.325C611.196,108.367 610.58,110.439 610.204,113.543C609.829,116.646 609.641,121.333 609.641,127.602L609.641,209.981C609.641,213.994 610.308,216.915 611.643,218.742C612.978,220.568 615.21,222.182 618.338,223.583C619.184,223.992 619.88,224.469 620.428,225.015C620.977,225.56 621.251,226.478 621.251,227.769C621.251,228.698 621.01,229.417 620.528,229.926C620.046,230.435 619.445,230.689 618.726,230.689C616.938,230.689 614.92,230.615 612.673,230.466C610.426,230.317 608.207,230.174 606.014,230.038C603.823,229.901 601.895,229.833 600.232,229.833C598.54,229.833 596.63,229.901 594.5,230.038C592.371,230.174 590.218,230.344 588.042,230.549C585.866,230.753 583.851,230.856 581.996,230.856Z" style="fill:rgb(237,13,13);fill-rule:nonzero;"/>
        </g>
        <g transform="matrix(0.756999,0,0,0.756999,207.678,69.7717)">
            <path d="M645.852,230.782C644.233,230.782 643.423,229.809 643.423,227.862C643.423,226.187 644.354,224.818 646.217,223.753C647.431,223.071 648.502,222.324 649.428,221.513C650.355,220.701 650.827,218.82 650.842,215.87L650.842,117.78C650.842,114.099 650.56,110.889 649.997,108.149C649.434,105.41 648.134,103.712 646.095,103.056C645.234,102.783 644.803,101.717 644.803,99.858C644.803,98.183 645.193,97.197 645.974,96.899C647.838,96.217 649.974,95.216 652.383,93.895C654.792,92.575 657.128,91.208 659.393,89.796C661.658,88.382 663.405,87.308 664.635,86.575C665.29,86.192 665.798,86 666.159,86C666.667,86 667.003,86.248 667.165,86.744C667.327,87.241 667.408,87.805 667.408,88.438C667.408,89.143 667.356,90.134 667.254,91.41C667.151,92.685 667.052,94.243 666.956,96.081C666.861,97.917 666.78,100.056 666.713,102.497L666.713,149.818C666.713,151.218 666.757,152.451 666.846,153.518C666.934,154.583 667.107,155.313 667.364,155.707C668.594,153.96 670.06,152.014 671.763,149.869C673.467,147.724 675.443,145.847 677.692,144.236C679.94,142.624 682.419,141.817 685.129,141.817C689.428,141.817 693.043,144.386 695.973,149.524C698.904,154.66 700.37,161.753 700.37,170.804L700.37,215.426C700.37,218.263 700.813,220.19 701.699,221.206C702.586,222.222 703.603,223.071 704.752,223.753C705.576,224.272 706.214,224.827 706.667,225.417C707.12,226.005 707.346,226.82 707.346,227.862C707.346,229.809 706.47,230.782 704.718,230.782C702.766,230.782 701.182,230.68 699.966,230.475C698.751,230.271 697.593,230.1 696.491,229.964C695.39,229.828 693.978,229.76 692.255,229.76C690.481,229.76 689.106,229.828 688.129,229.964C687.154,230.1 686.141,230.271 685.091,230.475C684.042,230.68 682.542,230.782 680.591,230.782C678.639,230.782 677.663,229.753 677.663,227.695C677.663,226.628 677.923,225.785 678.441,225.165C678.961,224.545 679.534,224.074 680.159,223.753C681.24,223.182 682.217,222.333 683.089,221.206C683.962,220.079 684.398,218.041 684.398,215.09L684.398,174.712C684.398,171.751 684.027,169.069 683.284,166.667C682.542,164.264 681.586,162.356 680.417,160.944C679.248,159.532 677.971,158.826 676.587,158.826C675.381,158.826 674.049,159.173 672.588,159.867C671.128,160.56 669.732,161.712 668.4,163.324C667.767,164.089 667.345,164.98 667.132,165.996C666.92,167.01 666.814,168.568 666.814,170.67L666.814,215.534C666.827,218.261 667.234,220.114 668.032,221.094C668.83,222.072 669.77,222.902 670.852,223.583C671.544,223.992 672.129,224.519 672.607,225.165C673.086,225.81 673.325,226.654 673.325,227.695C673.325,229.753 672.615,230.782 671.196,230.782C669.576,230.782 668.062,230.68 666.654,230.475C665.247,230.271 663.897,230.1 662.604,229.964C661.311,229.828 659.936,229.76 658.478,229.76C657.102,229.76 655.756,229.828 654.44,229.964C653.125,230.1 651.77,230.271 650.375,230.475C648.979,230.68 647.472,230.782 645.852,230.782Z" style="fill:rgb(237,13,13);fill-rule:nonzero;"/>
        </g>
        <g transform="matrix(0.756999,0,0,0.756999,207.678,69.7717)">
            <path d="M725.013,233.031C722.825,233.031 720.8,232.16 718.936,230.418C717.074,228.677 715.587,226.361 714.475,223.468C713.362,220.573 712.806,217.452 712.806,214.103C712.806,209.406 713.677,205.495 715.418,202.37C717.16,199.245 719.728,196.437 723.123,193.944L733.919,186.027C735.539,184.823 736.539,183.729 736.922,182.745C737.305,181.759 737.504,179.959 737.519,177.345L737.662,165.766C737.743,161.884 737.338,158.845 736.447,156.646C735.558,154.448 734.205,153.349 732.388,153.349C731.373,153.349 730.325,153.717 729.243,154.454C728.161,155.192 727.348,156.05 726.804,157.03C726.517,157.575 726.326,158.226 726.229,158.982C726.135,159.736 726.087,160.503 726.087,161.283C726.087,162.052 726.124,163.028 726.197,164.213C726.271,165.397 726.307,166.374 726.307,167.143C726.307,168.048 725.652,169.137 724.341,170.408C723.03,171.678 721.532,172.812 719.845,173.811C718.159,174.808 716.711,175.307 715.503,175.307C714.9,175.307 714.393,174.912 713.983,174.124C713.574,173.336 713.37,172.334 713.37,171.118C713.37,168.936 713.812,166.781 714.695,164.65C715.579,162.52 717.023,160.084 719.025,157.343C721.153,154.369 723.476,151.736 725.994,149.444C728.513,147.15 730.991,145.306 733.428,143.91C735.866,142.515 737.96,141.817 739.711,141.817C744.022,141.817 747.477,144.171 750.077,148.879C752.677,153.584 753.903,159.813 753.755,167.565L753.148,208.93C753.067,212.016 753.385,214.642 754.102,216.806C754.82,218.968 755.727,220.049 756.824,220.049C758.382,220.049 759.714,219.188 760.818,217.464C761.09,217.006 761.348,216.777 761.591,216.777C761.996,216.777 762.336,217.011 762.612,217.477C762.889,217.941 763.027,218.514 763.027,219.196C763.027,220.807 762.284,222.865 760.796,225.373C759.3,227.888 757.687,229.794 755.956,231.089C754.227,232.384 752.449,233.031 750.622,233.031C746.1,233.031 742.347,229.151 739.364,221.391L739.1,221.391C736.428,225.519 734.01,228.491 731.847,230.306C729.683,232.123 727.405,233.031 725.013,233.031ZM732.215,219.695C733.104,219.695 733.85,219.447 734.453,218.953C735.055,218.457 735.603,217.683 736.096,216.63C736.368,216.062 736.579,215.337 736.73,214.458C736.88,213.578 736.963,212.514 736.977,211.266L737.32,196.548C737.334,195.272 737.226,194.434 736.997,194.034C736.77,193.631 736.479,193.43 736.126,193.43C735.964,193.43 735.764,193.47 735.525,193.551C735.287,193.63 735.01,193.819 734.694,194.117C732.328,196.036 730.58,198.002 729.452,200.015C728.323,202.026 727.759,205.197 727.759,209.527C727.759,213.406 728.254,216.071 729.243,217.522C730.232,218.97 731.223,219.695 732.215,219.695Z" style="fill:rgb(237,13,13);fill-rule:nonzero;"/>
        </g>
        <g transform="matrix(0.756999,0,0,0.756999,207.678,69.7717)">
            <path d="M789.149,233.031C783.787,233.031 779.776,230.763 777.117,226.226C774.458,221.688 773.129,215.231 773.129,206.853L773.129,159.746C773.129,158.542 772.853,157.674 772.3,157.142C771.748,156.609 770.763,156.286 769.343,156.174L767.719,156.174C767.181,156.174 766.721,155.395 766.337,153.838C765.954,152.281 765.762,150.858 765.762,149.569C765.762,149.296 765.817,148.944 765.927,148.511C766.037,148.077 766.233,147.791 766.514,147.655C768.465,146.417 770.556,144.509 772.788,141.929C775.021,139.35 777.165,136.637 779.221,133.791C781.277,130.943 782.935,128.602 784.195,126.768C784.799,125.975 785.309,125.313 785.725,124.78C786.141,124.246 786.652,123.978 787.257,123.978C787.993,123.978 788.527,124.227 788.858,124.723C789.19,125.219 789.281,126.335 789.133,128.072L788.327,140.127C788.246,141.848 788.481,143.01 789.033,143.613C789.586,144.214 790.356,144.514 791.342,144.514L805.787,144.514C805.978,144.514 806.195,144.985 806.437,145.926C806.68,146.868 806.802,147.73 806.802,148.511C806.802,150.52 806.647,152.384 806.337,154.103C806.028,155.82 805.678,156.678 805.287,156.678L793.96,156.678C792.135,156.678 790.869,157.063 790.162,157.832C789.455,158.601 789.101,159.957 789.101,161.899L789.101,200.507C789.101,206.744 789.806,211.403 791.215,214.483C792.626,217.561 794.528,219.1 796.92,219.1C799.201,219.1 800.89,218.71 801.985,217.931C803.082,217.149 804.091,216.424 805.01,215.755C805.305,215.482 805.567,215.346 805.796,215.346C806.186,215.346 806.491,215.764 806.713,216.602C806.934,217.439 807.045,218.422 807.045,219.551C807.045,220.345 806.194,221.849 804.492,224.062C802.791,226.274 800.585,228.321 797.875,230.204C795.165,232.089 792.256,233.031 789.149,233.031Z" style="fill:rgb(237,13,13);fill-rule:nonzero;"/>
        </g>
        <g transform="matrix(0.756999,0,0,0.756999,207.678,69.7717)">
            <path d="M817.695,146.751C817.173,146.751 816.817,146.066 816.629,144.696C816.441,143.327 816.348,142.108 816.348,141.041C816.429,138.412 816.419,136.061 816.319,133.986C816.219,131.909 816.169,129.816 816.169,127.707C816.169,124.584 816.112,121.574 815.999,118.674C815.885,115.773 815.771,113.058 815.657,110.53C815.543,108.001 815.486,105.786 815.486,103.884C815.486,101.939 815.865,100.235 816.623,98.771C817.382,97.308 818.137,96.18 818.889,95.388C820.259,93.801 821.478,92.577 822.546,91.716C823.614,90.854 824.866,90.422 826.302,90.422C827.215,90.422 827.943,91.182 828.484,92.7C829.027,94.219 829.298,95.977 829.298,97.973C829.298,102.186 828.821,107.03 827.867,112.504C826.913,117.979 825.808,123.254 824.552,128.33C823.295,133.406 822.211,137.452 821.299,140.466C820.842,141.916 820.225,143.327 819.447,144.696C818.67,146.066 818.086,146.751 817.695,146.751Z" style="fill:rgb(237,13,13);fill-rule:nonzero;"/>
        </g>
        <g transform="matrix(0.756999,0,0,0.756999,198.569,69.7717)">
            <path d="M856.919,233.031C854.21,233.031 851.613,232.496 849.128,231.424C846.643,230.353 844.366,228.602 842.296,226.171C841.559,224.114 841.039,220.894 840.736,216.512C840.435,212.128 840.31,207.547 840.362,202.769C840.362,201.095 841.154,200.258 842.738,200.258C843.394,200.258 843.962,200.613 844.444,201.322C844.928,202.029 845.243,202.711 845.391,203.367C846.908,209.042 848.671,213.897 850.681,217.934C852.69,221.971 855.133,223.989 858.012,223.989C860.161,223.989 861.8,222.856 862.929,220.589C864.057,218.321 864.622,215.769 864.622,212.933C864.622,209.365 863.793,206.392 862.136,204.012C860.479,201.633 858.494,199.429 856.178,197.402C853.824,195.32 851.597,193.012 849.498,190.477C847.399,187.943 845.683,184.866 844.35,181.246C843.016,177.625 842.349,173.272 842.349,168.188C842.349,162.817 843.205,158.165 844.917,154.231C846.63,150.294 848.967,147.214 851.927,144.99C854.888,142.764 858.19,141.651 861.834,141.651C864.529,141.651 867.001,142.144 869.25,143.131C871.501,144.115 873.064,145.084 873.94,146.038C874.588,147.427 875.101,150.004 875.481,153.768C875.86,157.529 876.05,161.68 876.05,166.219C876.05,167.621 875.313,168.322 873.839,168.322C873.286,168.322 872.704,167.984 872.093,167.309C871.482,166.631 871.096,165.964 870.934,165.305C869.881,160.025 868.532,156.052 866.886,153.387C865.241,150.722 863.41,149.39 861.394,149.39C859.569,149.39 857.934,150.357 856.488,152.291C855.042,154.223 854.319,156.831 854.319,160.113C854.319,162.912 855.104,165.456 856.676,167.743C858.248,170.029 860.223,172.237 862.599,174.367C867.826,178.977 871.578,183.42 873.853,187.698C876.127,191.975 877.265,197.708 877.265,204.898C877.265,213.712 875.538,220.605 872.086,225.577C868.633,230.547 863.577,233.031 856.919,233.031Z" style="fill:rgb(237,13,13);fill-rule:nonzero;"/>
        </g>
        <g transform="matrix(0.756999,0,0,0.756999,207.678,69.7717)">
            <path d="M914.296,230.782C913.767,230.782 913.23,230.529 912.685,230.022C912.14,229.512 911.867,228.792 911.867,227.862C911.867,226.771 912.16,225.916 912.746,225.296C913.332,224.676 913.97,224.162 914.661,223.753C915.875,223.094 916.949,222.317 917.883,221.42C918.818,220.521 919.286,218.708 919.286,215.982L919.286,169.165C919.286,166.266 919.029,163.773 918.517,161.685C918.006,159.598 916.997,158.3 915.49,157.794C915.166,157.634 914.866,157.272 914.589,156.707C914.313,156.143 914.175,155.283 914.175,154.129C914.175,152.182 914.573,151.028 915.369,150.668C918.135,149.554 921.173,148.083 924.482,146.256C927.79,144.426 930.594,142.477 932.893,140.408C933.267,140.136 933.655,139.785 934.056,139.357C934.458,138.929 934.814,138.715 935.124,138.715C935.618,138.715 935.925,138.963 936.047,139.459C936.168,139.956 936.229,140.52 936.229,141.153C936.229,142.218 936.128,143.965 935.925,146.393C935.723,148.821 935.622,150.99 935.622,152.898C935.622,153.444 935.642,154.039 935.682,154.685C935.723,155.328 935.784,155.718 935.865,155.854C938.633,151.468 941.417,148.032 944.217,145.546C947.017,143.06 950.287,141.817 954.026,141.817C958.258,141.817 961.803,144.433 964.66,149.665C967.517,154.894 968.945,162.034 968.945,171.082L968.945,216.148C968.945,218.874 969.412,220.653 970.345,221.484C971.28,222.315 972.355,223.071 973.57,223.753C974.218,224.162 974.795,224.689 975.303,225.334C975.811,225.977 976.065,226.844 976.065,227.935C976.065,228.866 975.831,229.573 975.363,230.057C974.896,230.54 974.42,230.782 973.934,230.782C972.315,230.782 970.794,230.68 969.372,230.475C967.951,230.271 966.57,230.1 965.229,229.964C963.888,229.828 962.489,229.76 961.031,229.76C959.655,229.76 958.288,229.828 956.932,229.964C955.577,230.1 954.202,230.271 952.806,230.475C951.411,230.68 949.903,230.782 948.284,230.782C947.812,230.782 947.355,230.54 946.914,230.057C946.472,229.573 946.251,228.866 946.251,227.935C946.251,226.844 946.488,225.977 946.963,225.334C947.439,224.689 948,224.162 948.648,223.753C949.863,223.071 950.887,222.315 951.721,221.484C952.556,220.653 952.973,218.874 952.973,216.148L952.973,175.383C952.973,170.169 952.263,166.087 950.844,163.139C949.424,160.189 947.553,158.702 945.23,158.679C943.444,158.679 941.855,159.127 940.465,160.024C939.076,160.921 937.664,162.248 936.229,164.005C935.905,164.44 935.662,165.017 935.5,165.737C935.338,166.455 935.257,167.166 935.257,167.871L935.257,216.148C935.257,218.874 935.691,220.66 936.559,221.503C937.427,222.344 938.435,223.094 939.584,223.753C941.181,224.681 941.979,226.051 941.979,227.862C941.979,228.68 941.777,229.371 941.372,229.935C940.967,230.5 940.493,230.782 939.949,230.782C938.329,230.782 936.838,230.68 935.476,230.475C934.113,230.271 932.81,230.1 931.568,229.964C930.327,229.828 928.978,229.76 927.52,229.76C926.144,229.76 924.748,229.828 923.334,229.964C921.919,230.1 920.464,230.271 918.969,230.475C917.473,230.68 915.916,230.782 914.296,230.782Z" style="fill:rgb(237,13,13);fill-rule:nonzero;"/>
        </g>
        <g transform="matrix(0.756999,0,0,0.756999,207.678,69.7717)">
            <path d="M1006.92,233.031C1002.05,233.031 997.662,231.204 993.753,227.548C989.843,223.891 986.732,218.821 984.419,212.339C982.108,205.857 980.952,198.494 980.952,190.251C980.952,183.743 981.687,177.567 983.156,171.721C984.624,165.876 986.656,160.704 989.251,156.205C991.847,151.707 994.881,148.157 998.351,145.556C1001.82,142.953 1005.55,141.651 1009.54,141.651C1014.57,141.651 1019.1,143.616 1023.13,147.546C1027.16,151.474 1030.38,156.679 1032.77,163.161C1035.16,169.644 1036.36,176.734 1036.36,184.432C1036.36,193.121 1035.26,201.178 1033.06,208.604C1030.86,216.028 1027.59,221.955 1023.24,226.385C1018.89,230.816 1013.45,233.031 1006.92,233.031ZM1009.27,224.046C1010.96,224.046 1012.43,223.468 1013.69,222.311C1014.95,221.153 1015.98,219.435 1016.8,217.158C1017.77,214.359 1018.45,210.598 1018.84,205.875C1019.23,201.153 1019.43,195.641 1019.43,189.34C1019.43,181.901 1018.93,175.288 1017.95,169.501C1016.96,163.713 1015.59,159.129 1013.84,155.749C1012.09,152.366 1010.03,150.675 1007.68,150.675C1006.42,150.675 1005.27,151.03 1004.23,151.742C1003.19,152.453 1002.27,153.539 1001.47,154.998C1000.05,157.622 999.082,161.472 998.562,166.548C998.043,171.625 997.784,177.846 997.784,185.212C997.784,191.668 998.28,197.874 999.273,203.83C1000.27,209.784 1001.64,214.642 1003.38,218.404C1005.13,222.166 1007.09,224.046 1009.27,224.046Z" style="fill:rgb(237,13,13);fill-rule:nonzero;"/>
        </g>
        <g transform="matrix(0.756999,0,0,0.756999,207.678,69.7717)">
            <path d="M1065.83,233.031C1060.47,233.031 1056.46,230.763 1053.8,226.226C1051.14,221.688 1049.81,215.231 1049.81,206.853L1049.81,159.746C1049.81,158.542 1049.54,157.674 1048.98,157.142C1048.43,156.609 1047.44,156.286 1046.03,156.174L1044.4,156.174C1043.86,156.174 1043.4,155.395 1043.02,153.838C1042.64,152.281 1042.44,150.858 1042.44,149.569C1042.44,149.296 1042.5,148.944 1042.61,148.511C1042.72,148.077 1042.91,147.791 1043.2,147.655C1045.15,146.417 1047.24,144.509 1049.47,141.929C1051.7,139.35 1053.85,136.637 1055.9,133.791C1057.96,130.943 1059.62,128.602 1060.88,126.768C1061.48,125.975 1061.99,125.313 1062.41,124.78C1062.82,124.246 1063.33,123.978 1063.94,123.978C1064.67,123.978 1065.21,124.227 1065.54,124.723C1065.87,125.219 1065.96,126.335 1065.82,128.072L1065.01,140.127C1064.93,141.848 1065.16,143.01 1065.71,143.613C1066.27,144.214 1067.04,144.514 1068.03,144.514L1082.47,144.514C1082.66,144.514 1082.88,144.985 1083.12,145.926C1083.36,146.868 1083.48,147.73 1083.48,148.511C1083.48,150.52 1083.33,152.384 1083.02,154.103C1082.71,155.82 1082.36,156.678 1081.97,156.678L1070.64,156.678C1068.82,156.678 1067.55,157.063 1066.84,157.832C1066.14,158.601 1065.78,159.957 1065.78,161.899L1065.78,200.507C1065.78,206.744 1066.49,211.403 1067.9,214.483C1069.31,217.561 1071.21,219.1 1073.6,219.1C1075.88,219.1 1077.57,218.71 1078.67,217.931C1079.76,217.149 1080.77,216.424 1081.69,215.755C1081.99,215.482 1082.25,215.346 1082.48,215.346C1082.87,215.346 1083.17,215.764 1083.39,216.602C1083.62,217.439 1083.73,218.422 1083.73,219.551C1083.73,220.345 1082.88,221.849 1081.17,224.062C1079.47,226.274 1077.27,228.321 1074.56,230.204C1071.85,232.089 1068.94,233.031 1065.83,233.031Z" style="fill:rgb(237,13,13);fill-rule:nonzero;"/>
        </g>
        <g transform="matrix(0.756999,0,0,0.756999,207.678,69.7717)">
            <path d="M561.361,488.25C560.823,488.25 560.28,488.007 559.731,487.522C559.183,487.038 558.909,486.332 558.909,485.403C558.909,484.312 559.179,483.444 559.72,482.799C560.261,482.154 560.922,481.626 561.703,481.217C563.449,480.312 564.656,479.36 565.324,478.361C565.993,477.364 566.328,475.726 566.328,473.447L566.328,375.471C566.328,373.821 566.129,372.156 565.732,370.477C565.334,368.799 564.764,367.329 564.02,366.068C563.277,364.805 562.35,364.025 561.24,363.729C560.783,363.48 560.424,363.111 560.162,362.623C559.9,362.133 559.769,361.28 559.769,360.064C559.769,358.935 559.9,358.111 560.162,357.591C560.424,357.069 560.742,356.74 561.118,356.604C563.929,355.487 566.959,354.046 570.207,352.28C573.456,350.515 576.251,348.67 578.593,346.746C578.94,346.523 579.295,346.21 579.66,345.807C580.025,345.402 580.348,345.2 580.629,345.2C581.123,345.2 581.434,345.461 581.563,345.983C581.692,346.502 581.757,347.079 581.757,347.711C581.757,348.827 581.655,350.631 581.453,353.121C581.251,355.611 581.149,357.786 581.149,359.645C581.149,360.96 581.223,361.742 581.369,361.991C582.179,360.627 583.623,358.805 585.702,356.524C587.782,354.242 590.165,352.194 592.851,350.379C595.538,348.562 598.137,347.654 600.647,347.654C604.991,347.654 608.689,349.612 611.744,353.53C614.799,357.447 617.133,362.455 618.744,368.554C620.358,374.65 621.164,381.014 621.164,387.645C621.164,394.004 620.442,400.192 618.999,406.209C617.556,412.227 615.547,417.665 612.97,422.524C610.394,427.383 607.412,431.238 604.025,434.088C600.64,436.938 596.978,438.363 593.039,438.363C592.171,438.363 591.113,438.168 589.866,437.778C588.62,437.388 587.363,436.856 586.097,436.181C584.832,435.508 583.695,434.781 582.687,434.002C582.606,434.002 582.525,434.199 582.444,434.593C582.363,434.987 582.302,435.477 582.261,436.062C582.221,436.648 582.201,437.201 582.201,437.721L582.201,471.603C582.201,473.486 582.459,475.023 582.977,476.214C583.496,477.404 584.235,478.378 585.195,479.134C586.156,479.89 587.306,480.641 588.647,481.387C589.494,481.796 590.154,482.294 590.629,482.882C591.103,483.472 591.34,484.312 591.34,485.403C591.34,486.221 591.133,486.9 590.718,487.438C590.303,487.98 589.819,488.25 589.266,488.25C586.852,488.25 584.324,488.08 581.683,487.739C579.041,487.398 576.667,487.228 574.562,487.228C573.186,487.228 571.79,487.296 570.376,487.432C568.961,487.568 567.51,487.739 566.022,487.943C564.534,488.148 562.981,488.25 561.361,488.25ZM592.671,428.838C593.553,428.838 594.631,428.281 595.907,427.167C597.183,426.051 598.443,424.186 599.685,421.572C600.929,418.956 601.971,415.471 602.813,411.117C603.655,406.761 604.076,401.399 604.076,395.029C604.076,387.567 603.635,381.619 602.752,377.184C601.87,372.747 600.787,369.413 599.503,367.183C598.22,364.953 596.913,363.485 595.582,362.78C594.251,362.073 593.103,361.719 592.139,361.719C590.662,361.719 589.156,362.261 587.623,363.346C586.089,364.43 584.83,365.712 583.844,367.193C582.859,368.673 582.366,370.002 582.366,371.18C582.366,372.39 582.362,374.558 582.354,377.682C582.347,380.805 582.323,384.273 582.282,388.086C582.242,391.899 582.218,395.378 582.21,398.522C582.204,401.664 582.201,403.793 582.201,404.909C582.201,408.126 582.618,411.605 583.451,415.348C584.285,419.088 585.483,422.272 587.046,424.898C588.61,427.525 590.485,428.838 592.671,428.838Z" style="fill:rgb(237,13,13);fill-rule:nonzero;"/>
        </g>
        <g transform="matrix(0.756999,0,0,0.756999,207.678,69.7717)">
            <path d="M652.743,437.526C647.877,437.526 643.49,435.698 639.58,432.043C635.671,428.385 632.56,423.316 630.247,416.834C627.935,410.352 626.78,402.989 626.78,394.745C626.78,388.237 627.514,382.061 628.983,376.216C630.452,370.371 632.484,365.199 635.079,360.7C637.675,356.201 640.708,352.651 644.179,350.05C647.65,347.447 651.381,346.146 655.372,346.146C660.4,346.146 664.929,348.111 668.96,352.041C672.991,355.969 676.202,361.174 678.595,367.656C680.989,374.138 682.186,381.228 682.186,388.926C682.186,397.615 681.087,405.673 678.889,413.098C676.691,420.522 673.418,426.449 669.07,430.88C664.723,435.31 659.281,437.526 652.743,437.526ZM655.095,428.541C656.785,428.541 658.258,427.963 659.515,426.806C660.772,425.647 661.809,423.929 662.625,421.652C663.597,418.853 664.277,415.092 664.667,410.37C665.058,405.647 665.254,400.135 665.254,393.834C665.254,386.396 664.761,379.783 663.775,373.995C662.79,368.208 661.42,363.623 659.666,360.243C657.913,356.86 655.859,355.169 653.506,355.169C652.25,355.169 651.1,355.525 650.056,356.236C649.012,356.948 648.093,358.033 647.299,359.492C645.879,362.116 644.909,365.967 644.389,371.043C643.871,376.119 643.611,382.34 643.611,389.706C643.611,396.163 644.108,402.369 645.101,408.325C646.094,414.278 647.464,419.136 649.21,422.898C650.957,426.66 652.919,428.541 655.095,428.541Z" style="fill:rgb(237,13,13);fill-rule:nonzero;"/>
        </g>
        <g transform="matrix(0.756999,0,0,0.756999,207.678,69.7717)">
            <path d="M727.08,438.884C726.381,438.884 726.032,438.227 726.032,436.912C726.032,435.325 726.133,433.147 726.336,430.378C726.538,427.607 726.639,425.503 726.639,424.068C726.639,423.458 726.622,422.968 726.588,422.598C726.555,422.225 726.506,421.97 726.44,421.834C724.278,426.231 721.481,429.973 718.05,433.062C714.619,436.149 711.034,437.692 707.295,437.692C704.77,437.692 702.487,436.437 700.448,433.928C698.41,431.417 696.8,427.991 695.618,423.652C694.438,419.311 693.847,414.426 693.847,408.999L693.847,370.672C693.847,367.562 693.509,365.037 692.832,363.096C692.155,361.156 690.886,359.852 689.023,359.185C688.551,359.023 688.12,358.655 687.729,358.08C687.339,357.503 687.145,356.612 687.145,355.409C687.145,354.405 687.31,353.587 687.642,352.955C687.973,352.322 688.415,351.937 688.966,351.801C692.384,351.528 695.472,350.959 698.231,350.092C700.991,349.223 703.803,348.199 706.669,347.021C707.045,346.772 707.459,346.564 707.912,346.398C708.365,346.23 708.805,346.146 709.233,346.146C710.323,346.146 710.828,347.1 710.747,349.009C710.437,352.144 710.205,354.768 710.051,356.882C709.896,358.995 709.819,361.619 709.819,364.755L709.819,403.96C709.819,407.232 710.139,410.098 710.778,412.558C711.418,415.017 712.312,416.937 713.459,418.319C714.607,419.7 715.864,420.445 717.232,420.556C718.541,420.556 719.819,420.268 721.066,419.693C722.313,419.116 723.507,417.928 724.647,416.131C725.139,415.377 725.658,413.941 726.205,411.823C726.751,409.704 727.025,406.867 727.025,403.311L727.025,370.413C727.025,367.998 726.751,365.991 726.203,364.394C725.656,362.794 724.885,361.526 723.888,360.591C722.891,359.654 721.755,359.129 720.481,359.016C719.552,358.905 718.829,358.527 718.31,357.882C717.791,357.236 717.532,356.12 717.532,354.533C717.532,353.082 717.828,352.041 718.42,351.408C719.013,350.775 719.7,350.459 720.481,350.459C724.584,349.988 727.847,349.595 730.27,349.28C732.694,348.963 734.69,348.593 736.259,348.171C737.828,347.75 739.374,347.254 740.897,346.686C741.126,346.549 741.395,346.419 741.704,346.296C742.014,346.17 742.283,346.107 742.511,346.107C743.696,346.107 744.289,346.914 744.289,348.526C744.289,348.997 744.252,349.487 744.179,349.996C744.105,350.505 743.995,351.076 743.847,351.708C743.766,352.228 743.664,353.415 743.543,355.268C743.421,357.121 743.3,359.07 743.179,361.115C743.057,363.16 742.996,364.783 742.996,365.985L742.996,413.392C742.996,416.513 743.219,418.606 743.664,419.671C744.11,420.736 744.616,421.269 745.183,421.269C745.565,421.269 746.15,421.278 746.94,421.297C747.731,421.316 748.277,421.326 748.578,421.326C749.315,421.326 749.887,421.658 750.291,422.323C750.696,422.985 750.899,423.875 750.899,424.991C750.899,426.305 750.753,427.329 750.462,428.062C750.171,428.792 749.617,429.226 748.8,429.362C744.912,429.933 741.402,431.068 738.271,432.768C735.141,434.466 732.453,436.039 730.207,437.488C729.699,437.847 729.168,438.17 728.615,438.456C728.063,438.741 727.552,438.884 727.08,438.884Z" style="fill:rgb(237,13,13);fill-rule:nonzero;"/>
        </g>
        <g transform="matrix(0.756999,0,0,0.756999,207.678,69.7717)">
            <path d="M778.582,437.526C773.22,437.526 769.209,435.257 766.55,430.72C763.892,426.183 762.563,419.725 762.563,411.347L762.563,364.24C762.563,363.037 762.286,362.169 761.733,361.636C761.182,361.104 760.196,360.781 758.776,360.668L757.152,360.668C756.614,360.668 756.154,359.889 755.77,358.332C755.387,356.775 755.195,355.352 755.195,354.063C755.195,353.791 755.25,353.438 755.36,353.006C755.471,352.571 755.666,352.286 755.947,352.149C757.898,350.912 759.989,349.003 762.221,346.424C764.454,343.844 766.598,341.131 768.654,338.285C770.71,335.437 772.368,333.096 773.629,331.262C774.232,330.47 774.742,329.807 775.158,329.275C775.574,328.74 776.085,328.473 776.69,328.473C777.426,328.473 777.96,328.721 778.291,329.217C778.623,329.714 778.715,330.83 778.567,332.566L777.76,344.621C777.679,346.343 777.914,347.505 778.466,348.107C779.019,348.708 779.789,349.009 780.776,349.009L795.22,349.009C795.411,349.009 795.628,349.479 795.871,350.421C796.114,351.362 796.235,352.224 796.235,353.006C796.235,355.014 796.08,356.878 795.77,358.597C795.461,360.314 795.111,361.173 794.721,361.173L783.393,361.173C781.568,361.173 780.302,361.557 779.595,362.326C778.888,363.095 778.534,364.451 778.534,366.394L778.534,405.002C778.534,411.239 779.239,415.897 780.648,418.978C782.059,422.056 783.961,423.595 786.353,423.595C788.634,423.595 790.323,423.205 791.418,422.425C792.515,421.643 793.524,420.918 794.443,420.249C794.738,419.977 795,419.84 795.229,419.84C795.619,419.84 795.924,420.259 796.146,421.096C796.367,421.933 796.478,422.916 796.478,424.045C796.478,424.84 795.627,426.344 793.925,428.557C792.224,430.768 790.018,432.815 787.308,434.698C784.598,436.583 781.689,437.526 778.582,437.526Z" style="fill:rgb(237,13,13);fill-rule:nonzero;"/>
        </g>
        <g transform="matrix(0.756999,0,0,0.756999,214.763,69.7717)">
            <path d="M802.035,435.276C801.506,435.276 801.035,435.023 800.623,434.516C800.21,434.007 800.004,433.343 800.004,432.525C800.004,431.435 800.208,430.573 800.615,429.94C801.024,429.308 801.552,428.855 802.2,428.582C804.299,427.677 805.777,426.741 806.635,425.774C807.493,424.807 807.922,423.208 807.922,420.978L807.922,376.772C807.922,372.083 807.503,368.783 806.667,366.87C805.832,364.957 804.495,363.784 802.655,363.352C802.183,363.216 801.83,362.803 801.594,362.115C801.359,361.427 801.241,360.618 801.241,359.687C801.241,357.629 801.705,356.476 802.632,356.227C806.801,354.776 810.535,352.827 813.835,350.379C817.136,347.93 819.645,346.023 821.362,344.66C822.688,343.595 823.52,343.062 823.859,343.062C824.876,343.062 825.385,343.906 825.385,345.593C825.318,347.913 825.15,350.786 824.88,354.214C824.612,357.641 824.38,361.214 824.186,364.934C823.991,368.651 823.893,372.189 823.893,375.548L823.893,420.812C823.893,422.682 824.309,424.162 825.14,425.253C825.971,426.344 827.462,427.453 829.613,428.582C830.261,428.966 830.806,429.418 831.247,429.94C831.689,430.46 831.91,431.265 831.91,432.356C831.91,434.192 831.266,435.11 829.978,435.11C828.439,435.11 826.839,435.036 825.176,434.887C823.515,434.737 821.894,434.595 820.314,434.458C818.734,434.322 817.215,434.254 815.757,434.254C814.381,434.254 812.932,434.322 811.41,434.458C809.889,434.595 808.351,434.765 806.796,434.97C805.241,435.174 803.654,435.276 802.035,435.276ZM815.368,333.838C812.805,333.838 810.588,332.262 808.717,329.112C806.845,325.961 805.91,322.228 805.91,317.913C805.91,313.237 806.845,309.324 808.717,306.173C810.588,303.023 812.805,301.448 815.368,301.448C818.146,301.448 820.47,303.023 822.341,306.173C824.212,309.324 825.148,313.237 825.148,317.913C825.148,322.228 824.212,325.961 822.341,329.112C820.47,332.262 818.146,333.838 815.368,333.838Z" style="fill:rgb(237,13,13);fill-rule:nonzero;"/>
        </g>
        <g transform="matrix(0.756999,0,0,0.756999,214.763,69.7717)">
            <path d="M838.263,435.276C837.734,435.276 837.197,435.023 836.652,434.516C836.107,434.007 835.834,433.287 835.834,432.356C835.834,431.265 836.127,430.41 836.713,429.79C837.299,429.17 837.937,428.656 838.628,428.247C839.842,427.589 840.916,426.811 841.85,425.914C842.785,425.015 843.253,423.203 843.253,420.476L843.253,373.66C843.253,370.761 842.996,368.267 842.484,366.18C841.973,364.092 840.964,362.795 839.457,362.288C839.133,362.128 838.833,361.766 838.556,361.202C838.28,360.637 838.142,359.778 838.142,358.623C838.142,356.676 838.54,355.523 839.336,355.163C842.103,354.048 845.14,352.578 848.449,350.75C851.757,348.92 854.561,346.971 856.86,344.903C857.234,344.63 857.622,344.28 858.023,343.851C858.425,343.423 858.782,343.209 859.092,343.209C859.585,343.209 859.892,343.457 860.014,343.954C860.135,344.45 860.196,345.015 860.196,345.647C860.196,346.712 860.095,348.459 859.892,350.887C859.69,353.316 859.589,355.484 859.589,357.393C859.589,357.938 859.609,358.533 859.649,359.179C859.69,359.822 859.751,360.212 859.832,360.348C862.6,355.962 865.384,352.526 868.184,350.041C870.984,347.555 874.254,346.312 877.993,346.312C882.226,346.312 885.77,348.928 888.627,354.159C891.484,359.389 892.912,366.528 892.912,375.577L892.912,420.642C892.912,423.369 893.379,425.148 894.313,425.978C895.248,426.809 896.322,427.565 897.537,428.247C898.185,428.656 898.762,429.183 899.27,429.829C899.778,430.472 900.032,431.339 900.032,432.429C900.032,433.36 899.798,434.068 899.33,434.551C898.863,435.035 898.387,435.276 897.901,435.276C896.282,435.276 894.761,435.174 893.339,434.97C891.918,434.765 890.537,434.595 889.196,434.458C887.855,434.322 886.456,434.254 884.998,434.254C883.622,434.254 882.255,434.322 880.899,434.458C879.544,434.595 878.169,434.765 876.773,434.97C875.378,435.174 873.87,435.276 872.251,435.276C871.779,435.276 871.322,435.035 870.881,434.551C870.439,434.068 870.218,433.36 870.218,432.429C870.218,431.339 870.455,430.472 870.93,429.829C871.406,429.183 871.967,428.656 872.615,428.247C873.83,427.565 874.854,426.809 875.688,425.978C876.523,425.148 876.94,423.369 876.94,420.642L876.94,379.878C876.94,374.663 876.23,370.582 874.811,367.633C873.391,364.683 871.52,363.196 869.197,363.173C867.411,363.173 865.822,363.621 864.432,364.518C863.043,365.415 861.631,366.742 860.196,368.499C859.872,368.934 859.629,369.511 859.467,370.231C859.305,370.949 859.224,371.661 859.224,372.366L859.224,420.642C859.224,423.369 859.658,425.154 860.526,425.997C861.394,426.839 862.403,427.589 863.551,428.247C865.148,429.176 865.946,430.545 865.946,432.356C865.946,433.174 865.744,433.865 865.339,434.43C864.934,434.994 864.46,435.276 863.916,435.276C862.296,435.276 860.805,435.174 859.443,434.97C858.08,434.765 856.778,434.595 855.535,434.458C854.294,434.322 852.945,434.254 851.487,434.254C850.111,434.254 848.715,434.322 847.301,434.458C845.886,434.595 844.431,434.765 842.936,434.97C841.44,435.174 839.883,435.276 838.263,435.276Z" style="fill:rgb(237,13,13);fill-rule:nonzero;"/>
        </g>
        <g transform="matrix(0.756999,0,0,0.756999,214.763,69.7717)">
            <path d="M927.734,437.564C923.348,437.564 919.429,435.612 915.976,431.707C912.523,427.803 909.799,422.476 907.804,415.728C905.809,408.98 904.811,401.342 904.811,392.815C904.811,384.237 906,376.431 908.377,369.397C910.756,362.361 913.958,356.755 917.986,352.578C922.014,348.4 926.465,346.312 931.34,346.312C934.778,346.312 937.884,347.571 940.66,350.089C943.436,352.604 945.648,355.973 947.297,360.195C948.947,364.415 949.772,369.215 949.772,374.596C949.772,379.715 948.524,382.274 946.029,382.274L921.696,382.274C920.562,382.274 919.739,382.814 919.227,383.894C918.716,384.972 918.46,386.843 918.46,389.508C918.46,394.71 919.144,399.444 920.512,403.711C921.88,407.977 923.749,411.349 926.118,413.827C928.487,416.304 931.207,417.543 934.276,417.543C936.64,417.543 938.813,416.787 940.797,415.274C942.781,413.762 944.741,411.674 946.676,409.012C946.934,408.664 947.211,408.333 947.506,408.018C947.8,407.701 948.069,407.542 948.312,407.542C949.159,407.542 949.582,408.392 949.582,410.092C949.582,411.564 949.252,413.588 948.591,416.166C947.775,419.649 946.417,423.043 944.517,426.349C942.618,429.655 940.241,432.351 937.387,434.436C934.532,436.521 931.315,437.564 927.734,437.564ZM921.739,373.756L929.008,373.756C931.283,373.756 932.859,373.687 933.737,373.551C934.616,373.415 935.438,373.142 936.202,372.733C936.607,372.486 936.92,371.792 937.142,370.65C937.363,369.508 937.474,368.256 937.474,366.892C937.474,363.275 936.74,360.293 935.272,357.946C933.805,355.598 931.953,354.424 929.718,354.424C928.054,354.424 926.473,355.233 924.975,356.85C923.478,358.466 922.256,360.526 921.307,363.029C920.358,365.532 919.917,368.147 919.984,370.873C919.984,372.795 920.569,373.756 921.739,373.756Z" style="fill:rgb(237,13,13);fill-rule:nonzero;"/>
        </g>
        <g transform="matrix(0.756999,0,0,0.756999,214.763,69.7717)">
            <path d="M967.575,440.881C964.93,440.881 962.641,439.252 960.707,435.995C958.773,432.74 957.807,428.887 957.807,424.435C957.807,419.623 958.773,415.595 960.707,412.351C962.641,409.106 964.93,407.484 967.575,407.484C970.434,407.484 972.827,409.106 974.752,412.351C976.679,415.595 977.642,419.623 977.642,424.435C977.642,428.887 976.679,432.74 974.752,435.995C972.827,439.252 970.434,440.881 967.575,440.881Z" style="fill:rgb(237,13,13);fill-rule:nonzero;"/>
        </g>
    </g>
</svg>
