<?xml version="1.0" encoding="UTF-8" standalone="no"?>
<!DOCTYPE svg PUBLIC "-//W3C//DTD SVG 1.1//EN" "http://www.w3.org/Graphics/SVG/1.1/DTD/svg11.dtd">
<svg width="100%" height="100%" viewBox="0 0 600 300" version="1.1" xmlns="http://www.w3.org/2000/svg" xmlns:xlink="http://www.w3.org/1999/xlink" xml:space="preserve" xmlns:serif="http://www.serif.com/" style="fill-rule:evenodd;clip-rule:evenodd;stroke-linejoin:round;stroke-miterlimit:2;">
    <g transform="matrix(1,0,0,1,11,35.5)">
        <path d="M31.628,85.565L31.628,79.932L40.945,78.415C42.173,78.199 42.787,77.512 42.787,76.357L42.787,29.557L39.428,29.557C38.417,29.557 37.406,29.629 36.395,29.774C35.456,29.846 34.662,30.026 34.012,30.315C33.001,30.749 32.387,31.471 32.17,32.482L28.812,46.024L21.553,46.024C21.12,41.979 20.831,38.224 20.687,34.757C20.615,31.29 20.795,27.535 21.228,23.49L79.187,23.49C79.62,27.535 79.765,31.326 79.62,34.865C79.548,38.332 79.331,42.051 78.97,46.024L71.712,46.024L68.137,32.374C68.065,31.868 67.884,31.471 67.595,31.182C67.306,30.821 66.873,30.532 66.295,30.315C64.923,29.81 63.117,29.557 60.878,29.557L57.737,29.557L57.737,76.357C57.737,77.512 58.351,78.199 59.578,78.415L68.787,79.932L68.787,85.565L31.628,85.565Z" style="fill:rgb(213,43,30);fill-rule:nonzero;"/>
        <path d="M83.303,85.565L83.303,79.932L87.528,79.174C88.828,78.957 89.478,78.199 89.478,76.899L89.478,25.332C89.478,24.032 88.865,23.31 87.637,23.165L82.545,22.299L82.545,16.774C85.362,15.979 88.54,15.437 92.078,15.149C95.69,14.787 98.903,14.607 101.72,14.607L103.67,16.557L103.67,76.899C103.67,77.982 104.248,78.74 105.403,79.174L108.112,79.932L108.112,85.565L83.303,85.565ZM112.77,85.565L112.77,79.932L115.37,79.174C115.948,78.957 116.381,78.704 116.67,78.415C117.031,78.054 117.212,77.549 117.212,76.899L117.212,57.182C117.212,53.499 116.67,50.899 115.587,49.382C114.503,47.865 112.77,47.107 110.387,47.107C108.87,47.107 107.281,47.432 105.62,48.082C104.031,48.66 102.551,49.562 101.178,50.79L101.178,46.782C103.128,44.037 105.476,42.015 108.22,40.715C111.037,39.343 114.178,38.657 117.645,38.657C122.99,38.657 126.601,40.137 128.478,43.099C130.428,46.06 131.403,50.249 131.403,55.665L131.403,76.899C131.403,78.199 132.017,78.957 133.245,79.174L137.47,79.932L137.47,85.565L112.77,85.565Z" style="fill:rgb(213,43,30);fill-rule:nonzero;"/>
        <path d="M162.603,76.899C162.603,78.199 163.217,78.957 164.445,79.174L168.67,79.932L168.67,85.565L142.237,85.565L142.237,79.932L146.462,79.174C147.69,78.957 148.303,78.199 148.303,76.899L148.303,50.14C148.303,48.84 147.726,48.082 146.57,47.865L141.803,46.89L141.803,41.04C144.62,40.246 147.762,39.668 151.228,39.307C154.695,38.946 157.837,38.765 160.653,38.765L162.603,40.499L162.603,76.899ZM162.495,26.307C162.495,28.474 161.773,30.207 160.328,31.507C158.956,32.807 157.115,33.457 154.803,33.457C152.42,33.457 150.506,32.807 149.062,31.507C147.69,30.207 147.003,28.474 147.003,26.307C147.003,24.14 147.69,22.443 149.062,21.215C150.506,19.915 152.42,19.265 154.803,19.265C157.115,19.265 158.956,19.915 160.328,21.215C161.773,22.443 162.495,24.14 162.495,26.307Z" style="fill:rgb(213,43,30);fill-rule:nonzero;"/>
        <path d="M174.737,83.182C174.448,81.087 174.34,78.921 174.412,76.682C174.484,74.443 174.665,72.312 174.953,70.29L182.103,70.29L183.728,76.14C184.09,77.585 184.703,78.632 185.57,79.282C186.148,79.643 186.942,80.04 187.953,80.474C188.965,80.907 190.156,81.124 191.528,81.124C193.478,81.124 194.959,80.582 195.97,79.499C197.053,78.415 197.595,77.151 197.595,75.707C197.595,74.262 197.053,73.071 195.97,72.132C194.887,71.193 193.442,70.29 191.637,69.424C189.831,68.557 187.809,67.582 185.57,66.499C182.392,64.837 179.792,62.996 177.77,60.974C175.82,58.951 174.845,56.207 174.845,52.74C174.845,48.624 176.362,45.265 179.395,42.665C182.428,39.993 187.123,38.657 193.478,38.657C196.078,38.657 198.787,38.91 201.603,39.415C204.492,39.921 206.948,40.571 208.97,41.365C209.115,43.243 209.115,45.265 208.97,47.432C208.898,49.599 208.681,51.657 208.32,53.607L201.712,53.607L199.978,48.082C199.762,47.287 199.509,46.71 199.22,46.349C199.003,45.915 198.606,45.554 198.028,45.265C197.306,44.832 196.548,44.507 195.753,44.29C195.031,44.074 194.273,43.965 193.478,43.965C191.89,43.965 190.59,44.435 189.578,45.374C188.567,46.24 188.062,47.468 188.062,49.057C188.062,50.429 188.495,51.585 189.362,52.524C190.228,53.462 191.348,54.293 192.72,55.015C194.165,55.737 195.717,56.46 197.378,57.182C199.906,58.265 202.253,59.457 204.42,60.757C206.659,61.985 208.428,63.537 209.728,65.415C211.101,67.221 211.787,69.568 211.787,72.457C211.787,77.151 209.909,80.69 206.153,83.074C202.398,85.457 197.667,86.649 191.962,86.649C188.64,86.649 185.498,86.287 182.537,85.565C179.576,84.843 176.976,84.049 174.737,83.182Z" style="fill:rgb(213,43,30);fill-rule:nonzero;"/>
        <path d="M269.42,29.449L263.353,30.64C262.126,30.857 261.512,31.615 261.512,32.915L261.512,76.465C261.512,77.765 262.126,78.524 263.353,78.74L269.42,79.932L269.42,85.565L238.545,85.565L238.545,79.932L244.72,78.74C245.948,78.524 246.562,77.801 246.562,76.574L246.562,32.915C246.562,31.615 245.948,30.857 244.72,30.64L238.545,29.449L238.545,23.49L269.42,23.49L269.42,29.449Z" style="fill:rgb(213,43,30);fill-rule:nonzero;"/>
        <path d="M276.353,83.182C276.065,81.087 275.956,78.921 276.028,76.682C276.101,74.443 276.281,72.312 276.57,70.29L283.72,70.29L285.345,76.14C285.706,77.585 286.32,78.632 287.187,79.282C287.765,79.643 288.559,80.04 289.57,80.474C290.581,80.907 291.773,81.124 293.145,81.124C295.095,81.124 296.576,80.582 297.587,79.499C298.67,78.415 299.212,77.151 299.212,75.707C299.212,74.262 298.67,73.071 297.587,72.132C296.503,71.193 295.059,70.29 293.253,69.424C291.448,68.557 289.426,67.582 287.187,66.499C284.009,64.837 281.409,62.996 279.387,60.974C277.437,58.951 276.462,56.207 276.462,52.74C276.462,48.624 277.978,45.265 281.012,42.665C284.045,39.993 288.74,38.657 295.095,38.657C297.695,38.657 300.403,38.91 303.22,39.415C306.109,39.921 308.565,40.571 310.587,41.365C310.731,43.243 310.731,45.265 310.587,47.432C310.515,49.599 310.298,51.657 309.937,53.607L303.328,53.607L301.595,48.082C301.378,47.287 301.126,46.71 300.837,46.349C300.62,45.915 300.223,45.554 299.645,45.265C298.923,44.832 298.165,44.507 297.37,44.29C296.648,44.074 295.89,43.965 295.095,43.965C293.506,43.965 292.206,44.435 291.195,45.374C290.184,46.24 289.678,47.468 289.678,49.057C289.678,50.429 290.112,51.585 290.978,52.524C291.845,53.462 292.965,54.293 294.337,55.015C295.781,55.737 297.334,56.46 298.995,57.182C301.523,58.265 303.87,59.457 306.037,60.757C308.276,61.985 310.045,63.537 311.345,65.415C312.717,67.221 313.403,69.568 313.403,72.457C313.403,77.151 311.526,80.69 307.77,83.074C304.015,85.457 299.284,86.649 293.578,86.649C290.256,86.649 287.115,86.287 284.153,85.565C281.192,84.843 278.592,84.049 276.353,83.182Z" style="fill:rgb(213,43,30);fill-rule:nonzero;"/>
        <path d="M399.42,30.64C398.192,30.857 397.578,31.615 397.578,32.915L397.578,85.565L384.037,85.565L353.487,34.757L356.412,34.54L356.412,76.574C356.412,77.801 357.026,78.524 358.253,78.74L365.403,79.932L365.403,85.565L340.162,85.565L340.162,79.932L346.337,78.74C347.565,78.524 348.178,77.801 348.178,76.574L348.178,32.915C348.178,31.615 347.565,30.857 346.337,30.64L340.162,29.449L340.162,23.49L363.562,23.49L392.27,70.832L389.345,71.049L389.345,32.915C389.345,31.615 388.731,30.857 387.503,30.64L381.003,29.449L381.003,23.49L405.162,23.49L405.162,29.449L399.42,30.64Z" style="fill:rgb(213,43,30);fill-rule:nonzero;"/>
        <path d="M437.878,63.249C437.878,58.699 437.662,55.051 437.228,52.307C436.795,49.562 436.001,47.612 434.845,46.457C433.762,45.229 432.245,44.615 430.295,44.615C427.912,44.615 426.106,45.879 424.878,48.407C423.723,50.935 423.145,55.485 423.145,62.057C423.145,66.607 423.362,70.254 423.795,72.999C424.301,75.743 425.095,77.729 426.178,78.957C427.262,80.185 428.778,80.799 430.728,80.799C433.112,80.799 434.881,79.535 436.037,77.007C437.265,74.407 437.878,69.821 437.878,63.249ZM407.762,63.14C407.762,57.146 408.773,52.379 410.795,48.84C412.89,45.229 415.706,42.629 419.245,41.04C422.784,39.451 426.756,38.657 431.162,38.657C435.784,38.657 439.72,39.524 442.97,41.257C446.22,42.918 448.712,45.482 450.445,48.949C452.251,52.415 453.153,56.821 453.153,62.165C453.153,68.232 452.142,73.071 450.12,76.682C448.098,80.221 445.317,82.785 441.778,84.374C438.312,85.89 434.34,86.649 429.862,86.649C425.312,86.649 421.376,85.818 418.053,84.157C414.731,82.424 412.167,79.824 410.362,76.357C408.628,72.89 407.762,68.485 407.762,63.14Z" style="fill:rgb(213,43,30);fill-rule:nonzero;"/>
        <path d="M464.853,47.215L458.787,46.132L458.787,40.932L463.77,39.957C464.492,39.812 464.998,39.596 465.287,39.307C465.576,38.946 465.865,38.44 466.153,37.79L470.595,26.307L478.503,26.307L478.937,39.74L491.287,39.74L491.287,46.999L479.153,46.999L479.153,69.207C479.153,72.168 479.587,74.226 480.453,75.382C481.32,76.465 482.656,77.007 484.462,77.007C485.473,77.007 486.592,76.826 487.82,76.465C489.048,76.104 490.167,75.49 491.178,74.624L493.887,77.657C492.587,80.546 490.528,82.712 487.712,84.157C484.895,85.529 481.681,86.215 478.07,86.215C475.326,86.215 472.942,85.818 470.92,85.024C468.97,84.157 467.453,82.712 466.37,80.69C465.359,78.668 464.853,75.887 464.853,72.349L464.853,47.215Z" style="fill:rgb(213,43,30);fill-rule:nonzero;"/>
        <path d="M44.953,172.624C44.953,173.707 45.531,174.321 46.687,174.465L56.437,175.765L56.437,181.399L21.987,181.399L21.987,175.765L28.27,174.574C29.426,174.357 30.003,173.707 30.003,172.624L30.003,128.424C30.003,127.412 29.462,126.799 28.378,126.582L21.987,125.282L21.987,119.324L37.695,119.324C38.851,119.324 40.078,119.287 41.378,119.215C42.751,119.143 44.231,119.071 45.82,118.999C47.409,118.926 49.215,118.89 51.237,118.89C57.231,118.89 61.89,119.612 65.212,121.057C68.606,122.429 70.99,124.451 72.362,127.124C73.734,129.796 74.42,133.082 74.42,136.982C74.42,141.604 73.481,145.612 71.603,149.007C69.798,152.329 67.09,154.893 63.478,156.699C59.94,158.432 55.498,159.299 50.153,159.299C48.926,159.299 47.698,159.262 46.47,159.19C45.315,159.118 44.195,159.046 43.112,158.974L43.003,153.015C44.303,153.16 45.387,153.304 46.253,153.449C47.192,153.521 48.348,153.557 49.72,153.557C51.598,153.557 53.223,153.087 54.595,152.149C56.04,151.137 57.159,149.476 57.953,147.165C58.82,144.782 59.253,141.532 59.253,137.415C59.253,132.937 58.423,129.687 56.762,127.665C55.173,125.571 52.79,124.524 49.612,124.524C48.24,124.524 47.265,124.596 46.687,124.74C46.109,124.812 45.531,124.885 44.953,124.957L44.953,172.624Z" style="fill:rgb(213,43,30);fill-rule:nonzero;"/>
        <path d="M108.437,159.082C108.437,154.532 108.22,150.885 107.787,148.14C107.353,145.396 106.559,143.446 105.403,142.29C104.32,141.062 102.803,140.449 100.853,140.449C98.47,140.449 96.665,141.712 95.437,144.24C94.281,146.768 93.703,151.318 93.703,157.89C93.703,162.44 93.92,166.087 94.353,168.832C94.859,171.576 95.653,173.562 96.737,174.79C97.82,176.018 99.337,176.632 101.287,176.632C103.67,176.632 105.44,175.368 106.595,172.84C107.823,170.24 108.437,165.654 108.437,159.082ZM78.32,158.974C78.32,152.979 79.331,148.212 81.353,144.674C83.448,141.062 86.265,138.462 89.803,136.874C93.342,135.285 97.315,134.49 101.72,134.49C106.342,134.49 110.278,135.357 113.528,137.09C116.778,138.751 119.27,141.315 121.003,144.782C122.809,148.249 123.712,152.654 123.712,157.999C123.712,164.065 122.701,168.904 120.678,172.515C118.656,176.054 115.876,178.618 112.337,180.207C108.87,181.724 104.898,182.482 100.42,182.482C95.87,182.482 91.934,181.651 88.612,179.99C85.29,178.257 82.726,175.657 80.92,172.19C79.187,168.724 78.32,164.318 78.32,158.974Z" style="fill:rgb(213,43,30);fill-rule:nonzero;"/>
        <path d="M165.42,173.924C163.542,176.596 161.376,178.654 158.92,180.099C156.465,181.543 153.142,182.265 148.953,182.265C144.259,182.265 140.72,181.001 138.337,178.474C136.026,175.946 134.87,172.046 134.87,166.774L134.87,145.757C134.87,144.529 134.292,143.771 133.137,143.482L128.912,142.399L128.912,136.549C131.656,135.899 134.69,135.393 138.012,135.032C141.406,134.671 144.476,134.49 147.22,134.49L149.062,136.224L149.062,164.932C149.062,168.687 149.567,171.251 150.578,172.624C151.662,173.924 153.287,174.574 155.453,174.574C156.898,174.574 158.306,174.285 159.678,173.707C161.123,173.129 162.495,172.335 163.795,171.324L165.42,173.924ZM181.995,180.64C181.056,180.929 179.648,181.254 177.77,181.615C175.892,181.976 174.123,182.157 172.462,182.157C169.501,182.157 167.117,181.435 165.312,179.99C163.578,178.546 162.423,176.379 161.845,173.49L161.845,145.649C161.845,144.349 161.267,143.59 160.112,143.374L155.562,142.29L155.562,136.44C158.378,135.79 161.484,135.321 164.878,135.032C168.273,134.671 171.378,134.49 174.195,134.49L176.037,136.224L176.037,172.407C176.037,173.274 176.217,173.887 176.578,174.249C176.94,174.537 177.445,174.718 178.095,174.79L181.995,175.332L181.995,180.64Z" style="fill:rgb(213,43,30);fill-rule:nonzero;"/>
        <path d="M191.853,143.049L185.787,141.965L185.787,136.765L190.77,135.79C191.492,135.646 191.998,135.429 192.287,135.14C192.576,134.779 192.865,134.274 193.153,133.624L197.595,122.14L205.503,122.14L205.937,135.574L218.287,135.574L218.287,142.832L206.153,142.832L206.153,165.04C206.153,168.001 206.587,170.06 207.453,171.215C208.32,172.299 209.656,172.84 211.462,172.84C212.473,172.84 213.592,172.66 214.82,172.299C216.048,171.937 217.167,171.324 218.178,170.457L220.887,173.49C219.587,176.379 217.528,178.546 214.712,179.99C211.895,181.362 208.681,182.049 205.07,182.049C202.326,182.049 199.942,181.651 197.92,180.857C195.97,179.99 194.453,178.546 193.37,176.524C192.359,174.501 191.853,171.721 191.853,168.182L191.853,143.049Z" style="fill:rgb(213,43,30);fill-rule:nonzero;"/>
        <path d="M245.37,172.732C245.37,174.032 245.984,174.79 247.212,175.007L251.437,175.765L251.437,181.399L225.003,181.399L225.003,175.765L229.228,175.007C230.456,174.79 231.07,174.032 231.07,172.732L231.07,145.974C231.07,144.674 230.492,143.915 229.337,143.699L224.57,142.724L224.57,136.874C227.387,136.079 230.528,135.501 233.995,135.14C237.462,134.779 240.603,134.599 243.42,134.599L245.37,136.332L245.37,172.732ZM245.262,122.14C245.262,124.307 244.54,126.04 243.095,127.34C241.723,128.64 239.881,129.29 237.57,129.29C235.187,129.29 233.273,128.64 231.828,127.34C230.456,126.04 229.77,124.307 229.77,122.14C229.77,119.974 230.456,118.276 231.828,117.049C233.273,115.749 235.187,115.099 237.57,115.099C239.881,115.099 241.723,115.749 243.095,117.049C244.54,118.276 245.262,119.974 245.262,122.14Z" style="fill:rgb(213,43,30);fill-rule:nonzero;"/>
        <path d="M285.887,181.399L285.887,175.765L288.595,175.007C289.173,174.862 289.606,174.61 289.895,174.249C290.184,173.887 290.328,173.382 290.328,172.732L290.328,153.124C290.328,149.368 289.787,146.732 288.703,145.215C287.62,143.699 285.923,142.94 283.612,142.94C282.095,142.94 280.506,143.265 278.845,143.915C277.256,144.493 275.74,145.396 274.295,146.624L274.403,142.615C276.353,139.871 278.701,137.849 281.445,136.549C284.19,135.176 287.295,134.49 290.762,134.49C296.106,134.49 299.717,135.971 301.595,138.932C303.545,141.893 304.52,146.118 304.52,151.607L304.52,172.732C304.52,174.032 305.134,174.79 306.362,175.007L310.695,175.765L310.695,181.399L285.887,181.399ZM256.528,181.399L256.528,175.765L260.862,175.007C262.017,174.79 262.595,174.032 262.595,172.732L262.595,145.974C262.595,144.674 262.017,143.915 260.862,143.699L256.095,142.724L256.095,136.874C258.84,136.151 261.728,135.61 264.762,135.249C267.795,134.887 270.648,134.671 273.32,134.599L275.378,136.332L276.895,144.457L276.895,172.732C276.895,173.887 277.473,174.646 278.628,175.007L281.228,175.765L281.228,181.399L256.528,181.399Z" style="fill:rgb(213,43,30);fill-rule:nonzero;"/>
        <path d="M315.57,158.865C315.57,150.921 317.484,144.89 321.312,140.774C325.212,136.585 330.737,134.49 337.887,134.49C344.17,134.49 348.72,135.971 351.537,138.932C354.353,141.893 355.762,145.649 355.762,150.199C355.762,151.282 355.69,152.401 355.545,153.557C355.473,154.712 355.328,155.796 355.112,156.807L325.32,156.807L325.32,151.607L342.762,151.607C342.834,151.246 342.87,150.921 342.87,150.632L342.87,149.549C342.87,146.804 342.401,144.565 341.462,142.832C340.523,141.099 339.006,140.232 336.912,140.232C334.817,140.232 333.156,141.387 331.928,143.699C330.701,145.937 330.087,150.162 330.087,156.374C330.087,160.418 330.412,163.74 331.062,166.34C331.712,168.868 332.831,170.746 334.42,171.974C336.081,173.201 338.284,173.815 341.028,173.815C343.195,173.815 345.29,173.454 347.312,172.732C349.334,172.01 351.031,170.89 352.403,169.374L355.437,171.649C354.426,175.187 352.223,177.896 348.828,179.774C345.506,181.579 341.462,182.482 336.695,182.482C331.856,182.482 327.884,181.543 324.778,179.665C321.673,177.715 319.362,174.971 317.845,171.432C316.328,167.893 315.57,163.704 315.57,158.865Z" style="fill:rgb(213,43,30);fill-rule:nonzero;"/>
        <path d="M364.103,200.032L361.395,196.565C363.417,194.687 365.078,192.629 366.378,190.39C367.751,188.224 368.437,186.201 368.437,184.324C368.437,183.096 368.184,182.301 367.678,181.94C367.173,181.651 366.559,181.254 365.837,180.749C364.97,180.171 364.176,179.376 363.453,178.365C362.803,177.282 362.478,175.982 362.478,174.465C362.478,172.226 363.165,170.457 364.537,169.157C365.981,167.785 367.823,167.099 370.062,167.099C372.662,167.099 374.792,168.074 376.453,170.024C378.115,171.974 378.945,174.682 378.945,178.149C378.945,181.399 378.223,184.432 376.778,187.249C375.334,190.065 373.492,192.557 371.253,194.724C369.015,196.89 366.631,198.66 364.103,200.032Z" style="fill:rgb(213,43,30);fill-rule:nonzero;"/>
        <path d="M429.753,154.315L429.753,172.624C429.753,173.707 430.331,174.321 431.487,174.465L441.562,175.765L441.562,181.399L406.787,181.399L406.787,175.765L413.07,174.574C414.226,174.357 414.803,173.671 414.803,172.515L414.803,128.749C414.803,127.449 414.19,126.69 412.962,126.474L406.787,125.282L406.787,119.324L454.128,119.324C454.49,122.068 454.67,124.849 454.67,127.665C454.742,130.41 454.67,133.226 454.453,136.115L447.412,136.115L445.245,128.857C444.812,127.485 444.053,126.618 442.97,126.257C442.248,126.04 441.273,125.86 440.045,125.715C438.89,125.499 437.662,125.39 436.362,125.39L429.753,125.39L429.753,147.274L446.653,146.732L446.653,154.749L429.753,154.315Z" style="fill:rgb(213,43,30);fill-rule:nonzero;"/>
        <path d="M480.887,160.707L462.578,128.099C462.073,127.232 461.315,126.69 460.303,126.474L455.428,125.282L455.428,119.324L485.437,119.324L485.437,125.282L479.262,126.799L492.37,152.582L488.253,152.582L500.495,126.799L493.562,125.282L493.562,119.324L515.553,119.324L515.553,125.282L511.003,126.365C510.498,126.437 510.065,126.618 509.703,126.907C509.342,127.196 509.053,127.557 508.837,127.99L492.478,160.707L480.887,160.707ZM469.512,181.399L469.512,175.765L476.987,174.249C478.215,174.032 478.828,173.346 478.828,172.19L478.828,155.29L494.212,155.29L494.212,172.19C494.212,173.346 494.862,174.032 496.162,174.249L503.637,175.765L503.637,181.399L469.512,181.399Z" style="fill:rgb(213,43,30);fill-rule:nonzero;"/>
        <path d="M550.22,125.282L544.153,126.474C542.926,126.69 542.312,127.449 542.312,128.749L542.312,172.299C542.312,173.599 542.926,174.357 544.153,174.574L550.22,175.765L550.22,181.399L519.345,181.399L519.345,175.765L525.52,174.574C526.748,174.357 527.362,173.635 527.362,172.407L527.362,128.749C527.362,127.449 526.748,126.69 525.52,126.474L519.345,125.282L519.345,119.324L550.22,119.324L550.22,125.282Z" style="fill:rgb(213,43,30);fill-rule:nonzero;"/>
    </g>
</svg>
