<?xml version="1.0" encoding="UTF-8" standalone="no"?>
<!DOCTYPE svg PUBLIC "-//W3C//DTD SVG 1.1//EN" "http://www.w3.org/Graphics/SVG/1.1/DTD/svg11.dtd">
<svg width="100%" height="100%" viewBox="0 0 600 300" version="1.1" xmlns="http://www.w3.org/2000/svg" xmlns:xlink="http://www.w3.org/1999/xlink" xml:space="preserve" xmlns:serif="http://www.serif.com/" style="fill-rule:evenodd;clip-rule:evenodd;stroke-linejoin:round;stroke-miterlimit:2;">
    <g transform="matrix(0.873252,0,0,1.6598,22.4138,-280.534)">
        <path d="M86.221,223.032L86.221,178.424C98.486,178.148 107.562,179.42 113.449,182.241C119.371,185.043 122.332,188.952 122.332,193.966C122.332,196.732 121.386,199.239 119.493,201.488C117.601,203.738 114.728,205.591 110.873,207.047C107.018,208.504 102.13,209.444 96.208,209.868L96.208,223.032L86.221,223.032ZM96.208,204.641C100.798,204.438 104.565,203.434 107.509,201.627C110.488,199.82 111.977,197.267 111.977,193.966C111.977,190.519 110.488,188.021 107.509,186.472C104.565,184.923 100.798,184.048 96.208,183.845L96.208,204.641Z" style="fill:rgb(230,10,205);fill-rule:nonzero;"/>
        <path d="M136.314,215.703L132.687,223.032L122.332,223.032L146.984,177.65L147.3,177.65L171.952,223.032L161.597,223.032L157.97,215.703L136.314,215.703ZM147.247,192.114L147.142,192.114L145.039,198.198L138.627,211.112L155.71,211.112L149.35,198.198L147.247,192.114Z" style="fill:rgb(230,10,205);fill-rule:nonzero;"/>
        <path d="M179.889,223.032L179.889,178.424C188.089,178.24 194.852,178.775 200.179,180.028C205.505,181.282 209.465,183.089 212.058,185.449C214.686,187.79 216,190.537 216,193.69C216,196.418 215.019,198.861 213.057,201.018C211.129,203.157 208.186,204.89 204.226,206.217L219.049,223.032L207.8,223.032L195.606,208.181C193.818,208.439 191.909,208.633 189.876,208.762L189.876,223.032L179.889,223.032ZM189.876,203.535C194.467,203.332 198.234,202.429 201.177,200.825C204.156,199.202 205.645,196.824 205.645,193.69C205.645,190.556 204.156,188.187 201.177,186.583C198.234,184.96 194.467,184.048 189.876,183.845L189.876,203.535Z" style="fill:rgb(230,10,205);fill-rule:nonzero;"/>
        <path d="M234.871,223.032L234.871,183.845L221.467,183.845L221.467,178.978L258.261,178.978L258.261,183.845L244.858,183.845L244.858,223.032L234.871,223.032Z" style="fill:rgb(230,10,205);fill-rule:nonzero;"/>
        <path d="M280.18,223.032L280.18,208.015L262.519,178.95L273.242,178.95L285.174,200.686L285.279,200.686L297.264,178.95L307.987,178.95L290.168,208.209L290.168,223.032L280.18,223.032Z" style="fill:rgb(230,10,205);fill-rule:nonzero;"/>
        <path d="M315.924,223.032L315.924,178.424C328.189,178.148 337.265,179.42 343.152,182.241C349.074,185.043 352.035,188.952 352.035,193.966C352.035,196.732 351.089,199.239 349.196,201.488C347.304,203.738 344.431,205.591 340.576,207.047C336.721,208.504 331.833,209.444 325.911,209.868L325.911,223.032L315.924,223.032ZM325.911,204.641C330.501,204.438 334.268,203.434 337.212,201.627C340.191,199.82 341.68,197.267 341.68,193.966C341.68,190.519 340.191,188.021 337.212,186.472C334.268,184.923 330.501,184.048 325.911,183.845L325.911,204.641Z" style="fill:rgb(3,206,229);fill-rule:nonzero;"/>
        <path d="M366.017,215.703L362.39,223.032L352.035,223.032L376.687,177.65L377.003,177.65L401.655,223.032L391.3,223.032L387.673,215.703L366.017,215.703ZM376.95,192.114L376.845,192.114L374.742,198.198L368.33,211.112L385.413,211.112L379.053,198.198L376.95,192.114Z" style="fill:rgb(3,206,229);fill-rule:nonzero;"/>
        <path d="M409.592,223.032L409.592,178.424C417.792,178.24 424.555,178.775 429.882,180.028C435.208,181.282 439.168,183.089 441.761,185.449C444.389,187.79 445.703,190.537 445.703,193.69C445.703,196.418 444.722,198.861 442.76,201.018C440.832,203.157 437.889,204.89 433.929,206.217L448.752,223.032L437.503,223.032L425.309,208.181C423.521,208.439 421.612,208.633 419.579,208.762L419.579,223.032L409.592,223.032ZM419.579,203.535C424.17,203.332 427.937,202.429 430.88,200.825C433.859,199.202 435.348,196.824 435.348,193.69C435.348,190.556 433.859,188.187 430.88,186.583C427.937,184.96 424.17,184.048 419.579,183.845L419.579,203.535Z" style="fill:rgb(3,206,229);fill-rule:nonzero;"/>
        <path d="M464.574,223.032L464.574,183.845L451.17,183.845L451.17,178.978L487.964,178.978L487.964,183.845L474.561,183.845L474.561,223.032L464.574,223.032Z" style="fill:rgb(3,206,229);fill-rule:nonzero;"/>
        <path d="M509.883,223.032L509.883,208.015L492.222,178.95L502.945,178.95L514.877,200.686L514.982,200.686L526.967,178.95L537.69,178.95L519.87,208.209L519.87,223.032L509.883,223.032Z" style="fill:rgb(3,206,229);fill-rule:nonzero;"/>
        <path d="M86.221,279.668L86.221,235.061C98.486,234.785 107.562,236.057 113.449,238.878C119.371,241.68 122.332,245.589 122.332,250.603C122.332,253.369 121.386,255.876 119.493,258.125C117.601,260.375 114.728,262.228 110.873,263.684C107.018,265.14 102.13,266.081 96.208,266.505L96.208,279.668L86.221,279.668ZM96.208,261.278C100.798,261.075 104.565,260.07 107.509,258.264C110.488,256.457 111.977,253.903 111.977,250.603C111.977,247.156 110.488,244.658 107.509,243.109C104.565,241.56 100.798,240.684 96.208,240.482L96.208,261.278Z" style="fill:rgb(255,219,0);fill-rule:nonzero;"/>
        <path d="M136.314,272.34L132.687,279.668L122.332,279.668L146.984,234.287L147.3,234.287L171.952,279.668L161.597,279.668L157.97,272.34L136.314,272.34ZM147.247,248.75L147.142,248.75L145.039,254.834L138.627,267.749L155.71,267.749L149.35,254.834L147.247,248.75Z" style="fill:rgb(255,219,0);fill-rule:nonzero;"/>
        <path d="M179.889,279.668L179.889,235.061C188.089,234.877 194.852,235.412 200.179,236.665C205.505,237.919 209.465,239.726 212.058,242.086C214.686,244.427 216,247.174 216,250.327C216,253.055 215.019,255.498 213.057,257.655C211.129,259.794 208.186,261.527 204.226,262.854L219.049,279.668L207.8,279.668L195.606,264.818C193.818,265.076 191.909,265.27 189.876,265.399L189.876,279.668L179.889,279.668ZM189.876,260.172C194.467,259.969 198.234,259.066 201.177,257.462C204.156,255.839 205.645,253.461 205.645,250.327C205.645,247.193 204.156,244.823 201.177,243.219C198.234,241.597 194.467,240.684 189.876,240.482L189.876,260.172Z" style="fill:rgb(255,219,0);fill-rule:nonzero;"/>
        <path d="M234.871,279.668L234.871,240.482L221.467,240.482L221.467,235.614L258.261,235.614L258.261,240.482L244.858,240.482L244.858,279.668L234.871,279.668Z" style="fill:rgb(255,219,0);fill-rule:nonzero;"/>
        <path d="M280.18,279.668L280.18,264.652L262.519,235.587L273.242,235.587L285.174,257.323L285.279,257.323L297.264,235.587L307.987,235.587L290.168,264.845L290.168,279.668L280.18,279.668Z" style="fill:rgb(255,219,0);fill-rule:nonzero;"/>
        <path d="M315.924,279.668L315.924,235.061C328.189,234.785 337.265,236.057 343.152,238.878C349.074,241.68 352.035,245.589 352.035,250.603C352.035,253.369 351.089,255.876 349.196,258.125C347.304,260.375 344.431,262.228 340.576,263.684C336.721,265.14 331.833,266.081 325.911,266.505L325.911,279.668L315.924,279.668ZM325.911,261.278C330.501,261.075 334.268,260.07 337.212,258.264C340.191,256.457 341.68,253.903 341.68,250.603C341.68,247.156 340.191,244.658 337.212,243.109C334.268,241.56 330.501,240.684 325.911,240.482L325.911,261.278Z" style="fill:rgb(76,233,17);fill-rule:nonzero;"/>
        <path d="M366.017,272.34L362.39,279.668L352.035,279.668L376.687,234.287L377.003,234.287L401.655,279.668L391.3,279.668L387.673,272.34L366.017,272.34ZM376.95,248.75L376.845,248.75L374.742,254.834L368.33,267.749L385.413,267.749L379.053,254.834L376.95,248.75Z" style="fill:rgb(76,233,17);fill-rule:nonzero;"/>
        <path d="M409.592,279.668L409.592,235.061C417.792,234.877 424.555,235.412 429.882,236.665C435.208,237.919 439.168,239.726 441.761,242.086C444.389,244.427 445.703,247.174 445.703,250.327C445.703,253.055 444.722,255.498 442.76,257.655C440.832,259.794 437.889,261.527 433.929,262.854L448.752,279.668L437.503,279.668L425.309,264.818C423.521,265.076 421.612,265.27 419.579,265.399L419.579,279.668L409.592,279.668ZM419.579,260.172C424.17,259.969 427.937,259.066 430.88,257.462C433.859,255.839 435.348,253.461 435.348,250.327C435.348,247.193 433.859,244.823 430.88,243.219C427.937,241.597 424.17,240.684 419.579,240.482L419.579,260.172Z" style="fill:rgb(76,233,17);fill-rule:nonzero;"/>
        <path d="M464.574,279.668L464.574,240.482L451.17,240.482L451.17,235.614L487.964,235.614L487.964,240.482L474.561,240.482L474.561,279.668L464.574,279.668Z" style="fill:rgb(76,233,17);fill-rule:nonzero;"/>
        <path d="M509.883,279.668L509.883,264.652L492.222,235.587L502.945,235.587L514.877,257.323L514.982,257.323L526.967,235.587L537.69,235.587L519.87,264.845L519.87,279.668L509.883,279.668Z" style="fill:rgb(76,233,17);fill-rule:nonzero;"/>
    </g>
    <g transform="matrix(1.02552,0,0,1.02552,71.344,0.275293)">
        <g transform="matrix(1,0,0,1,-21.3307,0)">
            <path d="M207.351,269.834C205.471,269.834 203.964,269.238 202.83,268.044C201.696,266.851 201.129,265.463 201.129,263.881C201.129,262.3 201.696,260.912 202.83,259.719C203.964,258.495 205.471,257.884 207.351,257.884C209.231,257.884 210.738,258.495 211.872,259.719C213.005,260.912 213.572,262.3 213.572,263.881C213.572,265.463 213.005,266.851 211.872,268.044C210.738,269.238 209.231,269.834 207.351,269.834Z" style="fill:rgb(238,214,213);fill-rule:nonzero;"/>
        </g>
        <path d="M220.734,269.029L220.734,196.832C231.178,196.385 238.906,198.444 243.919,203.009C248.962,207.545 251.483,213.871 251.483,221.987C251.483,226.463 250.678,230.521 249.066,234.161C247.455,237.802 245.008,240.801 241.726,243.158C238.444,245.515 234.281,247.037 229.238,247.723L229.238,269.029L220.734,269.029ZM229.238,239.264C233.147,238.936 236.355,237.309 238.861,234.385C241.398,231.461 242.666,227.328 242.666,221.987C242.666,216.407 241.398,212.364 238.861,209.857C236.355,207.351 233.147,205.933 229.238,205.605L229.238,239.264Z" style="fill:rgb(238,214,213);fill-rule:nonzero;"/>
        <path d="M263.389,257.168L260.301,269.029L251.483,269.029L272.475,195.579L272.744,195.579L293.736,269.029L284.918,269.029L281.83,257.168L263.389,257.168ZM272.699,218.988L272.61,218.988L270.819,228.835L265.359,249.738L279.905,249.738L274.49,228.835L272.699,218.988Z" style="fill:rgb(238,214,213);fill-rule:nonzero;"/>
        <path d="M300.495,269.029L300.495,196.832C307.477,196.534 313.236,197.399 317.772,199.428C322.307,201.457 325.679,204.382 327.887,208.201C330.125,211.991 331.244,216.437 331.244,221.539C331.244,225.956 330.409,229.909 328.738,233.401C327.096,236.862 324.59,239.667 321.218,241.815L333.84,269.029L324.262,269.029L313.878,244.993C312.356,245.411 310.729,245.724 308.999,245.933L308.999,269.029L300.495,269.029ZM308.999,237.474C312.908,237.145 316.115,235.683 318.622,233.087C321.158,230.461 322.427,226.612 322.427,221.539C322.427,216.467 321.158,212.632 318.622,210.036C316.115,207.41 312.908,205.933 308.999,205.605L308.999,237.474Z" style="fill:rgb(238,214,213);fill-rule:nonzero;"/>
        <path d="M347.313,269.029L347.313,205.605L335.899,205.605L335.899,197.728L367.23,197.728L367.23,205.605L355.817,205.605L355.817,269.029L347.313,269.029Z" style="fill:rgb(238,214,213);fill-rule:nonzero;"/>
        <path d="M385.895,269.029L385.895,244.725L370.856,197.683L379.987,197.683L390.147,232.863L390.237,232.863L400.442,197.683L409.573,197.683L394.399,245.038L394.399,269.029L385.895,269.029Z" style="fill:rgb(238,214,213);fill-rule:nonzero;"/>
    </g>
</svg>
