<?xml version="1.0" encoding="UTF-8" standalone="no"?>
<!DOCTYPE svg PUBLIC "-//W3C//DTD SVG 1.1//EN" "http://www.w3.org/Graphics/SVG/1.1/DTD/svg11.dtd">
<svg width="100%" height="100%" viewBox="0 0 600 300" version="1.1" xmlns="http://www.w3.org/2000/svg" xmlns:xlink="http://www.w3.org/1999/xlink" xml:space="preserve" xmlns:serif="http://www.serif.com/" style="fill-rule:evenodd;clip-rule:evenodd;stroke-linejoin:round;stroke-miterlimit:2;">
    <g id="Pretend-World" serif:id="Pretend World" transform="matrix(1,0,0,1,25,4.5)">
        <g id="Pretend-World1" serif:id="Pretend World" transform="matrix(0.365064,0,0,0.365064,100.811,70.678)">
            <g transform="matrix(1.61897,0,0,1.61897,197.765,-297.484)">
                <path d="M209.722,345.541C209.722,346.274 209.551,347.178 209.209,348.253C208.036,351.429 206.986,354.19 206.057,356.535L167.213,450.859L139.583,389.149L110.927,450.859L67.539,343.123L107.702,343.123L128.296,398.017L156.22,338.432L182.238,397.87L200.56,354.849C201.196,353.237 201.733,351.649 202.173,350.085L203.419,345.615C203.956,343.416 205.141,342.317 206.973,342.317C208.806,342.317 209.722,343.391 209.722,345.541Z" style="fill:rgb(185,98,255);fill-rule:nonzero;"/>
            </g>
            <g transform="matrix(1.61897,0,0,1.61897,197.765,-297.484)">
                <path d="M235.89,433.599C231.053,428.884 227.205,423.168 224.347,416.449C221.489,409.731 220.059,402.402 220.059,394.462C220.059,386.523 221.415,379.389 224.127,373.062C226.839,366.734 230.589,361.25 235.377,356.608C245.638,346.738 258.512,341.804 274.001,341.804C289.392,341.804 301.998,346.665 311.818,356.388C321.786,366.258 326.77,379.059 326.77,394.792C326.77,410.476 321.664,423.375 311.452,433.489C305.051,439.743 297.185,444.068 287.853,446.462C283.211,447.634 277.824,448.221 271.692,448.221C265.56,448.221 259.27,446.962 252.82,444.446C246.37,441.93 240.727,438.314 235.89,433.599ZM273.928,347.154C271.24,347.154 268.724,347.349 266.379,347.74L266.379,442.284C268.626,442.675 271.142,442.87 273.928,442.87C286.973,442.87 297.967,438.522 306.908,429.825C316.24,420.786 320.906,409.108 320.906,394.792C320.906,381.16 316.533,369.825 307.787,360.786C298.944,351.698 287.657,347.154 273.928,347.154Z" style="fill:rgb(185,98,255);fill-rule:nonzero;"/>
            </g>
            <g transform="matrix(1.61897,0,0,1.61897,197.765,-297.484)">
                <path d="M397.059,411.282L403.068,411.722C411.668,411.722 418.972,408.717 424.982,402.708C430.992,396.698 433.997,389.222 433.997,380.281C433.997,368.554 428.842,359.857 418.532,354.19C412.865,351.063 406.806,349.255 400.357,348.766C397.62,348.522 395.08,348.4 392.734,348.4L387.751,348.4C386.725,348.4 385.821,348.424 385.039,348.473L385.039,446.828L347.661,446.828L347.661,343.123L375.438,343.123C382.523,343.123 387.14,343.147 389.29,343.196C391.44,343.245 393.357,343.306 395.043,343.379C396.729,343.453 398.304,343.538 399.77,343.636C401.92,343.831 404.962,344.295 408.895,345.028C412.828,345.761 416.725,347.154 420.585,349.206C424.445,351.258 427.767,353.799 430.552,356.828C436.562,363.278 439.567,370.949 439.567,379.841C439.567,388.636 436.782,396.405 431.212,403.147C425.495,410.037 417.873,414.483 408.345,416.486C412.889,430.558 418.679,438.962 425.715,441.698C427.865,442.528 430.015,442.944 432.164,442.944L437.954,441.551C439.762,441.551 440.666,442.48 440.666,444.336C440.666,446.926 437.637,448.221 431.578,448.221C427.181,448.221 423.15,446.999 419.485,444.556C413.769,441.136 408.907,434.491 404.901,424.621L402.775,419.418C402.433,418.587 402.128,418.074 401.859,417.879C401.59,417.683 401.126,417.585 400.466,417.585C399.807,417.585 399.233,417.634 398.744,417.732L396.985,417.805C395.031,417.805 393.699,417.439 392.991,416.706C392.282,415.973 391.928,415.216 391.928,414.434C391.928,412.333 393.638,411.282 397.059,411.282Z" style="fill:rgb(185,98,255);fill-rule:nonzero;"/>
            </g>
            <g transform="matrix(1.61897,0,0,1.61897,197.765,-297.484)">
                <path d="M520.483,440.159C523.072,440.159 524.367,441.258 524.367,443.457C524.367,444.336 523.842,445.118 522.791,445.802C521.741,446.486 519.872,446.828 517.185,446.828L457.673,446.828L457.673,343.123L495.051,343.123L495.051,441.991L508.756,441.991C511.834,441.991 514.485,441.686 516.708,441.075C518.931,440.464 520.19,440.159 520.483,440.159Z" style="fill:rgb(185,98,255);fill-rule:nonzero;"/>
            </g>
            <g transform="matrix(1.61897,0,0,1.61897,197.765,-297.484)">
                <path d="M538.369,343.123L568.858,343.123C583.076,343.123 593.508,344.124 600.153,346.128C607.726,348.473 613.577,351.478 617.706,355.142C621.834,358.807 625.071,362.593 627.417,366.502C632.205,374.466 634.599,383.506 634.599,393.62C634.599,409.548 628.882,422.447 617.449,432.317C609.338,439.401 599.786,443.774 588.793,445.436C582.685,446.364 574.135,446.828 563.141,446.828L538.369,446.828L538.369,343.123ZM575.747,440.745C576.529,440.794 577.237,440.818 577.873,440.818L579.558,440.818C592.799,440.818 604.11,436.69 613.491,428.432C623.41,419.735 628.369,408.18 628.369,393.766C628.369,384.678 626.195,376.494 621.847,369.214C615.544,358.611 605.576,352.186 591.944,349.939C587.498,349.206 582.099,348.791 575.747,348.693L575.747,440.745Z" style="fill:rgb(185,98,255);fill-rule:nonzero;"/>
            </g>
            <g transform="matrix(1.61897,0,0,1.61897,197.765,-297.484)">
                <path d="M74.796,207.848L67.596,206.6L67.596,200.648L82.092,200.648C83.436,200.648 85.516,200.584 88.332,200.456C92.044,200.2 95.404,200.072 98.412,200.072C105.068,200.072 110.332,200.888 114.204,202.52C118.076,204.152 120.828,206.488 122.46,209.528C124.092,212.568 124.908,216.424 124.908,221.096C124.908,229.16 122.396,235.432 117.372,239.912C112.348,244.392 105.388,246.632 96.492,246.632C92.972,246.632 90.444,246.536 88.908,246.344L88.908,265.256L101.772,266.216L101.772,271.976L67.212,271.976L67.212,266.216L74.796,265.256L74.796,207.848ZM88.812,240.2C90.284,240.52 92.78,240.68 96.3,240.68C100.588,240.68 104.028,239.192 106.62,236.216C109.212,233.24 110.508,228.296 110.508,221.384C110.508,216.008 109.34,212.088 107.004,209.624C104.668,207.16 101.1,205.928 96.3,205.928C94.508,205.928 92.652,206.056 90.732,206.312C89.836,206.44 89.196,206.504 88.812,206.504L88.812,240.2Z" style="fill:rgb(185,98,255);fill-rule:nonzero;"/>
            </g>
            <g transform="matrix(1.61897,0,0,1.61897,197.765,-297.484)">
                <path d="M146.412,266.216L153.996,265.256L153.996,207.848L146.796,206.504L146.796,200.648L160.716,200.648C161.932,200.648 163.276,200.616 164.748,200.552C166.22,200.488 167.34,200.424 168.108,200.36C171.436,200.104 174.188,199.976 176.364,199.976C182.956,199.976 188.236,200.648 192.204,201.992C196.172,203.336 199.052,205.384 200.844,208.136C202.636,210.888 203.532,214.504 203.532,218.984C203.532,223.4 202.348,227.496 199.98,231.272C197.612,235.048 194.188,237.64 189.708,239.048C192.268,240.136 194.54,242.12 196.524,245C198.508,247.88 200.62,251.624 202.86,256.232C204.46,259.368 205.692,261.624 206.556,263C207.42,264.376 208.268,265.16 209.1,265.352L212.268,266.312L212.268,271.976L195.948,271.976C194.924,271.976 193.852,270.936 192.732,268.856C191.612,266.776 190.156,263.496 188.364,259.016C186.252,253.768 184.428,249.672 182.892,246.728C181.356,243.784 179.724,241.96 177.996,241.256L168.108,241.256L168.108,265.256L176.94,266.216L176.94,271.976L146.412,271.976L146.412,266.216ZM176.94,235.4C180.588,235.4 183.436,234.088 185.484,231.464C187.532,228.84 188.556,224.904 188.556,219.656C188.556,214.984 187.548,211.528 185.532,209.288C183.516,207.048 180.044,205.928 175.116,205.928C173.324,205.928 171.804,206.008 170.556,206.168C169.308,206.328 168.492,206.408 168.108,206.408L168.108,235.208C168.876,235.336 170.732,235.4 173.676,235.4L176.94,235.4Z" style="fill:rgb(185,98,255);fill-rule:nonzero;"/>
            </g>
            <g transform="matrix(1.61897,0,0,1.61897,197.765,-297.484)">
                <path d="M239.052,207.848L231.372,206.6L231.372,200.648L282.54,200.648L283.788,216.776L277.068,216.776L273.9,207.272L253.164,206.408L253.164,232.232L266.508,231.944L268.044,224.072L274.188,224.072L274.188,247.304L268.044,247.304L266.508,239.048L253.164,238.76L253.164,265.832L276.396,264.68L281.964,252.392L289.164,254.408L286.668,271.976L231.468,271.976L231.468,266.216L239.052,265.256L239.052,207.848Z" style="fill:rgb(185,98,255);fill-rule:nonzero;"/>
            </g>
            <g transform="matrix(1.61897,0,0,1.61897,197.765,-297.484)">
                <path d="M333.516,206.984L319.788,207.464L316.044,228.392L307.98,228.392L309.612,200.648L371.532,200.648L372.684,228.392L365.1,228.392L361.356,207.464L347.82,206.984L347.82,265.256L361.26,266.216L361.26,271.976L321.228,271.976L321.228,266.216L333.516,265.256L333.516,206.984Z" style="fill:rgb(185,98,255);fill-rule:nonzero;"/>
            </g>
            <g transform="matrix(1.61897,0,0,1.61897,197.765,-297.484)">
                <path d="M401.964,207.848L394.284,206.6L394.284,200.648L445.452,200.648L446.7,216.776L439.98,216.776L436.812,207.272L416.076,206.408L416.076,232.232L429.42,231.944L430.956,224.072L437.1,224.072L437.1,247.304L430.956,247.304L429.42,239.048L416.076,238.76L416.076,265.832L439.308,264.68L444.876,252.392L452.076,254.408L449.58,271.976L394.38,271.976L394.38,266.216L401.964,265.256L401.964,207.848Z" style="fill:rgb(185,98,255);fill-rule:nonzero;"/>
            </g>
            <g transform="matrix(1.61897,0,0,1.61897,197.765,-297.484)">
                <path d="M480.78,207.848L473.196,206.6L473.196,200.648L494.988,200.648L523.596,243.848L528.972,254.792L528.972,207.848L520.716,206.6L520.716,200.648L544.524,200.648L544.524,206.6L537.132,207.848L537.132,271.976L525.516,271.976L495.66,226.568L488.94,213.896L488.94,265.256L498.636,266.216L498.636,271.976L473.196,271.976L473.196,266.216L480.78,265.256L480.78,207.848Z" style="fill:rgb(185,98,255);fill-rule:nonzero;"/>
            </g>
            <g transform="matrix(1.61897,0,0,1.61897,197.765,-297.484)">
                <path d="M573.612,207.848L566.412,206.6L566.412,200.648L580.428,200.648C582.54,200.648 585.388,200.52 588.972,200.264C589.804,200.2 591.068,200.136 592.764,200.072C594.46,200.008 595.98,199.976 597.324,199.976C609.1,199.976 617.916,202.92 623.772,208.808C629.628,214.696 632.556,223.048 632.556,233.864C632.556,241.416 631.1,248.136 628.188,254.024C625.276,259.912 621.132,264.504 615.756,267.8C610.38,271.096 604.108,272.744 596.94,272.744C595.084,272.744 592.172,272.616 588.204,272.36C584.492,272.104 581.964,271.976 580.62,271.976L566.028,271.976L566.028,266.216L573.612,265.256L573.612,207.848ZM587.532,265.544C589.708,266.12 592.748,266.408 596.652,266.408C603.052,266.28 608.076,263.704 611.724,258.68C615.372,253.656 617.196,246.12 617.196,236.072C617.196,226.536 615.404,219.16 611.82,213.944C608.236,208.728 602.668,206.12 595.116,206.12C593.516,206.12 591.996,206.216 590.556,206.408C589.116,206.6 588.108,206.728 587.532,206.792L587.532,265.544Z" style="fill:rgb(185,98,255);fill-rule:nonzero;"/>
            </g>
            <g transform="matrix(3.41336,0,0,0.975247,251.8,183.541)">
                <rect x="15" y="7" width="269" height="14" style="fill:rgb(185,98,255);"/>
            </g>
        </g>
        <g>
            <g transform="matrix(-0.527153,0.286598,0.286598,0.527153,214.572,151.061)">
                <path d="M236.432,-259.56C236.432,-259.56 89.775,-280.967 -60.518,-172.588C41.994,-6.745 234.275,68.023 236.432,68.582C236.446,68.586 236.45,68.585 236.457,68.571C237.432,66.883 308.606,-83.506 236.432,-259.56" style="fill:rgb(185,98,255);fill-rule:nonzero;"/>
            </g>
            <g transform="matrix(0.600024,0,0,0.600024,109.582,49.4879)">
                <path d="M0,342.473C0.035,342.552 -16.757,299.59 -28.945,237.238C-40.2,179.656 -50.044,95.922 -37.264,0.79L-33.471,-0.079C-46.104,94.408 -36.569,179.252 -25.391,236.469C-13.265,298.536 2.007,339.569 2.173,340.006C2.173,340.006 0.095,342.44 0,342.473" style="fill-rule:nonzero;"/>
            </g>
            <g transform="matrix(0.600024,0,0,0.600024,66.9266,122.007)">
                <path d="M0,-22.237C-2.121,-24.272 -4.63,-25.928 -7.223,-27.339C-23.479,-36.176 -44.033,-34.159 -56.158,-19.324C-60.418,-14.113 -62.958,-7.341 -62.37,-0.636C-62.144,1.955 -61.319,4.717 -59.197,6.222C-57.377,7.514 -54.95,7.615 -52.757,7.199C-49.081,6.501 -45.787,4.535 -42.268,3.266C-38.748,1.997 -34.563,1.512 -31.469,3.614C-30.26,4.435 -29.321,5.586 -28.282,6.614C-22.709,12.13 -13.778,13.939 -6.498,11.025C0.782,8.112 6,0.642 6.229,-7.196C6.354,-11.47 5.077,-15.784 2.592,-19.262C1.823,-20.338 0.95,-21.325 0,-22.237" style="fill:rgb(13,16,33);fill-rule:nonzero;"/>
            </g>
            <g transform="matrix(0.600024,0,0,0.600024,103.448,98.0977)">
                <path d="M0,-4.669C1.839,-7.742 4.264,-10.543 6.873,-13.104C23.231,-29.155 48.361,-34.821 67.783,-23.031C74.605,-18.889 79.908,-12.356 81.469,-4.694C82.071,-1.733 82.022,1.646 80.006,4.132C78.276,6.265 75.423,7.31 72.674,7.691C68.066,8.33 63.485,7.417 58.871,7.363C54.257,7.309 49.116,8.379 46.144,11.9C44.982,13.276 44.253,14.913 43.364,16.452C38.594,24.713 28.58,30.152 18.938,29.721C9.297,29.289 0.573,23.011 -2.341,14.406C-3.929,9.714 -3.864,4.44 -2.08,-0.374C-1.528,-1.862 -0.822,-3.293 0,-4.669" style="fill:rgb(13,16,33);fill-rule:nonzero;"/>
            </g>
            <g transform="matrix(0.600024,0,0,0.600024,60.4065,182.936)">
                <path d="M0,-17.775C0,-17.775 65.253,-25.524 142.197,-66.453C130.078,2.02 61.181,48.678 61.181,48.678C61.181,48.678 11.312,25.854 0,-17.775" style="fill:rgb(13,16,33);fill-rule:nonzero;"/>
            </g>
        </g>
    </g>
</svg>
