<?xml version="1.0" encoding="UTF-8" standalone="no"?>
<!DOCTYPE svg PUBLIC "-//W3C//DTD SVG 1.1//EN" "http://www.w3.org/Graphics/SVG/1.1/DTD/svg11.dtd">
<svg width="100%" height="100%" viewBox="0 0 600 300" version="1.1" xmlns="http://www.w3.org/2000/svg" xmlns:xlink="http://www.w3.org/1999/xlink" xml:space="preserve" xmlns:serif="http://www.serif.com/" style="fill-rule:evenodd;clip-rule:evenodd;stroke-linejoin:round;stroke-miterlimit:2;">
    <g transform="matrix(3.2314,0,0,3.2314,-243.794,-805.92)">
        <path d="M87.792,274.681C89.174,274.243 90.701,273.784 92.372,273.303C94.044,272.822 95.859,272.292 97.819,271.715C99.272,268.6 100.799,265.38 102.4,262.055C104.001,258.73 105.624,255.378 107.269,252.001C107.532,251.476 107.882,251.095 108.319,250.859C108.757,250.623 109.168,250.513 109.553,250.531C109.938,250.548 110.227,250.684 110.419,250.938C110.612,251.192 110.577,251.555 110.314,252.027L109.658,253.235C109.956,253.48 110.201,253.817 110.393,254.245C110.586,254.674 110.647,255.151 110.577,255.676L108.844,268.381C111.364,267.593 114.002,266.736 116.759,265.808C119.515,264.881 122.416,263.857 125.461,262.737C126.056,262.51 126.467,262.523 126.694,262.777C126.922,263.03 126.979,263.367 126.865,263.787C126.751,264.207 126.489,264.645 126.077,265.1C125.666,265.555 125.137,265.87 124.489,266.045C121.287,266.902 118.391,267.681 115.801,268.381C113.211,269.081 110.796,269.737 108.556,270.35C108.276,272.432 107.982,274.58 107.676,276.794C107.37,279.008 107.072,281.169 106.784,283.278C106.495,285.387 106.219,287.395 105.957,289.302C105.694,291.21 105.462,292.894 105.261,294.355C105.06,295.817 104.898,297.002 104.776,297.912C104.653,298.822 104.583,299.338 104.566,299.461C104.531,299.758 104.447,299.96 104.316,300.065C104.185,300.17 104.049,300.196 103.909,300.143C103.769,300.091 103.651,299.973 103.555,299.789C103.459,299.605 103.428,299.365 103.463,299.067C103.481,298.98 103.533,298.516 103.621,297.676C103.708,296.836 103.817,295.725 103.949,294.342C104.08,292.96 104.237,291.363 104.421,289.552C104.605,287.74 104.797,285.807 104.999,283.75C105.2,281.694 105.406,279.577 105.616,277.398C105.826,275.219 106.036,273.08 106.246,270.98L99.263,272.922C98.511,274.357 97.797,275.731 97.124,277.043C96.45,278.356 95.82,279.581 95.234,280.718C94.647,281.856 94.114,282.897 93.632,283.842C93.151,284.787 92.736,285.61 92.386,286.31C92.228,286.625 92.071,286.861 91.913,287.018C91.756,287.176 91.624,287.255 91.519,287.255C91.414,287.255 91.349,287.176 91.322,287.018C91.296,286.861 91.344,286.625 91.467,286.31C92.167,284.507 92.981,282.53 93.908,280.377C94.836,278.225 95.851,275.941 96.953,273.526C95.501,273.928 94.022,274.327 92.517,274.72C91.012,275.114 89.428,275.521 87.766,275.941C87.311,276.046 86.969,276.068 86.742,276.007C86.514,275.945 86.401,275.84 86.401,275.692C86.401,275.543 86.514,275.372 86.742,275.18C86.969,274.987 87.319,274.821 87.792,274.681ZM100.261,271.006L106.429,269.142L107.584,257.12C106.324,259.482 105.077,261.832 103.844,264.168C102.61,266.504 101.416,268.783 100.261,271.006Z" style="fill:rgb(182,241,129);fill-rule:nonzero;"/>
        <path d="M124.017,275.626C123.544,276.518 123.028,277.328 122.468,278.054C121.908,278.78 121.261,279.397 120.526,279.905C120.018,280.255 119.563,280.438 119.161,280.456C118.758,280.473 118.43,280.368 118.176,280.141C117.922,279.913 117.765,279.572 117.704,279.117C117.642,278.662 117.717,278.137 117.927,277.542C117.577,277.717 117.148,278.05 116.641,278.54C116.133,279.03 115.617,279.581 115.092,280.193C114.567,280.806 114.072,281.427 113.609,282.057C113.145,282.687 112.773,283.221 112.493,283.658C112.213,284.113 111.964,284.424 111.745,284.59C111.526,284.757 111.351,284.818 111.22,284.774C111.089,284.73 111.014,284.59 110.997,284.354C110.979,284.118 111.023,283.816 111.128,283.448C111.706,281.523 112.209,279.905 112.637,278.592C113.066,277.28 113.421,276.203 113.701,275.363C114.016,274.401 114.296,273.622 114.541,273.027C114.401,273.255 114.234,273.508 114.042,273.788C113.884,274.033 113.705,274.309 113.504,274.615C113.302,274.922 113.088,275.258 112.861,275.626C112.668,275.941 112.476,276.142 112.283,276.23C112.091,276.317 111.937,276.317 111.824,276.23C111.71,276.142 111.653,275.985 111.653,275.757C111.653,275.53 111.749,275.258 111.942,274.943C112.134,274.628 112.336,274.3 112.546,273.959C112.756,273.618 112.983,273.242 113.228,272.83C113.473,272.419 113.757,271.968 114.081,271.478C114.405,270.988 114.786,270.437 115.223,269.825C115.661,269.23 116.107,268.818 116.562,268.591C117.017,268.363 117.406,268.28 117.73,268.342C118.054,268.403 118.281,268.582 118.412,268.88C118.544,269.177 118.496,269.545 118.268,269.982C117.953,270.595 117.621,271.273 117.271,272.017C116.921,272.76 116.571,273.517 116.221,274.287C115.871,275.057 115.534,275.81 115.21,276.545C114.886,277.28 114.597,277.94 114.344,278.527C114.09,279.113 113.884,279.594 113.727,279.97C113.569,280.347 113.482,280.561 113.464,280.613C113.482,280.561 113.635,280.307 113.924,279.852C114.212,279.397 114.593,278.846 115.066,278.198C115.538,277.551 116.085,276.855 116.706,276.112C117.327,275.368 117.979,274.681 118.662,274.051C119.362,273.403 119.992,272.997 120.552,272.83C121.112,272.664 121.554,272.633 121.877,272.738C122.201,272.843 122.385,273.04 122.429,273.329C122.472,273.618 122.328,273.902 121.996,274.182C121.663,274.462 121.317,274.825 120.959,275.272C120.6,275.718 120.285,276.186 120.014,276.676C119.742,277.166 119.541,277.638 119.41,278.093C119.279,278.548 119.274,278.916 119.397,279.196C119.677,279.178 119.983,279.025 120.316,278.737C120.648,278.448 120.981,278.093 121.313,277.673C121.646,277.253 121.965,276.798 122.271,276.308C122.577,275.818 122.853,275.363 123.098,274.943C123.343,274.523 123.575,274.239 123.794,274.09C124.012,273.942 124.179,273.907 124.292,273.985C124.406,274.064 124.45,274.248 124.424,274.537C124.397,274.825 124.262,275.188 124.017,275.626Z" style="fill:rgb(182,241,129);fill-rule:nonzero;"/>
        <path d="M122.967,285.076C123.212,285.163 123.536,285.089 123.938,284.853C124.341,284.617 124.782,284.271 125.264,283.816C125.745,283.361 126.266,282.805 126.826,282.149C127.386,281.493 127.95,280.775 128.519,279.997C129.087,279.218 129.647,278.4 130.199,277.542C130.75,276.685 131.271,275.818 131.761,274.943C131.988,274.523 132.216,274.239 132.443,274.09C132.671,273.942 132.841,273.907 132.955,273.985C133.069,274.064 133.117,274.248 133.099,274.537C133.082,274.825 132.942,275.188 132.679,275.626C131.839,277.043 130.982,278.413 130.107,279.734C129.232,281.055 128.361,282.223 127.495,283.238C126.629,284.253 125.78,285.05 124.949,285.627C124.117,286.205 123.326,286.45 122.573,286.362C122.066,286.31 121.702,285.986 121.484,285.391C121.265,284.796 121.16,284.043 121.169,283.133C121.177,282.223 121.282,281.222 121.484,280.128C121.685,279.034 121.961,277.962 122.311,276.912C122.661,275.862 123.067,274.9 123.531,274.025C123.995,273.15 124.489,272.485 125.014,272.03C125.452,271.645 125.863,271.408 126.248,271.321C126.633,271.233 126.979,271.273 127.285,271.439C127.591,271.605 127.841,271.881 128.033,272.266C128.226,272.651 128.348,273.123 128.401,273.683C128.471,274.471 128.405,275.302 128.204,276.177C128.002,277.052 127.705,277.862 127.311,278.605C126.917,279.349 126.449,279.975 125.907,280.482C125.364,280.99 124.787,281.261 124.174,281.296C123.684,281.313 123.308,281.182 123.046,280.902C122.906,281.427 122.796,281.935 122.717,282.425C122.639,282.915 122.591,283.348 122.573,283.724C122.556,284.1 122.577,284.407 122.639,284.643C122.7,284.879 122.809,285.023 122.967,285.076ZM126.222,274.445C125.959,274.62 125.692,274.887 125.421,275.245C125.15,275.604 124.892,276.02 124.647,276.492C124.402,276.965 124.17,277.481 123.951,278.041C123.732,278.601 123.536,279.161 123.361,279.721C123.711,280.018 124.091,280.049 124.502,279.813C124.914,279.577 125.277,279.183 125.592,278.632C125.907,278.08 126.134,277.428 126.274,276.676C126.414,275.923 126.397,275.18 126.222,274.445Z" style="fill:rgb(182,241,129);fill-rule:nonzero;"/>
        <path d="M145.148,273.395C144.833,273.885 144.505,274.427 144.164,275.022C143.822,275.617 143.49,276.23 143.166,276.86C142.842,277.49 142.545,278.115 142.274,278.737C142.002,279.358 141.775,279.94 141.591,280.482C141.407,281.025 141.281,281.497 141.211,281.9C141.141,282.302 141.158,282.6 141.263,282.792L147.668,273.815C148.001,273.115 148.403,272.581 148.876,272.213C149.348,271.846 149.772,271.649 150.149,271.623C150.525,271.597 150.801,271.737 150.976,272.043C151.151,272.349 151.107,272.817 150.844,273.447C150.722,273.71 150.547,274.108 150.319,274.642C150.092,275.175 149.829,275.779 149.532,276.453C149.234,277.127 148.915,277.853 148.574,278.632C148.232,279.41 147.896,280.185 147.563,280.955C146.758,282.757 145.892,284.717 144.964,286.835C145.892,285.312 146.793,283.816 147.668,282.346C148.036,281.716 148.425,281.068 148.836,280.403C149.247,279.738 149.65,279.087 150.044,278.448C150.437,277.809 150.818,277.188 151.186,276.584C151.553,275.98 151.886,275.433 152.183,274.943C152.446,274.523 152.686,274.243 152.905,274.103C153.124,273.963 153.294,273.933 153.417,274.012C153.539,274.09 153.583,274.27 153.548,274.55C153.513,274.83 153.364,275.188 153.102,275.626C151.982,277.533 150.954,279.244 150.017,280.758C149.081,282.272 148.219,283.676 147.432,284.971C146.644,286.266 145.918,287.478 145.253,288.607C144.588,289.735 143.949,290.86 143.337,291.98C142.724,293.1 142.134,294.25 141.565,295.432C140.996,296.613 140.423,297.895 139.846,299.277C139.583,299.89 139.338,300.349 139.111,300.655C138.883,300.962 138.691,301.128 138.533,301.154C138.376,301.18 138.266,301.075 138.205,300.839C138.144,300.603 138.166,300.24 138.271,299.75C138.306,299.557 138.472,299.032 138.769,298.175C139.067,297.317 139.443,296.25 139.898,294.972C140.353,293.695 140.861,292.282 141.421,290.733C141.981,289.184 142.549,287.622 143.127,286.047C143.704,284.472 144.264,282.954 144.807,281.493C145.349,280.032 145.822,278.75 146.224,277.647C145.979,278.032 145.708,278.443 145.411,278.881C145.113,279.318 144.811,279.76 144.505,280.207C144.199,280.653 143.888,281.095 143.573,281.532C143.258,281.97 142.952,282.372 142.654,282.74C142.147,283.37 141.736,283.868 141.421,284.236C141.106,284.603 140.826,284.717 140.581,284.577C140.283,284.42 140.06,284.043 139.911,283.448C139.762,282.853 139.701,282.118 139.727,281.243C139.754,280.368 139.885,279.393 140.121,278.317C140.357,277.24 140.703,276.142 141.158,275.022C141.456,274.287 141.788,273.697 142.156,273.25C142.523,272.804 142.882,272.48 143.232,272.279C143.582,272.078 143.91,271.973 144.216,271.964C144.522,271.955 144.772,272.017 144.964,272.148C145.157,272.279 145.275,272.458 145.319,272.686C145.362,272.913 145.306,273.15 145.148,273.395Z" style="fill:rgb(182,241,129);fill-rule:nonzero;"/>
        <path d="M155.779,272.896C156.217,273.071 156.519,273.382 156.685,273.828C156.851,274.274 156.917,274.799 156.882,275.403C156.847,276.007 156.724,276.663 156.514,277.372C156.304,278.08 156.042,278.776 155.727,279.458C155.412,280.141 155.049,280.793 154.637,281.414C154.226,282.035 153.806,282.56 153.377,282.989C152.949,283.418 152.516,283.72 152.078,283.895C151.641,284.07 151.238,284.07 150.871,283.895C150.381,283.65 150.074,283.177 149.952,282.477C149.829,281.777 149.851,280.981 150.017,280.088C150.184,279.196 150.464,278.273 150.857,277.319C151.251,276.365 151.715,275.521 152.249,274.786C152.782,274.051 153.356,273.495 153.968,273.119C154.581,272.743 155.184,272.668 155.779,272.896ZM151.343,282.74C151.571,282.845 151.846,282.766 152.17,282.503C152.494,282.241 152.809,281.878 153.115,281.414C153.421,280.95 153.706,280.421 153.968,279.826C154.231,279.231 154.423,278.662 154.546,278.12C154.668,277.577 154.703,277.1 154.651,276.689C154.598,276.278 154.414,276.011 154.099,275.888C153.837,275.801 153.557,275.893 153.259,276.164C152.962,276.435 152.673,276.807 152.393,277.28C152.113,277.752 151.859,278.282 151.632,278.868C151.404,279.454 151.229,280.018 151.107,280.561C150.984,281.103 150.936,281.576 150.962,281.978C150.989,282.381 151.116,282.635 151.343,282.74Z" style="fill:rgb(182,241,129);fill-rule:nonzero;"/>
        <path d="M161.476,274.287C161.231,274.707 160.968,275.245 160.688,275.902C160.408,276.558 160.137,277.262 159.874,278.015C159.612,278.767 159.367,279.524 159.139,280.285C158.912,281.047 158.732,281.733 158.601,282.346C158.47,282.958 158.4,283.462 158.391,283.855C158.382,284.249 158.466,284.455 158.641,284.472C158.991,284.49 159.367,284.28 159.769,283.842C160.172,283.405 160.566,282.836 160.951,282.136C161.336,281.436 161.703,280.653 162.053,279.787C162.403,278.92 162.709,278.058 162.972,277.201C163.007,277.008 163.051,276.829 163.103,276.663C163.156,276.497 163.208,276.326 163.261,276.151C163.471,275.468 163.764,274.97 164.14,274.655C164.516,274.34 164.866,274.178 165.19,274.169C165.514,274.16 165.759,274.292 165.925,274.563C166.091,274.834 166.069,275.215 165.859,275.705C165.754,275.932 165.636,276.238 165.505,276.623C165.374,277.008 165.242,277.424 165.111,277.87C164.98,278.317 164.853,278.772 164.731,279.235C164.608,279.699 164.512,280.119 164.442,280.495C164.372,280.872 164.332,281.187 164.324,281.44C164.315,281.694 164.354,281.83 164.442,281.847C164.669,281.9 164.971,281.72 165.347,281.309C165.724,280.898 166.144,280.351 166.607,279.668C167.071,278.986 167.544,278.225 168.025,277.385C168.506,276.545 168.966,275.731 169.403,274.943C169.631,274.523 169.854,274.239 170.072,274.09C170.291,273.942 170.457,273.907 170.571,273.985C170.685,274.064 170.733,274.248 170.716,274.537C170.698,274.825 170.567,275.188 170.322,275.626C169.954,276.291 169.517,277.065 169.009,277.949C168.502,278.833 167.972,279.668 167.421,280.456C166.87,281.243 166.314,281.908 165.754,282.451C165.194,282.993 164.661,283.265 164.153,283.265C163.733,283.265 163.396,283.002 163.142,282.477C162.889,281.952 162.797,281.296 162.867,280.508C162.604,281.173 162.294,281.83 161.935,282.477C161.576,283.125 161.196,283.698 160.793,284.197C160.391,284.695 159.984,285.093 159.572,285.391C159.161,285.688 158.772,285.828 158.404,285.811C158.002,285.793 157.7,285.601 157.499,285.233C157.297,284.866 157.166,284.393 157.105,283.816C157.044,283.238 157.044,282.587 157.105,281.86C157.166,281.134 157.267,280.395 157.407,279.642C157.547,278.89 157.717,278.159 157.919,277.45C158.12,276.742 158.326,276.116 158.536,275.573C158.851,274.768 159.218,274.182 159.638,273.815C160.058,273.447 160.439,273.242 160.78,273.198C161.121,273.154 161.371,273.242 161.528,273.46C161.686,273.679 161.668,273.955 161.476,274.287ZM163.497,278.225C163.497,278.19 163.488,278.181 163.471,278.198L163.471,278.277C163.471,278.26 163.479,278.242 163.497,278.225Z" style="fill:rgb(182,241,129);fill-rule:nonzero;"/>
        <path d="M190.928,275.626C190.456,276.518 189.939,277.328 189.379,278.054C188.819,278.78 188.172,279.397 187.437,279.905C186.929,280.255 186.474,280.438 186.072,280.456C185.669,280.473 185.341,280.368 185.087,280.141C184.834,279.913 184.676,279.572 184.615,279.117C184.554,278.662 184.628,278.137 184.838,277.542C184.488,277.717 184.059,278.05 183.552,278.54C183.044,279.03 182.528,279.581 182.003,280.193C181.478,280.806 180.984,281.427 180.52,282.057C180.056,282.687 179.684,283.221 179.404,283.658C179.124,284.113 178.875,284.424 178.656,284.59C178.437,284.757 178.262,284.818 178.131,284.774C178,284.73 177.926,284.59 177.908,284.354C177.891,284.118 177.934,283.816 178.039,283.448C178.617,281.523 179.12,279.905 179.549,278.592C179.977,277.28 180.332,276.203 180.612,275.363C180.927,274.401 181.207,273.622 181.452,273.027C181.312,273.255 181.146,273.508 180.953,273.788C180.796,274.033 180.616,274.309 180.415,274.615C180.214,274.922 179.999,275.258 179.772,275.626C179.579,275.941 179.387,276.142 179.194,276.23C179.002,276.317 178.849,276.317 178.735,276.23C178.621,276.142 178.564,275.985 178.564,275.757C178.564,275.53 178.661,275.258 178.853,274.943C179.046,274.628 179.247,274.3 179.457,273.959C179.667,273.618 179.894,273.242 180.139,272.83C180.384,272.419 180.669,271.968 180.992,271.478C181.316,270.988 181.697,270.437 182.134,269.825C182.572,269.23 183.018,268.818 183.473,268.591C183.928,268.363 184.317,268.28 184.641,268.342C184.965,268.403 185.192,268.582 185.324,268.88C185.455,269.177 185.407,269.545 185.179,269.982C184.864,270.595 184.532,271.273 184.182,272.017C183.832,272.76 183.482,273.517 183.132,274.287C182.782,275.057 182.445,275.81 182.121,276.545C181.797,277.28 181.509,277.94 181.255,278.527C181.001,279.113 180.796,279.594 180.638,279.97C180.481,280.347 180.393,280.561 180.376,280.613C180.393,280.561 180.546,280.307 180.835,279.852C181.124,279.397 181.504,278.846 181.977,278.198C182.449,277.551 182.996,276.855 183.617,276.112C184.239,275.368 184.891,274.681 185.573,274.051C186.273,273.403 186.903,272.997 187.463,272.83C188.023,272.664 188.465,272.633 188.789,272.738C189.112,272.843 189.296,273.04 189.34,273.329C189.384,273.618 189.239,273.902 188.907,274.182C188.574,274.462 188.229,274.825 187.87,275.272C187.511,275.718 187.196,276.186 186.925,276.676C186.654,277.166 186.452,277.638 186.321,278.093C186.19,278.548 186.186,278.916 186.308,279.196C186.588,279.178 186.894,279.025 187.227,278.737C187.559,278.448 187.892,278.093 188.224,277.673C188.557,277.253 188.876,276.798 189.182,276.308C189.489,275.818 189.764,275.363 190.009,274.943C190.254,274.523 190.486,274.239 190.705,274.09C190.924,273.942 191.09,273.907 191.204,273.985C191.317,274.064 191.361,274.248 191.335,274.537C191.309,274.825 191.173,275.188 190.928,275.626Z" style="fill:rgb(182,241,129);fill-rule:nonzero;"/>
        <path d="M189.878,285.076C190.123,285.163 190.447,285.089 190.849,284.853C191.252,284.617 191.694,284.271 192.175,283.816C192.656,283.361 193.177,282.805 193.737,282.149C194.297,281.493 194.861,280.775 195.43,279.997C195.999,279.218 196.559,278.4 197.11,277.542C197.661,276.685 198.182,275.818 198.672,274.943C198.899,274.523 199.127,274.239 199.354,274.09C199.582,273.942 199.752,273.907 199.866,273.985C199.98,274.064 200.028,274.248 200.011,274.537C199.993,274.825 199.853,275.188 199.591,275.626C198.751,277.043 197.893,278.413 197.018,279.734C196.143,281.055 195.272,282.223 194.406,283.238C193.54,284.253 192.691,285.05 191.86,285.627C191.029,286.205 190.237,286.45 189.484,286.362C188.977,286.31 188.614,285.986 188.395,285.391C188.176,284.796 188.071,284.043 188.08,283.133C188.089,282.223 188.194,281.222 188.395,280.128C188.596,279.034 188.872,277.962 189.222,276.912C189.572,275.862 189.979,274.9 190.442,274.025C190.906,273.15 191.401,272.485 191.926,272.03C192.363,271.645 192.774,271.408 193.159,271.321C193.544,271.233 193.89,271.273 194.196,271.439C194.502,271.605 194.752,271.881 194.944,272.266C195.137,272.651 195.259,273.123 195.312,273.683C195.382,274.471 195.316,275.302 195.115,276.177C194.914,277.052 194.616,277.862 194.222,278.605C193.829,279.349 193.361,279.975 192.818,280.482C192.276,280.99 191.698,281.261 191.086,281.296C190.596,281.313 190.219,281.182 189.957,280.902C189.817,281.427 189.707,281.935 189.629,282.425C189.55,282.915 189.502,283.348 189.484,283.724C189.467,284.1 189.489,284.407 189.55,284.643C189.611,284.879 189.721,285.023 189.878,285.076ZM193.133,274.445C192.871,274.62 192.604,274.887 192.332,275.245C192.061,275.604 191.803,276.02 191.558,276.492C191.313,276.965 191.081,277.481 190.862,278.041C190.644,278.601 190.447,279.161 190.272,279.721C190.622,280.018 191.002,280.049 191.414,279.813C191.825,279.577 192.188,279.183 192.503,278.632C192.818,278.08 193.046,277.428 193.186,276.676C193.326,275.923 193.308,275.18 193.133,274.445Z" style="fill:rgb(182,241,129);fill-rule:nonzero;"/>
        <path d="M203.449,277.358C203.414,277.656 203.34,278.037 203.226,278.5C203.112,278.964 202.99,279.419 202.859,279.865C202.727,280.312 202.609,280.718 202.504,281.086C202.399,281.453 202.347,281.69 202.347,281.795C202.469,281.795 202.671,281.589 202.951,281.178C203.231,280.767 203.563,280.237 203.948,279.59C204.333,278.942 204.762,278.212 205.234,277.398C205.707,276.584 206.197,275.766 206.704,274.943C206.967,274.523 207.207,274.243 207.426,274.103C207.645,273.963 207.811,273.933 207.925,274.012C208.039,274.09 208.082,274.27 208.056,274.55C208.03,274.83 207.886,275.188 207.623,275.626C207.116,276.501 206.621,277.345 206.14,278.159C205.659,278.973 205.208,279.717 204.788,280.39C204.368,281.064 203.987,281.637 203.646,282.11C203.305,282.582 203.021,282.923 202.793,283.133C202.373,283.501 201.992,283.61 201.651,283.462C201.31,283.313 201.113,282.941 201.061,282.346C201.026,282.136 201.012,281.869 201.021,281.545C201.03,281.222 201.052,280.893 201.087,280.561C200.824,281.156 200.518,281.738 200.168,282.307C199.818,282.875 199.442,283.374 199.039,283.803C198.637,284.232 198.226,284.555 197.806,284.774C197.386,284.993 196.966,285.041 196.546,284.918C196.161,284.796 195.92,284.446 195.824,283.868C195.727,283.291 195.749,282.587 195.889,281.755C196.029,280.924 196.274,280.014 196.624,279.025C196.974,278.037 197.403,277.07 197.911,276.125C198.418,275.18 199,274.318 199.656,273.539C200.312,272.76 201.008,272.152 201.743,271.715C202.216,271.435 202.644,271.273 203.029,271.229C203.414,271.185 203.747,271.212 204.027,271.308C204.307,271.404 204.526,271.548 204.683,271.741C204.841,271.933 204.941,272.13 204.985,272.332C205.029,272.533 205.002,272.717 204.906,272.883C204.81,273.049 204.648,273.158 204.421,273.211C203.546,273.403 202.732,273.797 201.979,274.392C201.227,274.987 200.549,275.678 199.945,276.466C199.341,277.253 198.816,278.08 198.37,278.947C197.924,279.813 197.565,280.618 197.294,281.362C197.022,282.105 196.852,282.727 196.782,283.225C196.712,283.724 196.747,284 196.887,284.052C197.062,284.105 197.285,284.017 197.556,283.79C197.827,283.562 198.116,283.243 198.422,282.832C198.729,282.42 199.039,281.943 199.354,281.401C199.669,280.858 199.954,280.307 200.207,279.747C200.461,279.187 200.676,278.636 200.851,278.093C201.026,277.551 201.131,277.078 201.166,276.676C201.183,276.361 201.323,276.138 201.586,276.007C201.848,275.875 202.124,275.84 202.412,275.902C202.701,275.963 202.959,276.116 203.187,276.361C203.414,276.606 203.502,276.938 203.449,277.358Z" style="fill:rgb(182,241,129);fill-rule:nonzero;"/>
        <path d="M211.718,285.155C211.893,284.77 212.199,284.183 212.637,283.396C213.074,282.608 213.569,281.733 214.12,280.771C214.671,279.808 215.253,278.815 215.866,277.792C216.478,276.768 217.064,275.818 217.624,274.943C217.887,274.541 218.132,274.27 218.359,274.13C218.587,273.99 218.762,273.959 218.884,274.038C219.007,274.117 219.051,274.296 219.016,274.576C218.981,274.856 218.823,275.206 218.543,275.626C218.193,276.186 217.751,276.921 217.217,277.831C216.684,278.741 216.124,279.708 215.537,280.732C214.951,281.755 214.365,282.779 213.779,283.803C213.192,284.827 212.663,285.715 212.191,286.467C211.893,286.922 211.613,287.141 211.351,287.123C211.088,287.106 210.913,286.87 210.826,286.415C210.773,286.1 210.751,285.588 210.76,284.879C210.769,284.17 210.821,283.313 210.917,282.307C211.014,281.3 211.145,280.163 211.311,278.894C211.477,277.625 211.683,276.265 211.928,274.812C211.491,275.897 210.992,277.03 210.432,278.212C209.872,279.393 209.281,280.456 208.66,281.401C208.039,282.346 207.413,283.077 206.783,283.593C206.153,284.109 205.541,284.245 204.946,284C204.526,283.825 204.267,283.444 204.171,282.858C204.075,282.272 204.097,281.589 204.237,280.81C204.377,280.032 204.613,279.209 204.946,278.343C205.278,277.477 205.659,276.663 206.087,275.902C206.516,275.14 206.98,274.484 207.479,273.933C207.977,273.382 208.463,273.045 208.936,272.922C209.531,272.765 210.012,272.826 210.379,273.106C210.747,273.386 211.009,273.71 211.167,274.077C211.517,273.29 211.849,272.48 212.164,271.649C212.479,270.818 212.786,269.965 213.083,269.09C213.521,267.13 214.046,265.135 214.658,263.105C214.886,262.335 215.209,261.757 215.629,261.372C216.049,260.987 216.439,260.786 216.797,260.768C217.156,260.751 217.414,260.908 217.572,261.241C217.729,261.573 217.668,262.072 217.388,262.737C217.248,263.07 217.056,263.603 216.811,264.338C216.566,265.073 216.294,265.931 215.997,266.911C215.699,267.891 215.384,268.967 215.052,270.14C214.719,271.312 214.396,272.507 214.081,273.723C213.766,274.939 213.459,276.142 213.162,277.332C212.864,278.522 212.606,279.629 212.387,280.653C212.169,281.677 211.998,282.582 211.876,283.37C211.753,284.157 211.701,284.752 211.718,285.155ZM205.313,282.95C205.506,283.107 205.79,283.02 206.166,282.687C206.542,282.355 206.976,281.838 207.466,281.138C207.956,280.438 208.476,279.577 209.027,278.553C209.579,277.529 210.134,276.396 210.694,275.153C210.379,274.856 210.003,274.821 209.566,275.048C209.128,275.276 208.682,275.657 208.227,276.19C207.772,276.724 207.326,277.345 206.888,278.054C206.451,278.763 206.083,279.454 205.786,280.128C205.488,280.802 205.287,281.401 205.182,281.926C205.077,282.451 205.121,282.792 205.313,282.95Z" style="fill:rgb(182,241,129);fill-rule:nonzero;"/>
        <path d="M221.562,273.395C221.247,273.885 220.919,274.427 220.577,275.022C220.236,275.617 219.904,276.23 219.58,276.86C219.256,277.49 218.959,278.115 218.687,278.737C218.416,279.358 218.189,279.94 218.005,280.482C217.821,281.025 217.694,281.497 217.624,281.9C217.554,282.302 217.572,282.6 217.677,282.792L224.082,273.815C224.414,273.115 224.817,272.581 225.289,272.213C225.762,271.846 226.186,271.649 226.562,271.623C226.939,271.597 227.214,271.737 227.389,272.043C227.564,272.349 227.521,272.817 227.258,273.447C227.136,273.71 226.961,274.108 226.733,274.642C226.506,275.175 226.243,275.779 225.946,276.453C225.648,277.127 225.329,277.853 224.987,278.632C224.646,279.41 224.309,280.185 223.977,280.955C223.172,282.757 222.306,284.717 221.378,286.835C222.306,285.312 223.207,283.816 224.082,282.346C224.449,281.716 224.839,281.068 225.25,280.403C225.661,279.738 226.064,279.087 226.457,278.448C226.851,277.809 227.232,277.188 227.599,276.584C227.967,275.98 228.299,275.433 228.597,274.943C228.859,274.523 229.1,274.243 229.319,274.103C229.537,273.963 229.708,273.933 229.831,274.012C229.953,274.09 229.997,274.27 229.962,274.55C229.927,274.83 229.778,275.188 229.516,275.626C228.396,277.533 227.367,279.244 226.431,280.758C225.495,282.272 224.633,283.676 223.846,284.971C223.058,286.266 222.332,287.478 221.667,288.607C221.002,289.735 220.363,290.86 219.751,291.98C219.138,293.1 218.547,294.25 217.979,295.432C217.41,296.613 216.837,297.895 216.259,299.277C215.997,299.89 215.752,300.349 215.524,300.655C215.297,300.962 215.104,301.128 214.947,301.154C214.789,301.18 214.68,301.075 214.619,300.839C214.557,300.603 214.579,300.24 214.684,299.75C214.719,299.557 214.886,299.032 215.183,298.175C215.481,297.317 215.857,296.25 216.312,294.972C216.767,293.695 217.274,292.282 217.834,290.733C218.394,289.184 218.963,287.622 219.541,286.047C220.118,284.472 220.678,282.954 221.221,281.493C221.763,280.032 222.236,278.75 222.638,277.647C222.393,278.032 222.122,278.443 221.824,278.881C221.527,279.318 221.225,279.76 220.919,280.207C220.612,280.653 220.302,281.095 219.987,281.532C219.672,281.97 219.366,282.372 219.068,282.74C218.561,283.37 218.149,283.868 217.834,284.236C217.519,284.603 217.239,284.717 216.994,284.577C216.697,284.42 216.474,284.043 216.325,283.448C216.176,282.853 216.115,282.118 216.141,281.243C216.167,280.368 216.299,279.393 216.535,278.317C216.771,277.24 217.117,276.142 217.572,275.022C217.869,274.287 218.202,273.697 218.569,273.25C218.937,272.804 219.296,272.48 219.646,272.279C219.996,272.078 220.324,271.973 220.63,271.964C220.936,271.955 221.186,272.017 221.378,272.148C221.571,272.279 221.689,272.458 221.732,272.686C221.776,272.913 221.719,273.15 221.562,273.395Z" style="fill:rgb(182,241,129);fill-rule:nonzero;"/>
    </g>
    <g transform="matrix(0.636018,0,0,0.636018,182.085,103.098)">
        <path d="M55.368,116.225C56.121,116.009 57.467,115.471 59.404,114.61C61.341,113.749 63.708,112.673 66.506,111.382C69.95,101.589 73.259,92.845 76.434,85.151C79.609,77.456 82.595,71.026 85.393,65.861C88.298,60.372 91.365,56.552 94.594,54.4C97.822,52.247 100.594,51.521 102.907,52.22C105.221,52.92 106.754,54.938 107.508,58.274C108.261,61.61 107.669,65.968 105.732,71.349C103.257,78.344 100.486,84.29 97.419,89.186C94.352,94.083 91.419,98.091 88.621,101.212C91.85,99.813 95.024,98.387 98.145,96.935C101.266,95.482 104.145,94.163 106.781,92.98C109.418,91.796 111.759,90.747 113.803,89.832C115.848,88.917 117.462,88.245 118.646,87.814C121.014,86.846 122.762,86.899 123.892,87.976C125.022,89.052 125.506,90.505 125.345,92.334C125.184,94.163 124.377,96.101 122.924,98.145C121.471,100.19 119.399,101.697 116.709,102.665C115.095,103.203 112.889,103.876 110.091,104.683C107.293,105.49 104.172,106.378 100.728,107.346C97.284,108.315 93.679,109.337 89.913,110.413C86.146,111.49 82.433,112.512 78.774,113.48L19.532,285.396C18.779,287.548 17.864,289.405 16.788,290.965C15.712,292.526 14.743,293.548 13.882,294.032C13.021,294.516 12.403,294.274 12.026,293.306C11.649,292.337 11.892,290.346 12.752,287.333C16.196,274.742 20.016,261.156 24.213,246.574C28.41,231.992 32.742,217.222 37.208,202.263C41.674,187.305 46.194,172.561 50.768,158.033C55.341,143.505 59.834,129.999 64.246,117.516L56.014,120.099C54.184,120.744 52.812,121.04 51.898,120.987C50.983,120.933 50.472,120.664 50.364,120.18C50.256,119.695 50.606,119.076 51.413,118.323C52.22,117.57 53.539,116.87 55.368,116.225Z" style="fill:rgb(245,0,108);fill-rule:nonzero;"/>
        <path d="M108.476,123.489C111.167,124.565 113.023,126.475 114.045,129.219C115.068,131.963 115.471,135.192 115.256,138.905C115.041,142.617 114.288,146.653 112.996,151.011C111.705,155.37 110.091,159.647 108.153,163.844C106.216,168.041 103.983,172.05 101.454,175.87C98.925,179.691 96.343,182.919 93.706,185.556C91.07,188.192 88.406,190.049 85.716,191.125C83.025,192.201 80.55,192.201 78.29,191.125C75.277,189.618 73.394,186.713 72.64,182.408C71.887,178.104 72.022,173.207 73.044,167.719C74.066,162.23 75.788,156.554 78.21,150.688C80.631,144.823 83.483,139.631 86.765,135.111C90.047,130.591 93.572,127.175 97.338,124.861C101.105,122.547 104.817,122.09 108.476,123.489ZM81.196,184.022C82.595,184.668 84.29,184.184 86.281,182.57C88.272,180.955 90.209,178.722 92.092,175.87C93.975,173.019 95.724,169.763 97.338,166.104C98.952,162.445 100.136,158.948 100.889,155.612C101.643,152.276 101.858,149.343 101.535,146.814C101.212,144.285 100.082,142.644 98.145,141.891C96.531,141.353 94.809,141.918 92.98,143.586C91.15,145.254 89.375,147.541 87.653,150.446C85.931,153.352 84.37,156.607 82.971,160.212C81.572,163.818 80.496,167.288 79.743,170.624C78.99,173.96 78.694,176.866 78.855,179.341C79.017,181.816 79.797,183.377 81.196,184.022Z" style="fill:rgb(245,0,108);fill-rule:nonzero;"/>
        <path d="M201.456,140.277C198.55,145.765 195.376,150.742 191.932,155.208C188.488,159.674 184.507,163.468 179.987,166.589C176.866,168.741 174.068,169.871 171.593,169.979C169.118,170.086 167.1,169.44 165.539,168.041C163.979,166.642 163.01,164.544 162.634,161.746C162.257,158.948 162.715,155.72 164.006,152.061C161.854,153.137 159.217,155.181 156.096,158.195C152.975,161.208 149.801,164.598 146.572,168.364C143.344,172.131 140.304,175.951 137.452,179.825C134.6,183.7 132.313,186.982 130.591,189.672C128.869,192.47 127.336,194.38 125.991,195.403C124.646,196.425 123.569,196.802 122.762,196.533C121.955,196.264 121.498,195.403 121.39,193.95C121.283,192.497 121.552,190.641 122.197,188.381C125.749,176.543 128.843,166.589 131.479,158.518C134.116,150.446 136.295,143.828 138.017,138.662C139.954,132.744 141.676,127.955 143.182,124.296C142.321,125.695 141.299,127.255 140.115,128.977C139.147,130.484 138.044,132.179 136.806,134.062C135.569,135.945 134.25,138.017 132.851,140.277C131.667,142.214 130.484,143.451 129.3,143.989C128.116,144.528 127.175,144.528 126.475,143.989C125.776,143.451 125.426,142.483 125.426,141.084C125.426,139.685 126.018,138.017 127.201,136.08C128.385,134.143 129.623,132.125 130.914,130.026C132.206,127.928 133.605,125.614 135.111,123.085C136.618,120.556 138.367,117.785 140.357,114.772C142.348,111.759 144.689,108.369 147.379,104.602C150.07,100.943 152.814,98.414 155.612,97.015C158.41,95.616 160.804,95.105 162.795,95.482C164.786,95.858 166.185,96.961 166.992,98.791C167.799,100.62 167.503,102.88 166.104,105.571C164.167,109.337 162.123,113.507 159.97,118.081C157.818,122.655 155.666,127.309 153.513,132.044C151.361,136.779 149.289,141.407 147.299,145.927C145.308,150.446 143.532,154.509 141.972,158.114C140.411,161.719 139.147,164.678 138.178,166.992C137.21,169.306 136.672,170.624 136.564,170.947C136.672,170.624 137.613,169.064 139.389,166.266C141.165,163.468 143.505,160.078 146.411,156.096C149.316,152.114 152.679,147.837 156.5,143.263C160.32,138.689 164.329,134.465 168.526,130.591C172.83,126.61 176.705,124.107 180.148,123.085C183.592,122.063 186.309,121.874 188.3,122.52C190.291,123.166 191.421,124.377 191.69,126.152C191.959,127.928 191.071,129.677 189.026,131.398C186.982,133.12 184.856,135.353 182.65,138.097C180.444,140.842 178.507,143.72 176.839,146.734C175.171,149.747 173.933,152.652 173.126,155.45C172.319,158.248 172.292,160.508 173.046,162.23C174.767,162.123 176.651,161.181 178.695,159.405C180.74,157.63 182.785,155.45 184.829,152.868C186.874,150.285 188.838,147.487 190.721,144.474C192.605,141.46 194.3,138.662 195.806,136.08C197.313,133.497 198.739,131.748 200.084,130.833C201.429,129.919 202.452,129.703 203.151,130.188C203.851,130.672 204.12,131.802 203.958,133.578C203.797,135.353 202.963,137.586 201.456,140.277Z" style="fill:rgb(245,0,108);fill-rule:nonzero;"/>
        <path d="M246.009,109.122L262.151,106.378C263.658,101.428 265.057,96.988 266.348,93.06C267.64,89.132 268.716,85.877 269.577,83.294C271.729,76.73 274.15,71.591 276.841,67.878C279.531,64.166 282.087,61.744 284.508,60.614C286.93,59.484 288.974,59.646 290.642,61.099C292.31,62.551 293.252,65.107 293.467,68.766C293.575,71.779 293.091,74.954 292.014,78.29C290.938,81.626 289.593,84.855 287.979,87.976C286.365,91.096 284.643,94.029 282.813,96.773C280.984,99.517 279.37,101.804 277.971,103.634C284.966,102.45 292.553,101.158 300.731,99.759C308.91,98.36 317.143,96.961 325.429,95.562C333.715,94.163 341.813,92.791 349.723,91.446C357.633,90.101 364.736,88.863 371.031,87.733C377.327,86.604 382.6,85.662 386.851,84.909C391.101,84.155 393.765,83.671 394.841,83.456C397.101,83.025 398.581,83.429 399.28,84.666C399.98,85.904 400.033,87.411 399.442,89.186C398.85,90.962 397.72,92.684 396.052,94.352C394.384,96.02 392.312,97.069 389.837,97.5C388.545,97.715 385.694,98.118 381.281,98.71C376.869,99.302 371.462,100.002 365.058,100.809C358.655,101.616 351.499,102.504 343.589,103.472C335.679,104.441 327.608,105.409 319.376,106.378C311.143,107.346 303.018,108.342 295.001,109.364C286.983,110.387 279.692,111.274 273.128,112.028C272.267,114.826 271.003,118.996 269.334,124.538C267.666,130.08 265.864,136.268 263.927,143.102C261.99,149.935 260.026,157.092 258.035,164.571C256.044,172.05 254.268,179.18 252.708,185.959C251.147,192.739 249.991,198.819 249.237,204.2C248.484,209.581 248.323,213.509 248.753,215.984C252.627,213.401 256.609,209.151 260.698,203.232C264.788,197.313 268.904,190.587 273.047,183.054C277.19,175.521 281.334,167.611 285.477,159.325C289.62,151.038 293.682,143.29 297.664,136.08C299.063,133.497 300.435,131.748 301.781,130.833C303.126,129.919 304.175,129.703 304.928,130.188C305.682,130.672 305.978,131.802 305.816,133.578C305.655,135.353 304.821,137.586 303.314,140.277C301.377,143.936 299.171,148.16 296.696,152.948C294.221,157.737 291.584,162.768 288.786,168.041C285.988,173.315 283.082,178.642 280.069,184.022C277.056,189.403 274.07,194.488 271.11,199.277C268.151,204.066 265.245,208.343 262.393,212.11C259.541,215.877 256.878,218.782 254.403,220.827C251.39,223.302 248.699,224.163 246.332,223.41C243.964,222.656 242.35,220.396 241.489,216.63C240.736,213.509 240.44,209.608 240.601,204.927C240.763,200.245 241.247,195.053 242.054,189.349C242.861,183.646 243.937,177.592 245.282,171.189C246.628,164.786 248.107,158.275 249.722,151.657C251.336,145.039 253.031,138.501 254.806,132.044C256.582,125.587 258.331,119.453 260.053,113.642C256.501,114.072 253.461,114.449 250.932,114.772C248.403,115.095 246.87,115.31 246.332,115.418C244.717,115.74 243.48,115.633 242.619,115.095C241.758,114.557 241.328,113.884 241.328,113.077C241.328,112.27 241.704,111.49 242.458,110.736C243.211,109.983 244.395,109.445 246.009,109.122Z" style="fill:rgb(245,0,108);fill-rule:nonzero;"/>
        <path d="M374.663,140.277C372.403,143.505 369.847,147.083 366.995,151.011C364.144,154.939 361.319,158.867 358.521,162.795C355.723,166.723 353.005,170.49 350.369,174.095C347.732,177.7 345.553,180.794 343.831,183.377C342.002,185.959 340.334,187.735 338.827,188.704C337.321,189.672 336.002,189.995 334.872,189.672C333.742,189.349 332.854,188.462 332.209,187.009C331.563,185.556 331.24,183.7 331.24,181.44C331.24,179.718 331.482,177.35 331.967,174.337C332.451,171.324 333.043,168.284 333.742,165.217C334.442,162.15 335.141,159.352 335.841,156.823C336.54,154.294 337.051,152.599 337.374,151.738C335.868,152.599 333.689,154.912 330.837,158.679C327.985,162.445 324.918,166.831 321.636,171.835C318.353,176.839 315.125,182.005 311.95,187.332C308.776,192.659 306.166,197.313 304.121,201.295C302.937,203.555 301.646,205.599 300.247,207.429C298.848,209.258 297.61,210.469 296.534,211.061C295.458,211.653 294.732,211.41 294.355,210.334C293.978,209.258 294.328,206.998 295.404,203.555C295.942,201.833 296.696,199.223 297.664,195.726C298.633,192.228 299.736,188.192 300.973,183.619C302.211,179.045 303.556,174.122 305.009,168.849C306.462,163.575 307.888,158.356 309.287,153.191C312.623,140.922 316.174,127.632 319.941,113.319C318.219,116.225 316.443,119.13 314.614,122.036C313.107,124.511 311.412,127.282 309.529,130.349C307.646,133.416 305.843,136.349 304.121,139.147C302.399,141.945 300.812,143.855 299.359,144.877C297.906,145.9 296.776,146.169 295.969,145.684C295.162,145.2 294.839,144.124 295.001,142.456C295.162,140.788 296.05,138.662 297.664,136.08C299.278,133.497 301.377,130.08 303.96,125.829C306.543,121.579 309.421,116.628 312.596,110.978C315.771,105.329 319.107,99.114 322.604,92.334C326.102,85.554 329.518,78.344 332.854,70.703C335.545,64.462 338.881,59.538 342.863,55.933C346.844,52.328 350.45,50.041 353.678,49.073C356.907,48.104 359.193,48.535 360.539,50.364C361.884,52.193 361.265,55.422 358.682,60.049C357.068,62.955 355.131,66.91 352.871,71.914C350.611,76.918 348.136,82.514 345.445,88.702C342.755,94.89 339.984,101.454 337.132,108.396C334.28,115.337 331.482,122.224 328.738,129.058C325.994,135.891 323.384,142.483 320.909,148.832C318.434,155.181 316.228,160.858 314.291,165.862C312.354,170.866 310.766,174.956 309.529,178.13C308.291,181.305 307.565,183.161 307.35,183.7C307.672,183.054 308.695,180.848 310.417,177.081C312.139,173.315 314.237,168.902 316.712,163.844C319.187,158.787 321.905,153.513 324.864,148.025C327.823,142.537 330.702,137.748 333.5,133.658C336.406,129.354 339.527,126.179 342.863,124.134C346.199,122.09 349.131,121.014 351.66,120.906C354.189,120.798 356.046,121.579 357.229,123.247C358.413,124.915 358.306,127.255 356.907,130.268C353.678,137.371 350.988,143.774 348.835,149.478C346.683,155.181 344.934,160.051 343.589,164.087C342.244,168.122 341.302,171.27 340.764,173.53C340.226,175.79 339.957,176.974 339.957,177.081C340.172,176.758 341.275,175.171 343.266,172.319C345.257,169.467 347.705,165.997 350.611,161.907C353.517,157.818 356.611,153.46 359.893,148.832C363.175,144.205 366.215,139.954 369.013,136.08C370.735,133.712 372.349,132.098 373.856,131.237C375.363,130.376 376.493,130.188 377.246,130.672C377.999,131.156 378.214,132.232 377.892,133.9C377.569,135.569 376.493,137.694 374.663,140.277Z" style="fill:rgb(245,0,108);fill-rule:nonzero;"/>
        <path d="M366.108,140.761C368.69,135.703 371.623,132.044 374.905,129.784C378.187,127.524 381.12,126.287 383.703,126.071C386.286,125.856 388.115,126.475 389.191,127.928C390.267,129.381 389.837,131.291 387.9,133.658C385.425,136.672 382.976,140.465 380.555,145.039C378.134,149.612 375.847,154.455 373.695,159.567C371.542,164.678 369.659,169.817 368.045,174.983C366.431,180.148 365.247,184.776 364.493,188.865C367.184,187.466 370.332,184.883 373.937,181.117C377.542,177.35 381.281,172.965 385.156,167.961C389.03,162.957 392.877,157.657 396.697,152.061C400.518,146.465 403.988,141.138 407.109,136.08C408.723,133.497 410.23,131.775 411.629,130.914C413.028,130.053 414.077,129.865 414.777,130.349C415.476,130.833 415.718,131.937 415.503,133.658C415.288,135.38 414.373,137.586 412.759,140.277C409.423,145.765 405.737,151.442 401.701,157.307C397.666,163.172 393.55,168.795 389.353,174.176C385.156,179.556 380.959,184.453 376.762,188.865C372.565,193.277 368.69,196.667 365.139,199.035C363.525,200.111 361.857,200.783 360.135,201.053C358.413,201.322 356.88,201.106 355.534,200.407C354.189,199.707 353.194,198.47 352.548,196.694C351.902,194.918 351.849,192.47 352.387,189.349C352.71,187.412 353.194,184.641 353.839,181.036C354.485,177.431 355.319,173.395 356.342,168.929C357.364,164.463 358.682,159.782 360.296,154.885C361.911,149.989 363.848,145.281 366.108,140.761ZM398.715,77.967C402.051,79.151 403.827,81.034 404.042,83.617C404.257,86.2 403.692,88.81 402.347,91.446C401.002,94.083 399.28,96.37 397.182,98.307C395.083,100.244 393.334,101.158 391.935,101.051C390.967,100.943 390.187,100.19 389.595,98.791C389.003,97.392 388.599,95.724 388.384,93.787C388.169,91.85 388.169,89.778 388.384,87.572C388.599,85.366 389.11,83.429 389.918,81.761C390.725,80.093 391.855,78.855 393.307,78.048C394.76,77.241 396.563,77.214 398.715,77.967Z" style="fill:rgb(245,0,108);fill-rule:nonzero;"/>
        <path d="M420.023,136.887C419.377,140.438 419.27,143.801 419.7,146.976C420.131,150.15 420.83,153.217 421.799,156.177C422.767,159.136 423.843,162.042 425.027,164.894C426.211,167.746 427.233,170.624 428.094,173.53C431.538,169.44 435.708,164.14 440.604,157.63C445.501,151.119 450.209,143.936 454.729,136.08C456.236,133.497 457.661,131.748 459.007,130.833C460.352,129.919 461.401,129.703 462.154,130.188C462.908,130.672 463.204,131.802 463.042,133.578C462.881,135.353 461.993,137.586 460.379,140.277C453.707,151.684 447.788,160.67 442.622,167.234C437.457,173.799 433.206,178.749 429.87,182.085C430.085,185.206 429.681,188.381 428.659,191.609C427.637,194.838 425.673,198.281 422.767,201.94C419.216,206.353 415.826,209.608 412.598,211.706C409.369,213.805 406.652,214.854 404.446,214.854C402.24,214.854 400.706,213.886 399.845,211.949C398.984,210.011 399.038,207.267 400.007,203.716C400.76,201.241 402.293,198.577 404.607,195.726C406.921,192.874 409.315,190.264 411.79,187.897C414.696,185.099 417.871,182.408 421.314,179.825C421.745,177.996 421.314,175.682 420.023,172.884C418.732,170.086 417.225,167.046 415.503,163.764C413.781,160.481 412.086,157.092 410.418,153.594C408.75,150.097 407.755,146.626 407.432,143.182C406.679,136.833 407.324,131.614 409.369,127.524C411.414,123.435 413.835,120.556 416.633,118.888C419.431,117.22 422.068,116.763 424.543,117.516C427.018,118.269 428.363,120.26 428.578,123.489C428.686,125.533 428.336,127.363 427.529,128.977C426.722,130.591 425.727,131.99 424.543,133.174C423.251,134.573 421.745,135.811 420.023,136.887Z" style="fill:rgb(245,0,108);fill-rule:nonzero;"/>
        <path d="M489.919,102.827C489.596,105.409 489.058,107.212 488.305,108.234C487.552,109.257 486.771,109.606 485.964,109.283C485.157,108.961 484.458,107.992 483.866,106.378C483.274,104.764 482.978,102.665 482.978,100.082C483.086,95.132 484.377,90.209 486.852,85.312C489.327,80.416 492.556,75.842 496.538,71.591C500.519,67.34 505.093,63.52 510.259,60.13C515.424,56.74 520.751,54.077 526.239,52.14C533.019,49.772 539.476,49.073 545.61,50.041C551.744,51.01 557.179,53.135 561.914,56.417C566.649,59.7 570.577,63.843 573.698,68.847C576.819,73.851 578.81,79.124 579.67,84.666C580.531,90.209 580.101,95.778 578.379,101.374C576.657,106.97 573.321,111.974 568.371,116.386C564.389,119.937 559.708,123.058 554.327,125.749C548.946,128.439 543.323,130.78 537.458,132.771C531.593,134.761 525.674,136.564 519.702,138.178C513.729,139.792 508.133,141.299 502.914,142.698C497.694,144.097 493.04,145.523 488.951,146.976C484.861,148.429 481.794,150.016 479.75,151.738C477.167,153.998 474.961,156.042 473.131,157.872C471.302,159.701 469.768,161.477 468.531,163.199C467.293,164.921 466.325,166.669 465.625,168.445C464.926,170.221 464.361,172.077 463.93,174.014C463.284,176.705 462.423,178.399 461.347,179.099C460.271,179.798 459.249,179.879 458.28,179.341C457.312,178.803 456.585,177.727 456.101,176.113C455.617,174.498 455.697,172.669 456.343,170.624C457.419,166.858 459.087,163.118 461.347,159.405C463.607,155.693 466.889,152.114 471.194,148.671C475.499,145.227 481.041,141.999 487.821,138.985C494.6,135.972 503.156,133.228 513.487,130.753C524.356,128.17 533.261,125.13 540.202,121.632C547.144,118.135 552.39,114.288 555.941,110.091C559.493,105.894 561.51,101.401 561.995,96.612C562.479,91.823 561.699,86.899 559.654,81.842C557.502,76.461 554.408,72.425 550.372,69.735C546.337,67.044 541.844,65.484 536.893,65.054C531.943,64.623 526.858,65.242 521.639,66.91C516.419,68.578 511.577,71.08 507.111,74.416C502.645,77.752 498.851,81.842 495.73,86.684C492.61,91.527 490.673,96.908 489.919,102.827ZM460.056,202.263C460.056,204.738 459.222,206.81 457.554,208.478C455.886,210.146 453.814,210.98 451.339,210.98C448.864,210.98 446.792,210.146 445.124,208.478C443.456,206.81 442.622,204.738 442.622,202.263C442.622,199.788 443.456,197.716 445.124,196.048C446.792,194.38 448.864,193.546 451.339,193.546C453.814,193.546 455.886,194.38 457.554,196.048C459.222,197.716 460.056,199.788 460.056,202.263Z" style="fill:rgb(245,0,108);fill-rule:nonzero;"/>
    </g>
</svg>
