<?xml version="1.0" encoding="UTF-8" standalone="no"?>
<!DOCTYPE svg PUBLIC "-//W3C//DTD SVG 1.1//EN" "http://www.w3.org/Graphics/SVG/1.1/DTD/svg11.dtd">
<svg width="100%" height="100%" viewBox="0 0 600 300" version="1.1" xmlns="http://www.w3.org/2000/svg" xmlns:xlink="http://www.w3.org/1999/xlink" xml:space="preserve" xmlns:serif="http://www.serif.com/" style="fill-rule:evenodd;clip-rule:evenodd;stroke-linejoin:round;stroke-miterlimit:2;">
    <g transform="matrix(1,0,0,0.784257,9.99999,50.3959)">
        <path d="M72.266,120.942L72.266,102.868C74.103,103.091 77.166,103.202 78.916,103.202L84.691,120.942L108.841,120.942L100.528,99.074C106.128,95.058 109.453,87.917 109.453,76.537L109.453,73.301C109.453,52.326 99.041,47.305 81.366,47.305L48.641,47.305L48.641,120.942L72.266,120.942ZM78.128,82.562C76.116,82.562 74.191,82.45 72.266,82.339L72.266,69.285L79.178,69.285C84.166,69.285 85.828,70.512 85.828,75.421L85.828,76.425C85.828,81.334 84.253,82.562 78.828,82.562L78.128,82.562Z" style="fill:rgb(255,103,12);fill-rule:nonzero;"/>
        <rect x="114.003" y="47.305" width="23.625" height="73.637" style="fill:rgb(255,103,12);fill-rule:nonzero;"/>
        <path d="M176.303,122.058C185.053,122.058 193.891,120.83 200.716,118.934L200.716,95.615C194.066,97.401 187.241,98.07 181.816,98.07L180.241,98.07C169.478,98.07 166.591,96.173 166.591,87.917L166.591,78.991C166.591,72.186 168.428,69.843 172.891,69.843L173.503,69.843C177.966,69.843 179.716,72.186 179.716,78.991L179.716,85.239L202.903,85.239L202.903,77.541C202.903,54.781 195.378,46.19 174.816,46.19L171.403,46.19C149.616,46.19 142.966,56.677 142.966,78.099L142.966,90.148C142.966,114.136 152.503,122.058 173.678,122.058L176.303,122.058Z" style="fill:rgb(255,103,12);fill-rule:nonzero;"/>
        <path d="M231.341,120.942L231.341,94.723L237.291,94.723L247.091,120.942L272.291,120.942L256.803,83.454L271.591,47.305L246.391,47.305L237.116,72.632L231.341,72.632L231.341,47.305L207.716,47.305L207.716,120.942L231.341,120.942Z" style="fill:rgb(255,103,12);fill-rule:nonzero;"/>
        <path d="M321.641,120.942L321.641,102.868C323.478,103.091 326.541,103.202 328.291,103.202L334.066,120.942L358.216,120.942L349.903,99.074C355.503,95.058 358.828,87.917 358.828,76.537L358.828,73.301C358.828,52.326 348.416,47.305 330.741,47.305L298.016,47.305L298.016,120.942L321.641,120.942ZM327.503,82.562C325.491,82.562 323.566,82.45 321.641,82.339L321.641,69.285L328.553,69.285C333.541,69.285 335.203,70.512 335.203,75.421L335.203,76.425C335.203,81.334 333.628,82.562 328.203,82.562L327.503,82.562Z" style="fill:rgb(255,103,12);fill-rule:nonzero;"/>
        <path d="M396.978,122.058C420.166,122.058 427.253,111.458 427.253,90.148L427.253,78.099C427.253,54.223 417.541,46.19 397.416,46.19L392.691,46.19C369.766,46.19 362.941,56.677 362.941,78.099L362.941,90.148C362.941,114.136 372.741,122.058 393.041,122.058L396.978,122.058ZM394.178,98.963C388.753,98.963 386.566,96.62 386.566,89.814L386.566,78.434C386.566,71.628 388.753,69.285 394.178,69.285L396.016,69.285C401.441,69.285 403.628,71.628 403.628,78.434L403.628,89.814C403.628,96.62 401.441,98.963 396.016,98.963L394.178,98.963Z" style="fill:rgb(255,103,12);fill-rule:nonzero;"/>
        <path d="M463.303,75.198C455.866,74.752 455.166,74.082 455.166,72.297L455.166,72.186C455.166,70.066 456.828,69.619 464.353,69.619L465.228,69.619C471.266,69.619 477.916,70.512 484.041,71.962L484.041,48.867C480.716,47.863 475.553,47.082 470.741,46.636L470.741,39.495L447.991,39.495L447.991,47.082C435.566,49.314 431.103,55.785 431.103,68.727L431.103,72.297C431.103,89.479 437.753,91.934 450.266,92.938L454.466,93.272C461.466,93.83 462.603,93.942 462.603,95.95L462.603,96.062C462.603,98.182 461.378,98.628 453.416,98.628L452.541,98.628C445.978,98.628 439.328,97.735 432.591,96.173L432.591,119.268C436.353,120.384 442.478,121.165 447.991,121.611L447.991,128.863L470.741,128.863L470.741,121.054C482.291,118.711 486.578,112.128 486.578,99.52L486.578,96.173C486.578,78.322 479.141,76.091 467.503,75.421L463.303,75.198Z" style="fill:rgb(255,103,12);fill-rule:nonzero;"/>
        <path d="M521.141,75.198C513.703,74.752 513.003,74.082 513.003,72.297L513.003,72.186C513.003,70.066 514.666,69.619 522.191,69.619L523.066,69.619C529.103,69.619 535.753,70.512 541.878,71.962L541.878,48.867C538.553,47.863 533.391,47.082 528.578,46.636L528.578,39.495L505.828,39.495L505.828,47.082C493.403,49.314 488.941,55.785 488.941,68.727L488.941,72.297C488.941,89.479 495.591,91.934 508.103,92.938L512.303,93.272C519.303,93.83 520.441,93.942 520.441,95.95L520.441,96.062C520.441,98.182 519.216,98.628 511.253,98.628L510.378,98.628C503.816,98.628 497.166,97.735 490.428,96.173L490.428,119.268C494.191,120.384 500.316,121.165 505.828,121.611L505.828,128.863L528.578,128.863L528.578,121.054C540.128,118.711 544.416,112.128 544.416,99.52L544.416,96.173C544.416,78.322 536.978,76.091 525.341,75.421L521.141,75.198Z" style="fill:rgb(255,103,12);fill-rule:nonzero;"/>
        <path d="M196.122,232.513C219.309,232.513 226.222,222.583 226.222,201.719L226.222,189.669C226.222,166.463 216.684,158.876 196.559,158.876L162.522,158.876L162.522,232.513L196.122,232.513ZM186.147,181.971L194.372,181.971C200.409,181.971 202.597,184.203 202.597,191.12L202.597,200.269C202.597,207.298 200.497,209.417 194.372,209.417L186.147,209.417L186.147,181.971Z" style="fill:rgb(255,103,12);fill-rule:nonzero;"/>
        <path d="M250.109,232.513L251.859,221.69L268.484,221.69L270.147,232.513L293.772,232.513L279.684,158.876L240.747,158.876L226.484,232.513L250.109,232.513ZM258.247,180.855L262.097,180.855L265.334,201.831L254.922,201.831L258.247,180.855Z" style="fill:rgb(255,103,12);fill-rule:nonzero;"/>
        <rect x="297.097" y="158.876" width="23.625" height="73.637" style="fill:rgb(255,103,12);fill-rule:nonzero;"/>
        <path d="M372.609,232.513L372.609,208.525L350.122,208.525L350.122,158.876L326.497,158.876L326.497,232.513L372.609,232.513Z" style="fill:rgb(255,103,12);fill-rule:nonzero;"/>
        <path d="M408.834,232.513L408.834,211.76L431.059,158.876L407.172,158.876L397.984,182.864L396.322,182.864L387.134,158.876L363.072,158.876L385.209,211.537L385.209,232.513L408.834,232.513Z" style="fill:rgb(255,103,12);fill-rule:nonzero;"/>
    </g>
</svg>
