<?xml version="1.0" encoding="UTF-8" standalone="no"?>
<!DOCTYPE svg PUBLIC "-//W3C//DTD SVG 1.1//EN" "http://www.w3.org/Graphics/SVG/1.1/DTD/svg11.dtd">
<svg width="100%" height="100%" viewBox="0 0 600 300" version="1.1" xmlns="http://www.w3.org/2000/svg" xmlns:xlink="http://www.w3.org/1999/xlink" xml:space="preserve" xmlns:serif="http://www.serif.com/" style="fill-rule:evenodd;clip-rule:evenodd;stroke-linejoin:round;stroke-miterlimit:2;">
    <g transform="matrix(13.3522,0,0,13.3522,-246.417,-133.971)">
        <g transform="matrix(11.1313,0,0,11.1313,61.1291,18.1967)">
        </g>
        <text x="19.18px" y="18.197px" style="font-family:'CrimsonPro-Bold', 'Crimson Pro';font-weight:700;font-size:11.131px;fill:rgb(201,168,76);">Supr<tspan x="41.356px " y="18.197px ">e</tspan>me</text>
    </g>
    <g transform="matrix(13.3522,0,0,13.3522,-35.2996,-44.457)">
        <g transform="matrix(11.1313,0,0,11.1313,46.4649,18.1967)">
        </g>
        <text x="19.18px" y="18.197px" style="font-family:'CrimsonPro-Bold', 'Crimson Pro';font-weight:700;font-size:11.131px;fill:rgb(201,168,76);">Court</text>
    </g>
    <g transform="matrix(1,0,0,1,12,112)">
        <g transform="matrix(30,0,0,30,449.744,156.885)">
        </g>
        <text x="155.41px" y="156.885px" style="font-family:'CrimsonPro-Bold', 'Crimson Pro';font-weight:700;font-size:30px;fill:white;fill-opacity:0.5;">T<tspan x="179.34px 205.906px 228.957px 240.728px 264.804px 288.646px 312.927px 339.64px 351.412px 376.748px 400.59px 432.693px " y="156.885px 156.885px 156.885px 156.885px 156.885px 156.885px 156.885px 156.885px 156.885px 156.885px 156.885px 156.885px ">HE CARD GAME</tspan></text>
    </g>
</svg>
