<?xml version="1.0" encoding="UTF-8" standalone="no"?>
<!DOCTYPE svg PUBLIC "-//W3C//DTD SVG 1.1//EN" "http://www.w3.org/Graphics/SVG/1.1/DTD/svg11.dtd">
<svg width="100%" height="100%" viewBox="0 0 600 300" version="1.1" xmlns="http://www.w3.org/2000/svg" xmlns:xlink="http://www.w3.org/1999/xlink" xml:space="preserve" xmlns:serif="http://www.serif.com/" style="fill-rule:evenodd;clip-rule:evenodd;stroke-linejoin:round;stroke-miterlimit:2;">
    <g transform="matrix(13.0693,0,0,13.0693,2523.11,-2051.61)">
        <path d="M-187.804,165.569C-188.104,165.569 -188.425,165.529 -188.767,165.449C-189.109,165.369 -189.398,165.262 -189.635,165.13L-189.687,163.644L-189.091,163.602L-188.756,164.628C-188.596,164.732 -188.418,164.811 -188.223,164.863C-188.028,164.915 -187.839,164.941 -187.658,164.941C-187.33,164.941 -187.077,164.87 -186.9,164.727C-186.722,164.584 -186.633,164.391 -186.633,164.146C-186.633,163.902 -186.706,163.704 -186.852,163.55C-186.999,163.397 -187.187,163.264 -187.417,163.153C-187.647,163.041 -187.892,162.933 -188.15,162.828C-188.408,162.724 -188.652,162.598 -188.882,162.452C-189.112,162.305 -189.3,162.12 -189.447,161.897C-189.593,161.674 -189.666,161.392 -189.666,161.05C-189.666,160.687 -189.564,160.368 -189.358,160.093C-189.152,159.817 -188.864,159.603 -188.495,159.449C-188.125,159.296 -187.7,159.219 -187.219,159.219C-187.051,159.219 -186.877,159.23 -186.696,159.251C-186.514,159.272 -186.34,159.303 -186.172,159.345C-186.005,159.387 -185.859,159.436 -185.733,159.491L-185.629,160.945L-186.225,160.987L-186.539,160.014C-186.769,159.889 -187.03,159.826 -187.323,159.826C-187.637,159.826 -187.89,159.903 -188.082,160.056C-188.273,160.21 -188.369,160.419 -188.369,160.684C-188.369,160.921 -188.296,161.118 -188.15,161.275C-188.003,161.432 -187.813,161.568 -187.579,161.683C-187.346,161.798 -187.098,161.91 -186.837,162.018C-186.575,162.126 -186.328,162.251 -186.094,162.394C-185.86,162.537 -185.67,162.717 -185.524,162.933C-185.377,163.149 -185.304,163.421 -185.304,163.749C-185.304,164.098 -185.409,164.41 -185.618,164.685C-185.827,164.961 -186.12,165.177 -186.497,165.334C-186.873,165.491 -187.309,165.569 -187.804,165.569Z" style="fill:rgb(201,168,76);fill-rule:nonzero;"/>
        <path d="M-179.906,164.596L-179.226,164.753L-179.226,165.172L-180.869,165.601L-181.109,165.454L-181.099,164.753L-181.13,164.743C-181.333,165.05 -181.547,165.264 -181.774,165.386C-182,165.508 -182.236,165.569 -182.48,165.569C-182.968,165.569 -183.369,165.416 -183.683,165.109C-183.997,164.802 -184.154,164.342 -184.154,163.728L-184.154,162.839C-184.154,162.699 -184.159,162.548 -184.169,162.384C-184.18,162.22 -184.192,162.051 -184.206,161.876L-184.917,161.73L-184.917,161.301L-183.17,160.851L-182.919,161.029C-182.933,161.238 -182.945,161.482 -182.956,161.761C-182.966,162.04 -182.971,162.326 -182.971,162.619L-182.982,163.592C-182.982,163.976 -182.895,164.253 -182.72,164.424C-182.546,164.595 -182.316,164.68 -182.03,164.68C-181.876,164.68 -181.718,164.638 -181.554,164.554C-181.39,164.471 -181.249,164.331 -181.13,164.136L-181.13,163.017C-181.13,162.87 -181.132,162.731 -181.136,162.598C-181.139,162.466 -181.146,162.338 -181.156,162.216C-181.167,162.094 -181.179,161.981 -181.193,161.876L-181.957,161.73L-181.957,161.301L-180.178,160.851L-179.938,161.019C-179.945,161.172 -179.95,161.325 -179.953,161.479C-179.957,161.632 -179.96,161.796 -179.964,161.971C-179.967,162.145 -179.969,162.34 -179.969,162.556L-179.969,163.362C-179.969,163.599 -179.964,163.827 -179.953,164.047C-179.943,164.267 -179.927,164.45 -179.906,164.596Z" style="fill:rgb(201,168,76);fill-rule:nonzero;"/>
        <path d="M-178.86,167.776L-178.892,167.327L-178.243,167.159C-178.243,167.124 -178.24,167.055 -178.233,166.95C-178.226,166.845 -178.22,166.709 -178.217,166.542C-178.213,166.375 -178.208,166.179 -178.201,165.956C-178.194,165.733 -178.191,165.485 -178.191,165.213L-178.17,162.975C-178.17,162.766 -178.177,162.57 -178.191,162.389C-178.205,162.208 -178.229,162.037 -178.264,161.876L-178.933,161.73L-178.933,161.301L-177.228,160.851L-176.977,161.029L-177.05,161.636L-177.019,161.646C-176.845,161.395 -176.636,161.196 -176.391,161.05C-176.147,160.904 -175.886,160.83 -175.607,160.83C-175.258,160.83 -174.937,160.919 -174.644,161.097C-174.352,161.275 -174.116,161.528 -173.938,161.855C-173.76,162.183 -173.672,162.574 -173.672,163.027C-173.672,163.487 -173.776,163.908 -173.985,164.288C-174.195,164.668 -174.488,164.973 -174.864,165.203C-175.241,165.433 -175.68,165.548 -176.182,165.548C-176.315,165.548 -176.454,165.536 -176.601,165.512C-176.747,165.487 -176.883,165.451 -177.009,165.402L-177.009,166.103C-177.009,166.347 -177.003,166.57 -176.993,166.772C-176.982,166.974 -176.974,167.103 -176.967,167.159L-176.109,167.316L-176.14,167.776L-178.86,167.776ZM-176.161,164.879C-175.917,164.879 -175.706,164.821 -175.528,164.706C-175.351,164.591 -175.209,164.417 -175.105,164.183C-175,163.949 -174.948,163.658 -174.948,163.31C-174.941,162.961 -174.991,162.67 -175.099,162.436C-175.208,162.202 -175.349,162.026 -175.523,161.908C-175.698,161.789 -175.893,161.73 -176.109,161.73C-176.283,161.73 -176.447,161.77 -176.601,161.85C-176.754,161.93 -176.89,162.047 -177.009,162.201L-177.009,164.628C-176.897,164.704 -176.766,164.765 -176.616,164.811C-176.466,164.856 -176.315,164.879 -176.161,164.879Z" style="fill:rgb(201,168,76);fill-rule:nonzero;"/>
        <path d="M-173.033,165.475L-173.065,165.025L-172.416,164.858C-172.409,164.83 -172.402,164.771 -172.395,164.68C-172.388,164.589 -172.381,164.469 -172.374,164.319C-172.367,164.169 -172.364,163.993 -172.364,163.791L-172.353,162.996C-172.353,162.78 -172.36,162.579 -172.374,162.394C-172.388,162.209 -172.413,162.037 -172.448,161.876L-173.117,161.73L-173.117,161.301L-171.433,160.851L-171.203,161.019L-171.245,161.855L-171.213,161.866C-171.011,161.475 -170.805,161.21 -170.596,161.071C-170.387,160.931 -170.178,160.862 -169.968,160.862C-169.787,160.862 -169.632,160.911 -169.503,161.008C-169.374,161.106 -169.309,161.256 -169.309,161.458C-169.309,161.66 -169.379,161.817 -169.519,161.929C-169.658,162.04 -169.825,162.096 -170.021,162.096C-170.174,162.096 -170.314,162.068 -170.439,162.012C-170.565,161.957 -170.697,161.862 -170.837,161.73L-170.586,161.761C-170.697,161.845 -170.805,161.951 -170.91,162.08C-171.014,162.209 -171.109,162.361 -171.192,162.535L-171.182,163.404C-171.175,163.634 -171.168,163.848 -171.161,164.047C-171.154,164.246 -171.147,164.417 -171.14,164.56C-171.133,164.703 -171.126,164.802 -171.119,164.858L-170.209,165.004L-170.24,165.475L-173.033,165.475Z" style="fill:rgb(201,168,76);fill-rule:nonzero;"/>
        <path d="M-166.767,165.559C-167.2,165.559 -167.588,165.461 -167.934,165.266C-168.279,165.071 -168.549,164.8 -168.744,164.455C-168.94,164.11 -169.037,163.714 -169.037,163.268C-169.037,162.78 -168.929,162.352 -168.713,161.986C-168.497,161.62 -168.214,161.334 -167.866,161.128C-167.517,160.923 -167.144,160.823 -166.746,160.83C-166.14,160.837 -165.678,161.029 -165.36,161.406C-165.043,161.782 -164.884,162.274 -164.884,162.881L-164.884,163.111L-167.981,163.111L-167.981,162.588L-165.794,162.588L-165.941,162.807L-165.941,162.494C-165.941,162.145 -166.019,161.869 -166.176,161.667C-166.333,161.465 -166.551,161.364 -166.83,161.364C-167.011,161.364 -167.179,161.416 -167.332,161.521C-167.486,161.625 -167.608,161.782 -167.698,161.991C-167.789,162.201 -167.834,162.462 -167.834,162.776L-167.834,162.964C-167.834,163.48 -167.7,163.892 -167.432,164.199C-167.163,164.506 -166.806,164.659 -166.359,164.659C-166.122,164.659 -165.908,164.615 -165.716,164.528C-165.524,164.441 -165.334,164.289 -165.146,164.073L-164.842,164.345C-165.038,164.75 -165.304,165.053 -165.643,165.255C-165.981,165.458 -166.356,165.559 -166.767,165.559Z" style="fill:rgb(201,168,76);fill-rule:nonzero;"/>
        <path d="M-164.309,165.475L-164.34,165.025L-163.692,164.858C-163.685,164.83 -163.678,164.771 -163.671,164.68C-163.664,164.589 -163.657,164.469 -163.65,164.319C-163.643,164.169 -163.639,163.993 -163.639,163.791L-163.629,162.996C-163.629,162.856 -163.632,162.722 -163.639,162.593C-163.646,162.464 -163.657,162.338 -163.671,162.216C-163.685,162.094 -163.702,161.981 -163.723,161.876L-164.393,161.73L-164.393,161.301L-162.687,160.851L-162.436,161.029L-162.499,161.615L-162.468,161.625C-162.245,161.346 -162.014,161.144 -161.777,161.019C-161.54,160.893 -161.293,160.83 -161.035,160.83C-160.77,160.83 -160.52,160.898 -160.287,161.034C-160.053,161.17 -159.863,161.376 -159.717,161.651C-159.57,161.927 -159.497,162.277 -159.497,162.703L-159.476,163.791C-159.476,164.028 -159.472,164.249 -159.465,164.455C-159.459,164.661 -159.445,164.795 -159.424,164.858L-158.827,165.025L-158.859,165.475L-161.212,165.475L-161.244,165.025L-160.689,164.858C-160.675,164.802 -160.665,164.722 -160.658,164.617C-160.651,164.513 -160.646,164.391 -160.642,164.251C-160.639,164.112 -160.637,163.969 -160.637,163.822L-160.648,162.787C-160.648,162.522 -160.688,162.309 -160.768,162.148C-160.848,161.988 -160.954,161.873 -161.087,161.803C-161.219,161.733 -161.366,161.699 -161.526,161.699C-161.701,161.699 -161.872,161.742 -162.039,161.829C-162.206,161.917 -162.349,162.044 -162.468,162.211L-162.468,163.759C-162.468,164.017 -162.463,164.251 -162.452,164.46C-162.442,164.67 -162.426,164.802 -162.405,164.858L-161.809,165.025L-161.84,165.475L-164.309,165.475ZM-158.252,165.475L-158.283,165.025L-157.718,164.858C-157.705,164.802 -157.694,164.722 -157.687,164.617C-157.68,164.513 -157.675,164.391 -157.671,164.251C-157.668,164.112 -157.666,163.969 -157.666,163.822L-157.677,162.849C-157.677,162.57 -157.72,162.347 -157.807,162.18C-157.895,162.012 -158.008,161.89 -158.147,161.814C-158.287,161.737 -158.437,161.699 -158.597,161.699C-158.792,161.699 -158.976,161.742 -159.146,161.829C-159.317,161.917 -159.465,162.051 -159.591,162.232L-159.853,161.814C-159.608,161.493 -159.347,161.249 -159.068,161.081C-158.789,160.914 -158.489,160.83 -158.168,160.83C-157.841,160.83 -157.553,160.907 -157.305,161.06C-157.058,161.214 -156.866,161.428 -156.73,161.704C-156.594,161.979 -156.526,162.305 -156.526,162.682L-156.515,163.791C-156.515,164.028 -156.51,164.249 -156.5,164.455C-156.489,164.661 -156.474,164.795 -156.453,164.858L-155.804,165.025L-155.836,165.475L-158.252,165.475Z" style="fill:rgb(201,168,76);fill-rule:nonzero;"/>
        <path d="M-152.99,165.559C-153.422,165.559 -153.811,165.461 -154.157,165.266C-154.502,165.071 -154.772,164.8 -154.967,164.455C-155.163,164.11 -155.26,163.714 -155.26,163.268C-155.26,162.78 -155.152,162.352 -154.936,161.986C-154.72,161.62 -154.437,161.334 -154.089,161.128C-153.74,160.923 -153.367,160.823 -152.969,160.83C-152.362,160.837 -151.9,161.029 -151.583,161.406C-151.266,161.782 -151.107,162.274 -151.107,162.881L-151.107,163.111L-154.204,163.111L-154.204,162.588L-152.017,162.588L-152.164,162.807L-152.164,162.494C-152.164,162.145 -152.242,161.869 -152.399,161.667C-152.556,161.465 -152.774,161.364 -153.053,161.364C-153.234,161.364 -153.402,161.416 -153.555,161.521C-153.708,161.625 -153.83,161.782 -153.921,161.991C-154.012,162.201 -154.057,162.462 -154.057,162.776L-154.057,162.964C-154.057,163.48 -153.923,163.892 -153.654,164.199C-153.386,164.506 -153.028,164.659 -152.582,164.659C-152.345,164.659 -152.131,164.615 -151.939,164.528C-151.747,164.441 -151.557,164.289 -151.369,164.073L-151.065,164.345C-151.261,164.75 -151.527,165.053 -151.866,165.255C-152.204,165.458 -152.579,165.559 -152.99,165.559Z" style="fill:rgb(201,168,76);fill-rule:nonzero;"/>
    </g>
    <g transform="matrix(13.0693,0,0,13.0693,2706.26,-1957.21)">
        <path d="M-186.319,165.569C-186.974,165.569 -187.557,165.451 -188.066,165.213C-188.575,164.976 -188.976,164.628 -189.269,164.167C-189.562,163.707 -189.708,163.146 -189.708,162.483C-189.708,162.002 -189.623,161.563 -189.452,161.165C-189.281,160.768 -189.037,160.426 -188.72,160.14C-188.402,159.854 -188.024,159.633 -187.585,159.476C-187.145,159.319 -186.657,159.24 -186.12,159.24C-185.813,159.24 -185.499,159.272 -185.179,159.334C-184.858,159.397 -184.582,159.481 -184.352,159.585L-184.279,161.134L-184.865,161.176L-185.21,160.108C-185.343,160.032 -185.498,159.974 -185.676,159.936C-185.853,159.898 -186.033,159.878 -186.214,159.878C-186.661,159.878 -187.032,159.979 -187.328,160.182C-187.625,160.384 -187.848,160.663 -187.998,161.019C-188.148,161.374 -188.223,161.786 -188.223,162.253C-188.223,162.811 -188.129,163.289 -187.94,163.686C-187.752,164.084 -187.499,164.387 -187.182,164.596C-186.865,164.805 -186.511,164.91 -186.12,164.91C-185.932,164.91 -185.74,164.882 -185.545,164.826C-185.35,164.771 -185.186,164.69 -185.053,164.586L-184.656,163.634L-184.028,163.697L-184.331,165.057C-184.548,165.189 -184.835,165.308 -185.194,165.412C-185.554,165.517 -185.928,165.569 -186.319,165.569Z" style="fill:rgb(201,168,76);fill-rule:nonzero;"/>
        <path d="M-181.057,165.559C-181.531,165.559 -181.948,165.459 -182.307,165.261C-182.666,165.062 -182.947,164.786 -183.149,164.434C-183.351,164.082 -183.453,163.679 -183.453,163.226C-183.453,162.731 -183.339,162.304 -183.113,161.944C-182.886,161.585 -182.586,161.31 -182.213,161.118C-181.84,160.926 -181.441,160.83 -181.015,160.83C-180.562,160.83 -180.164,160.928 -179.823,161.123C-179.481,161.318 -179.214,161.59 -179.022,161.939C-178.831,162.288 -178.735,162.689 -178.735,163.142C-178.735,163.596 -178.838,164.005 -179.043,164.371C-179.249,164.737 -179.528,165.027 -179.88,165.24C-180.232,165.452 -180.625,165.559 -181.057,165.559ZM-180.952,164.952C-180.757,164.952 -180.59,164.891 -180.45,164.769C-180.311,164.647 -180.203,164.471 -180.126,164.241C-180.049,164.01 -180.011,163.742 -180.011,163.435C-180.011,162.835 -180.116,162.347 -180.325,161.971C-180.534,161.594 -180.813,161.406 -181.162,161.406C-181.462,161.406 -181.702,161.549 -181.883,161.835C-182.065,162.12 -182.155,162.501 -182.155,162.975C-182.155,163.351 -182.103,163.69 -181.999,163.99C-181.894,164.289 -181.751,164.525 -181.57,164.696C-181.388,164.867 -181.183,164.952 -180.952,164.952Z" style="fill:rgb(201,168,76);fill-rule:nonzero;"/>
        <path d="M-173.253,164.596L-172.573,164.753L-172.573,165.172L-174.216,165.601L-174.456,165.454L-174.446,164.753L-174.477,164.743C-174.679,165.05 -174.894,165.264 -175.12,165.386C-175.347,165.508 -175.582,165.569 -175.827,165.569C-176.315,165.569 -176.716,165.416 -177.03,165.109C-177.343,164.802 -177.5,164.342 -177.5,163.728L-177.5,162.839C-177.5,162.699 -177.506,162.548 -177.516,162.384C-177.526,162.22 -177.539,162.051 -177.553,161.876L-178.264,161.73L-178.264,161.301L-176.517,160.851L-176.266,161.029C-176.28,161.238 -176.292,161.482 -176.303,161.761C-176.313,162.04 -176.318,162.326 -176.318,162.619L-176.329,163.592C-176.329,163.976 -176.241,164.253 -176.067,164.424C-175.893,164.595 -175.663,164.68 -175.377,164.68C-175.223,164.68 -175.065,164.638 -174.901,164.554C-174.737,164.471 -174.596,164.331 -174.477,164.136L-174.477,163.017C-174.477,162.87 -174.479,162.731 -174.482,162.598C-174.486,162.466 -174.493,162.338 -174.503,162.216C-174.514,162.094 -174.526,161.981 -174.54,161.876L-175.303,161.73L-175.303,161.301L-173.525,160.851L-173.285,161.019C-173.291,161.172 -173.297,161.325 -173.3,161.479C-173.304,161.632 -173.307,161.796 -173.311,161.971C-173.314,162.145 -173.316,162.34 -173.316,162.556L-173.316,163.362C-173.316,163.599 -173.311,163.827 -173.3,164.047C-173.29,164.267 -173.274,164.45 -173.253,164.596Z" style="fill:rgb(201,168,76);fill-rule:nonzero;"/>
        <path d="M-172.176,165.475L-172.207,165.025L-171.558,164.858C-171.551,164.83 -171.544,164.771 -171.538,164.68C-171.531,164.589 -171.524,164.469 -171.517,164.319C-171.51,164.169 -171.506,163.993 -171.506,163.791L-171.496,162.996C-171.496,162.78 -171.503,162.579 -171.517,162.394C-171.531,162.209 -171.555,162.037 -171.59,161.876L-172.259,161.73L-172.259,161.301L-170.575,160.851L-170.345,161.019L-170.387,161.855L-170.355,161.866C-170.153,161.475 -169.947,161.21 -169.738,161.071C-169.529,160.931 -169.32,160.862 -169.111,160.862C-168.929,160.862 -168.774,160.911 -168.645,161.008C-168.516,161.106 -168.452,161.256 -168.452,161.458C-168.452,161.66 -168.521,161.817 -168.661,161.929C-168.8,162.04 -168.968,162.096 -169.163,162.096C-169.316,162.096 -169.456,162.068 -169.581,162.012C-169.707,161.957 -169.839,161.862 -169.979,161.73L-169.728,161.761C-169.839,161.845 -169.947,161.951 -170.052,162.08C-170.157,162.209 -170.251,162.361 -170.334,162.535L-170.324,163.404C-170.317,163.634 -170.31,163.848 -170.303,164.047C-170.296,164.246 -170.289,164.417 -170.282,164.56C-170.275,164.703 -170.268,164.802 -170.261,164.858L-169.351,165.004L-169.383,165.475L-172.176,165.475Z" style="fill:rgb(201,168,76);fill-rule:nonzero;"/>
        <path d="M-164.497,164.67C-164.609,164.948 -164.795,165.168 -165.057,165.329C-165.318,165.489 -165.603,165.569 -165.909,165.569C-166.377,165.569 -166.759,165.433 -167.055,165.161C-167.351,164.889 -167.5,164.478 -167.5,163.927L-167.468,161.542L-168.2,161.542L-168.2,161.238L-166.579,159.899L-166.276,159.899L-166.297,161.28L-166.317,163.791C-166.317,164.105 -166.244,164.333 -166.098,164.476C-165.951,164.619 -165.746,164.69 -165.481,164.69C-165.341,164.69 -165.207,164.663 -165.078,164.607C-164.949,164.551 -164.835,164.478 -164.738,164.387L-164.497,164.67ZM-166.841,161.542L-166.841,160.924L-164.79,160.924L-164.79,161.542L-166.841,161.542Z" style="fill:rgb(201,168,76);fill-rule:nonzero;"/>
    </g>
    <g transform="matrix(0.447321,0,0,0.447321,33.8095,143.133)">
        <path d="M142.466,205.185L144.474,220.205L139.584,220.641L136.091,210.686C135.451,210.57 134.825,210.497 134.214,210.468C133.602,210.439 132.977,210.424 132.336,210.424L127.315,210.424C126.529,210.424 125.903,210.482 125.438,210.599C125.438,211.006 125.423,212.083 125.394,213.83C125.365,215.576 125.336,217.658 125.307,220.074C125.277,222.49 125.263,224.92 125.263,227.365L125.263,236.709C125.263,240.086 125.292,243.113 125.35,245.791C125.408,248.469 125.467,250.39 125.525,251.554L133.035,252.69L132.773,256.881L107.274,256.881L107.012,252.69L114.522,251.554C114.58,250.39 114.638,248.469 114.696,245.791C114.755,243.113 114.784,240.086 114.784,236.709L114.784,227.365C114.784,224.92 114.769,222.49 114.74,220.074C114.711,217.658 114.696,215.576 114.696,213.83C114.696,212.083 114.667,211.006 114.609,210.599C114.143,210.482 113.532,210.424 112.775,210.424L107.623,210.424C106.983,210.424 106.342,210.439 105.702,210.468C105.062,210.497 104.421,210.57 103.781,210.686L100.375,220.816L95.485,220.292L97.319,205.185C97.959,205.243 98.745,205.286 99.677,205.316C100.608,205.345 101.598,205.388 102.646,205.447C103.693,205.505 104.712,205.548 105.702,205.578C106.692,205.607 107.565,205.621 108.322,205.621L131.463,205.621C132.22,205.621 133.093,205.607 134.083,205.578C135.072,205.548 136.091,205.505 137.139,205.447C138.187,205.388 139.177,205.345 140.108,205.316C141.04,205.286 141.826,205.243 142.466,205.185Z" style="fill:white;fill-opacity:0.7;fill-rule:nonzero;"/>
        <path d="M211.925,256.881L211.663,252.864L217.077,251.554C217.193,251.263 217.295,250.536 217.383,249.371C217.47,248.207 217.528,246.679 217.557,244.787C217.586,242.895 217.601,240.726 217.601,238.281L217.601,224.309C217.601,221.747 217.586,219.521 217.557,217.628C217.528,215.736 217.47,214.208 217.383,213.044C217.295,211.88 217.193,211.181 217.077,210.948L211.663,209.638L211.925,205.621L233.756,205.621L234.018,209.638L228.604,210.948C228.487,211.181 228.386,211.909 228.298,213.131C228.211,214.354 228.138,215.926 228.08,217.847C228.022,219.768 227.993,221.922 227.993,224.309L227.993,238.281C227.993,240.551 228.022,242.647 228.08,244.568C228.138,246.49 228.211,248.061 228.298,249.284C228.386,250.506 228.487,251.263 228.604,251.554L234.018,252.864L233.756,256.881L211.925,256.881ZM180.575,256.881L180.313,252.864L185.814,251.554C185.931,251.263 186.018,250.536 186.076,249.371C186.135,248.207 186.193,246.664 186.251,244.743C186.309,242.822 186.338,240.668 186.338,238.281L186.338,224.309C186.338,221.806 186.309,219.593 186.251,217.672C186.193,215.751 186.135,214.194 186.076,213C186.018,211.807 185.931,211.123 185.814,210.948L180.313,209.638L180.575,205.621L202.319,205.621L202.581,209.638L197.167,210.948C197.05,211.181 196.948,211.88 196.861,213.044C196.774,214.208 196.715,215.736 196.686,217.628C196.657,219.521 196.643,221.747 196.643,224.309L196.643,238.281C196.643,240.726 196.657,242.895 196.686,244.787C196.715,246.679 196.774,248.207 196.861,249.371C196.948,250.536 197.05,251.263 197.167,251.554L202.581,252.864L202.319,256.881L180.575,256.881ZM195.071,233.74L195.071,227.54C196.352,227.715 197.967,227.831 199.917,227.889C201.868,227.947 204.298,227.977 207.209,227.977C210.12,227.977 212.521,227.947 214.413,227.889C216.305,227.831 217.892,227.715 219.173,227.54L219.173,233.74C217.95,233.624 216.407,233.536 214.544,233.478C212.681,233.42 210.236,233.391 207.209,233.391C204.124,233.391 201.635,233.42 199.743,233.478C197.851,233.536 196.293,233.624 195.071,233.74Z" style="fill:white;fill-opacity:0.7;fill-rule:nonzero;"/>
        <path d="M312.821,257.405C311.249,257.231 309.458,257.1 307.45,257.012C305.442,256.925 303.622,256.881 301.992,256.881L271.952,256.881L271.69,252.864L277.192,251.554C277.308,251.263 277.41,250.536 277.497,249.371C277.585,248.207 277.657,246.679 277.716,244.787C277.774,242.895 277.803,240.726 277.803,238.281L277.803,224.309C277.803,221.806 277.774,219.593 277.716,217.672C277.657,215.751 277.585,214.208 277.497,213.044C277.41,211.88 277.308,211.181 277.192,210.948L271.69,209.638L271.952,205.621L299.285,205.621C300.333,205.621 301.57,205.607 302.996,205.578C304.423,205.548 305.849,205.49 307.275,205.403C308.702,205.316 309.939,205.243 310.987,205.185L313.082,217.672L308.454,218.283L305.311,210.773C304.612,210.657 303.972,210.57 303.389,210.511C302.807,210.453 302.167,210.424 301.468,210.424L293.784,210.424C292.677,210.424 291.644,210.439 290.684,210.468C289.723,210.497 288.893,210.57 288.195,210.686C288.195,211.035 288.18,211.705 288.151,212.695C288.122,213.684 288.093,214.907 288.064,216.362C288.035,217.818 288.02,219.419 288.02,221.165L288.02,241.25C288.02,242.88 288.035,244.379 288.064,245.747C288.093,247.115 288.122,248.28 288.151,249.24C288.18,250.201 288.195,250.914 288.195,251.38C289.184,251.496 290.203,251.584 291.251,251.642C292.299,251.7 293.609,251.729 295.181,251.729L301.119,251.729C302.516,251.729 303.593,251.714 304.35,251.685C305.107,251.656 305.689,251.613 306.096,251.554C306.504,251.496 306.911,251.438 307.319,251.38L312.035,242.822L316.663,243.695L312.821,257.405ZM302.167,239.242L301.294,233.391C300.886,233.332 300.275,233.274 299.46,233.216C298.645,233.158 297.684,233.129 296.578,233.129L291.338,233.129C290.407,233.129 289.49,233.158 288.588,233.216C287.685,233.274 286.914,233.332 286.274,233.391L286.274,227.715C286.914,227.773 287.685,227.816 288.588,227.846C289.49,227.875 290.407,227.889 291.338,227.889L296.578,227.889C297.684,227.889 298.645,227.875 299.46,227.846C300.275,227.816 300.886,227.802 301.294,227.802L302.167,221.864L306.62,221.864L306.62,239.242L302.167,239.242Z" style="fill:white;fill-opacity:0.7;fill-rule:nonzero;"/>
        <path d="M430.518,257.667C425.045,257.667 420.184,256.677 415.934,254.698C411.685,252.719 408.337,249.808 405.892,245.966C403.447,242.123 402.224,237.437 402.224,231.906C402.224,227.889 402.937,224.222 404.364,220.903C405.79,217.585 407.828,214.732 410.477,212.345C413.125,209.958 416.284,208.11 419.951,206.8C423.619,205.49 427.694,204.835 432.177,204.835C434.739,204.835 437.358,205.097 440.036,205.621C442.714,206.145 445.014,206.844 446.935,207.717L447.546,220.641L442.656,220.99L439.774,212.083C438.668,211.443 437.373,210.963 435.888,210.642C434.404,210.322 432.905,210.162 431.391,210.162C427.665,210.162 424.565,211.006 422.091,212.695C419.617,214.383 417.754,216.712 416.502,219.681C415.25,222.65 414.625,226.084 414.625,229.985C414.625,234.642 415.41,238.63 416.982,241.949C418.554,245.267 420.665,247.799 423.313,249.546C425.962,251.292 428.917,252.166 432.177,252.166C433.749,252.166 435.35,251.933 436.98,251.467C438.61,251.001 439.978,250.332 441.084,249.459L444.403,241.512L449.642,242.036L447.11,253.388C445.305,254.494 442.903,255.484 439.905,256.357C436.907,257.231 433.778,257.667 430.518,257.667Z" style="fill:white;fill-opacity:0.7;fill-rule:nonzero;"/>
        <path d="M482.337,256.881L482.075,252.864L486.528,251.554L504.343,207.804L510.892,204.049L530.628,251.554L535.081,252.864L534.819,256.881L513.425,256.881L513.163,252.864L518.664,251.554L513.774,239.678L512.813,236.796L503.819,215.14L506.177,215.227L498.317,236.622L497.444,239.242L493.165,251.554L498.667,252.864L498.405,256.881L482.337,256.881ZM495.61,241.599L495.61,236.098C496.716,236.156 498.07,236.229 499.671,236.316C501.272,236.403 503.324,236.447 505.827,236.447C508.272,236.447 510.325,236.403 511.984,236.316C513.643,236.229 514.996,236.156 516.044,236.098L516.044,241.512C514.647,241.512 513.119,241.483 511.46,241.425C509.801,241.366 507.923,241.337 505.827,241.337C503.731,241.337 501.869,241.366 500.238,241.425C498.608,241.483 497.066,241.541 495.61,241.599Z" style="fill:white;fill-opacity:0.7;fill-rule:nonzero;"/>
        <path d="M569.61,256.881L569.348,252.864L574.849,251.467C574.849,251.118 574.864,250.463 574.893,249.502C574.922,248.542 574.951,247.421 574.98,246.14C575.009,244.859 575.039,243.535 575.068,242.167C575.097,240.799 575.111,239.503 575.111,238.281L575.111,224.309C575.111,221.806 575.082,219.593 575.024,217.672C574.966,215.751 574.893,214.208 574.806,213.044C574.718,211.88 574.616,211.181 574.5,210.948L568.999,209.638L569.26,205.621L590.743,205.621C597.03,205.621 601.716,206.684 604.802,208.809C607.887,210.933 609.43,214.208 609.43,218.633C609.43,221.485 608.586,224.032 606.898,226.274C605.209,228.515 602.881,230.276 599.912,231.557C596.943,232.838 593.537,233.478 589.695,233.478L584.368,233.478L584.368,228.85L588.385,228.85C591.47,228.85 593.944,227.947 595.807,226.143C597.67,224.338 598.602,221.922 598.602,218.895C598.602,216.042 597.816,213.873 596.244,212.389C594.672,210.904 592.402,210.162 589.433,210.162L585.503,210.162C585.445,210.337 585.401,210.744 585.372,211.385C585.343,212.025 585.328,212.898 585.328,214.004L585.328,238.281C585.328,240.144 585.343,241.978 585.372,243.782C585.401,245.587 585.459,247.174 585.547,248.542C585.634,249.91 585.707,250.885 585.765,251.467L590.743,252.864L590.481,256.881L569.61,256.881ZM613.796,257.842C610.769,257.842 608.077,257.332 605.719,256.314C603.361,255.295 601.207,253.679 599.257,251.467C597.307,249.255 595.429,246.373 593.624,242.822L588.385,232.081L596.943,230.072L606.985,244.394C608.382,246.315 609.692,247.901 610.915,249.153C612.137,250.405 613.389,251.38 614.67,252.078C615.951,252.777 617.319,253.301 618.774,253.65L618.687,257.405C617.872,257.58 617.057,257.696 616.242,257.755C615.427,257.813 614.612,257.842 613.796,257.842Z" style="fill:white;fill-opacity:0.7;fill-rule:nonzero;"/>
        <path d="M653.128,205.621L676.269,205.621C685.642,205.621 692.948,207.819 698.188,212.214C703.427,216.61 706.047,222.737 706.047,230.596C706.047,235.719 704.81,240.26 702.336,244.219C699.862,248.178 696.456,251.278 692.119,253.519C687.782,255.761 682.819,256.881 677.23,256.881L653.128,256.881L652.866,252.864L658.367,251.554C658.542,251.089 658.688,249.604 658.804,247.101C658.92,244.597 658.979,241.658 658.979,238.281L658.979,224.309C658.979,220.699 658.92,217.658 658.804,215.183C658.688,212.709 658.542,211.297 658.367,210.948L652.866,209.638L653.128,205.621ZM669.458,211.035C669.458,211.501 669.443,212.258 669.414,213.306C669.385,214.354 669.356,215.766 669.327,217.541C669.298,219.317 669.283,221.573 669.283,224.309L669.283,238.281C669.283,239.853 669.298,241.454 669.327,243.084C669.356,244.714 669.414,246.198 669.501,247.537C669.589,248.876 669.661,249.953 669.72,250.768C671.233,251.001 672.674,251.191 674.042,251.336C675.41,251.482 676.706,251.554 677.928,251.554C683.284,251.554 687.345,250.055 690.11,247.057C692.876,244.059 694.258,239.474 694.258,233.303C694.258,229.286 693.792,225.852 692.861,222.999C691.929,220.146 690.62,217.789 688.931,215.926C687.243,214.063 685.249,212.695 682.95,211.821C680.65,210.948 678.132,210.511 675.396,210.511C674.464,210.511 673.504,210.555 672.514,210.642C671.524,210.73 670.506,210.861 669.458,211.035Z" style="fill:white;fill-opacity:0.7;fill-rule:nonzero;"/>
        <path d="M822.522,257.667C817.049,257.667 812.159,256.677 807.851,254.698C803.543,252.719 800.166,249.837 797.721,246.053C795.276,242.269 794.054,237.641 794.054,232.168C794.054,228.093 794.781,224.382 796.237,221.034C797.692,217.687 799.744,214.805 802.393,212.389C805.042,209.973 808.215,208.11 811.912,206.8C815.609,205.49 819.727,204.835 824.268,204.835C826.83,204.835 829.45,205.097 832.128,205.621C834.806,206.145 837.047,206.844 838.852,207.717L839.288,219.768L834.398,220.03L831.691,212.083C830.527,211.385 829.173,210.89 827.63,210.599C826.088,210.308 824.676,210.162 823.395,210.162C819.611,210.162 816.453,211.006 813.92,212.695C811.388,214.383 809.496,216.712 808.244,219.681C806.992,222.65 806.367,226.084 806.367,229.985C806.367,234.642 807.167,238.645 808.768,241.992C810.369,245.34 812.523,247.887 815.23,249.633C817.937,251.38 820.95,252.253 824.268,252.253C825.374,252.253 826.626,252.093 828.023,251.773C829.421,251.453 830.672,250.914 831.778,250.157L830.032,254.96L830.032,245.704C830.032,244.248 830.003,242.807 829.944,241.381C829.886,239.955 829.799,238.863 829.682,238.106L823.57,236.971L823.832,232.779L844.004,232.779L844.266,236.796L840.074,238.019C840.016,238.426 840.001,239.242 840.031,240.464C840.06,241.687 840.074,243.026 840.074,244.481C840.074,245.645 840.103,246.882 840.162,248.192C840.22,249.502 840.278,251.089 840.336,252.952C837.891,254.465 835.082,255.63 831.909,256.445C828.736,257.26 825.607,257.667 822.522,257.667Z" style="fill:white;fill-opacity:0.7;fill-rule:nonzero;"/>
        <path d="M878.445,256.881L878.183,252.864L882.637,251.554L900.451,207.804L907,204.049L926.736,251.554L931.19,252.864L930.928,256.881L909.533,256.881L909.271,252.864L914.772,251.554L909.882,239.678L908.922,236.796L899.927,215.14L902.285,215.227L894.426,236.622L893.552,239.242L889.273,251.554L894.775,252.864L894.513,256.881L878.445,256.881ZM891.719,241.599L891.719,236.098C892.825,236.156 894.178,236.229 895.779,236.316C897.38,236.403 899.432,236.447 901.936,236.447C904.381,236.447 906.433,236.403 908.092,236.316C909.751,236.229 911.105,236.156 912.153,236.098L912.153,241.512C910.755,241.512 909.227,241.483 907.568,241.425C905.909,241.366 904.031,241.337 901.936,241.337C899.84,241.337 897.977,241.366 896.347,241.425C894.717,241.483 893.174,241.541 891.719,241.599Z" style="fill:white;fill-opacity:0.7;fill-rule:nonzero;"/>
        <path d="M966.155,205.621L983.445,205.621L1001.7,245.354L999.513,245.354L1016.45,205.621L1033.31,205.621L1033.57,209.638L1028.07,210.861C1028.01,211.443 1028.01,212.695 1028.07,214.616C1028.13,216.537 1028.18,219.04 1028.24,222.126L1028.77,237.67C1028.88,240.231 1028.99,242.487 1029.07,244.437C1029.16,246.388 1029.25,247.959 1029.34,249.153C1029.42,250.346 1029.5,251.147 1029.55,251.554L1035.06,252.864L1034.79,256.881L1012.79,256.881L1012.52,252.864L1018.03,251.554C1018.08,251.263 1018.13,250.608 1018.16,249.59C1018.19,248.571 1018.2,247.115 1018.2,245.223C1018.2,243.331 1018.17,240.988 1018.11,238.194L1017.85,208.154L1021.26,208.154L1000.39,257.143L995.758,257.143L973.053,208.154L977.332,208.154L977.42,238.019C977.42,242.618 977.449,245.907 977.507,247.887C977.565,249.866 977.623,251.089 977.682,251.554L983.707,252.864L983.445,256.881L964.932,256.881L964.67,252.864L970.696,251.554C970.754,251.147 970.812,250.346 970.87,249.153C970.929,247.959 970.987,246.49 971.045,244.743C971.103,242.996 971.132,241.104 971.132,239.067L971.394,222.3C971.452,219.04 971.467,216.522 971.438,214.747C971.409,212.971 971.394,211.705 971.394,210.948L965.893,209.638L966.155,205.621Z" style="fill:white;fill-opacity:0.7;fill-rule:nonzero;"/>
        <path d="M1113.86,257.405C1112.29,257.231 1110.5,257.1 1108.49,257.012C1106.48,256.925 1104.66,256.881 1103.03,256.881L1072.99,256.881L1072.73,252.864L1078.23,251.554C1078.35,251.263 1078.45,250.536 1078.53,249.371C1078.62,248.207 1078.69,246.679 1078.75,244.787C1078.81,242.895 1078.84,240.726 1078.84,238.281L1078.84,224.309C1078.84,221.806 1078.81,219.593 1078.75,217.672C1078.69,215.751 1078.62,214.208 1078.53,213.044C1078.45,211.88 1078.35,211.181 1078.23,210.948L1072.73,209.638L1072.99,205.621L1100.32,205.621C1101.37,205.621 1102.61,205.607 1104.03,205.578C1105.46,205.548 1106.89,205.49 1108.31,205.403C1109.74,205.316 1110.98,205.243 1112.02,205.185L1114.12,217.672L1109.49,218.283L1106.35,210.773C1105.65,210.657 1105.01,210.57 1104.43,210.511C1103.84,210.453 1103.2,210.424 1102.51,210.424L1094.82,210.424C1093.71,210.424 1092.68,210.439 1091.72,210.468C1090.76,210.497 1089.93,210.57 1089.23,210.686C1089.23,211.035 1089.22,211.705 1089.19,212.695C1089.16,213.684 1089.13,214.907 1089.1,216.362C1089.07,217.818 1089.06,219.419 1089.06,221.165L1089.06,241.25C1089.06,242.88 1089.07,244.379 1089.1,245.747C1089.13,247.115 1089.16,248.28 1089.19,249.24C1089.22,250.201 1089.23,250.914 1089.23,251.38C1090.22,251.496 1091.24,251.584 1092.29,251.642C1093.34,251.7 1094.64,251.729 1096.22,251.729L1102.15,251.729C1103.55,251.729 1104.63,251.714 1105.39,251.685C1106.14,251.656 1106.73,251.613 1107.13,251.554C1107.54,251.496 1107.95,251.438 1108.36,251.38L1113.07,242.822L1117.7,243.695L1113.86,257.405ZM1103.2,239.242L1102.33,233.391C1101.92,233.332 1101.31,233.274 1100.5,233.216C1099.68,233.158 1098.72,233.129 1097.61,233.129L1092.38,233.129C1091.44,233.129 1090.53,233.158 1089.62,233.216C1088.72,233.274 1087.95,233.332 1087.31,233.391L1087.31,227.715C1087.95,227.773 1088.72,227.816 1089.62,227.846C1090.53,227.875 1091.44,227.889 1092.38,227.889L1097.61,227.889C1098.72,227.889 1099.68,227.875 1100.5,227.846C1101.31,227.816 1101.92,227.802 1102.33,227.802L1103.2,221.864L1107.66,221.864L1107.66,239.242L1103.2,239.242Z" style="fill:white;fill-opacity:0.7;fill-rule:nonzero;"/>
    </g>
</svg>
