<?xml version="1.0" encoding="UTF-8" standalone="no"?>
<!DOCTYPE svg PUBLIC "-//W3C//DTD SVG 1.1//EN" "http://www.w3.org/Graphics/SVG/1.1/DTD/svg11.dtd">
<svg width="100%" height="100%" viewBox="0 0 600 300" version="1.1" xmlns="http://www.w3.org/2000/svg" xmlns:xlink="http://www.w3.org/1999/xlink" xml:space="preserve" xmlns:serif="http://www.serif.com/" style="fill-rule:evenodd;clip-rule:evenodd;stroke-linejoin:round;stroke-miterlimit:2;">
    <g transform="matrix(0.385458,0,0,0.385458,76.3157,96.8744)">
        <g transform="matrix(1.09718,0,0,1.09718,-84.3609,-10.6843)">
            <g transform="matrix(1,0,0,1,-210.625,-173.75)">
                <path d="M207.7,238.9L240,355.4L272.1,238.9C272.6,236.6 274.2,234.5 276.2,232.9C278.3,231.3 280.9,230.6 283.7,230.6C286,230.6 288.4,231.4 290.7,232.7C292.8,234 294.3,236.1 295.1,238.7L327.4,355.2L359.7,238.7C360.2,237.1 361.3,235.6 362.5,234C364.8,231.7 367.7,230.4 371,230.4C374.3,230.4 377.2,231.7 379.5,234C381.8,236.3 382.9,239.2 382.9,242.5C382.9,244.1 382.6,245.6 382.1,247.2L339.4,402.2C338.4,405 336.8,407.6 334.7,409.2C332.6,411 330,411.8 327.5,411.8C324.1,411.8 321.3,410.5 319.2,408.2C317.6,406.6 316.4,404.6 315.6,402.2L283.8,288L252.2,402.4C251.2,405.2 249.6,407.8 247.5,409.4C245.4,411.2 242.8,412 240.3,412C236.9,412 234.1,410.7 231.8,408.4C230.2,406.8 229.2,405 228.2,402.4L185.2,247.1C184.7,245.3 184.4,243.7 184.4,242.4C184.4,239 185.7,236.2 188,233.9C190.3,231.6 193.2,230.3 196.5,230.3C199.8,230.3 202.7,231.6 205,233.9C206.2,235.8 206.9,237.3 207.7,238.9Z" style="fill:rgb(239,80,122);fill-rule:nonzero;"/>
            </g>
            <g transform="matrix(1,0,0,1,-210.625,-173.75)">
                <path d="M401.3,400.4L401.3,242.8C401.3,241.2 401.6,239.7 402.3,238.1C402.8,236.5 403.9,235.3 404.9,234.2C405.9,233.2 407.2,232.1 408.8,231.6C410.4,231.1 411.9,230.6 413.5,230.6L457.2,230.6C465,230.6 472,232.2 478.9,235C485.6,237.8 491.6,242 496.5,246.9C501.4,252.1 505.6,257.8 508.4,264.8C511.2,271.5 512.8,278.8 512.8,286.5C512.8,291.4 512.3,296.3 511,301C509.7,305.7 507.9,310.3 505.6,314.5C503.3,318.6 500.2,322.5 496.3,326.1C492.7,329.7 488.3,332.8 483.6,335.7L519.8,393.7C521.1,395.8 521.6,398.1 521.6,400.2C521.6,402 521.3,403.6 520.6,404.9C520.1,406.5 519,407.5 518,408.8C517,409.8 515.7,410.9 514.1,411.4C512.5,411.9 511,412.4 509.4,412.4C505.3,412.4 501.6,410.3 499,406.4L459,342.1L425.1,342.1L425.1,400.1C425.1,403.5 423.8,406.3 421.5,408.6C419.2,410.9 416.3,412.2 413,412.2C409.7,412.2 406.8,410.9 404.5,408.6C402.3,406.6 401.3,403.7 401.3,400.4ZM425.3,254.9L425.3,318.3L457.1,318.3C461.5,318.3 465.6,317.5 469.5,315.7C473.4,314.1 476.7,311.8 479.6,308.7C482.4,305.9 484.8,302.5 486.3,298.6C487.9,294.7 488.9,290.8 488.9,286.4C488.9,282 488.1,277.9 486.3,274C484.7,270.1 482.4,266.8 479.6,263.9C476.8,261.1 473.4,258.7 469.5,257.2C465.6,255.6 461.5,254.6 457.3,254.6L425.2,254.6L425.2,254.9L425.3,254.9Z" style="fill:rgb(239,80,122);fill-rule:nonzero;"/>
            </g>
            <g transform="matrix(1,0,0,1,-210.625,-173.75)">
                <path d="M719.3,321.7C719.3,346.8 710.5,368 692.6,385.9C675,403.5 653.5,412.6 628.4,412.6C603.3,412.6 581.8,403.8 564.2,385.9C546.6,368.3 537.5,346.8 537.5,321.7C537.5,296.6 546.3,275.4 564.2,257.5C582.1,239.6 603.3,230.8 628.4,230.8C653.2,230.8 674.7,239.6 692.6,257.5C701.4,266.3 708.1,276.1 712.5,286.7C717.3,297.4 719.3,309 719.3,321.7ZM628.7,254.9C619.4,254.9 610.8,256.5 603.1,259.8C595.3,263.2 588.1,268.1 581.6,274.6C575.1,281.1 570.2,288.3 566.8,296.1C563.7,303.9 561.9,312.4 561.9,321.7C561.9,340.1 568.4,355.9 581.3,368.8C594.2,381.7 610,388.2 628.4,388.2C646.8,388.2 662.6,381.7 675.5,368.8C688.4,355.9 694.9,340.1 694.9,321.7C694.9,303.3 688.4,287.5 675.5,274.6C662.9,261.4 647.1,254.9 628.7,254.9Z" style="fill:rgb(239,80,122);fill-rule:nonzero;"/>
            </g>
            <g transform="matrix(1,0,0,1,-210.625,-173.75)">
                <path d="M737.2,400.4L737.2,242.8C737.2,241.2 737.5,239.7 738.2,238.1C738.7,236.5 739.8,235.3 740.8,234.2C741.8,233.2 743.1,232.1 744.7,231.6C746.3,231.1 747.8,230.6 749.4,230.6C753,230.6 756.1,232.2 758.7,235L859.9,365.2L859.9,242.8C859.9,239.4 861.2,236.6 863.5,234.3C865.8,232 868.7,230.7 872,230.7C875.4,230.7 878.2,232 880.5,234.3C882.8,236.6 884.1,239.5 884.1,242.8L884.1,400.1C884.1,401.9 883.8,403.5 883.1,404.8C882.6,406.4 881.5,407.4 880.5,408.7C879.5,410 878.2,410.8 876.6,411.3C875,411.8 873.5,412.3 871.9,412.3C868.3,412.3 865.2,411 862.6,408.2L761.2,278L761.2,400.4C761.2,403.8 759.9,406.6 757.6,408.9C755.3,411.2 752.4,412.5 749.1,412.5C745.7,412.5 742.9,411.2 740.6,408.9C738.5,406.6 737.2,403.7 737.2,400.4Z" style="fill:rgb(239,80,122);fill-rule:nonzero;"/>
            </g>
            <g transform="matrix(1,0,0,1,-210.625,-173.75)">
                <path d="M1052.4,383.5C1052.4,386.6 1051.1,389.5 1048.8,392C1032,405.5 1012.8,412.2 991.9,412.2C966.8,412.2 945.3,403.4 927.7,385.5C910,368 901,346.5 901,321.4C901,296.3 909.8,275.1 927.7,257.2C945.6,239.3 966.8,230.5 991.9,230.5C1013.4,230.5 1032.8,237.5 1050.1,251.7C1052.2,253.8 1053.2,256.4 1053.2,260C1053.2,261.8 1052.9,263.4 1052.2,264.7C1051.7,266.3 1050.6,267.3 1049.6,268.6C1048.6,269.6 1047.3,270.7 1045.7,271.2C1044.1,271.7 1042.6,272.2 1041,272.2C1037.9,272.2 1035,271.2 1032.7,268.8C1027,264.1 1020.5,260.8 1013.8,258.4C1006.8,256.1 999.6,254.8 991.8,254.8C973.4,254.8 957.6,261.3 944.4,274.5C931.5,287.4 925,303.2 925,321.6C925,340.2 931.5,355.8 944.4,368.7C957.3,381.6 973.1,388.1 991.8,388.1C1005.5,388.1 1017.7,384.5 1028.5,377.2L1028.5,342L997.2,342C993.8,342 991,341 988.7,338.6C986.4,336.3 985.3,333.4 985.3,330.1C985.3,328.5 985.6,327 986.3,325.4C986.8,323.8 987.9,322.6 988.9,321.5C989.9,320.5 991.2,319.4 992.8,318.9C994.4,318.4 995.9,317.9 997.5,317.9L1041,317.9C1042.6,317.9 1044.1,318.2 1045.7,318.9C1047.3,319.4 1048.3,320.5 1049.6,321.5C1050.6,322.5 1051.7,323.8 1052.2,325.4C1052.7,327 1053.2,328.5 1053.2,330.1L1053.2,383.4L1052.4,383.4L1052.4,383.5Z" style="fill:rgb(239,80,122);fill-rule:nonzero;"/>
            </g>
            <g transform="matrix(1,0,0,1,-210.625,-173.75)">
                <path d="M1187.7,388.2C1191.1,388.2 1193.9,389.5 1196.2,391.8C1198.5,394.1 1199.8,397 1199.8,400.3C1199.8,403.6 1198.5,406.5 1196.2,408.8C1193.9,411.1 1191,412.4 1187.7,412.4L1082.9,412.4C1081.1,412.4 1079.5,412.1 1078.2,411.4C1076.6,410.9 1075.6,409.8 1074.3,408.8C1073.3,407.8 1072.2,406.5 1071.7,404.9C1071.2,403.3 1070.7,401.8 1070.7,400.2L1070.7,242.8C1070.7,241.2 1071,239.7 1071.7,238.1C1072.2,236.5 1073.3,235.3 1074.3,234.2C1075.3,233.2 1076.6,232.1 1078.2,231.6C1079.8,231.1 1081.3,230.6 1082.9,230.6L1187.7,230.6C1191.1,230.6 1193.9,231.9 1196.2,234.2C1198.5,236.5 1199.8,239.4 1199.8,242.7C1199.8,246 1198.5,248.9 1196.2,251.2C1193.9,253.5 1191,254.8 1187.7,254.8L1094.8,254.8L1094.8,309.4L1161.6,309.4C1165,309.4 1167.8,310.7 1170.1,313C1172.4,315.3 1173.7,318.2 1173.7,321.5C1173.7,324.8 1172.4,327.7 1170.1,330C1167.8,332.3 1164.9,333.6 1161.6,333.6L1094.8,333.6L1094.8,388.2L1187.7,388.2Z" style="fill:rgb(239,80,122);fill-rule:nonzero;"/>
            </g>
            <g transform="matrix(1,0,0,1,-210.625,-173.75)">
                <path d="M1218,387.2C1216.4,385.1 1215.7,382.8 1215.7,380C1215.7,378.4 1216,376.6 1216.7,375.3C1217.2,373.7 1218.3,372.5 1219.3,371.4C1220.3,370.4 1221.6,369.3 1223.2,368.8C1224.8,368.3 1226.3,367.8 1227.9,367.8C1232.3,367.8 1235.7,369.6 1238,373.2C1241.1,378.1 1245.2,381.7 1249.9,384.3C1254.6,386.9 1259.7,387.9 1265.4,387.9C1269.8,387.9 1273.7,387.1 1277.6,385.3C1281.5,383.5 1284.8,381.4 1287.7,378.3C1290.5,375.2 1292.9,372.1 1294.4,368.2C1296,364.3 1297,360.2 1297,355.8C1297,351.7 1296.2,347.8 1294.7,344.2C1293.1,340.6 1291.1,337.2 1288.5,334.6C1285.9,331.8 1282.8,329.7 1279.2,327.9C1275.6,326.1 1272,325.1 1268.1,324.8C1262.1,324.3 1256.5,322.7 1251.3,320.1C1246.1,317.5 1241.5,314.1 1237.6,309.7C1233.7,305.3 1230.6,300.6 1228.3,295.2C1226,289.8 1224.9,284.1 1224.9,278.1C1224.9,270.6 1226.2,263.9 1229,257.9C1231.8,251.9 1236,246.5 1241.4,241.9C1250.2,234.4 1260.3,230.5 1271.9,230.5C1275.8,230.5 1279.4,231 1283.3,231.8C1287.2,232.8 1290.8,234.1 1294.2,236.2C1297.8,238 1300.9,240.6 1304,243.4C1307.1,246.2 1309.7,249.6 1312.3,253.5C1313.3,255.6 1314.1,257.6 1314.1,260C1314.1,261.8 1313.8,263.4 1313.1,264.7C1312.6,266.3 1311.5,267.3 1310.5,268.6C1309.5,269.6 1308.2,270.7 1306.6,271.2C1305,271.7 1303.5,272.2 1301.9,272.2C1300.3,272.2 1299.1,271.9 1297.8,271.4C1296.5,270.9 1295.5,270.4 1294.7,269.6C1293.7,268.8 1292.9,267.8 1291.9,266.8C1291.1,265.8 1290.1,264.5 1289.1,262.9C1287.3,260.3 1284.7,258.2 1281.6,256.9C1278.5,255.6 1275.1,254.8 1271.5,254.8C1268.7,254.8 1265.8,255.3 1263.2,256.6C1260.4,257.9 1258,259.4 1256,261.5C1253.9,263.6 1252.1,265.9 1250.8,268.7C1249.5,271.5 1248.7,274.7 1248.7,277.8C1248.7,280.6 1249.2,283.5 1250.3,286.1C1251.3,288.7 1252.9,291 1254.7,293.1C1256.5,295.2 1258.8,297 1261.4,298.3C1264,299.6 1266.6,300.4 1269.7,300.6C1276.7,301.1 1283.4,302.9 1289.6,306C1295.8,309.1 1301.2,313.2 1305.9,318.2C1310.6,323.1 1314.2,328.8 1317,335.3C1319.8,341.8 1321.1,348.5 1321.1,355.5C1321.1,373.1 1314.6,387.6 1301.4,398.7C1290.8,407.5 1278.9,412.2 1265.4,412.2C1261,412.2 1256.6,411.7 1251.9,410.6C1247.5,409.6 1243.1,408 1239,405.7C1234.9,403.6 1231,401 1227.4,397.7C1223.7,394.7 1220.6,391.3 1218,387.2Z" style="fill:rgb(239,80,122);fill-rule:nonzero;"/>
            </g>
            <g transform="matrix(1,0,0,1,-210.625,-173.75)">
                <path d="M1462,254.9L1417,254.9L1417,400.3C1417,403.7 1415.7,406.5 1413.4,408.8C1411.1,411.1 1408.2,412.4 1404.9,412.4C1401.6,412.4 1398.7,411.1 1396.4,408.8C1394.1,406.5 1392.8,403.6 1392.8,400.3L1392.8,254.9L1348,254.9C1344.6,254.9 1341.8,253.6 1339.5,251.3C1337.2,249 1335.9,246.1 1335.9,242.8C1335.9,239.5 1337.2,236.6 1339.5,234.3C1341.8,232 1344.7,230.7 1348,230.7L1461.6,230.7C1465,230.7 1467.8,232 1470.1,234.3C1472.4,236.6 1473.7,239.5 1473.7,242.8C1473.7,246.1 1472.4,249 1470.1,251.3C1468,253.6 1465.1,254.9 1462,254.9Z" style="fill:rgb(239,80,122);fill-rule:nonzero;"/>
            </g>
            <g transform="matrix(1,0,0,1,-210.625,-173.75)">
                <path d="M621.5,320.2L600.3,294.8C599.5,294 599.3,293 599.3,291.7C599.3,290.4 599.8,289.4 600.6,288.3C601.6,287.3 602.7,287 604,287C605.3,287 606.6,287.5 607.6,288.6L628,312.9L648.4,288.6C649.4,287.6 650.7,287 652,287C653.3,287 654.3,287.5 655.4,288.3C656.4,289.3 656.7,290.4 656.7,291.7C656.7,293 656.4,294 655.7,294.8L634.5,320.2L656,346.1C656.5,346.9 657,347.9 657,348.9C657,350.2 656.5,351.2 655.7,352.3C654.7,353.3 653.6,353.6 652.3,353.6C651,353.6 650,353.1 648.9,352L628.5,327.4L608,352C607,353 605.9,353.6 604.6,353.6C603.3,353.6 602.3,353.1 601.2,352.3C600.2,351.3 599.9,350.2 599.9,348.9C599.9,347.9 600.2,346.8 600.9,346.1L621.5,320.2Z" style="fill:rgb(239,80,122);fill-rule:nonzero;"/>
            </g>
        </g>
        <g transform="matrix(1,0,0,1,57.0749,-74.9108)">
            <g transform="matrix(1,0,0,1,-210.625,-173.75)">
                <path d="M80.1,200.8C81.9,200.8 83.5,201.3 84.5,202.6C85.5,203.9 86.3,205.4 86.3,207C86.3,208.8 85.8,210.4 84.5,211.4C83.2,212.4 81.7,213.2 80.1,213.2C58.9,213.2 48.3,202.6 48.3,181.4L48.3,136.9L41.8,136.9C40,136.9 38.4,136.4 37.4,135.1C36.1,133.8 35.6,132.3 35.6,130.7C35.6,128.9 36.1,127.3 37.4,126.3C38.7,125 40.2,124.5 41.8,124.5L48.3,124.5L48.3,92.1C48.3,90.3 48.8,88.7 50.1,87.7C51.4,86.4 52.9,85.6 54.8,85.6C56.6,85.6 58.2,86.1 59.2,87.4C60.5,88.7 61,90.2 61,92.1L61,124L73.9,124C75.7,124 77.3,124.5 78.3,125.8C79.6,127.1 80.1,128.6 80.1,130.2C80.1,132 79.6,133.6 78.3,134.6C77,135.9 75.5,136.4 73.9,136.4L61,136.4L61,181.2C61,194.4 67.4,200.8 80.1,200.8Z" style="fill:rgb(239,80,122);fill-rule:nonzero;"/>
            </g>
            <g transform="matrix(1,0,0,1,-210.625,-173.75)">
                <path d="M99.5,92.1C99.5,90.3 100,88.7 101.3,87.7C102.6,86.4 104.1,85.9 105.7,85.9C107.5,85.9 109.1,86.4 110.1,87.7C111.4,89 111.9,90.5 111.9,92.1L111.9,135.6C119.9,127.8 129.5,124 140.6,124C152,124 161.8,128.1 169.8,136.2C177.8,144.3 182,154.1 182,165.4L182,206.8C182,208.6 181.5,210.2 180.2,211.2C178.9,212.5 177.4,213 175.8,213C174,213 172.4,212.5 171.4,211.2C170.1,209.9 169.6,208.4 169.6,206.8L169.6,165.4C169.6,157.4 166.8,150.6 161.1,145C155.4,139.3 148.7,136.5 140.7,136.5C132.7,136.5 125.9,139.3 120.3,145C114.6,150.7 111.8,157.4 111.8,165.4L111.8,206.8C111.8,208.6 111.3,210.2 110,211.2C108.7,212.5 107.2,213 105.6,213C103.8,213 102.2,212.5 101.2,211.2C99.9,209.9 99.4,208.4 99.4,206.8L99.4,92.1L99.5,92.1Z" style="fill:rgb(239,80,122);fill-rule:nonzero;"/>
            </g>
            <g transform="matrix(1,0,0,1,-210.625,-173.75)">
                <path d="M264.6,191.8C266.4,191.8 268,192.3 269,193.6C270,194.9 270.8,196.4 270.8,198C270.8,199.8 270.3,201.4 269,202.7C260.7,209.9 251.1,213.6 239.8,213.6C227.4,213.6 217,209.2 208.2,200.4C199.4,191.6 195,181.3 195,168.8C195,156.3 199.4,146 208.2,137.2C217,128.4 227.3,124 239.8,124C252.2,124 262.6,128.4 271.4,137.2C280.2,146 284.6,156.3 284.6,168.8C284.6,170.6 284.1,172.2 282.8,173.2C281.5,174.2 280,175 278.4,175L208.5,175C209.8,181.2 212.6,186.6 217.3,191.3C223.5,197.5 231,200.6 239.8,200.6C247.8,200.6 254.6,198 260.5,193.1C261.8,192.3 263.1,191.8 264.6,191.8ZM271.4,162.5C270.1,156.3 267.3,150.9 262.6,146.2C256.4,140 248.9,136.9 240.1,136.9C231.3,136.9 223.8,140 217.6,146.2C212.9,150.9 210.1,156.3 208.8,162.5L271.4,162.5Z" style="fill:rgb(239,80,122);fill-rule:nonzero;"/>
            </g>
        </g>
        <g transform="matrix(1,0,0,1,-74.2622,55.7777)">
            <g transform="matrix(1,0,0,1,-210.625,-173.75)">
                <path d="M1137,460.4C1138.3,459.1 1139.6,458.6 1141.4,458.6C1143.2,458.6 1144.8,459.1 1146.1,460.4C1146.9,461.2 1147.4,462.2 1147.7,463.2L1167.1,521.2L1186.8,461.9C1187.1,461.4 1187.6,460.6 1188.1,460.1C1189.4,458.8 1190.7,458.3 1192.5,458.3C1194.3,458.3 1195.9,458.8 1196.9,460.1C1197.9,461.4 1198.7,462.9 1198.7,464.5C1198.7,465.3 1198.4,466.1 1198.2,467.1L1172.8,543.7C1172.5,544.5 1172,545.3 1171.2,546C1169.9,547.3 1168.4,547.8 1166.5,547.8C1164.7,547.8 1163.1,547.3 1162.1,546C1161.3,545.2 1160.8,544.4 1160.5,543.7L1140.8,485L1121.1,543.7C1120.8,544.5 1120.3,545.3 1119.5,546C1118.2,547.3 1116.7,547.8 1114.8,547.8C1113,547.8 1111.4,547.3 1110.4,546C1109.6,545.2 1109.1,544.4 1108.8,543.7L1083.4,467.1C1083.1,466.3 1082.9,465.5 1082.9,464.5C1082.9,462.7 1083.4,461.1 1084.7,460.1C1086,459.1 1087.5,458.3 1089.1,458.3C1090.9,458.3 1092.5,458.8 1093.8,460.1C1094.3,460.6 1094.8,461.4 1095.1,461.9L1114.8,521.2L1134.2,463.2C1135.7,462.2 1136.2,461.4 1137,460.4Z" style="fill:rgb(239,80,122);fill-rule:nonzero;"/>
            </g>
            <g transform="matrix(1,0,0,1,-210.625,-173.75)">
                <path d="M1301.3,503.4C1301.3,515.8 1296.9,526.2 1288.1,535C1279.3,543.8 1268.9,548.2 1256.5,548.2C1244.1,548.2 1233.7,543.8 1224.9,535C1216.1,526.2 1211.7,515.8 1211.7,503.4C1211.7,491 1216.1,480.6 1224.9,471.8C1233.7,463 1244,458.6 1256.5,458.6C1268.9,458.6 1279.3,463 1288.1,471.8C1296.9,480.6 1301.3,490.9 1301.3,503.4ZM1256.6,471.5C1247.8,471.5 1240.3,474.6 1234.1,480.8C1227.9,487 1224.8,494.5 1224.8,503.3C1224.8,512.1 1227.9,519.6 1234.1,525.8C1240.3,532 1247.8,535.1 1256.6,535.1C1265.4,535.1 1272.9,532 1279.1,525.8C1285.3,519.6 1288.4,512.1 1288.4,503.3C1288.4,494.5 1285.3,487 1279.1,480.8C1272.9,474.6 1265.4,471.5 1256.6,471.5Z" style="fill:rgb(239,80,122);fill-rule:nonzero;"/>
            </g>
            <g transform="matrix(1,0,0,1,-210.625,-173.75)">
                <path d="M1314,465.1C1314,463.3 1314.5,461.7 1315.8,460.7C1317.1,459.7 1318.6,458.9 1320.2,458.9C1322,458.9 1323.6,459.4 1324.6,460.7C1325.6,462 1326.4,463.5 1326.4,465.1L1326.4,472.1C1335.5,463 1346.1,458.6 1358.2,458.6C1364.4,458.6 1370.1,459.6 1375.3,461.7C1376.3,462 1377.1,462.7 1377.9,463.3C1379.2,464.6 1379.7,466.1 1379.7,468C1379.7,469.8 1379.2,471.4 1377.9,472.4C1376.6,473.7 1375.1,474.2 1373.5,474.2C1372.5,474.2 1371.4,473.9 1370.7,473.7C1366.8,472.1 1362.7,471.4 1358.3,471.4C1349.5,471.4 1342,474.5 1335.8,480.7C1329.6,486.9 1326.5,494.4 1326.5,503.2L1326.5,541.5C1326.5,543.3 1326,544.9 1324.7,545.9C1323.4,547.2 1321.9,547.7 1320.3,547.7C1318.5,547.7 1316.9,547.2 1315.9,545.9C1314.6,544.6 1314.1,543.1 1314.1,541.5L1314,465.1Z" style="fill:rgb(239,80,122);fill-rule:nonzero;"/>
            </g>
            <g transform="matrix(1,0,0,1,-210.625,-173.75)">
                <path d="M1467.2,426.5C1467.2,424.7 1467.7,423.1 1469,422.1C1470.3,420.8 1471.8,420.3 1473.4,420.3C1475,420.3 1476.8,420.8 1477.8,422.1C1479.1,423.4 1479.6,424.9 1479.6,426.5L1479.6,503.4C1479.6,515.8 1475.2,526.2 1466.4,535C1457.6,543.8 1447.2,548.2 1434.8,548.2C1422.4,548.2 1412,543.8 1403.2,535C1394.4,526.2 1390,515.9 1390,503.4C1390,490.9 1394.4,480.6 1403.2,471.8C1412,463 1422.4,458.6 1434.8,458.6C1447.2,458.6 1457.6,463 1466.4,471.8L1466.7,472.1L1466.7,426.6L1467.2,426.6L1467.2,426.5ZM1467.2,503.4C1467.2,494.6 1464.1,487.1 1457.9,480.9C1451.7,474.7 1444.2,471.6 1435.4,471.6C1426.6,471.6 1419.1,474.7 1412.9,480.9C1406.7,487.1 1403.6,494.6 1403.6,503.4C1403.6,512.2 1406.7,519.7 1412.9,525.9C1419.1,532.1 1426.6,535.2 1435.4,535.2C1444.2,535.2 1451.7,532.1 1457.9,525.9C1464.1,519.7 1467.2,512.2 1467.2,503.4Z" style="fill:rgb(239,80,122);fill-rule:nonzero;"/>
            </g>
            <g transform="matrix(1,0,0,1,-210.625,-173.75)">
                <path d="M1508.6,503.4C1503.7,501.6 1500.3,499.8 1498.5,497.7C1494.6,494.1 1492.8,489.4 1492.8,484.2C1492.8,479 1494.9,474.4 1498.8,470.5C1506.6,462.7 1516.4,458.9 1528.8,458.9C1542.3,458.9 1553.6,464.3 1563.2,474.9C1564,475.9 1564.5,477.2 1564.5,478.8C1564.5,480.6 1564,482.2 1562.7,483.2C1561.4,484.2 1559.9,485 1558.3,485C1556.5,485 1555.2,484.5 1554.2,483.4C1553.2,482.4 1552.4,481.6 1551.9,481.1C1545.7,474.9 1538.2,471.8 1529.4,471.8C1520.6,471.8 1513.6,474.6 1508.2,480.1C1506.9,481.7 1506.4,483.5 1506.4,485.5C1506.7,488.1 1508,489.6 1510.3,490.7L1549.6,503.6C1554.5,505.4 1557.9,507.2 1559.7,509.3C1563.6,512.9 1565.4,517.6 1565.4,522.8C1565.4,528 1563.3,532.6 1559.4,536.5C1551.6,544.3 1541.8,548.1 1529.4,548.1C1515.9,548.1 1504.6,542.7 1495,532.1C1494.2,531.1 1493.7,529.8 1493.7,528.2C1493.7,526.4 1494.2,524.8 1495.5,523.8C1496.8,522.8 1498.3,522 1499.9,522C1501.7,522 1503,522.5 1504,523.6C1505,524.6 1505.8,525.4 1506.3,525.9C1512.5,532.1 1520,535.2 1528.8,535.2C1537.6,535.2 1544.6,532.4 1550,526.9C1551.3,525.3 1551.8,523.5 1551.8,521.5C1551.5,518.9 1550.2,517.4 1547.9,516.3L1508.6,503.4Z" style="fill:rgb(239,80,122);fill-rule:nonzero;"/>
            </g>
        </g>
    </g>
</svg>
