<?xml version="1.0" encoding="UTF-8" standalone="no"?>
<!DOCTYPE svg PUBLIC "-//W3C//DTD SVG 1.1//EN" "http://www.w3.org/Graphics/SVG/1.1/DTD/svg11.dtd">
<svg width="100%" height="100%" viewBox="0 0 600 300" version="1.1" xmlns="http://www.w3.org/2000/svg" xmlns:xlink="http://www.w3.org/1999/xlink" xml:space="preserve" xmlns:serif="http://www.serif.com/" style="fill-rule:evenodd;clip-rule:evenodd;stroke-linejoin:round;stroke-miterlimit:2;">
    <g id="This-Meeting-Has-Points" serif:id="This Meeting Has Points">
        <g transform="matrix(1,0,0,1,-8.75,-1)">
            <g id="MEETING" transform="matrix(1.08889,0,0,0.625641,-20.68,-17.68)">
                <path d="M215.648,66.3L236.814,66.3C238.249,66.3 239.185,66.682 239.624,67.445C240.062,68.138 240.282,69.977 240.282,72.96C240.282,75.665 240.122,77.573 239.803,78.683C239.524,79.724 238.807,80.73 237.651,81.701C236.614,82.533 235.957,83.435 235.678,84.406C235.399,85.378 235.259,86.973 235.259,89.193L235.259,212.712C235.259,214.516 235.379,215.834 235.618,216.667C235.857,217.499 236.515,218.366 237.591,219.268C239.066,220.517 239.803,222.216 239.803,224.367C239.803,229.778 239.704,232.796 239.504,233.42C239.305,233.975 238.607,234.253 237.412,234.253L210.745,234.253C209.59,234.253 209.012,232.553 209.012,229.154C209.012,226.24 209.071,224.09 209.191,222.702C209.311,221.245 210.048,220.066 211.403,219.164C212.918,218.123 213.675,216.285 213.675,213.649L213.675,126.03L202.913,196.791L196.336,196.791L185.753,128.216L185.753,213.337C185.753,216.112 186.471,218.158 187.906,219.476C189.66,221.002 190.537,223.708 190.537,227.593C190.537,232.033 189.66,234.253 187.906,234.253L174.932,234.253C173.457,234.253 172.719,232.137 172.719,227.905C172.719,224.922 173.337,222.633 174.573,221.037C175.49,219.719 176.068,218.678 176.307,217.915C176.546,217.083 176.665,215.661 176.665,213.649L176.665,93.46C176.665,90.13 176.486,87.598 176.127,85.863C175.808,84.06 175.091,82.603 173.975,81.493C172.779,80.383 172.181,79.238 172.181,78.059L172.241,73.584C172.281,70.324 172.4,68.312 172.6,67.549C172.839,66.716 173.377,66.3 174.214,66.3L196.336,66.3L205.903,130.609L215.648,66.3Z" style="fill:rgb(255,176,0);fill-rule:nonzero;"/>
                <path d="M270.475,79.099L270.475,138.518L274.541,138.518C275.657,138.518 276.474,138.101 276.992,137.269C277.51,136.436 277.909,134.633 278.188,131.858C278.666,126.932 279.045,123.984 279.324,123.013C279.643,122.041 280.121,121.556 280.759,121.556C283.908,121.556 285.682,121.799 286.08,122.284C286.519,122.7 286.738,124.435 286.738,127.487L286.738,162.139C286.738,164.29 286.539,165.712 286.14,166.406C285.742,167.03 284.506,167.342 282.433,167.342C281.078,167.342 280.161,166.926 279.683,166.093C279.244,165.192 278.806,162.729 278.367,158.705C277.929,155.028 277.491,152.774 277.052,151.941C276.654,151.109 276.016,150.693 275.139,150.693L270.475,150.693L270.475,222.39L273.644,222.39C275.597,222.39 276.933,221.453 277.65,219.58C278.407,217.638 279.603,212.123 281.237,203.035C281.915,199.219 282.613,196.722 283.33,195.542C284.047,194.363 285.303,193.773 287.097,193.773C289.568,193.773 290.804,195.161 290.804,197.936C290.804,198.768 290.724,199.982 290.565,201.578L288.352,225.2C287.954,229.501 287.615,232.102 287.336,233.004C287.097,233.837 286.3,234.253 284.944,234.253L245.065,234.253C244.068,234.253 243.43,233.871 243.151,233.108C242.872,232.276 242.733,229.952 242.733,226.136C242.733,223.708 243.45,221.939 244.885,220.829C247.078,219.233 248.174,217.048 248.174,214.273L248.174,84.51C248.134,83.192 247.237,81.874 245.483,80.556C244.287,79.654 243.57,78.787 243.331,77.955C243.132,77.122 243.032,75.11 243.032,71.919C243.032,69.214 243.151,67.618 243.391,67.132C243.63,66.577 244.327,66.3 245.483,66.3L283.629,66.3C284.586,66.3 285.283,66.577 285.722,67.132C286.16,67.687 286.499,69.006 286.738,71.087L289.787,97.934C289.947,99.322 290.026,100.258 290.026,100.744C290.026,102.617 289.07,103.553 287.157,103.553C285.004,103.553 283.569,103.137 282.852,102.305C282.134,101.403 281.437,99.218 280.759,95.749C279.523,89.505 278.447,85.17 277.53,82.741C276.654,80.313 275.657,79.099 274.541,79.099L270.475,79.099Z" style="fill:rgb(255,176,0);fill-rule:nonzero;"/>
                <path d="M321.476,79.099L321.476,138.518L325.541,138.518C326.657,138.518 327.475,138.101 327.993,137.269C328.511,136.436 328.91,134.633 329.189,131.858C329.667,126.932 330.046,123.984 330.325,123.013C330.643,122.041 331.122,121.556 331.76,121.556C334.908,121.556 336.682,121.799 337.081,122.284C337.519,122.7 337.738,124.435 337.738,127.487L337.738,162.139C337.738,164.29 337.539,165.712 337.141,166.406C336.742,167.03 335.506,167.342 333.434,167.342C332.078,167.342 331.162,166.926 330.683,166.093C330.245,165.192 329.806,162.729 329.368,158.705C328.929,155.028 328.491,152.774 328.053,151.941C327.654,151.109 327.016,150.693 326.139,150.693L321.476,150.693L321.476,222.39L324.645,222.39C326.598,222.39 327.933,221.453 328.65,219.58C329.408,217.638 330.604,212.123 332.238,203.035C332.915,199.219 333.613,196.722 334.33,195.542C335.048,194.363 336.304,193.773 338.097,193.773C340.569,193.773 341.804,195.161 341.804,197.936C341.804,198.768 341.724,199.982 341.565,201.578L339.353,225.2C338.954,229.501 338.615,232.102 338.336,233.004C338.097,233.837 337.3,234.253 335.945,234.253L296.065,234.253C295.069,234.253 294.431,233.871 294.152,233.108C293.873,232.276 293.733,229.952 293.733,226.136C293.733,223.708 294.451,221.939 295.886,220.829C298.078,219.233 299.174,217.048 299.174,214.273L299.174,84.51C299.134,83.192 298.238,81.874 296.484,80.556C295.288,79.654 294.57,78.787 294.331,77.955C294.132,77.122 294.032,75.11 294.032,71.919C294.032,69.214 294.152,67.618 294.391,67.132C294.63,66.577 295.328,66.3 296.484,66.3L334.629,66.3C335.586,66.3 336.284,66.577 336.722,67.132C337.161,67.687 337.499,69.006 337.738,71.087L340.788,97.934C340.947,99.322 341.027,100.258 341.027,100.744C341.027,102.617 340.07,103.553 338.157,103.553C336.005,103.553 334.57,103.137 333.852,102.305C333.135,101.403 332.437,99.218 331.76,95.749C330.524,89.505 329.448,85.17 328.531,82.741C327.654,80.313 326.657,79.099 325.541,79.099L321.476,79.099Z" style="fill:rgb(255,176,0);fill-rule:nonzero;"/>
                <path d="M361.056,77.955L358.366,77.955C357.489,77.955 356.771,78.995 356.213,81.077C355.655,83.088 355.077,88.604 354.48,97.622C354.201,101.576 353.762,104.074 353.164,105.114C352.566,106.086 351.37,106.571 349.577,106.571C347.863,106.571 346.747,106.224 346.229,105.531C345.75,104.767 345.511,103.311 345.511,101.16C345.511,99.911 345.531,98.663 345.571,97.414L346.288,73.168C346.368,70.324 346.647,68.485 347.125,67.653C347.604,66.751 348.8,66.3 350.713,66.3L394.539,66.3C395.814,66.3 396.591,66.577 396.87,67.132C397.149,67.687 397.369,69.699 397.528,73.168L398.544,94.604C398.624,96.269 398.664,97.969 398.664,99.703C398.664,101.784 398.505,103.38 398.186,104.49C397.907,105.6 396.97,106.155 395.376,106.155C393.343,106.155 392.027,105.808 391.429,105.114C390.871,104.421 390.413,102.235 390.054,98.559C389.417,92.523 388.719,87.598 387.962,83.782C387.204,79.897 386.268,77.955 385.152,77.955L383.358,77.955L383.358,211.568C383.358,215.383 384.315,218.019 386.228,219.476C387.025,220.101 387.543,220.864 387.782,221.766C388.061,222.598 388.201,224.402 388.201,227.177C388.201,230.715 388.021,232.796 387.663,233.42C387.304,233.975 386.487,234.253 385.211,234.253L358.904,234.253C357.868,234.253 357.19,233.906 356.871,233.212C356.592,232.518 356.453,230.541 356.453,227.281C356.453,223.396 357.07,221.037 358.306,220.205C359.502,219.372 360.259,218.574 360.578,217.811C360.897,216.979 361.056,215.591 361.056,213.649L361.056,77.955Z" style="fill:rgb(255,176,0);fill-rule:nonzero;"/>
                <path d="M402.491,75.041L402.491,69.526C402.491,67.375 403.148,66.3 404.464,66.3L433.103,66.3C434.179,66.3 434.877,66.543 435.195,67.028C435.514,67.514 435.674,68.971 435.674,71.399C435.674,75.076 435.554,77.365 435.315,78.267C435.116,79.169 434.637,79.724 433.88,79.932C431.409,80.695 430.173,83.435 430.173,88.153L430.173,213.233C430.173,215.869 431.07,217.95 432.864,219.476C434.02,220.447 434.717,221.315 434.956,222.078C435.195,222.841 435.315,224.159 435.315,226.032L435.315,230.09C435.315,232.31 435.195,233.559 434.956,233.837C434.717,234.114 434.099,234.253 433.103,234.253L403.926,234.253C402.809,234.253 402.251,233.49 402.251,231.963C402.251,226.969 402.351,223.916 402.55,222.806C402.75,221.696 403.447,220.829 404.643,220.205C406.795,219.164 407.872,217.187 407.872,214.273L407.872,90.754C407.872,87.84 407.672,85.655 407.274,84.198C406.875,82.672 405.998,81.423 404.643,80.452C403.646,79.689 403.029,79.03 402.79,78.475C402.59,77.851 402.491,76.706 402.491,75.041Z" style="fill:rgb(255,176,0);fill-rule:nonzero;"/>
                <path d="M453.073,139.038L453.073,212.504C453.073,215.557 454.069,217.846 456.062,219.372C457.736,220.69 458.573,222.563 458.573,224.991C458.573,230.056 458.493,232.865 458.334,233.42C458.214,233.975 457.636,234.253 456.6,234.253L440.696,234.253C439.899,234.253 439.401,233.732 439.201,232.692C439.002,231.582 438.902,228.911 438.902,224.679C438.902,222.737 439.44,221.384 440.517,220.621C442.589,219.025 443.626,217.222 443.626,215.21L443.626,92.211C443.626,89.228 443.466,87.008 443.147,85.551C442.829,84.025 442.111,82.776 440.995,81.805C439.999,80.972 439.321,80.071 438.962,79.099C438.643,78.128 438.484,76.29 438.484,73.584C438.484,68.728 439.221,66.3 440.696,66.3L457.318,66.3L477.407,147.363L477.407,87.632C477.407,84.302 476.43,81.944 474.477,80.556C473.321,79.654 472.564,78.648 472.205,77.538C471.886,76.359 471.727,74.104 471.727,70.775C471.727,68.693 471.846,67.445 472.086,67.028C472.325,66.543 472.783,66.3 473.461,66.3L489.963,66.3C490.879,66.508 491.338,68.797 491.338,73.168C491.338,75.735 491.238,77.365 491.039,78.059C490.879,78.753 490.481,79.342 489.843,79.828C488.448,80.799 487.571,81.736 487.212,82.637C486.854,83.539 486.674,84.788 486.674,86.384L486.674,234.253L476.51,234.253L453.073,139.038Z" style="fill:rgb(255,176,0);fill-rule:nonzero;"/>
                <path d="M537.137,224.055C533.549,232.102 529.125,236.126 523.863,236.126C515.652,236.126 508.936,227.732 503.714,210.943C498.493,194.155 495.882,174.245 495.882,151.213C495.882,125.129 498.831,104.004 504.731,87.84C510.63,71.607 517.605,63.49 525.657,63.49C529.523,63.49 532.951,65.225 535.941,68.693C536.897,69.734 537.635,70.254 538.153,70.254C538.87,70.254 539.488,69.075 540.007,66.716C540.485,64.566 541.322,63.49 542.518,63.49L543.235,63.49L545.148,63.699C546.424,64.045 547.221,65.606 547.54,68.381L551.367,101.472C551.765,104.872 551.964,107.161 551.964,108.34C551.964,110.768 550.908,111.982 548.796,111.982C546.723,111.982 545.388,111.462 544.79,110.421C544.192,109.381 542.996,105.739 541.202,99.495C538.811,91.032 536.698,85.17 534.865,81.909C533.071,78.579 531.138,76.914 529.065,76.914C523.604,76.914 520.874,84.476 520.874,99.599L520.874,211.36C520.874,219.546 522.369,223.639 525.358,223.639C528.627,223.639 530.261,219.546 530.261,211.36L530.261,156.936C530.261,153.398 529.563,151.109 528.168,150.068C526.654,148.958 525.896,146.704 525.896,143.304C525.896,139.628 526.095,137.442 526.494,136.749C526.893,135.985 527.75,135.604 529.065,135.604L554.356,135.604C555.592,135.604 556.409,135.985 556.807,136.749C557.246,137.512 557.465,139.246 557.465,141.952C557.465,144.796 557.326,146.704 557.047,147.675C556.807,148.646 556.19,149.444 555.193,150.068C553.758,150.97 553.041,152.878 553.041,155.792L553.041,226.552C553.041,230.784 552.881,233.42 552.562,234.461C552.243,235.571 551.406,236.126 550.051,236.126C548.815,236.126 547.919,235.952 547.361,235.606C546.842,235.328 546.105,234.391 545.148,232.796C542.478,228.287 539.807,225.373 537.137,224.055Z" style="fill:rgb(255,176,0);fill-rule:nonzero;"/>
            </g>
            <g id="POINTS" transform="matrix(1.08889,0,0,0.625641,-21.305,115.695)">
                <path d="M204.326,197.78L204.326,238.929C204.326,243.707 205.509,246.837 207.876,248.32C209.012,249.062 209.793,250.092 210.219,251.41C210.692,252.645 210.929,254.993 210.929,258.453C210.929,261.748 210.668,263.808 210.148,264.632C209.627,265.373 208.586,265.744 207.024,265.744L174.861,265.744C173.157,265.744 172.305,263.149 172.305,257.959C172.305,253.84 172.423,251.327 172.66,250.421C172.896,249.432 173.701,248.567 175.074,247.826C176.304,247.167 177.062,246.467 177.346,245.725C177.677,244.902 177.843,243.542 177.843,241.648L177.843,92.374C177.843,88.831 176.588,85.989 174.08,83.847C172.754,82.611 172.068,80.717 172.021,78.163L171.95,72.355C171.95,69.884 172.115,68.277 172.447,67.536C172.825,66.712 173.63,66.3 174.861,66.3L211.213,66.3C221.673,66.3 230.004,72.149 236.205,83.847C242.453,95.463 245.577,111.568 245.577,132.163C245.577,143.779 244.606,154.118 242.666,163.18C240.772,172.242 238.358,178.915 235.424,183.198C232.536,187.482 229.176,190.983 225.342,193.702C221.555,196.42 217.508,197.78 213.201,197.78L204.326,197.78ZM204.326,80.016L204.326,183.569L209.296,183.569C211,183.569 212.514,181.963 213.84,178.75C215.212,175.455 215.899,170.017 215.899,162.438L215.899,100.776C215.899,86.936 213.248,80.016 207.947,80.016L204.326,80.016Z" style="fill:rgb(255,176,0);fill-rule:nonzero;"/>
                <path d="M287.822,62.964C294.78,62.964 300.791,67.041 305.856,75.197C310.968,83.27 315.133,94.804 318.352,109.797C321.57,124.79 323.18,144.026 323.18,167.505C323.18,195.679 320.032,219.487 313.737,238.929C307.489,258.288 298.661,267.968 287.254,267.968C276.414,267.968 267.871,258.494 261.623,239.547C255.375,220.599 252.251,196.132 252.251,166.146C252.251,135.417 255.446,110.538 261.836,91.509C268.273,72.479 276.935,62.964 287.822,62.964ZM293.431,92.25C293.431,81.952 291.514,76.804 287.68,76.804C286.07,76.804 284.698,78.08 283.562,80.634C282.426,83.188 281.858,86.319 281.858,90.026L281.858,239.176C281.858,244.201 282.426,248.032 283.562,250.668C284.698,253.222 286.047,254.499 287.609,254.499C289.36,254.499 290.756,253.057 291.798,250.174C292.886,247.291 293.431,244.078 293.431,240.535L293.431,92.25Z" style="fill:rgb(255,176,0);fill-rule:nonzero;"/>
                <path d="M329.215,76.68L329.215,70.131C329.215,67.577 329.996,66.3 331.558,66.3L365.567,66.3C366.845,66.3 367.673,66.588 368.052,67.165C368.43,67.742 368.62,69.472 368.62,72.355C368.62,76.721 368.478,79.44 368.194,80.511C367.957,81.582 367.389,82.241 366.49,82.488C363.555,83.394 362.088,86.648 362.088,92.25L362.088,240.783C362.088,243.913 363.153,246.384 365.283,248.197C366.655,249.35 367.484,250.38 367.768,251.286C368.052,252.192 368.194,253.757 368.194,255.982L368.194,260.801C368.194,263.437 368.052,264.92 367.768,265.25C367.484,265.579 366.75,265.744 365.567,265.744L330.919,265.744C329.593,265.744 328.931,264.838 328.931,263.025C328.931,257.094 329.049,253.469 329.286,252.151C329.522,250.833 330.351,249.803 331.771,249.062C334.327,247.826 335.605,245.478 335.605,242.018L335.605,95.339C335.605,91.879 335.368,89.284 334.895,87.554C334.421,85.742 333.38,84.259 331.771,83.106C330.587,82.199 329.854,81.417 329.57,80.758C329.333,80.016 329.215,78.657 329.215,76.68Z" style="fill:rgb(255,176,0);fill-rule:nonzero;"/>
                <path d="M389.281,152.676L389.281,239.918C389.281,243.542 390.464,246.261 392.831,248.073C394.819,249.638 395.813,251.863 395.813,254.746C395.813,260.76 395.718,264.096 395.529,264.755C395.387,265.414 394.7,265.744 393.47,265.744L374.584,265.744C373.637,265.744 373.045,265.126 372.809,263.89C372.572,262.572 372.454,259.401 372.454,254.375C372.454,252.069 373.093,250.462 374.371,249.556C376.832,247.661 378.063,245.519 378.063,243.13L378.063,97.069C378.063,93.527 377.873,90.891 377.495,89.161C377.116,87.348 376.264,85.865 374.939,84.712C373.755,83.724 372.951,82.653 372.525,81.499C372.146,80.346 371.957,78.163 371.957,74.95C371.957,69.183 372.832,66.3 374.584,66.3L394.322,66.3L418.178,162.562L418.178,91.632C418.178,87.678 417.018,84.877 414.699,83.229C413.326,82.158 412.427,80.964 412.001,79.646C411.622,78.245 411.433,75.568 411.433,71.614C411.433,69.142 411.575,67.659 411.859,67.165C412.143,66.588 412.687,66.3 413.492,66.3L433.088,66.3C434.177,66.547 434.721,69.266 434.721,74.456C434.721,77.504 434.603,79.44 434.366,80.264C434.177,81.087 433.703,81.788 432.946,82.364C431.289,83.518 430.248,84.63 429.822,85.701C429.396,86.772 429.183,88.254 429.183,90.149L429.183,265.744L417.113,265.744L389.281,152.676Z" style="fill:rgb(255,176,0);fill-rule:nonzero;"/>
                <path d="M457.299,80.14L454.104,80.14C453.063,80.14 452.211,81.376 451.548,83.847C450.885,86.236 450.199,92.785 449.489,103.495C449.158,108.191 448.637,111.156 447.927,112.392C447.217,113.545 445.797,114.122 443.667,114.122C441.632,114.122 440.306,113.71 439.691,112.886C439.123,111.98 438.839,110.25 438.839,107.696C438.839,106.213 438.863,104.731 438.91,103.248L439.762,74.456C439.857,71.078 440.188,68.895 440.756,67.906C441.324,66.835 442.744,66.3 445.016,66.3L497.059,66.3C498.574,66.3 499.497,66.63 499.828,67.289C500.159,67.948 500.42,70.337 500.609,74.456L501.816,99.911C501.911,101.889 501.958,103.907 501.958,105.966C501.958,108.438 501.769,110.333 501.39,111.651C501.059,112.969 499.946,113.628 498.053,113.628C495.639,113.628 494.077,113.216 493.367,112.392C492.704,111.568 492.16,108.973 491.734,104.607C490.977,97.44 490.148,91.591 489.249,87.06C488.35,82.447 487.237,80.14 485.912,80.14L483.782,80.14L483.782,238.805C483.782,243.336 484.918,246.467 487.19,248.197C488.137,248.938 488.752,249.844 489.036,250.915C489.367,251.904 489.533,254.046 489.533,257.341C489.533,261.542 489.32,264.014 488.894,264.755C488.468,265.414 487.498,265.744 485.983,265.744L454.743,265.744C453.512,265.744 452.708,265.332 452.329,264.508C451.998,263.684 451.832,261.337 451.832,257.465C451.832,252.851 452.566,250.05 454.033,249.062C455.453,248.073 456.352,247.126 456.731,246.22C457.11,245.231 457.299,243.583 457.299,241.277L457.299,80.14Z" style="fill:rgb(255,176,0);fill-rule:nonzero;"/>
                <path d="M539.73,71.614C540.014,71.202 540.819,69.348 542.144,66.053C542.996,63.911 544.132,62.84 545.552,62.84C545.883,62.84 547.209,63.128 549.528,63.705C550.001,64.529 550.356,66.259 550.593,68.895L554.427,110.786C554.616,113.01 554.711,114.328 554.711,114.74C554.711,116.305 554.451,117.335 553.93,117.829C553.457,118.323 552.155,118.571 550.025,118.571C547.611,118.571 546.049,118.035 545.339,116.964C544.629,115.893 543.28,111.445 541.292,103.618C537.079,87.06 533.316,78.781 530.003,78.781C527.636,78.781 526.453,81.664 526.453,87.431C526.453,94.598 530.027,108.685 537.174,129.692C545.363,153.912 550.688,171.459 553.149,182.333C555.658,193.125 556.912,205.235 556.912,218.663C556.912,234.563 554.758,246.755 550.451,255.24C546.144,263.726 541.292,267.968 535.896,267.968C532.488,267.968 529.198,266.279 526.027,262.902C524.796,261.584 523.826,260.925 523.116,260.925C522.501,260.925 522.004,261.707 521.625,263.272C520.868,266.403 519.022,267.968 516.087,267.968C514.951,267.968 514.17,267.639 513.744,266.98C513.365,266.403 513.081,264.797 512.892,262.16L509.342,221.011C508.869,215.739 508.632,212.938 508.632,212.608C508.632,210.219 509.886,209.025 512.395,209.025C515.803,209.025 517.815,209.807 518.43,211.373C519.045,212.938 519.921,216.521 521.057,222.123C525.222,242.142 529.411,252.151 533.624,252.151C535.186,252.151 536.44,251.162 537.387,249.185C538.381,247.208 538.878,244.737 538.878,241.771C538.878,236.581 537.789,230.444 535.612,223.359C533.482,216.192 530.855,208.242 527.731,199.51C520.252,178.585 514.951,161.903 511.827,149.463C508.75,136.942 507.212,124.173 507.212,111.156C507.212,96.493 509.058,84.794 512.75,76.062C516.442,67.33 520.962,62.964 526.311,62.964C530.003,62.964 534.476,65.847 539.73,71.614Z" style="fill:rgb(255,176,0);fill-rule:nonzero;"/>
            </g>
        </g>
        <g id="THIS" transform="matrix(0.318564,0,0,0.333974,8.10483,28.9075)">
            <path d="M43.456,69.456L116.148,69.456L116.148,92.994L92.185,92.994L92.185,194.91L66.793,194.91L66.793,92.994L43.456,92.994L43.456,69.456Z" style="fill:rgb(241,236,211);fill-rule:nonzero;"/>
            <path d="M133.225,69.456L158.618,69.456L158.618,116.789L202.608,116.789L202.608,69.456L227.911,69.456L227.911,194.91L202.608,194.91L202.608,139.901L158.618,139.901L158.618,194.91L133.225,194.91L133.225,69.456Z" style="fill:rgb(241,236,211);fill-rule:nonzero;"/>
            <rect x="256.076" y="69.456" width="24.856" height="125.455" style="fill:rgb(241,236,211);fill-rule:nonzero;"/>
            <path d="M378.032,86.513L359.524,102.12C353.027,93.478 346.411,89.156 339.675,89.156C336.397,89.156 333.714,90.009 331.628,91.715C329.542,93.364 328.499,95.24 328.499,97.344C328.499,99.448 329.244,101.438 330.734,103.314C332.761,105.815 338.87,111.188 349.063,119.433C358.6,127.051 364.382,131.856 366.409,133.846C371.475,138.736 375.052,143.426 377.138,147.918C379.284,152.353 380.357,157.214 380.357,162.502C380.357,172.793 376.631,181.293 369.181,188.002C361.73,194.711 352.014,198.066 340.033,198.066C330.674,198.066 322.508,195.877 315.534,191.499C308.62,187.121 302.689,180.241 297.741,170.86L318.753,158.749C325.071,169.836 332.343,175.38 340.569,175.38C344.861,175.38 348.467,174.186 351.388,171.798C354.309,169.41 355.769,166.652 355.769,163.525C355.769,160.682 354.666,157.839 352.461,154.997C350.255,152.154 345.397,147.804 337.887,141.948C323.581,130.804 314.342,122.219 310.169,116.192C305.997,110.108 303.911,104.053 303.911,98.026C303.911,89.327 307.368,81.879 314.282,75.681C321.256,69.427 329.84,66.3 340.033,66.3C346.589,66.3 352.818,67.75 358.719,70.65C364.68,73.549 371.118,78.837 378.032,86.513Z" style="fill:rgb(241,236,211);fill-rule:nonzero;"/>
        </g>
        <g id="HAS" transform="matrix(0.259032,0,0,0.292308,10.0511,171.795)">
            <path d="M59.763,69.905L90.992,69.905L90.992,123.986L145.092,123.986L145.092,69.905L176.211,69.905L176.211,213.243L145.092,213.243L145.092,150.393L90.992,150.393L90.992,213.243L59.763,213.243L59.763,69.905Z" style="fill:rgb(241,236,211);fill-rule:nonzero;"/>
            <path d="M262.309,69.905L293.538,69.905L355.775,213.243L323.777,213.243L311.132,183.718L245.156,183.718L231.96,213.243L199.962,213.243L262.309,69.905ZM278.144,107.908L256.591,157.116L299.586,157.116L278.144,107.908Z" style="fill:rgb(241,236,211);fill-rule:nonzero;"/>
            <path d="M464.416,89.394L441.654,107.226C433.663,97.352 425.526,92.414 417.243,92.414C413.211,92.414 409.912,93.389 407.346,95.338C404.781,97.222 403.498,99.365 403.498,101.769C403.498,104.172 404.414,106.446 406.247,108.59C408.739,111.448 416.253,117.587 428.789,127.006C440.518,135.711 447.628,141.2 450.121,143.474C456.352,149.061 460.75,154.42 463.316,159.552C465.955,164.619 467.275,170.173 467.275,176.215C467.275,187.973 462.693,197.684 453.53,205.35C444.366,213.015 432.417,216.848 417.683,216.848C406.173,216.848 396.13,214.347 387.554,209.345C379.05,204.343 371.756,196.483 365.672,185.764L391.512,171.927C399.283,184.595 408.226,190.928 418.342,190.928C423.62,190.928 428.055,189.564 431.648,186.836C435.24,184.107 437.036,180.957 437.036,177.384C437.036,174.136 435.679,170.888 432.967,167.64C430.255,164.392 424.28,159.422 415.044,152.731C397.45,139.999 386.087,130.19 380.956,123.304C375.825,116.353 373.259,109.434 373.259,102.548C373.259,92.609 377.511,84.099 386.014,77.019C394.591,69.873 405.147,66.3 417.683,66.3C425.746,66.3 433.407,67.957 440.664,71.27C447.995,74.583 455.912,80.624 464.416,89.394Z" style="fill:rgb(241,236,211);fill-rule:nonzero;"/>
        </g>
    </g>
</svg>
