<?xml version="1.0" encoding="UTF-8" standalone="no"?>
<!DOCTYPE svg PUBLIC "-//W3C//DTD SVG 1.1//EN" "http://www.w3.org/Graphics/SVG/1.1/DTD/svg11.dtd">
<svg width="100%" height="100%" viewBox="0 0 600 300" version="1.1" xmlns="http://www.w3.org/2000/svg" xmlns:xlink="http://www.w3.org/1999/xlink" xml:space="preserve" xmlns:serif="http://www.serif.com/" style="fill-rule:evenodd;clip-rule:evenodd;stroke-linejoin:round;stroke-miterlimit:2;">
    <g id="Verifiable-Win" serif:id="Verifiable Win" transform="matrix(0.424817,0,0,0.424817,-10.6198,51.0625)">
        <g transform="matrix(1.23173,0,0,1.23173,-343.816,-33.8616)">
            <g transform="matrix(0.135222,0,0,-0.135222,990.685,442.333)">
                <path d="M1450,2904C1352,2886 517,2674 485,2658C429,2630 383,2584 352,2525L325,2475L322,1904C319,1279 323,1212 375,1055C492,704 813,386 1271,165C1474,68 1533,70 1755,179C2228,412 2544,746 2647,1125L2675,1225L2675,1850C2675,2430 2674,2478 2657,2513C2631,2570 2568,2633 2513,2658C2455,2685 1607,2896 1530,2903C1500,2906 1464,2906 1450,2904ZM1966,2549L2411,2437L2406,1851C2400,1220 2400,1223 2344,1081C2248,837 1976,582 1619,400L1500,339L1383,399C953,619 688,899 615,1212C599,1276 597,1354 596,1862L595,2439L1030,2548C1269,2609 1477,2659 1493,2659C1508,2660 1721,2610 1966,2549Z" style="fill:rgb(0,255,20);fill-rule:nonzero;"/>
            </g>
            <g transform="matrix(0.135222,0,0,-0.135222,990.685,442.333)">
                <path d="M1133,2313L790,2227L790,1801C791,1329 796,1266 849,1153C940,960 1134,781 1402,645L1498,596L1594,643C1744,718 1865,804 1975,914C2111,1051 2178,1170 2198,1310C2203,1346 2208,1567 2209,1801L2211,2227L1858,2313C1664,2361 1498,2400 1490,2399C1482,2398 1321,2359 1133,2313ZM1955,1885C2004,1837 2000,1831 1709,1457C1558,1262 1427,1104 1413,1097C1393,1088 1383,1089 1362,1101C1337,1114 1069,1469 1034,1533C1026,1549 1020,1573 1022,1587C1026,1622 1071,1655 1104,1646C1117,1643 1188,1588 1261,1525L1394,1411L1411,1438C1437,1480 1841,1877 1875,1894C1916,1915 1927,1914 1955,1885Z" style="fill:rgb(0,255,20);fill-rule:nonzero;"/>
            </g>
        </g>
        <g transform="matrix(1.02815,0,0,1.02815,498.275,-110.977)">
            <path d="M154.48,342L186.64,340.88L186.64,347.92L175.44,350.64L177.68,348.72L155.76,426.32L141.68,426.32L120.88,350.8L123.44,350.8L101.36,426.32L87.28,426.32L66.32,349.04L68.24,350.96L57.2,348.88L57.2,342L91.76,340.88L91.76,347.92L77.2,350.48L78.64,348.88L96.4,418.48L94.32,418.48L115.76,341.84L129.68,340.88L150.32,418.96L148.24,418.96L166.96,349.2L168.4,350.96L154.48,348.88L154.48,342Z" style="fill:rgb(208,215,204);fill-rule:nonzero;"/>
            <path d="M218.561,417.84L217.121,416.08L231.041,419.12L231.041,426L193.281,426L193.281,419.12L207.201,416.08L205.761,417.84L205.761,350.32L207.041,351.76L193.281,348.88L193.281,342L218.561,341.04L218.561,417.84ZM211.201,323.76C208.748,323.76 206.721,322.96 205.121,321.36C203.521,319.76 202.721,317.573 202.721,314.8C202.721,311.92 203.521,309.733 205.121,308.24C206.828,306.64 208.908,305.84 211.361,305.84C213.921,305.84 216.001,306.587 217.601,308.08C219.201,309.573 220.001,311.813 220.001,314.8C220.001,317.68 219.148,319.92 217.441,321.52C215.734,323.013 213.654,323.76 211.201,323.76Z" style="fill:rgb(208,215,204);fill-rule:nonzero;"/>
            <path d="M243.442,426L243.442,419.12L257.842,415.92L255.922,418.32L255.922,349.52L257.842,351.92L243.442,348.88L243.442,342L265.842,340.88L267.602,356.56L265.842,355.92C271.175,350.48 276.722,346.48 282.482,343.92C288.348,341.36 293.895,340.08 299.122,340.08C306.162,340.08 311.975,342.267 316.562,346.64C321.255,350.907 323.548,357.573 323.442,366.64L323.442,418.32L321.842,416.08L335.922,419.12L335.922,426L298.642,426L298.642,419.12L312.562,416.08L310.642,418.48L310.642,369.36C310.642,362.747 309.148,357.893 306.162,354.8C303.175,351.707 299.175,350.16 294.162,350.16C290.215,350.16 285.895,351.227 281.202,353.36C276.615,355.493 272.082,358.8 267.602,363.28L268.722,360.72L268.722,418.48L267.122,416.24L280.722,419.12L280.722,426L243.442,426Z" style="fill:rgb(208,215,204);fill-rule:nonzero;"/>
        </g>
        <g transform="matrix(1.02815,0,0,1.02815,30.0442,-251.447)">
            <path d="M105.68,426.16L70.8,322.32L74.32,324.88L58.8,322L58.8,315.12L101.04,314.32L101.04,321.2L83.6,324.56L85.2,321.2L114.64,414.48L112.56,414.48L144.08,322L145.36,324.72L128.24,322L128.24,315.12L168.24,314.32L168.24,321.2L152.72,324.56L156.08,322L119.44,426.16L105.68,426.16Z" style="fill:rgb(208,215,204);fill-rule:nonzero;"/>
            <path d="M205.121,427.44C197.974,427.44 191.628,425.84 186.081,422.64C180.641,419.333 176.374,414.533 173.281,408.24C170.188,401.947 168.641,394.267 168.641,385.2C168.641,375.92 170.241,367.92 173.441,361.2C176.641,354.48 181.174,349.307 187.041,345.68C192.908,341.947 199.788,340.08 207.681,340.08C215.148,340.08 221.281,341.68 226.081,344.88C230.988,347.973 234.614,352.293 236.961,357.84C239.414,363.387 240.641,369.733 240.641,376.88C240.641,378.053 240.588,379.227 240.481,380.4C240.374,381.573 240.214,383.013 240.001,384.72L178.401,384.72L178.401,375.6L228.801,375.6L227.361,376.56C227.468,371.76 226.881,367.333 225.601,363.28C224.321,359.227 222.134,355.973 219.041,353.52C215.948,351.067 211.841,349.84 206.721,349.84C201.281,349.84 196.694,351.28 192.961,354.16C189.228,357.04 186.454,360.987 184.641,366C182.828,371.013 181.921,376.827 181.921,383.44C181.921,390.48 182.934,396.56 184.961,401.68C186.988,406.693 189.921,410.587 193.761,413.36C197.708,416.133 202.508,417.52 208.161,417.52C212.108,417.52 216.428,416.773 221.121,415.28C225.814,413.68 230.668,411.28 235.681,408.08L240.321,415.28C234.348,419.333 228.374,422.373 222.401,424.4C216.428,426.427 210.668,427.44 205.121,427.44Z" style="fill:rgb(208,215,204);fill-rule:nonzero;"/>
            <path d="M257.042,426L257.042,419.12L271.122,416.08L269.522,418.48L269.522,349.52L271.282,351.92L257.042,348.88L257.042,342L279.442,340.88L281.202,356.56L279.442,355.92C284.242,350.907 288.935,347.013 293.522,344.24C298.108,341.467 303.122,340.08 308.562,340.08C311.975,340.08 315.548,340.613 319.282,341.68L318.322,365.04L310.322,365.04L308.402,348.24L309.842,351.12C309.095,350.907 308.295,350.747 307.442,350.64C306.588,350.533 305.735,350.48 304.882,350.48C300.615,350.48 296.455,351.76 292.402,354.32C288.455,356.88 284.668,360.187 281.042,364.24L282.322,360.4L282.322,418.48L280.402,416.08L297.842,419.12L297.842,426L257.042,426Z" style="fill:rgb(208,215,204);fill-rule:nonzero;"/>
            <path d="M353.443,417.84L352.003,416.08L365.923,419.12L365.923,426L328.163,426L328.163,419.12L342.083,416.08L340.643,417.84L340.643,350.32L341.923,351.76L328.163,348.88L328.163,342L353.443,341.04L353.443,417.84ZM346.083,323.76C343.629,323.76 341.603,322.96 340.003,321.36C338.403,319.76 337.603,317.573 337.603,314.8C337.603,311.92 338.403,309.733 340.003,308.24C341.709,306.64 343.789,305.84 346.243,305.84C348.803,305.84 350.883,306.587 352.483,308.08C354.083,309.573 354.883,311.813 354.883,314.8C354.883,317.68 354.029,319.92 352.323,321.52C350.616,323.013 348.536,323.76 346.083,323.76Z" style="fill:rgb(208,215,204);fill-rule:nonzero;"/>
            <path d="M378.484,426L378.484,419.12L392.564,416.08L390.964,418L390.964,349.36L392.564,351.12L378.164,351.12L378.164,344.08L392.884,342L390.964,344.4L390.964,330.96C390.964,324.347 392.084,318.907 394.324,314.64C396.67,310.267 399.87,307.013 403.924,304.88C407.977,302.747 412.724,301.68 418.164,301.68C420.297,301.68 422.484,301.84 424.724,302.16C426.964,302.373 429.204,302.8 431.444,303.44L429.524,312.56C427.817,312.027 426.164,311.707 424.564,311.6C422.964,311.387 421.417,311.28 419.924,311.28C414.91,311.28 410.964,312.773 408.084,315.76C405.204,318.747 403.764,323.44 403.764,329.84L403.764,344.4L401.684,342.16L426.644,342.16L426.324,351.12L402.164,351.12L403.764,349.36L403.764,417.84L402.164,416.08L418.964,419.12L418.964,426L378.484,426Z" style="fill:rgb(208,215,204);fill-rule:nonzero;"/>
            <path d="M463.364,417.84L461.924,416.08L475.844,419.12L475.844,426L438.084,426L438.084,419.12L452.004,416.08L450.564,417.84L450.564,350.32L451.844,351.76L438.084,348.88L438.084,342L463.364,341.04L463.364,417.84ZM456.004,323.76C453.551,323.76 451.524,322.96 449.924,321.36C448.324,319.76 447.524,317.573 447.524,314.8C447.524,311.92 448.324,309.733 449.924,308.24C451.631,306.64 453.711,305.84 456.164,305.84C458.724,305.84 460.804,306.587 462.404,308.08C464.004,309.573 464.804,311.813 464.804,314.8C464.804,317.68 463.951,319.92 462.244,321.52C460.538,323.013 458.458,323.76 456.004,323.76Z" style="fill:rgb(208,215,204);fill-rule:nonzero;"/>
            <path d="M551.925,418.8L549.845,415.92L564.565,418.8L564.565,425.84L542.165,426.8L540.245,411.44L541.365,411.92C536.672,417.04 531.605,420.933 526.165,423.6C520.725,426.16 515.445,427.44 510.325,427.44C504.139,427.44 498.912,425.467 494.645,421.52C490.379,417.573 488.245,411.6 488.245,403.6C488.245,397.307 489.579,392.507 492.245,389.2C494.912,385.787 498.592,383.387 503.285,382C507.979,380.613 513.419,379.92 519.605,379.92L540.565,379.92L539.125,381.52L539.125,366.16C539.125,360.293 537.579,356.133 534.485,353.68C531.392,351.12 527.125,349.84 521.685,349.84C518.805,349.84 515.712,350.16 512.405,350.8C509.205,351.333 505.792,352.24 502.165,353.52L504.085,351.44L502.485,366L494.005,366L492.725,346.16C498.805,344.133 504.512,342.64 509.845,341.68C515.179,340.613 520.085,340.08 524.565,340.08C533.099,340.08 539.765,342 544.565,345.84C549.472,349.573 551.925,355.6 551.925,363.92L551.925,418.8ZM501.205,402.48C501.205,407.707 502.432,411.547 504.885,414C507.445,416.453 510.645,417.68 514.485,417.68C518.219,417.68 522.325,416.56 526.805,414.32C531.392,411.973 535.819,408.827 540.085,404.88L539.125,408.24L539.125,386.8L540.565,388.24L521.525,388.24C513.952,388.24 508.672,389.413 505.685,391.76C502.699,394 501.205,397.573 501.205,402.48Z" style="fill:rgb(208,215,204);fill-rule:nonzero;"/>
            <path d="M610.086,427.44C606.246,427.44 602.139,427.173 597.766,426.64C593.499,426.107 588.966,425.307 584.166,424.24L584.166,310L586.726,313.68L571.686,310.48L571.686,303.6L596.966,302.48L596.966,355.12L595.206,353.2C599.686,348.933 604.326,345.68 609.126,343.44C613.926,341.2 618.726,340.08 623.526,340.08C629.499,340.08 634.833,341.733 639.526,345.04C644.326,348.347 648.113,353.147 650.886,359.44C653.659,365.733 655.046,373.467 655.046,382.64C655.046,389.573 654.139,395.813 652.326,401.36C650.619,406.907 647.953,411.6 644.326,415.44C640.699,419.28 636.059,422.267 630.406,424.4C624.753,426.427 617.979,427.44 610.086,427.44ZM612.486,418C621.979,418 629.233,415.067 634.246,409.2C639.259,403.333 641.766,394.8 641.766,383.6C641.766,376.56 640.753,370.533 638.726,365.52C636.806,360.507 634.139,356.667 630.726,354C627.313,351.227 623.419,349.84 619.046,349.84C615.313,349.84 611.419,350.853 607.366,352.88C603.419,354.8 599.419,357.787 595.366,361.84L596.966,357.2L596.966,418.96L595.206,415.44C601.713,417.147 607.473,418 612.486,418Z" style="fill:rgb(208,215,204);fill-rule:nonzero;"/>
            <path d="M694.487,417.84L693.047,416.08L706.967,419.12L706.967,426L669.047,426L669.047,419.12L682.967,416.08L681.687,417.84L681.687,311.92L682.967,313.36L669.047,310.48L669.047,303.6L694.487,302.48L694.487,417.84Z" style="fill:rgb(208,215,204);fill-rule:nonzero;"/>
            <path d="M757.448,427.44C750.301,427.44 743.955,425.84 738.408,422.64C732.968,419.333 728.701,414.533 725.608,408.24C722.515,401.947 720.968,394.267 720.968,385.2C720.968,375.92 722.568,367.92 725.768,361.2C728.968,354.48 733.501,349.307 739.368,345.68C745.235,341.947 752.115,340.08 760.008,340.08C767.475,340.08 773.608,341.68 778.408,344.88C783.315,347.973 786.941,352.293 789.288,357.84C791.741,363.387 792.968,369.733 792.968,376.88C792.968,378.053 792.915,379.227 792.808,380.4C792.701,381.573 792.541,383.013 792.328,384.72L730.728,384.72L730.728,375.6L781.128,375.6L779.688,376.56C779.795,371.76 779.208,367.333 777.928,363.28C776.648,359.227 774.461,355.973 771.368,353.52C768.275,351.067 764.168,349.84 759.048,349.84C753.608,349.84 749.021,351.28 745.288,354.16C741.555,357.04 738.781,360.987 736.968,366C735.155,371.013 734.248,376.827 734.248,383.44C734.248,390.48 735.261,396.56 737.288,401.68C739.315,406.693 742.248,410.587 746.088,413.36C750.035,416.133 754.835,417.52 760.488,417.52C764.435,417.52 768.755,416.773 773.448,415.28C778.141,413.68 782.995,411.28 788.008,408.08L792.648,415.28C786.675,419.333 780.701,422.373 774.728,424.4C768.755,426.427 762.995,427.44 757.448,427.44Z" style="fill:rgb(208,215,204);fill-rule:nonzero;"/>
        </g>
    </g>
</svg>
