<svg version="1" xmlns="http://www.w3.org/2000/svg" width="800" height="800" viewBox="0 0 600.000000 600.000000"><path d="M183 72.5c-30 31.7-57 60.5-60.1 63.9l-5.7 6.2L137.9 360l20.6 217.5 47 3.2 47 3.1 3.6-3.6c2-2.1 27.6-29.1 56.9-60.2 29.3-31.1 54.8-58.1 56.7-60.1l3.4-3.6L371 435l-2.1-21.4 4.4-4.5c2.4-2.5 27.9-29.4 56.6-59.8l52.1-55.2-4-42.3c-2.2-23.3-4.2-44.3-4.6-46.9l-.5-4.5-37.5-2.4c-20.6-1.3-37.4-2.5-37.4-2.7 0-.2 15-16.2 33.3-35.5 18.2-19.3 33.5-35.5 33.8-36.2.4-.6-1.3-21.4-3.7-46.1-2.4-24.8-4.3-45.7-4.4-46.5 0-1.3-14.8-2.5-104.2-8.3-57.4-3.8-106.8-7.1-109.8-7.4l-5.5-.4L183 72.5zm169-42.4c53.1 3.4 96.8 6.5 97.3 6.9 1 .8 8.2 76.8 7.4 77.6-.3.4-28.4-1.2-62.4-3.4-33.9-2.3-61.8-4-61.9-3.9-.6.9 8.7 91.2 9.5 91.6.6.4 28.4 2.4 61.8 4.5 33.4 2.2 61.2 4.3 61.7 4.7.8.7 8.7 76.9 8.1 77.7-.1.1-28-1.6-62-3.8-33.9-2.3-62-3.9-62.3-3.5-.3.3 3 38.4 7.5 84.8 4.4 46.3 7.8 84.4 7.6 84.6-.6.7-75.7-4.1-77.3-5-1.2-.6-5.3-41-21.2-208.1C255 120.8 246.1 26.4 246 25.1c0-2.2.2-2.3 4.8-1.8 2.6.3 48.1 3.4 101.2 6.8z"/></svg>