<svg xmlns="http://www.w3.org/2000/svg" width="1600" height="1600" version="1.1" viewBox="0 0 1200 1200"><path d="m1111.2 411.6h-74.398l-48-150c-25.199-76.801-96-128.4-176.4-128.4l-424.8-0.003906c-80.398 0-152.4 51.602-176.4 128.4l-48 150-74.402 0.003906c-32.398 0-58.801 26.398-58.801 58.801v33.602c0 32.398 26.398 58.801 58.801 58.801h20.398c-12 54-18 109.2-18 164.4v282c0 32.398 26.398 58.801 58.801 58.801h98.398c32.398 0 58.801-26.398 58.801-58.801v-90h588v90c0 32.398 26.398 58.801 58.801 58.801h98.398c32.398 0 58.801-26.398 58.801-58.801v-283.2c0-55.199-6-110.4-18-164.4h20.398c32.398 0 58.801-26.398 58.801-58.801v-33.602c-2.3984-31.199-28.797-57.598-61.199-57.598zm-844.8 60 56.398-175.2c9.6016-28.801 36-48 64.801-48h424.8c30 0 56.398 19.199 64.801 48l56.398 175.2c2.3984 8.3984-3.6016 15.602-12 15.602l-235.2-0.003906 116.4-132c9.6016-10.801 8.3984-26.398-2.3984-36-10.801-9.6016-26.398-8.3984-36 2.3984l-146.4 166.8h-184.8l116.4-132c9.6016-10.801 8.3984-26.398-2.3984-36-10.801-9.6016-26.398-8.3984-36 2.3984l-146.4 165.6h-87.602c-7.1992 0-13.199-8.3984-10.801-16.797zm122.4 286.8h-118.8c-20.398 0-36-15.602-36-36v-56.398c0-21.602 20.398-39.602 42-36l110.4 18c14.398 2.3984 26.398 13.199 30 27.602l8.3984 38.398c4.8047 22.801-11.996 44.398-35.996 44.398zm576-36c0 20.398-15.602 36-36 36h-118.8c-22.801 0-39.602-21.602-34.801-43.199l8.3984-38.398c3.6016-14.398 14.398-25.199 30-27.602l110.4-18c21.602-3.6016 42 13.199 42 36l0.003906 55.199z"/></svg>