<?xml version="1.0" encoding="UTF-8"?>
<svg width="1200pt" height="1200pt" version="1.1" viewBox="0 0 1200 1200" xmlns="http://www.w3.org/2000/svg">
 <path d="m839.64 1127.9h-227.03l14.414-100.9h425.23l10.812 100.9zm-616.21-875.68v154.95h-32.434l-54.055 100.9v90.09h90.09v21.621c-46.848 14.414-79.277 54.055-79.277 104.5 0 57.656 46.848 108.11 108.11 108.11 57.656 0 108.11-50.449 108.11-108.11 0-14.414-3.6055-28.828-10.812-43.242l-50.449 21.621c0 7.207 3.6055 14.414 3.6055 21.621 0 25.227-21.621 50.449-50.449 50.449s-50.449-25.227-50.449-50.449c0-50.449 61.262-57.656 79.277-50.449v-75.676h90.09v-90.09l-54.055-100.9h-32.434v-151.35l389.19 428.83c-7.207 14.414-10.812 25.227-10.812 39.641l-32.434 234.23h407.21l-28.828-234.23c-14.414-86.488-82.883-147.75-172.97-147.75-10.812 0-21.621 0-32.434 3.6055l-457.66-407.21v-7.207c0-50.449-43.242-93.695-93.695-93.695-50.449 0-93.695 43.242-93.695 93.695 0 39.641 25.227 75.676 61.262 86.488zm-28.828 288.29v-18.02l28.828-54.055h61.262c10.812 18.02 21.621 36.035 32.434 54.055v18.02zm645.05 151.35c-39.641 0-72.07 32.434-72.07 72.07 0 39.641 32.434 72.07 72.07 72.07 39.641 0 72.07-32.434 72.07-72.07 0-39.641-32.434-72.07-72.07-72.07z" fill-rule="evenodd"/>
</svg>
