<?xml version="1.0" encoding="UTF-8"?>
<svg width="1200pt" height="1200pt" version="1.1" viewBox="0 0 1200 1200" xmlns="http://www.w3.org/2000/svg">
 <path d="m1041.2 1058.8h-17.645v-98.824c84.707-60 141.18-158.82 141.18-271.77 0-236.47-243.53-402.35-462.35-310.59 3.5273-7.0547 3.5273-14.113 3.5273-24.703 0-31.766-14.117-60-38.824-81.176l-17.648-63.531 74.117 21.176v-141.18l-74.117 21.176 21.18-74.117h-141.18l21.176 74.117-74.117-21.176v141.18l74.117-21.176-17.648 63.531c-24.707 21.176-38.824 49.41-38.824 81.176 0 10.59 0 17.648 3.5312 24.707-218.82-91.766-462.36 74.117-462.36 310.59 0 112.94 56.469 211.77 141.18 271.77v98.824h-17.645c-28.234 0-52.941 24.707-52.941 52.941s24.707 52.941 52.941 52.941h882.35c28.234 0 52.941-24.707 52.941-52.941s-24.707-52.941-52.941-52.941zm-723.53-35.293c-21.176 0-35.293-14.117-35.293-35.293s14.117-35.293 35.293-35.293c21.176 0 35.293 14.117 35.293 35.293 0 21.172-17.648 35.293-35.293 35.293zm141.18 0c-21.176 0-35.293-14.117-35.293-35.293s14.117-35.293 35.293-35.293 35.293 14.117 35.293 35.293c0 21.172-17.648 35.293-35.293 35.293zm35.293-141.18h-303.53c-52.941-49.41-84.707-116.47-84.707-194.12 0-197.65 208.23-324.71 381.18-236.47 3.5312 0 3.5312 3.5312 7.0586 3.5312zm105.88-758.82c21.176 0 35.293 14.117 35.293 35.293s-14.117 35.293-35.293 35.293-35.293-14.117-35.293-35.293 14.117-35.293 35.293-35.293zm0 300c21.176 0 35.293 14.117 35.293 35.293s-14.117 35.293-35.293 35.293-35.293-14.117-35.293-35.293 14.117-35.293 35.293-35.293zm0 247.06c21.176 0 35.293 14.117 35.293 35.293 0 21.176-14.117 35.293-35.293 35.293s-35.293-14.117-35.293-35.293c0-21.176 14.117-35.293 35.293-35.293zm0 352.94c-21.176 0-35.293-14.117-35.293-35.293s14.117-35.293 35.293-35.293 35.293 14.117 35.293 35.293c0 21.172-17.645 35.293-35.293 35.293zm141.18 0c-21.176 0-35.293-14.117-35.293-35.293s14.117-35.293 35.293-35.293 35.293 14.117 35.293 35.293c0 21.172-17.645 35.293-35.293 35.293zm141.18 0c-21.176 0-35.293-14.117-35.293-35.293s14.117-35.293 35.293-35.293c21.176 0 35.293 14.117 35.293 35.293 0.003907 21.172-17.645 35.293-35.293 35.293zm-176.47-141.18v-427.06c3.5312 0 3.5312-3.5312 7.0586-3.5312 172.94-88.234 381.18 38.824 381.18 236.47 0 77.648-31.766 144.71-84.707 194.12z"/>
</svg>
