<svg xmlns="http://www.w3.org/2000/svg" width="1600" height="1600" version="1.1" viewBox="0 0 1200 1200"><g><path d="m536 600-48 96 72 52 72-52-32-64c36 12 72 20 108 20 64 0 124-20 172-48l-56-56-40-268h4c8 4 16 8 24 8 28 0 52-24 52-52s-24-52-52-52-52 24-52 52c0 4 0 12 4 16l-4 4-264-44-56-56c-32 52-48 108-48 172-4 112 56 216 144 272zm248-100-108-108 76-76zm28-280c8 0 16 8 16 16s-8 16-16 16c-8-4-12-12-12-20s4-12 12-12zm-84 68-80 80-108-108z"/><path d="m564 792-128 96 128 52 132-52z"/><path d="m612 960 200 84-72-136z"/><path d="m596 772 120 88-64-128z"/><path d="m316 1044 200-84-132-56z"/><path d="m408 860 124-88-60-44z"/></g></svg>