<?xml version="1.0" encoding="UTF-8"?>
<svg width="1200pt" height="1200pt" version="1.1" viewBox="0 0 1200 1200" xmlns="http://www.w3.org/2000/svg">
 <g>
  <path d="m531.94 277.61h20.598c-1.793-49.254-22.387-94.031-52.836-128.06l-14.328 14.328c-1.793 1.793-3.582 2.6875-6.2695 2.6875s-4.4766-0.89453-6.2695-2.6875c-3.582-3.582-3.582-8.957 0-12.539l14.328-14.328c-34.031-31.344-78.805-51.043-128.06-52.836v20.598c0 4.4766-4.4766 8.957-8.957 8.957-4.4766 0-8.957-4.4766-8.957-8.957l0.003906-20.598c-49.254 1.793-94.031 22.387-128.06 52.836l14.328 14.328c3.582 3.582 3.582 8.957 0 12.539-1.793 1.793-4.4766 2.6875-6.2695 2.6875-2.6875 0-4.4766-0.89453-6.2695-2.6875l-14.328-14.328c-31.344 34.031-51.043 78.805-53.73 128.06h20.598c4.4766 0 8.957 4.4766 8.957 8.957 0 4.4766-4.4766 8.957-8.957 8.957h-20.598c2.6875 49.254 22.387 94.031 53.73 128.06l14.328-14.328c3.582-3.582 8.957-3.582 12.539 0 3.582 3.582 3.582 8.957 0 12.539l-14.328 14.328c34.031 31.344 78.805 51.043 128.06 52.836v-20.598c0-4.4766 4.4766-8.957 8.957-8.957 4.4766 0 8.957 4.4766 8.957 8.957v20.598c49.254-1.793 94.031-21.492 128.06-52.836l-14.328-14.328c-3.582-3.582-3.582-8.957 0-12.539 3.582-3.582 8.957-3.582 12.539 0l14.328 14.328c31.344-34.031 51.043-78.805 52.836-128.06h-20.598c-4.4766 0-8.957-4.4766-8.957-8.957-0.003906-4.4805 4.4727-8.957 8.9531-8.957zm-182.69 0c36.715 0 67.164 30.449 67.164 67.164 0 34.031-25.074 61.793-58.207 66.27v21.492c0 4.4766-4.4766 8.957-8.957 8.957-4.4766 0-8.957-4.4766-8.957-8.957v-21.492c-32.238-4.4766-58.207-32.238-58.207-66.27 0-4.4766 4.4766-8.957 8.957-8.957 4.4766 0 8.957 4.4766 8.957 8.957 0 26.867 22.387 49.254 49.254 49.254 26.867 0 49.254-21.492 49.254-49.254-0.003907-27.762-22.391-49.254-49.258-49.254-36.715 0-67.164-29.551-67.164-67.164 0-34.031 25.074-61.793 58.207-66.27v-21.492c0-4.4766 4.4766-8.957 8.957-8.957 4.4766 0 8.957 4.4766 8.957 8.957v21.492c32.238 4.4766 58.207 32.238 58.207 66.27 0 5.375-3.582 8.957-8.957 8.957-4.4766 0-8.957-3.582-8.957-8.957 0-26.867-21.492-49.254-49.254-49.254s-49.254 22.387-49.254 49.254c0.003906 27.762 22.391 49.254 49.258 49.254z"/>
  <path d="m466.57 474.62c-34.031 21.492-74.328 34.031-117.31 34.031s-83.285-12.539-117.31-34.031c-62.688 9.8516-85.969 25.969-85.969 34.031 0 15.223 69.852 42.09 203.29 42.09 133.43 0 203.29-27.762 203.29-42.09-0.003907-8.0586-23.289-24.18-85.977-34.031z"/>
  <path d="m145.97 533.73v61.793c0 4.4766 6.2695 10.746 19.703 16.121v-31.344c0-4.4766 4.4766-8.957 8.957-8.957 4.4766 0 8.957 4.4766 8.957 8.957v37.613c13.434 4.4766 29.551 8.0586 49.254 11.641v-34.031c0-5.375 3.582-8.957 8.957-8.957 4.4766 0 8.957 3.582 8.957 8.957v36.715c15.223 1.793 31.344 3.582 49.254 4.4766v-39.402c0-4.4766 3.582-8.957 8.957-8.957 4.4766 0 8.957 4.4766 8.957 8.957v40.297c9.8516 0 19.703 0.89453 30.449 0.89453h18.805v-35.82c0-4.4766 4.4766-8.957 8.957-8.957 4.4766 0 8.957 4.4766 8.957 8.957v34.926c17.91-0.89453 34.926-1.793 49.254-3.582v-36.715c0-4.4766 4.4766-8.957 8.957-8.957 5.375 0 8.957 4.4766 8.957 8.957v34.031c19.703-2.6875 35.82-6.2695 49.254-9.8516v-37.613c0-4.4766 4.4766-8.957 8.957-8.957 5.375 0 8.957 4.4766 8.957 8.957v32.238c20.598-7.1641 31.344-15.223 31.344-20.598v-61.793c-39.402 25.074-134.33 34.926-203.29 34.926-67.188 0.003906-162.11-9.8477-201.52-34.922z"/>
  <path d="m445.07 650.15c-22.387 2.6875-44.777 4.4766-66.27 5.375h-0.89453-0.89453-26.867c-12.539 0-25.969 0-39.402-0.89453h-0.89453c-48.359-2.6875-101.2-8.957-137.02-21.492h-0.89453c-9.8516-3.582-17.91-7.1641-25.074-11.641v63.582c0 4.4766 6.2695 9.8516 19.703 16.121v-31.344c0-4.4766 4.4766-8.957 8.957-8.957 4.4766 0 8.957 4.4766 8.957 8.957l-0.007813 37.605c13.434 4.4766 29.551 8.0586 49.254 11.641v-34.031c0-5.375 3.582-8.957 8.957-8.957 4.4766 0 8.957 3.582 8.957 8.957v36.715c15.223 1.793 31.344 3.582 49.254 4.4766v-34.031c0-4.4766 3.582-8.957 8.957-8.957 4.4766 0 8.957 4.4766 8.957 8.957v34.926c9.8516 0 19.703 0.89453 30.449 0.89453h18.805v-35.82c0-4.4766 4.4766-8.957 8.957-8.957 4.4766 0 8.957 4.4766 8.957 8.957v34.926c17.91-0.89453 34.926-1.793 49.254-3.582v-36.715c0-4.4766 4.4766-8.957 8.957-8.957 5.375 0 8.957 4.4766 8.957 8.957v34.031c19.703-2.6875 35.82-6.2695 49.254-9.8516v-37.613c0-5.375 4.4766-8.957 8.957-8.957 5.375 0 8.957 3.582 8.957 8.957v32.238c20.598-7.1641 31.344-15.223 31.344-20.598v-63.582c-21.512 14.336-62.703 23.293-106.59 28.664z"/>
  <path d="m445.07 739.7c-22.387 2.6875-44.777 4.4766-66.27 5.375h-0.89453-0.89453-26.867c-12.539 0-25.969 0-39.402-0.89453h-0.89453c-48.359-2.6875-101.2-8.957-137.02-21.492h-0.89453c-9.8516-3.582-17.91-7.1641-25.074-11.641v63.582c0 4.4766 6.2695 9.8516 19.703 16.121v-31.344c0-5.375 4.4766-8.957 8.957-8.957 4.4766 0 8.957 3.582 8.957 8.957l-0.007813 37.605c13.434 4.4766 29.551 8.0586 49.254 11.641v-34.031c0-4.4766 3.582-8.957 8.957-8.957 4.4766 0 8.957 4.4766 8.957 8.957v36.715c15.223 1.793 31.344 3.582 49.254 4.4766v-34.031c0-4.4766 3.582-8.957 8.957-8.957 4.4766 0 8.957 4.4766 8.957 8.957v34.926c9.8516 0 19.703 0.89453 30.449 0.89453h18.805v-35.82c0-4.4766 4.4766-8.957 8.957-8.957 4.4766 0 8.957 4.4766 8.957 8.957v34.926c17.91-0.89453 34.926-1.793 49.254-3.582v-36.715c0-5.375 4.4766-8.957 8.957-8.957 5.375 0 8.957 3.582 8.957 8.957v34.031c19.703-2.6875 35.82-6.2695 49.254-9.8516v-37.613c0-4.4766 4.4766-8.957 8.957-8.957 5.375 0 8.957 4.4766 8.957 8.957v32.238c20.598-7.1641 31.344-15.223 31.344-20.598v-63.582c-21.512 14.336-62.703 23.289-106.59 28.664z"/>
  <path d="m445.07 829.25v0c-22.387 2.6875-44.777 4.4766-66.27 5.375h-0.89453-0.89453-26.867c-12.539 0-25.969 0-39.402-0.89453h-0.89453c-48.359-2.6875-101.2-8.957-137.02-21.492h-0.89453c-9.8516-3.582-17.91-7.1641-25.074-11.641v63.582c0 4.4766 6.2695 10.746 19.703 16.121v-31.344c0-4.4766 4.4766-8.957 8.957-8.957 4.4766 0 8.957 4.4766 8.957 8.957v37.613c13.434 4.4766 29.551 8.0586 49.254 11.641v-34.031c0-4.4766 3.582-8.957 8.957-8.957 4.4766 0 8.957 4.4766 8.957 8.957v36.715c15.223 1.793 31.344 3.582 49.254 4.4766v-34.031c0-4.4766 3.582-8.957 8.957-8.957 4.4766 0 8.957 4.4766 8.957 8.957v34.926c9.8516 0 19.703 0.89453 30.449 0.89453h18.805v-35.82c0-4.4766 4.4766-8.957 8.957-8.957 4.4766 0 8.957 4.4766 8.957 8.957v34.926c17.91-0.89453 34.926-1.793 49.254-3.582v-36.715c0-5.375 4.4766-8.957 8.957-8.957 5.375 0 8.957 3.582 8.957 8.957v34.031c19.703-2.6875 35.82-6.2695 49.254-9.8516v-37.613c0-4.4766 4.4766-8.957 8.957-8.957 5.375 0 8.957 4.4766 8.957 8.957v32.238c20.598-7.1641 31.344-15.223 31.344-20.598v-63.582c-21.52 13.434-62.711 23.281-106.59 28.656v0z"/>
  <path d="m445.07 917.91c-22.387 2.6875-44.777 4.4766-66.27 5.375h-0.89453-0.89453c-8.957 0-18.805 0.89453-26.867 0.89453-12.539 0-25.969 0-39.402-0.89453h-0.89453c-48.359-2.6875-101.2-8.957-137.02-21.492h-0.89453c-9.8516-3.582-17.91-7.1641-25.074-11.641v63.582c0 4.4766 6.2695 10.746 19.703 16.121v-31.344c0-5.375 4.4766-8.957 8.957-8.957 4.4766 0 8.957 3.582 8.957 8.957v37.613c13.434 4.4766 29.551 8.0586 49.254 11.641v-34.031c0-4.4766 3.582-8.957 8.957-8.957 4.4766 0 8.957 4.4766 8.957 8.957v36.715c15.223 1.793 31.344 3.582 49.254 4.4766v-34.031c0-5.375 3.582-8.957 8.957-8.957 4.4766 0 8.957 3.582 8.957 8.957v34.926c9.8516 0 19.703 0.89453 30.449 0.89453h18.805v-34.926c0-5.375 4.4766-8.957 8.957-8.957 4.4766 0 8.957 3.582 8.957 8.957v34.926c17.91-0.89453 34.926-1.793 49.254-3.582v-36.715c0-5.375 4.4766-8.957 8.957-8.957 5.375 0 8.957 3.582 8.957 8.957v34.031c19.703-2.6875 35.82-6.2695 49.254-9.8516v-37.613c0-5.375 4.4766-8.957 8.957-8.957 5.375 0 8.957 3.582 8.957 8.957v32.238c20.598-7.1641 31.344-15.223 31.344-20.598v-63.582c-21.52 12.539-62.711 21.496-106.59 26.867z"/>
  <path d="m445.07 1007.5c-22.387 2.6875-44.777 4.4766-66.27 5.375h-0.89453-0.89453-26.867c-12.539 0-25.969 0-39.402-0.89453h-0.89453c-48.359-2.6875-101.2-8.957-137.02-21.492-0.89453 0-0.89453 0-0.89453-0.89453-9.8516-3.582-17.91-7.1641-25.074-11.641v63.582c0 4.4766 6.2695 9.8516 19.703 16.121v-31.344c0-5.375 4.4766-8.957 8.957-8.957 4.4766 0 8.957 3.582 8.957 8.957v37.613c13.434 4.4766 29.551 8.0586 49.254 11.641v-34.031c0-5.375 3.582-8.957 8.957-8.957 4.4766 0 8.957 3.582 8.957 8.957v36.715c15.223 1.793 31.344 3.582 49.254 4.4766v-34.031c0-5.375 3.582-8.957 8.957-8.957 4.4766 0 8.957 3.582 8.957 8.957v34.926c9.8516 0 19.703 0.89453 30.449 0.89453h18.805v-34.926c0-5.375 4.4766-8.957 8.957-8.957 4.4766 0 8.957 3.582 8.957 8.957v34.926c17.91-0.89453 34.926-1.793 49.254-3.582v-36.715c0-4.4766 4.4766-8.957 8.957-8.957 5.375 0 8.957 4.4766 8.957 8.957v34.031c19.703-2.6875 35.82-6.2695 49.254-9.8516l-0.023437-38.508c0-4.4766 4.4766-8.957 8.957-8.957 5.375 0 8.957 4.4766 8.957 8.957v32.238c20.598-7.1641 31.344-15.223 31.344-20.598v-63.582c-21.496 14.328-62.688 24.18-106.57 29.551z"/>
  <path d="m445.07 1096.1c-22.387 2.6875-44.777 4.4766-66.27 5.375h-0.89453-0.89453c-8.957 0-18.805 0.89453-26.867 0.89453-12.539 0-25.969 0-39.402-0.89453h-0.89453c-48.359-2.6875-101.2-8.957-137.02-21.492-0.89453 0-0.89453 0-0.89453-0.89453-9.8516-3.582-17.91-7.1641-25.074-11.641v63.582c0 4.4766 6.2695 10.746 19.703 16.121v-31.344c0-4.4766 4.4766-8.957 8.957-8.957 4.4766 0 8.957 4.4766 8.957 8.957v37.613c13.434 4.4766 29.551 8.0586 49.254 11.641v-34.031c0-4.4766 3.582-8.957 8.957-8.957 4.4766 0 8.957 4.4766 8.957 8.957v36.715c15.223 1.793 31.344 3.582 49.254 4.4766l-0.011719-34.93c0-4.4766 3.582-8.957 8.957-8.957 4.4766 0 8.957 4.4766 8.957 8.957v34.926c9.8516 0 19.703 0.89453 30.449 0.89453h18.805v-35.82c0-4.4766 4.4766-8.957 8.957-8.957 4.4766 0 8.957 4.4766 8.957 8.957v34.926c17.91-0.89453 34.926-1.793 49.254-3.582v-36.715c0-4.4766 4.4766-8.957 8.957-8.957 5.375 0 8.957 4.4766 8.957 8.957v34.031c19.703-2.6875 35.82-6.2695 49.254-9.8516l-0.011719-36.719c0-5.375 4.4766-8.957 8.957-8.957 5.375 0 8.957 3.582 8.957 8.957v32.238c20.598-7.1641 31.344-15.223 31.344-20.598v-63.582c-21.496 14.332-62.688 23.285-106.57 28.66z"/>
  <path d="m349.25 44.777c133.43 0 241.79 108.36 241.79 241.79 0 5.375 3.582 8.957 8.957 8.957s8.957-3.582 8.957-8.957c-0.003907-143.29-116.42-259.7-259.71-259.7s-259.7 116.42-259.7 259.7c0 5.375 3.582 8.957 8.957 8.957s8.957-3.582 8.957-8.957c-0.003906-133.43 108.36-241.79 241.79-241.79z"/>
  <path d="m946.57 1093.4c-22.387 2.6875-44.777 4.4766-66.27 5.375h-0.89453-0.89453c-9.8516 0-18.805 0.89453-26.867 0.89453-12.539 0-25.969 0-39.402-0.89453h-0.89453c-48.359-2.6875-101.2-8.957-137.02-21.492h-1.793c-9.8516-3.582-17.91-7.1641-25.074-11.641v63.582c0 4.4766 6.2695 9.8516 19.703 16.121v-31.344c0-4.4766 4.4766-8.957 8.957-8.957 5.375 0 8.957 4.4766 8.957 8.957v37.613c13.434 4.4766 29.551 8.0586 49.254 11.641v-34.031c0-4.4766 3.582-8.957 8.957-8.957s8.957 4.4766 8.957 8.957v36.715c15.223 1.793 31.344 3.582 49.254 4.4766v-34.031c0-4.4766 4.4766-8.957 8.957-8.957 4.4766 0 8.957 4.4766 8.957 8.957v34.926c9.8516 0 19.703 0.89453 30.449 0.89453h18.805v-35.82c0-4.4766 4.4766-8.957 8.957-8.957 4.4766 0 8.957 4.4766 8.957 8.957v34.926c17.91-0.89453 34.926-1.793 49.254-3.582v-36.715c0-4.4766 3.582-8.957 8.957-8.957s8.957 4.4766 8.957 8.957v34.031c19.703-2.6875 35.82-6.2695 49.254-9.8516v-37.613c0-4.4766 4.4766-8.957 8.957-8.957 4.4766 0 8.957 4.4766 8.957 8.957v32.238c20.598-7.1641 31.344-15.223 31.344-20.598v-63.582c-20.621 13.434-61.812 22.387-105.7 27.762z"/>
  <path d="m946.57 1004.8c-22.387 2.6875-44.777 4.4766-66.27 5.375h-0.89453-0.89453-26.867c-12.539 0-25.969 0-39.402-0.89453h-0.89453c-48.359-2.6875-101.2-8.957-137.02-21.492 0 0-0.89453 0-1.793-0.89453-9.8516-3.582-17.91-7.1641-25.074-11.641v63.582c0 4.4766 6.2695 10.746 19.703 16.121v-31.344c0-4.4766 4.4766-8.957 8.957-8.957 5.375 0 8.957 4.4766 8.957 8.957v37.613c13.434 4.4766 29.551 8.0586 49.254 11.641l-0.003906-34.039c0-5.375 3.582-8.957 8.957-8.957s8.957 3.582 8.957 8.957v36.715c15.223 1.793 31.344 3.582 49.254 4.4766v-34.031c0-4.4766 4.4766-8.957 8.957-8.957 4.4766 0 8.957 4.4766 8.957 8.957v34.926c9.8516 0 19.703 0.89453 30.449 0.89453h18.805v-35.82c0-4.4766 4.4766-8.957 8.957-8.957 4.4766 0 8.957 4.4766 8.957 8.957v34.926c17.91-0.89453 34.926-1.793 49.254-3.582v-36.715c0-5.375 3.582-8.957 8.957-8.957s8.957 3.582 8.957 8.957v34.031c19.703-2.6875 35.82-6.2695 49.254-9.8516v-37.613c0-4.4766 4.4766-8.957 8.957-8.957 4.4766 0 8.957 4.4766 8.957 8.957v32.238c20.598-7.1641 31.344-15.223 31.344-20.598v-63.582c-20.617 14.332-61.809 24.184-105.69 29.559z"/>
  <path d="m946.57 915.22c-22.387 2.6875-44.777 4.4766-66.27 5.375h-0.89453-0.89453c-9.8516 0-18.805 0.89453-26.867 0.89453-12.539 0-25.969 0-39.402-0.89453h-0.89453c-48.359-2.6875-101.2-8.957-137.02-21.492 0 0-0.89453 0-0.89453-0.89453-9.8516-3.582-17.91-7.1641-25.074-11.641v63.582c0 4.4766 6.2695 10.746 19.703 16.121v-31.344c0-5.375 4.4766-8.957 8.957-8.957 5.375 0 8.957 3.582 8.957 8.957v37.613c13.434 4.4766 29.551 8.0586 49.254 11.641l-0.007813-34.93c0-4.4766 3.582-8.957 8.957-8.957s8.957 4.4766 8.957 8.957v36.715c15.223 1.793 31.344 3.582 49.254 4.4766v-34.031c0-5.375 4.4766-8.957 8.957-8.957 4.4766 0 8.957 3.582 8.957 8.957v34.926c9.8516 0 19.703 0.89453 30.449 0.89453h18.805v-34.926c0-5.375 4.4766-8.957 8.957-8.957 4.4766 0 8.957 3.582 8.957 8.957v34.926c17.91-0.89453 34.926-1.793 49.254-3.582v-36.715c0-5.375 3.582-8.957 8.957-8.957s8.957 3.582 8.957 8.957v34.031c19.703-2.6875 35.82-6.2695 49.254-9.8516v-37.613c0-5.375 4.4766-8.957 8.957-8.957 4.4766 0 8.957 3.582 8.957 8.957v32.238c20.598-7.1641 31.344-15.223 31.344-20.598l-0.019532-63.578c-21.492 14.328-62.684 23.285-106.57 28.656z"/>
  <path d="m946.57 826.57c-22.387 2.6875-44.777 4.4766-66.27 5.375h-0.89453-0.89453-26.867c-12.539 0-25.969 0-39.402-0.89453h-0.89453c-48.359-2.6875-101.2-8.957-137.02-21.492 0 0-0.89453 0-0.89453-0.89453-9.8516-3.582-17.91-7.1641-25.074-11.641v63.582c0 4.4766 6.2695 9.8516 19.703 16.121v-31.344c0-4.4766 4.4766-8.957 8.957-8.957 5.375 0 8.957 4.4766 8.957 8.957v37.613c13.434 4.4766 29.551 8.0586 49.254 11.641v-34.031c0-4.4766 3.582-8.957 8.957-8.957s8.957 4.4766 8.957 8.957v36.715c15.223 1.793 31.344 3.582 49.254 4.4766v-34.031c0-5.375 4.4766-8.957 8.957-8.957 4.4766 0 8.957 3.582 8.957 8.957v34.926c9.8516 0 19.703 0.89453 30.449 0.89453h18.805v-34.926c0-5.375 4.4766-8.957 8.957-8.957 4.4766 0 8.957 3.582 8.957 8.957v34.926c17.91-0.89453 34.926-1.793 49.254-3.582v-36.715c0-4.4766 3.582-8.957 8.957-8.957s8.957 4.4766 8.957 8.957v34.031c19.703-2.6875 35.82-6.2695 49.254-9.8516v-37.613c0-4.4766 4.4766-8.957 8.957-8.957 4.4766 0 8.957 4.4766 8.957 8.957v32.238c20.598-7.1641 31.344-15.223 31.344-20.598l-0.027344-64.477c-21.492 14.328-62.684 24.18-106.57 29.551z"/>
  <path d="m647.46 709.25v61.793c0 4.4766 6.2695 10.746 19.703 16.121v-31.344c0-5.375 4.4766-8.957 8.957-8.957 5.375 0 8.957 3.582 8.957 8.957v37.613c13.434 4.4766 29.551 8.0586 49.254 11.641v-34.031c0-4.4766 3.582-8.957 8.957-8.957s8.957 4.4766 8.957 8.957v36.715c15.223 1.793 31.344 3.582 49.254 4.4766v-39.402c0-5.375 4.4766-8.957 8.957-8.957 4.4766 0 8.957 3.582 8.957 8.957v40.297c9.8516 0 19.703 0.89453 30.449 0.89453h18.805v-35.82c0-4.4766 4.4766-8.957 8.957-8.957 4.4766 0 8.957 4.4766 8.957 8.957v34.926c17.91-0.89453 34.926-1.793 49.254-3.582v-36.715c0-5.375 3.582-8.957 8.957-8.957s8.957 3.582 8.957 8.957v34.031c19.703-2.6875 35.82-6.2695 49.254-9.8516v-37.613c0-5.375 4.4766-8.957 8.957-8.957 4.4766 0 8.957 3.582 8.957 8.957v32.238c20.598-7.1641 31.344-15.223 31.344-20.598v-61.793c-39.402 25.074-134.33 34.926-203.29 34.926-67.184 0.003907-162.11-9.8477-201.52-34.922z"/>
  <path d="m968.06 650.15c-34.031 21.492-74.328 34.031-117.31 34.031s-83.285-12.539-117.31-34.031c-62.688 9.8516-85.969 25.969-85.969 34.031 0.89453 15.223 69.852 42.09 203.29 42.09s203.29-27.762 203.29-42.09c-0.003906-8.0586-23.289-23.285-85.977-34.031z"/>
  <path d="m668.06 471.94h-20.598c1.793 49.254 22.387 94.031 52.836 128.06l14.328-14.328c3.582-3.582 8.957-3.582 12.539 0 3.582 3.582 3.582 8.957 0 12.539l-14.328 14.328c34.031 31.344 78.805 51.043 128.06 52.836v-20.598c0-4.4766 4.4766-8.957 8.957-8.957 4.4766 0 8.957 4.4766 8.957 8.957v20.598c49.254-1.793 94.031-21.492 128.06-52.836l-14.328-14.328c-3.582-3.582-3.582-8.957 0-12.539 3.582-3.582 8.957-3.582 12.539 0l14.328 14.328c31.344-34.031 51.043-78.805 53.73-128.06h-20.598c-4.4766 0-8.957-4.4766-8.957-8.957 0-4.4766 4.4766-8.957 8.957-8.957h20.598c-2.6875-49.254-22.387-94.031-53.73-128.06l-14.328 14.328c-1.793 1.793-4.4766 2.6875-6.2695 2.6875-2.6875 0-4.4766-0.89453-6.2695-2.6875-3.582-3.582-3.582-8.957 0-12.539l14.328-14.328c-34.031-31.344-78.805-51.043-128.06-52.836v20.598c0 5.375-4.4766 8.957-8.957 8.957-4.4766 0-8.957-3.582-8.957-8.957v-21.488c-49.254 1.793-94.031 22.387-128.06 52.836l14.328 14.328c3.582 3.582 3.582 8.957 0 12.539-1.793 1.793-4.4766 2.6875-6.2695 2.6875-2.6875 0-4.4766-0.89453-6.2695-2.6875l-14.328-14.328c-31.344 34.031-51.043 78.805-52.836 128.06h20.598c4.4766 0 8.957 4.4766 8.957 8.957 0 4.4727-4.4766 9.8477-8.957 9.8477zm182.69 0c-36.715 0-67.164-29.551-67.164-67.164 0-34.031 25.074-61.793 58.207-66.27v-21.492c0-4.4766 4.4766-8.957 8.957-8.957 4.4766 0 8.957 4.4766 8.957 8.957v21.492c32.238 4.4766 58.207 32.238 58.207 66.27 0 5.375-4.4766 8.957-8.957 8.957-4.4766 0-8.957-3.582-8.957-8.957 0-26.867-22.387-49.254-49.254-49.254-26.867 0-49.254 22.387-49.254 49.254 0 26.867 21.492 49.254 49.254 49.254 36.715 0 67.164 29.551 67.164 67.164 0 34.031-25.074 61.793-58.207 66.27v21.492c0 4.4766-4.4766 8.957-8.957 8.957-4.4766 0-8.957-4.4766-8.957-8.957v-21.492c-32.238-4.4766-58.207-32.238-58.207-66.27 0-5.375 3.582-8.957 8.957-8.957 4.4766 0 8.957 3.582 8.957 8.957 0 26.867 21.492 49.254 49.254 49.254 27.762 0 49.254-21.492 49.254-49.254 0-27.762-22.387-49.254-49.254-49.254z"/>
  <path d="m850.75 202.39c-143.29 0-259.7 116.42-259.7 259.7 0 5.375 3.582 8.957 8.957 8.957s8.957-3.582 8.957-8.957c0-133.43 108.36-241.79 241.79-241.79s241.79 108.36 241.79 241.79c0 5.375 3.582 8.957 8.957 8.957s8.957-3.582 8.957-8.957c-0.007812-142.39-116.43-259.7-259.71-259.7z"/>
 </g>
</svg>
