<svg xmlns="http://www.w3.org/2000/svg" width="1600" height="1600" version="1.1" viewBox="0 0 1200 1200"><path d="m630.48 1027.4c-22.559 2.2812-44.52 2.2812-59.52-0.12109-122.76-13.199-226.08-63.602-303.6-160.44-77.398-96.719-108.96-208.32-89.879-330.48 34.801-223.08 226.68-377.52 446.52-364.8 214.92 12.359 386.04 181.32 402.48 395.16 16.801 215.88-135.12 433.68-396 460.68zm182.28-459.48c-1.9219-2.8789-4.6797-10.32-10.078-14.641-31.32-25.441-62.879-50.641-95.281-74.52-5.7617-4.3203-17.398-4.5586-24.84-2.1602-36.961 12.121-73.078 26.762-110.16 38.641-14.398 4.5586-20.039 12.359-21.961 26.398-6.1211 44.16-13.441 88.199-19.199 132.48-0.83984 6.2383 1.9219 15.719 6.4805 19.68 32.879 27.961 66.602 55.199 100.56 81.84 4.8008 3.7188 13.922 6.8398 18.719 4.8008 40.32-17.039 80.281-35.039 120-53.641 4.8008-2.2812 9.8398-8.7617 10.801-14.039 8.5195-46.562 16.199-93.359 24.961-144.84zm-126.24-195.96c0.60156-8.2812 0.48047-21.121 2.7617-33.602 2.6406-15.121-3.2383-22.922-16.441-29.762-27.719-14.16-54.238-30.48-81.84-44.762-7.5586-3.8398-18.121-6.7188-25.801-4.5586-33.238 9.2383-66.121 20.16-98.879 31.078-23.281 7.8008-39 21.48-36.961 49.32 0.71875 10.32-2.5195 21-3.8398 31.559-6.9609 51.719-6.9609 51.84 37.559 76.441 25.32 14.039 50.16 36.84 76.559 39 27.121 2.1602 56.16-15.48 84.121-25.199 59.883-21.117 59.883-21.234 62.762-89.516zm-201.6 563.52c37.922-5.8789 72.961-10.922 107.76-17.398 4.8008-0.83984 10.559-8.3984 12-13.922 6.7188-26.039 11.039-52.559 18.238-78.48 3.4805-12.719-0.71875-19.32-9.9609-26.641-32.16-25.441-63.48-52.078-96.121-77.039-6.8398-5.2812-18.121-8.1602-26.641-7.0781-34.32 4.1992-68.641 9.8398-102.6 16.32-6.3594 1.1992-14.762 8.3984-16.68 14.52-7.9219 25.68-14.641 51.719-19.559 78.121-1.3203 7.0781 3 18.602 8.6406 23.039 35.52 27.961 72 54.719 108.48 81.359 5.2812 3.9609 12.359 5.5195 16.441 7.1992zm393.12-143.88c26.281-13.441 51.238-25.199 75.121-38.762 6.4805-3.7188 11.762-11.879 14.52-19.199 23.762-62.039 30.238-126.12 20.398-191.88-1.6797-10.922-51.48-46.68-62.281-43.922-4.4414 1.0781-8.1602 5.3984-11.762 8.6406-18 15.961-36.602 31.32-53.398 48.48-7.3203 7.4414-13.801 18.121-15.84 28.199-8.2812 41.641-15.238 83.52-21.48 125.4-1.1992 8.0391 0.60156 18.84 5.2812 25.078 14.883 19.684 31.922 37.684 49.441 57.965zm-479.88-476.04c-13.801-2.2812-24.238-3.4805-34.559-5.7617-18.121-4.0781-31.559 0.60156-44.762 14.879-40.559 43.801-71.641 93-90.602 149.64-16.922 50.762-16.801 50.281 33 69.719 11.281 4.4414 17.52 2.8789 25.199-6.2383 29.641-35.281 60.121-69.84 90.121-104.76 3.1211-3.6016 6.6016-8.0391 7.1992-12.602 5.1641-34.195 9.6016-68.516 14.402-104.88zm-189.84 245.28c0 16.078-0.12109 30.121 0 44.039 1.0781 74.762 22.559 143.28 62.52 206.16 8.7617 13.68 41.039 19.441 44.641 7.6797 9.9609-32.281 17.16-65.398 24.48-98.398 0.83984-3.7188-3.7188-8.8789-6-13.199-16.078-30.602-35.039-60.121-47.762-92.16-14.039-35.762-44.277-43.199-77.879-54.121zm390.72-354.48c-2.0391 2.2812-4.1992 4.5586-6.2383 6.8398 5.7617 7.1992 10.078 16.801 17.52 21.359 30.238 18.238 61.32 35.16 92.281 51.961 5.8789 3.2383 13.199 4.3203 20.039 5.2812 34.922 4.4414 69.84 8.8789 104.88 12.48 6.3594 0.60156 13.078-3 19.68-4.5586-73.559-63.48-155.52-93.723-248.16-93.363zm-113.04 767.28c85.68 24.238 164.28 22.441 243.84-5.7617-81-12.957-159.96-23.398-243.84 5.7617zm390.6-653.16c-2.7617 0.83984-5.3984 1.5586-8.1602 2.3984 2.1602 6.6016 3.2383 13.801 6.4805 19.801 18.961 35.398 39.84 69.84 57 106.08 8.6406 18.121 21.84 24.48 41.641 31.441-20.402-63.719-52.684-115.44-96.961-159.72zm-63.121 605.28c35.762-14.879 108.36-88.801 116.04-123.12-15.48 9.3594-33.238 15.121-43.441 27.121-27 31.918-50.637 66.48-72.598 96z"/></svg>