<svg xmlns="http://www.w3.org/2000/svg" width="1600" height="1600" version="1.1" viewBox="0 0 1200 1200"><g><path d="m84 390v780h318v-780zm152.4 666h-66v-146.4h66zm0-158.4h-66v-52.801h66zm0-189.6h-66v-146.4h66zm0-158.4h-66v-52.801h66zm76.801 506.4h-66v-146.4h66zm0-158.4h-66v-52.801h66zm0-189.6h-66v-146.4h66zm0-158.4h-66v-52.801h66z"/><path d="m798 390v780h318v-780zm153.6 666h-66v-146.4h66zm0-158.4h-66v-52.801h66zm0-189.6h-66v-146.4h66zm0-158.4h-66v-52.801h66zm78 506.4h-66v-146.4h66zm0-158.4h-66v-52.801h66zm0-189.6h-66v-146.4h66zm0-158.4h-66v-52.801h66z"/><path d="m600 147.6-186 238.8v783.6h372v-783.6zm6 402v-52.801h66v52.801zm66 12v146.4h-66v-146.4zm-78 584.4h-103.2v-327.6h103.2zm0-438h-66v-146.4h66zm0-158.4h-66v-52.801h66zm-56.398-206.4c0-34.801 27.602-62.398 62.398-62.398 34.801 0 62.398 27.602 62.398 62.398 0 34.801-27.602 62.398-62.398 62.398-34.801 0.003906-62.398-27.598-62.398-62.398zm171.6 802.8h-103.2v-327.6h103.2z"/><path d="m1101.6 112.8h-780v-51.602h10.797v-31.199h-122.4v31.199h9.6016v51.602h-121.2l-57.598 265.2h363.6l195.6-249.6 195.6 249.6h363.6z"/></g></svg>