<?xml version="1.0" encoding="UTF-8"?>
<svg width="1200pt" height="1200pt" version="1.1" viewBox="0 0 1200 1200" xmlns="http://www.w3.org/2000/svg">
 <path d="m937.5 656.25v37.5h-89.176l-37.5 37.5h126.68v37.5h-164.18l-37.5 37.5h32.926v37.5h-70.426l-29.758 29.758c-0.20703 0.20703-0.46875 0.26172-0.67578 0.44922h0.003906c-1.5234 1.4531-3.2773 2.6367-5.1953 3.5039h-0.22656l-0.20703 0.09375-8.4141 3.6953h283.65v37.5h-487.5v-37.5h100.14l34.707-81.02v-0.20703l0.09375-0.22656v0.003906c0.86719-1.918 2.0508-3.6719 3.5039-5.1953 0.1875-0.20703 0.24219-0.46875 0.44922-0.67578l25.277-25.18h-351.68v-37.5h389.18l37.5-37.5h-32.926v-37.5h70.426l37.5-37.5h-89.176v-37.5h126.68l37.5-37.5h-257.93v-37.5h295.43l98.324-98.324v-332.93h-750v881.25h618.75c4.9727 0 9.7422 1.9766 13.258 5.4922 3.5156 3.5156 5.4922 8.2852 5.4922 13.258v93.75c0 20.098 10.723 38.664 28.125 48.715 17.402 10.047 38.848 10.047 56.25 0 17.402-10.051 28.125-28.617 28.125-48.715v-501.68l-89.176 89.176zm-487.5-472.73c0-4.6211 1.707-9.0781 4.7969-12.52 3.0859-3.4375 7.332-5.6172 11.93-6.1172 44.332-4.8398 86.516-21.652 122.02-48.637 3.2578-2.4688 7.2344-3.8047 11.324-3.8047 4.0898 0 8.0664 1.3359 11.324 3.8047 35.473 26.938 77.602 43.73 121.88 48.582 4.6055 0.5 8.8633 2.6875 11.949 6.1367 3.0898 3.4531 4.7891 7.9258 4.7773 12.555v97.594c0.03125 26.762-6.3906 53.133-18.723 76.883-12.332 23.75-30.207 44.176-52.113 59.543l-68.422 47.832c-3.1484 2.2031-6.8984 3.3828-10.742 3.3828s-7.5938-1.1797-10.742-3.3828l-68.418-47.812h-0.003906c-21.902-15.375-39.777-35.805-52.109-59.555-12.328-23.754-18.754-50.129-18.727-76.891zm-187.5 322.73h281.25v37.5h-281.25zm0 75h375v37.5h-375zm0 75h356.25v37.5h-356.25zm0 150h281.25v37.5h-281.25zm150 112.5h-150v-37.5h150zm525-75h-131.25v-37.5h131.25z"/>
 <path d="m542.32 386.81 57.676 40.312 57.695-40.332c34.414-24.172 54.871-63.617 54.805-105.68v-81.281c-40.344-6.8633-78.723-22.379-112.5-45.484-33.777 23.105-72.156 38.621-112.5 45.484v81.281c-0.066406 42.066 20.398 81.52 54.824 105.7zm-17.324-124.31h56.25v-56.25h37.5v56.25h56.25v37.5h-56.25v56.25h-37.5v-56.25h-56.25z"/>
 <path d="m825 993.75h-750v75c0 14.918 5.9258 29.227 16.477 39.773 10.547 10.551 24.855 16.477 39.773 16.477h712.99c-12.41-16.133-19.168-35.898-19.238-56.25z"/>
 <path d="m628.77 807.16 384.48-384.48 26.555 26.555-384.48 384.48z"/>
 <path d="m598.2 864.3 24.262-10.387-13.875-13.875z"/>
 <path d="m1092.8 343.14-53.043 53.043 26.512 26.512 33.148-33.148z"/>
</svg>
