<?xml version="1.0" encoding="UTF-8"?>
<svg width="1200pt" height="1200pt" version="1.1" viewBox="0 0 1200 1200" xmlns="http://www.w3.org/2000/svg">
 <path d="m538.49 699.99-70.086 121.38 7.457-4.293 193.88 335.81c37.246-9.9336 72.836-23.969 106.2-41.629l-237.45-411.27zm-87.336 151.24-65.125 112.82 118.25 204.8c11.297 0.76562 22.707 1.1484 34.215 1.1484 31.395 0 62.109-2.8359 91.914-8.293l-179.25-310.48zm-87.336 151.29-62.789 108.74c47.879 25.344 100.29 43.258 155.71 52.199l-92.922-160.94zm-96.082 89.477 251.43-435.49v-503.11c-132.73 4.9609-252.48 60.816-340.25 148.58-92 91.984-148.93 219.13-148.93 359.54 0 140.41 56.934 267.55 148.93 359.56 26.816 26.801 56.594 50.629 88.809 70.922zm902.27-573.2c-4.9609-132.72-60.816-252.48-148.58-340.23-87.746-87.762-207.51-143.62-340.23-148.58v488.81zm-248.8 162.03 92.891 160.87c19.062-50.301 30.387-104.4 32.5-160.87zm73.785 204.88-118.29-204.88h-130.14l179.14 310.28c27.242-31.961 50.57-67.336 69.293-105.41zm-96.676 135.06-196.26-339.93h-130.21l237.39 411.17c32.203-20.309 61.996-44.121 89.078-71.234z"/>
</svg>
