<svg xmlns="http://www.w3.org/2000/svg" width="1600" height="1600" version="1.1" viewBox="0 0 1200 1200"><g><path d="m806.25 131.25c0 11.25-7.5 18.75-18.75 18.75-33.75 0-69.375-5.625-101.25-20.625-28.125-13.125-56.25-18.75-86.25-16.875-30 0-60 5.625-86.25 16.875-31.875 15-67.5 20.625-101.25 20.625-11.25 0-18.75-7.5-18.75-18.75s7.5-18.75 18.75-18.75c30 0 60-5.625 86.25-16.875 31.875-15 67.5-20.625 101.25-20.625s69.375 5.625 101.25 20.625c28.125 13.125 56.25 18.75 86.25 16.875 11.25 0 18.75 7.5 18.75 18.75z"/><path d="m806.25 206.25c0 11.25-7.5 18.75-18.75 18.75-33.75 0-69.375-5.625-101.25-20.625-28.125-13.125-56.25-18.75-86.25-16.875-30 0-60 5.625-86.25 16.875-31.875 15-67.5 20.625-101.25 20.625-11.25 0-18.75-7.5-18.75-18.75s7.5-18.75 18.75-18.75c30 0 60-5.625 86.25-16.875 31.875-15 67.5-20.625 101.25-20.625s69.375 5.625 101.25 20.625c28.125 13.125 56.25 18.75 86.25 16.875 11.25 0 18.75 7.5 18.75 18.75z"/><path d="m806.25 281.25c0 11.25-7.5 18.75-18.75 18.75-33.75 0-69.375-5.625-101.25-20.625-28.125-13.125-56.25-18.75-86.25-16.875-30 0-60 5.625-86.25 16.875-31.875 15-67.5 20.625-101.25 20.625-11.25 0-18.75-7.5-18.75-18.75s7.5-18.75 18.75-18.75c30 0 60-5.625 86.25-16.875 31.875-13.125 65.625-20.625 101.25-20.625 33.75 0 69.375 5.625 101.25 20.625 28.125 13.125 56.25 18.75 86.25 16.875 11.25 0 18.75 7.5 18.75 18.75z"/><path d="m298.12 375-106.88 712.5h819.38l-106.88-712.5zm412.5 331.88-144.38 168.75c-3.75 3.75-9.375 7.5-15 5.625-1.875 0-5.625 0-7.5-1.875-7.5-3.75-11.25-11.25-11.25-18.75l7.5-110.62h-33.75c-5.625 0-11.25-1.875-15-7.5-3.75-3.75-5.625-9.375-3.75-15l26.25-131.25c1.875-9.375 9.375-15 18.75-15h103.12c11.25 0 18.75 7.5 18.75 18.75v5.625l-16.875 69.375h56.25c11.25 0 18.75 7.5 18.75 18.75 0 3.75-1.875 9.375-3.75 13.125z"/><path d="m600 705c-3.75-3.75-5.625-11.25-3.75-15l16.875-71.25h-65.625l-18.75 93.75h30c11.25 0 18.75 7.5 18.75 18.75v1.875l-5.625 75 80.625-93.75h-39.375c-5.625-1.875-9.375-3.75-13.125-9.375z"/></g></svg>