<svg xmlns="http://www.w3.org/2000/svg" width="1600" height="1600" version="1.1" viewBox="0 0 1200 1200"><path fill-rule="evenodd" d="m978.82 989.94 86.777 83.367-144.38-2.1484zm-477.85-637.89h-222.7l-75.664 378.95-68.211 341.94 746.02-0.003907-144-720.88h-204.63v-70.23c0-34.359 14.398-65.684 37.641-88.293 7.832-7.5781 16.547-14.273 26.148-19.707 9.6016 5.4297 18.316 12.125 26.148 19.707 23.242 22.609 37.641 53.938 37.641 88.293v142.23c-6.4414 2.2734-12.254 5.9375-17.051 10.484-8.3359 8.0859-13.391 19.328-13.391 31.707s5.1797 23.621 13.391 31.707c8.3359 8.0859 19.832 13.137 32.465 13.137s24.125-5.0508 32.465-13.137c8.3359-8.0859 13.391-19.328 13.391-31.707s-5.1797-23.621-13.391-31.707c-4.8008-4.6719-10.609-8.3359-17.051-10.484l-0.003906-142.11c0-42.695-17.938-81.473-46.738-109.52-4.293-4.293-8.9688-8.2109-13.77-12 9.7266-2.2734 19.832-3.5352 30.191-3.5352 35.242 0 67.328 14.02 90.57 36.758 23.242 22.609 37.641 53.938 37.641 88.293v70.23h-20.211l75.664 378.95 61.895 309.85 68.969-97.391 79.453 76.168-205.77-667.7h-29.18v-70.23c0-42.695-17.938-81.473-46.738-109.52s-68.59-45.602-112.29-45.602c-22.863 0-44.59 4.8008-64.293 13.391-19.707-8.5898-41.43-13.391-64.293-13.391-43.707 0-83.496 17.43-112.29 45.602-28.801 28.043-46.738 66.949-46.738 109.52v137.3c-6.4414 2.2734-12.254 5.9375-17.051 10.484-8.3359 8.0859-13.391 19.328-13.391 31.707s5.1797 23.621 13.391 31.707c8.3359 8.0859 19.832 13.137 32.465 13.137s24.125-5.0508 32.465-13.137c8.3359-8.0859 13.516-19.328 13.516-31.707s-5.1797-23.621-13.516-31.707c-4.8008-4.6719-10.609-8.3359-17.051-10.484l-0.011719-137.18c0-34.359 14.398-65.684 37.641-88.293 23.242-22.609 55.328-36.758 90.57-36.758 10.359 0 20.465 1.2617 30.191 3.5352-4.8008 3.7891-9.4727 7.707-13.77 12-28.801 28.043-46.738 66.949-46.738 109.52zm184.55 103.83c2.7773 2.6523 4.4219 6.3164 4.4219 10.484 0 4.043-1.6406 7.707-4.4219 10.484-2.7773 2.6523-6.5703 4.293-10.738 4.293-4.168 0-7.957-1.6406-10.738-4.293-2.7773-2.6523-4.4219-6.3164-4.4219-10.484 0-4.043 1.6406-7.832 4.4219-10.484 2.7773-2.6523 6.5703-4.293 10.738-4.293 4.1719-0.003906 7.9609 1.6406 10.738 4.293zm-287.12-4.8008c2.7773 2.6523 4.4219 6.3164 4.4219 10.484 0 4.043-1.6406 7.832-4.4219 10.484-2.7773 2.6523-6.5703 4.293-10.738 4.293-4.168 0-7.957-1.6406-10.738-4.293-2.7773-2.6523-4.4219-6.3164-4.4219-10.484 0-4.043 1.6406-7.707 4.4219-10.484 2.7773-2.6523 6.5703-4.293 10.738-4.293 4.1719-0.12891 7.9609 1.5117 10.738 4.293zm109.27 346.48c-11.621-2.7773-21.98-8.5898-30.191-16.672-11.621-11.367-18.82-27.156-18.82-44.465 0-17.305 7.1992-33.094 18.82-44.465 8.2109-7.957 18.57-13.77 30.191-16.547v-10.105c0-8.3359 6.9492-15.031 15.41-15.031 8.4648 0 15.41 6.6953 15.41 15.031v10.105c11.621 2.7773 21.98 8.5898 30.191 16.547 11.621 11.367 18.82 27.156 18.82 44.465 0 8.3359-6.9492 15.031-15.41 15.031-8.4648 0-15.41-6.6953-15.41-15.031 0-9.0938-3.7891-17.305-9.8516-23.242-2.3984-2.3984-5.3047-4.4219-8.4648-5.9375v63.914c11.621 2.7773 21.98 8.5898 30.191 16.672 11.621 11.367 18.82 27.156 18.82 44.465 0 17.305-7.1992 33.094-18.82 44.465-8.2109 7.957-18.57 13.77-30.191 16.547v10.105c0 8.3359-6.9492 15.031-15.41 15.031-8.4648 0-15.41-6.6953-15.41-15.031v-10.105c-11.621-2.7773-21.98-8.5898-30.191-16.547-11.621-11.367-18.82-27.156-18.82-44.465 0-8.3359 6.9492-15.031 15.41-15.031 8.4648 0 15.41 6.6953 15.41 15.031 0 9.0938 3.7891 17.305 9.8516 23.242 2.3984 2.3984 5.3047 4.4219 8.4648 5.9375zm0-90.316v58.484c-3.1562-1.5156-5.9375-3.5352-8.4648-5.9375-6.0625-5.9375-9.8516-14.148-9.8516-23.242s3.7891-17.305 9.8516-23.242c2.5273-2.3984 5.3047-4.4219 8.4648-6.0625zm30.82 154.11v-58.484c3.1562 1.5156 5.9375 3.5352 8.4648 5.9375 6.0625 5.9375 9.8516 14.148 9.8516 23.242s-3.7891 17.305-9.8516 23.242c-2.5273 2.5234-5.4336 4.5469-8.4648 6.0625zm-15.41-278.53c56.969 0 108.63 22.609 146.02 58.988 37.391 36.504 60.504 86.906 60.504 142.48 0 55.707-23.117 106.11-60.504 142.48-37.391 36.504-89.051 58.988-146.02 58.988-57.094 0-108.63-22.609-146.02-58.988-37.391-36.504-60.504-86.906-60.504-142.48 0-55.707 23.117-106.11 60.504-142.48 37.262-36.504 88.926-58.988 146.02-58.988zm124.29 80.211c31.832 31.074 51.535 73.895 51.535 121.26 0 47.367-19.707 90.191-51.535 121.26-31.832 31.074-75.789 50.273-124.29 50.273-48.504 0-92.465-19.199-124.29-50.273-31.832-31.074-51.535-73.895-51.535-121.26 0-47.367 19.707-90.191 51.535-121.26 31.832-31.074 75.789-50.273 124.29-50.273 48.504 0 92.461 19.199 124.29 50.273z"/></svg>