<svg xmlns="http://www.w3.org/2000/svg" width="1600" height="1600" version="1.1" viewBox="0 0 1200 1200"><g><path d="m845.25 412.5h-565.5l-34.387 412.5h634.26zm-39 356.25c0 10.352-8.3828 18.75-18.75 18.75h-450c-10.367 0-18.75-8.3984-18.75-18.75v-300c0-10.352 8.3828-18.75 18.75-18.75h450c10.367 0 18.75 8.3984 18.75 18.75z"/><path d="m656.25 750h112.5v-262.5h-112.5zm37.5-187.5h37.5v93.75h-37.5z"/><path d="m675 1031.2h112.5v18.75h-112.5z"/><path d="m337.5 1031.2h112.5v18.75h-112.5z"/><path d="m356.25 750h112.5v-262.5h-112.5zm37.5-187.5h37.5v93.75h-37.5z"/><path d="m1012.5 393.75c0 20.711-16.789 37.5-37.5 37.5s-37.5-16.789-37.5-37.5 16.789-37.5 37.5-37.5 37.5 16.789 37.5 37.5"/><path d="m969.73 468.23-12.094 169.27h34.742l-12.094-169.27c-1.7773 0.10938-3.4844 0.52344-5.2852 0.52344s-3.5078-0.41406-5.2695-0.52344z"/><path d="m956.25 825h56.25v-18.75h-56.25v-37.5h56.25v-37.5h-56.25v-37.5h56.25v-18.75h-107.76l12.508 150z"/><path d="m356.25 262.5c0-10.352 8.3828-18.75 18.75-18.75h93.75v37.5h-75v93.75h337.5v-93.75h-75v-37.5h93.75c10.367 0 18.75 8.3984 18.75 18.75v112.5h56.25v-37.5c0-144.75-117.75-262.5-262.5-262.5s-262.5 117.75-262.5 262.5v37.5h56.25zm206.25-18.75c-31.012 0-56.25-25.238-56.25-56.25 0-24.414 15.73-45.039 37.5-52.801v-22.199h37.5v22.199c21.77 7.7617 37.5 28.387 37.5 52.801h-37.5c0-10.332-8.3984-18.75-18.75-18.75s-18.75 8.418-18.75 18.75 8.3984 18.75 18.75 18.75c31.012 0 56.25 25.238 56.25 56.25 0 24.414-15.73 45.039-37.5 52.801v22.199h-37.5v-22.199c-21.77-7.7617-37.5-28.387-37.5-52.801h37.5c0 10.332 8.3984 18.75 18.75 18.75s18.75-8.418 18.75-18.75-8.3984-18.75-18.75-18.75z"/><path d="m262.5 1050h37.5v-37.5c0-10.352 8.3828-18.75 18.75-18.75h150c10.367 0 18.75 8.3984 18.75 18.75v37.5h150v-37.5c0-10.352 8.3828-18.75 18.75-18.75h150c10.367 0 18.75 8.3984 18.75 18.75v37.5h37.5v-112.5h-600z"/><path d="m937.5 862.5h-750v262.5h750zm-37.5 206.25c0 10.352-8.3828 18.75-18.75 18.75h-637.5c-10.367 0-18.75-8.3984-18.75-18.75v-150c0-10.352 8.3828-18.75 18.75-18.75h637.5c10.367 0 18.75 8.3984 18.75 18.75z"/><path d="m506.25 750h112.5v-262.5h-112.5zm37.5-187.5h37.5v93.75h-37.5z"/></g></svg>