<svg xmlns="http://www.w3.org/2000/svg" width="1600" height="1600" version="1.1" viewBox="0 0 1200 1200"><path d="m1199.9 599.5c-0.023438-15.25-0.77344-30.324-1.9258-45.324-0.10156-1.375-0.19922-2.7266-0.30078-4.1016-25.422-307.75-283.5-550.02-597.75-550.02-17.301 0-34.398 0.89844-51.324 2.3516-0.35156 0.023437-0.64844 0.050781-0.97656 0.074218-184.77 16-345.7 115.77-444.45 261.25 0 0.023438-0.023437 0.023438-0.050781 0.050782-0.050781 0.074218-0.10156 0.14844-0.14844 0.25-7.625 11.227-14.75 22.852-21.625 34.625-1.1992 2.0742-2.3984 4.125-3.5742 6.1992-13.727 24.227-25.773 49.477-36.102 75.602-0.39844 1.0234-0.80078 2.0508-1.1992 3.0742-10.25 26.449-18.648 53.75-25.125 81.824-0.25 1.0508-0.5 2.1016-0.69922 3.1484-6.0234 26.824-10.227 54.352-12.5 82.426-0.22656 2.75-0.44922 5.5234-0.625 8.3008-0.92969 13.473-1.5547 27.047-1.5547 40.773v0.52344c0.023438 0.80078 0.050781 1.6016 0.074219 2.3984 0.65234 137.65 47.879 264.33 126.58 365.33 0.19922 0.27344 0.27344 0.55078 0.5 0.82422 0.85156 1.1016 1.8008 2.0742 2.6484 3.1758 16.824 21.199 35.023 41.199 54.523 59.949 0.55078 0.55078 1.1484 1.1016 1.7266 1.6484 107.73 102.77 253.45 166.07 413.9 166.07 330.45 0 598.88-267.88 599.93-598.05 0.023437-0.32422 0.023437-0.64844 0.050781-0.97656 0.023437-0.39844 0.023437-0.77344 0-1.125v-0.26953zm-154.95 323.75-188.85 1.6016-103.4-139.62 70.824-216.8 164.4-57 161.32 112.43c-4.7227 111.72-42.695 214.67-104.3 299.4zm-10.75-660.8-61.074 201.18-165.4 57.352-183.45-133.82-0.5-174.4 173.1-126.52c94.445 36.219 176.27 97.695 237.32 176.22zm-633.9-175.15 173.45 125.48 0.52344 174.45-186.4 134.98-173.12-55.523-63.148-185.3c61.699-86.805 147.92-154.83 248.7-194.08zm-61.828 841.18-179.7 0.19922c-63.949-85.773-103.38-190.88-108.2-305.02l146.82-110 178.23 57.176 68.727 212.95zm93.926 195.47-53.75-165.6 105.77-144.6 227.25 0.35156 104.6 141.18-53.676 170.27c-51.398 15.875-106 24.426-162.65 24.426-58.477-0.023437-114.73-9.1719-167.55-26.023z"/></svg>