<svg xmlns="http://www.w3.org/2000/svg" width="1600" height="1600" version="1.1" viewBox="0 0 1200 1200"><path fill-rule="evenodd" d="m356.85 448.4c15.617 13.418 32.836 24.848 51.266 34.027-9.3203 33.895-14.406 68.816-15.148 103.96h-95.562c3.1484-51.512 24.172-100.31 59.445-137.99zm101.48-62.207v0.003906c-29.918 8.5898-57.703 23.359-81.562 43.352 12.309 10.312 25.691 19.262 39.922 26.699 9.0508-25.902 23.211-49.727 41.641-70.051zm-65.367 227.42c0.73828 35.145 5.8281 70.066 15.148 103.96-18.426 9.1953-35.645 20.633-51.266 34.051-35.289-37.695-56.312-86.523-59.445-138.06zm112.7-105.5v78.27h-85.445c0.82422-31.414 5.2617-62.633 13.227-93.031 23.223 8.4766 47.574 13.449 72.258 14.762zm-89.031 235.66c-14.215 7.4258-27.582 16.375-39.859 26.695 23.859 19.992 51.645 34.758 81.562 43.344-18.426-20.324-32.586-44.141-41.641-70.039zm24.969-11.07c20.547-7.6445 42.113-12.203 64-13.523v94.359c-25.574-8.0117-48.348-38.129-64-80.84zm64-119.1v78.297c-24.688 1.3047-49.039 6.2773-72.258 14.762-7.9688-30.41-12.406-61.637-13.227-93.059zm27.227 105.57h-0.003906c21.898 1.3203 43.48 5.875 64.039 13.523-15.664 42.711-38.453 72.824-64.039 80.84v-94.363zm89.031 24.594c-9.0547 25.898-23.215 49.715-41.641 70.039 29.918-8.5781 57.699-23.344 81.551-43.344-12.266-10.324-25.621-19.277-39.836-26.695zm-88.957-130.17h85.473c-0.83203 31.422-5.2656 62.645-13.215 93.059-23.215-8.4883-47.57-13.461-72.258-14.762zm0-105.5c24.688-1.3086 49.039-6.2812 72.258-14.762 7.9648 30.402 12.41 61.617 13.254 93.031h-85.512zm0-121.64c25.586 8 48.375 38.102 64.039 80.84-20.559 7.6406-42.141 12.184-64.039 13.484zm47.355-0.28516v0.003906c18.441 20.324 32.617 44.145 41.676 70.051 14.23-7.4297 27.613-16.383 39.91-26.699-23.848-20-51.629-34.77-81.547-43.352zm65.344 227.42h95.586v0.003906c-3.1328 51.523-24.168 100.33-59.473 137.99-15.609-13.402-32.809-24.828-51.211-34.027 9.2891-33.902 14.359-68.82 15.098-103.96zm36.129-165.16v0.003906c35.297 37.66 56.332 86.465 59.469 137.98h-95.613c-0.73828-35.141-5.8086-70.059-15.094-103.96 18.406-9.1836 35.609-20.613 51.211-34.023zm169.43 544.32c-0.011718 20.75 7.918 40.715 22.164 55.801 14.246 15.086 33.727 24.145 54.445 25.32 20.715 1.1719 41.094-5.6289 56.953-19.008 15.859-13.379 25.992-32.324 28.324-52.941 2.332-20.617-3.3164-41.344-15.789-57.926-12.469-16.582-30.816-27.762-51.27-31.246v-189.95c-0.027343-7.8594-3.1641-15.395-8.7227-20.953-5.5625-5.5586-13.094-8.6953-20.957-8.7227h-165.52c-3.168 9.5781-7.5234 18.719-12.965 27.211h178.43c1.3984 0.035156 2.5156 1.1836 2.5156 2.582v189.79c-18.891 3.2266-36.031 13.027-48.402 27.664-12.367 14.637-19.168 33.172-19.199 52.336zm142.77-379.16h-225.52v-27.227h225.52c4.5938-27 22.484-49.863 47.59-60.816 25.102-10.949 54.031-8.5039 76.945 6.4961 22.91 15.004 36.719 40.547 36.719 67.934s-13.809 52.93-36.719 67.934c-22.914 15-51.844 17.445-76.945 6.4961-25.105-10.953-42.996-33.816-47.59-60.816zm-47.949-326.32h0.003906c27.004-4.5898 49.875-22.484 60.824-47.594 10.953-25.105 8.5117-54.043-6.4961-76.957-15.004-22.918-40.551-36.727-67.941-36.727s-52.938 13.809-67.945 36.727c-15.004 22.914-17.445 51.852-6.4961 76.957 10.953 25.109 33.824 43.004 60.828 47.594v189.89c0 1.3984-1.1172 2.543-2.5156 2.5781h-178.43c5.6055 8.4023 9.9727 17.566 12.965 27.215h165.46c7.8594-0.03125 15.391-3.168 20.949-8.7266 5.5586-5.5586 8.6953-13.09 8.7266-20.953v-190zm-183-106.64c26.996-4.5898 49.855-22.48 60.805-47.578 10.945-25.102 8.5039-54.027-6.4961-76.934-15-22.91-40.539-36.711-67.922-36.711-27.383 0-52.918 13.801-67.922 36.711-15 22.906-17.441 51.832-6.4961 76.934 10.949 25.098 33.812 42.988 60.805 47.578v78.566l-8.5938 6.7344v0.003907c-4.3828 3.4219-10.41 3.8359-15.227 1.043-29.398-17.07-60.945-30.145-93.805-38.875-5.3672-1.4336-9.3242-5.9844-10-11.496l-10.516-85.574c-0.34766-2.9609-2.8672-5.1836-5.8438-5.1641h-145.46c-2.9805-0.03125-5.5 2.1992-5.832 5.1641l-10.527 85.574c-0.68359 5.5195-4.6602 10.074-10.039 11.496-32.848 8.75-64.387 21.824-93.793 38.875-4.793 2.793-10.801 2.3789-15.164-1.043l-68-53.098c-2.3242-1.8359-5.6562-1.6289-7.7383 0.47656l-102.91 102.8c-2.1133 2.1055-2.3203 5.4609-0.47656 7.8047l53.098 67.973v0.003906c3.4258 4.3789 3.8398 10.406 1.043 15.211-17.062 29.398-30.137 60.934-38.875 93.781-1.4062 5.3867-5.9688 9.3555-11.496 10l-85.574 10.527v0.003906c-2.9648 0.33984-5.1875 2.8633-5.1641 5.8438v145.43c-0.03125 2.9883 2.1914 5.5273 5.1641 5.8828l85.574 10.504c5.5234 0.66016 10.082 4.6289 11.496 10.012 8.7305 32.855 21.805 64.398 38.875 93.793 2.793 4.8125 2.3828 10.84-1.043 15.227l-53.098 68c-1.8438 2.3477-1.6367 5.7031 0.47656 7.8047l102.86 102.84h0.003906c2.0781 2.1211 5.4219 2.3203 7.7422 0.46484l68-53.07c4.3633-3.418 10.367-3.832 15.16-1.0469 29.406 17.07 60.957 30.145 93.82 38.879 5.3594 1.4375 9.3164 5.9766 10.012 11.484l10.527 85.574c0.33984 2.957 2.8555 5.1875 5.832 5.1602h145.5c2.9766 0.019531 5.4961-2.2031 5.8438-5.1602l10.516-85.574c0.69141-5.5039 4.6445-10.043 10-11.484 32.859-8.7305 64.406-21.805 93.805-38.879 4.8164-2.7852 10.84-2.3711 15.227 1.0469l8.5938 6.7344v78.57c-26.992 4.5898-49.855 22.48-60.805 47.578-10.945 25.098-8.5039 54.027 6.4961 76.934 15.004 22.91 40.539 36.711 67.922 36.711 27.383 0 52.922-13.801 67.922-36.711 15-22.906 17.441-51.836 6.4961-76.934-10.949-25.098-33.809-42.988-60.805-47.578v-189.96c-0.023438-7.8633-3.1562-15.395-8.7188-20.957-5.5586-5.5586-13.094-8.6953-20.957-8.7188h-64.648c-14.496 10.312-29.816 19.414-45.805 27.215-50.891 23.223-108.11 28.676-162.46 15.477-54.359-13.195-102.71-44.277-137.29-88.25-34.574-43.973-53.371-98.289-53.371-154.23 0-55.941 18.797-110.26 53.371-154.23 34.578-43.973 82.926-75.055 137.29-88.25 54.359-13.199 111.57-7.7461 162.46 15.48 15.762 8.2188 31.055 17.309 45.805 27.223h64.648c7.8594-0.027343 15.395-3.1602 20.953-8.7227 5.5586-5.5586 8.6953-13.09 8.7227-20.953zm-257.32 205.83v94.324c-21.883-1.3008-43.453-5.8477-64-13.484 15.652-42.734 38.426-72.84 64-80.84z"/></svg>