<svg xmlns="http://www.w3.org/2000/svg" width="1600" height="1600" version="1.1" viewBox="0 0 1200 1200"><path d="m1139.6 86.746c-0.30078-2.5664-1.5977-4.9219-3.5898-6.5156l-15.191-12.168c-4.1992-3.3594-10.309-2.6875-13.668 1.5l-183.62 229.23c-8.8086-2.6523-18.098-4.0664-27.59-4.0664-2.5547 0-5.1133 0.12109-7.6445 0.30078l-103.85-225.04c-1.1055-2.3633-3.0469-4.1641-5.4609-5.0625-2.4102-0.875-5.1133-0.78125-7.4297 0.30078l-17.672 8.1445c-4.8711 2.2422-7.0078 8.0273-4.7539 12.898l101.46 219.9c-13.621 7.3672-25.402 18.07-34.246 31.5-57.422-1.5234-114.73-2.4844-170.55-2.8203-16.777-0.10938-33.781-0.15625-50.52-0.15625-16.754 0-33.758 0.046875-50.508 0.15625-150.17 0.89844-305.75 6.1328-462.42 15.59-4.9219 0.28906-8.8203 4.2227-9.1211 9.0977l-0.082031 0.94922c-4.5977 54.168-26.172 342.57 0.082031 702.12 0.37109 4.8594 4.2617 8.7109 9.1094 9.0234 28.211 1.7148 57.203 3.3359 86.34 4.8242v49.5c0 5.3516 4.3555 9.7188 9.7188 9.7188h833.76c5.3633 0 9.7305-4.3555 9.7305-9.7188v-49.5c29.137-1.4883 58.129-3.1211 86.34-4.8242 4.8477-0.3125 8.7461-4.1641 9.0977-9.0234 26.258-359.54 4.668-647.95 0.097656-702.12l-0.097656-0.94922c-0.30078-4.8711-4.1992-8.8086-9.1211-9.0977-42.91-2.5781-86.258-4.8828-129.02-6.8398-5.5312-9.9102-12.707-18.602-21.023-25.789l179.36-223.91c1.6211-2.0156 2.3398-4.582 2.0859-7.1523zm-493.05 883.54 199.11-199.12c-1.4766 52.43-4.9453 104.77-10.379 156.84-1.3789 12.66-15.84 26.699-29.16 28.332-54.004 6.3711-106.9 11.016-159.57 13.945zm-28.969 1.4492c-36.602 1.6211-73.188 2.4258-109.99 2.4258-49.332 0-98.23-1.4414-147.35-4.3555l474.55-474.55c0.21484 0.83984 0.34766 1.668 0.44531 2.4844 8.5312 81.371 12.215 163.4 11.016 245.33zm-408.29-15.359c-13.379-1.6445-27.852-15.684-29.195-28.309-5.6289-53.09-9.168-106.46-10.621-159.88l316.37-316.37c7.2461-0.058594 14.496-0.097657 21.77-0.097657 99.359 0 197 5.8672 298.46 17.953 2.2305 0.27734 4.4766 0.88672 6.707 1.7773l-495.46 495.43c-35.703-2.7344-71.617-6.2148-108.03-10.512zm-39.742-301.3 199.49-199.46c26.531-1.5 53.004-2.5547 79.523-3.1914l-279.74 279.73c-0.24219-25.68 0-51.395 0.73047-77.078zm170.16-197.66-169.15 169.15c1.8242-43.031 4.9922-86.004 9.5273-128.77 1.3438-12.562 15.758-26.496 29.062-28.117 44.102-5.25 87.469-9.332 130.56-12.262zm654.79 524.25c-26.762 0-48.539-21.758-48.539-48.551 0-26.762 21.77-48.551 48.539-48.551 26.785 0 48.562 21.781 48.562 48.551 0 26.793-21.77 48.551-48.562 48.551zm70.102-214.08c0 3.6016-2.9023 6.4922-6.4922 6.4922h-121.15c-3.5898 0-6.4922-2.8906-6.4922-6.4922v-12.961c0-3.5742 2.9023-6.4922 6.4922-6.4922h121.15c3.5898 0 6.4922 2.9141 6.4922 6.4922zm0-128.05v12.973c0 3.6016-2.9023 6.4805-6.4922 6.4805h-121.15c-3.5898 0-6.4922-2.8789-6.4922-6.4805v-12.973c0-3.5625 2.9023-6.4805 6.4922-6.4805h121.15c3.5898 0 6.4922 2.918 6.4922 6.4805zm-67.055-214.07c26.762 0 48.539 21.781 48.539 48.562 0 26.762-21.77 48.539-48.539 48.539-26.785 0-48.539-21.781-48.539-48.539 0-26.785 21.754-48.562 48.539-48.562z"/></svg>