<?xml version="1.0" encoding="UTF-8"?>
<svg width="1200pt" height="1200pt" version="1.1" viewBox="0 0 1200 1200" xmlns="http://www.w3.org/2000/svg">
 <g>
  <path d="m988.31 492.94c-3.5391-3.5078-8.3281-5.4648-13.312-5.4375h-150c-4.9727 0-9.7422 1.9766-13.258 5.4922-3.5156 3.5156-5.4922 8.2852-5.4922 13.258v281.25h-18.75v-506.25c0-4.9727-1.9766-9.7422-5.4922-13.258-3.5156-3.5156-8.2852-5.4922-13.258-5.4922h-300c-4.9727 0-9.7422 1.9766-13.258 5.4922-3.5156 3.5156-5.4922 8.2852-5.4922 13.258v243.75h-197.25l4.3125-4.125c3.4258-3.5938 5.3672-8.3477 5.4375-13.312v-77.625c-0.070312-4.9648-2.0117-9.7188-5.4375-13.312l-50.812-50.625v-112.5l46.688-47.25h65.812v37.5h-12.375c-4.918 0.019531-9.6328 1.9727-13.125 5.4375l-44.062 44.062c-3.4648 3.4922-5.418 8.207-5.4375 13.125v62.25c0.019531 4.918 1.9727 9.6328 5.4375 13.125l44.062 44.062 26.438-26.625-38.438-38.438v-46.5l33-33h46.5l33 33v46.5l-37.5 38.438 26.438 26.625 44.062-44.062c3.4648-3.4922 5.418-8.207 5.4375-13.125v-62.25c-0.019531-4.918-1.9727-9.6328-5.4375-13.125l-44.062-44.062c-3.4922-3.4648-8.207-5.418-13.125-5.4375h-13.312v-37.5h93.75c4.9727 0 9.7422-1.9766 13.258-5.4922 3.5156-3.5156 5.4922-8.2852 5.4922-13.258v-75c0-4.9727-1.9766-9.7422-5.4922-13.258-3.5156-3.5156-8.2852-5.4922-13.258-5.4922h-197.06l-50.812-50.812c-3.5391-3.5078-8.3281-5.4648-13.312-5.4375h-77.625c-4.9844-0.027344-9.7734 1.9297-13.312 5.4375l-54.938 54.938c-3.5078 3.5391-5.4648 8.3281-5.4375 13.312v77.625c-0.027344 4.9844 1.9297 9.7734 5.4375 13.312l50.812 50.812v112.5l-50.812 50.625c-3.4258 3.5938-5.3672 8.3477-5.4375 13.312v77.625c0.070312 4.9648 2.0117 9.7188 5.4375 13.312l30 30-10.688 237.19h-6c-4.9727 0-9.7422 1.9766-13.258 5.4922-3.5156 3.5156-5.4922 8.2852-5.4922 13.258v225c0 4.9727 1.9766 9.7422 5.4922 13.258 3.5156 3.5156 8.2852 5.4922 13.258 5.4922h56.25c0 40.191 21.441 77.332 56.25 97.43 34.809 20.094 77.691 20.094 112.5 0 34.809-20.098 56.25-57.238 56.25-97.43h525c0 40.191 21.441 77.332 56.25 97.43 34.809 20.094 77.691 20.094 112.5 0 34.809-20.098 56.25-57.238 56.25-97.43h56.25c4.9727 0 9.7422-1.9766 13.258-5.4922 3.5156-3.5156 5.4922-8.2852 5.4922-13.258v-356.25c0.027344-4.9844-1.9297-9.7734-5.4375-13.312zm-838.31-399.19c14.918 0 29.227 5.9258 39.773 16.477 10.551 10.547 16.477 24.855 16.477 39.773s-5.9258 29.227-16.477 39.773c-10.547 10.551-24.855 16.477-39.773 16.477s-29.227-5.9258-39.773-16.477c-10.551-10.547-16.477-24.855-16.477-39.773s5.9258-29.227 16.477-39.773c10.547-10.551 24.855-16.477 39.773-16.477zm18.75 168.75v93.75h-37.5v-93.75zm-18.75 150c14.918 0 29.227 5.9258 39.773 16.477 10.551 10.547 16.477 24.855 16.477 39.773s-5.9258 29.227-16.477 39.773c-10.547 10.551-24.855 16.477-39.773 16.477s-29.227-5.9258-39.773-16.477c-10.551-10.547-16.477-24.855-16.477-39.773s5.9258-29.227 16.477-39.773c10.547-10.551 24.855-16.477 39.773-16.477zm-50.062 375 9.1875-206.25h40.875v206.25zm125.06 337.5c-19.891 0-38.969-7.9023-53.031-21.969-14.066-14.062-21.969-33.141-21.969-53.031s7.9023-38.969 21.969-53.031c14.062-14.066 33.141-21.969 53.031-21.969s38.969 7.9023 53.031 21.969c14.066 14.062 21.969 33.141 21.969 53.031s-7.9023 38.969-21.969 53.031c-14.062 14.066-33.141 21.969-53.031 21.969zm225-337.5h-262.5v-225h93.75v93.75h75v-93.75h93.75zm300 0h-262.5v-225h93.75v93.75h75v-93.75h93.75zm0-262.5h-262.5v-225h93.75v93.75h75v-93.75h93.75zm225 600c-19.891 0-38.969-7.9023-53.031-21.969-14.066-14.062-21.969-33.141-21.969-53.031s7.9023-38.969 21.969-53.031c14.062-14.066 33.141-21.969 53.031-21.969s38.969 7.9023 53.031 21.969c14.066 14.062 21.969 33.141 21.969 53.031s-7.9023 38.969-21.969 53.031c-14.062 14.066-33.141 21.969-53.031 21.969zm150-337.5h-206.25v-187.5h123.56l82.688 82.688z"/>
  <path d="m262.5 1050c0 20.711-16.789 37.5-37.5 37.5s-37.5-16.789-37.5-37.5 16.789-37.5 37.5-37.5 37.5 16.789 37.5 37.5"/>
  <path d="m1012.5 1050c0 20.711-16.789 37.5-37.5 37.5s-37.5-16.789-37.5-37.5 16.789-37.5 37.5-37.5 37.5 16.789 37.5 37.5"/>
  <path d="m168.75 150c0 10.355-8.3945 18.75-18.75 18.75s-18.75-8.3945-18.75-18.75 8.3945-18.75 18.75-18.75 18.75 8.3945 18.75 18.75"/>
  <path d="m168.75 468.75c0 10.355-8.3945 18.75-18.75 18.75s-18.75-8.3945-18.75-18.75 8.3945-18.75 18.75-18.75 18.75 8.3945 18.75 18.75"/>
 </g>
</svg>
