<?xml version="1.0" encoding="UTF-8"?>
<svg width="1200pt" height="1200pt" version="1.1" viewBox="0 0 1200 1200" xmlns="http://www.w3.org/2000/svg">
 <path d="m331.04 413.79h22.863l9.1953-82.758h-32.059c-22.816 0-41.379 18.562-41.379 41.379 0 22.816 18.562 41.379 41.379 41.379z"/>
 <path d="m367.69 289.66 4.7578-42.816c0.67578-57.172 41.562-106.6 97.75-117.84l22.297-4.457 8.1172 40.574-22.297 4.457c-30.406 6.0859-54.031 29.117-61.793 58.016h38.652c45.633 0 82.758-37.125 82.758-82.758h41.379c0 45.633 37.125 82.758 82.758 82.758h15.168c-23.879-19.441-43.031-44.98-55.066-75.074l38.418-15.367c20.629 51.574 68.094 86.016 122.79 90.047-7.8711-28.715-31.418-51.562-61.688-57.617l-22.297-4.457 8.1172-40.574 22.297 4.457c56.191 11.238 97.074 60.668 97.75 117.84l4.7617 42.812h36.652c15 0 29.07 4.0312 41.215 11.039-5.1172-166.68-142.28-300.7-310.18-300.7s-305.06 134.02-310.18 300.69c12.145-7.0039 26.215-11.035 41.215-11.035z"/>
 <path d="m301.2 707.41c-21.215-7.8008-42.016-16.75-62.18-26.832l-37.008-18.504 37.012-18.504c15.102-7.5508 28.234-17.719 38.98-29.805-15.059 4.5391-30.816 6.9297-46.871 6.9297h-94.879l35.32-35.32c15.824-15.824 29.363-33.324 40.473-52.09-15.242-10.41-33.242-16.039-52.023-16.039-28.949 0-56.605 13.824-73.973 36.984l-32.055 42.738c-34.824 46.43-54 103.96-54 162 0 37.73 8.0703 75.508 23.422 109.98l18.25-27.371c2.8438-57.73 26.68-111.6 67.84-152.76l29.258 29.262c-36.121 36.113-56.012 84.133-56.012 135.21v75.645c0 29.047 6.5312 57.391 19.051 83.242l22.328-44.656v-44.656c0-52.898 15.508-104.13 44.855-148.14l34.43 22.953c-24.797 37.199-37.906 80.492-37.906 125.2v99.082c0 32.082 6.75 63.434 19.727 92.332l42.426-84.855 0.097656-173.74c0.039063-60.012 28.188-114.05 73.438-148.29z"/>
 <path d="m868.96 331.04h-32.055l9.1953 82.758h22.859c22.816 0 41.379-18.562 41.379-41.379 0-22.816-18.562-41.379-41.379-41.379z"/>
 <path d="m847.93 455.17c-4.1523 73.375-49.305 138.37-117.45 167.58l-27.027 11.582v11.281l124.48 28.754c7.0664 1.6328 13.934 3.6758 20.629 6.0469 20.574-6.043 40.871-13.211 60.664-21.555-38.305-31.895-60.949-79.234-60.949-130.7v-10.922h41.379v10.922c0 7.9023 0.71484 15.668 2.0781 23.242 21.633 18.02 48.754 27.891 77.074 27.906-29.707-40.422-48.668-87.293-55.531-137.05-12.82 8.1602-28.016 12.914-44.312 12.914z"/>
 <path d="m600 715.57 62.07-62.07v-46.449l52.105-22.328c56.324-24.148 92.723-79.34 92.723-140.62 0-5.6211-0.31641-11.305-0.9375-16.895l-17.582-158.24h-126.31c-43.137 0-81.191-22.129-103.45-55.621-22.258 33.492-60.312 55.621-103.45 55.621h-43.551l-17.582 158.24c-0.62109 5.5898-0.9375 11.277-0.9375 16.895 0 61.281 36.395 116.48 92.719 140.61l52.109 22.332v46.449zm20.43-343.16c0-34.227 27.844-62.07 62.07-62.07s62.07 27.844 62.07 62.07v20.691h-41.379v-20.691c0-11.406-9.2812-20.691-20.691-20.691-11.406 0-20.691 9.2812-20.691 20.691v20.691h-41.379zm-165.52 0c0-34.227 27.844-62.07 62.07-62.07s62.07 27.844 62.07 62.07v20.691h-41.379v-20.691c0-11.406-9.2812-20.691-20.691-20.691-11.406 0-20.691 9.2812-20.691 20.691v20.691h-41.379zm21.926 90.246-0.61719-2.4648 40.141-10.051 0.61719 2.4727c9.5117 38.051 43.543 64.621 82.758 64.621 39.215 0 73.25-26.57 82.758-64.613l0.61719-2.4688 40.145 10.031-0.61719 2.4727c-14.121 56.5-64.66 95.961-122.9 95.961-58.238 0-108.78-39.461-122.9-95.961z"/>
 <path d="m310.34 528.16v-10.922h41.379v10.922c0 51.461-22.648 98.805-60.945 130.7 19.789 8.3438 40.09 15.512 60.664 21.555 6.6914-2.3672 13.562-4.4141 20.629-6.0469l124.48-28.754v-11.281l-27.027-11.582c-68.148-29.207-113.3-94.207-117.45-167.58l-21.035-0.003906c-16.297 0-31.488-4.7539-44.312-12.918-6.8633 49.766-25.824 96.633-55.531 137.05 28.32-0.011719 55.441-9.8828 77.074-27.906 1.3672-7.5703 2.0781-15.34 2.0781-23.238z"/>
 <path d="m818.62 714.69-129.34-29.879-89.281 89.277-89.277-89.277-129.34 29.879c-66.043 15.254-112.2 73.246-112.23 141.03l-0.13672 240.8c-0.007813 16.586 6.4414 32.18 18.168 43.91 11.723 11.73 27.316 18.191 43.902 18.191h24.203c-2.2969-6.4766-3.5586-13.434-3.5586-20.691v-41.379c0-7.2539 1.2617-14.215 3.5586-20.691h-44.941v-41.379h63.066c-0.63281-6.8984-0.99609-13.805-0.99609-20.691 0-125.49 102.09-227.59 227.59-227.59s227.59 102.09 227.59 227.59c0 6.8828-0.36328 13.793-0.99609 20.691h63.066v41.379h-44.938c2.2969 6.4766 3.5586 13.434 3.5586 20.691v41.379c0 7.2539-1.2617 14.215-3.5586 20.691h24.203c16.586 0 32.176-6.4609 43.902-18.191 11.727-11.73 18.176-27.324 18.168-43.91l-0.13672-240.8c-0.042969-67.781-46.195-125.77-112.23-141.03z"/>
 <path d="m393.1 1096.6v41.379c0 11.406 9.2812 20.691 20.691 20.691h20.691v-82.758h-20.691c-11.406 0-20.691 9.2812-20.691 20.688z"/>
 <path d="m786.21 1075.9h-20.691v82.758h20.691c11.406 0 20.691-9.2812 20.691-20.691v-41.379c0-11.406-9.2852-20.688-20.691-20.688z"/>
 <path d="m1146 596.96-32.055-42.738c-17.371-23.16-45.027-36.984-73.973-36.984-18.781 0-36.785 5.6289-52.027 16.035 11.109 18.766 24.648 36.266 40.473 52.09l35.32 35.324h-94.879c-16.055 0-31.812-2.3906-46.863-6.9297 10.742 12.09 23.879 22.258 38.98 29.805l37.008 18.504-37.016 18.504c-20.168 10.082-40.969 19.031-62.18 26.828 45.25 34.242 73.398 88.281 73.434 148.29l0.097657 173.74 42.426 84.855c12.977-28.898 19.727-60.25 19.727-92.332v-99.082c0-44.703-13.105-87.992-37.902-125.19l34.43-22.953c29.348 44.02 44.859 95.25 44.859 148.15v44.656l22.328 44.652c12.523-25.852 19.051-54.191 19.051-83.242v-75.645c0-51.082-19.891-99.102-56.008-135.22l29.258-29.262c42.289 42.293 66.223 98.008 67.961 157.54l17.461 24.074c15.781-34.871 24.086-73.191 24.086-111.46 0-58.035-19.176-115.57-53.996-162z"/>
 <path d="m785 1034.5c0.77344-6.8945 1.207-13.809 1.207-20.691 0-102.68-83.531-186.21-186.21-186.21s-186.21 83.531-186.21 186.21c0 6.8789 0.42969 13.793 1.207 20.691h19.484c22.816 0 41.379 18.562 41.379 41.379v76.668c34.203 30.672 77.945 47.469 124.14 47.469s89.934-16.797 124.14-47.469v-76.668c0-22.816 18.562-41.379 41.379-41.379zm-205.69-41.383h41.379c34.223 0 62.07 27.844 62.07 62.07 0 34.223-27.844 62.07-62.07 62.07v41.379h-41.379v-41.379c-34.223 0-62.07-27.844-62.07-62.07h41.379c0 11.406 9.2812 20.691 20.691 20.691h41.379c11.406 0 20.691-9.2812 20.691-20.691 0-11.406-9.2812-20.691-20.691-20.691h-41.379c-34.223 0-62.07-27.844-62.07-62.07 0-34.223 27.844-62.07 62.07-62.07v-41.379h41.379v41.379c34.223 0 62.07 27.844 62.07 62.07h-41.379c0-11.406-9.2812-20.691-20.691-20.691h-41.379c-11.406 0-20.691 9.2812-20.691 20.691 0.003906 11.41 9.2852 20.691 20.691 20.691z"/>
</svg>
