<svg xmlns="http://www.w3.org/2000/svg" width="1600" height="1600" version="1.1" viewBox="0 0 1200 1200"><g><path d="m900 900c7.5 0 15 0 22.5 1.875l1.875-7.5c1.875-7.5 0-15-3.75-22.5-9.375-11.25-26.25-13.125-37.5-3.75-1.875 0-1.875 1.875-3.75 3.75-5.625 5.625-5.625 15-3.75 22.5l1.875 7.5c7.5-1.875 15-1.875 22.5-1.875z"/><path d="m787.5 1050h225c0-61.875-50.625-112.5-112.5-112.5s-112.5 50.625-112.5 112.5z"/><path d="m750 1053.8v-3.75c0-60 35.625-114.38 91.875-138.75l-1.875-9.375c-7.5-33.75 11.25-67.5 45-76.875 33.75-7.5 67.5 11.25 76.875 45 1.875 9.375 1.875 20.625 0 30l-1.875 9.375c20.625 9.375 39.375 22.5 54.375 39.375v-76.875c0-60-31.875-114.38-82.5-144.38l-106.88-63.75-131.25 131.25-75-75v127.5c3.75 1.875 7.5 3.75 9.375 5.625l24.375-16.875c28.125-18.75 67.5-11.25 86.25 16.875 7.5 9.375 11.25 22.5 11.25 33.75v26.25c0 33.75-28.125 61.875-61.875 61.875-13.125 0-24.375-3.75-33.75-11.25l-24.375-16.875c-3.75 1.875-7.5 3.75-9.375 5.625v172.5h97.5c-1.875-5.625-3.75-13.125-3.75-18.75-1.875-24.375 13.125-45 35.625-52.5z"/><path d="m481.88 650.62c-13.125-7.5-26.25-16.875-37.5-26.25l-35.625 20.625 95.625 95.625 54.375-54.375c-11.25-3.75-22.5-7.5-31.875-13.125z"/><path d="m718.12 650.62-46.875 24.375c-9.375 5.625-20.625 9.375-31.875 13.125l54.375 54.375 95.625-95.625-35.625-20.625c-11.25 9.375-22.5 16.875-35.625 24.375z"/><path d="m618.75 900c0 10.355-8.3945 18.75-18.75 18.75s-18.75-8.3945-18.75-18.75 8.3945-18.75 18.75-18.75 18.75 8.3945 18.75 18.75"/><path d="m675 933.75c11.25 7.5 26.25 3.75 33.75-7.5 1.875-3.75 3.75-9.375 3.75-13.125v-26.25c0-13.125-11.25-24.375-24.375-24.375-5.625 0-9.375 1.875-13.125 3.75l-22.5 15c3.75 11.25 3.75 26.25 0 37.5z"/><path d="m525 866.25c-11.25-7.5-26.25-3.75-33.75 7.5-1.875 3.75-3.75 7.5-3.75 13.125v26.25c0 13.125 11.25 24.375 24.375 24.375 5.625 0 9.375-1.875 13.125-3.75l22.5-15c-3.75-11.25-3.75-26.25 0-37.5z"/><path d="m825 429.38v-30c0-7.5-3.75-15-9.375-18.75s-13.125-5.625-20.625-3.75h-7.5v-63.75h-1.875c-120-43.125-251.25-43.125-371.25 0h-1.875v63.75l-7.5-1.875c-7.5-1.875-15 0-20.625 3.75s-9.375 11.25-9.375 18.75v30c0 9.375 5.625 18.75 13.125 22.5l24.375 11.25v7.5c0 61.875 33.75 118.12 88.125 148.12l45 24.375c33.75 18.75 75 18.75 106.88 0l45-24.375c54.375-30 88.125-86.25 88.125-148.12v-7.5l24.375-11.25c9.375-3.75 15-11.25 15-20.625z"/><path d="m403.12 275.62c127.5-45 266.25-45 393.75 0l1.875-3.75c16.875-33.75 26.25-71.25 26.25-108.75v-76.875l-16.875 7.5c-22.5 11.25-48.75 16.875-75 16.875h-281.25c-20.625 1.875-39.375 9.375-54.375 24.375l-1.875 1.875c-22.5 22.5-28.125 54.375-15 82.5z"/><path d="m545.62 963.75c-28.125 18.75-67.5 11.25-86.25-16.875-5.625-9.375-9.375-22.5-9.375-33.75v-26.25c0-33.75 28.125-61.875 61.875-61.875 13.125 0 24.375 3.75 33.75 11.25l24.375 16.875c3.75-1.875 7.5-3.75 9.375-5.625v-127.5l-75 75-129.38-129.38-106.88 63.75c-7.5 5.625-15 9.375-22.5 15l67.5 67.5c39.375 39.375 60 91.875 60 146.25v166.88h206.25v-172.5c-3.75-1.875-7.5-3.75-9.375-5.625z"/><path d="m221.25 772.5c-22.5 30-33.75 65.625-33.75 101.25v251.25h150v-166.88c0-45-16.875-88.125-48.75-120z"/><path d="m1031.2 1087.5h-262.5c-11.25 0-18.75 7.5-18.75 18.75s7.5 18.75 18.75 18.75h262.5c11.25 0 18.75-7.5 18.75-18.75s-7.5-18.75-18.75-18.75z"/></g></svg>