<svg xmlns="http://www.w3.org/2000/svg" width="426.667" height="426.667" preserveAspectRatio="xMidYMid meet" version="1.0" viewBox="0 0 320 320"><metadata>Created by potrace 1.11, written by Peter Selinger 2001-2013</metadata><g fill="#000" stroke="none"><path d="M1557 3114 c-1 -1 -44 -4 -95 -8 -359 -25 -710 -197 -968 -476 -88 -95 -94 -103 -154 -191 -133 -194 -219 -430 -245 -669 -6 -60 -7 -293 -1 -325 2 -11 7 -45 11 -75 27 -220 127 -459 273 -660 82 -113 271 -294 390 -374 179 -120 429 -214 622 -233 95 -10 337 -10 412 -1 401 52 759 265 1014 604 211 280 296 551 289 924 -3 196 -6 223 -40 354 -121 479 -522 905 -991 1056 -89 28 -111 34 -184 46 -19 3 -38 8 -41 10 -9 5 -286 22 -292 18z m242 -421 c231 -40 431 -149 600 -329 257 -273 354 -623 279 -1004 -59 -302 -284 -593 -573 -742 -102 -52 -202 -87 -300 -103 -16 -3 -43 -7 -60 -10 -42 -7 -242 -7 -290 0 -268 40 -457 135 -642 322 -286 290 -384 682 -272 1092 86 318 393 633 719 739 155 51 369 65 539 35z" transform="translate(0.000000,320.000000) scale(0.100000,-0.100000)"/><path d="M1964 2125 c-17 -7 -88 -82 -174 -185 -80 -95 -157 -186 -172 -204 l-27 -31 -35 40 c-19 22 -87 103 -151 180 -168 200 -172 205 -215 205 -44 0 -70 -25 -77 -73 -4 -31 5 -45 113 -173 64 -76 128 -152 143 -169 14 -16 45 -54 69 -84 37 -47 41 -56 29 -70 -68 -79 -330 -417 -336 -434 -16 -42 3 -81 46 -98 37 -14 76 9 134 81 30 36 58 70 64 76 5 7 57 69 114 138 57 70 108 125 112 124 5 -2 83 -93 174 -203 92 -109 174 -204 183 -211 23 -16 72 -9 94 14 11 10 20 33 20 50 1 32 -14 54 -130 190 -11 13 -35 42 -54 64 -18 23 -68 83 -111 134 l-77 93 86 103 c47 57 103 123 124 148 136 162 160 194 160 213 0 43 -12 64 -44 79 -27 13 -37 14 -62 3z" transform="translate(0.000000,320.000000) scale(0.100000,-0.100000)"/></g></svg>