<svg xmlns="http://www.w3.org/2000/svg" width="933.333" height="933.333" preserveAspectRatio="xMidYMid meet" version="1.0" viewBox="0 0 700 700"><metadata>Created by potrace 1.14, written by Peter Selinger 2001-2017</metadata><g fill="#000" stroke="none"><path d="M1925 5756 c-253 -168 -455 -297 -516 -330 -87 -46 -81 -47 -181 27 -31 23 -66 49 -78 57 -12 8 -79 58 -150 111 l-128 97 -189 -94 c-247 -123 -252 -129 -278 -309 -3 -22 -12 -78 -20 -125 -32 -193 -35 -248 -12 -264 26 -20 3 -37 -59 -45 -67 -8 -80 -12 -77 -26 1 -5 9 -77 18 -160 17 -154 27 -204 52 -242 15 -23 75 -49 133 -57 70 -11 84 -16 110 -41 29 -28 34 -36 203 -386 63 -130 121 -239 131 -242 14 -5 124 -26 231 -43 17 -2 53 -9 81 -14 28 -5 59 -7 70 -5 10 2 24 4 29 4 6 1 37 26 70 56 33 30 63 55 67 55 8 0 25 -22 157 -212 140 -202 133 -197 276 -194 63 2 116 5 118 7 2 2 20 42 42 89 21 47 61 132 88 190 27 58 55 119 62 135 20 44 83 182 113 245 14 30 69 146 123 258 82 170 101 202 119 202 18 0 370 -101 505 -145 22 -7 84 -24 137 -36 83 -20 98 -27 98 -44 0 -28 -40 -110 -160 -325 -56 -102 -117 -212 -135 -245 -54 -100 -238 -432 -311 -560 -109 -191 -101 -162 -70 -262 15 -49 43 -137 61 -198 51 -168 44 -157 121 -184 85 -29 432 -158 574 -213 58 -22 193 -73 300 -113 360 -135 519 -200 533 -219 7 -10 1 -121 -7 -135 -2 -3 -7 -37 -10 -76 -4 -38 -9 -81 -11 -95 -3 -22 -11 -92 -31 -270 -10 -90 -11 -111 -4 -108 4 2 101 116 216 253 114 138 220 264 235 280 15 17 45 50 67 75 31 34 38 49 31 62 -9 17 -88 80 -169 133 -41 28 -196 147 -230 178 -8 7 -107 85 -220 172 -113 87 -219 170 -236 184 -17 14 -40 33 -50 41 -54 43 -131 106 -144 120 -21 22 -98 68 -212 126 l-98 49 23 18 c12 10 171 123 353 250 503 352 502 352 592 524 l58 113 53 -88 c29 -48 80 -130 112 -182 33 -52 65 -106 72 -120 7 -14 31 -56 55 -95 24 -38 48 -79 55 -90 31 -51 92 -132 111 -147 24 -21 71 -35 141 -43 107 -13 122 -15 181 -20 l61 -6 157 181 c87 99 163 186 169 193 7 7 41 46 77 87 35 41 67 77 70 80 3 3 87 97 185 210 196 224 226 257 330 367 l70 74 40 -52 c22 -28 54 -67 72 -87 37 -43 52 -89 58 -180 3 -37 8 -101 11 -142 11 -126 13 -154 13 -177 1 -13 5 -23 11 -23 8 0 99 102 257 286 26 30 42 59 43 76 0 33 -58 143 -190 363 -159 264 -264 425 -276 425 -6 0 -39 -39 -73 -87 -176 -251 -182 -257 -266 -267 -27 -3 -61 -8 -75 -10 -14 -3 -61 -10 -105 -16 -268 -37 -349 -50 -402 -65 -51 -15 -51 -16 -76 -83 -31 -82 -45 -128 -93 -302 -37 -138 -87 -265 -79 -205 4 33 14 136 20 205 3 38 17 275 18 305 0 6 -35 64 -78 130 -42 66 -109 170 -148 230 -140 216 -187 266 -421 441 l-145 108 -305 1 -305 1 -48 34 c-27 19 -50 37 -53 40 -3 3 -68 53 -145 110 -77 58 -142 107 -145 110 -3 3 -32 25 -65 50 -33 25 -90 68 -127 97 -62 49 -73 54 -145 64 -43 5 -89 12 -103 14 -56 9 -339 45 -390 50 -30 3 -71 8 -90 10 -19 3 -53 7 -75 10 -181 22 -299 37 -313 40 -72 13 -99 13 -117 1z m-1267 -1047 c15 -23 -9 -50 -39 -44 -66 13 -76 31 -33 64 28 22 50 16 72 -20z m287 -283 c91 -38 133 -96 131 -178 -2 -58 -16 -76 -48 -61 -43 20 -248 211 -248 232 0 32 96 36 165 7z" transform="translate(0.000000,700.000000) scale(0.100000,-0.100000)"/></g></svg>